<svg width="28" height="26" viewBox="0 0 28 26" fill="none" xmlns="http://www.w3.org/2000/svg">
<mask id="path-1-outside-1_1_4724" maskUnits="userSpaceOnUse" x="-0.80926" y="-0.809507" width="29.3428" height="27.3192" fill="black">
<rect fill="white" x="-0.80926" y="-0.809507" width="29.3428" height="27.3192"/>
<path d="M25.1365 11.1342C24.2325 7.61543 21.6977 4.69032 18.2775 3.3234C17.6867 1.47842 15.9496 0.202315 14.0001 0.202315C12.0007 0.202315 10.3031 1.51588 9.72292 3.32507C7.66306 4.15011 5.89908 5.54193 4.60853 7.3653C3.79324 8.51728 3.20545 9.79075 2.86127 11.1344C1.3768 11.2452 0.202562 12.4876 0.202562 13.9999C0.202562 15.513 1.37799 16.756 2.86364 16.8657C4.14028 21.8236 8.64909 25.4979 14.0001 25.4979C19.351 25.4979 23.8598 21.8236 25.1364 16.8657C26.622 16.756 27.7975 15.513 27.7975 13.9998C27.7975 12.4868 26.6221 11.244 25.1365 11.1342ZM1.35244 13.9998C1.35244 13.2065 1.89103 12.5366 2.62165 12.3363C2.57228 12.6785 2.53789 13.0239 2.51924 13.372C2.51892 13.3769 2.51876 13.3816 2.51849 13.3865C2.51515 13.4499 2.51218 13.5133 2.50992 13.5769C2.509 13.6009 2.50852 13.625 2.50787 13.6491C2.50647 13.6947 2.50501 13.7403 2.50415 13.7859C2.50291 13.8572 2.50216 13.9285 2.50216 13.9998C2.50216 14.0869 2.5035 14.1739 2.50555 14.261C2.50615 14.2882 2.5069 14.3154 2.50776 14.3426C2.5096 14.4059 2.51207 14.4692 2.51498 14.5325C2.51617 14.5593 2.51725 14.5862 2.5186 14.6131C2.5228 14.6921 2.52787 14.771 2.53363 14.8499C2.53638 14.887 2.53962 14.9239 2.54263 14.9609C2.54657 15.0076 2.55066 15.0545 2.55514 15.1012C2.55907 15.1424 2.56311 15.1836 2.56748 15.2246C2.57255 15.2727 2.57831 15.3207 2.58397 15.3687C2.59146 15.4315 2.59949 15.4942 2.60796 15.5567C2.61281 15.5925 2.61728 15.6282 2.62245 15.6638C1.8914 15.4638 1.35244 14.7935 1.35244 13.9998ZM14.0001 1.35219C15.1387 1.35219 16.1802 1.93697 16.788 2.85229C16.7766 2.85218 16.7651 2.85213 16.7536 2.85213C16.7462 2.85213 16.739 2.85267 16.7315 2.85272C16.7287 2.85283 16.7258 2.85278 16.7229 2.85294C14.9328 2.86959 13.4817 4.33029 13.4817 6.12412C13.4817 6.82219 13.701 7.48587 14.095 8.03345C14.0634 8.03432 14.0317 8.0348 14.0001 8.0348C12.1577 8.0348 10.6589 6.53594 10.6589 4.69361C10.6588 2.8511 12.1577 1.35219 14.0001 1.35219ZM24.3444 14.2722C24.3441 14.2862 24.3433 14.3001 24.3428 14.3142C24.3405 14.3912 24.3377 14.4682 24.3336 14.5453C24.3329 14.559 24.3318 14.5728 24.331 14.5865C24.3267 14.6634 24.3218 14.7404 24.3158 14.8172C24.3146 14.8327 24.3129 14.8482 24.3116 14.8637C24.3055 14.938 24.2988 15.0122 24.291 15.0863C24.2889 15.1069 24.2863 15.1275 24.284 15.148C24.2764 15.216 24.2686 15.2838 24.2597 15.3515C24.256 15.3799 24.2518 15.408 24.2478 15.4363C24.2397 15.4949 24.2314 15.5534 24.2222 15.6118C24.2162 15.6498 24.2098 15.6875 24.2034 15.7254C24.1954 15.7726 24.1875 15.8199 24.1789 15.867C24.1702 15.9149 24.1608 15.9625 24.1514 16.0101C24.1444 16.0458 24.1374 16.0815 24.13 16.1172C23.1502 20.811 18.9804 24.348 14 24.348C9.01585 24.348 4.84363 20.806 3.86778 16.107C3.85894 16.0644 3.85081 16.0216 3.84256 15.9788C3.83458 15.9379 3.82644 15.8971 3.81901 15.8561C3.80844 15.798 3.7988 15.7396 3.7892 15.6813C3.78484 15.6545 3.78004 15.6278 3.77589 15.6009C3.76446 15.5271 3.75401 15.4531 3.74409 15.379C3.74242 15.3665 3.74037 15.354 3.73881 15.3414C3.72749 15.2542 3.71714 15.1666 3.70803 15.0791C3.70803 15.0787 3.70793 15.0782 3.70793 15.0779C3.67068 14.72 3.65187 14.3599 3.65187 14C3.65187 13.9188 3.65322 13.8375 3.65516 13.7563C3.65586 13.7296 3.65667 13.703 3.65753 13.6763C3.6592 13.6217 3.66147 13.567 3.66405 13.5124C3.66551 13.4806 3.66691 13.4487 3.66869 13.417C3.67144 13.3686 3.67489 13.3202 3.67828 13.2719C3.68427 13.1883 3.691 13.1049 3.69893 13.0218C3.69984 13.0122 3.7006 13.0027 3.70151 12.9932C4.05486 9.41503 6.27091 6.23968 9.50944 4.6755C9.50944 4.68159 9.50901 4.68757 9.50901 4.69366C9.50901 5.10521 9.5657 5.50351 9.66989 5.8824C8.63799 6.43187 7.73183 7.164 6.97227 8.06412C6.76746 8.30682 6.79823 8.66954 7.04093 8.87424C7.14883 8.96532 7.28045 9.00973 7.41141 9.00973C7.57494 9.00973 7.73738 8.94031 7.85105 8.80557C8.49268 8.0452 9.25375 7.42205 10.1179 6.94734C10.8968 8.2838 12.3448 9.18468 14.0001 9.18468C14.5077 9.18468 15.0064 9.10028 15.4822 8.9339C15.6895 8.86141 15.8374 8.67725 15.8633 8.45918C15.8893 8.24117 15.7888 8.02736 15.6044 7.90831C14.9952 7.51481 14.6315 6.8479 14.6315 6.12423C14.6315 4.9778 15.5455 4.04146 16.683 4.00389C20.5018 5.02561 23.3418 8.11338 24.1287 11.8767C24.1416 11.939 24.1543 12.0014 24.1661 12.0639C24.1723 12.0965 24.1779 12.1294 24.1839 12.1622C24.1931 12.2133 24.2021 12.2646 24.2105 12.3159C24.2155 12.3466 24.2203 12.3774 24.2251 12.4082C24.234 12.4659 24.2425 12.5237 24.2504 12.5816C24.2538 12.6057 24.2572 12.6298 24.2604 12.6539C24.2823 12.822 24.3001 12.9907 24.3138 13.1597C24.3154 13.179 24.3166 13.1986 24.3181 13.218C24.3231 13.283 24.3273 13.3481 24.331 13.4132C24.3324 13.4385 24.3338 13.4639 24.335 13.4892C24.3382 13.5512 24.3405 13.6132 24.3424 13.6752C24.3432 13.6992 24.3441 13.7232 24.3447 13.7471C24.3468 13.8314 24.3481 13.9157 24.3481 13.9999C24.348 14.0907 24.3468 14.1815 24.3444 14.2722ZM25.3776 15.6638C25.3839 15.6203 25.3896 15.5767 25.3954 15.5331C25.4016 15.487 25.4075 15.4409 25.4132 15.3947C25.4202 15.3367 25.427 15.2786 25.4332 15.2205C25.4372 15.1824 25.4409 15.1443 25.4445 15.1061C25.4493 15.056 25.4538 15.0059 25.4579 14.9558C25.4608 14.9211 25.4638 14.8865 25.4664 14.8517C25.4723 14.7719 25.4774 14.6921 25.4816 14.6121C25.4831 14.5863 25.4839 14.5605 25.4852 14.5347C25.4881 14.4704 25.4906 14.4062 25.4925 14.3418C25.4933 14.315 25.494 14.2882 25.4947 14.2613C25.4966 14.1742 25.498 14.087 25.498 13.9998C25.498 13.9239 25.4971 13.8481 25.4956 13.7723C25.495 13.7447 25.4941 13.7173 25.4934 13.6897C25.4921 13.6421 25.4907 13.5945 25.4889 13.5469C25.4875 13.513 25.4858 13.4792 25.4843 13.4454C25.4823 13.4044 25.4803 13.3636 25.4778 13.3227C25.4757 13.286 25.4734 13.2493 25.4708 13.2127C25.4683 13.1749 25.4654 13.1373 25.4625 13.0997C25.4595 13.0614 25.4566 13.0232 25.4532 12.9851C25.4499 12.9482 25.4463 12.9115 25.4427 12.8747C25.439 12.8368 25.4354 12.7989 25.4314 12.761C25.4268 12.7182 25.4216 12.6756 25.4165 12.6329C25.4108 12.5854 25.405 12.538 25.3988 12.4907C25.3919 12.439 25.3852 12.3874 25.3777 12.3359C26.1089 12.5359 26.6477 13.206 26.6477 13.9997C26.6476 14.7936 26.1088 15.4638 25.3776 15.6638Z"/>
</mask>
<path d="M25.1365 11.1342C24.2325 7.61543 21.6977 4.69032 18.2775 3.3234C17.6867 1.47842 15.9496 0.202315 14.0001 0.202315C12.0007 0.202315 10.3031 1.51588 9.72292 3.32507C7.66306 4.15011 5.89908 5.54193 4.60853 7.3653C3.79324 8.51728 3.20545 9.79075 2.86127 11.1344C1.3768 11.2452 0.202562 12.4876 0.202562 13.9999C0.202562 15.513 1.37799 16.756 2.86364 16.8657C4.14028 21.8236 8.64909 25.4979 14.0001 25.4979C19.351 25.4979 23.8598 21.8236 25.1364 16.8657C26.622 16.756 27.7975 15.513 27.7975 13.9998C27.7975 12.4868 26.6221 11.244 25.1365 11.1342ZM1.35244 13.9998C1.35244 13.2065 1.89103 12.5366 2.62165 12.3363C2.57228 12.6785 2.53789 13.0239 2.51924 13.372C2.51892 13.3769 2.51876 13.3816 2.51849 13.3865C2.51515 13.4499 2.51218 13.5133 2.50992 13.5769C2.509 13.6009 2.50852 13.625 2.50787 13.6491C2.50647 13.6947 2.50501 13.7403 2.50415 13.7859C2.50291 13.8572 2.50216 13.9285 2.50216 13.9998C2.50216 14.0869 2.5035 14.1739 2.50555 14.261C2.50615 14.2882 2.5069 14.3154 2.50776 14.3426C2.5096 14.4059 2.51207 14.4692 2.51498 14.5325C2.51617 14.5593 2.51725 14.5862 2.5186 14.6131C2.5228 14.6921 2.52787 14.771 2.53363 14.8499C2.53638 14.887 2.53962 14.9239 2.54263 14.9609C2.54657 15.0076 2.55066 15.0545 2.55514 15.1012C2.55907 15.1424 2.56311 15.1836 2.56748 15.2246C2.57255 15.2727 2.57831 15.3207 2.58397 15.3687C2.59146 15.4315 2.59949 15.4942 2.60796 15.5567C2.61281 15.5925 2.61728 15.6282 2.62245 15.6638C1.8914 15.4638 1.35244 14.7935 1.35244 13.9998ZM14.0001 1.35219C15.1387 1.35219 16.1802 1.93697 16.788 2.85229C16.7766 2.85218 16.7651 2.85213 16.7536 2.85213C16.7462 2.85213 16.739 2.85267 16.7315 2.85272C16.7287 2.85283 16.7258 2.85278 16.7229 2.85294C14.9328 2.86959 13.4817 4.33029 13.4817 6.12412C13.4817 6.82219 13.701 7.48587 14.095 8.03345C14.0634 8.03432 14.0317 8.0348 14.0001 8.0348C12.1577 8.0348 10.6589 6.53594 10.6589 4.69361C10.6588 2.8511 12.1577 1.35219 14.0001 1.35219ZM24.3444 14.2722C24.3441 14.2862 24.3433 14.3001 24.3428 14.3142C24.3405 14.3912 24.3377 14.4682 24.3336 14.5453C24.3329 14.559 24.3318 14.5728 24.331 14.5865C24.3267 14.6634 24.3218 14.7404 24.3158 14.8172C24.3146 14.8327 24.3129 14.8482 24.3116 14.8637C24.3055 14.938 24.2988 15.0122 24.291 15.0863C24.2889 15.1069 24.2863 15.1275 24.284 15.148C24.2764 15.216 24.2686 15.2838 24.2597 15.3515C24.256 15.3799 24.2518 15.408 24.2478 15.4363C24.2397 15.4949 24.2314 15.5534 24.2222 15.6118C24.2162 15.6498 24.2098 15.6875 24.2034 15.7254C24.1954 15.7726 24.1875 15.8199 24.1789 15.867C24.1702 15.9149 24.1608 15.9625 24.1514 16.0101C24.1444 16.0458 24.1374 16.0815 24.13 16.1172C23.1502 20.811 18.9804 24.348 14 24.348C9.01585 24.348 4.84363 20.806 3.86778 16.107C3.85894 16.0644 3.85081 16.0216 3.84256 15.9788C3.83458 15.9379 3.82644 15.8971 3.81901 15.8561C3.80844 15.798 3.7988 15.7396 3.7892 15.6813C3.78484 15.6545 3.78004 15.6278 3.77589 15.6009C3.76446 15.5271 3.75401 15.4531 3.74409 15.379C3.74242 15.3665 3.74037 15.354 3.73881 15.3414C3.72749 15.2542 3.71714 15.1666 3.70803 15.0791C3.70803 15.0787 3.70793 15.0782 3.70793 15.0779C3.67068 14.72 3.65187 14.3599 3.65187 14C3.65187 13.9188 3.65322 13.8375 3.65516 13.7563C3.65586 13.7296 3.65667 13.703 3.65753 13.6763C3.6592 13.6217 3.66147 13.567 3.66405 13.5124C3.66551 13.4806 3.66691 13.4487 3.66869 13.417C3.67144 13.3686 3.67489 13.3202 3.67828 13.2719C3.68427 13.1883 3.691 13.1049 3.69893 13.0218C3.69984 13.0122 3.7006 13.0027 3.70151 12.9932C4.05486 9.41503 6.27091 6.23968 9.50944 4.6755C9.50944 4.68159 9.50901 4.68757 9.50901 4.69366C9.50901 5.10521 9.5657 5.50351 9.66989 5.8824C8.63799 6.43187 7.73183 7.164 6.97227 8.06412C6.76746 8.30682 6.79823 8.66954 7.04093 8.87424C7.14883 8.96532 7.28045 9.00973 7.41141 9.00973C7.57494 9.00973 7.73738 8.94031 7.85105 8.80557C8.49268 8.0452 9.25375 7.42205 10.1179 6.94734C10.8968 8.2838 12.3448 9.18468 14.0001 9.18468C14.5077 9.18468 15.0064 9.10028 15.4822 8.9339C15.6895 8.86141 15.8374 8.67725 15.8633 8.45918C15.8893 8.24117 15.7888 8.02736 15.6044 7.90831C14.9952 7.51481 14.6315 6.8479 14.6315 6.12423C14.6315 4.9778 15.5455 4.04146 16.683 4.00389C20.5018 5.02561 23.3418 8.11338 24.1287 11.8767C24.1416 11.939 24.1543 12.0014 24.1661 12.0639C24.1723 12.0965 24.1779 12.1294 24.1839 12.1622C24.1931 12.2133 24.2021 12.2646 24.2105 12.3159C24.2155 12.3466 24.2203 12.3774 24.2251 12.4082C24.234 12.4659 24.2425 12.5237 24.2504 12.5816C24.2538 12.6057 24.2572 12.6298 24.2604 12.6539C24.2823 12.822 24.3001 12.9907 24.3138 13.1597C24.3154 13.179 24.3166 13.1986 24.3181 13.218C24.3231 13.283 24.3273 13.3481 24.331 13.4132C24.3324 13.4385 24.3338 13.4639 24.335 13.4892C24.3382 13.5512 24.3405 13.6132 24.3424 13.6752C24.3432 13.6992 24.3441 13.7232 24.3447 13.7471C24.3468 13.8314 24.3481 13.9157 24.3481 13.9999C24.348 14.0907 24.3468 14.1815 24.3444 14.2722ZM25.3776 15.6638C25.3839 15.6203 25.3896 15.5767 25.3954 15.5331C25.4016 15.487 25.4075 15.4409 25.4132 15.3947C25.4202 15.3367 25.427 15.2786 25.4332 15.2205C25.4372 15.1824 25.4409 15.1443 25.4445 15.1061C25.4493 15.056 25.4538 15.0059 25.4579 14.9558C25.4608 14.9211 25.4638 14.8865 25.4664 14.8517C25.4723 14.7719 25.4774 14.6921 25.4816 14.6121C25.4831 14.5863 25.4839 14.5605 25.4852 14.5347C25.4881 14.4704 25.4906 14.4062 25.4925 14.3418C25.4933 14.315 25.494 14.2882 25.4947 14.2613C25.4966 14.1742 25.498 14.087 25.498 13.9998C25.498 13.9239 25.4971 13.8481 25.4956 13.7723C25.495 13.7447 25.4941 13.7173 25.4934 13.6897C25.4921 13.6421 25.4907 13.5945 25.4889 13.5469C25.4875 13.513 25.4858 13.4792 25.4843 13.4454C25.4823 13.4044 25.4803 13.3636 25.4778 13.3227C25.4757 13.286 25.4734 13.2493 25.4708 13.2127C25.4683 13.1749 25.4654 13.1373 25.4625 13.0997C25.4595 13.0614 25.4566 13.0232 25.4532 12.9851C25.4499 12.9482 25.4463 12.9115 25.4427 12.8747C25.439 12.8368 25.4354 12.7989 25.4314 12.761C25.4268 12.7182 25.4216 12.6756 25.4165 12.6329C25.4108 12.5854 25.405 12.538 25.3988 12.4907C25.3919 12.439 25.3852 12.3874 25.3777 12.3359C26.1089 12.5359 26.6477 13.206 26.6477 13.9997C26.6476 14.7936 26.1088 15.4638 25.3776 15.6638Z" fill="white"/>
<path d="M25.1365 11.1342C24.2325 7.61543 21.6977 4.69032 18.2775 3.3234C17.6867 1.47842 15.9496 0.202315 14.0001 0.202315C12.0007 0.202315 10.3031 1.51588 9.72292 3.32507C7.66306 4.15011 5.89908 5.54193 4.60853 7.3653C3.79324 8.51728 3.20545 9.79075 2.86127 11.1344C1.3768 11.2452 0.202562 12.4876 0.202562 13.9999C0.202562 15.513 1.37799 16.756 2.86364 16.8657C4.14028 21.8236 8.64909 25.4979 14.0001 25.4979C19.351 25.4979 23.8598 21.8236 25.1364 16.8657C26.622 16.756 27.7975 15.513 27.7975 13.9998C27.7975 12.4868 26.6221 11.244 25.1365 11.1342ZM1.35244 13.9998C1.35244 13.2065 1.89103 12.5366 2.62165 12.3363C2.57228 12.6785 2.53789 13.0239 2.51924 13.372C2.51892 13.3769 2.51876 13.3816 2.51849 13.3865C2.51515 13.4499 2.51218 13.5133 2.50992 13.5769C2.509 13.6009 2.50852 13.625 2.50787 13.6491C2.50647 13.6947 2.50501 13.7403 2.50415 13.7859C2.50291 13.8572 2.50216 13.9285 2.50216 13.9998C2.50216 14.0869 2.5035 14.1739 2.50555 14.261C2.50615 14.2882 2.5069 14.3154 2.50776 14.3426C2.5096 14.4059 2.51207 14.4692 2.51498 14.5325C2.51617 14.5593 2.51725 14.5862 2.5186 14.6131C2.5228 14.6921 2.52787 14.771 2.53363 14.8499C2.53638 14.887 2.53962 14.9239 2.54263 14.9609C2.54657 15.0076 2.55066 15.0545 2.55514 15.1012C2.55907 15.1424 2.56311 15.1836 2.56748 15.2246C2.57255 15.2727 2.57831 15.3207 2.58397 15.3687C2.59146 15.4315 2.59949 15.4942 2.60796 15.5567C2.61281 15.5925 2.61728 15.6282 2.62245 15.6638C1.8914 15.4638 1.35244 14.7935 1.35244 13.9998ZM14.0001 1.35219C15.1387 1.35219 16.1802 1.93697 16.788 2.85229C16.7766 2.85218 16.7651 2.85213 16.7536 2.85213C16.7462 2.85213 16.739 2.85267 16.7315 2.85272C16.7287 2.85283 16.7258 2.85278 16.7229 2.85294C14.9328 2.86959 13.4817 4.33029 13.4817 6.12412C13.4817 6.82219 13.701 7.48587 14.095 8.03345C14.0634 8.03432 14.0317 8.0348 14.0001 8.0348C12.1577 8.0348 10.6589 6.53594 10.6589 4.69361C10.6588 2.8511 12.1577 1.35219 14.0001 1.35219ZM24.3444 14.2722C24.3441 14.2862 24.3433 14.3001 24.3428 14.3142C24.3405 14.3912 24.3377 14.4682 24.3336 14.5453C24.3329 14.559 24.3318 14.5728 24.331 14.5865C24.3267 14.6634 24.3218 14.7404 24.3158 14.8172C24.3146 14.8327 24.3129 14.8482 24.3116 14.8637C24.3055 14.938 24.2988 15.0122 24.291 15.0863C24.2889 15.1069 24.2863 15.1275 24.284 15.148C24.2764 15.216 24.2686 15.2838 24.2597 15.3515C24.256 15.3799 24.2518 15.408 24.2478 15.4363C24.2397 15.4949 24.2314 15.5534 24.2222 15.6118C24.2162 15.6498 24.2098 15.6875 24.2034 15.7254C24.1954 15.7726 24.1875 15.8199 24.1789 15.867C24.1702 15.9149 24.1608 15.9625 24.1514 16.0101C24.1444 16.0458 24.1374 16.0815 24.13 16.1172C23.1502 20.811 18.9804 24.348 14 24.348C9.01585 24.348 4.84363 20.806 3.86778 16.107C3.85894 16.0644 3.85081 16.0216 3.84256 15.9788C3.83458 15.9379 3.82644 15.8971 3.81901 15.8561C3.80844 15.798 3.7988 15.7396 3.7892 15.6813C3.78484 15.6545 3.78004 15.6278 3.77589 15.6009C3.76446 15.5271 3.75401 15.4531 3.74409 15.379C3.74242 15.3665 3.74037 15.354 3.73881 15.3414C3.72749 15.2542 3.71714 15.1666 3.70803 15.0791C3.70803 15.0787 3.70793 15.0782 3.70793 15.0779C3.67068 14.72 3.65187 14.3599 3.65187 14C3.65187 13.9188 3.65322 13.8375 3.65516 13.7563C3.65586 13.7296 3.65667 13.703 3.65753 13.6763C3.6592 13.6217 3.66147 13.567 3.66405 13.5124C3.66551 13.4806 3.66691 13.4487 3.66869 13.417C3.67144 13.3686 3.67489 13.3202 3.67828 13.2719C3.68427 13.1883 3.691 13.1049 3.69893 13.0218C3.69984 13.0122 3.7006 13.0027 3.70151 12.9932C4.05486 9.41503 6.27091 6.23968 9.50944 4.6755C9.50944 4.68159 9.50901 4.68757 9.50901 4.69366C9.50901 5.10521 9.5657 5.50351 9.66989 5.8824C8.63799 6.43187 7.73183 7.164 6.97227 8.06412C6.76746 8.30682 6.79823 8.66954 7.04093 8.87424C7.14883 8.96532 7.28045 9.00973 7.41141 9.00973C7.57494 9.00973 7.73738 8.94031 7.85105 8.80557C8.49268 8.0452 9.25375 7.42205 10.1179 6.94734C10.8968 8.2838 12.3448 9.18468 14.0001 9.18468C14.5077 9.18468 15.0064 9.10028 15.4822 8.9339C15.6895 8.86141 15.8374 8.67725 15.8633 8.45918C15.8893 8.24117 15.7888 8.02736 15.6044 7.90831C14.9952 7.51481 14.6315 6.8479 14.6315 6.12423C14.6315 4.9778 15.5455 4.04146 16.683 4.00389C20.5018 5.02561 23.3418 8.11338 24.1287 11.8767C24.1416 11.939 24.1543 12.0014 24.1661 12.0639C24.1723 12.0965 24.1779 12.1294 24.1839 12.1622C24.1931 12.2133 24.2021 12.2646 24.2105 12.3159C24.2155 12.3466 24.2203 12.3774 24.2251 12.4082C24.234 12.4659 24.2425 12.5237 24.2504 12.5816C24.2538 12.6057 24.2572 12.6298 24.2604 12.6539C24.2823 12.822 24.3001 12.9907 24.3138 13.1597C24.3154 13.179 24.3166 13.1986 24.3181 13.218C24.3231 13.283 24.3273 13.3481 24.331 13.4132C24.3324 13.4385 24.3338 13.4639 24.335 13.4892C24.3382 13.5512 24.3405 13.6132 24.3424 13.6752C24.3432 13.6992 24.3441 13.7232 24.3447 13.7471C24.3468 13.8314 24.3481 13.9157 24.3481 13.9999C24.348 14.0907 24.3468 14.1815 24.3444 14.2722ZM25.3776 15.6638C25.3839 15.6203 25.3896 15.5767 25.3954 15.5331C25.4016 15.487 25.4075 15.4409 25.4132 15.3947C25.4202 15.3367 25.427 15.2786 25.4332 15.2205C25.4372 15.1824 25.4409 15.1443 25.4445 15.1061C25.4493 15.056 25.4538 15.0059 25.4579 14.9558C25.4608 14.9211 25.4638 14.8865 25.4664 14.8517C25.4723 14.7719 25.4774 14.6921 25.4816 14.6121C25.4831 14.5863 25.4839 14.5605 25.4852 14.5347C25.4881 14.4704 25.4906 14.4062 25.4925 14.3418C25.4933 14.315 25.494 14.2882 25.4947 14.2613C25.4966 14.1742 25.498 14.087 25.498 13.9998C25.498 13.9239 25.4971 13.8481 25.4956 13.7723C25.495 13.7447 25.4941 13.7173 25.4934 13.6897C25.4921 13.6421 25.4907 13.5945 25.4889 13.5469C25.4875 13.513 25.4858 13.4792 25.4843 13.4454C25.4823 13.4044 25.4803 13.3636 25.4778 13.3227C25.4757 13.286 25.4734 13.2493 25.4708 13.2127C25.4683 13.1749 25.4654 13.1373 25.4625 13.0997C25.4595 13.0614 25.4566 13.0232 25.4532 12.9851C25.4499 12.9482 25.4463 12.9115 25.4427 12.8747C25.439 12.8368 25.4354 12.7989 25.4314 12.761C25.4268 12.7182 25.4216 12.6756 25.4165 12.6329C25.4108 12.5854 25.405 12.538 25.3988 12.4907C25.3919 12.439 25.3852 12.3874 25.3777 12.3359C26.1089 12.5359 26.6477 13.206 26.6477 13.9997C26.6476 14.7936 26.1088 15.4638 25.3776 15.6638Z" stroke="#E6E7F2" stroke-width="0.4" mask="url(#path-1-outside-1_1_4724)"/>
<path d="M7.46369 14.6521L7.46369 14.6521C7.73861 13.6265 8.67209 12.9102 9.73379 12.9102C10.7956 12.9102 11.729 13.6265 12.0039 14.6521C12.0933 14.9858 11.8953 15.3288 11.5615 15.4183M7.46369 14.6521L8.67206 14.976L8.6232 14.9629L8.67207 14.976M7.46369 14.6521C7.37427 14.9858 7.57229 15.3288 7.90595 15.4183L7.90597 15.4183M7.46369 14.6521L7.90597 15.4183M11.5615 15.4183L11.5484 15.3694L11.5615 15.4182C11.5615 15.4183 11.5615 15.4183 11.5615 15.4183ZM11.5615 15.4183C11.5073 15.4328 11.4528 15.4397 11.3992 15.4397C11.1231 15.4397 10.8703 15.2555 10.7954 14.976C10.6669 14.4963 10.2302 14.1612 9.73373 14.1612C9.2373 14.1612 8.80067 14.4963 8.67207 14.976M8.67207 14.976C8.58264 15.3097 8.23971 15.5076 7.90597 15.4183M8.67207 14.976L7.90597 15.4183" fill="white" stroke="#E6E7F2" stroke-width="0.1"/>
<path d="M15.996 14.6522L15.996 14.6522C16.2708 13.6265 17.2043 12.9102 18.2661 12.9102C19.3279 12.9102 20.2612 13.6265 20.5361 14.6521C20.6255 14.9858 20.4276 15.3288 20.0939 15.4183L15.996 14.6522ZM15.996 14.6522C15.9066 14.9859 16.1046 15.3289 16.4383 15.4183M15.996 14.6522L16.4383 15.4183M16.4383 15.4183C16.772 15.5077 17.115 15.3096 17.2044 14.9759M16.4383 15.4183L17.2044 14.9759M17.2044 14.9759C17.3329 14.4963 17.7695 14.1612 18.2661 14.1612M17.2044 14.9759C17.2043 14.9759 17.2043 14.9759 17.2043 14.9759L18.2661 14.1612M18.2661 14.1612C18.7626 14.1612 19.1992 14.4963 19.3277 14.976M18.2661 14.1612L19.3277 14.976M19.3277 14.976C19.4026 15.2555 19.6553 15.4397 19.9316 15.4397M19.3277 14.976L19.9316 15.4397M19.9316 15.4397C19.9851 15.4397 20.0397 15.4328 20.0939 15.4183L19.9316 15.4397Z" fill="white" stroke="#E6E7F2" stroke-width="0.1"/>
<path d="M15.8282 18.6501L15.8282 18.6501L15.1109 19.1055L15.0621 19.0924C15.0621 19.0924 15.062 19.0924 15.062 19.0924C14.9334 19.5721 14.4968 19.9072 14.0004 19.9072C13.5038 19.9072 13.0672 19.5721 12.9387 19.0924L12.9387 19.0924C12.8493 18.7587 12.5063 18.5606 12.1726 18.6501C11.8389 18.7395 11.6409 19.0825 11.7303 19.4162C12.0052 20.4419 12.9386 21.1582 14.0004 21.1582C15.0622 21.1582 15.9957 20.4419 16.2705 19.4162L16.2705 19.4162C16.3598 19.0825 16.1618 18.7395 15.8282 18.6501ZM15.8153 18.698L15.8153 18.698L15.8153 18.698Z" fill="white" stroke="#E6E7F2" stroke-width="0.1"/>
</svg>
