<svg width="23" height="14" viewBox="0 0 23 14" fill="none" xmlns="http://www.w3.org/2000/svg">
<path d="M4.34561 7.10061V5.54906C5.3015 5.58557 6.08091 5.45171 6.68386 5.14748C7.40445 4.80675 7.76474 4.27132 7.76474 3.54118C7.76474 3.00574 7.5368 2.57374 7.08092 2.24518C6.63974 1.90445 6.06621 1.73408 5.36032 1.73408C4.53679 1.73408 3.89708 1.99571 3.44119 2.51898C2.98531 3.03008 2.77207 3.63853 2.80148 4.34433H0.286766C0.360296 3.06659 0.838239 2.03222 1.7206 1.24124C2.66178 0.413746 3.88972 0 5.40444 0C6.71327 0 7.82357 0.285971 8.73534 0.857913C9.76475 1.4907 10.2795 2.34253 10.2795 3.4134C10.2795 4.81284 9.55152 5.72551 8.09563 6.15142V6.18793C8.96328 6.33396 9.6471 6.69903 10.1471 7.28314C10.6471 7.85508 10.8971 8.5548 10.8971 9.38229C10.8971 10.5505 10.353 11.4997 9.26475 12.2298C8.23533 12.9356 6.95591 13.2885 5.4265 13.2885C3.69119 13.2885 2.3456 12.8809 1.38971 12.0656C0.492649 11.2867 0.0294119 10.2098 0 8.83469H2.51472C2.48531 9.63784 2.7206 10.2828 3.2206 10.7696C3.73531 11.2928 4.47061 11.5545 5.4265 11.5545C6.29415 11.5545 7.00003 11.3537 7.54415 10.9521C8.10298 10.5383 8.38239 9.97857 8.38239 9.27277C8.38239 7.72731 7.0368 7.00325 4.34561 7.10061Z" fill="#A1A4B2"/>
<path d="M22.978 11.1711V13.033H12.4338C12.4485 11.0981 13.5809 9.48573 15.8309 8.19581C16.5368 7.80641 17.2353 7.417 17.9265 7.02759C18.7206 6.56517 19.3162 6.12709 19.7133 5.71334C20.2133 5.17791 20.4706 4.60596 20.4853 3.99751C20.5 3.4134 20.3383 2.92056 20 2.51898C19.5589 1.99571 18.853 1.73408 17.8824 1.73408C16.1912 1.73408 15.3088 2.79887 15.2353 4.92844H12.7206C12.7206 3.46816 13.1765 2.29385 14.0882 1.40552C15.0441 0.468506 16.3603 0 18.0368 0C19.7427 0 21.0442 0.450252 21.9412 1.35076C22.6471 2.06873 23 2.92664 23 3.9245C23 5.46996 21.853 6.9059 19.5589 8.23232C18.7059 8.70691 17.853 9.1815 17 9.65609C16.1618 10.1915 15.6471 10.6965 15.4559 11.1711H22.978Z" fill="#A1A4B2"/>
</svg>
