<svg width="21" height="8" viewBox="0 0 21 8" fill="none" xmlns="http://www.w3.org/2000/svg">
<path d="M9.73938 6.21378V7.24941H0C0.0135835 6.17317 1.05951 5.2763 3.13779 4.5588C3.7898 4.3422 4.43502 4.1256 5.07344 3.909C5.80695 3.65178 6.35708 3.4081 6.72384 3.17796C7.18568 2.88014 7.42339 2.562 7.43697 2.22356C7.45056 1.89866 7.30114 1.62452 6.98872 1.40115C6.58121 1.11009 5.9292 0.964558 5.03269 0.964558C3.47059 0.964558 2.65558 1.55683 2.58766 2.74137H0.264878C0.264878 1.92912 0.685967 1.27592 1.52814 0.781799C2.41107 0.2606 3.6268 0 5.17532 0C6.751 0 7.95315 0.250446 8.78174 0.751339C9.43375 1.1507 9.75975 1.6279 9.75975 2.18295C9.75975 3.04259 8.70024 3.84131 6.58121 4.57911C5.79337 4.84309 5.00552 5.10708 4.21768 5.37106C3.44342 5.66889 2.968 5.9498 2.79141 6.21378H9.73938Z" fill="#A1A4B2"/>
<path d="M11.2403 1.17778V0.142146H21.0001V1.1067C17.7808 2.92075 16.0081 4.96832 15.6821 7.24941H13.1352C13.2846 6.17317 13.8755 5.08677 14.9078 3.99022C15.8587 2.98167 17.1016 2.04419 18.6365 1.17778H11.2403Z" fill="#A1A4B2"/>
</svg>
