<svg width="11" height="9" viewBox="0 0 11 9" fill="none" xmlns="http://www.w3.org/2000/svg">
<path d="M5.49988 7.40212C6.36086 7.40212 7.06598 7.26676 7.61522 6.99604C8.17931 6.72533 8.46136 6.35793 8.46136 5.89385C8.46136 5.45297 8.17931 5.10491 7.61522 4.84966C7.06598 4.59442 6.36086 4.46679 5.49988 4.46679C4.6389 4.46679 3.92637 4.59442 3.36228 4.84966C2.81303 5.10491 2.53841 5.45297 2.53841 5.89385C2.53841 6.35793 2.81303 6.72533 3.36228 6.99604C3.92637 7.26676 4.6389 7.40212 5.49988 7.40212ZM5.49988 8.4463C3.88183 8.4463 2.56067 8.21813 1.5364 7.76178C0.512135 7.2977 0 6.67505 0 5.89385C0 5.39109 0.252356 4.96568 0.757069 4.61762C1.27663 4.26182 1.97432 4.02592 2.85014 3.9099V3.89829C1.38054 3.59664 0.645735 3.03587 0.645735 2.21599C0.645735 1.51987 1.0688 0.978441 1.91494 0.591705C2.76107 0.197235 3.95606 0 5.49988 0C7.04371 0 8.23869 0.197235 9.08482 0.591705C9.93096 0.978441 10.354 1.51987 10.354 2.21599C10.354 3.03587 9.61923 3.59664 8.14962 3.89829V3.9099C9.02545 4.02592 9.71571 4.26182 10.2204 4.61762C10.74 4.96568 10.9998 5.39109 10.9998 5.89385C10.9998 6.67505 10.4876 7.2977 9.46336 7.76178C8.43909 8.21813 7.11793 8.4463 5.49988 8.4463ZM5.49988 1.04419C4.78735 1.04419 4.20099 1.15634 3.74081 1.38065C3.28063 1.59722 3.05054 1.89887 3.05054 2.28561C3.05054 2.65687 3.27321 2.95079 3.71854 3.16736C4.17872 3.3762 4.7725 3.48062 5.49988 3.48062C6.22726 3.48062 6.81362 3.3762 7.25895 3.16736C7.71913 2.95079 7.94922 2.65687 7.94922 2.28561C7.94922 1.89887 7.71913 1.59722 7.25895 1.38065C6.79877 1.15634 6.21242 1.04419 5.49988 1.04419Z" fill="#A1A4B2"/>
</svg>
