<svg width="23" height="11" viewBox="0 0 23 11" fill="none" xmlns="http://www.w3.org/2000/svg">
<path d="M18.8487 2.59133C19.5622 1.7021 19.8985 1.00151 19.8985 1.00151L18.8487 2.59133ZM18.8487 2.59133C18.17 3.43726 17.1499 4.454 15.7532 5.20073M18.8487 2.59133L15.7532 5.20073M18.8487 2.59133L21.9981 4.15092M11.5 6.25053C9.81196 6.25053 8.40087 5.8178 7.24687 5.20073M11.5 6.25053L7.24687 5.20073M11.5 6.25053C13.1881 6.25053 14.5992 5.8178 15.7532 5.20073M11.5 6.25053L15.7532 5.20073M11.5 6.25053V9.92484M7.24687 5.20073L4.15141 8.35014M7.24687 5.20073C5.92474 4.49379 4.94007 3.54497 4.26298 2.72823M7.24687 5.20073L4.26298 2.72823M15.7532 5.20073L18.3238 8.35014M4.26298 2.72823C3.47289 1.77503 3.10161 1.00151 3.10161 1.00151L4.26298 2.72823ZM4.26298 2.72823L1.002 4.15092" stroke="#3F414E" stroke-width="2" stroke-linecap="round" stroke-linejoin="round"/>
</svg>
