<svg width="107" height="66" viewBox="0 0 107 66" fill="none" xmlns="http://www.w3.org/2000/svg">
<path d="M70.4933 2.63221C70.4933 2.63221 71.5573 2.7505 72.4682 3.56565C73.3791 4.3808 74.22 2.30307 72.7122 1.87878C71.207 1.45449 70.4933 2.63221 70.4933 2.63221Z" fill="#F5E2D5"/>
<path d="M69.4809 2.53706C69.4809 2.53706 70.1764 1.72962 71.3676 1.43905C72.5588 1.14847 71.2924 -0.705543 70.0934 0.292181C68.897 1.29248 69.4809 2.53706 69.4809 2.53706Z" fill="#F5E2D5"/>
<path d="M55.5885 7.36348C55.5885 7.36348 54.8489 8.12977 54.6776 9.33579C54.5063 10.5392 52.5158 9.47979 53.3982 8.19663C54.278 6.91348 55.5885 7.36348 55.5885 7.36348Z" fill="#F5E2D5"/>
<path d="M56.3052 6.64869C56.3052 6.64869 55.249 6.47126 54.146 7.00612C53.0431 7.54098 52.8147 5.31411 54.3822 5.31668C55.9471 5.31925 56.3052 6.64869 56.3052 6.64869Z" fill="#F5E2D5"/>
<path d="M71.6471 13.6813C73.9561 9.91317 72.745 5.00381 68.9421 2.71594C65.1392 0.428075 60.1845 1.62808 57.8755 5.39622C55.5666 9.16437 56.7776 14.0737 60.5805 16.3616C64.3834 18.6495 69.3381 17.4495 71.6471 13.6813Z" fill="#F5E2D5"/>
<path d="M58.5188 8.17869C58.3812 8.21469 58.2333 8.15554 58.1632 8.02697C58.0828 7.87783 58.1373 7.69011 58.2904 7.6104L60.2964 6.5381L58.9521 6.49181C58.7809 6.48667 58.6459 6.34267 58.6511 6.17296C58.6563 6.00324 58.8016 5.86952 58.9729 5.87467L61.4643 5.95952C61.6044 5.96467 61.7238 6.06238 61.7575 6.19867C61.7887 6.33496 61.7264 6.47382 61.6018 6.54067L58.5836 8.15297C58.5629 8.16326 58.5421 8.17097 58.5188 8.17869Z" fill="#3F4553"/>
<path d="M69.2577 5.25239C69.2344 5.25754 69.211 5.26268 69.1851 5.26268L65.9074 5.36554C65.7672 5.37068 65.6401 5.28068 65.5985 5.14696C65.557 5.01325 65.6115 4.86925 65.7309 4.79467L67.9446 3.42666C68.0899 3.33666 68.2819 3.38038 68.3728 3.52438C68.4636 3.66838 68.4195 3.85867 68.2741 3.94867L67.0414 4.70982L69.1643 4.64296C69.3356 4.63782 69.4809 4.77153 69.4861 4.94125C69.4887 5.09039 69.3927 5.21382 69.2577 5.25239Z" fill="#3F4553"/>
<path d="M58.3836 9.56743C60.0912 12.6866 63.1224 14.4635 65.9148 13.7023C68.7046 12.9412 70.3941 9.87601 70.2514 6.33255L69.1744 6.44312C65.7254 6.79541 62.3698 7.71856 59.2322 9.174L58.3836 9.56743Z" fill="#3F4553"/>
<path d="M69.3305 10.3363C68.1211 9.94283 66.5926 9.9094 65.0329 10.3363C63.442 10.7708 62.1263 11.5963 61.2932 12.5734C62.7076 13.4811 64.3062 13.8309 65.8348 13.4143C67.3815 12.99 68.5857 11.8611 69.3305 10.3363Z" fill="#4E5567"/>
<path d="M15.7973 40.7105C17.031 36.4751 14.5659 32.0507 10.2914 30.8283C6.01695 29.6059 1.55169 32.0484 0.318007 36.2838C-0.915671 40.5193 1.5494 44.9437 5.8239 46.1661C10.0984 47.3885 14.5637 44.946 15.7973 40.7105Z" fill="#F5E2D5"/>
<path d="M3.94181 33.6513C3.80945 33.5973 3.729 33.461 3.75236 33.317C3.78091 33.1499 3.93921 33.0341 4.1105 33.0624L6.36052 33.4224L5.32244 32.5764C5.19009 32.4684 5.17192 32.273 5.28092 32.1418C5.38992 32.0107 5.58715 31.9927 5.71951 32.1007L7.64513 33.6719C7.75413 33.7593 7.78787 33.911 7.73077 34.037C7.67368 34.163 7.53613 34.2376 7.39859 34.2144L4.01188 33.6744C3.98593 33.6667 3.96257 33.6616 3.94181 33.6513Z" fill="#3F4553"/>
<path d="M14.2601 37.8045C14.2367 37.7942 14.216 37.7839 14.1952 37.7685L11.5325 35.8733C11.4184 35.791 11.3742 35.6444 11.4235 35.5133C11.4729 35.3821 11.6052 35.3024 11.7453 35.3153L14.3405 35.5647C14.5118 35.5801 14.6364 35.7319 14.6208 35.9016C14.6052 36.0713 14.4521 36.1947 14.2808 36.1793L12.8353 36.0404L14.5611 37.267C14.7013 37.3673 14.7324 37.5576 14.6312 37.6965C14.5429 37.8173 14.3898 37.8585 14.2601 37.8045Z" fill="#3F4553"/>
<path d="M9.07231 41.8517C7.8967 41.8517 6.84824 41.5894 5.93474 41.0674C3.52901 39.6917 2.97364 37.0225 2.95029 36.9094C2.90876 36.7011 3.04631 36.4979 3.25652 36.4568C3.46673 36.4156 3.67174 36.5519 3.71327 36.7602C3.71846 36.7834 4.22971 39.2057 6.3318 40.404C7.86296 41.2783 9.86644 41.3065 12.2877 40.4888C12.4928 40.4194 12.7133 40.5274 12.7808 40.7305C12.8509 40.9311 12.7419 41.1523 12.5369 41.2191C11.2834 41.6383 10.126 41.8517 9.07231 41.8517Z" fill="#3F4553"/>
<path d="M56.6581 63.2787C60.1171 59.8513 60.1171 54.2945 56.6581 50.8672C53.1991 47.4398 47.591 47.4398 44.132 50.8672C40.6731 54.2945 40.6731 59.8513 44.132 63.2787C47.591 66.706 53.1991 66.706 56.6581 63.2787Z" fill="#F5E2D5"/>
<path d="M45.4053 59.9445C45.4053 59.9445 51.1018 56.7224 56.5905 55.9433C56.5905 55.9433 58.1658 61.0862 52.9184 63.0765C48.369 64.802 45.4053 59.9445 45.4053 59.9445Z" fill="#3F4553"/>
<path d="M46.5294 57.4656C46.3426 57.4656 46.1609 57.3653 46.0675 57.1879L44.7751 54.7142C44.6427 54.4622 44.7439 54.151 44.9983 54.0199C45.2526 53.8887 45.5666 53.989 45.699 54.241L46.9914 56.7148C47.1237 56.9668 47.0225 57.2779 46.7682 57.409C46.6903 57.4476 46.6099 57.4656 46.5294 57.4656Z" fill="#3F4553"/>
<path d="M53.4168 54.9891C53.1781 54.9891 52.9627 54.8245 52.9108 54.5828L52.3087 51.7671C52.249 51.4894 52.4281 51.2168 52.7083 51.1576C52.9886 51.0985 53.2637 51.2759 53.3234 51.5536L53.9255 54.3694C53.9852 54.6471 53.8061 54.9197 53.5258 54.9788C53.4869 54.9865 53.4506 54.9891 53.4168 54.9891Z" fill="#3F4553"/>
<path d="M54.3121 62.0503C53.8346 60.8855 52.1659 60.4097 50.5361 60.9909C49.633 61.3149 48.9323 61.896 48.5508 62.5518C49.7316 63.1406 51.2005 63.4055 52.8874 62.7652C53.4349 62.5595 53.9021 62.3178 54.3121 62.0503Z" fill="#4E5567"/>
<path d="M101.637 34.325C106.131 32.4119 108.209 27.2507 106.279 22.7973C104.348 18.3438 99.1391 16.2844 94.6446 18.1976C90.15 20.1107 88.0717 25.2719 90.0024 29.7253C91.9332 34.1788 97.142 36.2382 101.637 34.325Z" fill="#F5E2D5"/>
<path d="M99.2701 28.2153C96.2104 28.2153 93.8877 26.4513 93.854 26.4256C93.7424 26.3382 93.7216 26.1762 93.8099 26.0656C93.8981 25.955 94.0616 25.9345 94.1732 26.0219C94.3601 26.1659 98.8004 29.5268 103.425 26.3896C103.544 26.3099 103.705 26.3407 103.786 26.4565C103.866 26.5747 103.838 26.7342 103.718 26.8139C102.182 27.8553 100.651 28.2153 99.2701 28.2153Z" fill="#3F4553"/>
<path d="M101.795 23.5559C101.795 24.0959 101.582 24.5356 101.318 24.5356C101.053 24.5356 100.84 24.0985 100.84 23.5559C100.84 23.0133 101.053 22.5762 101.318 22.5762C101.582 22.5762 101.795 23.0159 101.795 23.5559Z" fill="#3F4553"/>
<path d="M97.2096 23.3682C97.2096 23.9082 96.9968 24.348 96.7321 24.348C96.4674 24.348 96.2546 23.9108 96.2546 23.3682C96.2546 22.8282 96.4674 22.3885 96.7321 22.3885C96.9968 22.3885 97.2096 22.8257 97.2096 23.3682Z" fill="#3F4553"/>
</svg>
