<svg width="44" height="74" viewBox="0 0 44 74" fill="none" xmlns="http://www.w3.org/2000/svg">
<path d="M21.6078 74.0001C33.5415 74.0001 43.2157 71.834 43.2157 69.1619C43.2157 66.4899 33.5415 64.3238 21.6078 64.3238C9.67416 64.3238 0 66.4899 0 69.1619C0 71.834 9.67416 74.0001 21.6078 74.0001Z" fill="#F4A17C"/>
<path opacity="0.5" d="M21.6078 74.0001C33.5415 74.0001 43.2157 71.834 43.2157 69.1619C43.2157 66.4899 33.5415 64.3238 21.6078 64.3238C9.67416 64.3238 0 66.4899 0 69.1619C0 71.834 9.67416 74.0001 21.6078 74.0001Z" fill="#F4A17C"/>
<path d="M19.9356 5.20444C19.9356 5.20444 18.2803 5.05533 18.1299 3.56431C17.9794 2.07328 21.8944 0.206931 24.3773 0.13238C26.8628 0.0578285 29.2704 2.74424 29.2704 4.90623C29.2704 7.06822 29.6466 10.1274 31.5276 10.7238C33.4086 11.3202 34.6902 14.9758 33.5591 16.3177C32.4305 17.6596 32.5057 17.6596 33.6343 18.855C34.7629 20.0478 33.7848 22.1379 33.0324 22.5852C32.28 23.0325 30.0202 23.7034 24.9766 23.2561C19.933 22.8088 16.9209 18.2586 16.6951 16.3923C16.4694 14.5285 18.1999 13.2585 18.8018 12.4385C19.4037 11.6184 18.3504 10.9475 18.4256 10.0503C18.5009 9.15565 19.6295 8.41014 19.9304 7.66206C20.2366 6.91911 19.9356 5.20444 19.9356 5.20444Z" fill="#3F4553"/>
<path d="M28.0585 23.5312C27.1738 23.5312 26.1516 23.4875 24.9685 23.3821C19.681 22.9117 16.7804 18.1404 16.5703 16.4077C16.3861 14.8961 17.4238 13.7804 18.1788 12.9655C18.3916 12.7367 18.5732 12.5387 18.7029 12.3639C19.0065 11.9475 18.8223 11.5747 18.6095 11.1403C18.4409 10.8009 18.2696 10.4513 18.3034 10.0426C18.3501 9.47443 18.7704 8.98599 19.1777 8.51555C19.4475 8.20192 19.7018 7.90629 19.8185 7.61836C20.065 7.0091 19.8808 5.68003 19.8263 5.31756C19.4475 5.25329 18.1399 4.93195 18.0024 3.5746C17.9661 3.22241 18.1243 2.84708 18.4668 2.4589C19.5539 1.23266 22.3689 0.060409 24.3744 0.00128212C25.5082 -0.0295667 26.7198 0.497433 27.716 1.45632C28.7564 2.45633 29.4024 3.77769 29.4024 4.90624C29.4024 6.77773 29.6852 10.004 31.5714 10.603C32.5599 10.9166 33.4757 12.0657 33.9064 13.5285C34.2592 14.729 34.1684 15.8036 33.6651 16.4026C32.6429 17.6159 32.6429 17.6159 33.6366 18.6622L33.7377 18.7676C34.3007 19.3615 34.3293 20.107 34.2566 20.6263C34.1243 21.5723 33.5665 22.4206 33.1073 22.6957C32.7181 22.9219 31.3794 23.5312 28.0585 23.5312ZM24.4756 0.258355C24.4444 0.258355 24.4133 0.258354 24.3796 0.260925C22.4675 0.317481 19.6862 1.46917 18.6588 2.63114C18.363 2.96277 18.2281 3.27383 18.2567 3.55146C18.3942 4.92167 19.9301 5.07591 19.9456 5.07848C20.0053 5.08362 20.052 5.12732 20.0624 5.18388C20.0754 5.25586 20.366 6.94483 20.0546 7.71605C19.9223 8.04253 19.6551 8.35359 19.3723 8.68265C18.9935 9.12481 18.5991 9.57983 18.5602 10.0657C18.5317 10.405 18.6899 10.7212 18.8404 11.0297C19.0713 11.495 19.3074 11.9758 18.9131 12.5182C18.7756 12.7058 18.5888 12.9089 18.3708 13.1429C17.6496 13.9218 16.6611 14.9887 16.8297 16.382C17.0321 18.0607 19.8523 22.6751 24.9945 23.1327C30.5466 23.6263 32.5028 22.7574 32.9724 22.4798C33.3719 22.2433 33.8779 21.4541 33.9998 20.5954C34.0647 20.1301 34.0387 19.4669 33.5484 18.9476L33.4498 18.8422C32.3809 17.7162 32.329 17.598 33.4705 16.2406C33.9194 15.7059 33.992 14.7213 33.6625 13.603C33.3304 12.4693 32.5313 11.1788 31.4987 10.8523C29.4543 10.2045 29.1508 6.85229 29.1508 4.91138C29.1508 3.84967 28.5359 2.60029 27.5448 1.64655C26.616 0.759647 25.5056 0.258355 24.4756 0.258355Z" fill="#3F4553"/>
<path d="M31.9422 17.1945C31.8955 17.1945 31.867 17.1893 31.8592 17.1868C31.7891 17.1713 31.745 17.1019 31.7606 17.0325C31.7762 16.9631 31.8462 16.9194 31.9163 16.9348C31.9189 16.9348 32.0434 16.9554 32.1991 16.8423C32.3988 16.6983 32.6635 16.3358 32.7958 15.4129C32.967 14.2253 31.0679 12.6674 29.0598 11.0196C28.1673 10.2869 27.2437 9.52854 26.4342 8.75218C23.7515 6.17888 23.3727 3.13513 23.3675 3.10428C23.3598 3.03487 23.4117 2.9706 23.4817 2.96289C23.5466 2.95518 23.6166 3.00659 23.6244 3.076C23.627 3.10428 23.998 6.06319 26.6132 8.56709C27.4149 9.33574 28.3333 10.0915 29.2232 10.819C31.3792 12.5877 33.242 14.1173 33.05 15.4464C32.9307 16.2716 32.6894 16.814 32.3314 17.0582C32.1731 17.1739 32.0278 17.1945 31.9422 17.1945Z" fill="#AC9B8F"/>
<path d="M19.1464 3.98337C18.3058 3.98337 18.0386 3.65946 18.0256 3.64146C17.9815 3.58491 17.9919 3.50521 18.0489 3.46151C18.1034 3.41781 18.1864 3.42809 18.2305 3.48465C18.2331 3.48722 18.6664 3.96795 20.2672 3.56948C21.9484 3.15302 23.6607 1.80853 23.6763 1.7931C23.7334 1.7494 23.8138 1.75711 23.8579 1.81367C23.902 1.87023 23.8942 1.94992 23.8372 1.99362C23.7645 2.05018 22.0651 3.38696 20.3295 3.81627C19.8469 3.93967 19.4577 3.98337 19.1464 3.98337Z" fill="#AC9B8F"/>
<path d="M12.0296 66.5472C12.0296 66.5472 13.1504 68.0048 14.4035 68.6912C15.6566 69.3775 17.906 68.9045 17.2574 67.2773C16.6088 65.65 15.571 64.7914 14.7927 64.4932C14.0143 64.1924 11.9906 64.961 12.0296 66.5472Z" fill="#E49621"/>
<path d="M15.6774 69.1256C15.2156 69.1256 14.7382 69.0202 14.3413 68.8043C13.0778 68.1128 11.9725 66.686 11.9258 66.6269C11.9103 66.6063 11.8999 66.5781 11.8999 66.5523C11.8843 65.8762 12.2216 65.2618 12.8546 64.8197C13.4929 64.3749 14.3465 64.1821 14.8394 64.3724C15.2286 64.5215 16.5569 65.1693 17.3768 67.231C17.6077 67.8094 17.5117 68.3236 17.107 68.6758C16.7671 68.974 16.2326 69.1256 15.6774 69.1256ZM12.1593 66.5035C12.3332 66.722 13.3554 67.9714 14.4658 68.5806C15.239 69.0022 16.3935 68.956 16.9383 68.483C17.26 68.2027 17.3275 67.8043 17.1381 67.3261C16.3572 65.3621 15.1092 64.7528 14.746 64.614C14.3854 64.4752 13.6356 64.5934 13.0051 65.033C12.686 65.2516 12.1593 65.7348 12.1593 66.5035Z" fill="#3F4553"/>
<path d="M13.6253 68.1335L13.6382 68.1721C13.8821 68.3649 14.139 68.5448 14.4036 68.6888C15.6567 69.3752 17.9061 68.9022 17.2575 67.2749C15.2261 66.0358 13.6253 68.1335 13.6253 68.1335Z" fill="#F1BD54"/>
<path d="M15.6776 69.1258C15.2157 69.1258 14.7384 69.0204 14.3414 68.8044C14.0924 68.6682 13.8303 68.4908 13.5579 68.2749C13.5371 68.2594 13.5216 68.2363 13.5138 68.2106L13.5008 68.1695C13.4878 68.1309 13.4956 68.0872 13.5216 68.0538C13.5397 68.0332 15.2157 65.8764 17.325 67.1643C17.3484 67.1797 17.3665 67.2003 17.3769 67.226C17.6078 67.8044 17.5118 68.3186 17.1071 68.6707C16.7672 68.9741 16.2328 69.1258 15.6776 69.1258ZM13.794 68.1335C14.0275 68.3134 14.2532 68.4625 14.466 68.5808C15.2391 69.0024 16.3936 68.9561 16.9385 68.4831C17.2498 68.2106 17.325 67.8275 17.1538 67.3674C15.4596 66.3622 14.1027 67.7684 13.794 68.1335Z" fill="#3F4553"/>
<path d="M14.4037 68.6911C15.579 69.3338 17.6286 68.9611 17.3458 67.5703C16.9255 68.015 16.0875 68.56 14.9226 68.1333C13.6721 67.6783 12.6006 66.4315 12.1569 65.8582C12.0739 66.0664 12.022 66.2952 12.0298 66.5471C12.0298 66.5471 13.1506 68.0047 14.4037 68.6911Z" fill="#F1BD54"/>
<path d="M15.6773 69.123C15.2129 69.123 14.7329 69.0176 14.3412 68.8017C13.0777 68.1102 11.9724 66.6834 11.9257 66.6243C11.9102 66.6037 11.8998 66.5754 11.8998 66.5497C11.8946 66.3004 11.9387 66.051 12.0373 65.8094C12.0554 65.7657 12.0944 65.7348 12.1411 65.7297C12.1852 65.722 12.2319 65.7425 12.2604 65.7785C12.6651 66.3004 13.7367 67.5626 14.9664 68.0125C16.1625 68.4495 16.9616 67.7863 17.2496 67.4803C17.2833 67.4444 17.3326 67.4315 17.3793 67.4444C17.426 67.4572 17.4623 67.4958 17.4701 67.542C17.5687 68.0305 17.4052 68.4598 17.0083 68.7477C16.671 68.9996 16.1832 69.123 15.6773 69.123ZM12.1592 66.5035C12.3331 66.722 13.3553 67.9714 14.4657 68.5806C15.1896 68.9765 16.287 68.9611 16.8578 68.5446C17.1069 68.3647 17.2366 68.1307 17.2418 67.848C16.8189 68.2079 16.0042 68.668 14.8756 68.2567C13.7159 67.8325 12.7015 66.74 12.2033 66.1281C12.1748 66.2515 12.1592 66.3749 12.1592 66.5035Z" fill="#3F4553"/>
<path d="M30.824 66.4936C30.824 66.4936 29.7032 67.9512 28.4501 68.6376C27.1969 69.324 24.9476 68.8509 25.5962 67.2237C26.2448 65.5964 27.2826 64.7378 28.0609 64.4396C28.8392 64.1388 30.8629 64.9075 30.824 66.4936Z" fill="#E49621"/>
<path d="M27.1766 69.072C26.6214 69.072 26.0869 68.9177 25.7444 68.6195C25.3397 68.2673 25.2437 67.7557 25.4746 67.1748C26.2945 65.1156 27.6254 64.4678 28.012 64.3161C28.5049 64.1259 29.3585 64.3187 29.9968 64.7634C30.6298 65.203 30.9697 65.82 30.9515 66.4961C30.9515 66.5218 30.9411 66.5501 30.9256 66.5706C30.8789 66.6323 29.7736 68.0591 28.5101 68.748C28.1158 68.964 27.6384 69.072 27.1766 69.072ZM28.4608 64.5012C28.3207 64.5012 28.2014 64.5192 28.1054 64.5552C27.7422 64.694 26.4968 65.3058 25.7133 67.2673C25.5239 67.7455 25.5914 68.1439 25.9131 68.4241C26.4579 68.8997 27.6124 68.9434 28.3856 68.5218C29.496 67.9151 30.5182 66.6658 30.6921 66.4472C30.6921 65.6786 30.1654 65.1953 29.8463 64.9742C29.3819 64.6503 28.8526 64.5012 28.4608 64.5012Z" fill="#3F4553"/>
<path d="M29.2284 68.0795L29.2155 68.1181C28.9716 68.3109 28.7147 68.4909 28.4501 68.6348C27.197 69.3212 24.9476 68.8482 25.5962 67.2209C27.6276 65.9792 29.2284 68.0795 29.2284 68.0795Z" fill="#F1BD54"/>
<path d="M27.1766 69.0719C26.6214 69.0719 26.0869 68.9177 25.7444 68.6195C25.3397 68.2673 25.2437 67.7557 25.4746 67.1747C25.485 67.149 25.5031 67.1259 25.5265 67.113C27.6358 65.8251 29.3144 67.9794 29.33 68.0025C29.3559 68.0359 29.3637 68.0796 29.3507 68.1182L29.3378 68.1567C29.33 68.1825 29.3144 68.203 29.2937 68.2184C29.0212 68.4344 28.7566 68.6118 28.5101 68.748C28.1158 68.964 27.6384 69.0719 27.1766 69.0719ZM25.7003 67.3084C25.5291 67.7686 25.6043 68.1542 25.9157 68.4241C26.4605 68.8997 27.615 68.9434 28.3882 68.5218C28.6009 68.4061 28.8267 68.257 29.0602 68.0745C28.7488 67.712 27.3919 66.3084 25.7003 67.3084Z" fill="#3F4553"/>
<path d="M28.4502 68.6373C27.2749 69.28 25.2253 68.9073 25.5081 67.5165C25.9284 67.9612 26.7664 68.5062 27.9313 68.0795C29.1818 67.6245 30.2533 66.3777 30.697 65.8044C30.78 66.0126 30.8319 66.2414 30.8241 66.4933C30.8241 66.4933 29.7033 67.9509 28.4502 68.6373Z" fill="#F1BD54"/>
<path d="M27.1765 69.0693C26.6705 69.0693 26.1828 68.9434 25.8403 68.6966C25.4434 68.4087 25.2799 67.9794 25.3785 67.4909C25.3889 67.4446 25.4226 67.4061 25.4693 67.3932C25.516 67.3804 25.5679 67.3932 25.599 67.4292C25.887 67.7351 26.6861 68.3958 27.8822 67.9614C29.1119 67.5115 30.186 66.2492 30.5882 65.7274C30.6167 65.6914 30.6634 65.6734 30.7075 65.6785C30.7542 65.6837 30.7931 65.7145 30.8113 65.7582C30.9073 65.9999 30.954 66.2492 30.9488 66.4986C30.9488 66.5269 30.9384 66.5526 30.9229 66.5732C30.8762 66.6349 29.7709 68.0616 28.5074 68.7506C28.1208 68.964 27.6409 69.0693 27.1765 69.0693ZM25.6094 67.7917C25.6172 68.0745 25.7443 68.3084 25.9934 68.4884C26.5642 68.9048 27.6616 68.9202 28.3855 68.5244C29.4959 67.9177 30.5181 66.6683 30.692 66.4498C30.692 66.3238 30.6764 66.1978 30.6453 66.0744C30.1471 66.6837 29.1327 67.7788 27.973 68.203C26.847 68.6118 26.0323 68.1516 25.6094 67.7917Z" fill="#3F4553"/>
<path d="M22.042 10.6213C22.042 10.6213 21.7411 13.0841 21.5153 13.6059C21.2896 14.1278 18.5032 14.2769 17.2994 14.7242C16.0955 15.1715 13.5348 17.3361 11.9548 18.8271C10.3748 20.3181 8.94263 24.2719 8.94263 24.7938C8.94263 25.3156 10.5226 23.3028 11.9548 21.8837C13.3843 20.4672 16.547 18.6754 16.547 18.6754C16.547 18.6754 17.6781 24.2256 17.8286 24.8246C17.9791 25.421 17.826 26.4159 17.826 26.6396C17.826 26.8632 14.6634 32.308 14.1367 36.8582C13.61 41.4084 14.5882 50.0615 14.5882 50.0615C14.5882 50.0615 12.8577 53.4189 12.7072 57.149C12.5567 60.8792 11.7291 65.2803 11.8043 65.5785C11.8795 65.8767 11.6538 66.4731 12.03 66.5476C12.4062 66.6222 12.7072 65.5785 13.61 65.3548C14.5129 65.1312 15.7167 65.7276 15.8698 65.1312C16.0203 64.5348 15.8698 63.3419 16.0203 61.7738C16.1708 60.2082 18.6563 53.7917 18.8067 51.6297C18.9572 49.4677 20.763 38.8737 21.1417 38.3518C21.5179 37.83 21.5179 37.83 21.5179 37.83C21.5179 37.83 21.8941 36.9354 22.1198 37.9045C22.3456 38.8737 22.1198 48.496 22.5713 49.915C23.0227 51.3315 26.5797 60.8483 27.0311 61.9666C27.4826 63.0849 26.5045 64.4294 26.8054 65.0258C27.1064 65.6222 27.934 65.3985 28.6864 65.3985C29.4388 65.3985 30.2223 66.4937 30.8242 66.4937C31.4261 66.4937 31.6233 65.6222 31.6233 64.653C31.6233 63.6838 28.9692 54.2415 28.8187 51.9279C28.6682 49.6142 28.1416 47.825 28.1416 47.825C28.1416 47.825 29.1197 37.159 28.894 34.8453C28.6682 32.5317 26.712 26.6396 26.712 26.6396L28.0663 19.2744C28.0663 19.2744 32.2071 21.5881 33.6366 23.4519C35.0662 25.3156 36.0469 25.2411 35.8938 23.7501C35.7433 22.259 32.2045 17.8579 30.3235 15.917C28.4425 13.9787 25.8818 14.3515 25.1294 13.8296C24.377 13.3077 24.8285 8.16113 24.8285 8.16113L22.042 10.6213Z" fill="#FED9CE"/>
<path d="M12.0716 66.6811C12.0509 66.6811 12.0275 66.6786 12.0068 66.6734C11.6435 66.6014 11.6669 66.2158 11.685 65.9356C11.6928 65.8148 11.7006 65.6888 11.6799 65.6091C11.6487 65.4883 11.7006 65.0873 11.8718 63.8739C12.1157 62.1438 12.4841 59.5293 12.5801 57.1437C12.7228 53.6321 14.2743 50.4084 14.4585 50.0382C14.3885 49.4084 13.5063 41.2026 14.0097 36.8452C14.4326 33.1922 16.5678 28.9171 17.3721 27.3078C17.5407 26.971 17.686 26.6805 17.699 26.624C17.6964 26.5854 17.7068 26.4851 17.7171 26.354C17.7535 25.9556 17.8131 25.2923 17.7042 24.8579C17.5693 24.318 16.6534 19.8449 16.4562 18.8809C15.805 19.2614 13.2677 20.7678 12.0457 21.9786C11.5475 22.4722 11.0287 23.0429 10.5694 23.5468C9.43047 24.7962 9.14248 25.0789 8.93233 24.9993C8.88823 24.9813 8.81299 24.935 8.81299 24.7987C8.81299 24.2126 10.2581 20.2537 11.8641 18.7369C13.1509 17.5236 15.9322 15.0968 17.2527 14.6083C17.7612 14.4207 18.5318 14.2844 19.279 14.1533C20.1741 13.9965 21.2897 13.8011 21.3935 13.5595C21.6088 13.0608 21.9072 10.6366 21.9098 10.6109C21.9124 10.58 21.9279 10.5517 21.9513 10.5312L24.7377 8.0684C24.7766 8.03241 24.8363 8.02727 24.883 8.05041C24.9297 8.07354 24.9583 8.12496 24.9531 8.17637C24.7818 10.1378 24.6962 13.3795 25.1995 13.7292C25.4253 13.886 25.8741 13.9605 26.3956 14.0479C27.5475 14.2407 29.1223 14.5055 30.4118 15.8346C32.285 17.7652 35.8601 22.1817 36.0184 23.7422C36.1066 24.6239 35.8005 24.881 35.6085 24.9555C35.1181 25.1484 34.3787 24.6419 33.5277 23.5339C32.2876 21.9169 28.9252 19.9246 28.1546 19.4825L26.8392 26.6368C27.0105 27.151 28.8006 32.6009 29.0186 34.84C29.2391 37.1048 28.331 47.123 28.2688 47.8197C28.331 48.0407 28.8032 49.7683 28.9433 51.9251C29.029 53.2311 29.9448 56.9381 30.6816 59.9175C31.2757 62.3237 31.7479 64.2261 31.7479 64.658C31.7479 65.9279 31.4184 66.6271 30.8191 66.6271C30.4922 66.6271 30.1498 66.3701 29.7891 66.1001C29.4181 65.8225 29.0341 65.532 28.6813 65.532C28.5204 65.532 28.3544 65.5423 28.1935 65.5526C27.5864 65.5911 26.9586 65.6297 26.6836 65.0873C26.5279 64.7814 26.6498 64.3546 26.7899 63.861C26.956 63.2723 27.1428 62.6065 26.9067 62.0204C26.4501 60.8893 22.9035 51.3981 22.4442 49.9585C22.1744 49.1076 22.1433 45.5188 22.1147 42.3517C22.0966 40.2797 22.081 38.3259 21.9902 37.9378C21.915 37.619 21.8423 37.5856 21.8423 37.5856C21.8008 37.5933 21.6944 37.7424 21.6348 37.8838C21.6322 37.8941 21.627 37.9018 21.6218 37.9095L21.2456 38.4313C20.9135 38.8915 19.1026 49.2618 18.9365 51.6423C18.8509 52.8557 18.0414 55.3956 17.3254 57.6373C16.7546 59.4214 16.2175 61.1078 16.1501 61.7916C16.0749 62.568 16.0749 63.2621 16.0749 63.8225C16.0749 64.3983 16.0749 64.8559 15.997 65.1695C15.8829 65.6246 15.3588 65.5603 14.8036 65.4935C14.4274 65.4472 14.0019 65.3958 13.6439 65.4857C13.1795 65.6014 12.8811 65.9613 12.6398 66.2518C12.4478 66.478 12.2818 66.6811 12.0716 66.6811ZM16.547 18.5493C16.5652 18.5493 16.5834 18.5519 16.6015 18.5596C16.6404 18.5776 16.6664 18.611 16.6742 18.6521C16.6846 18.7087 17.808 24.2075 17.9558 24.7936C18.0752 25.2692 18.0129 25.9607 17.9766 26.3746C17.9662 26.4954 17.9558 26.588 17.9558 26.6394C17.9558 26.7088 17.9065 26.8116 17.603 27.4209C16.8039 29.0199 14.6842 33.2642 14.2665 36.8735C13.7476 41.3568 14.7076 49.9611 14.718 50.0485C14.7206 50.0742 14.7154 50.0999 14.705 50.1205C14.6868 50.1539 12.9849 53.4958 12.837 57.154C12.741 59.5525 12.3726 62.1746 12.1287 63.9099C12.0119 64.7325 11.9134 65.442 11.9315 65.55C11.9601 65.6657 11.9523 65.8122 11.9419 65.951C11.9237 66.2621 11.9341 66.3983 12.0561 66.4215C12.1469 66.4369 12.2947 66.257 12.44 66.0821C12.6891 65.7788 13.0316 65.3649 13.5816 65.2287C13.9889 65.1284 14.4378 65.1824 14.8347 65.2312C15.364 65.2955 15.6883 65.3212 15.7454 65.1001C15.818 64.8174 15.818 64.3752 15.818 63.8173C15.818 63.2543 15.818 62.5525 15.8932 61.7633C15.9607 61.0512 16.4796 59.4317 17.0789 57.555C17.7898 55.3288 18.5967 52.8043 18.6797 51.6218C18.8094 49.7503 20.6022 38.8812 21.038 38.2771L21.4065 37.7655C21.4609 37.6395 21.627 37.3079 21.8709 37.3233C22.0992 37.3413 22.1952 37.6473 22.2471 37.8735C22.343 38.2874 22.3586 40.0766 22.3794 42.3414C22.4053 45.3338 22.4365 49.0588 22.6959 49.8711C23.1551 51.3081 26.6965 60.7864 27.1532 61.915C27.423 62.5834 27.2128 63.3237 27.0468 63.9202C26.9274 64.3443 26.8133 64.7454 26.9248 64.9639C27.122 65.3546 27.615 65.3238 28.1858 65.2878C28.3544 65.2775 28.523 65.2672 28.6917 65.2672C29.1327 65.2672 29.5504 65.5834 29.9552 65.8868C30.2795 66.131 30.5882 66.3624 30.8269 66.3624C31.4314 66.3624 31.4963 65.1644 31.4963 64.6503C31.4963 64.2492 30.9826 62.1695 30.4377 59.9715C29.6594 56.8275 28.7799 53.2645 28.6917 51.9354C28.5438 49.6654 28.0249 47.8788 28.0197 47.8608C28.0145 47.8454 28.0145 47.8299 28.0145 47.8145C28.0249 47.7065 28.99 37.1331 28.7669 34.858C28.5464 32.5855 26.6083 26.7396 26.5902 26.6805C26.5824 26.6599 26.5824 26.6394 26.585 26.6162L27.9393 19.2511C27.9471 19.21 27.973 19.1765 28.0119 19.1585C28.0508 19.1405 28.095 19.1431 28.1313 19.1637C28.3025 19.2588 32.3109 21.5108 33.7431 23.3745C34.6278 24.5288 35.253 24.8167 35.5203 24.7113C35.7304 24.6291 35.8212 24.2846 35.7693 23.7627C35.6189 22.282 32.0333 17.8629 30.2354 16.0068C29.0056 14.7395 27.4775 14.4824 26.3619 14.2947C25.7859 14.197 25.3319 14.1225 25.0594 13.9322C24.3563 13.4438 24.5847 9.67511 24.6781 8.46686L22.1718 10.6828C22.1277 11.0402 21.8579 13.1559 21.6426 13.6546C21.4895 14.0068 20.6644 14.1688 19.3335 14.4001C18.5993 14.5287 17.8365 14.6623 17.3513 14.8423C16.2383 15.2562 13.8229 17.2459 12.0509 18.9169C10.5435 20.3385 9.22032 23.9504 9.09059 24.6959C9.33447 24.516 9.88709 23.9118 10.3826 23.3668C10.8444 22.8604 11.3659 22.2871 11.8693 21.791C13.2962 20.3771 16.3603 18.6367 16.49 18.5621C16.5029 18.5544 16.5263 18.5493 16.547 18.5493Z" fill="#3F4553"/>
<path d="M26.8024 65.0256C27.1034 65.622 27.931 65.3984 28.6834 65.3984C29.4358 65.3984 30.2193 66.4935 30.8212 66.4935C31.4231 66.4935 31.6203 65.622 31.6203 64.6528C31.6203 63.6837 28.9662 54.2414 28.8157 51.9277C28.6652 49.6141 28.1386 47.8248 28.1386 47.8248C28.1386 47.8248 29.1167 37.1589 28.891 34.8452C28.8546 34.4776 28.7742 34.0174 28.6652 33.5084L15.3324 32.2231C14.7823 33.7167 14.3127 35.3388 14.1363 36.8607C13.6096 41.4109 14.5878 50.0639 14.5878 50.0639C14.5878 50.0639 12.8573 53.4213 12.7068 57.1514C12.5563 60.8816 11.7287 65.2827 11.8039 65.5809C11.8791 65.8791 11.6534 66.4755 12.0296 66.55C12.4058 66.6246 12.7068 65.5809 13.6096 65.3572C14.5125 65.1336 15.7163 65.73 15.8694 65.1336C16.0199 64.5372 15.8694 63.3443 16.0199 61.7762C16.1704 60.2106 18.6559 53.7941 18.8063 51.6321C18.9568 49.4701 20.7625 38.8761 21.1413 38.3543C21.5175 37.8324 21.5175 37.8324 21.5175 37.8324C21.5175 37.8324 21.8937 36.9378 22.1194 37.9069C22.3452 38.8761 22.1194 48.4984 22.5709 49.9174C23.0223 51.3339 26.5793 60.8507 27.0307 61.969C27.4822 63.0847 26.5015 64.4292 26.8024 65.0256Z" fill="#3F4553"/>
<path d="M12.0712 66.6811C12.0504 66.6811 12.0271 66.6785 12.0063 66.6734C11.6431 66.6014 11.6665 66.2158 11.6846 65.9356C11.6924 65.8147 11.7002 65.6888 11.6794 65.6091C11.6483 65.4882 11.7002 65.0872 11.8714 63.8738C12.1153 62.1437 12.4837 59.5293 12.5797 57.1436C12.7224 53.632 14.2739 50.4083 14.4581 50.0381C14.388 49.4083 13.5059 41.2025 14.0093 36.8451C14.1649 35.4955 14.5697 33.9248 15.2131 32.1767C15.2338 32.1227 15.2857 32.0893 15.348 32.0918L28.6809 33.3772C28.7379 33.3824 28.7847 33.4235 28.795 33.4775C28.9118 34.0225 28.987 34.4775 29.0233 34.8297C29.2439 37.0945 28.3358 47.1126 28.2735 47.8093C28.3358 48.0304 28.808 49.7579 28.9481 51.9148C29.0337 53.2207 29.9496 56.9277 30.6864 59.9072C31.2805 62.3134 31.7527 64.2157 31.7527 64.6476C31.7527 65.9176 31.4232 66.6168 30.8239 66.6168C30.497 66.6168 30.1545 66.3597 29.7939 66.0898C29.4229 65.8122 29.0389 65.5217 28.6861 65.5217C28.5252 65.5217 28.3592 65.5319 28.1983 65.5422C27.5912 65.5808 26.9633 65.6193 26.6883 65.0769C26.5327 64.771 26.6546 64.3443 26.7947 63.8507C26.9607 63.262 27.1475 62.5962 26.9115 62.01C26.4548 60.8789 22.9082 51.3878 22.449 49.9482C22.1792 49.0972 22.148 45.5085 22.1195 42.3414C22.1013 40.2693 22.0858 38.3156 21.995 37.9274C21.9197 37.6086 21.8471 37.5752 21.8471 37.5752C21.8056 37.5829 21.6992 37.732 21.6395 37.8734C21.6369 37.8837 21.6318 37.8914 21.6266 37.8991L21.2504 38.421C20.9183 38.8812 19.1073 49.2515 18.9413 51.632C18.8557 52.8454 18.0462 55.3853 17.3302 57.6269C16.7594 59.411 16.2223 61.0974 16.1549 61.7812C16.0796 62.5576 16.0796 63.2517 16.0796 63.8121C16.0796 64.388 16.0796 64.843 16.0018 65.1592C15.8876 65.6142 15.3636 65.5499 14.8083 65.4831C14.4322 65.4368 14.0067 65.3854 13.6486 65.4754C13.1842 65.5911 12.8859 65.951 12.6446 66.2415C12.4474 66.478 12.2814 66.6811 12.0712 66.6811ZM15.4232 32.3592C14.8083 34.0507 14.4192 35.57 14.2661 36.8734C13.7472 41.3568 14.7072 49.961 14.7175 50.0484C14.7201 50.0741 14.7149 50.0998 14.7046 50.1204C14.6864 50.1538 12.9844 53.4958 12.8366 57.1539C12.7406 59.5524 12.3722 62.1746 12.1283 63.9098C12.0115 64.7324 11.9129 65.442 11.9311 65.5499C11.9596 65.6656 11.9519 65.8122 11.9415 65.951C11.9233 66.262 11.9337 66.3983 12.0556 66.4214C12.1464 66.4368 12.2943 66.2569 12.4396 66.0821C12.6887 65.7787 13.0311 65.3649 13.5812 65.2286C13.9885 65.1283 14.4373 65.1823 14.8343 65.2312C15.3636 65.2954 15.6879 65.3211 15.7449 65.1001C15.8176 64.8173 15.8176 64.3751 15.8176 63.8173C15.8176 63.2543 15.8176 62.5525 15.8928 61.7633C15.9603 61.0512 16.4792 59.4316 17.0785 57.555C17.7894 55.3287 18.5962 52.8042 18.6793 51.6217C18.809 49.7502 20.6018 38.8812 21.0376 38.277L21.406 37.7655C21.4605 37.6395 21.6266 37.3079 21.8704 37.3233C22.0988 37.3413 22.1947 37.6472 22.2466 37.8734C22.3426 38.2873 22.3582 40.0765 22.379 42.3414C22.4049 45.3337 22.436 49.0587 22.6955 49.871C23.1547 51.3081 26.6961 60.7864 27.1527 61.9149C27.4226 62.5833 27.2124 63.3237 27.0464 63.9201C26.927 64.3443 26.8129 64.7453 26.9244 64.9638C27.1216 65.3546 27.6146 65.3237 28.1853 65.2877C28.354 65.2774 28.5226 65.2672 28.6913 65.2672C29.1323 65.2672 29.55 65.5834 29.9547 65.8867C30.2791 66.1309 30.5878 66.3623 30.8265 66.3623C31.431 66.3623 31.4958 65.1643 31.4958 64.6502C31.4958 64.2492 30.9821 62.1694 30.4373 59.9715C29.659 56.8274 28.7795 53.2644 28.6913 51.9353C28.5434 49.6628 28.0245 47.8787 28.0193 47.8607C28.0141 47.8453 28.0141 47.8299 28.0141 47.8144C28.0245 47.7065 28.9896 37.1331 28.7665 34.858C28.7354 34.534 28.6679 34.1202 28.5641 33.6266L15.4232 32.3592Z" fill="#3F4553"/>
<path d="M30.3237 15.9194C28.4427 13.9811 25.882 14.3538 25.1296 13.832C24.5795 13.4515 24.6729 10.6108 24.7612 9.1018L24.276 8.64935L22.0422 10.6237C22.0422 10.6237 21.7412 13.0864 21.5155 13.6083C21.2898 14.1302 18.5033 14.2793 17.2995 14.7266C16.1138 15.1662 13.6206 17.2665 12.0354 18.7523L13.5946 20.557C15.0086 19.5493 16.5471 18.6804 16.5471 18.6804C16.5471 18.6804 17.6783 24.2306 17.8288 24.8295C17.9793 25.426 17.8262 26.4208 17.8262 26.6445C17.8262 26.809 16.1009 29.8245 14.9879 33.2204C17.1464 34.205 21.3961 35.3233 28.8396 34.4338C28.4557 31.9042 26.7096 26.6419 26.7096 26.6419L28.0639 19.2768C28.0639 19.2768 29.3663 20.0043 30.7621 20.9709L32.9155 18.9091C31.9971 17.7523 31.0397 16.6572 30.3237 15.9194Z" fill="#9776A5"/>
<path d="M23.7102 34.8863C19.4034 34.8863 16.6299 34.1074 14.9357 33.3336C14.8761 33.3053 14.8475 33.2384 14.8657 33.1767C15.6778 30.7011 16.8219 28.408 17.3719 27.3078C17.5406 26.971 17.6859 26.6779 17.6988 26.6214C17.6962 26.5828 17.7066 26.4826 17.717 26.3514C17.7533 25.953 17.813 25.2897 17.704 24.8553C17.5691 24.3154 16.6533 19.8423 16.4561 18.8783C16.0306 19.1251 14.806 19.8526 13.6722 20.6573C13.6178 20.6958 13.5425 20.6881 13.4984 20.6367L11.9391 18.8346C11.895 18.7832 11.8976 18.7061 11.9495 18.6572C13.3142 17.377 15.9657 15.0814 17.2578 14.6032C17.7663 14.4155 18.5368 14.2793 19.284 14.1482C20.1791 13.9914 21.2947 13.796 21.3985 13.5543C21.6139 13.0556 21.9122 10.6288 21.9148 10.6057C21.9174 10.5749 21.933 10.5466 21.9563 10.526L24.1902 8.55168C24.2394 8.50798 24.3173 8.50798 24.3666 8.55426L24.8517 9.00671C24.8803 9.03241 24.8958 9.07097 24.8932 9.10696C24.7064 12.2227 24.9322 13.5363 25.2072 13.724C25.4329 13.8808 25.8817 13.9554 26.4032 14.0428C27.5552 14.2356 29.13 14.5004 30.4194 15.8294C31.1692 16.6007 32.1396 17.7215 33.0191 18.8295C33.0606 18.8809 33.0554 18.9554 33.0087 19.0017L30.8553 21.0634C30.8112 21.1072 30.7411 21.1123 30.6919 21.0763C29.597 20.3179 28.5514 19.7035 28.1623 19.4799L26.8469 26.6342C26.9922 27.0738 28.6085 32.0045 28.9717 34.4158C28.9769 34.4493 28.9691 34.4853 28.9458 34.5135C28.9224 34.5418 28.8939 34.5598 28.8576 34.5624C26.9377 34.7886 25.2279 34.8863 23.7102 34.8863ZM15.1485 33.1485C17.4186 34.1562 21.5879 35.1511 28.6915 34.3207C28.2764 31.7834 26.6056 26.7319 26.5874 26.6805C26.5796 26.6599 26.5796 26.6394 26.5822 26.6162L27.9365 19.2511C27.9443 19.2099 27.9703 19.1765 28.0092 19.1585C28.0481 19.1405 28.0922 19.1431 28.1285 19.1637C28.1415 19.1714 29.3972 19.8732 30.7489 20.8038L32.7415 18.8963C31.8879 17.8269 30.9539 16.7523 30.23 16.0068C29.0003 14.7394 27.4721 14.4824 26.3565 14.2947C25.7806 14.197 25.3265 14.1225 25.0541 13.9322C24.6053 13.6212 24.46 12.0119 24.6286 9.1481L24.2758 8.81647L22.1665 10.6803C22.1224 11.0376 21.8526 13.1533 21.6372 13.652C21.4841 14.0042 20.6591 14.1662 19.3281 14.3975C18.5939 14.5261 17.8312 14.6598 17.346 14.8397C16.2745 15.2382 13.9576 17.1302 12.2142 18.7549L13.6178 20.3771C14.9954 19.4053 16.4691 18.5698 16.482 18.5621C16.5184 18.5416 16.5625 18.539 16.6014 18.557C16.6403 18.575 16.6662 18.6084 16.674 18.6495C16.6844 18.7061 17.8078 24.2049 17.9557 24.791C18.075 25.2666 18.0128 25.9581 17.9764 26.372C17.9661 26.4928 17.9557 26.5854 17.9557 26.6368C17.9557 26.7062 17.9064 26.809 17.6028 27.4183C17.0658 28.5032 15.9528 30.732 15.1485 33.1485Z" fill="#3F4553"/>
<path d="M26.6576 14.2174C25.9753 14.0992 25.4201 14.0298 25.1295 13.8293C24.5794 13.4488 24.6728 10.6081 24.7611 9.09911L24.2759 8.64666L22.0421 10.621C22.0421 10.621 21.7411 13.0837 21.5154 13.6056C21.4272 13.8061 20.9576 13.9527 20.3479 14.0812C20.8486 15.5722 21.9487 18.2406 23.3938 18.2406C24.8 18.2432 26.0401 15.729 26.6576 14.2174Z" fill="#FED9CE"/>
<path d="M23.3938 18.3719C21.876 18.3719 20.7578 15.7112 20.2234 14.1225C20.213 14.0865 20.2156 14.0505 20.2337 14.0171C20.2519 13.9862 20.283 13.9631 20.3193 13.9554C21.1418 13.7831 21.3571 13.6417 21.396 13.5543C21.6114 13.0556 21.9097 10.6288 21.9123 10.6057C21.9149 10.5749 21.9305 10.5466 21.9539 10.526L24.1877 8.55168C24.237 8.50798 24.3148 8.50798 24.3641 8.55426L24.8492 9.00671C24.8778 9.03241 24.8934 9.07097 24.8908 9.10696C24.704 12.2227 24.9297 13.5363 25.2047 13.724C25.4304 13.8808 25.8818 13.9554 26.4033 14.0428L26.6783 14.089C26.7172 14.0968 26.751 14.1199 26.7691 14.1533C26.7873 14.1867 26.7899 14.2279 26.7769 14.2638C26.0116 16.1379 24.8025 18.3719 23.3938 18.3719ZM20.5165 14.1764C20.9602 15.4618 22.0395 18.1122 23.3938 18.1122C24.678 18.1122 25.8533 15.7986 26.476 14.3153L26.3618 14.2947C25.7858 14.197 25.3292 14.1225 25.0568 13.9322C24.608 13.6212 24.4627 12.0119 24.6313 9.14809L24.2785 8.81647L22.1692 10.6802C22.1251 11.0376 21.8553 13.1533 21.6399 13.652C21.5439 13.8654 21.217 14.0196 20.5165 14.1764Z" fill="#3F4553"/>
<path d="M24.7451 9.37166C24.4675 9.38965 24.1613 9.45906 23.946 9.51305C23.6346 9.59017 23.0327 9.91665 22.4593 10.2534L22.0442 10.621C22.0442 10.621 21.9223 11.6236 21.7744 12.4848C22.2933 12.2997 23.8007 11.7162 24.6984 10.8678C24.701 10.3383 24.7217 9.8164 24.7451 9.37166Z" fill="#C6FF00"/>
<path d="M24.7451 9.37166C24.4675 9.38965 24.1613 9.45906 23.946 9.51305C23.6346 9.59017 23.0327 9.91665 22.4593 10.2534L22.0442 10.621C22.0442 10.621 21.9223 11.6236 21.7744 12.4848C22.2933 12.2997 23.8007 11.7162 24.6984 10.8678C24.701 10.3383 24.7217 9.8164 24.7451 9.37166Z" fill="#BFB2AA"/>
<path d="M21.8136 47.6449C30.0541 47.6449 36.7343 41.0257 36.7343 32.8606C36.7343 24.6954 30.0541 18.0763 21.8136 18.0763C13.5731 18.0763 6.89287 24.6954 6.89287 32.8606C6.89287 41.0257 13.5731 47.6449 21.8136 47.6449Z" fill="#FA6E5A"/>
<path d="M26.7197 45.1512C18.4797 45.1512 11.799 38.5315 11.799 30.3669C11.799 25.6136 14.0665 21.3873 17.5846 18.6829C11.4046 20.4901 6.89287 26.1509 6.89287 32.8605C6.89287 41.0251 13.5736 47.6448 21.8136 47.6448C25.2564 47.6448 28.4242 46.4854 30.9486 44.547C29.6073 44.9378 28.1882 45.1512 26.7197 45.1512Z" fill="#E3604D"/>
<path d="M11.3449 27.3901C11.0829 27.3901 10.8442 27.2102 10.7845 26.948C10.7119 26.6395 10.9065 26.3336 11.2178 26.2642L15.3326 25.3259L12.9561 24.5906C12.6525 24.4955 12.4839 24.1767 12.5773 23.876C12.6707 23.5752 12.995 23.4081 13.2985 23.5006L17.7065 24.8657C17.9556 24.9428 18.1216 25.1742 18.1112 25.4338C18.1009 25.6909 17.9193 25.9094 17.665 25.9685L11.4746 27.3799C11.4305 27.3876 11.3864 27.3901 11.3449 27.3901Z" fill="#3F4553"/>
<path d="M31.971 27.3902C31.9269 27.3902 31.8802 27.3851 31.8361 27.3748L25.9337 25.9635C25.6794 25.9018 25.5004 25.6807 25.4926 25.4236C25.4848 25.1666 25.6535 24.9352 25.9051 24.8606L30.5362 23.4956C30.8424 23.4056 31.1615 23.5778 31.2523 23.8812C31.3431 24.1845 31.1693 24.5007 30.8657 24.5907L28.2868 25.3516L32.1085 26.2643C32.4172 26.3388 32.6092 26.6473 32.534 26.9532C32.4665 27.2154 32.2304 27.3902 31.971 27.3902Z" fill="#3F4553"/>
<path d="M10.4161 29.8068C11.9209 36.208 16.4534 40.8584 21.8135 40.8584C27.1737 40.8584 31.7088 36.208 33.2109 29.8068L31.2314 29.4804C24.8983 28.4315 18.4485 28.4444 12.1207 29.5189L10.4161 29.8068Z" fill="#3F4553"/>
<path d="M29.5839 36.506C27.6173 35.213 24.9061 34.4135 21.9069 34.4135C18.8507 34.4135 16.0928 35.2489 14.1184 36.5857C16.1966 38.8968 18.8792 40.2979 21.8135 40.2979C24.7842 40.2979 27.4954 38.866 29.5839 36.506Z" fill="#4E5567"/>
<path d="M19.8601 4.38185C19.8601 4.38185 19.3334 5.94743 18.882 6.84462C18.4305 7.73923 19.1077 10.5002 19.6344 11.3203C20.161 12.1403 21.1392 11.9912 21.5154 11.9167C21.8915 11.8421 23.5468 10.7984 24.1513 10.202C24.7532 9.60559 25.0542 9.30738 25.0542 9.30738C25.0542 9.30738 25.3551 9.30738 25.6561 8.71097C25.9571 8.11456 24.7532 6.77264 23.6999 5.12994C22.6465 3.48981 22.1951 3.56436 22.1951 3.56436L19.8601 4.38185Z" fill="#FED9CE"/>
<path d="M20.9499 12.1043C20.169 12.1043 19.7487 11.7341 19.5256 11.3871C18.9833 10.5413 18.2854 7.73921 18.7654 6.78547C19.2091 5.90885 19.7331 4.35613 19.7383 4.3407C19.7513 4.30214 19.7798 4.27386 19.8188 4.26101L22.1538 3.44094C22.2627 3.42295 22.766 3.43066 23.8116 5.06051C24.0918 5.49753 24.3798 5.90628 24.6574 6.30217C25.4565 7.44101 26.0325 8.26364 25.7756 8.76751C25.5162 9.28166 25.2412 9.39991 25.1192 9.42819L24.2449 10.2945C23.6274 10.9064 21.9462 11.9655 21.5441 12.0452C21.3235 12.0863 21.1264 12.1043 20.9499 12.1043ZM19.964 4.48209C19.8629 4.7803 19.4036 6.09651 18.9989 6.90115C18.5682 7.75207 19.2532 10.4873 19.7461 11.2508C20.0808 11.7727 20.6697 11.9526 21.4948 11.7907C21.8191 11.7264 23.4588 10.7084 24.0633 10.1094L24.9661 9.21482C24.9895 9.19168 25.0232 9.17625 25.057 9.17625C25.0544 9.17625 25.2905 9.15055 25.5421 8.65182C25.7289 8.28421 25.1322 7.4333 24.4421 6.4487C24.1645 6.05024 23.8765 5.63892 23.5911 5.19933C22.7194 3.84198 22.2861 3.70573 22.216 3.69287L19.964 4.48209Z" fill="#3F4553"/>
<path d="M20.3894 8.10189C20.3738 8.10189 20.3582 8.09932 20.3427 8.09418C19.5565 7.7934 19.6266 7.59031 19.6473 7.52604C19.6992 7.36923 20.3037 6.48489 20.488 6.21753C20.5295 6.15841 20.6099 6.14298 20.667 6.18412C20.7266 6.22525 20.7422 6.30494 20.7007 6.3615C20.3556 6.86279 19.9846 7.42321 19.9042 7.57746C19.9691 7.6443 20.2 7.76512 20.4335 7.8551C20.5009 7.8808 20.5347 7.95536 20.5087 8.02219C20.4906 8.06847 20.4413 8.10189 20.3894 8.10189Z" fill="#3F4553"/>
<path d="M23.0174 6.92684C22.9681 6.92684 22.9214 6.89856 22.9007 6.85229C22.7813 6.60036 22.6257 6.44098 22.4363 6.37671C22.182 6.29188 21.9459 6.40242 21.9433 6.40242C21.8785 6.43326 21.8006 6.40756 21.7695 6.34586C21.7384 6.28159 21.7643 6.20447 21.8266 6.17362C21.8396 6.16591 22.1613 6.01167 22.5219 6.13506C22.7787 6.22247 22.9863 6.42812 23.1368 6.74432C23.1679 6.80859 23.1394 6.88571 23.0745 6.91656C23.0537 6.9217 23.0356 6.92684 23.0174 6.92684Z" fill="#3F4553"/>
<path d="M20.2336 6.21211C20.1921 6.21211 20.1532 6.19412 20.1272 6.15813C20.1246 6.15299 20.0027 5.99103 19.8211 5.97047C19.7043 5.95761 19.5746 6.0116 19.4423 6.12728C19.3878 6.17355 19.3074 6.17098 19.2581 6.11699C19.2114 6.06301 19.214 5.98332 19.2685 5.93448C19.4579 5.76481 19.6524 5.69283 19.8522 5.7134C20.1506 5.74682 20.3322 5.99617 20.3374 6.00645C20.3789 6.06558 20.3633 6.14527 20.3062 6.1864C20.2855 6.2044 20.2595 6.21211 20.2336 6.21211Z" fill="#3F4553"/>
<path d="M23.4303 6.10923C23.3758 6.10923 23.3266 6.07581 23.3084 6.02182C22.9452 4.98325 22.3044 5.12721 22.2784 5.13493C22.2084 5.15035 22.1383 5.11179 22.1202 5.04238C22.102 4.97297 22.1435 4.90356 22.211 4.88557C22.2187 4.883 23.106 4.66448 23.5523 5.93699C23.5756 6.00383 23.5393 6.07838 23.4718 6.10152C23.4589 6.10666 23.4433 6.10923 23.4303 6.10923Z" fill="#3F4553"/>
<path d="M19.6159 5.59758C19.5951 5.59758 19.5769 5.59244 19.5588 5.58473C19.4939 5.55388 19.468 5.47676 19.5017 5.41249C19.647 5.12199 19.8416 4.94975 20.0803 4.89577C20.4435 4.81351 20.7652 5.05258 20.7782 5.06287C20.8353 5.10657 20.8456 5.18626 20.8015 5.24282C20.7574 5.29938 20.677 5.30966 20.6199 5.26596C20.6173 5.26338 20.3786 5.08857 20.1348 5.14513C19.9765 5.18112 19.8416 5.30966 19.7326 5.5256C19.7093 5.57187 19.6626 5.59758 19.6159 5.59758Z" fill="#3F4553"/>
<path d="M19.9247 8.68767C19.9247 8.68767 20.851 9.04501 22.0366 8.38176C22.0366 8.38176 21.4191 9.29951 20.6979 9.40234C19.9766 9.5026 19.9247 8.68767 19.9247 8.68767Z" fill="#3F4553"/>
<path d="M11.5423 19.3022C11.5423 19.3022 8.28111 22.0144 7.75962 23.7599C7.23814 25.5054 7.6299 29.5106 7.56504 30.7369C7.50018 31.9631 8.34856 33.3204 8.73773 33.5801C9.12949 33.8397 9.19436 33.3873 9.1295 32.9348C9.06463 32.4824 9.06463 30.1559 9.06463 30.1559C9.06463 30.1559 9.65098 31.8346 9.71584 31.5132C9.7807 31.1893 9.7807 30.6083 9.52126 29.7034C9.26181 28.7985 8.60801 27.508 8.67287 27.2484C8.73773 26.9887 10.8237 23.1146 11.1506 21.8858" fill="#FED9CE"/>
<path d="M8.93735 33.7833C8.8647 33.7833 8.7739 33.7576 8.66493 33.6856C8.255 33.4157 7.3651 32.0172 7.43256 30.7293C7.45072 30.3642 7.42996 29.7396 7.40402 29.0146C7.34435 27.3051 7.26133 24.9631 7.63233 23.724C8.15901 21.9631 11.3191 19.3152 11.454 19.2047C11.5085 19.1584 11.5915 19.1661 11.6356 19.2201C11.6823 19.2741 11.6745 19.3564 11.62 19.4001C11.5889 19.4258 8.38473 22.1096 7.87881 23.796C7.52077 24.9965 7.6012 27.3128 7.66087 29.0069C7.68682 29.737 7.70757 30.3694 7.68941 30.7447C7.62715 31.9221 8.4444 33.2357 8.80503 33.4748C8.88027 33.5237 8.93216 33.534 8.94773 33.5262C8.99702 33.4954 9.04631 33.2974 8.99702 32.9555C8.93216 32.5005 8.92956 30.2563 8.92956 30.1586C8.92956 30.0969 8.97626 30.0429 9.03853 30.0326C9.1008 30.0223 9.16306 30.0583 9.18382 30.1174C9.32133 30.5133 9.49515 30.9581 9.61709 31.2203C9.63007 30.9195 9.59374 30.4414 9.39397 29.7421C9.28241 29.3514 9.09042 28.8784 8.92178 28.4619C8.64158 27.7678 8.49888 27.3976 8.54299 27.2202C8.56634 27.1277 8.73498 26.7909 9.11377 26.0403C9.74682 24.7832 10.8028 22.6803 11.0233 21.8577C11.0415 21.7883 11.1141 21.7471 11.1816 21.7651C11.2516 21.7831 11.2931 21.8525 11.275 21.922C11.0492 22.7703 10.0244 24.8063 9.34727 26.1534C9.07485 26.6958 8.818 27.2048 8.79725 27.2819C8.7739 27.395 8.99183 27.9323 9.16566 28.3642C9.3369 28.7884 9.52888 29.2665 9.64563 29.6701C9.93881 30.6907 9.8973 31.2794 9.84281 31.5391C9.81687 31.665 9.72606 31.6805 9.69753 31.683C9.61969 31.6882 9.51332 31.6959 9.19679 30.8912C9.20198 31.611 9.21755 32.6368 9.25646 32.9144C9.29279 33.1612 9.31873 33.5982 9.08783 33.7396C9.0541 33.7653 9.00221 33.7833 8.93735 33.7833Z" fill="#3F4553"/>
<path d="M8.91386 33.6855C8.86197 33.6855 8.81008 33.6521 8.79192 33.6007C8.78673 33.5904 8.37162 32.4464 8.16666 31.0171C8.15629 30.9477 8.20558 30.8808 8.27563 30.8706C8.34568 30.8603 8.41314 30.9091 8.42351 30.9785C8.62588 32.3796 9.0332 33.4978 9.0358 33.5107C9.05915 33.5775 9.02542 33.6521 8.95796 33.6752C8.9424 33.6829 8.92683 33.6855 8.91386 33.6855Z" fill="#3F4553"/>
<path d="M8.44943 33.3772C8.40274 33.3772 8.35604 33.3515 8.33269 33.3052C8.31453 33.2718 7.9098 32.4569 7.65036 31.1226C7.63739 31.0532 7.68409 30.9864 7.75414 30.971C7.82418 30.9581 7.89164 31.0018 7.9072 31.0738C8.15886 32.372 8.56359 33.1818 8.56619 33.1895C8.59732 33.2538 8.57137 33.3309 8.50911 33.3617C8.48835 33.3746 8.4676 33.3772 8.44943 33.3772Z" fill="#3F4553"/>
<path d="M33.0427 19.3022C33.0427 19.3022 36.3039 22.0144 36.8254 23.7599C37.3469 25.5054 36.9551 29.5106 37.02 30.7369C37.0848 31.9631 36.2365 33.3204 35.8473 33.5801C35.4581 33.8397 35.3907 33.3873 35.4555 32.9348C35.5204 32.4824 35.5204 30.1559 35.5204 30.1559C35.5204 30.1559 34.9341 31.8346 34.8692 31.5132C34.8043 31.1919 34.8043 30.6083 35.0638 29.7034C35.3258 28.7985 35.977 27.508 35.9122 27.2484C35.8473 26.9887 33.7614 23.1146 33.4345 21.8858" fill="#FED9CE"/>
<path d="M35.6476 33.7833C35.5828 33.7833 35.5335 33.7627 35.4946 33.7396C35.2663 33.5982 35.2922 33.1612 35.3259 32.9144C35.3648 32.6368 35.3804 31.6085 35.3856 30.8912C35.0691 31.6933 34.9679 31.6882 34.8849 31.683C34.8563 31.6805 34.7655 31.665 34.7396 31.5391C34.6877 31.2794 34.6436 30.6907 34.9368 29.6701C35.0535 29.2665 35.2455 28.7884 35.4167 28.3642C35.5906 27.9323 35.8059 27.395 35.7826 27.2819C35.7618 27.2074 35.505 26.6932 35.2325 26.1508C34.5554 24.8037 33.5306 22.7677 33.3075 21.922C33.2893 21.8525 33.3308 21.7831 33.4009 21.7651C33.4683 21.7471 33.541 21.7883 33.5591 21.8577C33.777 22.6777 34.8356 24.7832 35.466 26.0377C35.8448 26.7909 36.0135 27.1277 36.0368 27.2202C36.0809 27.3976 35.9382 27.7678 35.658 28.4619C35.4894 28.8784 35.3 29.3514 35.1858 29.7421C34.9835 30.4414 34.9471 30.9195 34.9627 31.2203C35.0846 30.9555 35.2559 30.5133 35.396 30.1174C35.4167 30.0583 35.4764 30.0223 35.5413 30.0326C35.6035 30.0429 35.6502 30.0969 35.6502 30.1586C35.6502 30.2537 35.6502 32.4979 35.5828 32.9555C35.5335 33.2974 35.5828 33.4954 35.6321 33.5262C35.6476 33.5365 35.6995 33.5262 35.7748 33.4748C36.1354 33.2357 36.9527 31.9221 36.8904 30.7447C36.8696 30.3694 36.893 29.737 36.9189 29.0069C36.9786 27.3154 37.059 24.9965 36.701 23.796C36.1951 22.1096 32.9935 19.4283 32.9598 19.4001C32.9053 19.3538 32.8975 19.2741 32.9442 19.2201C32.9909 19.1661 33.0714 19.1584 33.1258 19.2047C33.2608 19.3152 36.4208 21.9631 36.9475 23.724C37.3185 24.9631 37.2354 27.3051 37.1758 29.0146C37.1498 29.7396 37.1291 30.3668 37.1472 30.7293C37.2147 32.0172 36.3248 33.4157 35.9149 33.6856C35.8085 33.7602 35.7203 33.7833 35.6476 33.7833Z" fill="#3F4553"/>
<path d="M35.6524 33.5827C35.642 33.5827 35.6317 33.5827 35.6187 33.5776C35.5486 33.5596 35.5071 33.4902 35.5253 33.4208C35.5305 33.4053 35.9352 31.8372 35.9352 30.7935C35.9352 30.7215 35.9923 30.6649 36.0649 30.6649C36.1376 30.6649 36.1947 30.7215 36.1947 30.7935C36.1947 31.8706 35.7951 33.4208 35.7769 33.485C35.764 33.5441 35.7095 33.5827 35.6524 33.5827Z" fill="#3F4553"/>
<path d="M36.117 33.5313C36.1015 33.5313 36.0885 33.5287 36.0729 33.5236C36.0055 33.5005 35.9717 33.4259 35.9951 33.3591C36.0003 33.3437 36.6074 31.6855 36.6074 31.0506C36.6074 30.9786 36.6644 30.922 36.7371 30.922C36.8097 30.922 36.8668 30.9786 36.8668 31.0506C36.8668 31.7292 36.2649 33.3771 36.239 33.4465C36.2208 33.5005 36.1689 33.5313 36.117 33.5313Z" fill="#3F4553"/>
</svg>
