<svg width="164" height="132" viewBox="0 0 164 132" fill="none" xmlns="http://www.w3.org/2000/svg">
<mask id="mask0_1_3270" style="mask-type:alpha" maskUnits="userSpaceOnUse" x="-4" y="0" width="177" height="210">
<rect x="-4" width="176.435" height="210" rx="10" fill="#8E97FD"/>
</mask>
<g mask="url(#mask0_1_3270)">
<g clip-path="url(#clip0_1_3270)">
<path d="M150.386 27H147V44H150.386V27Z" fill="#9BA3FF"/>
<path d="M155.693 32.7144H152.307V43.9998H155.693V32.7144Z" fill="#9BA3FF"/>
<path d="M161.007 38.1001H157.621V44.0001H161.007V38.1001Z" fill="#9BA3FF"/>
</g>
<g clip-path="url(#clip1_1_3270)">
<path d="M85.5 132C104.554 132 120 129.314 120 126C120 122.686 104.554 120 85.5 120C66.4462 120 51 122.686 51 126C51 129.314 66.4462 132 85.5 132Z" fill="#808AFF"/>
</g>
<path d="M79.6819 48.1563C79.6819 48.1563 78.3303 63.0968 83.9286 62.8718C89.9341 62.6271 88.3187 48.1563 88.3187 48.1563C87.5338 45.8239 87.2212 44.4407 87.5729 41.9941H80.2811C80.6328 44.4407 80.4635 45.8239 79.6819 48.1563Z" fill="#FDBCA0"/>
<path d="M80.4275 44.884C81.2547 45.1319 82.0884 45.3603 82.9514 45.432C83.7689 45.5005 84.6091 45.4483 85.4233 45.3603C86.1007 45.2852 86.8237 45.1645 87.5011 44.9394C87.3936 44.0521 87.4099 43.1387 87.576 41.9905H80.2842C80.4438 43.1159 80.4926 44.0163 80.4275 44.884Z" fill="#F0A38B"/>
<path d="M83.9285 44.0329C86.0096 44.0329 88.0125 43.2108 89.478 41.7298C91.2236 39.9682 92.5914 38.0044 92.992 35.6981C93.5066 32.7361 92.5068 29.7773 90.3248 27.396H77.5291C75.3471 29.7741 74.3472 32.7361 74.8618 35.6981C75.2624 38.0044 76.6335 39.9682 78.3758 41.7298C79.8446 43.2075 81.8475 44.0329 83.9285 44.0329Z" fill="#FDBCA0"/>
<path d="M84.5643 49.8983C84.3005 50.1886 84.0529 50.505 83.8185 50.8215C83.5351 50.6257 83.3104 50.3876 83.0629 50.1429C83.0401 50.1201 82.9945 50.1429 83.0043 50.1756C83.1443 50.5605 83.4374 50.8737 83.737 51.1412C83.8022 51.1966 83.8934 51.2031 83.9585 51.1412C84.2744 50.8313 84.5838 50.4692 84.828 50.0973C84.9323 49.9439 84.6913 49.758 84.5643 49.8983Z" fill="#DF8370"/>
<path d="M91.6051 49.3273C89.6609 49.4936 87.7427 49.8101 85.8505 50.2929C85.7365 50.3222 85.7854 50.4951 85.8994 50.469C87.7818 50.0515 89.6837 49.7677 91.6051 49.6372C91.8071 49.6241 91.8038 49.311 91.6051 49.3273Z" fill="#DF8370"/>
<path d="M76.2496 49.3273C78.1938 49.4936 80.1121 49.8101 82.0042 50.2929C82.1182 50.3222 82.0694 50.4951 81.9554 50.469C80.073 50.0515 78.1711 49.7677 76.2496 49.6372C76.0509 49.6241 76.0509 49.311 76.2496 49.3273Z" fill="#DF8370"/>
<path d="M76.5846 22.4702C73.8652 24.0295 71.9502 26.4859 71.9177 29.7872C71.8851 33.5093 76.4119 39.4365 76.3501 39.2897C74.8455 35.6688 74.4514 30.6843 78.2064 28.1887C78.5809 27.9408 79.0499 27.7973 79.3853 27.5069C79.3756 25.5399 78.2911 23.6348 76.5846 22.4702Z" fill="#3F4553"/>
<path d="M91.0052 22.4702C93.7246 24.0295 95.6395 26.4859 95.6721 29.7872C95.7047 33.5093 93.4803 36.8203 91.2658 39.6323C91.8292 38.4057 93.1351 30.681 89.3801 28.1887C89.0056 27.9408 88.5366 27.7973 88.2012 27.5069C88.2142 25.5399 89.3019 23.6348 91.0052 22.4702Z" fill="#424495"/>
<path d="M130.05 20.4999C127.973 19.4658 125.546 19.244 123.286 19.7039C122.192 19.9257 121.156 20.3139 120.169 20.8391C119.515 21.1849 118.851 21.6808 118.088 21.7395C117.164 21.808 116.353 21.2045 115.665 20.6695C113.529 19.0058 111.357 17.5476 108.608 17.1464C107.279 16.9507 105.794 17.0942 104.765 17.9097C103.71 16.5136 102.137 15.5186 100.404 15.1532C98.1116 14.6705 95.9329 15.3588 94.1319 16.7419C93.1158 16.2428 91.3377 15.5251 91.1129 15.4631C84.3389 13.5972 75.0898 18.3306 76.2883 26.313C77.3174 33.1732 85.9901 36.344 91.9988 34.9348C93.2949 37.3912 96.4019 37.962 98.7956 36.6833C98.9779 36.8236 99.1603 36.9638 99.3459 37.1008C103.166 39.9063 107.612 41.7298 112.412 40.9012C114.236 40.5848 115.942 39.9258 117.512 38.9798C119.004 40.102 120.967 40.4576 122.775 39.5898C124.12 38.9472 125.022 37.7598 125.344 36.4158C125.367 36.4158 125.39 36.4158 125.413 36.4158C129.406 36.3669 133.639 34.3802 134.659 30.1884C135.587 26.3782 133.522 22.2255 130.05 20.4999Z" fill="#4E5567"/>
<path d="M111.897 19.2569C113.21 20.3302 113.988 21.8014 113.171 23.4227C112.506 24.7438 111.311 25.7062 110.442 26.8773C109.422 28.2474 109.246 30.0057 110.917 31.0071C112.562 31.9923 114.623 30.7657 115.994 29.836C117.688 28.6845 119.505 25.3539 120.964 23.9251C127.445 17.5802 133.88 24.3622 133.906 24.385C133.066 22.7344 131.724 21.3349 130.05 20.4998C127.973 19.4657 125.546 19.2439 123.286 19.7039C122.192 19.9257 121.156 20.3139 120.169 20.8391C119.515 21.1849 118.85 21.6807 118.088 21.7394C117.163 21.8079 116.353 21.2044 115.665 20.6694C113.529 19.0058 111.357 17.5476 108.608 17.1463C107.309 16.9571 105.859 17.0942 104.833 17.864C107.071 16.993 110.103 17.7857 111.897 19.2569Z" fill="#3F4553"/>
<path d="M129.158 35.3394C127.572 35.5253 126.087 35.4372 124.628 34.7881C123.999 36.4224 122.713 38.073 120.896 38.3307C119.674 38.5036 118.232 38.122 117.981 36.8269C109.396 43.8274 99.7724 36.0179 98.8442 34.5532C96.1672 36.3017 92.7932 34.1683 91.7934 31.4379C89.7547 32.2306 87.4034 31.9859 85.4233 31.1345C81.7334 29.5524 79.6882 25.1909 80.9778 21.3416C82.0526 18.1414 84.9152 15.9525 88.0873 15.062C81.9027 15.0261 75.2623 19.4756 76.2881 26.3131C77.3173 33.1733 85.9867 36.3441 91.9986 34.9349C93.2948 37.3912 96.4017 37.9621 98.7954 36.6834C98.9778 36.8236 99.1601 36.9639 99.3458 37.1009C103.166 39.9063 107.611 41.7299 112.412 40.9013C114.236 40.5849 115.942 39.9259 117.512 38.9799C119.003 40.1021 120.967 40.4576 122.775 39.5899C124.12 38.9473 125.022 37.7599 125.344 36.4159C125.367 36.4159 125.39 36.4159 125.413 36.4159C127.318 36.393 129.275 35.9266 130.917 34.9936C130.34 35.1665 129.741 35.2709 129.158 35.3394Z" fill="#3F4553"/>
<path d="M81.6419 37.4467C80.5021 37.6359 78.649 37.6979 77.5971 36.5692C77.3886 36.3441 77.1053 36.5985 77.3658 36.8236C77.4082 36.8595 77.4505 36.8921 77.4929 36.9247C77.3691 36.9606 77.2388 36.9769 77.1021 36.9672C77.0988 36.9672 77.0988 36.9704 77.1021 36.9737C77.2681 37.0291 77.4375 37.0454 77.6036 37.0128C77.6068 37.0161 77.6101 37.0193 77.6134 37.0193C77.4701 37.114 77.2975 37.1531 77.1281 37.2086C77.1248 37.2086 77.1248 37.2118 77.1281 37.2151C77.3365 37.2346 77.5547 37.2086 77.7273 37.0976C77.7469 37.1107 77.7664 37.1172 77.786 37.1303C77.6557 37.2314 77.5091 37.3064 77.3431 37.3456C77.3268 37.3488 77.33 37.3749 77.3463 37.3749C77.558 37.3847 77.7599 37.3325 77.9293 37.2151C77.9651 37.2346 78.0042 37.251 78.04 37.2705C77.9195 37.3586 77.7957 37.4369 77.6557 37.5021C77.6427 37.5087 77.6492 37.5315 77.6622 37.5315C77.8478 37.538 78.0107 37.4434 78.1572 37.3325C78.2028 37.3553 78.2484 37.3717 78.2973 37.3912C78.2354 37.4532 78.1637 37.5119 78.0954 37.5706C78.0856 37.5804 78.0954 37.5935 78.1084 37.5935C78.2256 37.5641 78.3331 37.5152 78.4243 37.4467C79.4697 37.8773 80.6942 37.8903 81.7429 37.5119C81.8536 37.4663 81.7689 37.4271 81.6419 37.4467Z" fill="#3F4553"/>
<path d="M86.3217 37.4467C87.4616 37.6359 89.3146 37.6979 90.3666 36.5692C90.575 36.3441 90.8583 36.5985 90.5978 36.8236C90.5555 36.8595 90.5131 36.8921 90.4708 36.9247C90.5978 36.9606 90.7248 36.9769 90.8616 36.9672C90.8648 36.9672 90.8648 36.9704 90.8616 36.9737C90.6955 37.0291 90.5261 37.0454 90.3601 37.0128C90.3568 37.0161 90.3535 37.0193 90.3503 37.0193C90.4936 37.114 90.6662 37.1531 90.8355 37.2086C90.8388 37.2086 90.8388 37.2118 90.8355 37.2151C90.6271 37.2346 90.4089 37.2086 90.2363 37.0976C90.2168 37.1107 90.1972 37.1172 90.1777 37.1303C90.3079 37.2314 90.4545 37.3064 90.6206 37.3456C90.6369 37.3488 90.6336 37.3749 90.6173 37.3749C90.4056 37.3847 90.2037 37.3325 90.0344 37.2151C89.9986 37.2346 89.9595 37.251 89.9236 37.2705C90.0441 37.3586 90.1679 37.4369 90.3079 37.5021C90.321 37.5087 90.3145 37.5315 90.3014 37.5315C90.1158 37.538 89.953 37.4434 89.8064 37.3325C89.7608 37.3553 89.7152 37.3717 89.6696 37.3912C89.7315 37.4532 89.8032 37.5119 89.8715 37.5706C89.8813 37.5804 89.8715 37.5935 89.8585 37.5935C89.7413 37.5641 89.6338 37.5152 89.5426 37.4467C88.4972 37.8773 87.2727 37.8903 86.2207 37.5119C86.1133 37.4663 86.1947 37.4271 86.3217 37.4467Z" fill="#3F4553"/>
<path d="M84.7001 39.8249C84.166 40.1022 83.6352 40.2131 83.0848 39.8804C83.0457 39.8575 83.0001 39.913 83.0359 39.9456C83.5082 40.3664 84.3484 40.4741 84.8206 39.9815C84.8988 39.8967 84.8011 39.7727 84.7001 39.8249Z" fill="#3F4553"/>
<path d="M85.921 41.7492C85.2533 41.9482 84.5955 42.0232 83.9441 41.9939C83.2928 42.0232 82.6349 41.9482 81.9673 41.7492C81.951 41.7427 81.938 41.7721 81.9543 41.7786C82.5958 42.0526 83.27 42.1994 83.9441 42.2157C84.6183 42.1994 85.2924 42.0526 85.934 41.7786C85.9503 41.7721 85.9372 41.746 85.921 41.7492Z" fill="#3F4553"/>
<path d="M80.883 39.0452C80.8277 39.0191 80.7691 38.9963 80.7104 38.9799C79.9647 38.7875 79.0821 38.4221 78.3037 38.5559C77.7533 38.6505 77.6263 39.3192 77.939 39.7139C78.2744 40.138 78.9323 40.2587 79.4403 40.2978C79.9516 40.337 80.7528 40.3924 81.1338 39.9912C81.479 39.6291 81.2445 39.2213 80.883 39.0452Z" fill="#FBAD8B"/>
<path d="M86.9794 39.0452C87.0348 39.0191 87.0934 38.9963 87.1521 38.9799C87.8978 38.7875 88.7804 38.4221 89.5588 38.5559C90.1092 38.6505 90.2362 39.3192 89.9235 39.7139C89.5881 40.138 88.9302 40.2587 88.4222 40.2978C87.9109 40.337 87.1097 40.3924 86.7287 39.9912C86.3835 39.6291 86.6212 39.2213 86.9794 39.0452Z" fill="#FBAD8B"/>
<path d="M74.0933 34.1616C73.3214 34.0474 72.4942 34.3671 72.6343 35.2837C72.745 36.0145 73.5299 36.7419 74.7284 36.5234C74.4027 35.7665 74.178 34.9706 74.0933 34.1616Z" fill="#F9CDB9"/>
<path d="M73.3476 34.8795C73.5593 34.7033 73.8882 34.625 74.1716 34.6707C74.1553 34.5826 74.1455 34.4913 74.1325 34.4032C73.745 34.3673 73.289 34.5271 73.0676 34.8077C72.7223 35.2481 72.9829 35.7374 73.3639 36.0375C73.4193 36.0832 73.4974 36.0114 73.4453 35.956C73.1685 35.6624 72.9764 35.1894 73.3476 34.8795Z" fill="#F8C4AB"/>
<path d="M74.325 35.3686C74.1231 35.1859 73.8593 35.0848 73.5564 35.0978C73.488 35.1011 73.462 35.2152 73.5401 35.225C73.8169 35.2642 74.0547 35.4077 74.2012 35.6295C74.0319 35.7209 73.9081 35.9199 74.0807 36.083C74.2175 36.2135 74.4194 36.2428 74.6116 36.2232C74.5041 35.9427 74.4032 35.6589 74.325 35.3686Z" fill="#F8C4AB"/>
<path d="M74.0251 36.3114C74.0218 36.3081 74.0153 36.3114 74.0186 36.3147C74.1423 36.6213 74.3182 37.339 73.8948 37.4858C73.6115 37.5836 73.5854 37.2183 73.6278 37.0258C73.6669 36.8497 73.7646 36.667 73.846 36.5104C73.846 36.5104 73.6506 36.468 73.4714 36.3767C73.2272 36.5854 73.1393 36.8953 73.1816 37.2215C73.2207 37.5184 73.4096 37.8446 73.745 37.8544C74.0446 37.8642 74.2596 37.6065 74.3052 37.3325C74.3573 36.9769 74.214 36.6017 74.0251 36.3114Z" fill="#FDCA27"/>
<path d="M136.345 92.4917C134.515 90.3093 130.555 90.1332 127.956 89.8624C120.143 89.0469 112.132 89.2492 104.315 89.882C100.424 90.1984 96.5514 90.6714 92.6954 91.2945C89.9044 91.7479 86.7877 92.0644 84 92.9582C81.2122 92.0644 78.0955 91.7447 75.3045 91.2945C71.4518 90.6682 67.5763 90.1952 63.6845 89.882C55.8683 89.2492 47.8535 89.0469 40.0439 89.8624C37.4483 90.1332 33.4848 90.3093 31.6546 92.4917C29.8862 94.599 32.0682 97.1533 33.7486 98.494C36.0707 100.347 39.018 101.26 41.8318 102.06C45.3654 103.058 48.9804 103.736 52.6149 104.252C68.8822 106.548 77.7145 104.855 86.2178 104.751C86.5435 105.165 86.8496 105.596 87.1297 106.043C95.7502 106.098 106.823 105.41 115.382 104.252C119.02 103.759 122.631 103.061 126.165 102.06C128.982 101.264 131.926 100.35 134.248 98.494C135.928 97.1533 138.111 94.599 136.345 92.4917Z" fill="#93BFA8"/>
<path d="M124.803 94.0021C125.074 93.6563 126.712 93.229 127.357 92.9419C124.318 93.1866 121.267 93.5519 118.235 93.8651C112.467 94.4588 106.693 95.9887 101.228 97.9036C98.6128 98.8202 96.0042 99.7826 93.4053 100.748C91.3471 101.511 89.3116 102.347 87.3804 103.387C87.6767 103.296 87.9731 103.205 88.2695 103.116C91.3503 102.21 103.905 95.4081 127.152 94.5697C126.614 94.4523 124.699 94.1358 124.803 94.0021Z" fill="#66A986"/>
<path d="M43.5381 93.5226C43.2678 93.1768 41.6297 92.7495 40.9849 92.4624C44.0234 92.7071 47.0749 93.0724 50.107 93.3856C55.8746 93.9793 61.6488 95.5092 67.1136 97.4241C69.7287 98.3407 72.3374 99.3031 74.9363 100.269C76.9945 101.032 79.03 101.867 80.9612 102.908C80.6648 102.816 80.3685 102.725 80.0721 102.637C76.9912 101.73 64.4366 94.9286 41.19 94.0902C41.7241 93.9728 43.6391 93.6563 43.5381 93.5226Z" fill="#66A986"/>
<path d="M91.8586 100.735C90.5494 100.21 89.1653 100.197 87.8919 100.742C85.7164 101.678 83.0492 100.243 80.789 100.5C78.708 100.738 77.4411 103.11 79.0336 104.624C79.4179 104.989 83.2804 106.392 89.3998 103.534C90.0707 103.221 90.7253 103.041 91.4841 103.051C91.66 103.055 91.8261 103.221 92.0117 103.201C92.409 103.152 92.7347 103.081 92.9561 102.696C93.4772 101.789 92.6077 101.035 91.8586 100.735Z" fill="#FDB597"/>
<path d="M76.5842 105.547C77.6882 104.669 79.0137 104.258 80.3848 104.418C82.7361 104.692 84.8823 102.552 87.1229 102.151C89.1845 101.782 91.0766 103.691 89.9824 105.602C89.7186 106.062 86.4162 108.512 79.7367 107.527C79.0039 107.419 78.3265 107.436 77.6035 107.661C77.4374 107.713 77.3235 107.922 77.1378 107.954C76.7438 108.023 76.4116 108.046 76.0891 107.742C75.3336 107.021 75.9524 106.049 76.5842 105.547Z" fill="#FDBCA0"/>
<path d="M120.967 51.9565C120.214 52.3447 119.423 52.7818 118.684 53.1896C119.074 52.8699 121.243 50.6581 122.087 50.1134C122.178 50.0546 121.963 49.1576 119.745 50.9322C119.084 51.4606 118.303 51.9956 117.681 52.573C118.472 51.0692 119.133 49.5458 120.169 48.1691C120.211 48.1137 120.198 48.0517 120.162 48.0093C119.95 47.8429 119.42 48.0321 119.182 48.2866C118.758 48.7368 117.15 50.4787 116.368 52.3153C116.381 51.6857 116.326 50.6647 115.88 50.4559C115.599 50.3221 115.134 50.4983 114.834 50.5211C114.245 50.5635 113.473 50.6484 112.922 50.4135C112.841 50.3809 112.636 50.3548 112.711 50.6255C112.962 51.5128 114.199 51.6237 114.968 51.8195C115.228 52.4523 114.495 53.4897 114.033 53.8028C113.281 54.315 112.183 53.8126 112.372 52.8079C112.538 51.9238 113.066 51.5226 112.6 50.6549C112.447 50.3678 111.789 50.1068 111.936 50.5701C112.313 51.7542 111.229 52.7492 111.089 53.8942C110.978 54.801 111.457 55.6068 111.939 56.3342C111.91 56.4093 111.887 56.4843 111.861 56.5561C111.206 57.6913 110.698 58.8885 110.33 60.1411C111.17 60.4184 113.639 60.2423 113.629 60.2227C113.639 60.2423 113.926 58.4872 114.583 57.7467C115.303 56.9345 116.208 56.3081 117.075 55.6688C118.895 54.3215 120.745 53.0134 122.621 51.7412C122.728 51.6727 122.64 51.092 120.967 51.9565Z" fill="#FDBCA0"/>
<path d="M47.2314 51.9565C47.9837 52.3447 48.775 52.7818 49.5143 53.1896C49.1235 52.8699 46.9545 50.6581 46.111 50.1134C46.0199 50.0546 46.2348 49.1576 48.4526 50.9322C49.1137 51.4606 49.8954 51.9956 50.5174 52.573C49.726 51.0692 49.0649 49.5458 48.0293 48.1691C47.9869 48.1137 47.9999 48.0517 48.0358 48.0093C48.2475 47.8429 48.7783 48.0321 49.016 48.2866C49.4394 48.7368 51.0482 50.4787 51.8299 52.3153C51.8168 51.6857 51.8722 50.6647 52.3184 50.4559C52.5984 50.3221 53.0642 50.4983 53.3638 50.5211C53.9532 50.5635 54.7251 50.6484 55.2755 50.4135C55.3569 50.3809 55.5621 50.3548 55.4872 50.6255C55.2364 51.5128 53.9988 51.6237 53.2302 51.8195C52.9697 52.4523 53.7025 53.4897 54.1649 53.8028C54.9172 54.315 56.0148 53.8126 55.8259 52.8079C55.6598 51.9238 55.1322 51.5226 55.5979 50.6549C55.751 50.3678 56.4088 50.1068 56.2623 50.5701C55.8845 51.7542 56.969 52.7492 57.109 53.8942C57.2197 54.801 56.741 55.6068 56.259 56.3342C56.2883 56.4093 56.3111 56.4843 56.3372 56.5561C56.9918 57.6913 57.4998 58.8885 57.8678 60.1411C57.0276 60.4184 54.559 60.2423 54.5688 60.2227C54.559 60.2423 54.2724 58.4872 53.6145 57.7467C52.8948 56.9345 51.9894 56.3081 51.1231 55.6688C49.3026 54.3215 47.4528 53.0134 45.5769 51.7412C45.4695 51.6727 45.5574 51.092 47.2314 51.9565Z" fill="#FDBCA0"/>
<path d="M109.451 58.9864C108.23 62.1409 104.088 73.7867 102.358 78.7255C101.329 76.0832 98.5479 64.6103 96.2063 51.291C95.4768 47.1514 90.8164 47.7418 88.3217 48.1561C88.1426 50.9355 85.4493 58.6406 84.0033 58.6569C82.5573 58.6406 79.6914 51.4802 79.6849 48.1561C77.1935 47.7418 72.5299 47.1514 71.8004 51.291C69.4555 64.6103 66.6775 76.0865 65.6484 78.7255C63.9158 73.7867 59.7765 62.1409 58.5552 58.9864C56.9888 59.7269 55.2562 60.1347 53.5269 60.2358C54.8654 63.8013 59.2848 89.0502 65.7982 89.0502C68.6218 89.0502 70.4097 86.0457 73.2887 74.9154C73.432 76.7748 73.4808 80.3468 73.4092 84.1015C73.3571 86.8058 71.491 89.9309 68.9931 89.3275C68.4883 89.2068 67.8304 89.5884 68.4557 90.2669C68.625 90.4529 68.8432 90.5899 69.068 90.6943C73.0575 92.5863 73.2138 95.4146 75.5684 97.062C76.9916 98.0569 78.7437 98.3701 80.4144 98.7093C82.2251 99.0747 84.0912 99.3487 85.9346 99.0714C88.9991 98.6115 91.3798 96.5596 93.9168 94.9546C95.3335 94.0575 96.7729 93.3399 98.4371 93.0952C102.72 92.4656 102.436 89.4384 101.541 89.5003C98.5413 89.7059 94.5909 85.8761 94.5681 81.6615C94.5519 78.856 94.6072 76.367 94.7179 74.9154C97.5969 86.0457 99.3848 89.0502 102.208 89.0502C108.722 89.0502 113.141 63.8013 114.48 60.2358C112.75 60.1347 111.018 59.7236 109.451 58.9864Z" fill="#F2EDE4"/>
<path d="M92.2203 70.0123C92.1878 70.0351 92.1617 70.058 92.1357 70.0808C91.6048 70.5995 91.1912 71.2226 90.6701 71.751C90.1491 72.2762 89.4749 72.7166 88.7356 72.7133C86.9607 72.7036 86.0716 70.5701 85.0034 69.4838C83.362 67.8202 81.7695 71.6108 80.5482 72.3545C79.2944 73.1179 78.4444 72.6579 77.5195 71.7543C76.9528 71.1997 76.4708 70.5767 75.9465 69.9829C75.8097 69.8264 75.497 69.9927 75.5817 70.195C76.194 71.6695 77.5781 74.1161 79.4051 74.1552C80.5254 74.178 81.4438 73.5354 82.1798 72.746C82.5413 72.3578 83.5379 70.2733 84.186 70.5473C84.3065 70.5995 84.3912 70.7071 84.4726 70.8115C84.795 71.2356 85.0946 71.6825 85.4398 72.087C85.619 72.2958 86.1368 72.6416 86.1368 72.9286C86.8695 73.6757 87.8759 74.2629 88.9148 74.1356C89.9765 74.0051 90.8167 73.1733 91.4322 72.2958C91.8686 71.6727 92.2366 71.0007 92.5265 70.2961C92.5688 70.195 92.6046 70.0678 92.5297 69.9862C92.4483 69.9014 92.3246 69.9405 92.2203 70.0123Z" fill="#D9C9AC"/>
<g clip-path="url(#clip2_1_3270)">
<path d="M151.99 86.9552L163.136 83.2196L157.548 66.8198L146.403 70.5555C145.966 70.7012 145.73 71.1707 145.881 71.6038L150.933 86.4331C151.08 86.8662 151.553 87.101 151.99 86.9552Z" fill="#3F4553"/>
<path d="M151.998 86.6316L163.421 82.8028L158.038 67.0061L146.615 70.8349C146.334 70.928 146.183 71.2315 146.276 71.5148L151.312 86.2956C151.41 86.5749 151.717 86.7247 151.998 86.6316Z" fill="#DDDDE3"/>
<path d="M152.239 86.5505L163.662 82.7217L158.279 66.925L146.856 70.7538C146.574 70.8469 146.423 71.1505 146.517 71.4338L151.553 86.2146C151.651 86.4939 151.957 86.6477 152.239 86.5505Z" fill="#E2E5FF"/>
<path d="M152.855 86.6639L164.001 82.9282L158.414 66.5325L147.268 70.2681C146.832 70.4139 146.595 70.8833 146.746 71.3164L151.798 86.1458C151.945 86.5789 152.419 86.8096 152.855 86.6639Z" fill="#4E5567"/>
<path d="M157.789 66.7419L157.549 66.8223L163.136 83.2221L163.376 83.1418L157.789 66.7419Z" fill="#3F4553"/>
<path d="M159.381 79.5526L159.63 79.0264L160.152 79.2935L156.071 67.3175C155.998 67.107 155.814 67.1232 155.602 67.1961C155.39 67.2689 155.23 67.3661 155.304 67.5765L159.381 79.5526Z" fill="#93BFA8"/>
<path d="M134.339 71.0901L141.84 62.2698L140.324 61.0017L132.822 69.822L134.339 71.0901Z" fill="#3F4553"/>
<path d="M132.821 69.8191L134.335 71.0859L132.147 72.2799C132.074 72.3203 131.976 72.2353 132 72.1584L132.821 69.8191Z" fill="#F2EDE4"/>
<path d="M132.152 72.2837L132.744 71.9599L132.229 71.5269L132.009 72.1582C131.98 72.2351 132.078 72.3201 132.152 72.2837Z" fill="#3F4553"/>
<path d="M133.836 70.67L141.337 61.8496L140.823 61.4191L133.321 70.2394L133.836 70.67Z" fill="#4E5567"/>
</g>
<g clip-path="url(#clip3_1_3270)">
<path d="M51.5028 -14C41.8335 -14 34 -6.16648 34 3.50276C34 13.1665 41.8335 21.0055 51.5028 21.0055C61.1665 21.0055 69.0055 13.172 69.0055 3.50276C69 -6.16648 61.1665 -14 51.5028 -14ZM51.5028 18.0452C43.4708 18.0452 36.9603 11.5347 36.9603 3.50276C36.9603 -4.52922 43.4708 -11.0397 51.5028 -11.0397C59.5347 -11.0397 66.0452 -4.52922 66.0452 3.50276C66.0452 11.5347 59.5347 18.0452 51.5028 18.0452Z" fill="#808AFF"/>
<path d="M64.9208 9.10951C68.0194 1.69958 64.5243 -6.81925 57.1144 -9.91783C49.7045 -13.0164 41.1856 -9.52137 38.087 -2.11144C34.9885 5.29849 38.4835 13.8173 45.8934 16.9159C53.3034 20.0145 61.8222 16.5194 64.9208 9.10951Z" fill="#AEB4FC"/>
<path d="M64.738 3.52941C64.738 2.50956 63.1504 2.50405 63.1504 3.52941C63.1504 4.55477 64.738 4.55477 64.738 3.52941Z" fill="#808AFF"/>
<path d="M51.4686 16.7383C52.4885 16.7383 52.494 15.1506 51.4686 15.1506C50.4488 15.1506 50.4433 16.7383 51.4686 16.7383Z" fill="#808AFF"/>
<path d="M38.2617 3.46959C38.2617 4.48943 39.8494 4.49495 39.8494 3.46959C39.8494 2.44974 38.2617 2.44423 38.2617 3.46959Z" fill="#808AFF"/>
<path d="M57.7544 7.75278C57.6607 7.75278 57.5669 7.73073 57.4843 7.6756L51.2274 3.95454C51.0675 3.86083 50.9683 3.68442 50.9683 3.49699V-6.50301C50.9683 -6.79518 51.2053 -7.03223 51.4975 -7.03223C51.7897 -7.03223 52.0267 -6.79518 52.0267 -6.50301V3.19931L58.0245 6.76601C58.2781 6.91485 58.3608 7.2401 58.2064 7.49368C58.1127 7.65906 57.9363 7.75278 57.7544 7.75278Z" fill="#808AFF"/>
</g>
<path d="M16.6207 39.4064L16.2715 37.4254L14.2463 37.7705C13.925 36.8456 13.4013 36.0311 12.7239 35.3685L13.9111 33.705L12.249 32.5522L11.0688 34.2088C10.2168 33.7947 9.26706 33.5669 8.27541 33.5738L7.91925 31.5652L5.915 31.9103L6.26417 33.912C5.32839 34.2296 4.50434 34.7472 3.83392 35.4168L2.15091 34.2434L0.984669 35.8862L2.6607 37.0527C2.24169 37.8948 2.01124 38.8335 2.01822 39.8137L0 40.1588L0.349173 42.1398L2.37438 41.7947C2.69562 42.7196 3.21938 43.5341 3.89677 44.1968L2.70959 45.8603L4.37165 47.013L5.55186 45.3564C6.40384 45.7706 7.35359 45.9983 8.34524 45.9914L8.7014 48.0001L10.7057 47.6549L10.3565 45.6532C11.2923 45.3357 12.1163 44.818 12.7867 44.1485L14.4697 45.3219L15.636 43.6791L13.96 42.5126C14.379 41.6705 14.6094 40.7317 14.6024 39.7516L16.6207 39.4064ZM8.63157 41.6221C7.605 41.8016 6.62731 41.1183 6.44574 40.1036C6.26417 39.0889 6.95553 38.1226 7.9821 37.9431C9.00867 37.7636 9.98636 38.447 10.1679 39.4617C10.3495 40.4763 9.66512 41.4427 8.63157 41.6221Z" fill="#9BA3FF"/>
<path d="M35.7278 35.4099V32.918H33.1788C32.9903 31.717 32.5224 30.6126 31.838 29.6601L33.6467 27.8723L31.8659 26.1122L30.0642 27.893C29.1074 27.2097 27.9971 26.7334 26.782 26.5332V24H24.2609V26.5194C23.0458 26.7058 21.9215 27.1683 20.9647 27.8447L19.156 26.0569L17.3752 27.8171L19.177 29.5979C18.4856 30.5436 18.0037 31.6411 17.8012 32.8421H15.2383V35.3339H17.7872C17.9758 36.535 18.4437 37.6394 19.1281 38.5919L17.3194 40.3797L19.1001 42.1398L20.9019 40.3589C21.8586 41.0423 22.969 41.5186 24.1841 41.7187V44.252H26.7051V41.7325C27.9203 41.5462 29.0376 41.0837 30.0013 40.4073L31.81 42.195L33.5908 40.4349L31.7891 38.654C32.4805 37.7084 32.9623 36.6109 33.1648 35.4099H35.7278ZM25.483 36.4452C24.1911 36.4452 23.1366 35.4099 23.1366 34.126C23.1366 32.849 24.1841 31.8067 25.483 31.8067C26.775 31.8067 27.8295 32.8421 27.8295 34.126C27.8225 35.4029 26.775 36.4452 25.483 36.4452Z" fill="#AEB4FC"/>
<g opacity="0.3">
<path d="M153.995 16.8971L135.266 12.6877C135.082 12.6477 134.966 12.4642 135.009 12.2808L137.367 1.78054C137.407 1.59708 137.591 1.48034 137.774 1.5237L156.503 5.73647C156.687 5.7765 156.803 5.95995 156.76 6.14341L154.398 16.6436C154.358 16.8238 154.178 16.9405 153.995 16.8971Z" fill="#ECECEC"/>
<path d="M135.319 12.4408C135.269 12.4308 135.239 12.3807 135.253 12.334L137.614 1.8338C137.624 1.78376 137.674 1.75374 137.721 1.76709L156.45 5.97985C156.5 5.98986 156.53 6.03989 156.517 6.08659L154.155 16.5868C154.145 16.6369 154.095 16.6669 154.048 16.6535L135.319 12.4408Z" fill="#F5F4F5"/>
<path d="M153.867 5.14055L140.414 2.11523L140.359 2.35929L153.812 5.38461L153.867 5.14055Z" fill="#706F6E"/>
<path d="M139.105 3.62501L138.485 3.48491C138.408 3.46824 138.358 3.39152 138.375 3.31147L138.472 2.87451C138.488 2.7978 138.565 2.74776 138.645 2.76444L139.265 2.90453C139.342 2.92121 139.392 2.99793 139.375 3.07798L139.279 3.51493C139.259 3.59165 139.182 3.64168 139.105 3.62501Z" fill="#585857"/>
<path d="M138.511 3.36148C138.501 3.35814 138.495 3.34813 138.498 3.33813L138.595 2.90117C138.598 2.89117 138.608 2.8845 138.618 2.88783L139.238 3.02792C139.248 3.03126 139.255 3.04127 139.252 3.05127L139.155 3.48822C139.152 3.49823 139.142 3.5049 139.132 3.50157L138.511 3.36148Z" fill="#5E5E5D"/>
<path d="M140.242 3.87867L139.622 3.73858C139.545 3.7219 139.495 3.64518 139.512 3.56513L139.609 3.12818C139.625 3.05146 139.702 3.00142 139.782 3.0181L140.403 3.1582C140.479 3.17487 140.529 3.25159 140.513 3.33164L140.416 3.7686C140.396 3.84865 140.319 3.89535 140.242 3.87867Z" fill="#585857"/>
<path d="M139.648 3.61831C139.638 3.61498 139.632 3.60497 139.635 3.59496L139.732 3.15801C139.735 3.148 139.745 3.14133 139.755 3.14467L140.376 3.28476C140.386 3.28809 140.392 3.2981 140.389 3.30811L140.292 3.74506C140.289 3.75507 140.279 3.76174 140.269 3.7584L139.648 3.61831Z" fill="#5E5E5D"/>
<path d="M141.38 4.13526L140.759 3.99517C140.683 3.97849 140.633 3.90177 140.649 3.82172L140.746 3.38477C140.763 3.30805 140.839 3.25802 140.919 3.27469L141.54 3.41479C141.617 3.43146 141.667 3.50818 141.65 3.58823L141.553 4.02519C141.533 4.1019 141.456 4.15194 141.38 4.13526Z" fill="#585857"/>
<path d="M140.786 3.87173C140.776 3.86839 140.77 3.85839 140.773 3.84838L140.87 3.41143C140.873 3.40142 140.883 3.39475 140.893 3.39808L141.513 3.53818C141.523 3.54151 141.53 3.55152 141.527 3.56153L141.43 3.99848C141.427 4.00849 141.417 4.01516 141.407 4.01182L140.786 3.87173Z" fill="#5E5E5D"/>
<path d="M142.517 4.38868L141.897 4.24859C141.82 4.23191 141.77 4.15519 141.787 4.07514L141.884 3.63818C141.9 3.56147 141.977 3.51143 142.057 3.52811L142.677 3.6682C142.754 3.68488 142.804 3.7616 142.788 3.84165L142.691 4.27861C142.671 4.35866 142.594 4.40869 142.517 4.38868Z" fill="#585857"/>
<path d="M141.924 4.12857C141.914 4.12523 141.907 4.11522 141.911 4.10522L142.007 3.66826C142.011 3.65826 142.021 3.65158 142.031 3.65492L142.651 3.79501C142.661 3.79835 142.668 3.80836 142.664 3.81836L142.568 4.25532C142.564 4.26532 142.554 4.27199 142.544 4.26866L141.924 4.12857Z" fill="#5E5E5D"/>
<path d="M143.651 4.64551L143.031 4.50542C142.954 4.48874 142.904 4.41203 142.921 4.33197L143.017 3.89502C143.034 3.8183 143.111 3.76827 143.191 3.78495L143.811 3.92504C143.888 3.94172 143.938 4.01843 143.921 4.09849L143.825 4.53544C143.808 4.61549 143.731 4.66219 143.651 4.64551Z" fill="#585857"/>
<path d="M143.061 4.3854C143.051 4.38207 143.044 4.37206 143.048 4.36205L143.144 3.9251C143.148 3.91509 143.158 3.90842 143.168 3.91176L143.788 4.05185C143.798 4.05518 143.805 4.06519 143.802 4.0752L143.705 4.51215C143.702 4.52216 143.691 4.52883 143.681 4.52549L143.061 4.3854Z" fill="#5E5E5D"/>
<path d="M144.789 4.90235L144.168 4.76226C144.092 4.74558 144.042 4.66886 144.058 4.58881L144.155 4.15186C144.172 4.07514 144.249 4.02511 144.329 4.04178L144.949 4.18188C145.026 4.19855 145.076 4.27527 145.059 4.35532L144.962 4.79228C144.946 4.86899 144.869 4.91903 144.789 4.90235Z" fill="#585857"/>
<path d="M144.198 4.63882C144.188 4.63548 144.182 4.62548 144.185 4.61547L144.282 4.17852C144.285 4.16851 144.295 4.16184 144.305 4.16517L144.925 4.30527C144.935 4.3086 144.942 4.31861 144.939 4.32861L144.842 4.76557C144.839 4.77558 144.829 4.78225 144.819 4.77891L144.198 4.63882Z" fill="#5E5E5D"/>
<path d="M145.927 5.15601L145.306 5.01592C145.229 4.99924 145.179 4.92252 145.196 4.84247L145.293 4.40552C145.309 4.3288 145.386 4.27877 145.466 4.29545L146.087 4.43554C146.163 4.45222 146.213 4.52893 146.197 4.60899L146.1 5.04594C146.083 5.12599 146.003 5.17602 145.927 5.15601Z" fill="#585857"/>
<path d="M145.336 4.8959C145.326 4.89256 145.319 4.88256 145.323 4.87255L145.419 4.4356C145.423 4.42559 145.433 4.41892 145.443 4.42225L146.063 4.56235C146.073 4.56568 146.08 4.57569 146.076 4.58569L145.98 5.02265C145.976 5.03266 145.966 5.03933 145.956 5.03599L145.336 4.8959Z" fill="#5E5E5D"/>
<path d="M147.064 5.41285L146.443 5.27276C146.367 5.25608 146.317 5.17936 146.333 5.09931L146.43 4.66235C146.447 4.58564 146.523 4.5356 146.603 4.55228L147.224 4.69237C147.301 4.70905 147.351 4.78577 147.334 4.86582L147.237 5.30278C147.217 5.38283 147.14 5.42952 147.064 5.41285Z" fill="#585857"/>
<path d="M146.473 5.15249C146.463 5.14916 146.457 5.13915 146.46 5.12914L146.557 4.69219C146.56 4.68218 146.57 4.67551 146.58 4.67885L147.2 4.81894C147.21 4.82227 147.217 4.83228 147.214 4.84229L147.117 5.27924C147.114 5.28925 147.104 5.29592 147.094 5.29258L146.473 5.15249Z" fill="#5E5E5D"/>
<path d="M148.201 5.66968L147.581 5.52959C147.504 5.51291 147.454 5.4362 147.471 5.35614L147.568 4.91919C147.584 4.84247 147.661 4.79244 147.741 4.80912L148.362 4.94921C148.438 4.96589 148.488 5.0426 148.472 5.12266L148.375 5.55961C148.355 5.63633 148.278 5.68636 148.201 5.66968Z" fill="#585857"/>
<path d="M147.607 5.40615C147.597 5.40282 147.591 5.39281 147.594 5.3828L147.691 4.94585C147.694 4.93584 147.704 4.92917 147.714 4.93251L148.335 5.0726C148.345 5.07594 148.351 5.08594 148.348 5.09595L148.251 5.5329C148.248 5.54291 148.238 5.54958 148.228 5.54624L147.607 5.40615Z" fill="#5E5E5D"/>
<path d="M149.339 5.9231L148.718 5.78301C148.642 5.76633 148.592 5.68961 148.608 5.60956L148.705 5.17261C148.722 5.09589 148.798 5.04586 148.878 5.06254L149.499 5.20263C149.575 5.21931 149.626 5.29602 149.609 5.37608L149.512 5.81303C149.492 5.89308 149.415 5.94312 149.339 5.9231Z" fill="#585857"/>
<path d="M148.745 5.66299C148.735 5.65965 148.728 5.64965 148.731 5.63964L148.828 5.20269C148.831 5.19268 148.841 5.18601 148.851 5.18934L149.472 5.32944C149.482 5.33277 149.489 5.34278 149.485 5.35278L149.388 5.78974C149.385 5.79975 149.375 5.80642 149.365 5.80308L148.745 5.66299Z" fill="#5E5E5D"/>
<path d="M150.476 6.17994L149.855 6.03985C149.779 6.02317 149.729 5.94645 149.745 5.8664L149.842 5.42944C149.859 5.35273 149.936 5.30269 150.016 5.31937L150.636 5.45946C150.713 5.47614 150.763 5.55286 150.746 5.63291L150.649 6.06987C150.629 6.14992 150.553 6.19661 150.476 6.17994Z" fill="#585857"/>
<path d="M149.882 5.91982C149.872 5.91649 149.865 5.90648 149.869 5.89648L149.965 5.45952C149.969 5.44951 149.979 5.44284 149.989 5.44618L150.609 5.58627C150.619 5.58961 150.626 5.59961 150.622 5.60962L150.526 6.04657C150.522 6.05658 150.512 6.06325 150.502 6.05992L149.882 5.91982Z" fill="#5E5E5D"/>
<path d="M151.613 6.43677L150.993 6.29668C150.916 6.28 150.866 6.20329 150.883 6.12323L150.979 5.68628C150.996 5.60956 151.073 5.55953 151.153 5.57621L151.773 5.7163C151.85 5.73298 151.9 5.80969 151.883 5.88975L151.787 6.3267C151.767 6.40342 151.69 6.45345 151.613 6.43677Z" fill="#585857"/>
<path d="M151.02 6.17324C151.01 6.16991 151.003 6.1599 151.006 6.14989L151.103 5.71294C151.106 5.70293 151.116 5.69626 151.126 5.6996L151.747 5.83969C151.757 5.84303 151.763 5.85303 151.76 5.86304L151.663 6.29999C151.66 6.31 151.65 6.31667 151.64 6.31333L151.02 6.17324Z" fill="#5E5E5D"/>
<path d="M152.751 6.69019L152.13 6.5501C152.054 6.53342 152.004 6.4567 152.02 6.37665L152.117 5.9397C152.134 5.86298 152.21 5.81295 152.29 5.82963L152.911 5.96972C152.988 5.9864 153.038 6.06311 153.021 6.14317L152.924 6.58012C152.904 6.66017 152.827 6.71021 152.751 6.69019Z" fill="#585857"/>
<path d="M152.157 6.43008C152.147 6.42674 152.14 6.41674 152.143 6.40673L152.24 5.96978C152.244 5.95977 152.254 5.9531 152.264 5.95643L152.884 6.09653C152.894 6.09986 152.901 6.10987 152.897 6.11988L152.801 6.55683C152.797 6.56683 152.787 6.57351 152.777 6.57017L152.157 6.43008Z" fill="#5E5E5D"/>
<path d="M153.888 6.94703L153.268 6.80694C153.191 6.79026 153.141 6.71354 153.158 6.63349L153.254 6.19653C153.271 6.11982 153.348 6.06978 153.428 6.08646L154.048 6.22655C154.125 6.24323 154.175 6.31995 154.158 6.4L154.061 6.83696C154.041 6.91701 153.965 6.96371 153.888 6.94703Z" fill="#585857"/>
<path d="M153.294 6.68716C153.284 6.68382 153.278 6.67382 153.281 6.66381L153.378 6.22686C153.381 6.21685 153.391 6.21018 153.401 6.21351L154.022 6.35361C154.032 6.35694 154.038 6.36695 154.035 6.37695L153.938 6.81391C153.935 6.82391 153.925 6.83059 153.915 6.82725L153.294 6.68716Z" fill="#5E5E5D"/>
<path d="M155.022 7.20386L154.402 7.06377C154.325 7.04709 154.275 6.97038 154.292 6.89032L154.389 6.45337C154.405 6.37665 154.482 6.32662 154.562 6.3433L155.182 6.48339C155.259 6.50007 155.309 6.57678 155.292 6.65684L155.196 7.09379C155.179 7.17051 155.102 7.22054 155.022 7.20386Z" fill="#585857"/>
<path d="M154.432 6.94058C154.422 6.93724 154.415 6.92724 154.418 6.91723L154.515 6.48027C154.518 6.47027 154.528 6.4636 154.538 6.46693L155.159 6.60702C155.169 6.61036 155.176 6.62037 155.172 6.63037L155.075 7.06733C155.072 7.07733 155.062 7.084 155.052 7.08067L154.432 6.94058Z" fill="#5E5E5D"/>
<path d="M138.471 3.63513L139.238 3.80858C139.325 3.82859 139.382 3.91531 139.362 4.00537L139.192 4.7592C139.171 4.84592 139.085 4.90263 138.995 4.88262L138.228 4.70917C138.141 4.68915 138.084 4.60243 138.104 4.51237L138.274 3.75854C138.294 3.67182 138.381 3.61512 138.471 3.63513Z" fill="#585857"/>
<path d="M138.258 4.58545C138.238 4.58211 138.225 4.55877 138.228 4.53875L138.398 3.78493C138.401 3.76491 138.425 3.75157 138.445 3.75491L139.212 3.92835C139.232 3.93169 139.245 3.95504 139.242 3.97505L139.072 4.72888C139.069 4.74889 139.045 4.76223 139.025 4.7589L138.258 4.58545Z" fill="#5E5E5D"/>
<path d="M139.782 3.93168L140.549 4.10513C140.636 4.12514 140.693 4.21187 140.673 4.30193L140.503 5.05575C140.483 5.14248 140.396 5.19918 140.306 5.17917L139.539 5.00572C139.452 4.98571 139.395 4.89898 139.415 4.80893L139.585 4.0551C139.605 3.96504 139.692 3.91167 139.782 3.93168Z" fill="#585857"/>
<path d="M139.569 4.88233C139.549 4.87899 139.535 4.85564 139.539 4.83563L139.709 4.0818C139.712 4.06179 139.735 4.04844 139.755 4.05178L140.523 4.22523C140.543 4.22856 140.556 4.25191 140.553 4.27192L140.382 5.02575C140.379 5.04577 140.356 5.05911 140.336 5.05577L139.569 4.88233Z" fill="#5E5E5D"/>
<path d="M141.093 4.22546L141.86 4.39891C141.947 4.41892 142.004 4.50564 141.984 4.5957L141.814 5.34953C141.794 5.43626 141.707 5.49296 141.617 5.47295L140.85 5.2995C140.763 5.27949 140.706 5.19276 140.726 5.1027L140.896 4.34888C140.916 4.26215 141.006 4.20545 141.093 4.22546Z" fill="#585857"/>
<path d="M140.88 5.17578C140.86 5.17245 140.846 5.1491 140.85 5.12909L141.02 4.37526C141.023 4.35524 141.046 4.3419 141.066 4.34524L141.834 4.51868C141.854 4.52202 141.867 4.54537 141.864 4.56538L141.694 5.31921C141.69 5.33922 141.667 5.35257 141.647 5.34923L140.88 5.17578Z" fill="#5E5E5D"/>
<path d="M142.404 4.51892L143.171 4.69237C143.258 4.71238 143.315 4.7991 143.295 4.88916L143.125 5.64299C143.105 5.72971 143.018 5.78642 142.928 5.76641L142.161 5.59296C142.074 5.57294 142.017 5.48622 142.037 5.39616L142.207 4.64233C142.227 4.55561 142.317 4.49891 142.404 4.51892Z" fill="#585857"/>
<path d="M142.191 5.47266C142.171 5.46932 142.157 5.44597 142.161 5.42596L142.331 4.67213C142.334 4.65212 142.357 4.63878 142.377 4.64211L143.145 4.81556C143.165 4.81889 143.178 4.84224 143.175 4.86226L143.005 5.61608C143.001 5.6361 142.978 5.64944 142.958 5.6461L142.191 5.47266Z" fill="#5E5E5D"/>
<path d="M143.715 4.81596L144.482 4.98941C144.569 5.00942 144.625 5.09614 144.605 5.1862L144.435 5.94003C144.415 6.02676 144.328 6.08346 144.238 6.06345L143.471 5.89C143.384 5.86999 143.328 5.78326 143.348 5.6932L143.518 4.93937C143.541 4.84932 143.628 4.79595 143.715 4.81596Z" fill="#585857"/>
<path d="M143.501 5.76636C143.481 5.76302 143.468 5.73968 143.471 5.71966L143.641 4.96583C143.645 4.94582 143.668 4.93248 143.688 4.93581L144.455 5.10926C144.475 5.1126 144.489 5.13594 144.485 5.15596L144.315 5.90979C144.312 5.9298 144.288 5.94314 144.268 5.93981L143.501 5.76636Z" fill="#5E5E5D"/>
<path d="M145.026 5.10949L145.793 5.28294C145.88 5.30296 145.936 5.38968 145.916 5.47974L145.746 6.23357C145.726 6.32029 145.639 6.37699 145.549 6.35698L144.782 6.18353C144.696 6.16352 144.639 6.0768 144.659 5.98674L144.829 5.23291C144.852 5.14619 144.939 5.08948 145.026 5.10949Z" fill="#585857"/>
<path d="M144.812 6.06006C144.792 6.05673 144.778 6.03338 144.782 6.01336L144.952 5.25953C144.955 5.23952 144.979 5.22618 144.999 5.22951L145.766 5.40296C145.786 5.4063 145.799 5.42965 145.796 5.44966L145.626 6.20349C145.622 6.2235 145.599 6.23684 145.579 6.23351L144.812 6.06006Z" fill="#5E5E5D"/>
<path d="M146.337 5.40605L147.104 5.57949C147.191 5.59951 147.247 5.68623 147.227 5.77629L147.057 6.53012C147.037 6.61684 146.95 6.67355 146.86 6.65353L146.093 6.48009C146.007 6.46007 145.95 6.37335 145.97 6.28329L146.14 5.52946C146.163 5.4394 146.25 5.38603 146.337 5.40605Z" fill="#585857"/>
<path d="M146.123 6.35669C146.103 6.35336 146.089 6.33001 146.093 6.30999L146.263 5.55617C146.266 5.53615 146.29 5.52281 146.31 5.52615L147.077 5.69959C147.097 5.70293 147.11 5.72628 147.107 5.74629L146.937 6.50012C146.933 6.52013 146.91 6.53347 146.89 6.53014L146.123 6.35669Z" fill="#5E5E5D"/>
<path d="M147.651 5.69983L148.418 5.87327C148.505 5.89329 148.561 5.98001 148.541 6.07007L148.371 6.8239C148.351 6.91062 148.264 6.96733 148.174 6.94731L147.407 6.77387C147.321 6.75385 147.264 6.66713 147.284 6.57707L147.454 5.82324C147.474 5.73652 147.561 5.67981 147.651 5.69983Z" fill="#585857"/>
<path d="M147.434 6.65039C147.414 6.64706 147.4 6.62371 147.404 6.60369L147.574 5.84987C147.577 5.82985 147.601 5.81651 147.621 5.81985L148.388 5.99329C148.408 5.99663 148.421 6.01998 148.418 6.03999L148.248 6.79382C148.244 6.81383 148.221 6.82717 148.201 6.82384L147.434 6.65039Z" fill="#5E5E5D"/>
<path d="M148.961 5.99304L149.728 6.16649C149.815 6.1865 149.872 6.27322 149.852 6.36328L149.682 7.11711C149.662 7.20383 149.575 7.26054 149.485 7.24053L148.718 7.06708C148.631 7.04706 148.574 6.96034 148.594 6.87028L148.764 6.11645C148.784 6.02973 148.871 5.97303 148.961 5.99304Z" fill="#585857"/>
<path d="M148.748 6.94702C148.728 6.94369 148.715 6.92034 148.718 6.90033L148.888 6.1465C148.892 6.12648 148.915 6.11314 148.935 6.11648L149.702 6.28993C149.722 6.29326 149.736 6.31661 149.732 6.33662L149.562 7.09045C149.559 7.11046 149.535 7.12381 149.515 7.12047L148.748 6.94702Z" fill="#5E5E5D"/>
<path d="M150.272 6.29008L151.039 6.46353C151.126 6.48354 151.183 6.57026 151.163 6.66032L150.993 7.41415C150.973 7.50088 150.886 7.55758 150.796 7.53757L150.029 7.36412C149.942 7.34411 149.885 7.25738 149.905 7.16732L150.076 6.41349C150.096 6.32344 150.182 6.27007 150.272 6.29008Z" fill="#585857"/>
<path d="M150.059 7.24072C150.039 7.23739 150.025 7.21404 150.029 7.19403L150.199 6.4402C150.202 6.42019 150.226 6.40684 150.246 6.41018L151.013 6.58363C151.033 6.58696 151.046 6.61031 151.043 6.63032L150.873 7.38415C150.869 7.40416 150.846 7.41751 150.826 7.41417L150.059 7.24072Z" fill="#5E5E5D"/>
<path d="M151.583 6.58362L152.351 6.75706C152.437 6.77708 152.494 6.8638 152.474 6.95386L152.304 7.70769C152.284 7.79441 152.197 7.85111 152.107 7.8311L151.343 7.65765C151.257 7.63764 151.2 7.55092 151.22 7.46086L151.39 6.70703C151.407 6.62031 151.493 6.5636 151.583 6.58362Z" fill="#585857"/>
<path d="M151.37 7.53442C151.35 7.53109 151.337 7.50774 151.34 7.48773L151.51 6.7339C151.513 6.71389 151.537 6.70054 151.557 6.70388L152.324 6.87733C152.344 6.88066 152.357 6.90401 152.354 6.92402L152.18 7.67785C152.177 7.69787 152.154 7.71121 152.134 7.70787L151.37 7.53442Z" fill="#5E5E5D"/>
<path d="M152.894 6.88066L153.661 7.0541C153.748 7.07412 153.804 7.16084 153.784 7.2509L153.614 8.00473C153.594 8.09145 153.508 8.14816 153.418 8.12814L152.65 7.9547C152.564 7.93468 152.507 7.84796 152.527 7.7579L152.697 7.00407C152.717 6.91401 152.807 6.86064 152.894 6.88066Z" fill="#585857"/>
<path d="M152.681 7.8313C152.661 7.82796 152.648 7.80462 152.651 7.7846L152.821 7.03077C152.824 7.01076 152.848 6.99742 152.868 7.00075L153.635 7.1742C153.655 7.17754 153.668 7.20089 153.665 7.2209L153.495 7.97473C153.491 7.99474 153.468 8.00808 153.448 8.00475L152.681 7.8313Z" fill="#5E5E5D"/>
<path d="M154.205 7.17395L154.972 7.34739C155.059 7.36741 155.116 7.45413 155.096 7.54419L154.925 8.29802C154.905 8.38474 154.819 8.44145 154.729 8.42143L153.961 8.24799C153.875 8.22797 153.818 8.14125 153.838 8.05119L154.011 7.29736C154.028 7.21064 154.118 7.15393 154.205 7.17395Z" fill="#585857"/>
<path d="M153.991 8.12476C153.971 8.12142 153.958 8.09807 153.961 8.07806L154.132 7.32423C154.135 7.30422 154.158 7.29088 154.178 7.29421L154.945 7.46766C154.965 7.47099 154.979 7.49434 154.975 7.51436L154.805 8.26819C154.802 8.2882 154.779 8.30154 154.759 8.29821L153.991 8.12476Z" fill="#5E5E5D"/>
<path d="M138.194 4.85583L138.961 5.02928C139.048 5.04929 139.105 5.13602 139.085 5.22608L138.915 5.9799C138.895 6.06663 138.808 6.12333 138.718 6.10332L137.951 5.92987C137.864 5.90986 137.807 5.82313 137.827 5.73307L138.001 4.97925C138.021 4.89252 138.107 4.83582 138.194 4.85583Z" fill="#585857"/>
<path d="M137.981 5.8064C137.961 5.80306 137.947 5.77971 137.951 5.7597L138.121 5.00587C138.124 4.98586 138.148 4.97252 138.168 4.97585L138.935 5.1493C138.955 5.15263 138.968 5.17598 138.965 5.196L138.795 5.94983C138.791 5.96984 138.768 5.98318 138.748 5.97985L137.981 5.8064Z" fill="#5E5E5D"/>
<path d="M139.509 5.15263L140.276 5.32608C140.363 5.34609 140.419 5.43281 140.399 5.52287L140.229 6.2767C140.209 6.36342 140.122 6.42013 140.032 6.40011L139.265 6.22667C139.178 6.20666 139.122 6.11993 139.142 6.02987L139.312 5.27604C139.332 5.18598 139.419 5.13262 139.509 5.15263Z" fill="#585857"/>
<path d="M139.292 6.10327C139.272 6.09994 139.258 6.07659 139.262 6.05658L139.432 5.30275C139.435 5.28273 139.459 5.26939 139.479 5.27273L140.246 5.44618C140.266 5.44951 140.279 5.47286 140.276 5.49287L140.106 6.2467C140.102 6.26671 140.079 6.28006 140.059 6.27672L139.292 6.10327Z" fill="#5E5E5D"/>
<path d="M140.82 5.44616L141.587 5.61961C141.674 5.63963 141.73 5.72635 141.71 5.81641L141.54 6.57024C141.52 6.65696 141.433 6.71366 141.343 6.69365L140.576 6.5202C140.489 6.50019 140.433 6.41347 140.453 6.32341L140.623 5.56958C140.643 5.48286 140.73 5.42615 140.82 5.44616Z" fill="#585857"/>
<path d="M140.606 6.39673C140.586 6.3934 140.573 6.37005 140.576 6.35003L140.746 5.5962C140.75 5.57619 140.773 5.56285 140.793 5.56618L141.56 5.73963C141.58 5.74297 141.594 5.76632 141.59 5.78633L141.42 6.54016C141.417 6.56017 141.393 6.57351 141.373 6.57018L140.606 6.39673Z" fill="#5E5E5D"/>
<path d="M142.13 5.73962L142.897 5.91307C142.984 5.93308 143.041 6.01981 143.021 6.10987L142.851 6.86369C142.831 6.95042 142.744 7.00712 142.654 6.98711L141.887 6.81366C141.8 6.79365 141.743 6.70692 141.763 6.61687L141.933 5.86304C141.953 5.77631 142.04 5.71961 142.13 5.73962Z" fill="#585857"/>
<path d="M141.917 6.69043C141.897 6.6871 141.883 6.66375 141.887 6.64373L142.057 5.88991C142.06 5.86989 142.084 5.85655 142.104 5.85989L142.871 6.03333C142.891 6.03667 142.904 6.06002 142.901 6.08003L142.731 6.83386C142.727 6.85387 142.704 6.86722 142.684 6.86388L141.917 6.69043Z" fill="#5E5E5D"/>
<path d="M143.442 6.03666L144.209 6.21011C144.296 6.23012 144.352 6.31685 144.332 6.4069L144.162 7.16073C144.142 7.24746 144.055 7.30416 143.965 7.28415L143.198 7.1107C143.112 7.09069 143.055 7.00396 143.075 6.9139L143.245 6.16008C143.265 6.07002 143.355 6.01665 143.442 6.03666Z" fill="#585857"/>
<path d="M143.228 6.98731C143.208 6.98397 143.194 6.96062 143.198 6.94061L143.368 6.18678C143.371 6.16677 143.395 6.15343 143.415 6.15676L144.182 6.33021C144.202 6.33354 144.215 6.35689 144.212 6.37691L144.042 7.13073C144.038 7.15075 144.015 7.16409 143.995 7.16075L143.228 6.98731Z" fill="#5E5E5D"/>
<path d="M144.752 6.32995L145.519 6.5034C145.606 6.52341 145.663 6.61014 145.643 6.7002L145.473 7.45403C145.453 7.54075 145.366 7.59745 145.276 7.57744L144.509 7.40399C144.422 7.38398 144.365 7.29726 144.385 7.2072L144.555 6.45337C144.575 6.36665 144.666 6.30994 144.752 6.32995Z" fill="#585857"/>
<path d="M144.539 7.28076C144.519 7.27743 144.505 7.25408 144.509 7.23407L144.679 6.48024C144.682 6.46022 144.706 6.44688 144.726 6.45022L145.493 6.62367C145.513 6.627 145.526 6.65035 145.523 6.67036L145.353 7.42419C145.349 7.4442 145.326 7.45755 145.306 7.45421L144.539 7.28076Z" fill="#5E5E5D"/>
<path d="M146.063 6.62699L146.83 6.80044C146.917 6.82045 146.973 6.90718 146.953 6.99724L146.783 7.75107C146.763 7.83779 146.677 7.89449 146.587 7.87448L145.819 7.70103C145.733 7.68102 145.676 7.5943 145.696 7.50424L145.866 6.75041C145.889 6.66035 145.976 6.60698 146.063 6.62699Z" fill="#585857"/>
<path d="M145.849 7.57764C145.829 7.5743 145.816 7.55096 145.819 7.53094L145.989 6.77711C145.993 6.7571 146.016 6.74376 146.036 6.74709L146.803 6.92054C146.823 6.92388 146.837 6.94722 146.833 6.96724L146.663 7.72107C146.66 7.74108 146.637 7.75442 146.617 7.75109L145.849 7.57764Z" fill="#5E5E5D"/>
<path d="M147.374 6.92029L148.141 7.09373C148.228 7.11375 148.284 7.20047 148.264 7.29053L148.094 8.04436C148.074 8.13108 147.988 8.18779 147.898 8.16777L147.13 7.99433C147.044 7.97431 146.987 7.88759 147.007 7.79753L147.177 7.0437C147.2 6.95698 147.287 6.90027 147.374 6.92029Z" fill="#585857"/>
<path d="M147.16 7.8711C147.14 7.86776 147.127 7.84441 147.13 7.8244L147.3 7.07057C147.303 7.05056 147.327 7.03721 147.347 7.04055L148.114 7.214C148.134 7.21733 148.147 7.24068 148.144 7.26069L147.974 8.01452C147.97 8.03454 147.947 8.04788 147.927 8.04454L147.16 7.8711Z" fill="#5E5E5D"/>
<path d="M148.685 7.21399L149.452 7.38743C149.539 7.40745 149.595 7.49417 149.575 7.58423L149.405 8.33806C149.385 8.42478 149.299 8.48149 149.209 8.46147L148.441 8.28803C148.355 8.26801 148.298 8.18129 148.318 8.09123L148.488 7.3374C148.511 7.25068 148.598 7.19397 148.685 7.21399Z" fill="#585857"/>
<path d="M148.471 8.16455C148.451 8.16122 148.438 8.13787 148.441 8.11785L148.611 7.36403C148.614 7.34401 148.638 7.33067 148.658 7.33401L149.425 7.50745C149.445 7.51079 149.458 7.53414 149.455 7.55415L149.285 8.30798C149.281 8.32799 149.258 8.34133 149.238 8.338L148.471 8.16455Z" fill="#5E5E5D"/>
<path d="M149.995 7.51078L150.763 7.68423C150.849 7.70424 150.906 7.79097 150.886 7.88103L150.716 8.63485C150.696 8.72158 150.609 8.77828 150.519 8.75827L149.752 8.58482C149.665 8.56481 149.609 8.47809 149.629 8.38803L149.799 7.6342C149.822 7.54414 149.909 7.49077 149.995 7.51078Z" fill="#585857"/>
<path d="M149.782 8.46143C149.762 8.45809 149.749 8.43474 149.752 8.41473L149.922 7.6609C149.925 7.64089 149.949 7.62755 149.969 7.63088L150.736 7.80433C150.756 7.80766 150.769 7.83101 150.766 7.85103L150.596 8.60485C150.593 8.62487 150.569 8.63821 150.549 8.63487L149.782 8.46143Z" fill="#5E5E5D"/>
<path d="M151.309 7.80456L152.077 7.97801C152.163 7.99802 152.22 8.08475 152.2 8.17481L152.03 8.92863C152.01 9.01536 151.923 9.07206 151.833 9.05205L151.066 8.8786C150.979 8.85859 150.922 8.77186 150.943 8.68181L151.113 7.92798C151.133 7.84125 151.219 7.78455 151.309 7.80456Z" fill="#585857"/>
<path d="M151.093 8.75513C151.073 8.75179 151.059 8.72844 151.063 8.70843L151.233 7.9546C151.236 7.93459 151.259 7.92125 151.279 7.92458L152.047 8.09803C152.067 8.10136 152.08 8.12471 152.077 8.14473L151.906 8.89856C151.903 8.91857 151.88 8.93191 151.86 8.92858L151.093 8.75513Z" fill="#5E5E5D"/>
<path d="M152.62 8.10136L153.388 8.27481C153.474 8.29482 153.531 8.38154 153.511 8.4716L153.341 9.22543C153.321 9.31215 153.234 9.36886 153.144 9.34885L152.377 9.1754C152.29 9.15539 152.234 9.06866 152.254 8.9786L152.424 8.22477C152.444 8.13471 152.53 8.08135 152.62 8.10136Z" fill="#585857"/>
<path d="M152.407 9.052C152.387 9.04867 152.374 9.02532 152.377 9.00531L152.548 8.25148C152.551 8.23146 152.574 8.21812 152.594 8.22146L153.361 8.39491C153.381 8.39824 153.395 8.42159 153.391 8.4416L153.221 9.19543C153.218 9.21544 153.195 9.22879 153.175 9.22545L152.407 9.052Z" fill="#5E5E5D"/>
<path d="M153.931 8.3949L154.699 8.56834C154.785 8.58835 154.842 8.67508 154.822 8.76514L154.652 9.51897C154.632 9.60569 154.545 9.66239 154.455 9.64238L153.688 9.46893C153.601 9.44892 153.545 9.3622 153.565 9.27214L153.735 8.51831C153.755 8.43159 153.841 8.37488 153.931 8.3949Z" fill="#585857"/>
<path d="M153.718 9.34546C153.698 9.34213 153.685 9.31878 153.688 9.29876L153.858 8.54493C153.861 8.52492 153.885 8.51158 153.905 8.51492L154.672 8.68836C154.692 8.6917 154.705 8.71505 154.702 8.73506L154.532 9.48889C154.529 9.5089 154.505 9.52224 154.485 9.51891L153.718 9.34546Z" fill="#5E5E5D"/>
<path d="M137.921 6.07654L138.688 6.24998C138.775 6.27 138.832 6.35672 138.812 6.44678L138.642 7.20061C138.622 7.28733 138.535 7.34403 138.445 7.32402L137.678 7.15057C137.591 7.13056 137.534 7.04384 137.554 6.95378L137.724 6.19995C137.748 6.11323 137.835 6.05652 137.921 6.07654Z" fill="#585857"/>
<path d="M137.707 7.0271C137.687 7.02377 137.674 7.00042 137.677 6.9804L137.847 6.22658C137.851 6.20656 137.874 6.19322 137.894 6.19656L138.661 6.37C138.681 6.37334 138.695 6.39669 138.691 6.4167L138.521 7.17053C138.518 7.19054 138.494 7.20388 138.474 7.20055L137.707 7.0271Z" fill="#5E5E5D"/>
<path d="M139.232 6.36999L139.999 6.54343C140.086 6.56345 140.142 6.65017 140.122 6.74023L139.952 7.49406C139.932 7.58078 139.846 7.63749 139.755 7.61747L138.988 7.44402C138.902 7.42401 138.845 7.33729 138.865 7.24723L139.035 6.4934C139.058 6.40668 139.145 6.35331 139.232 6.36999Z" fill="#585857"/>
<path d="M139.018 7.32422C138.998 7.32088 138.985 7.29754 138.988 7.27752L139.158 6.52369C139.162 6.50368 139.185 6.49034 139.205 6.49367L139.972 6.66712C139.992 6.67046 140.006 6.69381 140.002 6.71382L139.832 7.46765C139.829 7.48766 139.806 7.501 139.785 7.49767L139.018 7.32422Z" fill="#5E5E5D"/>
<path d="M140.542 6.66687L141.309 6.84032C141.396 6.86033 141.453 6.94705 141.433 7.03711L141.263 7.79094C141.243 7.87766 141.156 7.93437 141.066 7.91435L140.299 7.74091C140.212 7.72089 140.155 7.63417 140.175 7.54411L140.346 6.79028C140.369 6.70356 140.456 6.64685 140.542 6.66687Z" fill="#585857"/>
<path d="M140.329 7.61743C140.309 7.6141 140.296 7.59075 140.299 7.57074L140.469 6.81691C140.473 6.79689 140.496 6.78355 140.516 6.78689L141.283 6.96033C141.303 6.96367 141.317 6.98702 141.313 7.00703L141.143 7.76086C141.14 7.78087 141.117 7.79422 141.097 7.79088L140.329 7.61743Z" fill="#5E5E5D"/>
<path d="M141.857 6.96057L142.624 7.13402C142.711 7.15403 142.768 7.24075 142.748 7.33081L142.578 8.08464C142.558 8.17137 142.471 8.22807 142.381 8.20806L141.614 8.03461C141.527 8.0146 141.47 7.92787 141.49 7.83781L141.66 7.08398C141.68 6.99726 141.767 6.94056 141.857 6.96057Z" fill="#585857"/>
<path d="M141.64 7.91114C141.62 7.9078 141.607 7.88445 141.61 7.86444L141.78 7.11061C141.784 7.0906 141.807 7.07725 141.827 7.08059L142.594 7.25404C142.614 7.25737 142.628 7.28072 142.624 7.30073L142.454 8.05456C142.451 8.07458 142.428 8.08792 142.408 8.08458L141.64 7.91114Z" fill="#5E5E5D"/>
<path d="M143.168 7.25761L143.935 7.43106C144.022 7.45107 144.078 7.53779 144.058 7.62785L143.888 8.38168C143.868 8.4684 143.782 8.52511 143.691 8.5051L142.924 8.33165C142.838 8.31163 142.781 8.22491 142.801 8.13485L142.971 7.38102C142.991 7.29096 143.078 7.2376 143.168 7.25761Z" fill="#585857"/>
<path d="M142.954 8.20801C142.934 8.20467 142.921 8.18133 142.924 8.16131L143.094 7.40748C143.098 7.38747 143.121 7.37413 143.141 7.37746L143.908 7.55091C143.928 7.55425 143.942 7.5776 143.938 7.59761L143.768 8.35144C143.765 8.37145 143.742 8.38479 143.722 8.38146L142.954 8.20801Z" fill="#5E5E5D"/>
<path d="M144.479 7.5509L145.246 7.72435C145.333 7.74436 145.389 7.83109 145.369 7.92114L145.199 8.67497C145.179 8.7617 145.093 8.8184 145.003 8.79839L144.235 8.62494C144.149 8.60493 144.092 8.5182 144.112 8.42814L144.282 7.67432C144.302 7.58759 144.389 7.53089 144.479 7.5509Z" fill="#585857"/>
<path d="M144.265 8.50147C144.245 8.49813 144.232 8.47478 144.235 8.45477L144.405 7.70094C144.408 7.68093 144.432 7.66759 144.452 7.67092L145.219 7.84437C145.239 7.8477 145.252 7.87105 145.249 7.89107L145.079 8.64489C145.075 8.66491 145.052 8.67825 145.032 8.67491L144.265 8.50147Z" fill="#5E5E5D"/>
<path d="M145.79 7.84435L146.557 8.0178C146.644 8.03781 146.7 8.12454 146.68 8.2146L146.51 8.96842C146.49 9.05515 146.404 9.11185 146.314 9.09184L145.546 8.91839C145.46 8.89838 145.403 8.81165 145.423 8.7216L145.593 7.96777C145.613 7.88104 145.7 7.82767 145.79 7.84435Z" fill="#585857"/>
<path d="M145.576 8.79834C145.556 8.79501 145.543 8.77166 145.546 8.75165L145.716 7.99782C145.719 7.9778 145.743 7.96446 145.763 7.9678L146.53 8.14124C146.55 8.14458 146.563 8.16793 146.56 8.18794L146.39 8.94177C146.386 8.96178 146.363 8.97513 146.343 8.97179L145.576 8.79834Z" fill="#5E5E5D"/>
<path d="M147.1 8.14115L147.868 8.3146C147.954 8.33462 148.011 8.42134 147.991 8.5114L147.821 9.26523C147.801 9.35195 147.714 9.40865 147.624 9.38864L146.857 9.21519C146.77 9.19518 146.714 9.10846 146.734 9.0184L146.904 8.26457C146.924 8.17451 147.014 8.12114 147.1 8.14115Z" fill="#585857"/>
<path d="M146.887 9.0918C146.867 9.08846 146.854 9.06511 146.857 9.0451L147.027 8.29127C147.03 8.27126 147.054 8.25792 147.074 8.26125L147.841 8.4347C147.861 8.43804 147.874 8.46138 147.871 8.4814L147.701 9.23523C147.698 9.25524 147.674 9.26858 147.654 9.26525L146.887 9.0918Z" fill="#5E5E5D"/>
<path d="M148.411 8.43469L149.178 8.60814C149.265 8.62815 149.322 8.71487 149.302 8.80493L149.131 9.55876C149.111 9.64549 149.025 9.70219 148.935 9.68218L148.167 9.50873C148.081 9.48872 148.024 9.40199 148.044 9.31193L148.214 8.5581C148.234 8.47138 148.324 8.41468 148.411 8.43469Z" fill="#585857"/>
<path d="M148.198 9.38525C148.178 9.38192 148.164 9.35857 148.168 9.33856L148.338 8.58473C148.341 8.56472 148.364 8.55137 148.384 8.55471L149.151 8.72816C149.171 8.73149 149.185 8.75484 149.182 8.77485L149.008 9.52868C149.005 9.5487 148.981 9.56204 148.961 9.5587L148.198 9.38525Z" fill="#5E5E5D"/>
<path d="M149.722 8.73149L150.489 8.90493C150.576 8.92495 150.633 9.01167 150.613 9.10173L150.442 9.85556C150.422 9.94228 150.336 9.99899 150.246 9.97897L149.479 9.80553C149.392 9.78551 149.335 9.69879 149.355 9.60873L149.525 8.8549C149.549 8.76484 149.635 8.71147 149.722 8.73149Z" fill="#585857"/>
<path d="M149.508 9.68213C149.488 9.67879 149.475 9.65878 149.478 9.63543L149.648 8.8816C149.651 8.86159 149.675 8.84825 149.695 8.85159L150.462 9.02503C150.482 9.02837 150.495 9.05172 150.492 9.07173L150.322 9.82556C150.319 9.84557 150.295 9.85891 150.275 9.85558L149.508 9.68213Z" fill="#5E5E5D"/>
<path d="M151.033 9.02527L151.8 9.19871C151.887 9.21873 151.944 9.30545 151.924 9.39551L151.754 10.1493C151.734 10.2361 151.647 10.2928 151.557 10.2728L150.79 10.0993C150.703 10.0793 150.646 9.99257 150.666 9.90251L150.836 9.14868C150.86 9.06196 150.946 9.00525 151.033 9.02527Z" fill="#585857"/>
<path d="M150.819 9.97583C150.799 9.9725 150.786 9.94915 150.789 9.92913L150.959 9.17531C150.963 9.15529 150.986 9.14195 151.006 9.14529L151.773 9.31873C151.793 9.32207 151.806 9.34542 151.803 9.36543L151.633 10.1193C151.63 10.1393 151.606 10.1526 151.586 10.1493L150.819 9.97583Z" fill="#5E5E5D"/>
<path d="M152.344 9.31872L153.111 9.49217C153.197 9.51218 153.254 9.59891 153.234 9.68897L153.064 10.4428C153.044 10.5295 152.957 10.5862 152.867 10.5662L152.1 10.3928C152.013 10.3727 151.957 10.286 151.977 10.196L152.147 9.44214C152.17 9.35541 152.257 9.29871 152.344 9.31872Z" fill="#585857"/>
<path d="M152.13 10.2727C152.11 10.2694 152.097 10.246 152.1 10.226L152.27 9.47218C152.274 9.45217 152.297 9.43883 152.317 9.44216L153.084 9.61561C153.104 9.61894 153.117 9.64229 153.114 9.66231L152.944 10.4128C152.941 10.4328 152.917 10.4462 152.897 10.4428L152.13 10.2727Z" fill="#5E5E5D"/>
<path d="M153.658 9.61552L154.425 9.78897C154.512 9.80898 154.569 9.8957 154.549 9.98576L154.379 10.7396C154.359 10.8263 154.272 10.883 154.182 10.863L153.415 10.6896C153.328 10.6695 153.271 10.5828 153.291 10.4928L153.461 9.73893C153.481 9.64887 153.568 9.59551 153.658 9.61552Z" fill="#585857"/>
<path d="M153.441 10.5662C153.421 10.5628 153.408 10.5395 153.411 10.5195L153.581 9.76564C153.585 9.74562 153.608 9.73228 153.628 9.73562L154.395 9.90907C154.415 9.9124 154.428 9.93575 154.425 9.95576L154.255 10.7096C154.252 10.7296 154.228 10.7429 154.208 10.7396L153.441 10.5662Z" fill="#5E5E5D"/>
<path d="M137.647 7.29748L138.414 7.47093C138.501 7.49094 138.558 7.57767 138.538 7.66773L138.368 8.42155C138.348 8.50828 138.261 8.56498 138.171 8.54497L137.404 8.37152C137.317 8.35151 137.26 8.26479 137.28 8.17473L137.451 7.4209C137.471 7.33417 137.561 7.27747 137.647 7.29748Z" fill="#585857"/>
<path d="M137.434 8.24805C137.414 8.24471 137.4 8.22136 137.404 8.20135L137.574 7.44752C137.577 7.42751 137.601 7.41417 137.621 7.4175L138.388 7.59095C138.408 7.59429 138.421 7.61763 138.418 7.63765L138.248 8.39148C138.244 8.41149 138.221 8.42483 138.201 8.4215L137.434 8.24805Z" fill="#5E5E5D"/>
<path d="M138.958 7.59094L139.726 7.76439C139.812 7.7844 139.869 7.87112 139.849 7.96118L139.679 8.71501C139.659 8.80174 139.572 8.85844 139.482 8.83843L138.715 8.66498C138.628 8.64496 138.571 8.55824 138.591 8.46818L138.762 7.71435C138.782 7.62763 138.872 7.57093 138.958 7.59094Z" fill="#585857"/>
<path d="M138.745 8.54151C138.725 8.53817 138.712 8.51482 138.715 8.49481L138.885 7.74098C138.888 7.72097 138.912 7.70762 138.932 7.71096L139.699 7.88441C139.719 7.88774 139.732 7.91109 139.729 7.9311L139.559 8.68493C139.555 8.70495 139.532 8.71829 139.512 8.71495L138.745 8.54151Z" fill="#5E5E5D"/>
<path d="M140.269 7.88774L141.037 8.06118C141.123 8.0812 141.18 8.16792 141.16 8.25798L140.99 9.01181C140.97 9.09853 140.883 9.15524 140.793 9.13522L140.026 8.96177C139.939 8.94176 139.882 8.85504 139.902 8.76498L140.076 8.01115C140.096 7.92109 140.183 7.86772 140.269 7.88774Z" fill="#585857"/>
<path d="M140.056 8.83814C140.036 8.8348 140.023 8.81145 140.026 8.79144L140.196 8.03761C140.199 8.0176 140.223 8.00426 140.243 8.00759L141.01 8.18104C141.03 8.18437 141.043 8.20772 141.04 8.22774L140.87 8.98156C140.866 9.00158 140.843 9.01492 140.823 9.01158L140.056 8.83814Z" fill="#5E5E5D"/>
<path d="M141.58 8.18152L142.347 8.35496C142.434 8.37498 142.491 8.4617 142.471 8.55176L142.3 9.30559C142.28 9.39231 142.194 9.44902 142.104 9.429L141.336 9.25556C141.25 9.23554 141.193 9.14882 141.213 9.05876L141.383 8.30493C141.406 8.21821 141.493 8.1615 141.58 8.18152Z" fill="#585857"/>
<path d="M141.367 9.13208C141.347 9.12875 141.334 9.1054 141.337 9.08539L141.507 8.33156C141.51 8.31154 141.534 8.2982 141.554 8.30154L142.321 8.47498C142.341 8.47832 142.354 8.50167 142.351 8.52168L142.181 9.27551C142.177 9.29552 142.154 9.30887 142.134 9.30553L141.367 9.13208Z" fill="#5E5E5D"/>
<path d="M147.591 9.53227L142.884 8.4749C142.797 8.45489 142.714 8.50826 142.694 8.59498L142.511 9.40552C142.497 9.46556 142.534 9.5256 142.594 9.53894L147.344 10.6063C147.43 10.6263 147.521 10.5696 147.541 10.4829L147.711 9.72906C147.734 9.64234 147.681 9.55228 147.591 9.53227Z" fill="#585857"/>
<path d="M142.641 9.41873L142.821 8.62154C142.824 8.60486 142.844 8.59152 142.861 8.59819L147.567 9.65555C147.587 9.65889 147.601 9.68224 147.597 9.70225L147.427 10.4561C147.424 10.4761 147.4 10.4894 147.38 10.4861L142.641 9.41873Z" fill="#5E5E5D"/>
<path d="M148.138 9.65564L148.905 9.82908C148.992 9.8491 149.049 9.93582 149.029 10.0259L148.858 10.7797C148.838 10.8664 148.752 10.9231 148.662 10.9031L147.895 10.7297C147.808 10.7097 147.751 10.6229 147.771 10.5329L147.941 9.77905C147.961 9.69233 148.048 9.63562 148.138 9.65564Z" fill="#585857"/>
<path d="M147.924 10.6062C147.904 10.6029 147.891 10.5795 147.894 10.5595L148.064 9.80568C148.068 9.78566 148.091 9.77232 148.111 9.77566L148.878 9.9491C148.898 9.95244 148.911 9.97579 148.908 9.9958L148.738 10.7496C148.735 10.7696 148.711 10.783 148.691 10.7796L147.924 10.6062Z" fill="#5E5E5D"/>
<path d="M149.449 9.95243L150.216 10.1259C150.302 10.1459 150.359 10.2326 150.339 10.3227L150.169 11.0765C150.149 11.1632 150.062 11.2199 149.972 11.1999L149.205 11.0265C149.118 11.0065 149.062 10.9197 149.082 10.8297L149.252 10.0758C149.272 9.98579 149.362 9.93242 149.449 9.95243Z" fill="#585857"/>
<path d="M149.235 10.9031C149.215 10.8997 149.202 10.8764 149.205 10.8564L149.375 10.1026C149.379 10.0825 149.402 10.0692 149.422 10.0725L150.189 10.246C150.209 10.2493 150.222 10.2727 150.219 10.2927L150.049 11.0465C150.046 11.0665 150.022 11.0799 150.002 11.0765L149.235 10.9031Z" fill="#5E5E5D"/>
<path d="M150.759 10.2462L151.526 10.4197C151.613 10.4397 151.67 10.5264 151.65 10.6165L151.48 11.3703C151.46 11.457 151.373 11.5137 151.283 11.4937L150.516 11.3203C150.429 11.3002 150.372 11.2135 150.392 11.1235L150.562 10.3696C150.582 10.2829 150.672 10.2262 150.759 10.2462Z" fill="#585857"/>
<path d="M150.546 11.1968C150.526 11.1934 150.512 11.1701 150.516 11.1501L150.686 10.3963C150.689 10.3762 150.712 10.3629 150.732 10.3662L151.5 10.5397C151.52 10.543 151.533 10.5664 151.53 10.5864L151.36 11.3402C151.356 11.3602 151.336 11.3736 151.313 11.3702L150.546 11.1968Z" fill="#5E5E5D"/>
<path d="M152.07 10.5394L152.837 10.7129C152.924 10.7329 152.981 10.8196 152.961 10.9097L152.791 11.6635C152.771 11.7502 152.684 11.8069 152.594 11.7869L151.827 11.6135C151.74 11.5935 151.683 11.5067 151.703 11.4167L151.873 10.6628C151.897 10.5761 151.983 10.5194 152.07 10.5394Z" fill="#585857"/>
<path d="M151.857 11.4902C151.837 11.4869 151.823 11.4636 151.827 11.4435L151.997 10.6897C152 10.6697 152.023 10.6564 152.043 10.6597L152.811 10.8331C152.831 10.8365 152.844 10.8598 152.841 10.8798L152.671 11.6337C152.667 11.6537 152.644 11.667 152.624 11.6637L151.857 11.4902Z" fill="#5E5E5D"/>
<path d="M153.381 10.8365L154.148 11.0099C154.235 11.0299 154.292 11.1167 154.272 11.2067L154.102 11.9605C154.082 12.0473 153.995 12.104 153.905 12.084L153.138 11.9105C153.051 11.8905 152.994 11.8038 153.014 11.7137L153.184 10.9599C153.208 10.8698 153.294 10.8165 153.381 10.8365Z" fill="#585857"/>
<path d="M153.168 11.7871C153.148 11.7838 153.134 11.7604 153.138 11.7404L153.308 10.9866C153.311 10.9666 153.335 10.9532 153.355 10.9566L154.122 11.13C154.142 11.1333 154.155 11.1567 154.152 11.1767L153.982 11.9305C153.978 11.9506 153.955 11.9639 153.935 11.9606L153.168 11.7871Z" fill="#5E5E5D"/>
<path d="M147.354 11.6602L143.504 10.7963C143.331 10.7563 143.157 10.8664 143.121 11.0398L142.657 13.0978C142.617 13.2713 142.727 13.4447 142.901 13.4814L146.75 14.3453C146.923 14.3853 147.097 14.2753 147.133 14.1018L147.597 12.0438C147.637 11.8703 147.527 11.7002 147.354 11.6602Z" fill="#EDEDED"/>
<path d="M147.384 11.5368L143.534 10.6729C143.294 10.6195 143.054 10.7696 143.001 11.0098L142.537 13.0678C142.484 13.3079 142.634 13.5481 142.874 13.6015L146.723 14.4654C146.963 14.5187 147.204 14.3686 147.257 14.1285L147.721 12.0705C147.774 11.8303 147.624 11.5935 147.384 11.5368ZM147.137 14.1018C147.097 14.2752 146.927 14.3853 146.753 14.3453L142.904 13.4814C142.731 13.4414 142.621 13.2713 142.661 13.0978L143.124 11.0398C143.164 10.8663 143.334 10.7563 143.508 10.7963L147.357 11.6602C147.53 11.7002 147.64 11.8703 147.6 12.0438L147.137 14.1018Z" fill="#9D9B9B"/>
<path d="M142.888 12.0837L142.661 13.0977C142.621 13.2712 142.731 13.4446 142.905 13.4813L146.754 14.3452C146.927 14.3853 147.101 14.2752 147.137 14.1017L147.364 13.0877L142.888 12.0837Z" fill="#DFDFDE"/>
<path d="M145.109 12.5809L142.888 12.0806L142.661 13.0946C142.621 13.268 142.731 13.4415 142.905 13.4782L144.812 13.9084L145.109 12.5809Z" fill="#D9D9DA"/>
<path d="M156.59 5.75305L137.691 1.50359C137.581 1.47691 137.504 1.3735 137.514 1.2601L139.492 -9.55367C139.519 -9.85054 139.799 -10.054 140.089 -9.98729L159.338 -5.65778C159.629 -5.59107 159.795 -5.28754 159.692 -5.00735L156.853 5.60962C156.813 5.71636 156.703 5.77973 156.59 5.75305Z" fill="#E3E1E1"/>
<path d="M138.338 0.466222L140.163 -8.66311C140.189 -8.94329 140.453 -9.13675 140.726 -9.07338L158.368 -5.10744C158.642 -5.0474 158.798 -4.75721 158.702 -4.4937L156.447 4.53556C156.367 4.75571 156.137 4.87912 155.906 4.82909L138.702 0.95988C138.472 0.909846 138.318 0.696373 138.338 0.466222Z" fill="#C7C7C6"/>
<path d="M138.465 0.479475L140.289 -8.65653C140.309 -8.85999 140.499 -9.00009 140.699 -8.95339L158.348 -4.98411C158.544 -4.94075 158.661 -4.73061 158.591 -4.54049L156.33 4.49545C156.273 4.65555 156.106 4.74561 155.939 4.70892L138.725 0.836377C138.561 0.799686 138.448 0.646252 138.465 0.479475Z" fill="#C6E6F2"/>
<path opacity="0.24" d="M138.738 -0.394321C139.065 -0.981374 139.512 -1.53507 140.006 -1.99537C141.286 -3.18616 143.071 -3.84325 144.752 -4.20349C146.733 -4.63044 148.951 -5.50435 150.966 -5.32756C153.761 -5.0874 155.653 -4.66046 158.301 -3.74986L158.591 -4.54038C158.661 -4.7305 158.548 -4.94064 158.348 -4.984L140.699 -8.95328C140.503 -8.99664 140.309 -8.85655 140.289 -8.65642L138.495 0.149369C138.555 -0.0474262 138.651 -0.237552 138.738 -0.394321Z" fill="#B6E0ED"/>
<path d="M153.851 5.13934L140.402 2.11402L140.409 1.88721L153.968 4.93588L153.851 5.13934Z" fill="#585857"/>
</g>
<path d="M29.8079 67.6373C28.911 63.8458 25.1195 61.5074 21.3485 62.408C17.5723 63.3085 15.2434 67.1154 16.1403 70.9019C16.7723 73.5626 18.831 75.507 21.3077 76.1159C21.4504 76.4945 21.7154 78.792 22.1893 79.5288C22.4034 79.8614 22.6735 79.9177 23.0862 79.8307C23.4175 81.0127 24.8036 82.0974 25.9451 81.99C26.7452 81.9132 27.3261 81.3606 27.586 80.6187C27.7899 80.0405 27.9529 79.3753 28.0549 78.7306C28.6052 78.7152 28.8702 78.6589 28.8447 78.1421C28.7989 77.2467 27.8306 74.7804 27.795 74.4018C29.5531 72.7286 30.4092 70.1804 29.8079 67.6373Z" fill="#FDFFFC"/>
<path d="M26.154 67.3817C26.047 66.9979 25.6699 66.7421 25.2724 66.8393C24.9004 66.9263 24.6201 67.3408 24.7322 67.7245C24.7985 67.9599 24.9717 68.1492 25.1807 68.2362C25.0278 69.2289 24.8342 70.2062 24.7526 71.2091C24.6762 72.1403 24.5997 73.0511 24.3959 73.9568C23.2901 72.2938 22.1893 70.636 20.9714 69.0549C21.3077 68.7325 21.0529 68.0111 20.4872 68.1441C19.8197 68.3027 20.0643 69.3465 20.737 69.1879C20.742 69.1879 20.7471 69.1828 20.7522 69.1777C22.0161 70.9737 23.2544 72.7953 24.2838 74.7396C24.3959 74.9494 24.7017 74.9034 24.773 74.6885C25.1093 73.6856 25.2062 72.6622 25.2775 71.6133C25.359 70.4825 25.5782 69.3721 25.6699 68.2464C26.0113 68.1339 26.2559 67.745 26.154 67.3817Z" fill="#AEB4FC"/>
<path d="M17.6685 61.2006C16.2467 60.4945 14.8198 59.7833 13.398 59.072C13.1024 58.9288 12.8323 59.3535 13.1279 59.5121C14.514 60.2796 15.9052 61.042 17.2914 61.8095C17.699 62.0347 18.0761 61.4053 17.6685 61.2006Z" fill="#808AFF"/>
<path d="M20.344 55.7768C20.2268 55.5158 19.8904 55.7052 19.9159 55.9405C20.0892 57.4142 20.6345 58.9185 21.0625 60.341C21.1695 60.6889 21.7046 60.5712 21.618 60.2079C21.2664 58.7445 20.9606 57.1532 20.344 55.7768Z" fill="#808AFF"/>
<path d="M26.969 55.347C26.6021 55.6693 26.3779 56.181 26.1486 56.6108C25.9091 57.0611 25.695 57.5216 25.4912 57.9872C25.3281 58.3659 25.9549 58.5654 26.1129 58.1766C26.3015 57.7007 26.5053 57.2402 26.7397 56.7848C26.9385 56.3908 27.2289 56.007 27.3461 55.5823C27.4124 55.3521 27.1372 55.1935 26.969 55.347Z" fill="#808AFF"/>
</g>
<defs>
<clipPath id="clip0_1_3270">
<rect width="14" height="17" fill="white" transform="translate(147 27)"/>
</clipPath>
<clipPath id="clip1_1_3270">
<rect width="69" height="12" fill="white" transform="translate(51 120)"/>
</clipPath>
<clipPath id="clip2_1_3270">
<rect width="32" height="26" fill="white" transform="translate(132 61)"/>
</clipPath>
<clipPath id="clip3_1_3270">
<rect width="35" height="35" fill="white" transform="translate(34 -14)"/>
</clipPath>
</defs>
</svg>
