<svg width="134" height="105" viewBox="0 0 134 105" fill="none" xmlns="http://www.w3.org/2000/svg">
<path d="M72.6536 1.81289C72.1358 -0.1599 69.3747 -0.205465 67.3794 0.209682C58.064 2.14534 47.6472 5.52221 38.5763 8.39954C33.1976 10.1749 27.9656 12.3958 22.9511 15.0334C21.4399 15.8283 19.6993 17.4298 20.5476 18.9132C21.1599 19.9848 22.6695 20.0085 23.8973 19.8802C36.7767 18.5318 49.4671 15.3862 61.4879 10.563C64.8747 9.20452 68.2666 7.67557 71.0057 5.26401C72.0127 4.37296 72.996 3.11402 72.6536 1.81289Z" fill="#D196A8"/>
<path d="M121.046 74.2576C121.196 76.9813 120.847 79.8739 119.514 82.5234C119.489 82.574 119.462 82.6246 119.435 82.6753C119.422 82.7039 119.406 82.731 119.391 82.7596C119.307 82.9217 119.217 83.0837 119.123 83.2423C118.659 84.0388 118.099 84.8084 117.43 85.5391C116.6 86.4453 115.571 87.2621 114.397 87.9979C114.249 88.0924 114.098 88.1836 113.945 88.273C113.608 88.4738 113.259 88.6679 112.899 88.8552C105.751 92.5983 94.7019 93.9618 88.5169 94.4512C86.9837 94.4782 85.4523 94.566 83.9275 94.7111H83.9208H83.9191C81.2592 94.9626 78.6162 95.3879 76.0137 95.987C67.0727 98.0408 58.6749 102.089 49.7052 104.018C41.6801 105.745 32.616 105.463 25.9064 100.991C24.4964 100.051 23.3697 98.7394 22.609 97.224C21.7438 95.4992 21.0185 93.9635 20.2713 92.5122C20.1549 92.2861 20.0386 92.0633 19.9205 91.8406C19.9019 91.8068 19.8851 91.773 19.8665 91.7393C18.9422 90.0095 17.9404 88.3726 16.5674 86.6394C16.3616 86.3795 16.1474 86.1163 15.9231 85.8513L15.9214 85.8496C15.8101 85.7163 15.6954 85.5813 15.5757 85.4446C15.5402 85.4024 15.5031 85.3602 15.466 85.318C15.1219 84.9265 14.7576 84.5282 14.3697 84.1215C13.0271 82.7158 11.58 81.4129 10.1885 80.0544C10.0653 79.9346 9.94221 79.8131 9.81909 79.6916C9.72126 79.5954 9.62512 79.4975 9.5273 79.3997C9.15117 79.0216 8.78179 78.6369 8.42085 78.2437C1.77035 70.9752 -1.25383 60.5358 0.481741 50.8339C2.21731 41.1336 8.67216 32.3919 17.431 27.8827C19.0401 27.0541 20.7031 26.3689 22.4049 25.7867C22.6293 25.7091 22.8536 25.6348 23.0796 25.5606C28.7164 23.7312 34.7462 22.9735 40.6124 21.8968C52.5236 19.7147 64.17 16.0915 75.2176 11.1317C77.0561 10.3064 78.8844 9.4424 80.7178 8.58173C80.9421 8.47541 81.1682 8.37078 81.3925 8.26615C87.284 5.50864 93.2227 2.85406 99.6016 1.76388C102.344 1.29642 105.179 1.12935 107.89 1.75207C115.1 3.41265 120.177 10.8431 120.179 18.2465C120.182 26.7047 114.648 34.4609 114.81 42.9174C114.868 45.9247 115.645 48.8223 116.817 51.5966C117.919 54.2073 119.369 56.7084 120.897 59.0895C120.995 59.2414 121.093 59.3916 121.193 59.5435C122.226 61.1416 123.303 62.7229 124.345 64.3194L120.843 72.2072C120.94 72.8754 121.009 73.5606 121.046 74.2576Z" fill="#D196A8"/>
<path d="M119.514 82.5236C119.489 82.5742 119.462 82.6249 119.435 82.6755L42.0964 90.5835L42.0357 90.5903L15.5754 85.4448C15.54 85.4026 15.5029 85.3604 15.4658 85.3182C15.1217 84.9267 14.7574 84.5285 14.3695 84.1217C13.0269 82.716 11.5797 81.4132 10.1882 80.0547C10.0651 79.9348 9.94197 79.8133 9.81885 79.6918L79.4661 76.3538L111.806 74.8046L119.902 74.3253L121.046 74.2578C121.196 76.9816 120.847 79.8741 119.514 82.5236Z" fill="#B29EEF"/>
<path d="M81.3924 8.26636V54.5096C81.3924 54.6953 81.2406 54.8471 81.0551 54.8471C80.8679 54.8471 80.7178 54.6953 80.7178 54.5096V8.58194C80.9421 8.47562 81.1681 8.37099 81.3924 8.26636Z" fill="#D9A5B5"/>
<path d="M119.391 82.7598C119.307 82.9218 119.218 83.0838 119.123 83.2424C118.659 84.039 118.099 84.8085 117.43 85.5392C116.6 86.4454 115.571 87.2622 114.397 87.998C114.249 88.0925 114.099 88.1837 113.945 88.2731L52.6637 95.3188L43.0227 96.4275L42.8558 93.3612L42.731 91.0812L42.7461 91.0796L47.8179 90.5294L119.391 82.7598Z" fill="white"/>
<path d="M23.0794 25.5605V74.4668C23.0794 74.6541 22.9293 74.8043 22.7421 74.8043C22.5566 74.8043 22.4048 74.6541 22.4048 74.4668V25.7867C22.6291 25.7091 22.8534 25.6348 23.0794 25.5605Z" fill="#D9A5B5"/>
<path d="M48.9935 49.2982C48.0574 47.4705 46.2392 46.2892 43.5658 45.7627C43.5641 45.761 43.5624 45.761 43.5591 45.761C41.9196 45.437 39.9597 45.3577 37.6811 45.5264C27.1732 46.3078 19.4432 48.3784 14.7071 51.6794C11.4738 53.934 10.1076 58.1378 11.3877 61.9045L17.2489 79.1533L17.4479 79.7406L32.6936 78.6673L36.2423 78.4175L36.3149 78.4124L36.3604 78.3567C36.3621 78.3534 36.3756 78.3382 36.3992 78.3095C36.8394 77.7796 40.852 72.8923 44.3299 67.1191C49.2768 58.9107 50.8454 52.9147 48.9935 49.2982ZM36.1479 78.085L24.0647 78.9373L18.5122 79.3271H18.5105L17.684 79.3862L17.6014 79.1415L11.7065 61.7948C10.4753 58.1715 11.7892 54.1247 14.9011 51.9561C18.3975 49.5176 23.5587 47.7574 30.2952 46.6993C30.307 46.6976 30.3205 46.6959 30.3357 46.6925C32.6127 46.3365 35.0718 46.0614 37.7064 45.8639C38.4805 45.8066 39.2176 45.7779 39.9176 45.7779C44.4952 45.7779 47.4418 47.0098 48.6933 49.4534C52.8779 57.6264 37.1211 76.9088 36.1479 78.085Z" fill="#FEECD6"/>
<path d="M18.5896 79.5635L12.5716 61.8489C11.315 58.1514 12.6272 54.0488 15.8285 51.8179C19.5493 49.224 26.3364 46.615 38.7181 45.6953C66.2664 43.6482 37.2558 78.2489 37.2558 78.2489L18.5896 79.5635Z" fill="#FEECD6"/>
<path d="M68.9619 16.7228C69.0935 16.203 69.1238 15.7305 69.1137 15.2664C69.1019 14.804 69.0429 14.3416 69.0091 13.837C68.9636 13.5214 68.8928 13.2075 68.7966 12.9004C68.4171 11.6667 67.6615 10.5209 66.6782 9.68383C64.7115 8.01144 62.0399 7.39547 59.461 7.31109C55.5951 7.18283 51.4055 8.33208 49.0998 11.4389C47.1315 14.0884 46.8954 17.5885 46.0031 20.7662C44.5374 25.9927 41.1961 30.5171 37.364 34.358C35.1191 36.6093 32.5503 38.9027 31.96 42.0281C31.3815 45.0945 32.9872 48.3009 35.4548 50.2079C36.3537 50.9032 37.3742 51.4601 38.4772 51.7334C39.5989 52.0119 40.7795 51.99 41.918 51.7959C45.4128 51.2002 48.4134 49.062 51.3684 47.1044C51.6635 46.9086 51.9621 46.7129 52.2589 46.4969C54.4044 44.8818 54.573 42.0129 56.2597 39.9878C56.5549 39.5862 56.8585 39.3027 57.1654 39.1137C61.151 38.9753 67.729 36.7814 68.7595 42.4045C68.8675 42.715 68.9754 43.0238 69.0952 43.3191C69.5759 44.4988 70.2438 45.4657 71.7449 45.5417C72.0047 45.5619 72.2678 45.5704 72.5326 45.567C73.8532 45.5484 75.1908 45.2092 76.1066 44.2844C77.0798 43.3023 77.3986 41.8391 77.4087 40.457C77.4239 38.5315 76.9179 36.6042 75.9599 34.9352C75.5905 34.2905 75.1604 33.6915 74.6915 33.1194C74.4571 32.8342 74.2142 32.554 73.9629 32.2857C70.4276 29.8623 68.0663 25.8121 68.5419 21.4497C68.547 21.0278 68.5656 20.6076 68.5942 20.184C68.6819 18.9183 68.8675 17.6408 69.0665 16.3819L68.9619 16.7228Z" fill="#3F4553"/>
<path d="M67.3457 17.4148C66.5496 19.7824 67.5853 22.2261 69.0965 24.0655C70.9788 26.3573 73.411 28.0499 75.0268 30.5813C76.6426 33.1144 77.9447 36.3276 77.2869 39.3804C77.0171 40.636 76.3272 41.1473 75.1364 41.4713C74.1362 41.743 73.2052 42.0333 72.3433 42.6324C72.1443 42.7708 72.3332 43.0998 72.5356 42.9598C73.5358 42.2645 74.6153 42.067 75.7419 41.6907C76.447 41.4544 77.0255 41.0697 77.3611 40.3862C78.498 38.0675 77.6057 34.8813 76.6089 32.6891C75.3557 29.9316 73.4413 27.8626 71.279 25.797C69.0678 23.6858 66.607 20.8051 67.7134 17.516C67.791 17.2831 67.4233 17.1836 67.3457 17.4148Z" fill="#4E5567"/>
<path d="M54.625 36.994L56.5815 35.5612L59.0845 34.3799L66.774 36.994L70.0579 71.7768L61.5707 73.9116L55.7196 56.2763L54.625 36.994Z" fill="white"/>
<path d="M70.2502 32.0343C73.4414 32.6723 76.4504 34.4763 78.1387 37.3182C79.8945 40.2731 79.9249 44.1377 77.9802 47.0066C77.8436 47.2091 78.1708 47.3998 78.3074 47.199C80.2757 44.293 80.2875 40.3879 78.5924 37.3486C76.8957 34.3042 73.7112 32.3415 70.3497 31.6698C70.1119 31.6192 70.0107 31.9854 70.2502 32.0343Z" fill="#4E5567"/>
<path d="M44.4025 27.5369C41.908 29.5029 39.5196 31.6006 37.0285 33.5717C35.0635 35.126 32.8607 36.5081 31.481 38.6598C28.7537 42.9125 30.7338 48.1609 34.4917 51.023C36.6017 52.6313 39.464 53.9088 42.134 53.0903C42.3667 53.0194 42.2672 52.6516 42.0328 52.7241C39.5837 53.4751 36.9677 52.3545 34.9893 50.9218C33.021 49.4975 31.4271 47.4757 30.8216 45.0929C30.2329 42.7741 30.7136 40.3102 32.1287 38.3864C33.5017 36.5199 35.5037 35.2593 37.2966 33.8417C39.7878 31.8723 42.1761 29.7729 44.6707 27.8069C44.863 27.655 44.5931 27.3867 44.4025 27.5369Z" fill="#4E5567"/>
<path d="M77.3308 81.3826L51.8184 80.77C51.8184 80.0831 52.3345 79.5077 53.0176 79.4351L79.3666 76.5881L77.3308 81.3826Z" fill="#400F58"/>
<path d="M48.2194 18.2314C47.9192 21.1661 47.3069 24.1059 46.042 26.7875C44.7871 29.4488 42.8137 31.5246 40.7981 33.6205C38.9968 35.4938 37.1836 37.4716 36.3032 39.9676C35.5678 42.0467 35.723 44.3013 36.7063 46.2724C37.6896 48.2418 39.4893 49.6813 41.7545 49.6341C41.999 49.629 41.999 49.2493 41.7545 49.2544C39.4589 49.3016 37.7352 47.722 36.8615 45.702C35.8157 43.2837 36.1463 40.7152 37.413 38.4437C38.7016 36.1334 40.6851 34.3243 42.4797 32.4173C44.1984 30.5913 45.6726 28.6388 46.666 26.32C47.7657 23.7532 48.3173 20.9991 48.5989 18.2314C48.6225 17.9884 48.243 17.9901 48.2194 18.2314Z" fill="#4E5567"/>
<path d="M67.1231 25.257C67.1079 28.5394 69.8167 30.6995 71.8306 32.9237C73.0214 34.24 74.0856 35.7673 74.2003 37.5966C74.3133 39.399 73.5645 41.1507 72.2371 42.3573C72.0566 42.5227 72.3248 42.7894 72.5052 42.6257C74.8817 40.4655 75.1685 37.0212 73.4514 34.3717C71.5101 31.3745 67.4841 29.2313 67.5026 25.257C67.5043 25.0123 67.1248 25.0123 67.1231 25.257Z" fill="#4E5567"/>
<path d="M65.6826 36.6582C66.4163 38.2226 65.7686 40.0604 66.0166 41.7716C67.4604 51.7503 67.1011 61.9669 67.2563 72.025C67.2799 73.5522 67.3457 75.2061 68.3054 76.3958C68.4875 76.6219 68.7102 76.8329 68.9885 76.9206C69.2077 76.9898 69.4439 76.9763 69.6749 76.9628C72.9352 76.7654 76.1955 76.5679 79.4559 76.3705C78.3966 70.1062 77.3374 63.8402 76.2782 57.5758C78.8217 60.7333 81.3635 63.8908 83.9069 67.0483C84.983 64.23 86.0574 61.4117 87.1335 58.5918C87.2617 58.2542 87.3933 57.8999 87.3444 57.5421C87.3005 57.2248 87.12 56.9464 86.9429 56.6797C84.4585 52.9383 81.8492 49.2814 79.105 45.7256C77.4403 43.5672 75.698 41.4206 73.4851 39.8309C71.1929 38.1804 68.3745 37.3079 65.6826 36.6582Z" fill="#FB7C85"/>
<path d="M78.1507 75.0541C78.1558 75.2717 77.9888 75.4557 77.8083 75.5755C77.476 75.7932 77.0763 75.8759 76.6833 75.9299C74.9039 76.1712 73.057 75.8877 71.4311 75.1266C72.0922 76.0177 72.7517 76.907 73.4129 77.7981C73.5006 77.9162 73.5934 78.058 73.5546 78.1997C73.5242 78.3145 73.4179 78.3887 73.3184 78.4512C73.1835 78.5339 73.0418 78.6081 72.8985 78.6739C72.1361 79.0283 71.2725 79.1633 70.4393 79.0519C68.6616 78.814 67.1588 77.5179 65.3793 77.2817C64.4803 77.1602 63.5695 77.3205 62.6621 77.3728C61.7547 77.4234 60.7882 77.3492 60.0461 76.826C59.8673 76.7011 59.7004 76.5459 59.6194 76.3434C59.4119 75.8337 59.8049 75.2971 60.1237 74.8482C60.2232 74.7081 60.316 74.5647 60.4037 74.4178C60.8641 73.6584 61.1779 72.8129 61.3246 71.9371C62.3046 71.878 63.5476 71.5472 64.4938 71.2924C65.8718 70.9228 67.3544 70.3541 68.6649 70.9161C68.9702 71.0477 69.2485 71.235 69.5251 71.4207C71.8156 72.9614 74.3152 74.5039 77.0763 74.5022C77.5266 74.5022 78.1423 74.6035 78.1507 75.0541Z" fill="#FFB9A3"/>
<path d="M72.8985 78.6741C72.1361 79.0285 71.2725 79.1635 70.4393 79.0521C68.6616 78.8141 67.1588 77.5181 65.3793 77.2818C64.4803 77.1603 63.5695 77.3206 62.6621 77.3729C61.7547 77.4236 60.7882 77.3493 60.0461 76.8262C59.8673 76.7013 59.7004 76.546 59.6194 76.3435C59.4119 75.8339 59.8049 75.2972 60.1237 74.8483C60.2232 74.7082 60.316 74.5648 60.4037 74.418C61.0514 74.8837 62.4058 75.4541 64.988 75.1352C69.0782 74.6289 68.2348 76.9915 71.1443 77.8353C72.0804 78.107 72.61 78.4007 72.8985 78.6741Z" fill="#FF9B8D"/>
<path d="M68.2246 12.1392C66.4874 6.52127 59.9448 5.24377 54.8494 6.54321C52.3869 7.17099 50.066 8.47887 48.4452 10.4635C46.5308 12.8075 45.7718 15.8283 45.3299 18.7613C45.0415 20.6734 44.8914 22.6107 44.4461 24.4958C44.1863 25.5961 43.6061 26.5664 43.2131 27.6212C43.1271 27.8507 43.4948 27.9503 43.5791 27.7224C43.8743 26.9293 44.3095 26.1935 44.5895 25.3986C45.0128 24.2004 45.1595 22.8757 45.3282 21.6218C45.728 18.6483 46.0332 15.5887 47.3724 12.8565C49.7321 8.04347 55.2036 5.94918 60.3361 6.5719C63.782 6.98873 66.791 8.79276 67.8569 12.2405C67.9311 12.4734 68.2971 12.3738 68.2246 12.1392Z" fill="#4E5567"/>
<path d="M55.7534 20.8946C53.9959 20.3647 53.1172 21.0768 52.9063 22.3172C52.6938 23.5559 53.8188 24.8418 55.0737 24.798C55.1951 26.3269 55.4127 27.8711 56.03 29.2751C56.6457 30.6792 57.7049 31.9432 59.1217 32.5271C60.7004 33.1802 62.6299 32.8781 63.9354 31.7761C64.4583 31.334 64.8782 30.7838 65.2746 30.2252C66.4856 28.5174 67.5364 26.6526 67.9969 24.609C68.4573 22.5653 68.2752 20.3174 67.167 18.5404C67.0473 18.348 66.9073 18.1539 66.7049 18.051C66.4165 17.9042 66.0707 17.975 65.7587 18.0561C62.3887 18.9437 59.2364 20.9047 55.7534 20.8946Z" fill="#FFB9A3"/>
<path d="M68.8216 13.4573C69.0729 14.35 69.3259 15.2596 69.2905 16.1861C69.2551 17.1126 68.8807 18.0745 68.1116 18.5926C67.4976 19.0061 66.7251 19.0854 66.0252 19.3233C64.6067 19.8043 63.5103 20.9147 62.4039 21.9256C61.3565 22.8825 60.0409 23.8359 58.6511 23.5575C57.3726 23.301 56.5276 22.0842 56.0064 20.8877C55.7264 20.2464 55.497 19.5343 55.6606 18.8542C55.7551 18.4627 55.9744 18.1116 56.2172 17.791C57.6155 15.9549 59.884 14.944 62.1627 14.593C64.4431 14.242 66.7673 14.4783 69.0611 14.7162L68.8216 13.4573Z" fill="#3F4553"/>
<path d="M56.0383 20.957C56.5308 23.8512 59.8366 25.2891 62.2654 23.5863C63.4191 22.7779 64.1629 21.5477 65.1698 20.5841C66.2392 19.5614 68.1046 19.1192 68.4015 17.4806C68.4453 17.2409 68.0793 17.1397 68.0355 17.3793C67.769 18.8425 66.0638 19.2644 65.0737 20.1537C64.2759 20.8709 63.6603 21.762 62.9097 22.5265C61.9078 23.5475 60.6159 24.1921 59.1586 23.8749C57.6743 23.5508 56.6522 22.3189 56.4026 20.8558C56.3638 20.6161 55.9978 20.7191 56.0383 20.957Z" fill="#4E5567"/>
<path d="M119.514 82.5234C119.489 82.5741 119.462 82.6247 119.435 82.6753C119.421 82.704 119.406 82.731 119.391 82.7597C119.307 82.9217 119.217 83.0837 119.123 83.2424L47.8178 90.5294L42.7443 91.0474L42.746 91.0795L42.8556 93.3611L43.004 96.4646L52.6635 95.3187L114.397 87.998C114.248 88.0925 114.098 88.1836 113.945 88.273C113.608 88.4739 113.258 88.6679 112.899 88.8553L42.724 97.1768C42.7122 97.1784 42.6987 97.1801 42.6853 97.1801C42.606 97.1801 42.5284 97.1514 42.4677 97.0991C42.3951 97.0401 42.353 96.9523 42.3479 96.8578L42.0561 90.7606C42.0528 90.6964 42.0679 90.6357 42.0966 90.5834C42.1472 90.4889 42.2433 90.4197 42.358 90.4078L119.514 82.5234Z" fill="#6737C3"/>
<path d="M42.7239 90.8096C42.6919 90.9699 42.5502 91.0813 42.3933 91.0813C42.3714 91.0813 42.3495 91.0796 42.3276 91.0762L42.1032 91.0323L16.2467 85.9156V85.9139L15.9229 85.8515L15.9212 85.8498C15.7745 85.6743 15.6227 85.4971 15.4658 85.3182C15.5316 85.1899 15.6767 85.114 15.8285 85.1444L42.4574 90.413C42.6413 90.4501 42.7593 90.6273 42.7239 90.8096Z" fill="#6737C3"/>
<path d="M43.0161 96.9117C42.9824 97.0704 42.8424 97.18 42.6855 97.18C42.6636 97.18 42.64 97.1767 42.6164 97.1733L20.2715 92.5122C20.1551 92.286 20.0387 92.0633 19.9207 91.8405C19.9021 91.8068 19.8853 91.773 19.8667 91.7393L42.3161 96.4206L42.7547 96.5118C42.9368 96.5506 43.0532 96.7295 43.0161 96.9117Z" fill="#6737C3"/>
<path d="M32.9837 78.9912C32.9888 79.1769 32.8437 79.3338 32.6565 79.3389L10.1885 80.0544C9.96587 79.8384 9.74661 79.6207 9.52734 79.3996L17.2489 79.1532L17.6014 79.1414L18.4397 79.1161L24.0647 78.9372L30.312 78.7381L32.6363 78.6638C32.6565 78.6638 32.6751 78.6638 32.6936 78.6672C32.8522 78.6891 32.977 78.8241 32.9837 78.9912Z" fill="#6737C3"/>
<path d="M101.627 37.2523C101.857 36.282 101.257 35.3088 100.287 35.0786C99.3175 34.8484 98.3448 35.4485 98.1148 36.4188C97.8847 37.3892 98.4844 38.3624 99.4542 38.5925C100.424 38.8227 101.397 38.2227 101.627 37.2523Z" fill="#D9A5B5"/>
<path d="M99.8715 40.7001C97.7429 40.7001 96.0107 38.967 96.0107 36.8373C96.0107 34.7075 97.7429 32.9744 99.8715 32.9744C102 32.9744 103.732 34.7075 103.732 36.8373C103.734 38.967 102.002 40.7001 99.8715 40.7001ZM99.8715 33.1414C97.8357 33.1414 96.1794 34.7986 96.1794 36.8356C96.1794 38.8725 97.8357 40.5297 99.8715 40.5297C101.907 40.5297 103.564 38.8725 103.564 36.8356C103.565 34.7986 101.909 33.1414 99.8715 33.1414Z" fill="#D9A5B5"/>
<path d="M75.7118 17.1513C76.0844 17.1513 76.3864 16.8491 76.3864 16.4763C76.3864 16.1035 76.0844 15.8013 75.7118 15.8013C75.3392 15.8013 75.0371 16.1035 75.0371 16.4763C75.0371 16.8491 75.3392 17.1513 75.7118 17.1513Z" fill="#D9A5B5"/>
<path d="M11.3151 44.9882C9.93879 44.9882 8.81885 43.8676 8.81885 42.4906C8.81885 41.1135 9.93879 39.9929 11.3151 39.9929C12.6914 39.9929 13.8114 41.1135 13.8114 42.4906C13.8114 43.8676 12.6914 44.9882 11.3151 44.9882ZM11.3151 40.3304C10.1243 40.3304 9.15618 41.2991 9.15618 42.4906C9.15618 43.682 10.1243 44.6507 11.3151 44.6507C12.5059 44.6507 13.474 43.682 13.474 42.4906C13.474 41.2991 12.5059 40.3304 11.3151 40.3304Z" fill="#D9A5B5"/>
<path d="M32.3665 15.8013C32.3665 16.3649 31.9095 16.8223 31.3461 16.8223C30.7828 16.8223 30.3257 16.3649 30.3257 15.8013C30.3257 15.2376 30.7828 14.7803 31.3461 14.7803C31.9111 14.782 32.3665 15.2376 32.3665 15.8013Z" fill="#D9A5B5"/>
<path d="M127.642 56.8957L124.345 64.3194L120.843 72.2072L119.902 74.3251L117.242 80.3144L77.3325 81.3826L79.4661 76.3536L88.731 54.5196C89.2353 53.3332 90.362 52.5299 91.6472 52.4388C96.2568 52.1182 107.586 51.4195 116.817 51.5967C119.87 51.6541 122.695 51.8093 124.969 52.1047C125.772 52.2093 126.458 52.5789 126.968 53.1071C127.899 54.0657 128.243 55.5457 127.642 56.8957Z" fill="#FEECD6"/>
<path d="M76.0896 81.4435L75.7759 81.3203L77.9095 75.9014L87.176 53.848C87.7073 52.5857 88.8795 51.7402 90.2356 51.644C94.7272 51.3284 106.173 50.6146 115.421 50.7935C118.718 50.8559 121.466 51.0297 123.591 51.3082C124.402 51.4145 125.128 51.7824 125.689 52.3714C126.72 53.443 126.998 55.0175 126.396 56.3828L118.656 73.9843L118.347 73.8476L126.087 56.2461C126.634 55.0074 126.381 53.578 125.445 52.6043C124.935 52.071 124.279 51.7385 123.545 51.6423C121.434 51.3656 118.696 51.1934 115.412 51.131C106.178 50.9521 94.7441 51.666 90.2576 51.9815C89.0297 52.0693 87.9671 52.8355 87.4847 53.9796L78.2199 76.0297L76.0896 81.4435Z" fill="#FEECD6"/>
<path d="M106.68 67.8504C108.341 66.3202 108.859 64.1793 107.837 63.0684C106.815 61.9576 104.64 62.2976 102.979 63.8278C101.317 65.3579 100.799 67.4989 101.821 68.6097C102.843 69.7205 105.019 69.3806 106.68 67.8504Z" fill="#B29EEF"/>
<path d="M76.7777 58.1564C75.9849 56.5869 74.9341 55.1508 74.305 53.5003C74.1903 53.1982 73.7012 53.3299 73.8176 53.6353C74.4653 55.3297 75.5279 56.8013 76.3425 58.4129C76.4876 58.7032 76.9244 58.4467 76.7777 58.1564Z" fill="white"/>
<path d="M69.8404 73.679C70.8996 76.0365 74.4855 76.4365 76.6815 76.1817C77.002 76.1445 77.0053 75.6383 76.6815 75.6754C74.6592 75.91 71.2623 75.618 70.2773 73.4241C70.144 73.1271 69.7072 73.3853 69.8404 73.679Z" fill="white"/>
<path d="M61.571 71.679C61.2961 67.0736 60.8626 62.4783 60.2706 57.9032C59.7916 54.1973 59.3395 50.4745 58.4372 46.8411C57.9868 45.0286 57.4235 43.2432 56.705 41.5168C56.0253 39.8815 54.9154 38.0977 55.6053 36.2734C53.7972 37.5729 52.6064 38.1045 50.5335 38.9145C48.8637 39.5676 47.1298 40.0503 45.4752 40.7422C44.5138 41.1438 43.571 41.6214 42.7867 42.3066C41.8995 43.0812 41.2484 44.087 40.6396 45.0945C39.9514 46.2336 39.2987 47.3963 38.7387 48.6046C37.8397 50.5437 37.1853 52.584 36.4381 54.5855C35.1023 58.1598 33.4645 61.6176 31.6733 64.9877C30.5432 67.1141 29.3288 69.2725 29.0117 71.6605C28.6946 74.0484 29.5059 76.7654 31.5974 77.9568C32.552 78.5003 33.6703 78.6758 34.7666 78.7585C42.7732 79.3575 50.3631 78.2572 59.4121 77.081C59.181 77.1755 59.66 77.0489 59.4121 77.081C59.6786 76.973 59.8321 76.7013 59.9585 76.4431C60.6889 74.9513 61.4647 73.3396 61.571 71.679Z" fill="#FB7C85"/>
<path d="M48.5042 58.0957C47.2662 61.1958 46.2458 64.3735 45.4429 67.6137C45.4092 67.7504 45.4868 67.8837 45.62 67.9259C49.8805 69.2625 54.3603 69.4498 58.7152 70.3324C59.3073 70.4522 61.1457 70.6125 61.279 71.2724C61.3717 71.7348 61.171 72.3727 61.0766 72.8216C60.746 74.3995 60.1793 76.0398 59.0745 77.2465C58.8552 77.4861 59.2111 77.8455 59.4321 77.6042C60.5756 76.3537 61.1913 74.6813 61.5438 73.0477C61.7344 72.1668 62.183 70.891 61.1525 70.4235C60.0561 69.9257 58.6562 69.7924 57.4772 69.5899C56.2021 69.3705 54.9203 69.195 53.6384 69.0161C50.9785 68.6448 48.3221 68.2448 45.7533 67.4382C45.8123 67.5411 45.8713 67.6458 45.9304 67.7504C46.7315 64.5085 47.7537 61.3325 48.9917 58.2324C49.1114 57.9286 48.6223 57.797 48.5042 58.0957Z" fill="white"/>
<path d="M45.6523 67.4365C44.2524 67.6475 42.9149 68.0475 41.6246 68.6246C41.3277 68.7579 41.5841 69.1933 41.8793 69.0617C43.1308 68.5014 44.4312 68.1285 45.7873 67.9243C46.1077 67.877 45.9711 67.3876 45.6523 67.4365Z" fill="white"/>
<path d="M63.1326 41.4189C61.9452 41.8492 60.6296 41.7176 59.3899 41.4695C58.1604 41.2232 56.8313 40.781 56.2005 39.6959C55.4044 38.3306 56.047 36.6262 56.4265 35.0921C56.9139 33.1328 56.9325 31.0588 56.4838 29.0911L61.1457 29.9906L62.7278 30.296C62.6857 32.3296 63.2052 34.3715 64.2155 36.1368C64.3116 36.3038 64.4111 36.4692 64.5089 36.6363C64.8766 37.2556 65.2308 37.8885 65.2679 38.5973C65.3354 39.8596 64.3217 40.9886 63.1326 41.4189Z" fill="#FFB9A3"/>
<path d="M64.5089 36.6362C60.1455 36.3156 58.4825 33.2796 57.9326 31.8215C58.2936 32.1101 58.6916 32.3497 59.1217 32.5269C60.3192 33.0214 61.7175 32.9674 62.8914 32.4341C63.1123 33.7336 63.561 34.9925 64.2154 36.1367C64.3116 36.3038 64.4111 36.4691 64.5089 36.6362Z" fill="#FF9B8D"/>
<mask id="path-43-inside-1_1_3504" fill="white">
<path d="M99.8713 24.5785C94.5314 24.5785 90.1865 20.2313 90.1865 14.8884C90.1865 9.54547 94.5314 5.19824 99.8713 5.19824C105.211 5.19824 109.556 9.54547 109.556 14.8884C109.556 20.2313 105.213 24.5785 99.8713 24.5785ZM99.8713 5.367C94.6241 5.367 90.3552 9.63828 90.3552 14.8884C90.3552 20.1385 94.6241 24.4097 99.8713 24.4097C105.119 24.4097 109.387 20.1385 109.387 14.8884C109.387 9.63828 105.119 5.367 99.8713 5.367Z"/>
</mask>
<path d="M99.8713 24.5785C94.5314 24.5785 90.1865 20.2313 90.1865 14.8884C90.1865 9.54547 94.5314 5.19824 99.8713 5.19824C105.211 5.19824 109.556 9.54547 109.556 14.8884C109.556 20.2313 105.213 24.5785 99.8713 24.5785ZM99.8713 5.367C94.6241 5.367 90.3552 9.63828 90.3552 14.8884C90.3552 20.1385 94.6241 24.4097 99.8713 24.4097C105.119 24.4097 109.387 20.1385 109.387 14.8884C109.387 9.63828 105.119 5.367 99.8713 5.367Z" fill="#F9F7F1"/>
<path d="M99.8713 19.5785C97.2954 19.5785 95.1865 17.4724 95.1865 14.8884H85.1865C85.1865 22.9901 91.7673 29.5785 99.8713 29.5785V19.5785ZM95.1865 14.8884C95.1865 12.3043 97.2954 10.1982 99.8713 10.1982V0.198242C91.7673 0.198242 85.1865 6.78664 85.1865 14.8884H95.1865ZM99.8713 10.1982C102.447 10.1982 104.556 12.3043 104.556 14.8884H114.556C114.556 6.78664 107.975 0.198242 99.8713 0.198242V10.1982ZM104.556 14.8884C104.556 17.473 102.448 19.5785 99.8713 19.5785V29.5785C107.978 29.5785 114.556 22.9895 114.556 14.8884H104.556ZM99.8713 0.367001C91.8601 0.367001 85.3552 6.87946 85.3552 14.8884H95.3552C95.3552 12.3971 97.3881 10.367 99.8713 10.367V0.367001ZM85.3552 14.8884C85.3552 22.8973 91.8601 29.4097 99.8713 29.4097V19.4097C97.3881 19.4097 95.3552 17.3796 95.3552 14.8884H85.3552ZM99.8713 29.4097C107.883 29.4097 114.387 22.8973 114.387 14.8884H104.387C104.387 17.3796 102.354 19.4097 99.8713 19.4097V29.4097ZM114.387 14.8884C114.387 6.87946 107.883 0.367001 99.8713 0.367001V10.367C102.354 10.367 104.387 12.3971 104.387 14.8884H114.387Z" fill="#F9F7F1" mask="url(#path-43-inside-1_1_3504)"/>
<mask id="path-45-inside-2_1_3504" fill="white">
<path d="M99.77 14.9863L101.042 7.51025L101.209 7.53894L99.9758 14.7905C101.592 14.5863 103.951 14.269 104.115 14.1897L104.145 14.2539L104.159 14.2555L104.221 14.1931L104.243 14.2842C104.223 14.345 104.194 14.4294 99.8847 14.9711L99.77 14.9863Z"/>
</mask>
<path d="M99.77 14.9863L101.042 7.51025L101.209 7.53894L99.9758 14.7905C101.592 14.5863 103.951 14.269 104.115 14.1897L104.145 14.2539L104.159 14.2555L104.221 14.1931L104.243 14.2842C104.223 14.345 104.194 14.4294 99.8847 14.9711L99.77 14.9863Z" fill="#F9F7F1"/>
<path d="M99.77 14.9863L94.8408 14.1478L93.7036 20.8333L100.426 19.943L99.77 14.9863ZM101.042 7.51025L101.888 2.58246L96.9525 1.7344L96.1126 6.67176L101.042 7.51025ZM101.209 7.53894L106.138 8.37704L106.975 3.45633L102.055 2.61115L101.209 7.53894ZM99.9758 14.7905L95.0465 13.9524L93.917 20.596L100.603 19.7511L99.9758 14.7905ZM104.115 14.1897L108.634 12.0503L106.475 7.48906L101.934 9.69058L104.115 14.1897ZM104.145 14.2539L99.626 16.3933L100.801 18.8745L103.525 19.2152L104.145 14.2539ZM104.159 14.2555L103.538 19.2169L105.966 19.5205L107.695 17.7901L104.159 14.2555ZM104.221 14.1931L109.082 13.0234L106.994 4.34527L100.685 10.6586L104.221 14.1931ZM104.243 14.2842L108.987 15.8646L109.439 14.5064L109.104 13.1145L104.243 14.2842ZM99.8847 14.9711L99.2611 10.0101L99.2447 10.0122L99.2283 10.0144L99.8847 14.9711ZM104.699 15.8248L105.971 8.34875L96.1126 6.67176L94.8408 14.1478L104.699 15.8248ZM100.195 12.4381L100.362 12.4667L102.055 2.61115L101.888 2.58246L100.195 12.4381ZM96.2795 6.70085L95.0465 13.9524L104.905 15.6286L106.138 8.37704L96.2795 6.70085ZM100.603 19.7511C101.424 19.6472 102.444 19.5135 103.289 19.3941C103.707 19.3351 104.11 19.2756 104.434 19.2227C104.59 19.1971 104.769 19.1665 104.937 19.1329C105.017 19.1168 105.142 19.0907 105.283 19.0552C105.29 19.0534 105.77 18.9438 106.296 18.6889L101.934 9.69058C102.252 9.53614 102.513 9.45333 102.591 9.42876C102.704 9.39326 102.792 9.37035 102.835 9.35936C102.884 9.34706 102.921 9.33883 102.939 9.33471C102.96 9.33029 102.972 9.32771 102.976 9.32701C102.977 9.32673 102.932 9.33547 102.819 9.35395C102.603 9.38924 102.285 9.43676 101.891 9.49244C101.111 9.60259 100.143 9.72962 99.3489 9.82996L100.603 19.7511ZM99.5957 16.3291L99.626 16.3933L108.664 12.1144L108.634 12.0503L99.5957 16.3291ZM103.525 19.2152L103.538 19.2169L104.779 9.29419L104.766 9.29251L103.525 19.2152ZM107.695 17.7901L107.758 17.7276L100.685 10.6586L100.622 10.721L107.695 17.7901ZM99.3598 15.3628L99.3818 15.4539L109.104 13.1145L109.082 13.0234L99.3598 15.3628ZM99.4993 12.7039C99.4896 12.7331 99.6271 12.2797 99.9144 11.785C100.233 11.2369 100.63 10.794 101.047 10.4506C101.428 10.1362 101.781 9.94224 102.007 9.83173C102.237 9.71913 102.428 9.64868 102.542 9.60998C102.661 9.56932 102.753 9.54333 102.805 9.52966C102.859 9.51531 102.895 9.5071 102.906 9.50457C102.926 9.50024 102.901 9.50623 102.807 9.52281C102.394 9.59536 101.422 9.73848 99.2611 10.0101L100.508 19.932C102.657 19.662 103.854 19.492 104.538 19.3718C104.804 19.325 105.295 19.2371 105.777 19.072C105.979 19.003 106.689 18.7593 107.407 18.1674C107.835 17.8147 108.239 17.3633 108.562 16.8071C108.713 16.5471 108.817 16.3146 108.886 16.1391C108.92 16.0543 108.946 15.9839 108.962 15.938C108.97 15.9149 108.976 15.8961 108.98 15.8842C108.982 15.8781 108.984 15.8732 108.985 15.87C108.985 15.8688 108.986 15.8669 108.986 15.8662C108.986 15.8655 108.987 15.8647 108.987 15.8646L99.4993 12.7039ZM99.2283 10.0144L99.1136 10.0295L100.426 19.943L100.541 19.9278L99.2283 10.0144Z" fill="#F9F7F1" mask="url(#path-45-inside-2_1_3504)"/>
<path d="M132.633 28.2423C132.244 27.0846 131.758 25.91 130.859 25.0831C129.152 23.512 126.32 23.6858 124.423 25.0223C122.525 26.3589 121.441 28.5899 120.874 30.8395C120.354 34.4222 120.486 36.9603 121.565 40.7304C122.092 42.5665 122.901 44.3891 124.315 45.675C125.728 46.961 127.845 47.6006 129.609 46.8699C131.292 46.1729 132.304 44.4364 132.918 42.7218C134.578 38.091 134.2 32.9034 132.633 28.2423Z" fill="#D196A8"/>
<path d="M46.9168 56.9599C47.2086 57.1928 47.4211 57.5016 47.6994 57.748C47.9642 57.9826 48.2712 58.1598 48.5782 58.3336C48.8632 58.4939 49.1179 58.0569 48.8329 57.8965C48.5326 57.7278 48.229 57.559 47.9794 57.3194C47.7365 57.0848 47.5392 56.8131 47.2744 56.6022C47.0214 56.4013 46.6621 56.7574 46.9168 56.9599Z" fill="white"/>
<path d="M74.2881 53.7365C74.6372 53.2404 74.9745 52.7358 75.3001 52.2244C75.4755 51.9493 75.0386 51.6945 74.8632 51.9696C74.5377 52.4809 74.2004 52.9855 73.8512 53.4817C73.664 53.7483 74.1025 54.0015 74.2881 53.7365Z" fill="white"/>
<path d="M55.0384 24.9683C55.2408 27.4457 55.8395 30.9323 58.1722 32.3211C59.2348 32.954 60.6583 33.4063 61.8997 33.2004C63.1596 32.9911 64.0772 32.0579 64.8429 31.1061C64.9947 30.9171 64.7282 30.6471 64.5747 30.8378C63.8528 31.7355 63.0112 32.6266 61.8221 32.819C60.6027 33.0164 59.1336 32.5304 58.1266 31.8452C56.133 30.4884 55.6017 27.1926 55.4196 24.97C55.3976 24.7253 55.0181 24.7236 55.0384 24.9683Z" fill="#FF9B8D"/>
<path d="M46.308 84.5924H38.8867L37.3384 74.5327H48.02L46.308 84.5924Z" fill="white"/>
<path d="M42.5875 85.8395C44.6424 85.8395 46.3082 85.2811 46.3082 84.5923C46.3082 83.9036 44.6424 83.3452 42.5875 83.3452C40.5325 83.3452 38.8667 83.9036 38.8667 84.5923C38.8667 85.2811 40.5325 85.8395 42.5875 85.8395Z" fill="white"/>
<path d="M42.68 75.7799C45.6301 75.7799 48.0217 75.2215 48.0217 74.5328C48.0217 73.844 45.6301 73.2856 42.68 73.2856C39.7299 73.2856 37.3384 73.844 37.3384 74.5328C37.3384 75.2215 39.7299 75.7799 42.68 75.7799Z" fill="white"/>
<path d="M42.68 75.5706C45.1336 75.5706 47.1226 75.1059 47.1226 74.5327C47.1226 73.9595 45.1336 73.4949 42.68 73.4949C40.2264 73.4949 38.2373 73.9595 38.2373 74.5327C38.2373 75.1059 40.2264 75.5706 42.68 75.5706Z" fill="#400F58"/>
<path d="M38.0387 75.5993C36.2846 75.8457 34.5288 76.0921 32.7746 76.3401C32.3766 76.3958 32.3159 76.9409 32.552 77.1856C33.7563 78.4496 34.9572 79.717 36.1665 80.9759C37.2089 82.0628 38.2816 83.1057 39.5921 83.8634C40.1571 84.1908 40.6665 83.3166 40.1032 82.9892C38.7808 82.2231 37.7284 81.1447 36.6809 80.0478C35.5424 78.8563 34.4056 77.6615 33.2688 76.4684C33.1946 76.7502 33.1204 77.0321 33.0462 77.3139C34.8003 77.0675 36.5561 76.8211 38.3103 76.573C38.9495 76.4853 38.6763 75.5099 38.0387 75.5993Z" fill="white"/>
<path d="M41.3074 74.5074C41.1489 74.3116 41.0005 74.1024 40.874 73.883C40.6817 73.5539 40.6412 73.505 40.7694 73.132C40.8976 72.7574 41.1961 72.6392 41.4103 72.3321C41.6414 72.003 41.7224 71.6064 41.4694 71.2655C41.1776 70.874 40.5805 70.7745 40.1302 70.8318C40.0222 70.8453 39.9193 70.8791 39.8164 70.9078C39.4875 70.9972 38.8871 70.9314 38.6628 70.6074C38.3271 70.1231 39.1806 69.4092 39.5027 69.1206C39.6849 68.9569 39.4167 68.6886 39.2345 68.8523C38.7319 69.3029 38.1534 69.7687 38.258 70.5146C38.3423 71.117 38.7336 71.5052 39.3459 71.4343C39.8029 71.3803 41.7493 70.7896 41.1101 72.052C40.9128 72.4418 40.4371 72.5802 40.2853 73.0021C40.0627 73.6214 40.6834 74.3353 41.0393 74.7757C41.1928 74.9664 41.4592 74.6964 41.3074 74.5074Z" fill="white"/>
<path d="M42.9853 73.8477C42.7813 73.6165 42.4574 73.2976 42.4152 72.9685C42.3292 72.2935 42.7981 72.2749 43.1068 71.9846C43.2653 71.8361 43.3766 71.6944 43.3986 71.475C43.4677 70.751 42.6379 70.6768 42.1774 70.4152C40.8129 69.6389 41.4893 68.1825 42.1302 67.2071C42.5738 66.5337 42.9634 65.884 42.9128 65.0503C42.8976 64.8073 42.5181 64.8056 42.5333 65.0503C42.648 66.8949 39.9662 68.3175 41.3948 70.2211C41.6343 70.5401 41.916 70.7088 42.2736 70.8641C42.7526 71.0733 43.0174 71.3889 42.5957 71.8817C42.503 71.9897 42.3427 72.0369 42.2432 72.1551C41.6866 72.8183 42.255 73.5963 42.7155 74.1161C42.8791 74.2983 43.1473 74.03 42.9853 73.8477Z" fill="white"/>
<path d="M44.5475 74.1414C44.4058 73.8376 44.2068 73.495 44.5256 73.2081C44.6116 73.1322 44.7398 73.1086 44.8393 73.0579C45.0383 72.955 45.1885 72.8318 45.2593 72.6124C45.4043 72.1635 45.1092 71.7551 44.6858 71.6302C44.4514 71.561 44.3502 71.9273 44.5846 71.9964C44.8815 72.0842 45.0451 72.4521 44.7482 72.6816C44.6791 72.7356 44.5138 72.7778 44.4295 72.8267C44.2878 72.906 44.163 72.9955 44.0786 73.1372C43.8425 73.5254 44.0466 73.9659 44.2186 74.3354C44.3232 74.5531 44.6504 74.3607 44.5475 74.1414Z" fill="white"/>
</svg>
