<svg width="121" height="99" viewBox="0 0 121 99" fill="none" xmlns="http://www.w3.org/2000/svg">
<path d="M94.5927 7.16979C94.5927 7.16979 77.3041 -4.28098 56.2453 1.75951C35.184 7.79813 20.808 26.6752 8.75576 41.6579C-3.29837 56.6431 -2.77202 75.0922 9.50746 86.5251C21.7869 97.9579 34.156 88.7498 54.1337 93.1621C74.1115 97.5744 78.7741 101.752 97.8967 94.6698C117.019 87.5877 126.266 61.8509 117.917 38.9992C109.565 16.1455 94.5927 7.16979 94.5927 7.16979Z" fill="#F1B869"/>
<path d="M39.6148 75.691C38.7803 75.9668 37.877 75.511 37.6015 74.6775L32.0292 57.8174C31.7901 57.0939 31.0097 56.7001 30.2879 56.9387C29.566 57.1773 29.174 57.9585 29.4131 58.682L33.5728 71.2678C33.8176 72.0086 33.416 72.8091 32.6767 73.0534C31.9375 73.2977 31.138 72.8943 30.8931 72.1534L28.5967 65.205C28.4197 64.6696 27.8431 64.3787 27.3089 64.5553C26.7748 64.7318 26.4851 65.3091 26.662 65.8444L27.5162 68.4287L25.3852 69.133L25.2895 68.8436L27.1318 68.2348L26.3733 65.9399C26.1437 65.2453 26.5203 64.4949 27.2133 64.2659C27.9063 64.0368 28.6559 64.415 28.8854 65.1096L31.1819 72.058C31.3741 72.6397 32.0007 72.9558 32.5811 72.764C33.1615 72.5722 33.4763 71.9449 33.284 71.3632L29.1243 58.7774C28.8326 57.8948 29.3115 56.9404 30.1922 56.6493C31.0729 56.3582 32.0262 56.8393 32.3179 57.7219L37.8903 74.5821C38.1131 75.2564 38.8435 75.6249 39.5192 75.4016C40.192 75.1792 40.5589 74.4481 40.336 73.7738L33.5375 53.2036C33.1836 52.1328 33.7648 50.9745 34.8332 50.6214C35.9016 50.2683 37.0586 50.8521 37.4125 51.9228L44.1795 72.3976C44.4186 73.121 45.1989 73.5148 45.9208 73.2762C46.6427 73.0376 47.0347 72.2564 46.7956 71.5329L41.4031 55.2168C41.0645 54.1924 41.6206 53.0841 42.6428 52.7462C43.665 52.4084 44.772 52.967 45.1106 53.9915L49.0885 66.0274C49.2961 66.6554 49.9765 66.9987 50.6031 66.7916C51.2297 66.5845 51.5715 65.9034 51.3639 65.2754L49.2013 58.7322C48.9517 57.9768 49.3611 57.161 50.1147 56.9119C50.8684 56.6628 51.6862 57.0731 51.9358 57.8284L52.5929 59.8166L54.7239 59.1123L54.8195 59.4017L52.3998 60.2014L51.6471 57.9238C51.45 57.3277 50.8052 57.0047 50.2104 57.2013C49.6156 57.3979 49.294 58.0435 49.4901 58.6367L51.6527 65.18C51.9128 65.9671 51.4841 66.8214 50.6987 67.081C49.9133 67.3406 49.0599 66.91 48.7998 66.1228L44.8219 54.0869C44.5359 53.2216 43.6018 52.7503 42.7384 53.0356C41.8751 53.321 41.4058 54.2561 41.6918 55.1214L47.0843 71.4375C47.3761 72.3202 46.8972 73.2745 46.0165 73.5656C45.1358 73.8567 44.1825 73.3756 43.8907 72.493L37.1238 52.0183C36.8225 51.1067 35.8384 50.6101 34.9289 50.9108C34.0193 51.2114 33.5249 52.1965 33.8262 53.1081L40.6248 73.6783C40.9031 74.5108 40.4493 75.4152 39.6148 75.691Z" fill="#FEDEA5"/>
<path d="M67.4787 66.4808C66.6442 66.7566 65.7409 66.3008 65.4654 65.4673L59.893 48.6072C59.6539 47.8837 58.8736 47.4899 58.1517 47.7285C57.4298 47.9671 57.0378 48.7483 57.277 49.4718L61.4366 62.0576C61.6815 62.7985 61.2798 63.5989 60.5406 63.8432C59.8014 64.0875 59.0019 63.6841 58.757 62.9432L56.4605 55.9948C56.2836 55.4595 55.707 55.1685 55.1728 55.3451C54.6386 55.5216 54.349 56.0989 54.5259 56.6342L55.38 59.2185L53.249 59.9228L53.1534 59.6334L54.9956 59.0246L54.2372 56.7297C54.0076 56.0351 54.3842 55.2847 55.0772 55.0557C55.7702 54.8266 56.5197 55.2049 56.7493 55.8994L59.0458 62.8478C59.238 63.4295 59.8646 63.7456 60.445 63.5538C61.0253 63.362 61.3401 62.7347 61.1479 62.153L56.9882 49.5672C56.6965 48.6846 57.1754 47.7302 58.0561 47.4391C58.9368 47.1481 59.8901 47.6291 60.1818 48.5117L65.7541 65.3719C65.977 66.0462 66.7074 66.4147 67.383 66.1914C68.0558 65.9691 68.4227 65.2379 68.1999 64.5636L61.4013 43.9934C61.0474 42.9226 61.6287 41.7643 62.6971 41.4112C63.7655 41.0581 64.9225 41.6419 65.2764 42.7127L72.0433 63.1874C72.2825 63.9109 73.0628 64.3046 73.7847 64.066C74.5065 63.8274 74.8985 63.0462 74.6594 62.3227L69.2669 46.0066C68.9283 44.9822 69.4845 43.8739 70.5066 43.536C71.5288 43.1982 72.6359 43.7568 72.9745 44.7813L76.9524 56.8172C77.1599 57.4452 77.8403 57.7885 78.4669 57.5814C79.0935 57.3743 79.4353 56.6932 79.2278 56.0652L77.0652 49.522C76.8156 48.7667 77.2249 47.9508 77.9815 47.7008C78.7351 47.4517 79.55 47.8629 79.7997 48.6182L80.4568 50.6064L82.5877 49.9021L82.6834 50.1915L80.2637 50.9912L79.5109 48.7137C79.3139 48.1175 78.6719 47.7936 78.0771 47.9902C77.4823 48.1868 77.1579 48.8333 77.3539 49.4265L79.5165 55.9698C79.7767 56.7569 79.348 57.6113 78.5626 57.8708C77.7772 58.1304 76.9238 57.6998 76.6636 56.9127L72.6857 44.8767C72.3997 44.0114 71.4656 43.5401 70.6023 43.8254C69.7389 44.1108 69.2697 45.0459 69.5557 45.9112L74.9482 62.2273C75.2399 63.11 74.761 64.0643 73.8803 64.3554C72.9996 64.6465 72.0463 64.1655 71.7546 63.2828L64.9876 42.8081C64.6863 41.8965 63.7023 41.4 62.7927 41.7006C61.8832 42.0012 61.3888 42.9863 61.6901 43.8979L68.4886 64.4682C68.767 65.3007 68.3132 66.205 67.4787 66.4808Z" fill="#FEDEA5"/>
<path d="M95.3435 57.2716C94.509 57.5474 93.6057 57.0916 93.3302 56.2581L87.7579 39.398C87.5188 38.6745 86.7385 38.2807 86.0166 38.5193C85.2947 38.7579 84.9027 39.5391 85.1418 40.2626L89.3015 52.8484C89.5463 53.5892 89.1447 54.3897 88.4055 54.634C87.6662 54.8783 86.8667 54.4749 86.6218 53.734L84.3254 46.7856C84.1484 46.2502 83.5718 45.9593 83.0376 46.1359C82.5035 46.3124 82.2138 46.8897 82.3907 47.425L83.2449 50.0093L81.1139 50.7136L81.0182 50.4242L82.8605 49.8154L82.102 47.5205C81.8724 46.8259 82.249 46.0755 82.942 45.8465C83.635 45.6174 84.3846 45.9956 84.6141 46.6902L86.9106 53.6386C87.1028 54.2203 87.7294 54.5364 88.3098 54.3446C88.8902 54.1528 89.205 53.5255 89.0127 52.9438L84.8531 40.358C84.5613 39.4754 85.0402 38.521 85.9209 38.2299C86.8016 37.9388 87.7549 38.4199 88.0467 39.3025L93.619 56.1627C93.8419 56.837 94.5722 57.2055 95.2479 56.9822C95.9236 56.7589 96.2876 56.0287 96.0647 55.3544L89.2662 34.7842C88.9123 33.7134 89.4935 32.5551 90.5619 32.202C91.6303 31.8489 92.7873 32.4327 93.1412 33.5034L99.9082 53.9782C100.147 54.7016 100.928 55.0954 101.65 54.8568C102.371 54.6182 102.763 53.837 102.524 53.1135L97.1318 36.7974C96.7932 35.773 97.3493 34.6647 98.3715 34.3268C99.3937 33.989 100.501 34.5476 100.839 35.5721L104.817 47.608C105.025 48.236 105.705 48.5793 106.332 48.3722C106.958 48.1651 107.3 47.484 107.093 46.856L104.93 40.3128C104.68 39.5574 105.09 38.7416 105.846 38.4916C106.6 38.2425 107.415 38.6537 107.665 39.409L108.322 41.3972L110.453 40.6929L110.548 40.9823L108.129 41.782L107.376 39.5044C107.179 38.9083 106.537 38.5844 105.942 38.781C105.347 38.9776 105.023 39.6241 105.219 40.2173L107.381 46.7606C107.642 47.5477 107.213 48.402 106.427 48.6616C105.642 48.9212 104.789 48.4906 104.528 47.7034L100.551 35.6675C100.265 34.8022 99.3305 34.3309 98.4671 34.6162C97.6038 34.9016 97.1345 35.8367 97.4205 36.702L102.813 53.0181C103.105 53.9008 102.626 54.8551 101.745 55.1462C100.864 55.4373 99.9112 54.9562 99.6195 54.0736L92.8525 33.5989C92.5512 32.6873 91.5671 32.1907 90.6576 32.4914C89.748 32.792 89.2537 33.7771 89.5549 34.6887L96.3535 55.2589C96.6318 56.0914 96.178 56.9958 95.3435 57.2716Z" fill="#FEDEA5"/>
<path d="M52.3171 10.5944L51.4304 7.91175L49.5575 10.017L52.3171 10.5944Z" fill="#263238"/>
<path d="M48.7439 8.72865L48.3223 8.86798L49.2281 11.6086L49.6496 11.4692L48.7439 8.72865Z" fill="#263238"/>
<path d="M64.5776 6.54192L66.4496 4.43376L63.691 3.85923L64.5776 6.54192Z" fill="#263238"/>
<path d="M66.7595 2.77521L66.3379 2.91454L67.2437 5.65511L67.6652 5.51578L66.7595 2.77521Z" fill="#263238"/>
<path d="M56.852 3.28553C54.8828 3.93639 53.8178 6.06354 54.4691 8.03432C55.1214 10.008 57.2462 11.0777 59.2126 10.4278C61.1819 9.77695 62.2469 7.64981 61.5955 5.67902C60.9432 3.70535 58.8213 2.63468 56.852 3.28553ZM58.1487 8.90475L57.089 9.25499L55.8446 5.48996L56.9043 5.13972L58.1487 8.90475ZM60.219 8.22049L59.1593 8.57073L57.915 4.8057L58.9747 4.45546L60.219 8.22049Z" fill="#263238"/>
<path d="M96.8468 23.5956C96.6072 23.6748 96.3496 23.5449 96.2702 23.3047L94.9742 19.3834C94.8948 19.1432 95.0242 18.8853 95.2639 18.8061C95.5035 18.7269 95.7611 18.8569 95.8405 19.0971L97.1365 23.0184C97.2149 23.2557 97.0865 23.5164 96.8468 23.5956Z" fill="#FFDB9D"/>
<path d="M95.2577 23.546C95.0181 23.6252 94.7605 23.4952 94.6811 23.255L93.7275 20.3698C93.6482 20.1296 93.7775 19.8717 94.0172 19.7925C94.2569 19.7133 94.5144 19.8433 94.5938 20.0835L95.5474 22.9687C95.6268 23.2089 95.4974 23.4668 95.2577 23.546Z" fill="#FFDB9D"/>
<path d="M93.8403 24.0143C93.6007 24.0935 93.3431 23.9635 93.2637 23.7233L92.3101 20.8381C92.2308 20.5979 92.3601 20.34 92.5998 20.2608C92.8395 20.1816 93.097 20.3116 93.1764 20.5518L94.13 23.437C94.2094 23.6772 94.08 23.9351 93.8403 24.0143Z" fill="#FFDB9D"/>
<path d="M110.848 18.3935C110.608 18.4727 110.351 18.3427 110.271 18.1025L109.318 15.2173C109.238 14.9771 109.368 14.7192 109.607 14.64C109.847 14.5608 110.104 14.6908 110.184 14.931L111.137 17.8162C111.217 18.0564 111.087 18.3143 110.848 18.3935Z" fill="#FFDB9D"/>
<path d="M109.43 18.862C109.19 18.9412 108.933 18.8113 108.853 18.5711L107.9 15.6858C107.82 15.4456 107.95 15.1878 108.189 15.1086C108.429 15.0293 108.687 15.1593 108.766 15.3995L109.719 18.2848C109.799 18.525 109.669 18.7828 109.43 18.862Z" fill="#FFDB9D"/>
<path d="M98.2647 23.1266C98.025 23.2058 97.7675 23.0758 97.6881 22.8356L96.3921 18.9143C96.3127 18.6741 96.4421 18.4163 96.6818 18.3371C96.9214 18.2579 97.179 18.3878 97.2584 18.628L98.5544 22.5493C98.6328 22.7866 98.5015 23.0483 98.2647 23.1266Z" fill="#FFDB9D"/>
<path d="M99.9073 23.3477C99.6676 23.4269 99.4101 23.2969 99.3307 23.0567L97.5784 17.755C97.499 17.5148 97.6284 17.257 97.8681 17.1777C98.1078 17.0985 98.3653 17.2285 98.4447 17.4687L100.197 22.7704C100.276 23.0106 100.147 23.2684 99.9073 23.3477Z" fill="#FFDB9D"/>
<path d="M101.685 23.9677C101.445 24.0469 101.188 23.917 101.108 23.6768L98.6377 16.2017C98.5583 15.9615 98.6877 15.7037 98.9273 15.6244C99.167 15.5452 99.4246 15.6752 99.5039 15.9154L101.974 23.3905C102.053 23.6278 101.924 23.8885 101.685 23.9677Z" fill="#FFDB9D"/>
<path d="M108.187 19.8478C107.947 19.927 107.689 19.797 107.61 19.5568L106.314 15.6355C106.235 15.3953 106.364 15.1375 106.604 15.0583C106.843 14.9791 107.101 15.109 107.18 15.3492L108.476 19.2705C108.555 19.5078 108.423 19.7695 108.187 19.8478Z" fill="#FFDB9D"/>
<path d="M106.768 20.3165C106.528 20.3958 106.271 20.2658 106.192 20.0256L104.896 16.1043C104.816 15.8641 104.946 15.6063 105.185 15.5271C105.425 15.4478 105.682 15.5778 105.762 15.818L107.058 19.7393C107.136 19.9766 107.008 20.2373 106.768 20.3165Z" fill="#FFDB9D"/>
<path d="M105.578 21.4737C105.339 21.5529 105.081 21.423 105.002 21.1828L103.25 15.8811C103.17 15.6409 103.3 15.383 103.539 15.3038C103.779 15.2246 104.036 15.3546 104.116 15.5948L105.868 20.8965C105.947 21.1367 105.818 21.3945 105.578 21.4737Z" fill="#FFDB9D"/>
<path d="M104.52 23.0306C104.28 23.1098 104.023 22.9799 103.944 22.7397L101.473 15.2646C101.394 15.0244 101.523 14.7666 101.763 14.6874C102.002 14.6081 102.26 14.7381 102.339 14.9783L104.81 22.4534C104.888 22.6907 104.76 22.9514 104.52 23.0306Z" fill="#FFDB9D"/>
<path d="M103.558 24.8791C103.319 24.9583 103.061 24.8283 102.982 24.5881L99.5978 14.3493C99.5184 14.1091 99.6478 13.8513 99.8875 13.7721C100.127 13.6929 100.385 13.8228 100.464 14.063L103.848 24.3018C103.927 24.542 103.798 24.7999 103.558 24.8791Z" fill="#FFDB9D"/>
<path d="M17.0293 39.0267C16.148 37.591 14.3688 36.9175 12.746 37.4538C11.1116 37.9939 10.0765 39.6201 10.2493 41.3157C8.65004 42.1267 7.85002 44.0186 8.42295 45.7521C9.02456 47.5724 10.882 48.6181 12.7469 48.1847L12.5781 47.4605C11.0913 47.8074 9.60764 46.972 9.1275 45.5193C8.64544 44.0607 9.3795 42.4634 10.7956 41.8831L11.0718 41.7693L11.0185 41.4723C10.7567 40.0405 11.5991 38.6161 12.9794 38.1599C14.3625 37.7028 15.8888 38.3475 16.5308 39.6601L16.6898 39.9864L17.0181 39.8361C17.1183 39.7902 17.2193 39.7472 17.3233 39.7128C18.8595 39.2051 20.521 40.0459 21.0289 41.5826C21.5377 43.1222 20.7006 44.7856 19.1674 45.2923L19.4007 45.9985C21.3238 45.3629 22.3705 43.2771 21.7334 41.3497C21.0917 39.3983 18.9611 38.3304 17.0293 39.0267Z" fill="#4A5161"/>
<path d="M16.8119 42.2349C16.7756 42.1249 16.6882 42.035 16.5767 41.998C16.4652 41.9611 16.343 41.979 16.2467 42.0461L12.9112 44.3683C12.7754 44.4613 12.7203 44.6337 12.7719 44.7899L14.1751 49.0354C14.0385 49.0291 13.8961 49.0441 13.7604 49.089C13.1598 49.2875 12.8334 49.9378 13.0324 50.5398C13.2313 51.1417 13.881 51.4695 14.4816 51.271C15.0504 51.083 15.367 50.4904 15.2325 49.9186L15.244 49.9147L14.1737 46.6764L16.8773 44.7974L17.4971 46.6726C17.3634 46.6655 17.2249 46.6824 17.0892 46.7272C16.4886 46.9257 16.1622 47.5761 16.3612 48.178C16.5601 48.78 17.2097 49.1078 17.8103 48.9093C18.4109 48.7108 18.7373 48.0604 18.5384 47.4585C18.5364 47.4527 18.5316 47.4478 18.5297 47.4421L16.809 42.2358L16.8119 42.2349ZM16.6325 44.0565L13.9298 45.9384L13.5597 44.8185L16.2633 42.9394L16.6325 44.0565Z" fill="#4A5161"/>
<path d="M46.7153 25.9178C46.5824 25.5155 46.9875 24.9001 46.8103 24.5285C46.6273 24.1493 45.8944 24.0833 45.6652 23.7385C45.434 23.388 45.6662 22.6853 45.3965 22.3732C45.122 22.0562 44.3955 22.184 44.0863 21.9074C43.7732 21.6289 43.8179 20.8918 43.4711 20.6566C43.1243 20.4213 42.459 20.7342 42.0862 20.5461C41.7133 20.358 41.5675 19.6357 41.1724 19.4967C40.7812 19.3595 40.2137 19.8328 39.8041 19.7467C39.3983 19.6625 39.0677 19.0013 38.6503 18.9692C38.2367 18.9389 37.8153 19.5437 37.3968 19.5664C36.985 19.5902 36.4945 19.0364 36.0817 19.1151C35.6776 19.1909 35.4272 19.8868 35.0258 20.0194C34.6244 20.1521 34.0096 19.7454 33.6389 19.9224C33.2605 20.1053 33.1957 20.8393 32.8518 21.0685C32.5022 21.2997 31.8005 21.0661 31.4893 21.3359C31.1733 21.6105 31.3017 22.3384 31.0261 22.6478C30.7484 22.9611 30.0127 22.9154 29.7783 23.2625C29.5439 23.6096 29.8572 24.2765 29.6698 24.6497C29.4825 25.023 28.7618 25.1681 28.6235 25.5637C28.4871 25.9555 28.9603 26.5246 28.8749 26.9348C28.7914 27.3412 28.1318 27.6715 28.1003 28.0896C28.0706 28.5039 28.6749 28.927 28.6981 29.3462C28.7224 29.7587 28.1703 30.2494 28.2493 30.663C28.3284 31.067 29.0205 31.3198 29.1535 31.722C29.2864 32.1243 28.8813 32.7397 29.0585 33.1113C29.2415 33.4906 29.9744 33.5565 30.2036 33.9013C30.4348 34.2518 30.2026 34.9545 30.4723 35.2666C30.7468 35.5836 31.4733 35.4558 31.7825 35.7324C32.0956 36.011 32.0509 36.748 32.3977 36.9833C32.7445 37.2185 33.4098 36.9056 33.7826 37.0937C34.1555 37.2819 34.3013 38.0041 34.6964 38.1432C35.0876 38.2803 35.6551 37.8071 36.0647 37.8932C36.4705 37.9773 36.8011 38.6385 37.2185 38.6707C37.632 38.7009 38.0535 38.0961 38.472 38.0734C38.8837 38.0497 39.3742 38.6034 39.787 38.5248C40.1902 38.4461 40.4416 37.7531 40.843 37.6204C41.2444 37.4878 41.8592 37.8945 42.2299 37.7174C42.6083 37.5346 42.6731 36.8005 43.0169 36.5713C43.3666 36.3402 44.0683 36.5737 44.3795 36.3039C44.6955 36.0293 44.567 35.3014 44.8427 34.992C45.1204 34.6787 45.8561 34.7245 46.0905 34.3774C46.3249 34.0302 46.0116 33.3634 46.1989 32.9901C46.3863 32.6168 47.107 32.4717 47.2453 32.0761C47.3817 31.6843 46.9085 31.1152 46.9939 30.705C47.0774 30.2986 47.7369 29.9683 47.7685 29.5502C47.7981 29.1359 47.1939 28.7129 47.1706 28.2936C47.1464 27.8811 47.6985 27.3905 47.6194 26.9768C47.5423 26.569 46.8483 26.32 46.7153 25.9178Z" fill="#4A5161"/>
<path d="M39.8867 38.6548C39.8636 38.6624 39.8396 38.6672 39.8155 38.6719C39.5442 38.7231 39.278 38.5767 39.0224 38.4333C38.8302 38.3267 38.6342 38.2181 38.4831 38.2263C38.3263 38.2364 38.1395 38.3688 37.9584 38.4992C37.7234 38.67 37.4768 38.8446 37.2075 38.8245C36.9344 38.8024 36.7145 38.5926 36.5061 38.3886C36.3496 38.2349 36.1854 38.0773 36.0335 38.044C35.8816 38.0107 35.6679 38.091 35.46 38.1694C35.1866 38.2725 34.9046 38.3786 34.647 38.2872C34.3893 38.1958 34.233 37.9361 34.0834 37.687C33.9693 37.4968 33.8533 37.3008 33.7149 37.2309C33.5765 37.1611 33.3505 37.1845 33.1301 37.2059C32.8386 37.2349 32.5375 37.2638 32.3108 37.1108C32.0841 36.9578 32.0009 36.6675 31.9206 36.3859C31.8595 36.1717 31.7964 35.9518 31.6793 35.8493C31.565 35.7458 31.339 35.7114 31.1217 35.6741C30.8332 35.625 30.5322 35.5768 30.3546 35.369C30.178 35.1642 30.1709 34.8616 30.1676 34.5705C30.1642 34.347 30.1588 34.1176 30.0735 33.9853C29.99 33.8588 29.7824 33.7637 29.5864 33.6744C29.3182 33.5512 29.0405 33.4279 28.9217 33.175C28.8058 32.9309 28.8765 32.6411 28.9473 32.3609C29.0006 32.1442 29.0578 31.9199 29.008 31.7694C28.9583 31.6189 28.7787 31.4728 28.6068 31.3306C28.383 31.1478 28.1496 30.9553 28.101 30.692C28.0496 30.4201 28.1954 30.1537 28.3382 29.8978C28.4444 29.7054 28.5525 29.5092 28.5441 29.3579C28.5338 29.2008 28.4014 29.0134 28.2719 28.8347C28.1011 28.599 27.9265 28.3518 27.9463 28.082C27.968 27.8084 28.1771 27.5884 28.3805 27.38C28.5337 27.2234 28.6908 27.0591 28.7238 26.907C28.7568 26.7548 28.6764 26.5407 28.5979 26.3323C28.4945 26.0583 28.3883 25.7756 28.4792 25.5176C28.5701 25.2597 28.8291 25.1034 29.0776 24.9539C29.2673 24.8398 29.4628 24.7239 29.5323 24.5853C29.6018 24.4468 29.5782 24.2203 29.5565 23.9995C29.5272 23.7075 29.498 23.4057 29.6513 23.1817C29.8037 22.9548 30.0934 22.8719 30.3745 22.7918C30.5881 22.7309 30.8075 22.668 30.9097 22.5507C31.0129 22.4364 31.047 22.2101 31.0839 21.9924C31.1326 21.7035 31.1803 21.402 31.3874 21.2244C31.5917 21.0477 31.8937 21.041 32.1842 21.0381C32.4074 21.035 32.6363 21.0299 32.7683 20.9446C32.8944 20.8611 32.9891 20.6533 33.078 20.457C33.2006 20.1886 33.3233 19.9105 33.5727 19.7927C33.8162 19.6769 34.1056 19.7482 34.3854 19.8194C34.6018 19.8731 34.8258 19.9307 34.9759 19.8811C35.1261 19.8315 35.2717 19.6517 35.4134 19.4797C35.5956 19.2558 35.7875 19.0222 36.0502 18.9739C36.3215 18.9228 36.5877 19.0691 36.8462 19.2116C37.0383 19.3182 37.2344 19.4268 37.3854 19.4186C37.5422 19.4085 37.7291 19.2761 37.9073 19.1466C38.1423 18.9758 38.3889 18.8012 38.6582 18.8214C38.9313 18.8435 39.1512 19.0533 39.3595 19.2573C39.516 19.411 39.6802 19.5686 39.8321 19.6018C39.9841 19.6351 40.2006 19.5539 40.4057 19.4765C40.6791 19.3733 40.9611 19.2672 41.2187 19.3586C41.4763 19.4501 41.6326 19.7098 41.7832 19.9618C41.8973 20.152 42.0133 20.348 42.1517 20.4178C42.2901 20.4876 42.5162 20.4642 42.7365 20.4428C43.028 20.4139 43.3291 20.385 43.5558 20.5379C43.7826 20.6909 43.8657 20.9812 43.946 21.2629C44.0071 21.477 44.0702 21.6969 44.1874 21.7994C44.3016 21.9029 44.5276 21.9374 44.7449 21.9747C45.0334 22.0238 45.3344 22.072 45.512 22.2797C45.6886 22.4846 45.6957 22.7872 45.699 23.0782C45.7024 23.3018 45.7078 23.5311 45.7931 23.6634C45.8766 23.7899 46.0842 23.885 46.2802 23.9743C46.5484 24.0976 46.8261 24.2208 46.944 24.4708C47.0599 24.715 46.9891 25.0048 46.9184 25.285C46.8651 25.5016 46.8079 25.726 46.8576 25.8764C46.9074 26.0269 47.087 26.173 47.2589 26.3152C47.4827 26.4981 47.7161 26.6906 47.7646 26.9538C47.8161 27.2257 47.6703 27.4922 47.5284 27.7509C47.4222 27.9433 47.3113 28.1405 47.3225 28.2909C47.3328 28.448 47.4652 28.6353 47.5957 28.8169C47.7664 29.0526 47.9411 29.2998 47.9213 29.5696C47.8996 29.8432 47.6905 30.0632 47.4871 30.2716C47.3339 30.4282 47.1768 30.5925 47.1438 30.7446C47.1108 30.8968 47.1912 31.111 47.2697 31.3194C47.3731 31.5934 47.4793 31.876 47.3884 32.134C47.2975 32.392 47.0384 32.5482 46.7871 32.6987C46.5974 32.8127 46.4019 32.9287 46.3324 33.0673C46.2629 33.2058 46.2865 33.4323 46.3082 33.6531C46.3375 33.9451 46.3667 34.2468 46.2143 34.4738C46.061 34.6978 45.7722 34.7836 45.4912 34.8636C45.2775 34.9246 45.0581 34.9875 44.9559 35.1047C44.8528 35.2191 44.8187 35.4454 44.7817 35.6631C44.7331 35.952 44.6854 36.2535 44.4782 36.4311C44.274 36.6077 43.9719 36.6145 43.6814 36.6174C43.4583 36.6205 43.2322 36.6246 43.0974 36.7109C42.9712 36.7943 42.8766 37.0022 42.7877 37.1985C42.665 37.4669 42.5423 37.745 42.2901 37.8637C42.0504 37.9815 41.7571 37.9082 41.4773 37.837C41.261 37.7833 41.037 37.7257 40.8868 37.7753C40.7367 37.825 40.5911 38.0047 40.4494 38.1767C40.2855 38.3689 40.1148 38.5794 39.8867 38.6548ZM38.2817 37.9558C38.3394 37.9368 38.3991 37.9235 38.4616 37.9188C38.7002 37.9042 38.9394 38.037 39.1672 38.1639C39.3757 38.2812 39.5948 38.4014 39.7574 38.3701C39.9133 38.3379 40.0666 38.1524 40.217 37.9678C40.3857 37.7612 40.5621 37.5488 40.796 37.4715C41.0299 37.3942 41.2991 37.4625 41.5568 37.525C41.7837 37.5817 42.0212 37.6412 42.1656 37.5742C42.3148 37.5024 42.4162 37.2763 42.5167 37.0569C42.6239 36.8192 42.7369 36.57 42.9372 36.4396C43.1424 36.3044 43.4165 36.3005 43.6811 36.2965C43.9167 36.2924 44.162 36.2884 44.2844 36.1838C44.4087 36.0753 44.4496 35.8307 44.4875 35.5966C44.5294 35.3356 44.5722 35.0679 44.7332 34.8862C44.8941 34.7046 45.1569 34.6274 45.4119 34.556C45.64 34.4902 45.8768 34.4216 45.9675 34.2889C46.0601 34.1524 46.0336 33.9075 46.01 33.6714C45.9835 33.4073 45.9581 33.1364 46.0653 32.918C46.1724 32.6996 46.4084 32.5606 46.6356 32.4245C46.8388 32.3028 47.0497 32.1753 47.1048 32.0223C47.1571 31.8702 47.0709 31.6386 46.9877 31.4158C46.8929 31.1678 46.7982 30.9102 46.8477 30.6724C46.8972 30.4345 47.0861 30.2405 47.2702 30.0512C47.4378 29.8802 47.6094 29.7016 47.6193 29.5378C47.6302 29.3769 47.4873 29.177 47.3501 28.9848C47.1956 28.7694 47.0354 28.5463 47.0214 28.3005C47.0065 28.0615 47.1387 27.8219 47.2652 27.594C47.3819 27.3852 47.5016 27.1659 47.4702 27.003C47.4407 26.8458 47.2524 26.6929 47.068 26.542C46.8615 26.3727 46.6493 26.1957 46.5718 25.9613C46.4943 25.7269 46.5622 25.4573 46.6242 25.1992C46.6804 24.972 46.7396 24.7342 46.6725 24.5894C46.6006 24.4398 46.3748 24.3379 46.1557 24.237C45.9183 24.1293 45.6694 24.0157 45.5389 23.8149C45.4037 23.6092 45.3994 23.3345 45.3951 23.0695C45.3907 22.8334 45.3863 22.5877 45.2817 22.465C45.1733 22.3403 44.929 22.299 44.6954 22.2607C44.4348 22.2184 44.1674 22.1752 43.9859 22.0137C43.8044 21.8522 43.727 21.5888 43.6554 21.3332C43.5894 21.1047 43.5206 20.8674 43.388 20.7764C43.2526 20.6863 43.0072 20.7096 42.7715 20.733C42.5079 20.7591 42.2376 20.7842 42.0194 20.6766C41.8042 20.568 41.6622 20.3324 41.5261 20.1045C41.4043 19.9008 41.2768 19.6894 41.1239 19.6339C40.972 19.5814 40.741 19.6674 40.5187 19.7505C40.2703 19.8422 40.0143 19.9397 39.7768 19.8898C39.5393 19.8399 39.3453 19.6504 39.1562 19.4657C38.9853 19.2975 38.8067 19.1254 38.6432 19.1152C38.4826 19.1041 38.2832 19.2471 38.0915 19.3842C37.8767 19.5387 37.6542 19.6989 37.4089 19.7126C37.1703 19.7272 36.9311 19.5944 36.7033 19.4675C36.4948 19.3502 36.2757 19.23 36.1131 19.2613C35.9563 19.2906 35.8039 19.479 35.6535 19.6636C35.4848 19.8702 35.3093 20.0855 35.0754 20.1628C34.8415 20.2401 34.5723 20.1718 34.3137 20.1064C34.0868 20.0497 33.8493 19.9902 33.7049 20.0572C33.5557 20.129 33.4543 20.3551 33.3538 20.5745C33.2466 20.8122 33.1336 21.0614 32.9333 21.1918C32.7281 21.327 32.454 21.3309 32.1894 21.3349C31.9538 21.339 31.7085 21.343 31.5861 21.4476C31.4618 21.5561 31.421 21.8008 31.383 22.0348C31.3411 22.2958 31.2983 22.5635 31.1373 22.7452C30.9764 22.9268 30.7127 23.0011 30.4586 23.0754C30.2305 23.1412 29.9937 23.2098 29.903 23.3425C29.8133 23.4781 29.8369 23.7239 29.8605 23.96C29.887 24.2241 29.9124 24.495 29.8052 24.7134C29.6981 24.9318 29.4621 25.0708 29.2349 25.2069C29.0317 25.3286 28.8208 25.4561 28.7657 25.6091C28.7134 25.7612 28.7996 25.9928 28.8828 26.2156C28.9747 26.4645 29.0723 26.7212 29.0228 26.959C28.9733 27.1969 28.7844 27.3909 28.6004 27.5802C28.4327 27.7512 28.2611 27.9298 28.2512 28.0936C28.2403 28.2545 28.3832 28.4544 28.5204 28.6466C28.6749 28.862 28.8351 29.0851 28.8491 29.3309C28.864 29.5699 28.7318 29.8095 28.6053 30.0374C28.4886 30.2462 28.3689 30.4655 28.4003 30.6284C28.4298 30.7856 28.6181 30.9385 28.8025 31.0894C29.009 31.2587 29.2212 31.4357 29.2987 31.6701C29.3762 31.9045 29.3083 32.1741 29.2463 32.4322C29.1901 32.6594 29.1309 32.8972 29.198 33.042C29.2699 33.1916 29.4967 33.2964 29.7148 33.3944C29.9522 33.5021 30.2012 33.6157 30.3316 33.8165C30.4668 34.0222 30.4711 34.2969 30.4754 34.5619C30.4798 34.798 30.4842 35.0437 30.5888 35.1664C30.6972 35.2911 30.9415 35.3324 31.1751 35.3707C31.4357 35.413 31.7031 35.4562 31.8846 35.6177C32.0661 35.7792 32.1435 36.0426 32.2151 36.2982C32.2811 36.5267 32.3499 36.764 32.4825 36.855C32.6189 36.948 32.8633 36.9218 33.099 36.8984C33.3626 36.8723 33.6329 36.8472 33.8511 36.9548C34.0692 37.0625 34.2083 37.299 34.3444 37.5269C34.4662 37.7306 34.5937 37.942 34.7466 37.9975C34.8985 38.05 35.1295 37.964 35.3518 37.8809C35.5992 37.7863 35.8562 37.6917 36.0937 37.7416C36.3312 37.7915 36.5252 37.981 36.7143 38.1657C36.8852 38.3339 37.0638 38.506 37.2273 38.5162C37.3879 38.5273 37.5844 38.3853 37.779 38.2472C37.9398 38.133 38.1055 38.0141 38.2817 37.9558Z" fill="#4A5161"/>
<path d="M34.036 33.2403C33.9262 33.2766 33.7984 33.2482 33.7158 33.1535C33.3414 32.7379 33.0153 32.2743 32.7478 31.7753C31.1049 28.6941 32.0661 24.9641 34.8864 23.4574C37.7067 21.9507 41.3364 23.2324 42.9793 26.3136C43.0733 26.4912 43.1624 26.6736 43.239 26.857C43.306 27.0114 43.2335 27.1894 43.0795 27.2564C42.9216 27.3214 42.7477 27.2505 42.6806 27.0961C42.6098 26.9301 42.5293 26.7641 42.443 26.6C40.9592 23.8161 37.6996 22.6464 35.173 23.9951C32.6493 25.3428 31.8004 28.705 33.2842 31.4889C33.5276 31.9445 33.825 32.3695 34.1639 32.7454C34.2762 32.872 34.2691 33.0637 34.1428 33.1761C34.1149 33.2078 34.0764 33.2269 34.036 33.2403Z" fill="white"/>
<path d="M34.084 33.3852C33.9136 33.4415 33.7242 33.3917 33.6033 33.2584C33.2193 32.8331 32.8864 32.3589 32.6152 31.8483C31.8043 30.3251 31.5824 28.5976 31.9991 26.9896C32.4138 25.3759 33.4147 24.0725 34.8176 23.3263C36.2196 22.5773 37.856 22.4698 39.4267 23.0261C40.9935 23.5804 42.3034 24.7236 43.1143 26.2468C43.2092 26.4273 43.3002 26.6155 43.3807 26.8008C43.4793 27.0314 43.373 27.3009 43.14 27.4003C42.9013 27.5017 42.6408 27.392 42.5412 27.1585C42.4723 26.9983 42.3956 26.8342 42.3113 26.6759C40.8687 23.9683 37.6985 22.8268 35.248 24.1343C32.7975 25.4417 31.9785 28.7106 33.422 31.4211C33.6598 31.869 33.9495 32.2804 34.2826 32.6486C34.4505 32.8371 34.4365 33.1242 34.2525 33.2942C34.2014 33.3335 34.1446 33.3651 34.084 33.3852ZM35.7787 23.2398C35.4986 23.3324 35.2233 23.4491 34.9595 23.5908C33.6336 24.2987 32.6867 25.5329 32.2923 27.0629C31.897 28.5995 32.1084 30.247 32.8838 31.7017C33.1445 32.1902 33.4621 32.647 33.8297 33.0519C33.8844 33.1109 33.9835 33.1199 34.0442 33.0613C34.1059 33.0056 34.1118 32.9073 34.0533 32.8464C33.7048 32.4608 33.4007 32.0252 33.1505 31.559C31.6265 28.7018 32.5025 25.2471 35.0994 23.8592C37.6972 22.4741 41.052 23.6702 42.5732 26.5284C42.6633 26.6944 42.7428 26.8671 42.8146 27.036C42.8472 27.1151 42.9347 27.1472 43.0175 27.1166C43.054 27.1013 43.0829 27.0725 43.0955 27.0331C43.112 26.9955 43.1111 26.9541 43.0957 26.9174C43.0211 26.7399 42.9329 26.5604 42.8409 26.3885C42.0645 24.931 40.8132 23.839 39.3194 23.3119C38.1322 22.8889 36.902 22.8686 35.7787 23.2398Z" fill="#263238"/>
<path d="M67.1668 68.4935C67.1668 68.4935 77.9461 61.7336 80.4539 57.0527C80.4539 57.0527 81.2115 62.9015 84.0939 65.1589C86.9764 67.4163 97.1879 72.5351 99.0462 73.6319C100.904 74.7287 104.625 77.5246 105.361 77.1753C106.101 76.825 107.069 72.6527 107.423 71.4637C107.777 70.2777 108.747 69.2767 108.399 67.5748C108.05 65.87 107.054 66.0932 106.83 66.7035C106.605 67.3137 105.114 69.479 103.991 70.2771C102.868 71.0752 101.663 71.9742 101.663 71.9742C101.663 71.9742 97.2594 68.8264 93.3549 64.7656C89.4505 60.7049 84.0534 52.4379 82.6789 50.857C81.3025 49.2799 79.9562 49.0829 78.5125 49.5601C77.0687 50.0372 72.4487 51.5642 65.543 57.8045C58.6372 64.0449 60.0737 67.4222 61.2598 68.4234C62.444 69.4284 64.721 69.8539 67.1668 68.4935Z" fill="#4592D0"/>
<path d="M105.385 77.3342C104.784 77.5327 103.205 76.5331 100.884 74.9983C100.171 74.5248 99.4943 74.0775 98.9697 73.7693C98.4451 73.4612 97.2526 72.8281 95.7419 72.0273C91.8943 69.9894 86.0786 66.9102 84.004 65.2846C81.5326 63.3504 80.6108 58.9234 80.3711 57.51C77.5363 62.1417 67.6756 68.3571 67.249 68.6266C67.2461 68.6275 67.2432 68.6285 67.2413 68.6323C64.7483 70.0148 62.3934 69.5861 61.1631 68.5482C60.8568 68.2899 60.1435 67.537 60.1173 66.1203C60.0886 64.5023 60.9903 61.7261 65.4438 57.699C72.3737 51.4346 76.959 49.9191 78.4663 49.421C80.1382 48.8684 81.5158 49.2959 82.7953 50.7637C83.2589 51.2943 84.1616 52.5624 85.3071 54.1676C87.6537 57.4592 90.8686 61.9629 93.4665 64.6675C97.0109 68.3561 101.017 71.3206 101.663 71.791C101.963 71.5665 102.967 70.8239 103.903 70.1581C105.005 69.3734 106.478 67.2206 106.688 66.6537C106.817 66.3062 107.143 66.0828 107.484 66.108C107.721 66.1261 108.295 66.3023 108.55 67.5501C108.805 68.7949 108.394 69.6628 107.994 70.4979C107.83 70.8443 107.674 71.1686 107.571 71.5142C107.504 71.7385 107.413 72.0735 107.306 72.4683C106.665 74.8599 106.036 77.0289 105.427 77.317C105.414 77.3246 105.399 77.3294 105.385 77.3342ZM80.4068 56.9107C80.4299 56.9031 80.4578 56.9003 80.4819 56.9052C80.5463 56.916 80.5962 56.9701 80.6047 57.0347C80.6114 57.0935 81.3893 62.8489 84.1862 65.0414C86.2398 66.6515 92.0401 69.7229 95.88 71.757C97.3945 72.5597 98.5937 73.1938 99.1232 73.5068C99.6526 73.8197 100.333 74.269 101.05 74.7445C102.563 75.7438 104.852 77.2534 105.298 77.0419C105.832 76.7883 106.63 73.8152 107.014 72.3883C107.122 71.9897 107.212 71.6518 107.279 71.4275C107.389 71.0607 107.558 70.7095 107.718 70.3708C108.096 69.578 108.486 68.7592 108.251 67.6137C108.102 66.8895 107.806 66.4414 107.461 66.4143C107.257 66.3982 107.055 66.5421 106.973 66.7616C106.748 67.3689 105.245 69.5766 104.082 70.4073C102.972 71.1978 101.769 72.093 101.757 72.1035C101.703 72.1438 101.632 72.1446 101.578 72.1049C101.533 72.0748 97.1176 68.9019 93.2477 64.8779C90.6326 62.1597 87.4129 57.6415 85.0586 54.3461C83.9189 52.7486 83.018 51.4862 82.564 50.9654C81.3575 49.5825 80.1241 49.1941 78.5591 49.7113C77.0662 50.2047 72.527 51.7049 65.6435 57.9251C61.2728 61.8735 60.3886 64.5573 60.4165 66.1146C60.4391 67.404 61.0794 68.0815 61.355 68.3146C62.5055 69.2858 64.7201 69.6774 67.0859 68.3658C67.3296 68.2115 77.8721 61.5492 80.3191 56.9846C80.3394 56.9491 80.3722 56.9222 80.4068 56.9107ZM67.1675 68.4962L67.1703 68.4952L67.1675 68.4962Z" fill="#263238"/>
<path d="M108.4 67.5772C108.051 65.8724 107.056 66.0957 106.831 66.7059C106.607 67.3161 105.116 69.4814 103.993 70.2795C102.87 71.0776 101.665 71.9767 101.665 71.9767C101.665 71.9767 98.2341 69.5248 94.7449 66.1582C94.2478 68.1041 93.2085 69.3592 92.4078 70.0765C95.3877 71.6789 98.1639 73.1112 99.0479 73.6344C100.906 74.7312 104.626 77.5271 105.363 77.1777C106.102 76.8274 107.071 72.6551 107.424 71.4662C107.782 70.2792 108.752 69.2811 108.4 67.5772Z" fill="#FEDEA5"/>
<path d="M105.385 77.3339C104.784 77.5324 103.205 76.5328 100.884 74.998C100.171 74.5245 99.4943 74.0772 98.9697 73.769C98.4451 73.4609 97.2487 72.8259 95.7342 72.0231C94.7089 71.4792 93.5375 70.8616 92.3363 70.2121C92.2931 70.1879 92.2634 70.1464 92.2567 70.0972C92.2501 70.0481 92.2694 69.9999 92.306 69.9654C93.0788 69.2702 94.1074 68.041 94.5978 66.1231C94.6123 66.0701 94.6537 66.0307 94.7028 66.0145C94.7558 66.0002 94.8115 66.0139 94.8499 66.0526C97.981 69.072 101.098 71.3803 101.66 71.7917C101.961 71.5671 102.964 70.8245 103.9 70.1588C105.002 69.3741 106.475 67.2213 106.685 66.6544C106.814 66.3069 107.14 66.0834 107.482 66.1086C107.718 66.1267 108.292 66.303 108.548 67.5507C108.802 68.7956 108.391 69.6635 107.991 70.4986C107.827 70.845 107.671 71.1692 107.568 71.5148C107.501 71.7391 107.41 72.0742 107.303 72.4689C106.662 74.8605 106.034 77.0295 105.424 77.3176C105.414 77.3243 105.399 77.3291 105.385 77.3339ZM92.6685 70.0446C93.8053 70.6544 94.9046 71.238 95.8781 71.7509C97.3964 72.5556 98.5956 73.1896 99.1251 73.5026C99.6545 73.8156 100.335 74.2649 101.052 74.7403C102.564 75.7397 104.854 77.2493 105.3 77.0378C105.834 76.7841 106.632 73.811 107.016 72.3842C107.124 71.9856 107.214 71.6476 107.281 71.4233C107.391 71.0565 107.56 70.7054 107.72 70.3667C108.098 69.5739 108.488 68.7551 108.253 67.6095C108.103 66.8854 107.808 66.4373 107.463 66.4102C107.259 66.3941 107.057 66.538 106.975 66.7574C106.75 67.3648 105.247 69.5724 104.084 70.4032C102.974 71.1936 101.771 72.0888 101.759 72.0994C101.705 72.1397 101.634 72.1404 101.58 72.1007C101.546 72.0765 98.2242 69.6915 94.829 66.4447C94.3275 68.1737 93.4144 69.3358 92.6685 70.0446Z" fill="#263238"/>
<path d="M40.2481 36.4879C40.2481 36.4879 42.3794 38.6822 42.8011 39.4834C43.2228 40.2845 42.3988 41.1058 41.4811 41.6434C40.5634 42.1811 38.8263 42.1292 37.8592 44.407C36.892 46.6848 35.6314 55.6434 35.4624 57.0315C35.2963 58.4186 36.1864 59.2222 37.6433 58.4261C39.1002 57.63 41.4371 50.7457 41.4371 50.7457C41.4371 50.7457 48.661 55.3336 49.7391 56.4636C50.8182 57.5964 51.3515 59.9272 51.9838 62.3055C52.6132 64.6848 53.381 68.1901 56.4052 70.2465C59.4294 72.303 64.1277 71.6137 67.1636 68.4917C70.1975 65.3735 71.9794 57.4785 69.3285 55.3789C66.6795 53.2755 62.2826 53.2584 60.2436 51.1107C58.2045 48.963 58.1555 47.4191 57.2918 44.8058C56.4281 42.1926 54.7373 39.0149 54.7373 39.0149C54.7373 39.0149 60.3229 35.5638 67.0297 32.2783C69.3616 31.1352 66.9178 28.8676 65.3222 28.769C63.3207 28.6441 55.7643 32.0531 53.5634 32.5558C50.3868 33.2847 49.0274 34.4434 48.4864 35.1711C47.9454 35.8989 47.2634 36.9075 46.4637 37.0948C45.664 37.282 43.5593 33.7436 43.5593 33.7436C43.5593 33.7436 42.0793 36.117 40.2481 36.4879Z" fill="#F37630"/>
<path d="M63.2967 71.0882C60.8741 71.8889 58.2677 71.6974 56.3214 70.3729C53.4172 68.3988 52.5663 65.1361 51.9446 62.751L51.6753 61.7229C51.1175 59.5896 50.5884 57.572 49.6323 56.5687C48.6694 55.5547 42.5984 51.6643 41.5224 50.9767C41.1316 52.101 39.0913 57.8087 37.7182 58.5578C36.9931 58.9515 36.3389 58.9976 35.8797 58.6839C35.4292 58.377 35.2216 57.7683 35.3134 57.0093C35.4591 55.7927 36.7325 46.6693 37.719 44.3434C38.4678 42.5776 39.6546 42.166 40.6055 41.8357C40.9049 41.7335 41.1831 41.6352 41.4036 41.5077C41.8138 41.2662 43.1178 40.4147 42.6654 39.5499C42.26 38.7786 40.1594 36.6095 40.1364 36.5882C40.098 36.5495 40.0846 36.4898 40.0992 36.4368C40.1166 36.3829 40.158 36.3435 40.2148 36.3312C41.9613 35.9754 43.4162 33.6809 43.4316 33.6598C43.4586 33.6155 43.5106 33.5887 43.5616 33.5879C43.6135 33.59 43.6635 33.6152 43.6913 33.6606C44.6982 35.3502 45.9993 37.0388 46.4314 36.9409C47.107 36.7851 47.728 35.941 48.2285 35.2652L48.3674 35.0748C48.8669 34.4057 50.1996 33.166 53.5311 32.402C54.3558 32.2128 55.9951 31.5908 57.7307 30.9305C60.6964 29.8059 64.0578 28.5312 65.3322 28.6076C66.4046 28.6737 67.9004 29.6913 68.1167 30.7818C68.2101 31.2485 68.1088 31.9112 67.0969 32.4061C61.0101 35.3872 55.7887 38.5446 54.9384 39.0632C55.2614 39.6819 56.675 42.4473 57.4363 44.7508C57.6257 45.3239 57.7729 45.837 57.9172 46.3318C58.4218 48.0814 58.7859 49.3478 60.3564 50.9988C61.3932 52.091 63.0602 52.6186 64.8242 53.1784C66.4527 53.6963 68.1341 54.2288 69.424 55.2534C70.1963 55.8649 70.6559 56.9842 70.7531 58.4897C70.9708 61.8621 69.4108 66.3967 67.2731 68.5927C66.1407 69.7695 64.752 70.6072 63.2967 71.0882ZM41.3922 50.6024C41.4356 50.5881 41.4827 50.595 41.5221 50.6173C41.818 50.8052 48.7729 55.2284 49.852 56.3613C50.8628 57.4235 51.4005 59.4768 51.9688 61.6516L52.2381 62.6797C52.8474 65.0175 53.6831 68.2146 56.4921 70.1239C59.4875 72.161 64.1291 71.3973 67.0561 68.3916C69.108 66.2849 70.6603 61.7657 70.45 58.5224C70.3565 57.1056 69.9381 56.0626 69.235 55.5053C67.9893 54.5174 66.3329 53.9927 64.7333 53.4845C62.9298 52.9121 61.2263 52.3709 60.1357 51.2226C58.5153 49.5175 58.1225 48.1547 57.6255 46.4282C57.4822 45.9363 57.336 45.426 57.1485 44.8588C56.2982 42.2861 54.6218 39.1229 54.6055 39.093C54.5691 39.0215 54.5914 38.9339 54.6607 38.8918C54.7165 38.8572 60.329 35.4005 66.9665 32.1474C67.6395 31.8191 67.928 31.3835 67.8241 30.856C67.6345 29.9043 66.2645 28.9864 65.3191 28.9265C64.1091 28.8513 60.6342 30.1699 57.8427 31.2306C56.0214 31.9224 54.4476 32.5196 53.6017 32.7125C50.3625 33.4556 49.0868 34.6348 48.6113 35.2703L48.4715 35.4577C47.943 36.1749 47.2863 37.066 46.501 37.2485C45.7129 37.432 44.1006 34.9281 43.555 34.0331C43.1673 34.5946 41.9966 36.1403 40.5356 36.575C41.0655 37.1318 42.5756 38.7353 42.9321 39.4168C43.3222 40.161 42.8098 41.043 41.5541 41.779C41.3095 41.9208 41.014 42.0249 40.7041 42.1338C39.807 42.4431 38.6924 42.8307 37.9957 44.4734C37.0218 46.7695 35.7581 55.8447 35.6106 57.0555C35.5334 57.6941 35.6912 58.2005 36.0457 58.4397C36.4088 58.6856 36.9495 58.6353 37.5686 58.2991C38.6817 57.6937 40.4892 53.0644 41.2911 50.7032C41.3123 50.6513 41.346 50.6177 41.3922 50.6024Z" fill="#263238"/>
<path d="M56.8758 31.4248C56.6794 31.4993 56.4859 31.5729 56.2973 31.6416C56.6624 32.882 57.4888 34.8495 59.2616 36.3758C59.4455 36.2733 59.6371 36.165 59.8288 36.0568C58.052 34.6056 57.2304 32.6237 56.8758 31.4248Z" fill="#263238"/>
<path d="M59.444 50.1574C59.3183 49.9903 59.2022 49.8232 59.0967 49.6591C55.0493 52.0753 52.2906 56.133 50.9047 58.5588C50.9966 58.8077 51.0817 59.0652 51.1678 59.3353C52.412 57.0526 55.2117 52.6637 59.444 50.1574Z" fill="#263238"/>
<path d="M48.917 55.7713C49.1052 55.9145 49.2743 56.0481 49.4116 56.1632C50.2883 54.445 52.6858 50.603 57.9533 46.9938C57.8931 46.7922 57.8329 46.581 57.7727 46.3698C52.3483 50.018 49.8708 53.9088 48.917 55.7713Z" fill="#263238"/>
<path d="M41.4357 47.5447C42.435 47.0892 47.1298 44.7029 52.7788 37.6838C53.7062 38.6003 54.4891 39.205 54.5582 39.2592C54.6399 39.3221 54.7476 39.3379 54.84 39.3074C54.8544 39.3026 54.8708 39.294 54.8842 39.2863C54.7961 39.1164 54.7443 39.018 54.7443 39.018C54.7443 39.018 54.8348 38.9624 55.0024 38.8588C54.9823 38.827 54.9602 38.7989 54.9295 38.7738C54.8949 38.7467 51.6368 36.2347 50.525 33.6071C50.3324 33.7029 50.1504 33.8015 49.9877 33.9003C50.2109 34.4107 50.5023 34.9147 50.8333 35.3927C46.7151 41.1516 41.6189 43.738 40.2191 44.3675C39.826 43.6628 39.4298 43.1132 39.1169 42.7287C38.9609 42.8477 38.8067 42.9821 38.6583 43.1435C38.927 43.4817 39.2666 43.9568 39.6089 44.5564C39.1294 44.259 38.6017 44.0675 38.0864 43.9425C38.0092 44.0867 37.931 44.2378 37.8614 44.4052C37.8469 44.4389 37.8334 44.4755 37.8189 44.5092C38.7794 44.7214 39.7943 45.1852 40.3667 46.1613C40.5678 46.6823 40.7446 47.2562 40.8772 47.8801C40.2108 47.2208 39.035 46.4056 37.2777 46.3701C37.2321 46.5617 37.1865 46.763 37.1419 46.9671C39.8093 46.9458 40.9599 48.8961 41.027 49.0119C41.0404 49.0331 41.0558 49.0505 41.074 49.067C41.1109 49.4015 41.1343 49.7436 41.1404 50.1012C40.3681 49.5379 38.7816 48.6433 36.7555 48.8604C36.7176 49.0655 36.6768 49.2716 36.6398 49.4796C39.0183 49.1269 40.7279 50.5007 41.1351 50.8701C41.1288 51.1322 41.1264 51.3866 41.1231 51.6381C41.3232 51.0904 41.4412 50.7401 41.4412 50.7401C41.4412 50.7401 41.5507 50.8098 41.741 50.9299C41.743 50.8682 41.7431 50.8104 41.7452 50.7487C41.782 49.5713 41.6551 48.4994 41.4357 47.5447ZM51.2036 35.9124C51.5702 36.3915 51.9618 36.8399 52.3487 37.2449C46.9802 43.9306 42.3949 46.4058 41.2781 46.9419C41.1988 46.6631 41.1108 46.3969 41.0199 46.1412C41.0171 46.1037 41.0066 46.0622 40.9884 46.0265C40.9807 46.013 40.973 45.9994 40.9644 45.983C40.818 45.5981 40.6609 45.2391 40.498 44.9109C41.995 44.2268 47.0673 41.6162 51.2036 35.9124Z" fill="#263238"/>
<path d="M61.7754 52.2015C61.5708 52.0958 61.3747 51.9872 61.1874 51.8662C56.6375 54.9621 53.616 59.1355 51.9119 62.0228C51.9367 62.1173 51.9615 62.2119 51.9863 62.3064C52.0322 62.4838 52.0809 62.67 52.1296 62.8561C53.7577 59.9811 56.8819 55.4399 61.7754 52.2015Z" fill="#263238"/>
<path d="M57.0846 44.1992C57.0157 44.0101 56.9429 43.8191 56.8702 43.6281C49.5909 46.4705 47.196 51.4832 46.4265 54.0103C46.6042 54.1313 46.7781 54.2504 46.951 54.3666C47.6095 52.0464 49.8294 47.0369 57.0846 44.1992Z" fill="#263238"/>
<path d="M60.6781 30.0008C60.4808 30.0725 60.2835 30.1441 60.0833 30.2167C60.3194 31.5029 60.8828 33.1978 62.1813 34.7718C62.3633 34.6731 62.5491 34.5764 62.7369 34.4758C61.4402 32.9366 60.8999 31.2437 60.6781 30.0008Z" fill="#263238"/>
<path d="M52.7953 32.7541C53.4948 34.1536 54.7308 36.2265 56.5639 37.9255C56.7382 37.823 56.9231 37.7137 57.1167 37.6016C55.3411 35.9991 54.1137 33.9812 53.4025 32.5952C53.1956 32.6475 52.9916 32.6989 52.7953 32.7541Z" fill="#263238"/>
<path d="M55.7884 41.1316C55.6983 40.9367 55.6092 40.7543 55.5258 40.5796C47.4695 44.3658 44.4359 49.3264 43.344 51.9728C43.516 52.0861 43.6947 52.2004 43.8791 52.3224C44.9131 49.8203 47.8668 44.87 55.7884 41.1316Z" fill="#263238"/>
<path d="M67.1671 68.4935C69.6777 65.9143 71.3287 60.0656 70.3227 56.9344C70.1074 56.3507 69.7937 55.8669 69.3711 55.5283C69.0139 55.2419 68.6268 54.9526 68.2223 54.6593C66.9212 53.9594 65.3993 53.5411 63.9766 53.074C58.4015 57.5841 54.8985 64.1091 53.4354 66.6792C54.0803 68.0101 54.9955 69.287 56.4087 70.2484C59.4329 72.3049 64.1312 71.6156 67.1671 68.4935Z" fill="#4592D0"/>
<path d="M63.2966 71.0883C60.8739 71.889 58.2675 71.6975 56.3212 70.373C55.0493 69.5094 54.0578 68.3219 53.2961 66.7439C53.275 66.6995 53.2761 66.6446 53.3002 66.6013L53.5733 66.1194C55.2063 63.23 58.6016 57.2221 63.879 52.9548C63.9194 52.9222 63.9704 52.9117 64.0214 52.9302C64.2838 53.0168 64.5482 53.0996 64.8164 53.1843C65.9979 53.561 67.2216 53.9494 68.2931 54.5262C68.7561 54.8611 69.1346 55.1437 69.463 55.4107C69.8904 55.7542 70.2271 56.2496 70.4616 56.8815C71.4734 60.0301 69.8616 65.9396 67.273 68.6025C66.1405 69.7696 64.7519 70.6074 63.2966 71.0883ZM53.6059 66.6833C54.339 68.1744 55.2844 69.3001 56.4939 70.1202C59.4892 72.1573 64.1309 71.3936 67.0579 68.3878C69.5849 65.7903 71.1579 60.0348 70.1767 56.9789C69.9642 56.4039 69.6592 55.9558 69.275 55.6462C68.9485 55.385 68.5767 55.1034 68.1339 54.7811C67.1018 54.2265 65.8954 53.842 64.7254 53.4711C64.4851 53.3933 64.2457 53.3183 64.0083 53.2395C58.8137 57.4666 55.457 63.4071 53.8424 66.2649L53.6059 66.6833Z" fill="#4592D0"/>
<path d="M34.0544 32.0529C33.9321 32.0998 33.8185 32.163 33.7145 32.2455C32.8706 32.9 32.9601 34.4305 33.9158 35.6651C34.8686 36.9007 36.325 37.3727 37.1699 36.7211C37.3481 36.582 37.4821 36.4061 37.5777 36.2011L34.0544 32.0529Z" fill="white"/>
<path d="M36.8056 37.083C36.4332 37.2061 35.9974 37.1961 35.535 37.0471C34.8929 36.8389 34.2743 36.382 33.7926 35.758C33.3118 35.1368 33.0275 34.4219 32.9864 33.7453C32.9445 33.0465 33.1706 32.471 33.6195 32.1236C33.7342 32.0344 33.8613 31.9635 33.9979 31.9119C34.0586 31.8918 34.1269 31.9046 34.1691 31.9548L37.6886 36.101C37.726 36.1465 37.7346 36.211 37.7104 36.264C37.5994 36.4997 37.4489 36.6939 37.2601 36.8397C37.1224 36.9463 36.9702 37.0286 36.8056 37.083ZM34.0127 32.2376C33.9386 32.275 33.8721 32.3162 33.8086 32.3661C33.4415 32.6511 33.2588 33.1352 33.2943 33.727C33.3306 34.3409 33.5958 34.998 34.0382 35.5709C34.4806 36.1437 35.0492 36.5657 35.6337 36.7545C36.1999 36.9365 36.7137 36.8823 37.0778 36.5982C37.205 36.4984 37.3139 36.3725 37.3979 36.2196L34.0127 32.2376Z" fill="#263238"/>
<path d="M34.0543 32.0534C33.932 32.1002 33.8184 32.1634 33.7144 32.246C33.6171 32.3198 33.5342 32.4082 33.4638 32.5053L37.1178 36.758C37.1361 36.7455 37.1553 36.736 37.1727 36.7206C37.3509 36.5814 37.4849 36.4055 37.5805 36.2006L34.0543 32.0534Z" fill="white"/>
<path d="M37.1766 36.889C37.116 36.909 37.0371 36.903 36.9987 36.8547L33.3447 32.602C33.2977 32.5469 33.294 32.4679 33.3393 32.4112C33.4242 32.2997 33.5167 32.2017 33.6188 32.123C33.7334 32.0338 33.8606 31.9629 33.9972 31.9113C34.0579 31.8912 34.1262 31.904 34.1684 31.9542L37.6879 36.1005C37.7253 36.1459 37.7339 36.2105 37.7097 36.2634C37.5986 36.4991 37.4482 36.6933 37.2594 36.8392C37.244 36.8507 37.2305 36.8583 37.2151 36.8698C37.2016 36.8775 37.191 36.8842 37.1766 36.889ZM33.6604 32.5009L37.134 36.5468C37.2399 36.4507 37.3238 36.346 37.3914 36.2209L34.0091 32.238C33.935 32.2753 33.8685 32.3165 33.805 32.3665C33.7539 32.4058 33.7048 32.4509 33.6604 32.5009Z" fill="#263238"/>
<path d="M41.7934 26.2697C41.8706 26.1639 41.9602 26.0669 42.0652 25.9873C42.9091 25.3328 44.3655 25.8048 45.3183 27.0404C46.2741 28.275 46.3635 29.8055 45.5225 30.459C45.3443 30.5982 45.1383 30.6823 44.918 30.723L41.7934 26.2697Z" fill="white"/>
<path d="M45.1663 30.817C45.0941 30.8408 45.02 30.8589 44.9421 30.875C44.8843 30.8845 44.8257 30.8621 44.7902 30.8129L41.6657 26.3595C41.6292 26.3074 41.6284 26.237 41.665 26.1832C41.7499 26.062 41.853 25.9573 41.9677 25.8681C42.8761 25.1666 44.4315 25.6476 45.4352 26.9498C45.916 27.571 46.2032 28.285 46.2414 28.9625C46.2833 29.6613 46.06 30.2359 45.6111 30.5833C45.4811 30.684 45.3338 30.7616 45.1663 30.817ZM44.9802 30.5542C45.1486 30.5114 45.2978 30.4396 45.425 30.3398C45.792 30.0548 45.9747 29.5707 45.9393 28.9789C45.902 28.3621 45.6377 27.7079 45.1954 27.135C44.2943 25.969 42.9283 25.5088 42.1529 26.1086C42.0893 26.1585 42.0305 26.2133 41.9775 26.2757L44.9802 30.5542Z" fill="#263238"/>
<path d="M45.1663 30.8173C45.0942 30.8411 45.0201 30.8592 44.9421 30.8753C44.8844 30.8848 44.8257 30.8624 44.7902 30.8132L41.6657 26.3598C41.6292 26.3077 41.6284 26.2373 41.6651 26.1835C41.7499 26.0623 41.8531 25.9576 41.9677 25.8684C42.0698 25.7897 42.1854 25.7226 42.3153 25.67C42.3827 25.6413 42.4577 25.6647 42.4999 25.7246L45.6915 30.3323C45.7356 30.398 45.7258 30.4847 45.6651 30.5336C45.6382 30.5586 45.6266 30.572 45.6102 30.5807C45.4811 30.6843 45.3338 30.7619 45.1663 30.8173ZM44.9802 30.5545C45.1226 30.5203 45.2478 30.4629 45.3605 30.3871L42.3224 26.0015C42.2627 26.0341 42.2039 26.0696 42.1529 26.1089C42.0893 26.1588 42.0305 26.2136 41.9775 26.276L44.9802 30.5545Z" fill="#263238"/>
<path d="M47.797 36.0824C47.4008 36.5601 46.9566 36.9797 46.4687 37.0928C45.669 37.2801 43.5642 33.7416 43.5642 33.7416C43.5642 33.7416 42.0804 36.1132 40.2492 36.4841C40.2492 36.4841 42.3805 38.6783 42.8022 39.4795C43.1444 40.1272 42.6679 40.7886 41.9888 41.302C42.7133 42.2631 44.7274 44.3453 47.5886 42.5554C50.0896 40.9937 48.8229 37.8684 47.797 36.0824Z" fill="#FEDEA5"/>
<path d="M46.5557 43.2201C44.185 44.0036 42.5242 42.2734 41.8631 41.3972C41.8391 41.3634 41.8295 41.3249 41.8325 41.2854C41.8383 41.2449 41.8586 41.2093 41.8923 41.1853C42.3277 40.8553 43.0071 40.207 42.663 39.5535C42.2575 38.7823 40.157 36.6131 40.1339 36.5919C40.0955 36.5532 40.0822 36.4934 40.0967 36.4405C40.1141 36.3865 40.1555 36.3472 40.2123 36.3348C41.9589 35.9791 43.4137 33.6846 43.4292 33.6634C43.4562 33.6192 43.5082 33.5923 43.5591 33.5916C43.6111 33.5936 43.6611 33.6189 43.6889 33.6642C44.6957 35.3538 45.9969 37.0424 46.4289 36.9446C46.8062 36.8552 47.205 36.55 47.6745 35.984C47.7063 35.9446 47.7544 35.9255 47.8035 35.9285C47.8525 35.9316 47.8977 35.9616 47.9217 36.005C48.9495 37.7968 50.2852 41.0437 47.66 42.685C47.2796 42.9295 46.9108 43.1027 46.5557 43.2201ZM42.1998 41.3309C42.9733 42.3047 44.8688 44.0762 47.5046 42.4282C49.8275 40.9767 48.7267 38.0727 47.7719 36.3466C47.4529 36.7089 47.0106 37.1247 46.5015 37.2416C45.7133 37.425 44.1011 34.9212 43.5554 34.0261C43.1677 34.5876 41.997 36.1334 40.536 36.5681C41.066 37.1249 42.576 38.7284 42.9326 39.4098C43.2508 40.0141 42.9879 40.6916 42.1998 41.3309Z" fill="#FEDEA5"/>
<path d="M44.8993 35.7365C44.5683 35.297 44.2508 34.8305 44.0091 34.4578C43.8421 34.253 43.677 34.0347 43.5149 33.8154C43.2602 34.1981 41.8974 36.1509 40.2432 36.4857C40.2432 36.4857 40.9633 37.23 41.6496 38.0079C42.398 37.9853 43.4083 37.8247 44.0328 37.1849C44.4279 36.7815 44.704 36.2505 44.8993 35.7365Z" fill="#263238"/>
<path d="M43.0652 37.931C42.5859 38.0894 42.0789 38.1447 41.6575 38.1587C41.6133 38.1605 41.5681 38.1401 41.5384 38.1082C40.8617 37.34 40.1426 36.5986 40.1368 36.5908C40.0984 36.5522 40.0851 36.4924 40.0996 36.4394C40.117 36.3855 40.1584 36.3461 40.2152 36.3338C41.8068 36.0132 43.1369 34.1066 43.3896 33.7278C43.4176 33.6864 43.4638 33.6615 43.5148 33.6607C43.5658 33.6599 43.6119 33.6832 43.6407 33.7218C43.8105 33.9546 43.9746 34.17 44.1291 34.3565C44.4418 34.8374 44.7468 35.2759 45.0203 35.6381C45.0529 35.6787 45.0586 35.7346 45.0431 35.7846C44.8034 36.416 44.5023 36.92 44.1486 37.2841C43.845 37.5963 43.4637 37.7993 43.0652 37.931ZM41.7197 37.8525C42.4277 37.8239 43.3572 37.6612 43.9268 37.0781C44.2371 36.7572 44.5073 36.3148 44.7248 35.7615C44.3928 35.3191 44.0829 34.8565 43.8796 34.5417C43.7683 34.4083 43.6455 34.2499 43.5188 34.0799C43.1021 34.6702 41.9547 36.1505 40.5341 36.5719C40.7866 36.8319 41.2599 37.3335 41.7197 37.8525Z" fill="#263238"/>
<path d="M33.9163 31.0552C33.9163 31.0552 36.3051 34.9684 37.3826 35.8642C38.4612 36.7629 41.4421 37.2639 42.6873 37.0097C43.9325 36.7554 44.2879 34.9912 44.5955 33.5574C44.9031 32.1235 44.7868 31.0641 43.9931 29.6027C43.1965 28.1421 41.4643 25.9732 40.316 24.8633C39.5719 24.143 37.1251 23.9597 35.3136 25.1074C33.5021 26.255 32.817 28.9114 33.9163 31.0552Z" fill="#FEDEA5"/>
<path d="M42.8977 37.1134C42.84 37.1325 42.7812 37.1487 42.7177 37.1601C41.3706 37.4352 38.382 36.8917 37.2871 35.9824C36.2009 35.0798 33.8869 31.2959 33.7891 31.1357C33.7882 31.1328 33.7843 31.1308 33.7824 31.125C32.6668 28.9514 33.3184 26.1936 35.233 24.9799C37.1321 23.7776 39.6499 24.0112 40.4219 24.7576C41.5463 25.8433 43.3044 28.0229 44.1278 29.5356C44.9081 30.9662 45.0734 32.0672 44.7454 33.5944L44.727 33.6744C44.4349 35.0389 44.0729 36.725 42.8977 37.1134ZM34.0482 30.9794C34.145 31.1368 36.4485 34.8889 37.478 35.7459C38.4903 36.5895 41.3817 37.1201 42.6539 36.8602C43.7768 36.6335 44.1378 34.9541 44.4289 33.6059L44.4473 33.526C44.7637 32.0604 44.6098 31.052 43.8601 29.6754C43.0511 28.1869 41.3179 26.044 40.2109 24.9718C39.5243 24.3095 37.1469 24.1226 35.397 25.2338C33.6096 26.3671 33.0064 28.9419 34.0482 30.9794Z" fill="#263238"/>
<path d="M39.1982 32.1344C39.1896 32.1372 39.1809 32.1401 39.1713 32.1401C39.0885 32.1514 39.0127 32.0962 38.9984 32.0142C38.9965 31.9988 38.9414 31.6286 39.2007 31.3182C39.4147 31.0645 39.768 30.9317 40.249 30.9236C40.3317 30.9219 40.4018 30.9886 40.4045 31.0744C40.4063 31.1573 40.3369 31.2284 40.2542 31.23C39.8656 31.2365 39.5893 31.331 39.4351 31.5136C39.2644 31.7145 39.2967 31.967 39.2976 31.9699C39.3119 32.0422 39.2675 32.1115 39.1982 32.1344Z" fill="#263238"/>
<path d="M40.1843 33.6729C39.4971 33.9 38.8961 33.7873 38.8817 33.7824C38.799 33.7648 38.7472 33.6856 38.7618 33.6038C38.7793 33.5209 38.8583 33.4692 38.94 33.4839C39.0294 33.5025 41.1506 33.8928 41.7481 31.2814C41.7656 31.1986 41.8484 31.1487 41.9311 31.1663C42.0138 31.184 42.0636 31.267 42.0461 31.3498C41.7096 32.8317 40.9004 33.4362 40.1843 33.6729Z" fill="#263238"/>
<path d="M37.0324 32.7119C36.7061 32.8197 36.4619 32.7785 36.4417 32.7755C36.2782 32.7461 36.1679 32.5867 36.1961 32.4201C36.2253 32.2564 36.3813 32.1471 36.5438 32.1736C36.5813 32.1805 37.2545 32.2501 37.7712 31.1291C37.8427 30.9771 38.0218 30.9083 38.1736 30.9801C38.3254 31.0519 38.3944 31.2313 38.3229 31.3834C37.9288 32.2455 37.4222 32.5831 37.0324 32.7119Z" fill="#263238"/>
<path d="M40.7777 29.8564C40.4803 29.9547 40.182 29.9923 39.9512 29.9915C39.7848 29.992 39.6465 29.8547 39.6478 29.6841C39.6471 29.5174 39.784 29.3791 39.9514 29.3815C40.0062 29.3827 41.3019 29.3685 41.3403 28.4089C41.3454 28.2403 41.488 28.1097 41.6563 28.1151C41.8246 28.1204 41.9552 28.2634 41.9501 28.4321C41.9187 29.2482 41.3523 29.6665 40.7777 29.8564Z" fill="#263238"/>
<path d="M35.6062 31.44C35.5312 31.4648 35.4485 31.4279 35.4179 31.3546C35.4035 31.3208 35.0655 30.5016 35.4313 29.8061C35.6543 29.3857 36.0781 29.1076 36.6968 28.9834C36.7777 28.9663 36.8593 29.0195 36.8775 29.1034C36.8946 29.1844 36.8444 29.2652 36.7578 29.2842C36.2324 29.3904 35.8771 29.6138 35.7004 29.9515C35.4012 30.5191 35.6942 31.2312 35.697 31.2398C35.7296 31.319 35.6948 31.4075 35.6158 31.44C35.6149 31.4371 35.6091 31.439 35.6062 31.44Z" fill="#263238"/>
<path d="M38.5259 27.9676C38.4913 27.9791 38.4528 27.979 38.4153 27.9625C38.3394 27.9266 38.304 27.8388 38.3388 27.7599C38.3446 27.7483 38.9511 26.4532 40.5789 26.8333C40.6616 26.8509 40.7114 26.934 40.6939 27.0168C40.6765 27.0996 40.5937 27.1494 40.511 27.1318C39.1226 26.8074 38.6204 27.8754 38.6146 27.887C38.5962 27.9284 38.5635 27.9552 38.5259 27.9676Z" fill="#263238"/>
<path d="M32.1061 33.851C32.1061 33.851 32.6193 36.1114 33.0166 36.6061C33.4139 37.1007 36.0179 38.5931 36.5337 38.9715C37.0495 39.35 37.1418 39.3965 36.881 40.9722C36.6203 42.5478 33.6415 53.1689 34.1519 55.4303C34.6651 57.6907 35.4599 59.6205 37.6447 58.4297C39.8324 57.238 39.2305 50.9301 39.121 47.2844C39.0115 43.6386 38.6441 38.9802 38.34 38.06C38.0368 37.1426 34.3176 35.8326 33.911 35.6684C33.5073 35.5033 32.9689 34.3491 32.7595 33.7153C32.551 33.0748 32.1987 33.1912 32.1061 33.851Z" fill="#FEDEA5"/>
<path d="M37.1292 58.8203C36.6267 58.9864 36.1766 58.9811 35.7845 58.8025C34.782 58.3474 34.3222 56.859 34.0064 55.4578C33.6182 53.7404 35.1759 47.4057 36.1064 43.6216C36.4185 42.3468 36.6686 41.3397 36.7328 40.9429C36.9761 39.4789 36.9175 39.4373 36.4641 39.1024C36.2825 38.9698 35.8876 38.7248 35.4284 38.44C34.4292 37.82 33.1821 37.0509 32.899 36.6983C32.4911 36.1911 32.0102 34.1158 31.9587 33.8824C31.9559 33.8641 31.953 33.8458 31.9559 33.8256C32.0164 33.4076 32.1803 33.1575 32.4036 33.1351C32.5248 33.124 32.7507 33.1777 32.9095 33.6581C33.162 34.4221 33.6806 35.3999 33.9727 35.5184C34.0141 35.5368 34.0939 35.565 34.2034 35.6059C36.9266 36.6351 38.2891 37.395 38.49 38.0027C38.8104 38.9722 39.1699 43.6941 39.2786 47.2695C39.2941 47.7331 39.3134 48.2371 39.3383 48.7682C39.4978 52.4391 39.7144 57.4651 37.7222 58.5505C37.5152 58.6703 37.3169 58.7583 37.1292 58.8203ZM32.257 33.8449C32.4049 34.4861 32.8269 36.1314 33.1311 36.5092C33.3816 36.8213 34.7065 37.6417 35.5837 38.1832C36.067 38.4825 36.4456 38.7169 36.6194 38.8456C37.2188 39.2831 37.2859 39.4472 37.028 40.993C36.9609 41.4003 36.7099 42.4142 36.3968 43.6958C35.474 47.4548 33.9269 53.7443 34.299 55.3933C34.5833 56.6411 35.0191 58.1246 35.9071 58.5244C36.3627 58.7302 36.9073 58.6529 37.5726 58.2918C39.3993 57.2964 39.1834 52.3793 39.0286 48.7903C39.0055 48.2554 38.9824 47.7494 38.9698 47.2849C38.853 43.4137 38.4767 38.9509 38.1964 38.1029C38.0836 37.7615 37.2787 37.0998 34.0913 35.8965C33.9808 35.8528 33.8971 35.8227 33.8529 35.8052C33.3608 35.6051 32.8053 34.341 32.6121 33.7564C32.527 33.4988 32.4405 33.4407 32.4213 33.4407C32.403 33.4435 32.3086 33.5261 32.257 33.8449Z" fill="#263238"/>
<path d="M39.1223 47.2804C39.1115 46.918 39.0978 46.547 39.0821 46.1701L35.685 45.98C34.8115 49.6168 33.8412 54.056 34.1532 55.4263C34.6665 57.6867 35.4612 59.6165 37.646 58.4257C39.8337 57.234 39.2328 50.929 39.1223 47.2804Z" fill="#F26F1F"/>
<path d="M37.1295 58.8208C36.6271 58.9868 36.177 58.9815 35.7848 58.8029C34.7824 58.3478 34.3225 56.8594 34.0068 55.4583C33.6824 54.0214 34.7263 49.3396 35.5416 45.9435C35.56 45.8733 35.6236 45.8234 35.6986 45.8275L39.0948 46.0147C39.1727 46.0179 39.2351 46.0807 39.2388 46.1597C39.2544 46.5366 39.2691 46.9105 39.28 47.2729C39.2954 47.7364 39.3147 48.2404 39.3397 48.7715C39.4992 52.4424 39.7158 57.4684 37.7235 58.5538C37.5156 58.6707 37.3172 58.7587 37.1295 58.8208ZM35.8048 46.139C35.002 49.4957 33.9941 54.034 34.3022 55.3927C34.5865 56.6406 35.0224 58.124 35.9104 58.5239C36.366 58.7297 36.9105 58.6524 37.5759 58.2912C39.4025 57.2959 39.1867 52.3788 39.0318 48.7898C39.0088 48.2549 38.9857 47.7489 38.9731 47.2844C38.9641 46.9664 38.9531 46.6426 38.9374 46.3139L35.8048 46.139Z" fill="#263238"/>
<path d="M35.07 48.6453C35.0651 48.6694 35.0603 48.6934 35.0554 48.7175C35.0428 48.7763 35.0292 48.8321 35.0166 48.8908C34.9885 49.0189 34.9632 49.146 34.9341 49.2712C35.7644 49.1958 37.2084 49.1263 39.2012 49.2348C39.193 49.0257 39.1837 48.8233 39.1754 48.6238C37.3191 48.5215 35.9368 48.5739 35.07 48.6453Z" fill="#263238"/>
<path d="M38.8314 56.6342C38.8962 56.4138 38.9525 56.1769 39.002 55.9294C37.0856 56.6045 35.5424 56.7229 34.4902 56.679C34.5629 56.899 34.6414 57.1074 34.7256 57.3042C35.7529 57.321 37.1431 57.1858 38.8314 56.6342Z" fill="#263238"/>
<path d="M34.32 52.4917C34.3102 52.5495 34.3005 52.6073 34.2937 52.6641C34.2849 52.7248 34.2742 52.7893 34.2654 52.85C34.2508 52.9511 34.24 53.0446 34.2273 53.1419C35.4023 52.8787 37.2295 52.6215 39.2759 52.8729C39.2792 52.6696 39.2815 52.4634 39.2809 52.2581C37.296 52.0185 35.5295 52.2364 34.32 52.4917Z" fill="#263238"/>
<path d="M43.5577 24.5414C43.5577 24.5414 45.7727 25.2153 46.2355 25.6466C46.6993 26.0807 47.9976 28.7879 48.337 29.3305C48.6765 29.8732 48.7177 29.9687 50.3061 29.8225C51.8935 29.6735 62.6845 27.4552 64.8966 28.1301C67.1116 28.8041 68.9759 29.7352 67.633 31.8354C66.2901 33.9357 60.0531 32.8864 56.4293 32.5144C52.8056 32.1423 48.1936 31.4452 47.2997 31.0762C46.4058 30.7071 45.3674 26.8965 45.2335 26.4817C45.0996 26.0669 43.9879 25.4457 43.3689 25.1912C42.7557 24.9348 42.8977 24.5894 43.5577 24.5414Z" fill="#FEDEA5"/>
<path d="M66.3547 32.8828C64.2814 33.568 60.6981 33.1537 57.9073 32.8306C57.3784 32.7711 56.8783 32.7116 56.4176 32.6649C52.864 32.3017 48.1876 31.6035 47.2457 31.215C46.6555 30.9702 45.9925 29.5554 45.1648 26.7602C45.1313 26.6493 45.1074 26.5673 45.0931 26.5239C44.9965 26.2219 44.0588 25.633 43.3168 25.3261C42.8497 25.1338 42.8116 24.9024 42.8301 24.784C42.8652 24.5605 43.128 24.4159 43.5475 24.3864C43.5667 24.3864 43.586 24.3865 43.6042 24.3933C43.835 24.4615 45.8653 25.0905 46.3416 25.5334C46.6748 25.8438 47.3505 27.1421 47.8968 28.1845C48.147 28.6604 48.3607 29.0745 48.4691 29.2473C48.7808 29.7446 48.8172 29.8064 50.293 29.6685C50.6932 29.6293 51.7151 29.4553 53.0064 29.234C56.8399 28.5737 63.2588 27.4698 64.9431 27.9821C66.3111 28.3999 67.7626 28.9635 68.1463 29.9987C68.3521 30.5534 68.223 31.1996 67.7647 31.916C67.4772 32.3641 66.987 32.6738 66.3547 32.8828ZM43.2813 24.744C43.1687 24.7812 43.1321 24.8254 43.1292 24.836C43.1282 24.8524 43.1809 24.9441 43.4299 25.048C43.9969 25.2811 45.2164 25.9278 45.3799 26.4323C45.3943 26.4757 45.4191 26.5606 45.4535 26.6744C46.4256 29.9452 47.0271 30.7961 47.3578 30.934C48.1815 31.2748 52.5973 31.9694 56.4451 32.3604C56.9058 32.4072 57.4088 32.4657 57.9386 32.5281C61.5017 32.9395 66.3833 33.5025 67.5053 31.7514C67.9153 31.1119 68.0289 30.5736 67.8576 30.1037C67.5197 29.1882 66.075 28.6449 64.8541 28.2748C63.2409 27.7839 56.8672 28.8793 53.0578 29.5348C51.7578 29.759 50.7331 29.934 50.3203 29.9741C48.7608 30.1204 48.6032 30.0408 48.2225 29.4316C48.0949 29.2297 47.8898 28.8321 47.6243 28.3292C47.1461 27.4151 46.4263 26.0319 46.1315 25.7602C45.7752 25.4285 44.1679 24.8875 43.5411 24.6967C43.4286 24.705 43.3449 24.723 43.2813 24.744Z" fill="#263238"/>
<path d="M56.4313 32.5131C56.0735 32.4773 55.7013 32.4366 55.3282 32.393L55.3837 28.9848C59.067 28.3742 63.5594 27.7208 64.8985 28.1289C67.1135 28.8028 68.9778 29.7339 67.6349 31.8342C66.292 33.9344 60.055 32.8852 56.4313 32.5131Z" fill="#F26F1F"/>
<path d="M66.3546 32.8832C64.2814 33.5684 60.6981 33.1541 57.9073 32.8309C57.3783 32.7714 56.8782 32.712 56.4176 32.6652C56.056 32.6274 55.6876 32.5887 55.3116 32.546C55.2347 32.5361 55.1742 32.4695 55.1772 32.3914L55.2327 28.9832C55.2338 28.9091 55.2839 28.8475 55.36 28.8353C58.7998 28.2633 63.5366 27.5549 64.946 27.9815C66.314 28.3993 67.7654 28.9629 68.1492 29.9981C68.355 30.5528 68.2258 31.199 67.7676 31.9154C67.4772 32.3645 66.9841 32.6751 66.3546 32.8832ZM56.446 32.3637C56.9067 32.4105 57.4097 32.4689 57.9396 32.5313C61.5027 32.9427 66.3842 33.5058 67.5062 31.7546C67.9162 31.1151 68.0298 30.5768 67.8585 30.107C67.5207 29.1914 66.0759 28.6481 64.855 28.278C63.5235 27.8738 58.932 28.5567 55.5335 29.1182L55.4834 32.2613C55.8084 32.2951 56.1306 32.3299 56.446 32.3637Z" fill="#263238"/>
<path d="M61.9688 33.0644C62.1746 33.0766 62.3757 33.084 62.5767 33.0914L62.8527 28.0246C62.7199 28.0299 62.5852 28.0391 62.4448 28.0503C62.4169 28.0531 62.3851 28.0539 62.3572 28.0567C62.3197 28.0595 62.2793 28.0632 62.2418 28.066L61.9688 33.0644Z" fill="#263238"/>
<path d="M59.2161 28.3985C59.1642 28.406 59.1093 28.4145 59.0564 28.4192C58.9159 28.4399 58.7745 28.4578 58.634 28.4785L58.3538 32.7282C58.5096 32.7441 58.6664 32.7629 58.8231 32.7817C58.8664 32.7867 58.9126 32.7907 58.9597 32.7976L59.2498 28.3938C59.2383 28.3976 59.2286 28.3976 59.2161 28.3985Z" fill="#263238"/>
<path d="M66.0296 28.5189C65.9315 29.5304 65.7443 31.3675 65.524 32.9394C65.7472 32.8977 65.9618 32.8492 66.1601 32.7901C66.3561 31.3579 66.5198 29.7694 66.6149 28.7781C66.4304 28.685 66.2324 28.5996 66.0296 28.5189Z" fill="#263238"/>
<path d="M102.177 72.8798C102.85 72.9784 103.524 73.3978 103.524 73.3978C103.524 73.3978 103.496 74.1869 102.34 75.911C103.714 76.5996 104.99 77.3591 105.366 77.1802C106.106 76.8299 107.075 72.6576 107.428 71.4687C107.782 70.2826 108.752 69.2816 108.404 67.5797C108.055 65.8749 107.059 66.0982 106.835 66.7084C106.61 67.3186 104.774 69.6784 103.651 70.4794C102.528 71.2775 101.666 71.983 101.666 71.983C101.666 71.983 101.504 72.7813 102.177 72.8798Z" fill="#F37630"/>
<path d="M105.384 77.3341C105.021 77.4544 104.3 77.0955 103.091 76.4711C102.825 76.3343 102.546 76.1889 102.265 76.0473C102.227 76.0279 102.196 75.9931 102.186 75.9517C102.175 75.9102 102.182 75.863 102.205 75.8264C103.104 74.486 103.307 73.7226 103.351 73.4799C103.155 73.3684 102.648 73.1056 102.15 73.0327C101.928 73.0002 101.761 72.9014 101.646 72.7372C101.421 72.4166 101.507 71.9678 101.513 71.9495C101.521 71.9148 101.539 71.8831 101.567 71.861C101.575 71.8553 102.445 71.144 103.56 70.3516C104.673 69.5602 106.475 67.2312 106.691 66.6527C106.819 66.3053 107.146 66.0818 107.487 66.107C107.724 66.1251 108.298 66.3014 108.553 67.5491C108.808 68.794 108.396 69.6618 107.996 70.497C107.832 70.8433 107.677 71.1676 107.573 71.5132C107.506 71.7375 107.415 72.0726 107.309 72.4673C106.667 74.8589 106.039 77.0279 105.43 77.316C105.415 77.3208 105.399 77.3294 105.384 77.3341ZM102.556 75.8517C102.787 75.968 103.012 76.0863 103.232 76.1998C104.091 76.6477 105.064 77.151 105.297 77.0419C105.832 76.7882 106.63 73.8152 107.014 72.3883C107.122 71.9897 107.212 71.6518 107.279 71.4274C107.388 71.0607 107.557 70.7095 107.718 70.3708C108.096 69.578 108.485 68.7592 108.251 67.6137C108.101 66.8895 107.806 66.4414 107.461 66.4143C107.257 66.3982 107.054 66.5421 106.973 66.7616C106.743 67.3833 104.911 69.7672 103.736 70.6018C102.774 71.2858 101.998 71.9048 101.806 72.0613C101.796 72.1643 101.785 72.4023 101.899 72.5636C101.965 72.6573 102.063 72.7116 102.198 72.7313C102.895 72.8347 103.574 73.2522 103.603 73.2716C103.651 73.3006 103.678 73.3527 103.673 73.4057C103.67 73.4356 103.632 74.2121 102.556 75.8517Z" fill="#263238"/>
<path d="M107.706 66.3307C108.113 68.3951 107.698 69.2447 106.217 72.495C105.06 75.0314 104.764 76.4615 104.693 77.1396C104.999 77.2215 105.232 77.2406 105.363 77.1813C106.103 76.831 107.072 72.6587 107.425 71.4698C107.779 70.2837 108.749 69.2827 108.401 67.5808C108.251 66.847 107.984 66.4732 107.706 66.3307Z" fill="white"/>
<path d="M105.376 77.3371C105.217 77.3896 104.984 77.3734 104.654 77.2866C104.581 77.269 104.532 77.1985 104.543 77.1243C104.624 76.3431 104.956 74.8949 106.079 72.4306L106.165 72.2449C107.572 69.1639 107.948 68.3364 107.558 66.3597C107.545 66.3029 107.571 66.2432 107.617 66.2086C107.663 66.1741 107.726 66.1695 107.779 66.1966C108.031 66.3285 108.372 66.6717 108.553 67.5492C108.808 68.794 108.396 69.6619 107.996 70.497C107.832 70.8434 107.677 71.1676 107.573 71.5133C107.506 71.7376 107.415 72.0726 107.309 72.4674C106.667 74.8589 106.039 77.028 105.43 77.3161C105.413 77.3247 105.396 77.3304 105.376 77.3371ZM104.862 77.0223C105.155 77.0858 105.265 77.0592 105.297 77.042C105.832 76.7883 106.63 73.8152 107.014 72.3884C107.122 71.9898 107.212 71.6518 107.279 71.4275C107.388 71.0607 107.557 70.7096 107.718 70.3709C108.096 69.5781 108.485 68.7593 108.251 67.6137C108.167 67.2049 108.049 66.9356 107.934 66.7618C108.193 68.5348 107.735 69.5403 106.439 72.3759L106.353 72.5616C105.267 74.9431 104.951 76.3413 104.862 77.0223Z" fill="#263238"/>
<path d="M58.5889 63.4921C58.5455 63.5064 58.4927 63.5014 58.4533 63.4695C58.386 63.4211 58.3699 63.3237 58.4181 63.2564C58.4181 63.2564 58.6573 62.9238 59.0536 62.3787C59.1019 62.3114 59.199 62.2953 59.2672 62.3466C59.3345 62.395 59.3506 62.4924 59.2995 62.5606C58.9022 63.1028 58.6669 63.4374 58.6669 63.4374C58.6437 63.4643 58.6177 63.4825 58.5889 63.4921Z" fill="white"/>
<path d="M57.6769 64.3686C57.6769 64.3686 64.7829 53.8889 71.3019 48.7362C77.8217 43.5863 80.9278 44.5917 81.3092 47.3547C81.6878 50.1187 81.0947 59.6239 80.0263 65.1131C78.9579 70.6023 77.0497 79.6851 77.0497 79.6851C77.0497 79.6851 83.2302 84.1685 83.838 84.7187C84.4449 85.2661 81.6881 86.2864 80.3093 85.9909C79.2132 85.7561 79.2668 85.8604 76.8479 85.2089C72.7484 84.1049 72.268 83.3006 72.4919 82.3695C73.2132 79.3866 74.386 76.7037 74.1449 73.4739C73.7048 67.6069 73.8908 59.7578 74.4253 60.435C74.4253 60.435 72.2033 65.0214 67.6778 68.4432C63.1495 71.8658 59.6777 72.5157 56.4153 70.2426" fill="#73B4EA"/>
<path d="M82.7127 85.8675C81.9013 86.1356 80.9102 86.277 80.2737 86.1439C79.9535 86.0764 79.7324 86.0371 79.5179 85.9988C79.0044 85.9085 78.5179 85.8222 76.8056 85.3609C72.7273 84.2627 72.0805 83.4203 72.3413 82.339C72.5245 81.5755 72.7405 80.8236 72.9525 80.0986C73.5789 77.9238 74.1695 75.8732 73.9913 73.4925C73.7192 69.8395 73.647 64.2329 73.9202 61.6483C72.9573 63.241 70.9048 66.1985 67.7654 68.5715C63.1118 72.0901 59.5825 72.6434 56.3211 70.3732C56.251 70.3258 56.2358 70.2313 56.2831 70.1611C56.3303 70.0909 56.4275 70.0748 56.4947 70.1232C59.6284 72.3073 63.049 71.7545 67.5793 68.328C71.1877 65.601 73.3374 62.0945 74.0324 60.8441C74.1003 60.507 74.1825 60.3001 74.2826 60.2638C74.3172 60.2524 74.4337 60.2171 74.5383 60.3494C74.5757 60.3948 74.5804 60.4575 74.5563 60.5104C74.5524 60.5181 74.4607 60.7057 74.2812 61.0251C74.0134 62.7346 73.9104 68.4216 74.2895 73.4742C74.4725 75.9079 73.8722 77.9874 73.2409 80.1863C73.0317 80.9103 72.8178 81.6583 72.6355 82.4151C72.4629 83.1335 72.6461 83.93 76.8821 85.0691C78.581 85.5285 79.0598 85.611 79.5675 85.7032C79.7849 85.7405 80.0099 85.7817 80.3368 85.8502C81.4839 86.0938 83.5206 85.4046 83.7552 84.9419C83.7764 84.8996 83.7755 84.8774 83.7342 84.8397C83.1408 84.3039 77.0218 79.8612 76.9593 79.8176C76.9094 79.7828 76.8864 79.723 76.899 79.6642C76.9175 79.5747 78.8189 70.5198 79.8757 65.0922C80.9557 59.5414 81.5314 50.1093 81.1585 47.382C81.0256 46.4083 80.5517 45.7304 79.7943 45.4253C78.7957 45.0203 76.3766 44.9306 71.3952 48.8625C64.9698 53.9395 57.8744 64.3546 57.803 64.4584C57.7557 64.5286 57.6624 64.5466 57.5923 64.4992C57.5221 64.4518 57.504 64.3582 57.5513 64.288C57.6227 64.1842 64.746 53.7277 71.2071 48.623C74.9863 45.6373 78.0754 44.4013 79.9055 45.1414C80.7705 45.4911 81.3068 46.2512 81.4587 47.3406C81.8354 50.0891 81.2577 59.5732 80.1728 65.1481C79.1762 70.2733 77.4233 78.6339 77.2165 79.6267C77.9744 80.1755 83.3595 84.0936 83.9376 84.612C84.0797 84.7415 84.1131 84.9103 84.0281 85.0796C83.8766 85.3672 83.3508 85.6566 82.7127 85.8675Z" fill="#73B4EA"/>
<path d="M60.1848 61.3143C60.1386 61.3295 60.0877 61.3207 60.0464 61.2926C59.9782 61.2413 59.9658 61.1459 60.0141 61.0786C61.5049 59.0868 63.6234 56.3579 65.2618 54.6768C65.3186 54.6163 65.4177 54.6156 65.4753 54.6736C65.5368 54.7336 65.5366 54.8299 65.4788 54.8876C63.8529 56.5581 61.7431 59.2745 60.2571 61.2615C60.2397 61.2865 60.2137 61.3047 60.1848 61.3143Z" fill="white"/>
<path d="M71.8628 64.2412C71.8224 64.2545 71.7762 64.2505 71.7359 64.2253C71.6638 64.1817 71.6419 64.0863 71.6853 64.0141L73.4703 61.1097C73.4426 60.5026 73.2472 54.3877 75.9358 50.2827C75.9831 50.2125 76.0754 50.1916 76.1456 50.239C76.2157 50.2865 76.2367 50.379 76.1894 50.4492C73.4285 54.6649 73.7724 61.0741 73.7771 61.1367C73.778 61.1685 73.7721 61.1994 73.7548 61.2244L71.9476 64.1682C71.9254 64.2076 71.8975 64.2297 71.8628 64.2412Z" fill="white"/>
<path d="M80.9722 59.0283C80.9549 59.034 80.9337 59.0378 80.9135 59.0348C80.8289 59.0307 80.7665 58.9582 80.7705 58.8734L80.8618 57.3762C80.8658 57.2915 80.9381 57.2291 81.0227 57.2332C81.1074 57.2373 81.1698 57.3098 81.1658 57.3946L81.0744 58.8917C81.0734 58.9563 81.03 59.0092 80.9722 59.0283Z" fill="white"/>
<path d="M81.1442 56.2138C81.1269 56.2195 81.1057 56.2233 81.0855 56.2203C81.0008 56.2162 80.9385 56.1437 80.9425 56.0589L81.2711 50.6377C81.2751 50.5529 81.3473 50.4905 81.432 50.4946C81.5166 50.4988 81.579 50.5712 81.575 50.656L81.2464 56.0773C81.2424 56.1428 81.2019 56.1947 81.1442 56.2138Z" fill="white"/>
<path d="M80.3049 85.9956C81.6827 86.2882 84.4434 85.2698 83.8336 84.7234C83.2267 84.1761 77.0453 79.6898 77.0453 79.6898C77.0453 79.6898 77.551 77.2852 78.1878 74.2018C76.2488 74.5762 74.9424 74.1316 74.1479 73.6366C74.3401 76.796 73.1991 79.4394 72.4875 82.3742C72.2636 83.3053 72.744 84.1096 76.8435 85.2136C79.2624 85.8651 79.2087 85.7608 80.3049 85.9956Z" fill="#FEDEA5"/>
<path d="M82.7131 85.8675C81.9017 86.1357 80.9106 86.277 80.2741 86.1439C79.9539 86.0764 79.7328 86.0372 79.5183 85.9989C79.0048 85.9086 78.5183 85.8222 76.806 85.3609C72.7276 84.2628 72.0809 83.4204 72.3417 82.3391C72.5259 81.5784 72.7399 80.8304 72.949 80.1064C73.5619 77.9778 74.1399 75.9666 73.9981 73.6477C73.9953 73.5908 74.0223 73.537 74.0734 73.5073C74.1215 73.4785 74.1821 73.4777 74.2311 73.5097C74.9613 73.9649 76.235 74.4268 78.1614 74.0533C78.2124 74.0428 78.2624 74.0584 78.297 74.0952C78.3315 74.1319 78.3487 74.184 78.3361 74.2331C77.775 76.9545 77.314 79.1452 77.216 79.6238C77.9739 80.1727 83.3589 84.0907 83.937 84.6091C84.0792 84.7387 84.1125 84.9074 84.0275 85.0768C83.8769 85.3673 83.3512 85.6566 82.7131 85.8675ZM74.315 73.9089C74.3993 76.1602 73.8367 78.1213 73.2422 80.1892C73.035 80.9094 72.821 81.6574 72.6378 82.4113C72.4652 83.1296 72.6484 83.9262 76.8844 85.0653C78.5833 85.5247 79.0621 85.6072 79.5699 85.6994C79.7872 85.7367 80.0122 85.7779 80.3391 85.8464C81.4862 86.09 83.5229 85.4008 83.7575 84.9381C83.7788 84.8958 83.7778 84.8736 83.7365 84.8359C83.1431 84.3001 77.0241 79.8574 76.9617 79.8138C76.9117 79.779 76.8887 79.7192 76.9014 79.6604C76.9014 79.6604 77.3837 77.3695 77.9953 74.3939C76.2874 74.6727 75.0819 74.3199 74.315 73.9089Z" fill="#263238"/>
<path d="M77.0459 79.6898C77.0459 79.6898 76.5662 79.5273 76.3394 80.4594C76.1126 81.3914 76.0782 82.2567 76.0782 82.2567L73.0064 80.4535C72.8244 81.085 72.6443 81.7224 72.4882 82.3742C72.2642 83.3053 72.7446 84.1096 76.8441 85.2136C79.263 85.8651 79.2094 85.7608 80.3055 85.9956C81.6834 86.2882 84.444 85.2699 83.8342 84.7234C83.2264 84.1732 77.0459 79.6898 77.0459 79.6898Z" fill="#F37630"/>
<path d="M82.7131 85.8672C81.9017 86.1354 80.9107 86.2767 80.2741 86.1436C79.954 86.0761 79.7328 86.0368 79.5184 85.9986C79.0049 85.9083 78.5183 85.8219 76.806 85.3606C72.7277 84.2624 72.0809 83.4201 72.3417 82.3388C72.5056 81.6619 72.6963 80.9889 72.8609 80.4112C72.8745 80.365 72.9073 80.3285 72.9496 80.3113C72.9949 80.2931 73.041 80.2972 73.0843 80.3214L75.9447 81.9986C75.9713 81.672 76.0359 81.0632 76.192 80.421C76.2938 80.0021 76.4617 79.7252 76.6918 79.5977C76.8979 79.4847 77.0757 79.5383 77.094 79.5451C77.1084 79.5499 77.1238 79.5577 77.1363 79.5664C77.3889 79.7493 83.3302 84.0614 83.9371 84.6088C84.0792 84.7384 84.1125 84.9071 84.0276 85.0764C83.877 85.367 83.3512 85.6563 82.7131 85.8672ZM73.098 80.6828C72.947 81.2142 72.7785 81.8092 72.634 82.4091C72.4614 83.1274 72.6446 83.9239 76.8806 85.0631C78.5795 85.5224 79.0583 85.6049 79.5661 85.6971C79.7834 85.7344 80.0084 85.7756 80.3353 85.8441C81.4824 86.0878 83.5191 85.3986 83.7537 84.9358C83.7749 84.8935 83.774 84.8713 83.7327 84.8336C83.1575 84.3143 77.4257 80.1513 76.9828 79.829C76.9559 79.825 76.8963 79.8287 76.8289 79.867C76.7268 79.9265 76.5832 80.0831 76.4843 80.4913C76.2642 81.3955 76.2299 82.251 76.2289 82.2578C76.2269 82.3098 76.1951 82.3589 76.1498 82.3867C76.1036 82.4116 76.0459 82.4114 75.9988 82.3852L73.098 80.6828Z" fill="#F37630"/>
<path d="M76.8454 85.2137C79.2643 85.8652 79.2106 85.7609 80.3068 85.9957C81.5471 86.2599 83.9034 85.4619 83.9227 84.9001C79.4629 86.1173 74.6741 83.8191 72.4622 82.5245C72.3259 83.3914 72.967 84.1682 76.8454 85.2137Z" fill="white"/>
<path d="M82.6896 85.8814C81.9013 86.1419 80.9372 86.2872 80.2747 86.1434C79.9546 86.0759 79.7334 86.0367 79.519 85.9984C79.0055 85.9081 78.5189 85.8217 76.8066 85.3604C72.861 84.2955 72.1613 83.477 72.3093 82.5004C72.3181 82.4493 72.3489 82.407 72.3932 82.386C72.4404 82.364 72.4923 82.3661 72.5365 82.3932C74.9108 83.7817 79.5402 85.9368 83.8797 84.753C83.9269 84.7406 83.9749 84.7504 84.0134 84.7794C84.0518 84.8084 84.0738 84.8557 84.0708 84.9049C84.0657 85.0542 83.9683 85.2052 83.7824 85.3501C83.5358 85.544 83.1401 85.7325 82.6896 85.8814ZM72.5964 82.7779C72.6251 83.3687 73.2432 84.0857 76.8851 85.0649C78.5839 85.5242 79.0628 85.6067 79.5705 85.6989C79.7878 85.7362 80.0128 85.7774 80.3398 85.8459C81.2561 86.0406 82.8806 85.6257 83.5433 85.1499C79.3456 86.0942 74.9861 84.1452 72.5964 82.7779Z" fill="#263238"/>
</svg>
