<svg width="170" height="130" viewBox="0 0 170 130" fill="none" xmlns="http://www.w3.org/2000/svg">
<mask id="mask0_1_2709" style="mask-type:alpha" maskUnits="userSpaceOnUse" x="0" y="0" width="177" height="210">
<rect width="176.435" height="210" rx="10" fill="#FA6E5A"/>
</mask>
<g mask="url(#mask0_1_2709)">
<path d="M12.7729 35.4472C-12.7271 39.8271 -19.2271 24.8625 -23.7271 16.2852V-37.3684H64.2729V60.6316H48.7729C40.4396 50.0469 38.2729 31.0673 12.7729 35.4472Z" fill="#808AFF"/>
<path d="M115.773 35.4472C141.273 39.8271 147.773 24.8625 152.273 16.2852V-37.3684H64.2729V60.6316H79.7729C88.1063 50.0469 90.2729 31.0673 115.773 35.4472Z" fill="#808AFF"/>
<g clip-path="url(#clip0_1_2709)">
<path d="M156.386 24.3394H153V41.3394H156.386V24.3394Z" fill="#9BA3FF"/>
<path d="M161.693 30.0537H158.307V41.3392H161.693V30.0537Z" fill="#9BA3FF"/>
<path d="M167.007 35.4395H163.621V41.3395H167.007V35.4395Z" fill="#9BA3FF"/>
</g>
<g clip-path="url(#clip1_1_2709)">
<path d="M91.5 129.339C110.554 129.339 126 126.653 126 123.339C126 120.026 110.554 117.339 91.5 117.339C72.4462 117.339 57 120.026 57 123.339C57 126.653 72.4462 129.339 91.5 129.339Z" fill="#808AFF"/>
</g>
<path d="M85.6819 45.4957C85.6819 45.4957 84.3303 60.4362 89.9286 60.2111C95.9341 59.9665 94.3187 45.4957 94.3187 45.4957C93.5338 43.1632 93.2212 41.7801 93.5729 39.3335H86.2811C86.6328 41.7801 86.4635 43.1632 85.6819 45.4957Z" fill="#FDBCA0"/>
<path d="M86.4275 42.2233C87.2547 42.4713 88.0884 42.6996 88.9514 42.7714C89.7689 42.8399 90.6091 42.7877 91.4233 42.6996C92.1007 42.6246 92.8237 42.5039 93.5011 42.2788C93.3936 41.3915 93.4099 40.4781 93.576 39.3298H86.2842C86.4438 40.4553 86.4926 41.3556 86.4275 42.2233Z" fill="#F0A38B"/>
<path d="M89.9285 41.3722C92.0096 41.3722 94.0125 40.5502 95.478 39.0691C97.2236 37.3076 98.5914 35.3438 98.992 33.0375C99.5066 30.0755 98.5068 27.1167 96.3248 24.7354H83.5291C81.3471 27.1134 80.3472 30.0755 80.8618 33.0375C81.2624 35.3438 82.6335 37.3076 84.3758 39.0691C85.8446 40.5469 87.8475 41.3722 89.9285 41.3722Z" fill="#FDBCA0"/>
<path d="M90.5643 47.2376C90.3005 47.528 90.0529 47.8444 89.8185 48.1608C89.5351 47.9651 89.3104 47.727 89.0629 47.4823C89.0401 47.4595 88.9945 47.4823 89.0043 47.5149C89.1443 47.8998 89.4374 48.213 89.737 48.4805C89.8022 48.536 89.8934 48.5425 89.9585 48.4805C90.2744 48.1706 90.5838 47.8085 90.828 47.4366C90.9323 47.2833 90.6913 47.0974 90.5643 47.2376Z" fill="#DF8370"/>
<path d="M97.6051 46.6666C95.6609 46.833 93.7427 47.1494 91.8505 47.6322C91.7365 47.6616 91.7854 47.8345 91.8994 47.8084C93.7818 47.3908 95.6837 47.107 97.6051 46.9765C97.8071 46.9635 97.8038 46.6503 97.6051 46.6666Z" fill="#DF8370"/>
<path d="M82.2496 46.6666C84.1938 46.833 86.1121 47.1494 88.0042 47.6322C88.1182 47.6616 88.0694 47.8345 87.9554 47.8084C86.073 47.3908 84.1711 47.107 82.2496 46.9765C82.0509 46.9635 82.0509 46.6503 82.2496 46.6666Z" fill="#DF8370"/>
<path d="M82.5846 19.8096C79.8652 21.3689 77.9502 23.8253 77.9177 27.1265C77.8851 30.8486 82.4119 36.7759 82.3501 36.6291C80.8455 33.0081 80.4514 28.0236 84.2064 25.5281C84.5809 25.2802 85.0499 25.1366 85.3853 24.8463C85.3756 22.8792 84.2911 20.9742 82.5846 19.8096Z" fill="#3F4553"/>
<path d="M97.0052 19.8096C99.7246 21.3689 101.64 23.8253 101.672 27.1265C101.705 30.8486 99.4803 34.1597 97.2658 36.9716C97.8292 35.7451 99.1351 28.0203 95.3801 25.5281C95.0056 25.2802 94.5366 25.1366 94.2012 24.8463C94.2142 22.8792 95.3019 20.9741 97.0052 19.8096Z" fill="#424495"/>
<path d="M136.05 17.8392C133.973 16.8051 131.546 16.5833 129.286 17.0433C128.192 17.2651 127.156 17.6533 126.169 18.1785C125.515 18.5243 124.851 19.0201 124.088 19.0788C123.164 19.1473 122.353 18.5438 121.665 18.0089C119.529 16.3452 117.357 14.887 114.608 14.4858C113.279 14.29 111.794 14.4336 110.765 15.2491C109.71 13.8529 108.137 12.858 106.404 12.4926C104.112 12.0098 101.933 12.6981 100.132 14.0813C99.1158 13.5822 97.3377 12.8645 97.1129 12.8025C90.3389 10.9366 81.0898 15.6699 82.2883 23.6523C83.3174 30.5126 91.9901 33.6834 97.9988 32.2741C99.2949 34.7305 102.402 35.3014 104.796 34.0226C104.978 34.1629 105.16 34.3032 105.346 34.4402C109.166 37.2456 113.612 39.0692 118.412 38.2406C120.236 37.9241 121.942 37.2652 123.512 36.3192C125.004 37.4414 126.967 37.7969 128.775 36.9292C130.12 36.2866 131.022 35.0991 131.344 33.7551C131.367 33.7551 131.39 33.7551 131.413 33.7551C135.406 33.7062 139.639 31.7196 140.659 27.5277C141.587 23.7176 139.522 19.5649 136.05 17.8392Z" fill="#4E5567"/>
<path d="M117.897 16.5963C119.21 17.6695 119.988 19.1408 119.171 20.762C118.506 22.0832 117.311 23.0455 116.442 24.2166C115.422 25.5867 115.246 27.345 116.917 28.3465C118.562 29.3317 120.623 28.1051 121.994 27.1754C123.688 26.0239 125.505 22.6932 126.964 21.2644C133.445 14.9196 139.88 21.7015 139.906 21.7244C139.066 20.0737 137.724 18.6743 136.05 17.8392C133.973 16.8051 131.546 16.5833 129.286 17.0432C128.192 17.265 127.156 17.6532 126.169 18.1784C125.515 18.5242 124.85 19.0201 124.088 19.0788C123.163 19.1473 122.353 18.5438 121.665 18.0088C119.529 16.3451 117.357 14.8869 114.608 14.4857C113.309 14.2965 111.859 14.4335 110.833 15.2034C113.071 14.3324 116.103 15.1251 117.897 16.5963Z" fill="#3F4553"/>
<path d="M135.158 32.6787C133.572 32.8647 132.087 32.7766 130.628 32.1274C129.999 33.7618 128.713 35.4124 126.896 35.6701C125.674 35.843 124.232 35.4613 123.981 34.1663C115.396 41.1668 105.772 33.3572 104.844 31.8926C102.167 33.6411 98.7932 31.5076 97.7934 28.7772C95.7547 29.5699 93.4034 29.3253 91.4233 28.4738C87.7334 26.8917 85.6882 22.5302 86.9778 18.6809C88.0526 15.4808 90.9152 13.2919 94.0873 12.4013C87.9027 12.3655 81.2623 16.815 82.2881 23.6524C83.3173 30.5127 91.9867 33.6835 97.9986 32.2742C99.2948 34.7306 102.402 35.3015 104.795 34.0227C104.978 34.163 105.16 34.3033 105.346 34.4403C109.166 37.2457 113.611 39.0692 118.412 38.2407C120.236 37.9242 121.942 37.2653 123.512 36.3193C125.003 37.4414 126.967 37.797 128.775 36.9293C130.12 36.2866 131.022 35.0992 131.344 33.7552C131.367 33.7552 131.39 33.7552 131.413 33.7552C133.318 33.7324 135.275 33.2659 136.917 32.3329C136.34 32.5058 135.741 32.6102 135.158 32.6787Z" fill="#3F4553"/>
<path d="M87.6419 34.786C86.5021 34.9752 84.649 35.0372 83.5971 33.9085C83.3886 33.6834 83.1053 33.9379 83.3658 34.163C83.4082 34.1989 83.4505 34.2315 83.4929 34.2641C83.3691 34.3 83.2388 34.3163 83.1021 34.3065C83.0988 34.3065 83.0988 34.3098 83.1021 34.313C83.2681 34.3685 83.4375 34.3848 83.6036 34.3522C83.6068 34.3554 83.6101 34.3587 83.6134 34.3587C83.4701 34.4533 83.2975 34.4925 83.1281 34.5479C83.1248 34.5479 83.1248 34.5512 83.1281 34.5544C83.3365 34.574 83.5547 34.5479 83.7273 34.437C83.7469 34.45 83.7664 34.4566 83.786 34.4696C83.6557 34.5707 83.5091 34.6458 83.3431 34.6849C83.3268 34.6882 83.33 34.7143 83.3463 34.7143C83.558 34.7241 83.7599 34.6719 83.9293 34.5544C83.9651 34.574 84.0042 34.5903 84.04 34.6099C83.9195 34.698 83.7957 34.7763 83.6557 34.8415C83.6427 34.848 83.6492 34.8709 83.6622 34.8709C83.8478 34.8774 84.0107 34.7828 84.1572 34.6719C84.2028 34.6947 84.2484 34.711 84.2973 34.7306C84.2354 34.7926 84.1637 34.8513 84.0954 34.91C84.0856 34.9198 84.0954 34.9328 84.1084 34.9328C84.2256 34.9035 84.3331 34.8545 84.4243 34.786C85.4697 35.2166 86.6942 35.2297 87.7429 34.8513C87.8536 34.8056 87.7689 34.7665 87.6419 34.786Z" fill="#3F4553"/>
<path d="M92.3217 34.786C93.4616 34.9752 95.3146 35.0372 96.3666 33.9085C96.575 33.6834 96.8583 33.9379 96.5978 34.163C96.5555 34.1989 96.5131 34.2315 96.4708 34.2641C96.5978 34.3 96.7248 34.3163 96.8616 34.3065C96.8648 34.3065 96.8648 34.3098 96.8616 34.313C96.6955 34.3685 96.5261 34.3848 96.3601 34.3522C96.3568 34.3554 96.3535 34.3587 96.3503 34.3587C96.4936 34.4533 96.6662 34.4925 96.8355 34.5479C96.8388 34.5479 96.8388 34.5512 96.8355 34.5544C96.6271 34.574 96.4089 34.5479 96.2363 34.437C96.2168 34.45 96.1972 34.4566 96.1777 34.4696C96.3079 34.5707 96.4545 34.6458 96.6206 34.6849C96.6369 34.6882 96.6336 34.7143 96.6173 34.7143C96.4056 34.7241 96.2037 34.6719 96.0344 34.5544C95.9986 34.574 95.9595 34.5903 95.9236 34.6099C96.0441 34.698 96.1679 34.7763 96.3079 34.8415C96.321 34.848 96.3145 34.8709 96.3014 34.8709C96.1158 34.8774 95.953 34.7828 95.8064 34.6719C95.7608 34.6947 95.7152 34.711 95.6696 34.7306C95.7315 34.7926 95.8032 34.8513 95.8715 34.91C95.8813 34.9198 95.8715 34.9328 95.8585 34.9328C95.7413 34.9035 95.6338 34.8545 95.5426 34.786C94.4972 35.2166 93.2727 35.2297 92.2207 34.8513C92.1133 34.8056 92.1947 34.7665 92.3217 34.786Z" fill="#3F4553"/>
<path d="M90.7001 37.1643C90.166 37.4416 89.6352 37.5525 89.0848 37.2197C89.0457 37.1969 89.0001 37.2523 89.0359 37.285C89.5082 37.7058 90.3484 37.8134 90.8206 37.3209C90.8988 37.236 90.8011 37.1121 90.7001 37.1643Z" fill="#3F4553"/>
<path d="M91.921 39.0886C91.2533 39.2876 90.5955 39.3626 89.9441 39.3332C89.2928 39.3626 88.6349 39.2876 87.9673 39.0886C87.951 39.0821 87.938 39.1114 87.9543 39.1179C88.5958 39.392 89.27 39.5388 89.9441 39.5551C90.6183 39.5388 91.2924 39.392 91.934 39.1179C91.9503 39.1114 91.9372 39.0853 91.921 39.0886Z" fill="#3F4553"/>
<path d="M86.883 36.3845C86.8277 36.3584 86.7691 36.3356 86.7104 36.3193C85.9647 36.1268 85.0821 35.7615 84.3037 35.8952C83.7533 35.9898 83.6263 36.6586 83.939 37.0533C84.2744 37.4774 84.9323 37.5981 85.4403 37.6372C85.9516 37.6763 86.7528 37.7318 87.1338 37.3306C87.479 36.9685 87.2445 36.5607 86.883 36.3845Z" fill="#FBAD8B"/>
<path d="M92.9794 36.3845C93.0348 36.3584 93.0934 36.3356 93.1521 36.3193C93.8978 36.1268 94.7804 35.7615 95.5588 35.8952C96.1092 35.9898 96.2362 36.6586 95.9235 37.0533C95.5881 37.4774 94.9302 37.5981 94.4222 37.6372C93.9109 37.6763 93.1097 37.7318 92.7287 37.3306C92.3835 36.9685 92.6212 36.5607 92.9794 36.3845Z" fill="#FBAD8B"/>
<path d="M80.0933 31.5009C79.3214 31.3868 78.4942 31.7064 78.6343 32.6231C78.745 33.3538 79.5299 34.0813 80.7284 33.8627C80.4027 33.1059 80.178 32.3099 80.0933 31.5009Z" fill="#F9CDB9"/>
<path d="M79.3476 32.2188C79.5593 32.0427 79.8882 31.9644 80.1716 32.01C80.1553 31.922 80.1455 31.8306 80.1325 31.7425C79.745 31.7067 79.289 31.8665 79.0676 32.147C78.7223 32.5874 78.9829 33.0768 79.3639 33.3769C79.4193 33.4225 79.4974 33.3508 79.4453 33.2953C79.1685 33.0017 78.9764 32.5287 79.3476 32.2188Z" fill="#F8C4AB"/>
<path d="M80.325 32.7079C80.1231 32.5252 79.8593 32.4241 79.5564 32.4372C79.488 32.4404 79.462 32.5546 79.5401 32.5644C79.8169 32.6035 80.0547 32.7471 80.2012 32.9689C80.0319 33.0602 79.9081 33.2592 80.0807 33.4223C80.2175 33.5528 80.4194 33.5822 80.6116 33.5626C80.5041 33.2821 80.4032 32.9982 80.325 32.7079Z" fill="#F8C4AB"/>
<path d="M80.0251 33.6508C80.0218 33.6475 80.0153 33.6508 80.0186 33.654C80.1423 33.9607 80.3182 34.6783 79.8948 34.8251C79.6115 34.923 79.5854 34.5576 79.6278 34.3652C79.6669 34.189 79.7646 34.0063 79.846 33.8498C79.846 33.8498 79.6506 33.8073 79.4714 33.716C79.2272 33.9248 79.1393 34.2347 79.1816 34.5609C79.2207 34.8578 79.4096 35.184 79.745 35.1938C80.0446 35.2035 80.2596 34.9458 80.3052 34.6718C80.3573 34.3162 80.214 33.9411 80.0251 33.6508Z" fill="#FDCA27"/>
<path d="M142.345 89.8311C140.515 87.6487 136.555 87.4726 133.956 87.2018C126.143 86.3863 118.132 86.5885 110.315 87.2214C106.424 87.5378 102.551 88.0108 98.6954 88.6339C95.9044 89.0873 92.7877 89.4037 90 90.2975C87.2122 89.4037 84.0955 89.084 81.3045 88.6339C77.4518 88.0075 73.5763 87.5345 69.6845 87.2214C61.8683 86.5885 53.8535 86.3863 46.0439 87.2018C43.4483 87.4726 39.4848 87.6487 37.6546 89.8311C35.8862 91.9384 38.0682 94.4926 39.7486 95.8334C42.0707 97.6863 45.018 98.5997 47.8318 99.3989C51.3654 100.397 54.9804 101.076 58.6149 101.591C74.8822 103.888 83.7145 102.195 92.2178 102.09C92.5435 102.504 92.8496 102.935 93.1297 103.382C101.75 103.437 112.823 102.749 121.382 101.591C125.02 101.098 128.631 100.4 132.165 99.3989C134.982 98.6029 137.926 97.6895 140.248 95.8334C141.928 94.4926 144.111 91.9384 142.345 89.8311Z" fill="#93BFA8"/>
<path d="M130.803 91.3414C131.074 90.9957 132.712 90.5683 133.357 90.2812C130.318 90.5259 127.267 90.8913 124.235 91.2044C118.467 91.7981 112.693 93.3281 107.228 95.2429C104.613 96.1596 102.004 97.1219 99.4053 98.0875C97.3471 98.8509 95.3116 99.686 93.3804 100.727C93.6767 100.635 93.9731 100.544 94.2695 100.456C97.3503 99.549 109.905 92.7474 133.152 91.9091C132.614 91.7916 130.699 91.4752 130.803 91.3414Z" fill="#66A986"/>
<path d="M49.5381 90.8619C49.2678 90.5162 47.6297 90.0888 46.9849 89.8018C50.0234 90.0464 53.0749 90.4118 56.107 90.7249C61.8746 91.3186 67.6488 92.8486 73.1136 94.7634C75.7287 95.6801 78.3374 96.6424 80.9363 97.608C82.9945 98.3714 85.03 99.2065 86.9612 100.247C86.6648 100.156 86.3685 100.064 86.0721 99.9763C82.9912 99.0694 70.4366 92.2679 47.19 91.4296C47.7241 91.3121 49.6391 90.9957 49.5381 90.8619Z" fill="#66A986"/>
<path d="M97.8586 98.0745C96.5494 97.5493 95.1653 97.5362 93.8919 98.081C91.7164 99.0172 89.0492 97.5819 86.789 97.8396C84.708 98.0778 83.4411 100.449 85.0336 101.963C85.4179 102.328 89.2804 103.731 95.3998 100.873C96.0707 100.56 96.7253 100.381 97.4841 100.391C97.66 100.394 97.8261 100.56 98.0117 100.541C98.409 100.492 98.7347 100.42 98.9561 100.035C99.4772 99.1282 98.6077 98.3746 97.8586 98.0745Z" fill="#FDB597"/>
<path d="M82.5842 102.886C83.6882 102.009 85.0137 101.598 86.3848 101.758C88.7361 102.032 90.8823 99.8916 93.1229 99.4904C95.1845 99.1218 97.0766 101.03 95.9824 102.942C95.7186 103.402 92.4162 105.852 85.7367 104.866C85.0039 104.759 84.3265 104.775 83.6035 105C83.4374 105.052 83.3235 105.261 83.1378 105.294C82.7438 105.362 82.4116 105.385 82.0891 105.082C81.3336 104.361 81.9524 103.389 82.5842 102.886Z" fill="#FDBCA0"/>
<path d="M126.967 49.2958C126.214 49.684 125.423 50.1211 124.684 50.5289C125.074 50.2092 127.243 47.9975 128.087 47.4527C128.178 47.394 127.963 46.4969 125.745 48.2715C125.084 48.8 124.303 49.335 123.681 49.9124C124.472 48.4085 125.133 46.8851 126.169 45.5085C126.211 45.453 126.198 45.3911 126.162 45.3487C125.95 45.1823 125.42 45.3715 125.182 45.6259C124.758 46.0761 123.15 47.8181 122.368 49.6547C122.381 49.0251 122.326 48.004 121.88 47.7952C121.599 47.6615 121.134 47.8377 120.834 47.8605C120.245 47.9029 119.473 47.9877 118.922 47.7528C118.841 47.7202 118.636 47.6941 118.711 47.9649C118.962 48.8522 120.199 48.9631 120.968 49.1588C121.228 49.7917 120.495 50.829 120.033 51.1422C119.281 51.6543 118.183 51.152 118.372 50.1472C118.538 49.2632 119.066 48.862 118.6 47.9942C118.447 47.7072 117.789 47.4462 117.936 47.9094C118.313 49.0936 117.229 50.0885 117.089 51.2335C116.978 52.1404 117.457 52.9461 117.939 53.6736C117.91 53.7486 117.887 53.8237 117.861 53.8954C117.206 55.0306 116.698 56.2278 116.33 57.4805C117.17 57.7578 119.639 57.5816 119.629 57.5621C119.639 57.5816 119.926 55.8266 120.583 55.0861C121.303 54.2738 122.208 53.6475 123.075 53.0081C124.895 51.6609 126.745 50.3528 128.621 49.0805C128.728 49.012 128.64 48.4314 126.967 49.2958Z" fill="#FDBCA0"/>
<path d="M53.2314 49.2958C53.9837 49.684 54.775 50.1211 55.5143 50.5289C55.1235 50.2092 52.9545 47.9975 52.111 47.4527C52.0199 47.394 52.2348 46.4969 54.4526 48.2715C55.1137 48.8 55.8954 49.335 56.5174 49.9124C55.726 48.4085 55.0649 46.8851 54.0293 45.5085C53.9869 45.453 53.9999 45.3911 54.0358 45.3487C54.2475 45.1823 54.7783 45.3715 55.016 45.6259C55.4394 46.0761 57.0482 47.8181 57.8299 49.6547C57.8168 49.0251 57.8722 48.004 58.3184 47.7952C58.5984 47.6615 59.0642 47.8377 59.3638 47.8605C59.9532 47.9029 60.7251 47.9877 61.2755 47.7528C61.3569 47.7202 61.5621 47.6941 61.4872 47.9649C61.2364 48.8522 59.9988 48.9631 59.2302 49.1588C58.9697 49.7917 59.7025 50.829 60.1649 51.1422C60.9172 51.6543 62.0148 51.152 61.8259 50.1472C61.6598 49.2632 61.1322 48.862 61.5979 47.9942C61.751 47.7072 62.4088 47.4462 62.2623 47.9094C61.8845 49.0936 62.969 50.0885 63.109 51.2335C63.2197 52.1404 62.741 52.9461 62.259 53.6736C62.2883 53.7486 62.3111 53.8237 62.3372 53.8954C62.9918 55.0306 63.4998 56.2278 63.8678 57.4805C63.0276 57.7578 60.559 57.5816 60.5688 57.5621C60.559 57.5816 60.2724 55.8266 59.6145 55.0861C58.8948 54.2738 57.9894 53.6475 57.1231 53.0081C55.3026 51.6609 53.4528 50.3528 51.5769 49.0805C51.4695 49.012 51.5574 48.4314 53.2314 49.2958Z" fill="#FDBCA0"/>
<path d="M115.451 56.3258C114.23 59.4802 110.088 71.126 108.358 76.0649C107.329 73.4226 104.548 61.9497 102.206 48.6304C101.477 44.4908 96.8164 45.0812 94.3217 45.4955C94.1426 48.2748 91.4493 55.98 90.0033 55.9963C88.5573 55.98 85.6914 48.8196 85.6849 45.4955C83.1935 45.0812 78.5299 44.4908 77.8004 48.6304C75.4555 61.9497 72.6775 73.4258 71.6484 76.0649C69.9158 71.126 65.7765 59.4802 64.5552 56.3258C62.9888 57.0663 61.2562 57.474 59.5269 57.5751C60.8654 61.1407 65.2848 86.3895 71.7982 86.3895C74.6218 86.3895 76.4097 83.3851 79.2887 72.2547C79.432 74.1141 79.4808 77.6862 79.4092 81.4409C79.3571 84.1452 77.491 87.2703 74.9931 86.6668C74.4883 86.5461 73.8304 86.9278 74.4557 87.6063C74.625 87.7922 74.8432 87.9292 75.068 88.0336C79.0575 89.9257 79.2138 92.7539 81.5684 94.4013C82.9916 95.3963 84.7437 95.7094 86.4144 96.0487C88.2251 96.414 90.0912 96.6881 91.9346 96.4108C94.9991 95.9508 97.3798 93.8989 99.9168 92.294C101.333 91.3969 102.773 90.6792 104.437 90.4346C108.72 89.805 108.436 86.7777 107.541 86.8397C104.541 87.0452 100.591 83.2155 100.568 79.0008C100.552 76.1954 100.607 73.7064 100.718 72.2547C103.597 83.3851 105.385 86.3895 108.208 86.3895C114.722 86.3895 119.141 61.1407 120.48 57.5751C118.75 57.474 117.018 57.063 115.451 56.3258Z" fill="#F2EDE4"/>
<path d="M98.2203 67.3517C98.1878 67.3745 98.1617 67.3973 98.1357 67.4202C97.6048 67.9388 97.1912 68.5619 96.6701 69.0904C96.1491 69.6156 95.4749 70.056 94.7356 70.0527C92.9607 70.0429 92.0716 67.9095 91.0034 66.8232C89.362 65.1595 87.7695 68.9501 86.5482 69.6939C85.2944 70.4572 84.4444 69.9972 83.5195 69.0936C82.9528 68.5391 82.4708 67.916 81.9465 67.3223C81.8097 67.1657 81.497 67.3321 81.5817 67.5343C82.194 69.0088 83.5781 71.4554 85.4051 71.4946C86.5254 71.5174 87.4438 70.8748 88.1798 70.0853C88.5413 69.6971 89.5379 67.6126 90.186 67.8867C90.3065 67.9388 90.3912 68.0465 90.4726 68.1509C90.795 68.575 91.0946 69.0219 91.4398 69.4264C91.619 69.6352 92.1368 69.9809 92.1368 70.268C92.8695 71.015 93.8759 71.6022 94.9148 71.475C95.9765 71.3445 96.8167 70.5127 97.4322 69.6352C97.8686 69.0121 98.2366 68.3401 98.5265 67.6355C98.5688 67.5343 98.6046 67.4071 98.5297 67.3256C98.4483 67.2407 98.3246 67.2799 98.2203 67.3517Z" fill="#D9C9AC"/>
<g clip-path="url(#clip2_1_2709)">
<path d="M157.99 84.2946L169.136 80.5589L163.548 64.1592L152.403 67.8949C151.966 68.0406 151.73 68.5101 151.881 68.9431L156.933 83.7725C157.08 84.2056 157.553 84.4403 157.99 84.2946Z" fill="#3F4553"/>
<path d="M157.998 83.9709L169.421 80.1422L164.038 64.3455L152.615 68.1742C152.334 68.2673 152.183 68.5709 152.276 68.8542L157.312 83.635C157.41 83.9143 157.717 84.064 157.998 83.9709Z" fill="#DDDDE3"/>
<path d="M158.239 83.8899L169.662 80.0611L164.279 64.2644L152.856 68.0932C152.574 68.1863 152.423 68.4898 152.517 68.7731L157.553 83.5539C157.651 83.8332 157.957 83.987 158.239 83.8899Z" fill="#E2E5FF"/>
<path d="M158.855 84.0032L170.001 80.2675L164.414 63.8718L153.268 67.6075C152.832 67.7532 152.595 68.2227 152.746 68.6558L157.798 83.4852C157.945 83.9182 158.419 84.1489 158.855 84.0032Z" fill="#4E5567"/>
<path d="M163.789 64.0813L163.549 64.1616L169.136 80.5615L169.376 80.4812L163.789 64.0813Z" fill="#3F4553"/>
<path d="M165.381 76.8919L165.63 76.3658L166.152 76.6329L162.071 64.6568C161.998 64.4464 161.814 64.4626 161.602 64.5354C161.39 64.6083 161.23 64.7054 161.304 64.9159L165.381 76.8919Z" fill="#93BFA8"/>
<path d="M140.339 68.4295L147.84 59.6091L146.324 58.341L138.822 67.1614L140.339 68.4295Z" fill="#3F4553"/>
<path d="M138.821 67.1584L140.335 68.4253L138.147 69.6192C138.074 69.6597 137.976 69.5747 138 69.4978L138.821 67.1584Z" fill="#F2EDE4"/>
<path d="M138.152 69.6231L138.744 69.2993L138.229 68.8662L138.009 69.4976C137.98 69.5745 138.078 69.6595 138.152 69.6231Z" fill="#3F4553"/>
<path d="M139.836 68.0093L147.337 59.189L146.823 58.7584L139.321 67.5788L139.836 68.0093Z" fill="#4E5567"/>
</g>
<g clip-path="url(#clip3_1_2709)">
<path d="M57.5028 -16.6606C47.8335 -16.6606 40 -8.82713 40 0.842112C40 10.5058 47.8335 18.3449 57.5028 18.3449C67.1665 18.3449 75.0055 10.5114 75.0055 0.842112C75 -8.82713 67.1665 -16.6606 57.5028 -16.6606ZM57.5028 15.3846C49.4708 15.3846 42.9603 8.87409 42.9603 0.842112C42.9603 -7.18986 49.4708 -13.7003 57.5028 -13.7003C65.5347 -13.7003 72.0452 -7.18986 72.0452 0.842112C72.0452 8.87409 65.5347 15.3846 57.5028 15.3846Z" fill="#808AFF"/>
<path d="M70.9208 6.44887C74.0194 -0.961061 70.5243 -9.47989 63.1144 -12.5785C55.7045 -15.6771 47.1856 -12.182 44.087 -4.77209C40.9885 2.63784 44.4835 11.1567 51.8934 14.2553C59.3034 17.3538 67.8222 13.8588 70.9208 6.44887Z" fill="#AEB4FC"/>
<path d="M70.738 0.868761C70.738 -0.151087 69.1504 -0.156599 69.1504 0.868761C69.1504 1.89412 70.738 1.89412 70.738 0.868761Z" fill="#808AFF"/>
<path d="M57.4686 14.0776C58.4885 14.0776 58.494 12.49 57.4686 12.49C56.4488 12.49 56.4433 14.0776 57.4686 14.0776Z" fill="#808AFF"/>
<path d="M44.2617 0.808945C44.2617 1.82879 45.8494 1.8343 45.8494 0.808945C45.8494 -0.2109 44.2617 -0.216413 44.2617 0.808945Z" fill="#808AFF"/>
<path d="M63.7544 5.09213C63.6607 5.09213 63.5669 5.07008 63.4843 5.01496L57.2274 1.2939C57.0675 1.20018 56.9683 1.02378 56.9683 0.836344V-9.16365C56.9683 -9.45583 57.2053 -9.69287 57.4975 -9.69287C57.7897 -9.69287 58.0267 -9.45583 58.0267 -9.16365V0.538661L64.0245 4.10536C64.2781 4.2542 64.3608 4.57946 64.2064 4.83304C64.1127 4.99842 63.9363 5.09213 63.7544 5.09213Z" fill="#808AFF"/>
</g>
<path d="M22.6207 36.7458L22.2715 34.7648L20.2463 35.1099C19.925 34.185 19.4013 33.3705 18.7239 32.7078L19.9111 31.0443L18.249 29.8916L17.0688 31.5482C16.2168 31.1341 15.2671 30.9063 14.2754 30.9132L13.9193 28.9045L11.915 29.2497L12.2642 31.2514C11.3284 31.5689 10.5043 32.0866 9.83392 32.7561L8.15091 31.5827L6.98467 33.2255L8.6607 34.392C8.24169 35.2341 8.01124 36.1729 8.01822 37.153L6 37.4982L6.34917 39.4792L8.37438 39.1341C8.69562 40.059 9.21938 40.8735 9.89677 41.5361L8.70959 43.1996L10.3717 44.3524L11.5519 42.6958C12.4038 43.1099 13.3536 43.3377 14.3452 43.3308L14.7014 45.3394L16.7057 44.9943L16.3565 42.9926C17.2923 42.6751 18.1163 42.1574 18.7867 41.4878L20.4697 42.6612L21.636 41.0184L19.96 39.8519C20.379 39.0098 20.6094 38.0711 20.6024 37.0909L22.6207 36.7458ZM14.6316 38.9615C13.605 39.141 12.6273 38.4576 12.4457 37.4429C12.2642 36.4283 12.9555 35.4619 13.9821 35.2825C15.0087 35.103 15.9864 35.7863 16.1679 36.801C16.3495 37.8157 15.6651 38.782 14.6316 38.9615Z" fill="#9BA3FF"/>
<path d="M41.7278 32.7492V30.2574H39.1788C38.9903 29.0564 38.5224 27.952 37.838 26.9994L39.6467 25.2117L37.8659 23.4515L36.0642 25.2324C35.1074 24.549 33.9971 24.0727 32.782 23.8726V21.3394H30.2609V23.8588C29.0458 24.0451 27.9215 24.5076 26.9647 25.1841L25.156 23.3963L23.3752 25.1564L25.177 26.9373C24.4856 27.8829 24.0037 28.9804 23.8012 30.1815H21.2383V32.6733H23.7872C23.9758 33.8743 24.4437 34.9787 25.1281 35.9313L23.3194 37.719L25.1001 39.4792L26.9019 37.6983C27.8586 38.3817 28.969 38.8579 30.1841 39.0581V41.5913H32.7051V39.0719C33.9203 38.8855 35.0376 38.4231 36.0013 37.7466L37.81 39.5344L39.5908 37.7742L37.7891 35.9934C38.4805 35.0477 38.9623 33.9502 39.1648 32.7492H41.7278ZM31.483 33.7846C30.1911 33.7846 29.1366 32.7492 29.1366 31.4653C29.1366 30.1884 30.1841 29.1461 31.483 29.1461C32.775 29.1461 33.8295 30.1815 33.8295 31.4653C33.8225 32.7423 32.775 33.7846 31.483 33.7846Z" fill="#AEB4FC"/>
<g opacity="0.3">
<path d="M159.995 14.2365L141.266 10.0271C141.082 9.98703 140.966 9.80358 141.009 9.62013L143.367 -0.880106C143.407 -1.06356 143.591 -1.1803 143.774 -1.13694L162.503 3.07583C162.687 3.11585 162.803 3.29931 162.76 3.48276L160.398 13.983C160.358 14.1631 160.178 14.2799 159.995 14.2365Z" fill="#ECECEC"/>
<path d="M141.319 9.78012C141.269 9.77011 141.239 9.72008 141.253 9.67338L143.614 -0.826848C143.624 -0.876881 143.674 -0.906901 143.721 -0.893559L162.45 3.31921C162.5 3.32922 162.53 3.37925 162.517 3.42595L160.155 13.9262C160.145 13.9762 160.095 14.0062 160.048 13.9929L141.319 9.78012Z" fill="#F5F4F5"/>
<path d="M159.867 2.47991L146.414 -0.54541L146.359 -0.30135L159.812 2.72397L159.867 2.47991Z" fill="#706F6E"/>
<path d="M145.105 0.964361L144.485 0.824269C144.408 0.807592 144.358 0.730874 144.375 0.650822L144.472 0.213868C144.488 0.137151 144.565 0.0871183 144.645 0.103796L145.265 0.243887C145.342 0.260565 145.392 0.337282 145.375 0.417335L145.279 0.854289C145.259 0.931006 145.182 0.981038 145.105 0.964361Z" fill="#585857"/>
<path d="M144.511 0.700831C144.501 0.697496 144.495 0.687489 144.498 0.677483L144.595 0.240528C144.598 0.230522 144.608 0.22385 144.618 0.227186L145.238 0.367279C145.248 0.370614 145.255 0.380621 145.252 0.390627L145.155 0.82758C145.152 0.837587 145.142 0.844258 145.132 0.840923L144.511 0.700831Z" fill="#5E5E5D"/>
<path d="M146.242 1.21802L145.622 1.07793C145.545 1.06125 145.495 0.984536 145.512 0.904484L145.609 0.467531C145.625 0.390814 145.702 0.34078 145.782 0.357458L146.403 0.497551C146.479 0.514228 146.529 0.590946 146.513 0.670998L146.416 1.10795C146.396 1.188 146.319 1.2347 146.242 1.21802Z" fill="#585857"/>
<path d="M145.648 0.957667C145.638 0.954332 145.632 0.944324 145.635 0.934317L145.732 0.497364C145.735 0.487358 145.745 0.480686 145.755 0.484022L146.376 0.624115C146.386 0.62745 146.392 0.637457 146.389 0.647463L146.292 1.08442C146.289 1.09442 146.279 1.10109 146.269 1.09776L145.648 0.957667Z" fill="#5E5E5D"/>
<path d="M147.38 1.47462L146.759 1.33452C146.683 1.31785 146.633 1.24113 146.649 1.16108L146.746 0.724123C146.763 0.647406 146.839 0.597372 146.919 0.61405L147.54 0.754143C147.617 0.77082 147.667 0.847537 147.65 0.92759L147.553 1.36454C147.533 1.44126 147.456 1.49129 147.38 1.47462Z" fill="#585857"/>
<path d="M146.786 1.21109C146.776 1.20775 146.77 1.19774 146.773 1.18774L146.87 0.750782C146.873 0.740776 146.883 0.734104 146.893 0.73744L147.513 0.877533C147.523 0.880868 147.53 0.890875 147.527 0.900881L147.43 1.33784C147.427 1.34784 147.417 1.35451 147.407 1.35118L146.786 1.21109Z" fill="#5E5E5D"/>
<path d="M148.517 1.72803L147.897 1.58794C147.82 1.57126 147.77 1.49455 147.787 1.41449L147.884 0.977539C147.9 0.900822 147.977 0.85079 148.057 0.867468L148.677 1.00756C148.754 1.02424 148.804 1.10095 148.788 1.18101L148.691 1.61796C148.671 1.69801 148.594 1.74805 148.517 1.72803Z" fill="#585857"/>
<path d="M147.924 1.46792C147.914 1.46459 147.907 1.45458 147.911 1.44457L148.007 1.00762C148.011 0.997612 148.021 0.99094 148.031 0.994276L148.651 1.13437C148.661 1.1377 148.668 1.14771 148.664 1.15772L148.568 1.59467C148.564 1.60468 148.554 1.61135 148.544 1.60801L147.924 1.46792Z" fill="#5E5E5D"/>
<path d="M149.651 1.98487L149.031 1.84478C148.954 1.8281 148.904 1.75138 148.921 1.67133L149.017 1.23438C149.034 1.15766 149.111 1.10763 149.191 1.1243L149.811 1.2644C149.888 1.28107 149.938 1.35779 149.921 1.43784L149.825 1.8748C149.808 1.95485 149.731 2.00155 149.651 1.98487Z" fill="#585857"/>
<path d="M149.061 1.72476C149.051 1.72142 149.044 1.71141 149.048 1.70141L149.144 1.26445C149.148 1.25445 149.158 1.24778 149.168 1.25111L149.788 1.3912C149.798 1.39454 149.805 1.40455 149.802 1.41455L149.705 1.85151C149.702 1.86151 149.691 1.86818 149.681 1.86485L149.061 1.72476Z" fill="#5E5E5D"/>
<path d="M150.789 2.24171L150.168 2.10161C150.092 2.08494 150.042 2.00822 150.058 1.92817L150.155 1.49121C150.172 1.4145 150.249 1.36446 150.329 1.38114L150.949 1.52123C151.026 1.53791 151.076 1.61463 151.059 1.69468L150.962 2.13163C150.946 2.20835 150.869 2.25838 150.789 2.24171Z" fill="#585857"/>
<path d="M150.198 1.97817C150.188 1.97484 150.182 1.96483 150.185 1.95483L150.282 1.51787C150.285 1.50786 150.295 1.50119 150.305 1.50453L150.925 1.64462C150.935 1.64796 150.942 1.65796 150.939 1.66797L150.842 2.10492C150.839 2.11493 150.829 2.1216 150.819 2.11827L150.198 1.97817Z" fill="#5E5E5D"/>
<path d="M151.927 2.49537L151.306 2.35528C151.229 2.3386 151.179 2.26188 151.196 2.18183L151.293 1.74487C151.309 1.66816 151.386 1.61812 151.466 1.6348L152.087 1.77489C152.163 1.79157 152.213 1.86829 152.197 1.94834L152.1 2.38529C152.083 2.46535 152.003 2.51538 151.927 2.49537Z" fill="#585857"/>
<path d="M151.336 2.23525C151.326 2.23192 151.319 2.22191 151.323 2.21191L151.419 1.77495C151.423 1.76494 151.433 1.75827 151.443 1.76161L152.063 1.9017C152.073 1.90504 152.08 1.91504 152.076 1.92505L151.98 2.362C151.976 2.37201 151.966 2.37868 151.956 2.37535L151.336 2.23525Z" fill="#5E5E5D"/>
<path d="M153.064 2.7522L152.443 2.61211C152.367 2.59543 152.317 2.51872 152.333 2.43866L152.43 2.00171C152.447 1.92499 152.523 1.87496 152.603 1.89164L153.224 2.03173C153.301 2.04841 153.351 2.12512 153.334 2.20518L153.237 2.64213C153.217 2.72218 153.14 2.76888 153.064 2.7522Z" fill="#585857"/>
<path d="M152.473 2.49185C152.463 2.48851 152.457 2.4785 152.46 2.4685L152.557 2.03154C152.56 2.02154 152.57 2.01487 152.58 2.0182L153.2 2.15829C153.21 2.16163 153.217 2.17164 153.214 2.18164L153.117 2.6186C153.114 2.6286 153.104 2.63527 153.094 2.63194L152.473 2.49185Z" fill="#5E5E5D"/>
<path d="M154.201 3.00904L153.581 2.86895C153.504 2.85227 153.454 2.77555 153.471 2.6955L153.568 2.25855C153.584 2.18183 153.661 2.1318 153.741 2.14847L154.362 2.28857C154.438 2.30524 154.488 2.38196 154.472 2.46201L154.375 2.89897C154.355 2.97568 154.278 3.02572 154.201 3.00904Z" fill="#585857"/>
<path d="M153.607 2.74551C153.597 2.74217 153.591 2.73217 153.594 2.72216L153.691 2.28521C153.694 2.2752 153.704 2.26853 153.714 2.27186L154.335 2.41196C154.345 2.41529 154.351 2.4253 154.348 2.4353L154.251 2.87226C154.248 2.88226 154.238 2.88894 154.228 2.8856L153.607 2.74551Z" fill="#5E5E5D"/>
<path d="M155.339 3.26246L154.718 3.12236C154.642 3.10569 154.592 3.02897 154.608 2.94892L154.705 2.51196C154.722 2.43525 154.798 2.38521 154.878 2.40189L155.499 2.54198C155.575 2.55866 155.626 2.63538 155.609 2.71543L155.512 3.15238C155.492 3.23244 155.415 3.28247 155.339 3.26246Z" fill="#585857"/>
<path d="M154.745 3.00234C154.735 2.99901 154.728 2.989 154.731 2.979L154.828 2.54204C154.831 2.53204 154.841 2.52536 154.851 2.5287L155.472 2.66879C155.482 2.67213 155.489 2.68213 155.485 2.69214L155.388 3.12909C155.385 3.1391 155.375 3.14577 155.365 3.14244L154.745 3.00234Z" fill="#5E5E5D"/>
<path d="M156.476 3.51929L155.855 3.3792C155.779 3.36252 155.729 3.28581 155.745 3.20575L155.842 2.7688C155.859 2.69208 155.936 2.64205 156.016 2.65873L156.636 2.79882C156.713 2.8155 156.763 2.89221 156.746 2.97227L156.649 3.40922C156.629 3.48927 156.553 3.53597 156.476 3.51929Z" fill="#585857"/>
<path d="M155.882 3.25918C155.872 3.25584 155.865 3.24584 155.869 3.23583L155.965 2.79888C155.969 2.78887 155.979 2.7822 155.989 2.78554L156.609 2.92563C156.619 2.92896 156.626 2.93897 156.622 2.94898L156.526 3.38593C156.522 3.39594 156.512 3.40261 156.502 3.39927L155.882 3.25918Z" fill="#5E5E5D"/>
<path d="M157.613 3.77613L156.993 3.63604C156.916 3.61936 156.866 3.54264 156.883 3.46259L156.979 3.02564C156.996 2.94892 157.073 2.89889 157.153 2.91556L157.773 3.05565C157.85 3.07233 157.9 3.14905 157.883 3.2291L157.787 3.66606C157.767 3.74277 157.69 3.79281 157.613 3.77613Z" fill="#585857"/>
<path d="M157.02 3.5126C157.01 3.50926 157.003 3.49926 157.006 3.48925L157.103 3.0523C157.106 3.04229 157.116 3.03562 157.126 3.03895L157.747 3.17905C157.757 3.18238 157.763 3.19239 157.76 3.20239L157.663 3.63935C157.66 3.64935 157.65 3.65603 157.64 3.65269L157.02 3.5126Z" fill="#5E5E5D"/>
<path d="M158.751 4.02955L158.13 3.88945C158.054 3.87278 158.004 3.79606 158.02 3.71601L158.117 3.27905C158.134 3.20234 158.21 3.1523 158.29 3.16898L158.911 3.30907C158.988 3.32575 159.038 3.40247 159.021 3.48252L158.924 3.91947C158.904 3.99953 158.827 4.04956 158.751 4.02955Z" fill="#585857"/>
<path d="M158.157 3.76943C158.147 3.7661 158.14 3.75609 158.143 3.74608L158.24 3.30913C158.244 3.29913 158.254 3.29245 158.264 3.29579L158.884 3.43588C158.894 3.43922 158.901 3.44922 158.897 3.45923L158.801 3.89618C158.797 3.90619 158.787 3.91286 158.777 3.90953L158.157 3.76943Z" fill="#5E5E5D"/>
<path d="M159.888 4.28638L159.268 4.14629C159.191 4.12961 159.141 4.0529 159.158 3.97284L159.254 3.53589C159.271 3.45917 159.348 3.40914 159.428 3.42582L160.048 3.56591C160.125 3.58259 160.175 3.6593 160.158 3.73936L160.061 4.17631C160.041 4.25636 159.965 4.30306 159.888 4.28638Z" fill="#585857"/>
<path d="M159.294 4.02651C159.284 4.02318 159.278 4.01317 159.281 4.00316L159.378 3.56621C159.381 3.55621 159.391 3.54953 159.401 3.55287L160.022 3.69296C160.032 3.6963 160.038 3.7063 160.035 3.71631L159.938 4.15326C159.935 4.16327 159.925 4.16994 159.915 4.16661L159.294 4.02651Z" fill="#5E5E5D"/>
<path d="M161.022 4.54322L160.402 4.40313C160.325 4.38645 160.275 4.30973 160.292 4.22968L160.389 3.79273C160.405 3.71601 160.482 3.66598 160.562 3.68265L161.182 3.82274C161.259 3.83942 161.309 3.91614 161.292 3.99619L161.196 4.43315C161.179 4.50986 161.102 4.5599 161.022 4.54322Z" fill="#585857"/>
<path d="M160.432 4.27993C160.422 4.2766 160.415 4.26659 160.418 4.25658L160.515 3.81963C160.518 3.80962 160.528 3.80295 160.538 3.80629L161.159 3.94638C161.169 3.94972 161.176 3.95972 161.172 3.96973L161.075 4.40668C161.072 4.41669 161.062 4.42336 161.052 4.42002L160.432 4.27993Z" fill="#5E5E5D"/>
<path d="M144.471 0.974485L145.238 1.14793C145.325 1.16795 145.382 1.25467 145.362 1.34473L145.192 2.09856C145.171 2.18528 145.085 2.24198 144.995 2.22197L144.228 2.04852C144.141 2.02851 144.084 1.94179 144.104 1.85173L144.274 1.0979C144.294 1.01118 144.381 0.954472 144.471 0.974485Z" fill="#585857"/>
<path d="M144.258 1.92481C144.238 1.92147 144.225 1.89812 144.228 1.87811L144.398 1.12428C144.401 1.10427 144.425 1.09093 144.445 1.09426L145.212 1.26771C145.232 1.27104 145.245 1.29439 145.242 1.31441L145.072 2.06823C145.069 2.08825 145.045 2.10159 145.025 2.09825L144.258 1.92481Z" fill="#5E5E5D"/>
<path d="M145.782 1.27104L146.549 1.44448C146.636 1.4645 146.693 1.55122 146.673 1.64128L146.503 2.39511C146.483 2.48183 146.396 2.53854 146.306 2.51852L145.539 2.34508C145.452 2.32506 145.395 2.23834 145.415 2.14828L145.585 1.39445C145.605 1.30439 145.692 1.25102 145.782 1.27104Z" fill="#585857"/>
<path d="M145.569 2.22168C145.549 2.21835 145.535 2.195 145.539 2.17498L145.709 1.42116C145.712 1.40114 145.735 1.3878 145.755 1.39114L146.523 1.56458C146.543 1.56792 146.556 1.59127 146.553 1.61128L146.382 2.36511C146.379 2.38512 146.356 2.39846 146.336 2.39513L145.569 2.22168Z" fill="#5E5E5D"/>
<path d="M147.093 1.56482L147.86 1.73826C147.947 1.75828 148.004 1.845 147.984 1.93506L147.814 2.68889C147.794 2.77561 147.707 2.83232 147.617 2.8123L146.85 2.63886C146.763 2.61884 146.706 2.53212 146.726 2.44206L146.896 1.68823C146.916 1.60151 147.006 1.5448 147.093 1.56482Z" fill="#585857"/>
<path d="M146.88 2.51514C146.86 2.5118 146.846 2.48846 146.85 2.46844L147.02 1.71461C147.023 1.6946 147.046 1.68126 147.066 1.68459L147.834 1.85804C147.854 1.86138 147.867 1.88472 147.864 1.90474L147.694 2.65857C147.69 2.67858 147.667 2.69192 147.647 2.68859L146.88 2.51514Z" fill="#5E5E5D"/>
<path d="M148.404 1.85827L149.171 2.03172C149.258 2.05173 149.315 2.13846 149.295 2.22852L149.125 2.98235C149.105 3.06907 149.018 3.12577 148.928 3.10576L148.161 2.93231C148.074 2.9123 148.017 2.82558 148.037 2.73552L148.207 1.98169C148.227 1.89497 148.317 1.83826 148.404 1.85827Z" fill="#585857"/>
<path d="M148.191 2.81201C148.171 2.80868 148.157 2.78533 148.161 2.76532L148.331 2.01149C148.334 1.99147 148.357 1.97813 148.377 1.98147L149.145 2.15491C149.165 2.15825 149.178 2.1816 149.175 2.20161L149.005 2.95544C149.001 2.97545 148.978 2.9888 148.958 2.98546L148.191 2.81201Z" fill="#5E5E5D"/>
<path d="M149.715 2.15531L150.482 2.32876C150.569 2.34878 150.625 2.4355 150.605 2.52556L150.435 3.27939C150.415 3.36611 150.328 3.42281 150.238 3.4028L149.471 3.22935C149.384 3.20934 149.328 3.12262 149.348 3.03256L149.518 2.27873C149.541 2.18867 149.628 2.1353 149.715 2.15531Z" fill="#585857"/>
<path d="M149.501 3.10572C149.481 3.10238 149.468 3.07903 149.471 3.05902L149.641 2.30519C149.645 2.28518 149.668 2.27183 149.688 2.27517L150.455 2.44862C150.475 2.45195 150.489 2.4753 150.485 2.49531L150.315 3.24914C150.312 3.26916 150.288 3.2825 150.268 3.27916L149.501 3.10572Z" fill="#5E5E5D"/>
<path d="M151.026 2.44885L151.793 2.6223C151.88 2.64231 151.936 2.72903 151.916 2.81909L151.746 3.57292C151.726 3.65965 151.639 3.71635 151.549 3.69634L150.782 3.52289C150.696 3.50288 150.639 3.41615 150.659 3.32609L150.829 2.57226C150.852 2.48554 150.939 2.42884 151.026 2.44885Z" fill="#585857"/>
<path d="M150.812 3.39942C150.792 3.39608 150.778 3.37273 150.782 3.35272L150.952 2.59889C150.955 2.57888 150.979 2.56553 150.999 2.56887L151.766 2.74232C151.786 2.74565 151.799 2.769 151.796 2.78901L151.626 3.54284C151.622 3.56286 151.599 3.5762 151.579 3.57286L150.812 3.39942Z" fill="#5E5E5D"/>
<path d="M152.337 2.7454L153.104 2.91885C153.191 2.93886 153.247 3.02559 153.227 3.11565L153.057 3.86948C153.037 3.9562 152.95 4.0129 152.86 3.99289L152.093 3.81944C152.007 3.79943 151.95 3.71271 151.97 3.62265L152.14 2.86882C152.163 2.77876 152.25 2.72539 152.337 2.7454Z" fill="#585857"/>
<path d="M152.123 3.69605C152.103 3.69271 152.089 3.66936 152.093 3.64935L152.263 2.89552C152.266 2.87551 152.29 2.86217 152.31 2.8655L153.077 3.03895C153.097 3.04228 153.11 3.06563 153.107 3.08565L152.937 3.83947C152.933 3.85949 152.91 3.87283 152.89 3.86949L152.123 3.69605Z" fill="#5E5E5D"/>
<path d="M153.651 3.03918L154.418 3.21263C154.505 3.23264 154.561 3.31937 154.541 3.40943L154.371 4.16325C154.351 4.24998 154.264 4.30668 154.174 4.28667L153.407 4.11322C153.321 4.09321 153.264 4.00648 153.284 3.91643L153.454 3.1626C153.474 3.07587 153.561 3.01917 153.651 3.03918Z" fill="#585857"/>
<path d="M153.434 3.98975C153.414 3.98641 153.4 3.96306 153.404 3.94305L153.574 3.18922C153.577 3.16921 153.601 3.15587 153.621 3.1592L154.388 3.33265C154.408 3.33599 154.421 3.35933 154.418 3.37935L154.248 4.13317C154.244 4.15319 154.221 4.16653 154.201 4.16319L153.434 3.98975Z" fill="#5E5E5D"/>
<path d="M154.961 3.3324L155.728 3.50584C155.815 3.52586 155.872 3.61258 155.852 3.70264L155.682 4.45647C155.662 4.54319 155.575 4.59989 155.485 4.57988L154.718 4.40643C154.631 4.38642 154.574 4.2997 154.594 4.20964L154.764 3.45581C154.784 3.36909 154.871 3.31238 154.961 3.3324Z" fill="#585857"/>
<path d="M154.748 4.28638C154.728 4.28304 154.715 4.25969 154.718 4.23968L154.888 3.48585C154.892 3.46584 154.915 3.4525 154.935 3.45583L155.702 3.62928C155.722 3.63262 155.736 3.65596 155.732 3.67598L155.562 4.42981C155.559 4.44982 155.535 4.46316 155.515 4.45983L154.748 4.28638Z" fill="#5E5E5D"/>
<path d="M156.272 3.62944L157.039 3.80288C157.126 3.8229 157.183 3.90962 157.163 3.99968L156.993 4.75351C156.973 4.84023 156.886 4.89694 156.796 4.87692L156.029 4.70348C155.942 4.68346 155.885 4.59674 155.905 4.50668L156.076 3.75285C156.096 3.66279 156.182 3.60942 156.272 3.62944Z" fill="#585857"/>
<path d="M156.059 4.58008C156.039 4.57674 156.025 4.5534 156.029 4.53338L156.199 3.77955C156.202 3.75954 156.226 3.7462 156.246 3.74953L157.013 3.92298C157.033 3.92632 157.046 3.94967 157.043 3.96968L156.873 4.72351C156.869 4.74352 156.846 4.75686 156.826 4.75353L156.059 4.58008Z" fill="#5E5E5D"/>
<path d="M157.583 3.92297L158.351 4.09642C158.437 4.11643 158.494 4.20316 158.474 4.29321L158.304 5.04704C158.284 5.13377 158.197 5.19047 158.107 5.17046L157.343 4.99701C157.257 4.977 157.2 4.89027 157.22 4.80021L157.39 4.04639C157.407 3.95966 157.493 3.90296 157.583 3.92297Z" fill="#585857"/>
<path d="M157.37 4.87378C157.35 4.87044 157.337 4.8471 157.34 4.82708L157.51 4.07325C157.513 4.05324 157.537 4.0399 157.557 4.04324L158.324 4.21668C158.344 4.22002 158.357 4.24337 158.354 4.26338L158.18 5.01721C158.177 5.03722 158.154 5.05056 158.134 5.04723L157.37 4.87378Z" fill="#5E5E5D"/>
<path d="M158.894 4.22001L159.661 4.39346C159.748 4.41347 159.804 4.5002 159.784 4.59026L159.614 5.34408C159.594 5.43081 159.508 5.48751 159.418 5.4675L158.65 5.29405C158.564 5.27404 158.507 5.18731 158.527 5.09726L158.697 4.34343C158.717 4.25337 158.807 4.2 158.894 4.22001Z" fill="#585857"/>
<path d="M158.681 5.17066C158.661 5.16732 158.648 5.14397 158.651 5.12396L158.821 4.37013C158.824 4.35012 158.848 4.33677 158.868 4.34011L159.635 4.51356C159.655 4.51689 159.668 4.54024 159.665 4.56026L159.495 5.31408C159.491 5.3341 159.468 5.34744 159.448 5.3441L158.681 5.17066Z" fill="#5E5E5D"/>
<path d="M160.205 4.5133L160.972 4.68675C161.059 4.70676 161.116 4.79349 161.096 4.88355L160.925 5.63737C160.905 5.7241 160.819 5.7808 160.729 5.76079L159.961 5.58734C159.875 5.56733 159.818 5.4806 159.838 5.39055L160.011 4.63672C160.028 4.54999 160.118 4.49329 160.205 4.5133Z" fill="#585857"/>
<path d="M159.991 5.46411C159.971 5.46078 159.958 5.43743 159.961 5.41742L160.132 4.66359C160.135 4.64357 160.158 4.63023 160.178 4.63357L160.945 4.80701C160.965 4.81035 160.979 4.8337 160.975 4.85371L160.805 5.60754C160.802 5.62755 160.779 5.6409 160.759 5.63756L159.991 5.46411Z" fill="#5E5E5D"/>
<path d="M144.194 2.19519L144.961 2.36864C145.048 2.38865 145.105 2.47537 145.085 2.56543L144.915 3.31926C144.895 3.40598 144.808 3.46269 144.718 3.44267L143.951 3.26923C143.864 3.24921 143.807 3.16249 143.827 3.07243L144.001 2.3186C144.021 2.23188 144.107 2.17517 144.194 2.19519Z" fill="#585857"/>
<path d="M143.981 3.14575C143.961 3.14242 143.947 3.11907 143.951 3.09906L144.121 2.34523C144.124 2.32521 144.148 2.31187 144.168 2.31521L144.935 2.48865C144.955 2.49199 144.968 2.51534 144.965 2.53535L144.795 3.28918C144.791 3.30919 144.768 3.32254 144.748 3.3192L143.981 3.14575Z" fill="#5E5E5D"/>
<path d="M145.509 2.49198L146.276 2.66543C146.363 2.68545 146.419 2.77217 146.399 2.86223L146.229 3.61606C146.209 3.70278 146.122 3.75948 146.032 3.73947L145.265 3.56602C145.178 3.54601 145.122 3.45929 145.142 3.36923L145.312 2.6154C145.332 2.52534 145.419 2.47197 145.509 2.49198Z" fill="#585857"/>
<path d="M145.292 3.44263C145.272 3.43929 145.258 3.41594 145.262 3.39593L145.432 2.6421C145.435 2.62209 145.459 2.60875 145.479 2.61208L146.246 2.78553C146.266 2.78887 146.279 2.81221 146.276 2.83223L146.106 3.58606C146.102 3.60607 146.079 3.61941 146.059 3.61608L145.292 3.44263Z" fill="#5E5E5D"/>
<path d="M146.82 2.78552L147.587 2.95897C147.674 2.97898 147.73 3.0657 147.71 3.15576L147.54 3.90959C147.52 3.99632 147.433 4.05302 147.343 4.03301L146.576 3.85956C146.489 3.83955 146.433 3.75282 146.453 3.66276L146.623 2.90893C146.643 2.82221 146.73 2.76551 146.82 2.78552Z" fill="#585857"/>
<path d="M146.606 3.73609C146.586 3.73275 146.573 3.7094 146.576 3.68939L146.746 2.93556C146.75 2.91555 146.773 2.9022 146.793 2.90554L147.56 3.07899C147.58 3.08232 147.594 3.10567 147.59 3.12569L147.42 3.87951C147.417 3.89953 147.393 3.91287 147.373 3.90953L146.606 3.73609Z" fill="#5E5E5D"/>
<path d="M148.13 3.07898L148.897 3.25242C148.984 3.27244 149.041 3.35916 149.021 3.44922L148.851 4.20305C148.831 4.28977 148.744 4.34648 148.654 4.32646L147.887 4.15302C147.8 4.133 147.743 4.04628 147.763 3.95622L147.933 3.20239C147.953 3.11567 148.04 3.05896 148.13 3.07898Z" fill="#585857"/>
<path d="M147.917 4.02979C147.897 4.02645 147.883 4.0031 147.887 3.98309L148.057 3.22926C148.06 3.20925 148.084 3.19591 148.104 3.19924L148.871 3.37269C148.891 3.37602 148.904 3.39937 148.901 3.41939L148.731 4.17322C148.727 4.19323 148.704 4.20657 148.684 4.20323L147.917 4.02979Z" fill="#5E5E5D"/>
<path d="M149.442 3.37602L150.209 3.54946C150.296 3.56948 150.352 3.6562 150.332 3.74626L150.162 4.50009C150.142 4.58681 150.055 4.64352 149.965 4.6235L149.198 4.45006C149.112 4.43004 149.055 4.34332 149.075 4.25326L149.245 3.49943C149.265 3.40937 149.355 3.356 149.442 3.37602Z" fill="#585857"/>
<path d="M149.228 4.32666C149.208 4.32333 149.194 4.29998 149.198 4.27997L149.368 3.52614C149.371 3.50612 149.395 3.49278 149.415 3.49612L150.182 3.66956C150.202 3.6729 150.215 3.69625 150.212 3.71626L150.042 4.47009C150.038 4.4901 150.015 4.50345 149.995 4.50011L149.228 4.32666Z" fill="#5E5E5D"/>
<path d="M150.752 3.66931L151.519 3.84276C151.606 3.86277 151.663 3.94949 151.643 4.03955L151.473 4.79338C151.453 4.88011 151.366 4.93681 151.276 4.9168L150.509 4.74335C150.422 4.72334 150.365 4.63661 150.385 4.54655L150.555 3.79272C150.575 3.706 150.666 3.6493 150.752 3.66931Z" fill="#585857"/>
<path d="M150.539 4.62012C150.519 4.61678 150.505 4.59343 150.509 4.57342L150.679 3.81959C150.682 3.79958 150.706 3.78624 150.726 3.78957L151.493 3.96302C151.513 3.96636 151.526 3.9897 151.523 4.00972L151.353 4.76355C151.349 4.78356 151.326 4.7969 151.306 4.79357L150.539 4.62012Z" fill="#5E5E5D"/>
<path d="M152.063 3.96635L152.83 4.1398C152.917 4.15981 152.973 4.24653 152.953 4.33659L152.783 5.09042C152.763 5.17715 152.677 5.23385 152.587 5.21384L151.819 5.04039C151.733 5.02038 151.676 4.93365 151.696 4.84359L151.866 4.08977C151.889 3.99971 151.976 3.94634 152.063 3.96635Z" fill="#585857"/>
<path d="M151.849 4.91699C151.829 4.91366 151.816 4.89031 151.819 4.8703L151.989 4.11647C151.993 4.09645 152.016 4.08311 152.036 4.08645L152.803 4.2599C152.823 4.26323 152.837 4.28658 152.833 4.30659L152.663 5.06042C152.66 5.08044 152.637 5.09378 152.617 5.09044L151.849 4.91699Z" fill="#5E5E5D"/>
<path d="M153.374 4.25964L154.141 4.43309C154.228 4.4531 154.284 4.53983 154.264 4.62988L154.094 5.38371C154.074 5.47044 153.988 5.52714 153.898 5.50713L153.13 5.33368C153.044 5.31367 152.987 5.22694 153.007 5.13688L153.177 4.38306C153.2 4.29633 153.287 4.23963 153.374 4.25964Z" fill="#585857"/>
<path d="M153.16 5.21045C153.14 5.20712 153.127 5.18377 153.13 5.16375L153.3 4.40993C153.303 4.38991 153.327 4.37657 153.347 4.37991L154.114 4.55335C154.134 4.55669 154.147 4.58004 154.144 4.60005L153.974 5.35388C153.97 5.37389 153.947 5.38723 153.927 5.3839L153.16 5.21045Z" fill="#5E5E5D"/>
<path d="M154.685 4.55334L155.452 4.72679C155.539 4.7468 155.595 4.83353 155.575 4.92359L155.405 5.67741C155.385 5.76414 155.299 5.82084 155.209 5.80083L154.441 5.62738C154.355 5.60737 154.298 5.52064 154.318 5.43059L154.488 4.67676C154.511 4.59003 154.598 4.53333 154.685 4.55334Z" fill="#585857"/>
<path d="M154.471 5.50391C154.451 5.50057 154.438 5.47722 154.441 5.45721L154.611 4.70338C154.614 4.68337 154.638 4.67003 154.658 4.67336L155.425 4.84681C155.445 4.85015 155.458 4.87349 155.455 4.89351L155.285 5.64733C155.281 5.66735 155.258 5.68069 155.238 5.67735L154.471 5.50391Z" fill="#5E5E5D"/>
<path d="M155.995 4.85014L156.763 5.02359C156.849 5.0436 156.906 5.13032 156.886 5.22038L156.716 5.97421C156.696 6.06093 156.609 6.11764 156.519 6.09763L155.752 5.92418C155.665 5.90417 155.609 5.81744 155.629 5.72738L155.799 4.97355C155.822 4.88349 155.909 4.83013 155.995 4.85014Z" fill="#585857"/>
<path d="M155.782 5.80078C155.762 5.79745 155.749 5.7741 155.752 5.75409L155.922 5.00026C155.925 4.98024 155.949 4.9669 155.969 4.97024L156.736 5.14368C156.756 5.14702 156.769 5.17037 156.766 5.19038L156.596 5.94421C156.593 5.96422 156.569 5.97757 156.549 5.97423L155.782 5.80078Z" fill="#5E5E5D"/>
<path d="M157.309 5.14392L158.077 5.31737C158.163 5.33738 158.22 5.4241 158.2 5.51416L158.03 6.26799C158.01 6.35471 157.923 6.41142 157.833 6.3914L157.066 6.21796C156.979 6.19794 156.922 6.11122 156.943 6.02116L157.113 5.26733C157.133 5.18061 157.219 5.12391 157.309 5.14392Z" fill="#585857"/>
<path d="M157.093 6.09448C157.073 6.09115 157.059 6.0678 157.063 6.04779L157.233 5.29396C157.236 5.27395 157.259 5.2606 157.279 5.26394L158.047 5.43738C158.067 5.44072 158.08 5.46407 158.077 5.48408L157.906 6.23791C157.903 6.25792 157.88 6.27127 157.86 6.26793L157.093 6.09448Z" fill="#5E5E5D"/>
<path d="M158.62 5.44072L159.388 5.61416C159.474 5.63418 159.531 5.7209 159.511 5.81096L159.341 6.56479C159.321 6.65151 159.234 6.70821 159.144 6.6882L158.377 6.51475C158.29 6.49474 158.234 6.40802 158.254 6.31796L158.424 5.56413C158.444 5.47407 158.53 5.4207 158.62 5.44072Z" fill="#585857"/>
<path d="M158.407 6.39136C158.387 6.38802 158.374 6.36467 158.377 6.34466L158.548 5.59083C158.551 5.57082 158.574 5.55748 158.594 5.56081L159.361 5.73426C159.381 5.7376 159.395 5.76094 159.391 5.78096L159.221 6.53479C159.218 6.5548 159.195 6.56814 159.175 6.56481L158.407 6.39136Z" fill="#5E5E5D"/>
<path d="M159.931 5.73425L160.699 5.9077C160.785 5.92771 160.842 6.01443 160.822 6.10449L160.652 6.85832C160.632 6.94505 160.545 7.00175 160.455 6.98174L159.688 6.80829C159.601 6.78828 159.545 6.70155 159.565 6.61149L159.735 5.85766C159.755 5.77094 159.841 5.71424 159.931 5.73425Z" fill="#585857"/>
<path d="M159.718 6.68482C159.698 6.68148 159.685 6.65813 159.688 6.63812L159.858 5.88429C159.861 5.86428 159.885 5.85094 159.905 5.85427L160.672 6.02772C160.692 6.03105 160.705 6.0544 160.702 6.07442L160.532 6.82824C160.529 6.84826 160.505 6.8616 160.485 6.85826L159.718 6.68482Z" fill="#5E5E5D"/>
<path d="M143.921 3.41589L144.688 3.58934C144.775 3.60935 144.832 3.69608 144.812 3.78613L144.642 4.53996C144.622 4.62669 144.535 4.68339 144.445 4.66338L143.678 4.48993C143.591 4.46992 143.534 4.38319 143.554 4.29313L143.724 3.53931C143.748 3.45258 143.835 3.39588 143.921 3.41589Z" fill="#585857"/>
<path d="M143.707 4.36646C143.687 4.36312 143.674 4.33977 143.677 4.31976L143.847 3.56593C143.851 3.54592 143.874 3.53258 143.894 3.53591L144.661 3.70936C144.681 3.71269 144.695 3.73604 144.691 3.75606L144.521 4.50988C144.518 4.5299 144.494 4.54324 144.474 4.5399L143.707 4.36646Z" fill="#5E5E5D"/>
<path d="M145.232 3.70934L145.999 3.88279C146.086 3.9028 146.142 3.98952 146.122 4.07958L145.952 4.83341C145.932 4.92014 145.846 4.97684 145.755 4.95683L144.988 4.78338C144.902 4.76337 144.845 4.67664 144.865 4.58658L145.035 3.83276C145.058 3.74603 145.145 3.69266 145.232 3.70934Z" fill="#585857"/>
<path d="M145.018 4.66358C144.998 4.66024 144.985 4.63689 144.988 4.61688L145.158 3.86305C145.162 3.84304 145.185 3.82969 145.205 3.83303L145.972 4.00648C145.992 4.00981 146.006 4.03316 146.002 4.05317L145.832 4.807C145.829 4.82702 145.806 4.84036 145.785 4.83702L145.018 4.66358Z" fill="#5E5E5D"/>
<path d="M146.542 4.00622L147.309 4.17967C147.396 4.19968 147.453 4.28641 147.433 4.37647L147.263 5.13029C147.243 5.21702 147.156 5.27372 147.066 5.25371L146.299 5.08026C146.212 5.06025 146.155 4.97352 146.175 4.88347L146.346 4.12964C146.369 4.04291 146.456 3.98621 146.542 4.00622Z" fill="#585857"/>
<path d="M146.329 4.95679C146.309 4.95345 146.296 4.9301 146.299 4.91009L146.469 4.15626C146.473 4.13625 146.496 4.12291 146.516 4.12624L147.283 4.29969C147.303 4.30302 147.317 4.32637 147.313 4.34639L147.143 5.10022C147.14 5.12023 147.117 5.13357 147.097 5.13024L146.329 4.95679Z" fill="#5E5E5D"/>
<path d="M147.857 4.29992L148.624 4.47337C148.711 4.49338 148.768 4.58011 148.748 4.67017L148.578 5.424C148.558 5.51072 148.471 5.56742 148.381 5.54741L147.614 5.37396C147.527 5.35395 147.47 5.26723 147.49 5.17717L147.66 4.42334C147.68 4.33662 147.767 4.27991 147.857 4.29992Z" fill="#585857"/>
<path d="M147.64 5.25049C147.62 5.24716 147.607 5.22381 147.61 5.20379L147.78 4.44996C147.784 4.42995 147.807 4.41661 147.827 4.41994L148.594 4.59339C148.614 4.59673 148.628 4.62008 148.624 4.64009L148.454 5.39392C148.451 5.41393 148.428 5.42727 148.408 5.42394L147.64 5.25049Z" fill="#5E5E5D"/>
<path d="M149.168 4.59697L149.935 4.77041C150.022 4.79042 150.078 4.87715 150.058 4.96721L149.888 5.72104C149.868 5.80776 149.782 5.86446 149.691 5.84445L148.924 5.671C148.838 5.65099 148.781 5.56427 148.801 5.47421L148.971 4.72038C148.991 4.63032 149.078 4.57695 149.168 4.59697Z" fill="#585857"/>
<path d="M148.954 5.54737C148.934 5.54403 148.921 5.52068 148.924 5.50067L149.094 4.74684C149.098 4.72683 149.121 4.71348 149.141 4.71682L149.908 4.89027C149.928 4.8936 149.942 4.91695 149.938 4.93696L149.768 5.69079C149.765 5.71081 149.742 5.72415 149.722 5.72081L148.954 5.54737Z" fill="#5E5E5D"/>
<path d="M150.479 4.89026L151.246 5.0637C151.333 5.08372 151.389 5.17044 151.369 5.2605L151.199 6.01433C151.179 6.10105 151.093 6.15776 151.003 6.13774L150.235 5.9643C150.149 5.94428 150.092 5.85756 150.112 5.7675L150.282 5.01367C150.302 4.92695 150.389 4.87024 150.479 4.89026Z" fill="#585857"/>
<path d="M150.265 5.84082C150.245 5.83749 150.232 5.81414 150.235 5.79413L150.405 5.0403C150.408 5.02028 150.432 5.00694 150.452 5.01028L151.219 5.18372C151.239 5.18706 151.252 5.21041 151.249 5.23042L151.079 5.98425C151.075 6.00426 151.052 6.01761 151.032 6.01427L150.265 5.84082Z" fill="#5E5E5D"/>
<path d="M151.79 5.18371L152.557 5.35715C152.644 5.37717 152.7 5.46389 152.68 5.55395L152.51 6.30778C152.49 6.3945 152.404 6.45121 152.314 6.43119L151.546 6.25775C151.46 6.23773 151.403 6.15101 151.423 6.06095L151.593 5.30712C151.613 5.2204 151.7 5.16703 151.79 5.18371Z" fill="#585857"/>
<path d="M151.576 6.1377C151.556 6.13436 151.543 6.11101 151.546 6.091L151.716 5.33717C151.719 5.31716 151.743 5.30382 151.763 5.30715L152.53 5.4806C152.55 5.48393 152.563 5.50728 152.56 5.5273L152.39 6.28113C152.386 6.30114 152.363 6.31448 152.343 6.31115L151.576 6.1377Z" fill="#5E5E5D"/>
<path d="M153.1 5.48051L153.868 5.65396C153.954 5.67397 154.011 5.76069 153.991 5.85075L153.821 6.60458C153.801 6.69131 153.714 6.74801 153.624 6.728L152.857 6.55455C152.77 6.53454 152.714 6.44781 152.734 6.35775L152.904 5.60392C152.924 5.51387 153.014 5.4605 153.1 5.48051Z" fill="#585857"/>
<path d="M152.887 6.43115C152.867 6.42782 152.854 6.40447 152.857 6.38446L153.027 5.63063C153.03 5.61062 153.054 5.59727 153.074 5.60061L153.841 5.77406C153.861 5.77739 153.874 5.80074 153.871 5.82075L153.701 6.57458C153.698 6.59459 153.674 6.60794 153.654 6.6046L152.887 6.43115Z" fill="#5E5E5D"/>
<path d="M154.411 5.77405L155.178 5.94749C155.265 5.96751 155.322 6.05423 155.302 6.14429L155.131 6.89812C155.111 6.98484 155.025 7.04154 154.935 7.02153L154.167 6.84808C154.081 6.82807 154.024 6.74135 154.044 6.65129L154.214 5.89746C154.234 5.81074 154.324 5.75403 154.411 5.77405Z" fill="#585857"/>
<path d="M154.198 6.72461C154.178 6.72127 154.164 6.69793 154.168 6.67791L154.338 5.92409C154.341 5.90407 154.364 5.89073 154.384 5.89407L155.151 6.06751C155.171 6.07085 155.185 6.0942 155.182 6.11421L155.008 6.86804C155.005 6.88805 154.981 6.90139 154.961 6.89806L154.198 6.72461Z" fill="#5E5E5D"/>
<path d="M155.722 6.07084L156.489 6.24429C156.576 6.2643 156.633 6.35103 156.613 6.44109L156.442 7.19491C156.422 7.28164 156.336 7.33834 156.246 7.31833L155.479 7.14488C155.392 7.12487 155.335 7.03814 155.355 6.94809L155.525 6.19426C155.549 6.1042 155.635 6.05083 155.722 6.07084Z" fill="#585857"/>
<path d="M155.508 7.02149C155.488 7.01815 155.475 6.99814 155.478 6.97479L155.648 6.22096C155.651 6.20095 155.675 6.1876 155.695 6.19094L156.462 6.36439C156.482 6.36772 156.495 6.39107 156.492 6.41109L156.322 7.16491C156.319 7.18493 156.295 7.19827 156.275 7.19493L155.508 7.02149Z" fill="#5E5E5D"/>
<path d="M157.033 6.36462L157.8 6.53807C157.887 6.55808 157.944 6.64481 157.924 6.73487L157.754 7.48869C157.734 7.57542 157.647 7.63212 157.557 7.61211L156.79 7.43866C156.703 7.41865 156.646 7.33192 156.666 7.24186L156.836 6.48804C156.86 6.40131 156.946 6.34461 157.033 6.36462Z" fill="#585857"/>
<path d="M156.819 7.31519C156.799 7.31185 156.786 7.2885 156.789 7.26849L156.959 6.51466C156.963 6.49465 156.986 6.48131 157.006 6.48464L157.773 6.65809C157.793 6.66142 157.806 6.68477 157.803 6.70479L157.633 7.45861C157.63 7.47863 157.606 7.49197 157.586 7.48863L156.819 7.31519Z" fill="#5E5E5D"/>
<path d="M158.344 6.65808L159.111 6.83153C159.197 6.85154 159.254 6.93826 159.234 7.02832L159.064 7.78215C159.044 7.86888 158.957 7.92558 158.867 7.90557L158.1 7.73212C158.013 7.7121 157.957 7.62538 157.977 7.53532L158.147 6.78149C158.17 6.69477 158.257 6.63807 158.344 6.65808Z" fill="#585857"/>
<path d="M158.13 7.61206C158.11 7.60873 158.097 7.58538 158.1 7.56536L158.27 6.81154C158.274 6.79152 158.297 6.77818 158.317 6.78152L159.084 6.95496C159.104 6.9583 159.117 6.98165 159.114 7.00166L158.944 7.75215C158.941 7.77217 158.917 7.78551 158.897 7.78217L158.13 7.61206Z" fill="#5E5E5D"/>
<path d="M159.658 6.95488L160.425 7.12832C160.512 7.14834 160.569 7.23506 160.549 7.32512L160.379 8.07895C160.359 8.16567 160.272 8.22237 160.182 8.20236L159.415 8.02891C159.328 8.0089 159.271 7.92218 159.291 7.83212L159.461 7.07829C159.481 6.98823 159.568 6.93486 159.658 6.95488Z" fill="#585857"/>
<path d="M159.441 7.90552C159.421 7.90218 159.408 7.87884 159.411 7.85882L159.581 7.10499C159.585 7.08498 159.608 7.07164 159.628 7.07497L160.395 7.24842C160.415 7.25176 160.428 7.27511 160.425 7.29512L160.255 8.04895C160.252 8.06896 160.228 8.0823 160.208 8.07897L159.441 7.90552Z" fill="#5E5E5D"/>
<path d="M143.647 4.63684L144.414 4.81029C144.501 4.8303 144.558 4.91702 144.538 5.00708L144.368 5.76091C144.348 5.84763 144.261 5.90434 144.171 5.88432L143.404 5.71088C143.317 5.69086 143.26 5.60414 143.28 5.51408L143.451 4.76025C143.471 4.67353 143.561 4.61683 143.647 4.63684Z" fill="#585857"/>
<path d="M143.434 5.5874C143.414 5.58407 143.4 5.56072 143.404 5.54071L143.574 4.78688C143.577 4.76687 143.601 4.75352 143.621 4.75686L144.388 4.93031C144.408 4.93364 144.421 4.95699 144.418 4.977L144.248 5.73083C144.244 5.75084 144.221 5.76419 144.201 5.76085L143.434 5.5874Z" fill="#5E5E5D"/>
<path d="M144.958 4.9303L145.726 5.10374C145.812 5.12375 145.869 5.21048 145.849 5.30054L145.679 6.05437C145.659 6.14109 145.572 6.19779 145.482 6.17778L144.715 6.00433C144.628 5.98432 144.571 5.8976 144.591 5.80754L144.762 5.05371C144.782 4.96699 144.872 4.91028 144.958 4.9303Z" fill="#585857"/>
<path d="M144.745 5.88086C144.725 5.87753 144.712 5.85418 144.715 5.83416L144.885 5.08034C144.888 5.06032 144.912 5.04698 144.932 5.05032L145.699 5.22376C145.719 5.2271 145.732 5.25045 145.729 5.27046L145.559 6.02429C145.555 6.0443 145.532 6.05764 145.512 6.05431L144.745 5.88086Z" fill="#5E5E5D"/>
<path d="M146.269 5.22709L147.037 5.40054C147.123 5.42055 147.18 5.50728 147.16 5.59734L146.99 6.35116C146.97 6.43789 146.883 6.49459 146.793 6.47458L146.026 6.30113C145.939 6.28112 145.882 6.19439 145.902 6.10433L146.076 5.35051C146.096 5.26045 146.183 5.20708 146.269 5.22709Z" fill="#585857"/>
<path d="M146.056 6.17749C146.036 6.17416 146.023 6.15081 146.026 6.13079L146.196 5.37697C146.199 5.35695 146.223 5.34361 146.243 5.34695L147.01 5.52039C147.03 5.52373 147.043 5.54708 147.04 5.56709L146.87 6.32092C146.866 6.34093 146.843 6.35427 146.823 6.35094L146.056 6.17749Z" fill="#5E5E5D"/>
<path d="M147.58 5.52087L148.347 5.69432C148.434 5.71433 148.491 5.80106 148.471 5.89112L148.3 6.64494C148.28 6.73167 148.194 6.78837 148.104 6.76836L147.336 6.59491C147.25 6.5749 147.193 6.48817 147.213 6.39812L147.383 5.64429C147.406 5.55756 147.493 5.50086 147.58 5.52087Z" fill="#585857"/>
<path d="M147.367 6.47144C147.347 6.4681 147.334 6.44475 147.337 6.42474L147.507 5.67091C147.51 5.6509 147.534 5.63756 147.554 5.64089L148.321 5.81434C148.341 5.81767 148.354 5.84102 148.351 5.86104L148.181 6.61487C148.177 6.63488 148.154 6.64822 148.134 6.64489L147.367 6.47144Z" fill="#5E5E5D"/>
<path d="M153.591 6.87162L148.884 5.81426C148.797 5.79425 148.714 5.84762 148.694 5.93434L148.511 6.74487C148.497 6.80491 148.534 6.86495 148.594 6.87829L153.344 7.94566C153.43 7.96567 153.521 7.90897 153.541 7.82225L153.711 7.06842C153.734 6.98169 153.681 6.89163 153.591 6.87162Z" fill="#585857"/>
<path d="M148.641 6.75809L148.821 5.9609C148.824 5.94422 148.844 5.93087 148.861 5.93755L153.567 6.99491C153.587 6.99824 153.601 7.02159 153.597 7.0416L153.427 7.79543C153.424 7.81545 153.4 7.82879 153.38 7.82545L148.641 6.75809Z" fill="#5E5E5D"/>
<path d="M154.138 6.99499L154.905 7.16844C154.992 7.18845 155.049 7.27518 155.029 7.36524L154.858 8.11906C154.838 8.20579 154.752 8.26249 154.662 8.24248L153.895 8.06903C153.808 8.04902 153.751 7.9623 153.771 7.87224L153.941 7.11841C153.961 7.03168 154.048 6.97498 154.138 6.99499Z" fill="#585857"/>
<path d="M153.924 7.94556C153.904 7.94222 153.891 7.91887 153.894 7.89886L154.064 7.14503C154.068 7.12502 154.091 7.11168 154.111 7.11501L154.878 7.28846C154.898 7.2918 154.911 7.31514 154.908 7.33516L154.738 8.08899C154.735 8.109 154.711 8.12234 154.691 8.11901L153.924 7.94556Z" fill="#5E5E5D"/>
<path d="M155.449 7.29179L156.216 7.46524C156.302 7.48525 156.359 7.57197 156.339 7.66203L156.169 8.41586C156.149 8.50258 156.062 8.55929 155.972 8.53928L155.205 8.36583C155.118 8.34582 155.062 8.25909 155.082 8.16903L155.252 7.4152C155.272 7.32514 155.362 7.27178 155.449 7.29179Z" fill="#585857"/>
<path d="M155.235 8.24243C155.215 8.2391 155.202 8.21575 155.205 8.19574L155.375 7.44191C155.379 7.42189 155.402 7.40855 155.422 7.41189L156.189 7.58534C156.209 7.58867 156.222 7.61202 156.219 7.63203L156.049 8.38586C156.046 8.40587 156.022 8.41922 156.002 8.41588L155.235 8.24243Z" fill="#5E5E5D"/>
<path d="M156.759 7.58557L157.526 7.75902C157.613 7.77903 157.67 7.86575 157.65 7.95581L157.48 8.70964C157.46 8.79636 157.373 8.85307 157.283 8.83306L156.516 8.65961C156.429 8.63959 156.372 8.55287 156.392 8.46281L156.562 7.70898C156.582 7.62226 156.672 7.56556 156.759 7.58557Z" fill="#585857"/>
<path d="M156.546 8.53613C156.526 8.5328 156.512 8.50945 156.516 8.48944L156.686 7.73561C156.689 7.7156 156.712 7.70225 156.732 7.70559L157.5 7.87904C157.52 7.88237 157.533 7.90572 157.53 7.92573L157.36 8.67956C157.356 8.69957 157.336 8.71292 157.313 8.70958L156.546 8.53613Z" fill="#5E5E5D"/>
<path d="M158.07 7.87878L158.837 8.05223C158.924 8.07224 158.981 8.15896 158.961 8.24902L158.791 9.00285C158.771 9.08958 158.684 9.14628 158.594 9.12627L157.827 8.95282C157.74 8.93281 157.683 8.84608 157.703 8.75602L157.873 8.0022C157.897 7.91547 157.983 7.85877 158.07 7.87878Z" fill="#585857"/>
<path d="M157.857 8.82959C157.837 8.82626 157.823 8.80291 157.827 8.7829L157.997 8.02907C158 8.00905 158.023 7.99571 158.043 7.99905L158.811 8.17249C158.831 8.17583 158.844 8.19918 158.841 8.21919L158.671 8.97302C158.667 8.99303 158.644 9.00637 158.624 9.00304L157.857 8.82959Z" fill="#5E5E5D"/>
<path d="M159.381 8.17582L160.148 8.34927C160.235 8.36928 160.292 8.45601 160.272 8.54607L160.102 9.29989C160.082 9.38662 159.995 9.44332 159.905 9.42331L159.138 9.24986C159.051 9.22985 158.994 9.14312 159.014 9.05306L159.184 8.29924C159.208 8.20918 159.294 8.15581 159.381 8.17582Z" fill="#585857"/>
<path d="M159.168 9.12647C159.148 9.12313 159.134 9.09978 159.138 9.07977L159.308 8.32594C159.311 8.30593 159.335 8.29259 159.355 8.29592L160.122 8.46937C160.142 8.4727 160.155 8.49605 160.152 8.51607L159.982 9.26989C159.978 9.28991 159.955 9.30325 159.935 9.29991L159.168 9.12647Z" fill="#5E5E5D"/>
<path d="M153.354 8.99957L149.504 8.13567C149.331 8.09564 149.157 8.20571 149.121 8.37916L148.657 10.4372C148.617 10.6106 148.727 10.7841 148.901 10.8208L152.75 11.6847C152.923 11.7247 153.097 11.6146 153.133 11.4412L153.597 9.38315C153.637 9.2097 153.527 9.03959 153.354 8.99957Z" fill="#EDEDED"/>
<path d="M153.384 8.87614L149.534 8.01223C149.294 7.95887 149.054 8.10897 149.001 8.34912L148.537 10.4071C148.484 10.6473 148.634 10.8875 148.874 10.9408L152.723 11.8047C152.963 11.8581 153.204 11.708 153.257 11.4678L153.721 9.40982C153.774 9.16966 153.624 8.93284 153.384 8.87614ZM153.137 11.4412C153.097 11.6146 152.927 11.7247 152.753 11.6846L148.904 10.8207C148.731 10.7807 148.621 10.6106 148.661 10.4372L149.124 8.37914C149.164 8.2057 149.334 8.09562 149.508 8.13565L153.357 8.99955C153.53 9.03958 153.64 9.20969 153.6 9.38313L153.137 11.4412Z" fill="#9D9B9B"/>
<path d="M148.888 9.4231L148.661 10.4371C148.621 10.6105 148.731 10.784 148.905 10.8207L152.754 11.6846C152.927 11.7246 153.101 11.6145 153.137 11.4411L153.364 10.4271L148.888 9.4231Z" fill="#DFDFDE"/>
<path d="M151.109 9.92025L148.888 9.41992L148.661 10.4339C148.621 10.6074 148.731 10.7808 148.905 10.8175L150.812 11.2478L151.109 9.92025Z" fill="#D9D9DA"/>
<path d="M162.59 3.0924L143.691 -1.15705C143.581 -1.18374 143.504 -1.28714 143.514 -1.40055L145.492 -12.2143C145.519 -12.5112 145.799 -12.7146 146.089 -12.6479L165.338 -8.31843C165.629 -8.25171 165.795 -7.94818 165.692 -7.668L162.853 2.94898C162.813 3.05571 162.703 3.11909 162.59 3.0924Z" fill="#E3E1E1"/>
<path d="M144.338 -2.19442L146.163 -11.3238C146.189 -11.6039 146.453 -11.7974 146.726 -11.734L164.368 -7.76809C164.642 -7.70805 164.798 -7.41785 164.702 -7.15435L162.447 1.87492C162.367 2.09506 162.137 2.21848 161.906 2.16844L144.702 -1.70076C144.472 -1.7508 144.318 -1.96427 144.338 -2.19442Z" fill="#C7C7C6"/>
<path d="M144.465 -2.18117L146.289 -11.3172C146.309 -11.5206 146.499 -11.6607 146.699 -11.614L164.348 -7.64476C164.544 -7.6014 164.661 -7.39126 164.591 -7.20113L162.33 1.8348C162.273 1.99491 162.106 2.08497 161.939 2.04827L144.725 -1.82427C144.561 -1.86096 144.448 -2.01439 144.465 -2.18117Z" fill="#C6E6F2"/>
<path d="M159.851 2.4787L146.402 -0.546622L146.409 -0.773438L159.968 2.27523L159.851 2.4787Z" fill="#585857"/>
</g>
<path d="M35.8079 64.9767C34.911 61.1852 31.1195 58.8468 27.3485 59.7473C23.5723 60.6479 21.2434 64.4548 22.1403 68.2412C22.7723 70.902 24.831 72.8463 27.3077 73.4552C27.4504 73.8339 27.7154 76.1313 28.1893 76.8681C28.4034 77.2007 28.6735 77.257 29.0862 77.17C29.4175 78.352 30.8036 79.4368 31.9451 79.3293C32.7452 79.2526 33.3261 78.7 33.586 77.958C33.7899 77.3798 33.9529 76.7146 34.0549 76.0699C34.6052 76.0546 34.8702 75.9983 34.8447 75.4815C34.7989 74.5861 33.8306 72.1198 33.795 71.7411C35.5531 70.0679 36.4092 67.5198 35.8079 64.9767Z" fill="#FDFFFC"/>
<path d="M32.154 64.721C32.047 64.3373 31.6699 64.0814 31.2724 64.1787C30.9004 64.2657 30.6201 64.6801 30.7322 65.0639C30.7985 65.2992 30.9717 65.4886 31.1807 65.5756C31.0278 66.5682 30.8342 67.5455 30.7526 68.5484C30.6762 69.4797 30.5997 70.3905 30.3959 71.2961C29.2901 69.6332 28.1893 67.9753 26.9714 66.3942C27.3077 66.0719 27.0529 65.3504 26.4872 65.4835C25.8197 65.6421 26.0643 66.6859 26.737 66.5273C26.742 66.5273 26.7471 66.5222 26.7522 66.517C28.0161 68.313 29.2544 70.1346 30.2838 72.079C30.3959 72.2888 30.7017 72.2427 30.773 72.0278C31.1093 71.0249 31.2062 70.0016 31.2775 68.9526C31.359 67.8218 31.5782 66.7115 31.6699 65.5858C32.0113 65.4732 32.2559 65.0843 32.154 64.721Z" fill="#AEB4FC"/>
<path d="M23.6685 58.54C22.2467 57.8339 20.8198 57.1226 19.398 56.4114C19.1024 56.2681 18.8323 56.6928 19.1279 56.8514C20.514 57.619 21.9052 58.3814 23.2914 59.1489C23.699 59.374 24.0761 58.7447 23.6685 58.54Z" fill="#808AFF"/>
<path d="M26.344 53.1161C26.2268 52.8552 25.8904 53.0445 25.9159 53.2799C26.0892 54.7535 26.6345 56.2579 27.0625 57.6803C27.1695 58.0283 27.7046 57.9106 27.618 57.5473C27.2664 56.0839 26.9606 54.4926 26.344 53.1161Z" fill="#808AFF"/>
<path d="M32.969 52.6863C32.6021 53.0087 32.3779 53.5204 32.1486 53.9502C31.9091 54.4004 31.695 54.861 31.4912 55.3266C31.3281 55.7052 31.9549 55.9048 32.1129 55.5159C32.3015 55.04 32.5053 54.5795 32.7397 54.1241C32.9385 53.7301 33.2289 53.3464 33.3461 52.9217C33.4124 52.6914 33.1372 52.5328 32.969 52.6863Z" fill="#808AFF"/>
</g>
<defs>
<clipPath id="clip0_1_2709">
<rect width="14" height="17" fill="white" transform="translate(153 24.3394)"/>
</clipPath>
<clipPath id="clip1_1_2709">
<rect width="69" height="12" fill="white" transform="translate(57 117.339)"/>
</clipPath>
<clipPath id="clip2_1_2709">
<rect width="32" height="26" fill="white" transform="translate(138 58.3394)"/>
</clipPath>
<clipPath id="clip3_1_2709">
<rect width="35" height="35" fill="white" transform="translate(40 -16.6606)"/>
</clipPath>
</defs>
</svg>
