<svg width="26" height="9" viewBox="0 0 26 9" fill="none" xmlns="http://www.w3.org/2000/svg">
<path d="M4.87966 4.43143V3.46312C5.95303 3.48591 6.82823 3.40237 7.50527 3.2125C8.31442 2.99986 8.71899 2.66569 8.71899 2.21002C8.71899 1.87586 8.46304 1.60625 7.95113 1.4012C7.45573 1.18855 6.81172 1.08223 6.01908 1.08223C5.09434 1.08223 4.37601 1.24551 3.8641 1.57208C3.35219 1.89105 3.11275 2.27078 3.14577 2.71126H0.322008C0.404575 1.91383 0.941255 1.26829 1.93205 0.774647C2.9889 0.258216 4.36775 0 6.06862 0C7.5383 0 8.78505 0.178473 9.80887 0.535417C10.9648 0.930335 11.5428 1.46196 11.5428 2.13028C11.5428 3.00365 10.7254 3.57325 9.09054 3.83906V3.86184C10.0648 3.95297 10.8327 4.18081 11.3941 4.54535C11.9556 4.9023 12.2363 5.33898 12.2363 5.85541C12.2363 6.58449 11.6253 7.17687 10.4033 7.63254C9.24742 8.07303 7.81077 8.29327 6.09339 8.29327C4.14483 8.29327 2.63386 8.03885 1.5605 7.53002C0.553194 7.04397 0.0330265 6.37185 0 5.51366H2.82377C2.79074 6.0149 3.05495 6.41741 3.6164 6.7212C4.19437 7.04776 5.02003 7.21105 6.09339 7.21105C7.06767 7.21105 7.86031 7.08573 8.4713 6.83511C9.0988 6.5769 9.41255 6.22755 9.41255 5.78706C9.41255 4.82255 7.90159 4.37068 4.87966 4.43143Z" fill="#A1A4B2"/>
<path d="M18.6434 4.43143V3.46312C19.7168 3.48591 20.592 3.40237 21.269 3.2125C22.0781 2.99986 22.4827 2.66569 22.4827 2.21002C22.4827 1.87586 22.2268 1.60625 21.7149 1.4012C21.2195 1.18855 20.5754 1.08223 19.7828 1.08223C18.8581 1.08223 18.1397 1.24551 17.6278 1.57208C17.1159 1.89105 16.8765 2.27078 16.9095 2.71126H14.0857C14.1683 1.91383 14.705 1.26829 15.6958 0.774647C16.7526 0.258216 18.1315 0 19.8323 0C21.302 0 22.5488 0.178473 23.5726 0.535417C24.7285 0.930335 25.3065 1.46196 25.3065 2.13028C25.3065 3.00365 24.4891 3.57325 22.8543 3.83906V3.86184C23.8286 3.95297 24.5964 4.18081 25.1579 4.54535C25.7193 4.9023 26 5.33898 26 5.85541C26 6.58449 25.3891 7.17687 24.1671 7.63254C23.0111 8.07303 21.5745 8.29327 19.8571 8.29327C17.9086 8.29327 16.3976 8.03885 15.3242 7.53002C14.3169 7.04397 13.7968 6.37185 13.7637 5.51366H16.5875C16.5545 6.0149 16.8187 6.41741 17.3801 6.7212C17.9581 7.04776 18.7838 7.21105 19.8571 7.21105C20.8314 7.21105 21.624 7.08573 22.235 6.83511C22.8625 6.5769 23.1763 6.22755 23.1763 5.78706C23.1763 4.82255 21.6653 4.37068 18.6434 4.43143Z" fill="#A1A4B2"/>
</svg>
