<svg width="9" height="8" viewBox="0 0 9 8" fill="none" xmlns="http://www.w3.org/2000/svg">
<path d="M8.9813 6.31126V7.36313H0C0.0125263 6.27001 0.977046 5.35907 2.89356 4.63032C3.49482 4.41032 4.08981 4.19032 4.67855 3.97032C5.35496 3.70907 5.86227 3.46157 6.20048 3.22782C6.62637 2.92532 6.84558 2.60219 6.85811 2.25844C6.87064 1.92844 6.73285 1.65 6.44474 1.42313C6.06896 1.1275 5.4677 0.979689 4.64097 0.979689C3.20045 0.979689 2.44888 1.58125 2.38625 2.78438H0.244261C0.244261 1.95938 0.632574 1.29594 1.4092 0.794064C2.22341 0.264688 3.3445 0 4.77249 0C6.22553 0 7.33411 0.254376 8.09821 0.763126C8.69946 1.16875 9.00009 1.65344 9.00009 2.21719C9.00009 3.09032 8.02305 3.90157 6.06896 4.65094C5.34244 4.91907 4.61591 5.18719 3.88939 5.45532C3.1754 5.75782 2.73698 6.04313 2.57414 6.31126H8.9813Z" fill="#A1A4B2"/>
</svg>
