<svg width="18" height="22" viewBox="0 0 18 22" fill="none" xmlns="http://www.w3.org/2000/svg">
<path d="M8.21723 22C7.66337 22 2.833 21.9364 0.853633 19.6029C0.145421 18.7676 -0.126969 17.7235 0.054624 16.5885L0.0727833 16.4886C0.0909426 16.4069 0.100022 16.3343 0.118182 16.2616L0.454128 14.936C0.744677 13.9282 1.04431 13.0747 1.38025 12.2757C1.75252 11.404 2.23374 10.5687 2.89655 9.65165C3.75004 8.46222 4.77604 7.11843 6.15615 6.29218C6.61921 6.01979 7.34558 5.70201 8.19907 5.75648C9.06163 5.70201 9.77893 6.01071 10.242 6.29218C11.5676 7.08211 12.5936 8.37142 13.5107 9.65165C14.1644 10.5687 14.6456 11.404 15.027 12.2757C15.4446 13.2381 15.7987 14.3004 16.1074 15.508L16.2981 16.2616C16.5796 17.4783 16.3617 18.5951 15.6444 19.494C13.7286 21.9364 8.78016 22 8.21723 22ZM2.1157 15.7713L1.86147 16.8155C1.75252 17.5055 1.87055 18.0049 2.24282 18.4317C3.46857 19.8753 6.97331 20.1931 8.21723 20.1931H8.22631C9.49746 20.1931 13.0658 19.8663 14.2461 18.3772C14.6184 17.9141 14.7092 17.3694 14.5457 16.6793L14.3732 15.9711C14.0827 14.8543 13.7558 13.8828 13.3835 13.002C13.0567 12.2484 12.639 11.5221 12.0579 10.7049C11.3134 9.66073 10.4327 8.49854 9.3431 7.85388C8.97992 7.64505 8.61673 7.54518 8.29894 7.57241L8.21723 7.58149L8.12643 7.57241C7.81772 7.54518 7.44546 7.64505 7.10043 7.85388C6.01995 8.49854 5.13015 9.66073 4.38562 10.7049C3.80452 11.5221 3.38685 12.2484 3.05999 13.002C2.75128 13.7193 2.47889 14.5002 2.22466 15.39L2.1157 15.7713Z" fill="#98A1BD"/>
<path d="M14.5089 6.98225C12.584 6.98225 11.0223 5.42055 11.0223 3.49566C11.0223 1.57078 12.584 0 14.5089 0C16.4338 0 17.9955 1.5617 17.9955 3.48658C17.9955 5.41147 16.4338 6.98225 14.5089 6.98225ZM14.5089 1.81593C13.5828 1.81593 12.8383 2.56954 12.8383 3.48658C12.8383 4.40363 13.5919 5.15724 14.5089 5.15724C15.426 5.15724 16.1796 4.40363 16.1796 3.48658C16.1796 2.56954 15.426 1.81593 14.5089 1.81593Z" fill="#98A1BD"/>
</svg>
