<svg width="110" height="110" viewBox="0 0 110 110" fill="none" xmlns="http://www.w3.org/2000/svg">
<g opacity="0.3">
<path d="M55.0003 55.0003V109.988C24.635 109.988 0 85.3656 0 55.0003C0 47.5185 1.48886 40.387 4.20384 33.8935V55.0003H55.0003Z" fill="#E6E7F2"/>
<path d="M110 55.0005C110 85.3657 85.3778 109.988 55 109.988V55.0005H110Z" fill="#E6E7F2"/>
<path d="M110 55.0003H55V0C85.3778 0 110 24.6225 110 55.0003Z" fill="#E6E7F2"/>
<path d="M55.0008 0V55.0003H4.2044V33.8935C12.4745 13.9878 32.1174 0 55.0008 0Z" fill="#E6E7F2"/>
</g>
<path d="M55.001 54.9991V99.3333C30.5189 99.3333 10.6568 79.4813 10.6568 54.9991C10.6568 48.9669 11.8572 43.2171 14.0462 37.9817V54.9991H55.001Z" fill="#E6E7F2"/>
<path d="M99.3452 54.999C99.3452 79.4811 79.4932 99.3332 55.001 99.3332V54.999H99.3452Z" fill="#E6E7F2"/>
<path d="M99.3452 54.9991H55.001V10.6548C79.4932 10.6548 99.3452 30.5068 99.3452 54.9991Z" fill="#E6E7F2"/>
<path d="M55.0014 10.6548V54.9991H14.0465V37.9816C20.7143 21.9325 36.5515 10.6548 55.0014 10.6548Z" fill="#E6E7F2"/>
<rect x="44.9234" y="42.4272" width="6.87918" height="25.1336" rx="3.40979" fill="#3F414E"/>
<rect x="58.1986" y="42.4272" width="6.87918" height="25.1336" rx="3.40979" fill="#3F414E"/>
</svg>
