<svg width="184" height="183" viewBox="0 0 184 183" fill="none" xmlns="http://www.w3.org/2000/svg">
<path d="M184 0H0V182.389H184V0Z" fill="#4C53B4"/>
<path d="M157.18 106.613C172.532 75.1501 155.794 35.6525 119.795 18.3931C83.7951 1.1336 42.1661 12.6481 26.8138 44.1114C11.4614 75.5747 28.1994 115.072 64.1991 132.332C100.199 149.591 141.828 138.077 157.18 106.613Z" fill="#5F65BF"/>
<path d="M173.103 19.7672C171.835 18.5033 170.111 17.947 168.551 18.2789C169.544 17.1536 169.69 15.337 168.856 14.0329C168.008 12.7051 166.234 12.0011 164.639 12.3604C163.331 12.6541 162.229 13.5277 161.654 14.6749C161.789 13.7411 161.78 12.5975 161.325 11.4795C160.773 10.1225 159.629 9.10843 158.335 8.83303C156.758 8.49743 154.924 9.30176 153.871 10.7919C153.196 11.7476 152.745 12.9714 152.581 14.2408C152.331 13.3672 151.744 12.5647 150.938 12.0832C149.74 11.3682 148.119 11.3463 146.807 12.0248C145.586 12.6577 144.629 13.8815 144.248 15.3024C143.922 16.5207 144 17.8485 144.471 19.1617C143.335 18.195 142.143 17.2685 140.544 17.5494C139.473 17.7372 138.588 18.3902 138.117 19.3404C137.648 20.2852 137.666 21.3704 138.165 22.3188C139.008 23.9202 140.732 24.9197 143.433 25.3739C145.302 25.6876 147.227 25.7076 149.087 25.7259C149.433 25.7295 149.777 25.7332 150.123 25.7386C150.395 25.7423 150.637 25.7478 150.859 25.755C152.385 25.8025 153.912 25.8335 155.397 25.8462C156.035 25.8517 156.67 25.8554 157.307 25.8554C159.616 25.8554 161.901 25.8152 164.126 25.7368C164.676 25.7167 165.235 25.6876 165.776 25.6602C166.575 25.6183 167.399 25.5763 168.21 25.5635C169.576 25.5398 170.796 25.4796 171.907 24.9872C172.867 24.5604 174.152 23.829 174.238 22.4046C174.293 21.5017 173.879 20.5406 173.103 19.7672Z" fill="#93A1ED"/>
<path d="M166.277 136.545C165.344 135.615 164.074 135.205 162.926 135.451C163.657 134.623 163.763 133.286 163.151 132.325C162.527 131.347 161.222 130.829 160.049 131.094C159.084 131.311 158.275 131.953 157.852 132.797C157.951 132.109 157.944 131.267 157.609 130.446C157.204 129.448 156.359 128.701 155.408 128.498C154.249 128.25 152.896 128.843 152.124 129.939C151.627 130.643 151.296 131.544 151.174 132.478C150.99 131.834 150.558 131.243 149.965 130.889C149.084 130.364 147.892 130.348 146.926 130.847C146.026 131.312 145.323 132.213 145.041 133.259C144.8 134.154 144.859 135.133 145.205 136.098C144.37 135.387 143.492 134.705 142.316 134.911C141.529 135.05 140.878 135.529 140.53 136.23C140.186 136.925 140.197 137.723 140.565 138.422C141.185 139.6 142.453 140.335 144.442 140.671C145.818 140.902 147.233 140.917 148.604 140.93C148.858 140.932 149.112 140.935 149.365 140.939C149.566 140.943 149.745 140.946 149.908 140.952C151.031 140.986 152.155 141.008 153.248 141.019C153.717 141.023 154.186 141.026 154.654 141.026C156.352 141.026 158.036 140.997 159.671 140.939C160.076 140.924 160.488 140.902 160.886 140.882C161.473 140.851 162.08 140.82 162.676 140.811C163.681 140.795 164.579 140.749 165.396 140.386C166.102 140.073 167.048 139.533 167.11 138.486C167.155 137.822 166.849 137.114 166.277 136.545Z" fill="#93A1ED"/>
<path d="M181.912 48.5794C181.033 47.7039 179.84 47.3191 178.759 47.5489C179.447 46.7683 179.548 45.5116 178.97 44.6069C178.383 43.6877 177.154 43.1989 176.05 43.447C175.143 43.6512 174.381 44.2549 173.982 45.0502C174.074 44.4027 174.068 43.6111 173.754 42.836C173.373 41.8967 172.578 41.1945 171.682 41.003C170.591 40.7695 169.319 41.3276 168.591 42.3599C168.123 43.022 167.81 43.8701 167.696 44.7492C167.523 44.1437 167.117 43.5874 166.559 43.2555C165.729 42.7612 164.607 42.7448 163.698 43.2153C162.852 43.6531 162.189 44.5012 161.926 45.4861C161.7 46.3305 161.753 47.2498 162.081 48.1599C161.295 47.4905 160.469 46.8485 159.361 47.0437C158.62 47.1732 158.007 47.6255 157.679 48.2839C157.356 48.9387 157.367 49.6901 157.713 50.3467C158.296 51.4556 159.49 52.1487 161.361 52.4624C162.657 52.6795 163.989 52.6941 165.279 52.7068C165.518 52.7087 165.757 52.7123 165.996 52.7159C166.186 52.7196 166.351 52.7232 166.506 52.7269C167.562 52.7597 168.62 52.7816 169.649 52.7907C170.09 52.7944 170.532 52.7962 170.972 52.7962C172.571 52.7962 174.155 52.7688 175.695 52.7141C176.076 52.7014 176.464 52.6813 176.838 52.6612C177.39 52.632 177.962 52.6029 178.523 52.5937C179.469 52.5773 180.313 52.5354 181.082 52.1943C181.747 51.8988 182.637 51.3918 182.698 50.4051C182.737 49.7795 182.45 49.1138 181.912 48.5794Z" fill="#93A1ED"/>
<path d="M20.595 85.5204C19.9399 84.8693 19.0512 84.5811 18.2471 84.7526C18.7605 84.1708 18.8341 83.2351 18.4054 82.5621C17.9675 81.8763 17.053 81.5134 16.2305 81.6994C15.5552 81.8508 14.9866 82.3013 14.6904 82.894C14.7603 82.4125 14.7548 81.8216 14.5211 81.2452C14.2359 80.5449 13.6453 80.0214 12.9792 79.8791C12.1659 79.7059 11.2183 80.1217 10.6755 80.8896C10.3278 81.382 10.0941 82.0149 10.0094 82.6697C9.88064 82.2192 9.57704 81.8052 9.1612 81.5571C8.54296 81.1887 7.7076 81.1778 7.03048 81.5279C6.39936 81.8544 5.90624 82.4855 5.70936 83.2187C5.54008 83.8461 5.58056 84.5319 5.82528 85.2104C5.24015 84.7124 4.62375 84.2328 3.79943 84.3787C3.24743 84.4753 2.79111 84.8128 2.54639 85.3034C2.30535 85.7904 2.31271 86.3503 2.57031 86.8391C3.00455 87.6653 3.89327 88.1815 5.28799 88.4149C6.25216 88.5773 7.24576 88.5864 8.20624 88.5973C8.38472 88.5992 8.5632 88.601 8.73984 88.6028C8.88152 88.6046 9.0048 88.6083 9.11888 88.6119C9.9064 88.6356 10.6939 88.652 11.4594 88.6593C11.7887 88.663 12.1162 88.6648 12.4438 88.6648C13.6342 88.6648 14.8137 88.6448 15.9618 88.6028C16.2452 88.5919 16.5341 88.5773 16.8138 88.5627C17.2259 88.5408 17.651 88.5189 18.0687 88.5116C18.7734 88.4988 19.4027 88.4697 19.9749 88.2143C20.4699 87.9936 21.1341 87.6161 21.1783 86.8829C21.2077 86.416 20.9943 85.9199 20.595 85.5204Z" fill="#93A1ED"/>
<path d="M182.162 94.2912C181.533 93.6656 180.679 93.3884 179.906 93.5543C180.399 92.9962 180.471 92.097 180.057 91.4496C179.637 90.7911 178.758 90.4428 177.968 90.6197C177.319 90.7656 176.774 91.1979 176.489 91.7669C176.555 91.3037 176.552 90.7364 176.325 90.1838C176.053 89.5108 175.484 89.0092 174.844 88.8724C174.064 88.7064 173.153 89.104 172.632 89.8427C172.298 90.3169 172.075 90.9225 171.992 91.5517C171.869 91.1194 171.578 90.72 171.179 90.4829C170.586 90.1291 169.782 90.1181 169.133 90.4537C168.527 90.7674 168.053 91.3748 167.865 92.077C167.703 92.6807 167.742 93.3391 167.975 93.9902C167.412 93.5124 166.822 93.0528 166.031 93.1914C165.501 93.2844 165.061 93.6072 164.827 94.0796C164.595 94.5484 164.603 95.0846 164.851 95.5551C165.269 96.3485 166.123 96.8446 167.462 97.069C168.388 97.224 169.343 97.2349 170.264 97.2441C170.436 97.2459 170.607 97.2477 170.778 97.2495C170.914 97.2514 171.032 97.255 171.142 97.2568C171.898 97.2805 172.655 97.2951 173.391 97.3024C173.707 97.3061 174.022 97.3061 174.336 97.3061C175.481 97.3061 176.612 97.286 177.715 97.2477C177.987 97.2386 178.265 97.224 178.533 97.2094C178.929 97.1893 179.337 97.1675 179.739 97.162C180.416 97.151 181.019 97.12 181.569 96.8756C182.044 96.6641 182.683 96.3011 182.725 95.5953C182.752 95.1502 182.546 94.676 182.162 94.2912Z" fill="#93A1ED"/>
<path d="M23.379 47.4393C22.711 46.7754 21.8039 46.4818 20.9833 46.6568C21.5058 46.0641 21.5831 45.1084 21.1452 44.4226C20.6999 43.724 19.7652 43.3538 18.9262 43.5417C18.238 43.6967 17.6584 44.1563 17.3548 44.76C17.4247 44.2676 17.421 43.6657 17.1818 43.0784C16.8911 42.3652 16.2894 41.8308 15.6086 41.6849C14.7788 41.508 13.8128 41.9312 13.2589 42.7154C12.9038 43.2188 12.6665 43.8627 12.58 44.5302C12.4493 44.0706 12.1402 43.6474 11.7152 43.3939C11.0859 43.0182 10.2321 43.0054 9.54214 43.3629C8.89998 43.6949 8.39582 44.3405 8.19526 45.0883C8.02414 45.7285 8.06462 46.4289 8.31302 47.1201C7.71502 46.6113 7.08758 46.1243 6.2467 46.272C5.68366 46.3705 5.21814 46.7152 4.96974 47.215C4.72318 47.7111 4.73238 48.2838 4.9955 48.7817C5.43894 49.6243 6.34606 50.1496 7.76838 50.3903C8.75278 50.5563 9.76478 50.5654 10.7437 50.5764C10.9258 50.5782 11.1061 50.58 11.2883 50.5818C11.4318 50.5837 11.5588 50.5873 11.6765 50.591C12.4788 50.6165 13.2829 50.6311 14.0649 50.6402C14.3998 50.6439 14.7346 50.6457 15.0695 50.6457C16.2839 50.6457 17.4873 50.6238 18.6575 50.5837C18.9464 50.5727 19.2408 50.5581 19.526 50.5435C19.9455 50.5217 20.3798 50.4998 20.8066 50.4925C21.5242 50.4797 22.1682 50.4487 22.7515 50.1897C23.2557 49.9654 23.9328 49.5805 23.9788 48.8309C24.0064 48.3512 23.7874 47.846 23.379 47.4393Z" fill="#93A1ED"/>
<path d="M43.7353 129.454C42.3443 128.068 40.4528 127.457 38.7416 127.822C39.8308 126.587 39.9909 124.593 39.0783 123.162C38.1491 121.704 36.2024 120.933 34.4525 121.325C33.0155 121.648 31.8084 122.605 31.1773 123.866C31.3245 122.841 31.3135 121.586 30.8167 120.36C30.2113 118.872 28.9546 117.759 27.536 117.457C25.8063 117.088 23.7934 117.971 22.6379 119.605C21.8963 120.654 21.4032 121.996 21.2211 123.39C20.9469 122.43 20.3029 121.549 19.4179 121.022C18.1041 120.238 16.3248 120.214 14.8859 120.958C13.5464 121.651 12.4958 122.996 12.0781 124.555C11.7193 125.892 11.8058 127.349 12.3228 128.79C11.0771 127.73 9.76889 126.713 8.01537 127.021C6.83961 127.227 5.86992 127.944 5.35288 128.985C4.83768 130.021 4.85792 131.212 5.4044 132.254C6.32809 134.01 8.21961 135.106 11.1857 135.606C13.2373 135.951 15.3478 135.973 17.3902 135.993C17.7692 135.996 18.1483 136 18.5255 136.005C18.8254 136.009 19.0885 136.016 19.3332 136.024C21.0058 136.075 22.682 136.109 24.3123 136.124C25.0115 136.131 25.7107 136.133 26.4062 136.133C28.9399 136.133 31.4478 136.089 33.8876 136.002C34.4912 135.98 35.1057 135.949 35.6982 135.918C36.574 135.872 37.4793 135.827 38.368 135.81C39.8658 135.785 41.2053 135.719 42.4234 135.177C43.4759 134.709 44.8872 133.906 44.981 132.345C45.0417 131.356 44.5873 130.304 43.7353 129.454Z" fill="#93A1ED"/>
<path d="M38.1946 13.65C36.9544 12.4152 35.2708 11.8699 33.7455 12.1946C34.717 11.0929 34.8587 9.31829 34.0454 8.04339C33.2174 6.74479 31.4823 6.05718 29.9238 6.40737C28.6431 6.69554 27.5667 7.5473 27.0055 8.67081C27.1362 7.75704 27.127 6.639 26.6835 5.54649C26.1444 4.22053 25.0238 3.22833 23.7598 2.96022C22.2197 2.63192 20.4238 3.41802 19.3953 4.8753C18.7347 5.80913 18.295 7.0056 18.133 8.24584C17.8883 7.39227 17.3142 6.60617 16.5267 6.13743C15.3565 5.43888 13.7704 5.417 12.4879 6.08089C11.2937 6.69919 10.359 7.89748 9.98551 9.28546C9.66719 10.4765 9.74263 11.7751 10.2045 13.0591C9.09495 12.1143 7.92839 11.2078 6.36622 11.4832C5.31926 11.6675 4.45446 12.3058 3.99446 13.2342C3.5363 14.1571 3.55286 15.2186 4.04046 16.1451C4.86478 17.71 6.54838 18.6876 9.19063 19.1326C11.0178 19.4409 12.9001 19.4591 14.718 19.4773C15.0547 19.481 15.3933 19.4846 15.73 19.4883C15.9968 19.4919 16.2323 19.4974 16.4494 19.5047C17.9398 19.5503 19.4321 19.5813 20.8857 19.5941C21.5094 19.5995 22.1314 19.6032 22.7514 19.6032C25.0073 19.6032 27.2429 19.5649 29.4178 19.4865C29.9551 19.4664 30.5034 19.439 31.0315 19.4117C31.8116 19.3715 32.6175 19.3296 33.4106 19.3168C34.7446 19.2931 35.9387 19.2348 37.0243 18.7533C37.9627 18.3356 39.2195 17.6206 39.3041 16.229C39.3593 15.3444 38.9545 14.4051 38.1946 13.65Z" fill="#93A1ED"/>
<path d="M140.124 77.4315C136.234 73.5575 130.949 71.8486 126.165 72.8681C129.212 69.4155 129.656 63.8454 127.104 59.8456C124.504 55.7728 119.067 53.6134 114.174 54.715C110.159 55.6178 106.783 58.2935 105.02 61.8135C105.43 58.95 105.403 55.4409 104.01 52.0156C102.319 47.8554 98.8064 44.7456 94.8393 43.9012C90.0057 42.8707 84.3771 45.3402 81.1516 49.9054C79.0797 52.8364 77.6979 56.5899 77.1937 60.4803C76.4283 57.801 74.6269 55.3388 72.1558 53.8651C68.4832 51.6746 63.5115 51.6053 59.4892 53.6881C55.743 55.6269 52.81 59.3841 51.6416 63.7377C50.6407 67.4731 50.878 71.5476 52.3261 75.5729C48.8448 72.6109 45.1887 69.7675 40.287 70.6284C37.0026 71.2047 34.2904 73.2074 32.8441 76.1201C31.4071 79.0164 31.4605 82.345 32.9913 85.2523C35.5747 90.1622 40.8592 93.2263 49.1466 94.6216C54.8782 95.5864 60.7791 95.6448 66.4867 95.7013C67.5448 95.7123 68.6046 95.7232 69.6608 95.7378C70.498 95.7506 71.2358 95.767 71.9184 95.787C76.5957 95.9311 81.2767 96.026 85.8325 96.0698C87.7885 96.088 89.7407 96.0971 91.6874 96.0971C98.7659 96.0971 105.778 95.9749 112.599 95.7305C114.286 95.6703 116.001 95.5828 117.661 95.4971C120.108 95.3712 122.638 95.2417 125.124 95.1979C129.31 95.1268 133.054 94.9426 136.458 93.4288C139.401 92.1192 143.344 89.874 143.607 85.5095C143.776 82.7481 142.506 79.8025 140.124 77.4315Z" fill="#74C7E5"/>
<path d="M78.841 70.6267C78.4859 70.6668 78.232 70.986 78.2725 71.3362C78.3994 72.4323 77.8364 73.616 76.8998 74.2143C75.9651 74.8125 74.644 74.8344 73.689 74.2672C72.7341 73.6999 72.1306 72.5363 72.2226 71.4365C72.252 71.0845 71.987 70.7744 71.6319 70.7452C71.2731 70.7142 70.964 70.9787 70.9346 71.3307C70.8738 72.0548 71.0174 72.7843 71.3191 73.4428C71.0082 73.8969 70.6034 74.289 70.136 74.5772C70.0348 74.6392 70.0035 74.7706 70.0661 74.8709C70.1066 74.9365 70.1765 74.9712 70.2501 74.9712C70.2887 74.9712 70.3292 74.9602 70.3642 74.9384C70.8168 74.6593 71.2179 74.2909 71.5418 73.8677C71.8619 74.4058 72.298 74.8763 72.8187 75.232C72.6329 75.6351 72.3238 75.9853 71.9355 76.2041C71.8325 76.2625 71.7957 76.392 71.8546 76.496C71.8932 76.5653 71.9668 76.6036 72.0422 76.6036C72.079 76.6036 72.114 76.5944 72.1489 76.5762C72.6016 76.3227 72.9641 75.9214 73.1904 75.4563C73.8215 75.7938 74.5354 75.9634 75.2512 75.9634C76.0774 75.9634 76.9054 75.739 77.6027 75.2922C78.957 74.4258 79.7426 72.7789 79.5586 71.1903C79.5182 70.8383 79.1962 70.5866 78.841 70.6267Z" fill="#231F20"/>
<path d="M106.203 74.5772C105.736 74.289 105.331 73.8969 105.02 73.4428C105.322 72.7843 105.465 72.0548 105.404 71.3325C105.375 70.9805 105.068 70.7197 104.707 70.7452C104.352 70.7744 104.087 71.0827 104.116 71.4365C104.207 72.5363 103.603 73.6999 102.65 74.2672C101.695 74.8344 100.376 74.8125 99.4391 74.2143C98.5043 73.616 97.9395 72.4323 98.0664 71.3362C98.1069 70.9842 97.853 70.6668 97.4979 70.6267C97.1446 70.5866 96.8226 70.8383 96.7821 71.1903C96.5981 72.777 97.3838 74.4258 98.738 75.2922C99.4372 75.739 100.263 75.9634 101.09 75.9634C101.805 75.9634 102.517 75.7938 103.15 75.4563C103.377 75.9214 103.739 76.3227 104.192 76.5762C104.225 76.5944 104.262 76.6036 104.299 76.6036C104.374 76.6036 104.448 76.5653 104.486 76.496C104.545 76.3938 104.508 76.2625 104.405 76.2041C104.017 75.9871 103.708 75.6369 103.522 75.232C104.043 74.8782 104.479 74.4076 104.799 73.8677C105.123 74.2927 105.524 74.6593 105.978 74.9384C106.013 74.9602 106.054 74.9712 106.093 74.9712C106.164 74.9712 106.234 74.9347 106.277 74.8709C106.334 74.7724 106.304 74.6411 106.203 74.5772Z" fill="#231F20"/>
<path d="M83.0102 85.7975C82.3294 85.0406 81.1297 84.7852 80.16 85.1938C79.159 85.6133 78.5316 86.6821 78.7009 87.6797C78.8867 88.7759 79.9631 89.3705 80.9494 89.4726C81.0634 89.4835 81.1738 89.4908 81.2842 89.4908C82.0681 89.4908 82.7507 89.1954 83.1537 88.6683C83.7811 87.8475 83.7186 86.5872 83.0102 85.7975Z" fill="#91D9F2"/>
<path d="M74.2403 78.8741C73.1621 78.2376 71.6294 78.1902 70.415 78.2066C69.0497 78.2248 67.5206 78.409 66.2658 78.9708C65.32 79.3939 64.7809 80.3205 65.2464 81.32C65.7671 82.4398 67.2152 82.7864 68.3339 82.9231C70.1592 83.1457 74.0582 83.266 75.0315 81.2944C75.4805 80.3807 75.1051 79.3848 74.2403 78.8741Z" fill="#57B6DC"/>
<path d="M112.299 78.8741C111.221 78.2376 109.689 78.1902 108.474 78.2066C107.109 78.2248 105.58 78.409 104.325 78.9708C103.379 79.3939 102.84 80.3205 103.306 81.32C103.826 82.4398 105.274 82.7864 106.393 82.9231C108.218 83.1457 112.117 83.266 113.091 81.2944C113.538 80.3807 113.164 79.3848 112.299 78.8741Z" fill="#57B6DC"/>
<path d="M37.0758 73.3077C34.704 74.2908 33.1547 76.9373 33.4712 79.4652C33.7877 81.9931 35.9423 84.1854 38.4834 84.5629C38.5422 84.5721 38.6011 84.5757 38.6618 84.5757C39.2433 84.5757 39.7456 84.1453 39.8321 83.5762C39.8799 83.2662 39.8008 82.9561 39.6131 82.7026C39.4254 82.4509 39.1494 82.2849 38.8366 82.2393C37.3094 82.0113 36.0141 80.6945 35.8227 79.1752C35.6332 77.6559 36.5642 76.0636 37.9884 75.4745C39.4144 74.8836 41.2102 75.345 42.167 76.547C42.3639 76.7932 42.6454 76.9482 42.9582 76.9847C43.2729 77.0212 43.582 76.9336 43.8304 76.7403C44.0788 76.5451 44.2352 76.2661 44.2738 75.956C44.3125 75.646 44.2223 75.3377 44.0273 75.0915C42.4357 73.0907 39.4457 72.3247 37.0758 73.3077Z" fill="#57B6DC"/>
<path d="M61.8716 54.1332C58.6902 54.6786 55.7793 56.9785 54.2724 60.1357C52.977 62.8514 52.6679 66.2055 53.402 69.5779C53.5198 70.1141 54.0056 70.5044 54.5594 70.5044C54.644 70.5044 54.7287 70.4953 54.8096 70.4771C55.1188 70.4114 55.3837 70.229 55.5548 69.9646C55.726 69.7001 55.7848 69.3864 55.7168 69.08C55.0912 66.2092 55.3377 63.3895 56.4123 61.137C57.5936 58.6601 59.8402 56.8618 62.2708 56.4441C64.8027 56.0119 67.5333 57.2466 68.6244 59.3186C68.7716 59.5976 69.0181 59.8019 69.3199 59.8967C69.6217 59.9916 69.9437 59.9624 70.2233 59.8183C70.8029 59.5192 71.0293 58.8079 70.7257 58.2333C69.158 55.2495 65.432 53.5241 61.8716 54.1332Z" fill="#57B6DC"/>
<path d="M98.3645 49.9584C97.4059 46.9599 94.1067 44.7876 90.6917 44.9117C87.7146 45.0174 84.7595 46.6899 82.7834 49.3857C81.2065 51.5378 80.211 54.3229 79.8265 57.6643C79.7529 58.3081 80.2202 58.8918 80.8716 58.9647C80.9176 58.9702 80.9618 58.972 81.0059 58.972C81.6076 58.972 82.1136 58.5252 82.1817 57.9306C82.5203 54.9978 83.3685 52.5866 84.7025 50.7645C86.2518 48.6488 88.5223 47.3374 90.7763 47.259C93.1665 47.1733 95.4573 48.6397 96.105 50.666C96.2007 50.9651 96.4086 51.2114 96.6901 51.3555C96.9716 51.4995 97.2918 51.5269 97.5917 51.4321C98.2155 51.2369 98.5614 50.5767 98.3645 49.9584Z" fill="#57B6DC"/>
<path d="M127.106 59.8456C129.658 63.8454 129.212 69.4137 126.167 72.8682C127.608 72.5617 129.093 72.5034 130.57 72.6748C137.185 67.5169 141.579 59.5137 142.39 51.0472C143.288 41.6888 140.51 31.9365 135.137 25.5967C129.661 19.1347 122.184 15.2425 112.912 14.0278C107.513 13.3201 101.112 14.1646 96.602 16.1745C92.0811 18.1899 88.0092 21.8796 85.1388 26.5633C82.6235 30.6671 80.9215 35.597 80.0825 41.2128C80.0678 41.3095 80.1211 41.4025 80.2113 41.4408C80.3014 41.4791 80.4063 41.4499 80.467 41.3733C82.4174 38.8308 85.8067 36.9485 90.013 36.0694C94.1217 35.2122 98.2819 35.5277 101.73 36.9595C105.521 38.5317 108.571 41.5648 109.894 45.0721C111.322 48.8603 110.709 53.2249 108.332 56.1905C108.288 56.2471 108.273 56.3219 108.295 56.3894C108.317 56.4568 108.373 56.5097 108.442 56.5298C108.796 56.6283 109.127 56.7031 109.451 56.7742C110.858 55.8112 112.457 55.098 114.176 54.7114C119.067 53.6152 124.506 55.7729 127.106 59.8456Z" fill="#F5C371"/>
<path d="M114.437 33.4247C114.286 32.6824 113.973 31.9966 113.694 31.413C113.539 31.0938 113.154 30.957 112.832 31.1102C112.51 31.2634 112.374 31.6446 112.527 31.9638C112.775 32.4781 113.05 33.0782 113.171 33.6764C113.254 34.0886 113.302 34.6923 113.05 35.2304C112.733 35.907 111.949 36.3776 111.099 36.4013C110.302 36.425 109.436 36.073 108.731 35.4383C108.466 35.1994 108.058 35.2194 107.818 35.4802C107.577 35.7429 107.598 36.1478 107.861 36.3849C108.779 37.2129 109.927 37.6817 111.027 37.6817C111.062 37.6817 111.099 37.6817 111.134 37.6798C112.463 37.6434 113.703 36.8737 114.222 35.7666C114.536 35.0954 114.61 34.2856 114.437 33.4247Z" fill="#231F20"/>
<path d="M93.0176 26.2021C91.104 25.5564 88.8795 27.5317 89.1757 29.4851C89.2935 30.2548 89.7259 31.0354 90.3184 31.5461C91.4334 32.5054 93.2734 31.92 94.1916 30.9715C95.5624 29.5544 94.8852 26.8331 93.0176 26.2021Z" fill="#FFEAA3"/>
<path d="M106 30.2294C105.314 28.639 103.654 28.0918 102.144 28.8214C101.288 29.2354 100.471 29.9996 100.372 30.9827C100.201 32.6825 101.55 34.707 103.461 34.096C104.972 33.6109 106.727 31.911 106 30.2294Z" fill="#FFEAA3"/>
<path d="M113.212 17.7923C112.929 17.599 112.62 17.4421 112.299 17.3309C110.936 16.8566 109.449 17.1284 108.511 18.2464C106.669 20.4424 108.211 24.1485 111.31 23.4701C112.59 23.1892 114.125 22.4122 114.548 21.0808C114.966 19.7694 114.274 18.52 113.212 17.7923Z" fill="#FFEAA3"/>
<path d="M134.372 28.0498C134.12 27.3275 133.495 26.7767 132.781 26.5214C131.092 25.9159 129.379 27.0193 128.928 28.6809C128.646 29.7187 128.97 30.9662 130.006 31.4842C131.243 32.1025 132.705 31.4276 133.598 30.5193C134.266 29.8427 134.706 29.0055 134.372 28.0498Z" fill="#FFEAA3"/>
<path d="M136.048 38.1962C133.665 38.1141 131.452 39.8814 131.643 42.3528C131.645 42.3765 131.651 42.3984 131.656 42.4221C131.656 42.7212 131.719 43.0276 131.87 43.3377C132.333 44.2934 133.277 45.0394 134.258 45.4206C136.442 46.2742 138.885 45.4662 139.252 43.0112C139.592 40.7295 138.681 38.2855 136.048 38.1962Z" fill="#FFEAA3"/>
<path d="M122.051 47.1329C120.758 46.9706 119.503 48.1105 118.949 49.1775C118.404 50.2262 118.735 51.5102 119.641 52.2507C121.05 53.4052 123.209 52.7377 124.029 51.3515C125.104 49.9672 124.101 47.3882 122.051 47.1329Z" fill="#FFEAA3"/>
<path d="M136.037 56.1395C135.051 54.5856 133.231 54.5929 131.84 55.6672C130.789 56.4788 130.107 57.9051 130.615 59.1982C131.091 60.4147 132.399 61.0732 133.665 61.1024C136.446 61.1662 137.329 58.175 136.037 56.1395Z" fill="#FFEAA3"/>
<path d="M122.64 32.0767C120.342 32.1679 118.785 34.2052 117.62 35.978C117.32 36.3592 117.101 36.7933 117.055 37.2985C116.976 38.1594 117.44 38.9601 118.253 39.2847C120.078 40.0143 122.334 37.8949 123.273 36.5635C124.08 35.4163 125.085 31.98 122.64 32.0767Z" fill="#FFEAA3"/>
<path d="M104.474 17.059C104.275 16.3386 103.359 16.1708 102.831 16.1361C94.8196 15.6054 87.57 23.1362 84.2267 30.3588C83.6802 31.5407 83.2902 32.728 83.0712 33.8917L83.0583 33.9573C82.924 34.6613 82.7731 35.4602 82.7179 36.1697C82.6958 36.4506 82.7547 36.7205 82.8835 36.9303C82.935 37.0142 82.9976 37.0889 83.0694 37.1491C83.2147 37.2731 83.3748 37.3352 83.5496 37.3352C83.5974 37.3352 83.6453 37.3297 83.695 37.3206C84.3187 37.202 84.9186 36.3484 85.1486 35.9144C85.6049 35.0517 85.9287 34.116 86.2415 33.2132C86.363 32.863 86.4844 32.5128 86.6132 32.1663C88.0043 28.4237 90.1295 25.3723 92.9299 23.0979C95.4655 21.0387 98.6008 19.8587 101.611 18.8902C101.71 18.8574 101.854 18.8209 102.023 18.7771C102.778 18.5801 104.04 18.2482 104.402 17.6281C104.504 17.4493 104.529 17.2578 104.474 17.059Z" fill="#FFF4D1"/>
<path d="M106.785 15.3208C106.463 15.1348 106.082 15.1476 105.741 15.2752C105.554 15.3464 105.395 15.4412 105.29 15.62C104.88 16.3167 105.89 17.2651 106.588 17.0955C106.928 17.0134 107.206 16.7508 107.289 16.4115C107.397 15.9738 107.164 15.5397 106.785 15.3208Z" fill="#FFF4D1"/>
<path d="M142.468 50.1133C142.488 49.8105 142.507 49.5059 142.52 49.2031C142.358 49.3728 142.222 49.5825 142.128 49.8397C140.606 53.9325 138.266 57.7353 135.266 60.9289C133.975 62.3041 132.576 63.559 131.115 64.7427C131.349 64.553 130.42 62.3479 130.289 62.0342C129.901 61.1022 129.413 60.2103 128.839 59.375C127.711 57.7353 126.25 56.3181 124.563 55.2493C121.032 53.0114 116.944 52.6138 113.001 53.9161C111.952 54.2626 110.999 54.7277 110.13 55.4281C109.668 55.4791 109.21 55.543 108.758 55.6196C108.623 55.8166 108.48 56.0081 108.331 56.1941C108.287 56.2506 108.272 56.3254 108.294 56.3929C108.316 56.4604 108.371 56.5133 108.441 56.5333C108.794 56.6318 109.126 56.7066 109.449 56.7777C110.857 55.8147 112.456 55.1016 114.175 54.7149C119.067 53.6151 124.504 55.7728 127.104 59.8455C129.242 63.196 129.275 67.6481 127.439 71.0369C127.439 71.0369 127.439 71.0387 127.437 71.0387C127.369 71.1627 127.299 71.2849 127.228 71.4071C127.222 71.4144 127.218 71.4236 127.213 71.4309C127.145 71.5439 127.075 71.6534 127.003 71.7628C126.992 71.7792 126.983 71.7956 126.972 71.8102C126.906 71.9105 126.836 72.0108 126.764 72.1093C126.747 72.1312 126.733 72.1549 126.716 72.1768C126.648 72.2717 126.576 72.3629 126.504 72.4541C126.484 72.4796 126.466 72.5051 126.447 72.5288C126.355 72.6437 126.262 72.7568 126.164 72.8663C127.605 72.5598 129.09 72.5015 130.567 72.6729C137.182 67.515 141.576 59.5118 142.387 51.0453C142.417 50.7389 142.442 50.4324 142.463 50.126C142.468 50.1224 142.468 50.1169 142.468 50.1133Z" fill="#EBCE72"/>
<path d="M44.9275 44.4866C44.8024 44.2677 44.5208 44.1911 44.3 44.3152L38.6015 47.5216L42.5042 40.3409C42.5944 40.1731 42.5723 39.9688 42.4453 39.8248C42.3202 39.6825 42.1178 39.6314 41.9375 39.6971C39.3504 40.6565 36.8627 41.8967 34.5462 43.385C34.3327 43.5218 34.272 43.8045 34.41 44.0161C34.548 44.2276 34.8332 44.2878 35.0467 44.151C36.9603 42.9235 38.9916 41.8675 41.0984 41.0048L37.032 48.4846C36.9345 48.6633 36.9695 48.884 37.1148 49.0263C37.2031 49.112 37.3191 49.1558 37.4368 49.1558C37.5141 49.1558 37.5932 49.1357 37.6631 49.0956L44.7527 45.1049C44.9753 44.9827 45.0526 44.7055 44.9275 44.4866Z" fill="#F7E9BC"/>
<path d="M50.1292 56.8196C50.0299 56.588 49.7594 56.4804 49.5257 56.5789C48.3279 57.0841 47.0877 57.5054 45.8254 57.8374C46.9387 56.1357 47.855 54.3118 48.5579 52.4058C48.6167 52.2453 48.5799 52.0648 48.464 51.9389C48.3463 51.8131 48.1678 51.7638 48.0022 51.8094C45.8659 52.404 43.8235 53.2868 41.9302 54.434C41.713 54.5653 41.645 54.8462 41.7774 55.0614C41.9099 55.2766 42.1933 55.3441 42.4104 55.2128C43.9652 54.2698 45.6267 53.5129 47.36 52.9548C46.5872 54.8407 45.5954 56.6318 44.4031 58.2915C44.2927 58.4447 44.289 58.6508 44.3939 58.8077C44.4804 58.9372 44.6258 59.0119 44.7785 59.0119C44.8116 59.0119 44.8447 59.0083 44.876 59.001C46.589 58.6307 48.2745 58.0963 49.8882 57.416C50.12 57.3194 50.2286 57.0513 50.1292 56.8196Z" fill="#F7E9BC"/>
<path d="M40.0036 33.8258C39.8895 33.6015 39.6117 33.5103 39.3853 33.6233L29.994 38.3217C31.7549 34.6757 33.8764 31.1939 36.3144 27.9565C36.4321 27.7997 36.4358 27.5845 36.3236 27.4239C36.2113 27.2634 36.0071 27.1905 35.8176 27.2452C32.6528 28.1553 29.6867 29.5761 27.0021 31.4712C26.796 31.6171 26.7464 31.9016 26.8936 32.1077C27.0408 32.312 27.3278 32.3612 27.5357 32.2153C29.7566 30.6468 32.1781 29.412 34.7485 28.5365C32.3602 31.8596 30.2939 35.418 28.5974 39.1315C28.5164 39.3084 28.5569 39.5145 28.6986 39.6495C28.7869 39.7334 28.901 39.7771 29.0169 39.7771C29.0868 39.7771 29.1586 39.7607 29.2248 39.7279L39.8012 34.4368C40.0257 34.3255 40.1177 34.0501 40.0036 33.8258Z" fill="#F7E9BC"/>
<path d="M55.3102 43.8137C54.5098 43.8137 54.508 45.0466 55.3102 45.0466C56.1106 45.0466 56.1125 43.8137 55.3102 43.8137Z" fill="#ADB9D1"/>
<path d="M58.0707 28.4292C57.5407 28.4292 57.5407 29.2445 58.0707 29.2445C58.6006 29.2445 58.6006 28.4292 58.0707 28.4292Z" fill="#ADB9D1"/>
<path d="M76.8366 15.5271C75.5394 15.5271 75.5375 17.5261 76.8366 17.5261C78.1338 17.5261 78.1375 15.5271 76.8366 15.5271Z" fill="#ADB9D1"/>
<path d="M57.7947 16.9296C57.6066 16.9296 57.6066 17.2178 57.7947 17.2178C57.9829 17.2178 57.9829 16.9296 57.7947 16.9296Z" fill="#ADB9D1"/>
<path d="M13.6368 34.6758C13.4026 34.6758 13.4026 35.0351 13.6368 35.0351C13.871 35.0351 13.871 34.6758 13.6368 34.6758Z" fill="#ADB9D1"/>
<path d="M26.0561 41.4024H25.7801C25.4802 41.4024 25.195 41.6632 25.2079 41.9697C25.2226 42.2761 25.46 42.5369 25.7801 42.5369H26.0561C26.356 42.5369 26.6412 42.2761 26.6284 41.9697C26.6136 41.6614 26.3763 41.4024 26.0561 41.4024Z" fill="#ADB9D1"/>
<path d="M5.63216 2.76344C5.16663 2.76344 5.16479 3.48205 5.63216 3.48205C6.09952 3.48023 6.09952 2.76344 5.63216 2.76344Z" fill="#ADB9D1"/>
<path d="M13.0848 66.5211C11.9311 66.5211 11.9292 68.2994 13.0848 68.2994C14.2384 68.2994 14.2403 66.5211 13.0848 66.5211Z" fill="#ADB9D1"/>
<path d="M26.3325 74.2761C25.3003 74.2761 25.2984 75.8665 26.3325 75.8665C27.3648 75.8647 27.3666 74.2761 26.3325 74.2761Z" fill="#ADB9D1"/>
<path d="M5.35658 76.0909C4.55066 76.0909 4.55066 77.3311 5.35658 77.3311C6.1625 77.333 6.16434 76.0909 5.35658 76.0909Z" fill="#ADB9D1"/>
<path d="M27.4369 81.4696C27.2211 81.4696 27.2193 81.8015 27.4369 81.8015C27.6527 81.8015 27.6527 81.4696 27.4369 81.4696Z" fill="#ADB9D1"/>
<path d="M12.5119 103.305C12.1328 103.305 12.1328 103.889 12.5119 103.889C12.8909 103.889 12.8909 103.305 12.5119 103.305Z" fill="#ADB9D1"/>
<path d="M27.4167 107.81C26.2575 107.81 26.2557 109.596 27.4167 109.596C28.5759 109.597 28.5777 107.81 27.4167 107.81Z" fill="#ADB9D1"/>
<path d="M46.3681 109.687C45.7498 109.687 45.7498 110.639 46.3681 110.639C46.9863 110.639 46.9863 109.687 46.3681 109.687Z" fill="#ADB9D1"/>
<path d="M63.4671 114.36C63.4579 114.174 63.3972 113.982 63.2555 113.853C63.2058 113.816 63.158 113.778 63.1083 113.741C62.996 113.676 62.8746 113.645 62.744 113.643C62.5416 113.617 62.3152 113.734 62.1772 113.875C62.0319 114.022 61.9509 114.225 61.9509 114.433C61.9491 114.849 62.2968 115.252 62.7384 115.226C62.9298 115.215 63.1101 115.153 63.25 115.016C63.3751 114.892 63.4689 114.688 63.4616 114.509C63.4616 114.497 63.4579 114.484 63.4579 114.473C63.4634 114.433 63.4689 114.396 63.4671 114.36Z" fill="#ADB9D1"/>
<path d="M2.39213 124.697C2.08117 124.697 2.08117 125.175 2.39213 125.175C2.70309 125.175 2.70309 124.697 2.39213 124.697Z" fill="#ADB9D1"/>
<path d="M14.3526 116.016C13.4271 116.016 13.4252 117.442 14.3526 117.442C15.2781 117.442 15.2799 116.016 14.3526 116.016Z" fill="#ADB9D1"/>
<path d="M2.57631 138.65C2.14759 138.65 2.14759 139.31 2.57631 139.31C3.00503 139.31 3.00503 138.65 2.57631 138.65Z" fill="#ADB9D1"/>
<path d="M46.9205 145.07C46.3022 145.07 46.3004 146.024 46.9205 146.024C47.5387 146.022 47.5405 145.07 46.9205 145.07Z" fill="#ADB9D1"/>
<path d="M41.0328 138.968C40.7782 138.968 40.7764 139.36 41.0328 139.36C41.2873 139.358 41.2891 138.968 41.0328 138.968Z" fill="#ADB9D1"/>
<path d="M14.3521 159.373C13.1229 159.373 13.1193 161.268 14.3521 161.268C15.5812 161.267 15.5849 159.373 14.3521 159.373Z" fill="#ADB9D1"/>
<path d="M12.3279 171.482C11.6655 171.482 11.6637 172.503 12.3279 172.503C12.9903 172.503 12.9922 171.482 12.3279 171.482Z" fill="#ADB9D1"/>
<path d="M41.9516 180.853C41.3775 180.853 41.3775 181.738 41.9516 181.738C42.5257 181.736 42.5257 180.853 41.9516 180.853Z" fill="#ADB9D1"/>
<path d="M62.3765 175.613C61.6313 175.613 61.6294 176.761 62.3765 176.761C63.1217 176.762 63.1235 175.613 62.3765 175.613Z" fill="#ADB9D1"/>
<path d="M82.0646 162.673C81.8027 162.673 81.8027 163.076 82.0646 163.076C82.3265 163.074 82.3265 162.673 82.0646 162.673Z" fill="#ADB9D1"/>
<path d="M88.6887 144.813C87.7356 144.813 87.7338 146.281 88.6887 146.281C89.6419 146.279 89.6437 144.813 88.6887 144.813Z" fill="#ADB9D1"/>
<path d="M75.0724 135.707C74.6106 135.707 74.6087 136.42 75.0724 136.42C75.5342 136.418 75.5361 135.707 75.0724 135.707Z" fill="#ADB9D1"/>
<path d="M95.4972 176.737C95.2629 176.737 95.2629 177.096 95.4972 177.096C95.7314 177.098 95.7314 176.737 95.4972 176.737Z" fill="#ADB9D1"/>
<path d="M119.233 179.199C118.879 179.199 118.879 179.742 119.233 179.742C119.586 179.742 119.586 179.199 119.233 179.199Z" fill="#ADB9D1"/>
<path d="M132.296 175.522H132.112C131.958 175.522 131.958 175.759 132.112 175.759H132.296C132.451 175.759 132.451 175.522 132.296 175.522Z" fill="#ADB9D1"/>
<path d="M150.697 175.247C150.422 175.247 150.422 175.668 150.697 175.668C150.971 175.67 150.971 175.247 150.697 175.247Z" fill="#ADB9D1"/>
<path d="M174.985 179.863C174.784 179.863 174.782 180.173 174.985 180.173C175.186 180.173 175.188 179.863 174.985 179.863Z" fill="#ADB9D1"/>
<path d="M167.441 155.133C166.625 155.133 166.624 156.39 167.441 156.39C168.256 156.388 168.258 155.133 167.441 155.133Z" fill="#ADB9D1"/>
<path d="M161.207 145.16C161.065 145.019 160.835 144.915 160.633 144.924C160.193 144.944 159.82 145.278 159.82 145.73V145.913C159.82 146.119 159.91 146.336 160.057 146.482C160.199 146.622 160.429 146.726 160.631 146.717C161.071 146.697 161.444 146.363 161.444 145.911V145.729C161.446 145.523 161.354 145.306 161.207 145.16Z" fill="#ADB9D1"/>
<path d="M131.377 146.451C131.13 146.451 131.13 146.83 131.377 146.83C131.624 146.83 131.624 146.451 131.377 146.451Z" fill="#ADB9D1"/>
<path d="M133.769 138.233C133.559 138.242 133.383 138.4 133.383 138.616V138.798C133.383 138.999 133.561 139.19 133.769 139.181C133.979 139.172 134.155 139.013 134.155 138.798V138.616C134.155 138.415 133.977 138.224 133.769 138.233Z" fill="#ADB9D1"/>
<path d="M103.776 134.685C103.646 134.685 103.646 134.888 103.776 134.888C103.907 134.886 103.907 134.685 103.776 134.685Z" fill="#ADB9D1"/>
<path d="M120.704 117.473C120.312 117.491 119.983 117.787 119.983 118.188V118.37C119.983 118.744 120.314 119.104 120.704 119.085C121.096 119.067 121.426 118.772 121.426 118.37V118.188C121.426 117.814 121.094 117.455 120.704 117.473Z" fill="#ADB9D1"/>
<path d="M131.745 119.386H131.561C131.46 119.386 131.46 119.543 131.561 119.543H131.745C131.847 119.543 131.847 119.386 131.745 119.386Z" fill="#ADB9D1"/>
<path d="M174.064 136.035C173.554 136.035 173.554 136.819 174.064 136.819C174.574 136.819 174.574 136.035 174.064 136.035Z" fill="#ADB9D1"/>
<path d="M145.544 145.012C144.14 145.012 144.138 147.175 145.544 147.175C146.948 147.175 146.95 145.012 145.544 145.012Z" fill="#ADB9D1"/>
<path d="M177.192 125.029C175.891 125.029 175.889 127.032 177.192 127.032C178.493 127.032 178.494 125.029 177.192 125.029Z" fill="#ADB9D1"/>
<path d="M176.641 110.896C175.699 110.896 175.697 112.348 176.641 112.348C177.583 112.348 177.585 110.896 176.641 110.896Z" fill="#ADB9D1"/>
<path d="M139.656 114.657C139.097 114.657 139.095 115.52 139.656 115.52C140.216 115.518 140.218 114.657 139.656 114.657Z" fill="#ADB9D1"/>
<path d="M136.055 106.619C135.995 106.559 135.932 106.497 135.871 106.437C135.709 106.276 135.468 106.178 135.24 106.178C135.021 106.178 134.76 106.275 134.609 106.437C134.453 106.605 134.337 106.827 134.348 107.062C134.359 107.298 134.438 107.518 134.609 107.688L134.793 107.87C134.955 108.031 135.196 108.129 135.424 108.129C135.643 108.129 135.904 108.033 136.055 107.87C136.212 107.703 136.328 107.48 136.317 107.245C136.306 107.01 136.227 106.789 136.055 106.619Z" fill="#ADB9D1"/>
<path d="M168.36 104.843C167.847 104.843 167.847 105.633 168.36 105.633C168.873 105.634 168.873 104.843 168.36 104.843Z" fill="#ADB9D1"/>
<path d="M156.032 93.2462C155.618 93.2462 155.618 93.8846 156.032 93.8846C156.446 93.8846 156.446 93.2462 156.032 93.2462Z" fill="#ADB9D1"/>
<path d="M146.281 82.573H146.096C146.034 82.573 146.034 82.6697 146.096 82.6697H146.281C146.344 82.6715 146.344 82.573 146.281 82.573Z" fill="#ADB9D1"/>
<path d="M148.9 71.088C148.735 70.9384 148.532 70.8436 148.304 70.8436H148.12C147.905 70.8436 147.677 70.9366 147.524 71.088C147.379 71.232 147.268 71.471 147.278 71.6789C147.287 71.8941 147.359 72.1184 147.524 72.2698C147.69 72.4194 147.892 72.5142 148.12 72.5142H148.304C148.52 72.5142 148.748 72.4212 148.9 72.2698C149.046 72.1257 149.156 71.8868 149.147 71.6789C149.136 71.4637 149.064 71.2393 148.9 71.088Z" fill="#ADB9D1"/>
<path d="M151.357 57.6349V57.8173C151.357 57.914 151.51 57.914 151.51 57.8173V57.6349C151.508 57.5383 151.357 57.5383 151.357 57.6349Z" fill="#ADB9D1"/>
<path d="M165.048 84.1873H164.934C164.125 84.1873 164.123 85.4348 164.934 85.4348H165.048C165.858 85.4348 165.86 84.1873 165.048 84.1873Z" fill="#ADB9D1"/>
<path d="M158.24 66.6796C156.96 66.6796 156.956 68.653 158.24 68.653C159.521 68.653 159.524 66.6796 158.24 66.6796Z" fill="#ADB9D1"/>
<path d="M174.064 58.3137C173.523 58.3137 173.523 59.1472 174.064 59.1472C174.605 59.1454 174.605 58.3137 174.064 58.3137Z" fill="#ADB9D1"/>
<path d="M147.384 45.977H147.2C146.968 45.977 146.725 46.0773 146.559 46.2397C146.403 46.3947 146.285 46.65 146.294 46.8744C146.317 47.3595 146.692 47.7717 147.2 47.7717H147.384C147.616 47.7717 147.858 47.6714 148.024 47.5091C148.18 47.354 148.298 47.0987 148.289 46.8744C148.267 46.3892 147.892 45.977 147.384 45.977Z" fill="#ADB9D1"/>
<path d="M167.624 34.8384H167.256C166.873 34.8384 166.505 35.1722 166.522 35.5661C166.54 35.9601 166.844 36.2939 167.256 36.2939H167.624C168.007 36.2939 168.375 35.9601 168.358 35.5661C168.34 35.1722 168.034 34.8384 167.624 34.8384Z" fill="#ADB9D1"/>
<path d="M178.664 38.1232C177.487 38.1232 177.485 39.938 178.664 39.938C179.842 39.9398 179.844 38.1232 178.664 38.1232Z" fill="#ADB9D1"/>
<path d="M179.032 29.4908C178.721 29.4908 178.721 29.9686 179.032 29.9686C179.343 29.9686 179.343 29.4908 179.032 29.4908Z" fill="#ADB9D1"/>
<path d="M172.73 6.6118C172.561 6.444 172.283 6.31815 172.04 6.32727C171.788 6.33822 171.525 6.42029 171.35 6.6118C171.175 6.80148 171.063 7.03494 171.063 7.29576V7.47815C171.063 7.72619 171.172 7.98701 171.35 8.1621C171.52 8.3299 171.797 8.45575 172.04 8.44663C172.292 8.43569 172.555 8.35361 172.73 8.1621C172.905 7.97242 173.017 7.73896 173.017 7.47815V7.29576C173.017 7.04771 172.909 6.78689 172.73 6.6118Z" fill="#ADB9D1"/>
<path d="M160.563 3.85952H160.449C159.067 3.85952 159.063 5.98982 160.449 5.98982H160.563C161.944 5.98982 161.948 3.85952 160.563 3.85952Z" fill="#ADB9D1"/>
<path d="M133.953 12.2858C132.619 12.2858 132.615 14.3413 133.953 14.3413C135.287 14.3431 135.291 12.2858 133.953 12.2858Z" fill="#ADB9D1"/>
<path d="M102.304 2.92411C101.837 2.92411 101.837 3.64272 102.304 3.64272C102.772 3.64272 102.772 2.92411 102.304 2.92411Z" fill="#ADB9D1"/>
<path d="M112.056 5.26398C111.313 5.26398 111.311 6.40938 112.056 6.40938C112.8 6.40938 112.802 5.26398 112.056 5.26398Z" fill="#ADB9D1"/>
<path d="M81.8808 4.26817C80.7915 4.26817 80.7897 5.94614 81.8808 5.94614C82.9701 5.94614 82.9719 4.26817 81.8808 4.26817Z" fill="#ADB9D1"/>
<path d="M71.2086 43.2647C70.7835 43.2647 70.7835 43.9176 71.2086 43.9176C71.6336 43.9176 71.6336 43.2647 71.2086 43.2647Z" fill="#ADB9D1"/>
<path d="M43.1665 26.3718C43.1611 26.3718 43.1611 26.379 43.1665 26.379C43.172 26.379 43.172 26.3718 43.1665 26.3718Z" fill="#515763"/>
<path d="M64.4224 5.8529L64.1464 5.57931C63.9992 5.4334 63.7306 5.42246 63.5852 5.57931C63.4399 5.73617 63.4288 5.98057 63.5852 6.1356C63.6772 6.22679 63.7692 6.31799 63.8612 6.40918C64.0084 6.55509 64.277 6.56603 64.4224 6.40918C64.5678 6.25233 64.5806 6.00793 64.4224 5.8529Z" fill="#515763"/>
<path d="M8.66847 24.7592H8.39247C8.11647 24.7592 7.85335 24.9999 7.86623 25.2808C7.87911 25.5635 8.09807 25.8025 8.39247 25.8025H8.66847C8.94447 25.8025 9.20759 25.5617 9.19471 25.2808C9.18183 24.9981 8.96471 24.7592 8.66847 24.7592Z" fill="#515763"/>
<path d="M20.2601 56.2795C19.307 56.2795 19.3052 57.7496 20.2601 57.7496C21.2133 57.7496 21.2151 56.2795 20.2601 56.2795Z" fill="#515763"/>
<path d="M6.51525 93.1677H6.43981C5.45173 93.1677 5.44989 94.6907 6.43981 94.6907H6.51525C7.50517 94.6925 7.50701 93.1677 6.51525 93.1677Z" fill="#515763"/>
<path d="M52.6236 124.94H52.4396C52.2482 124.94 52.0661 125.106 52.0753 125.301C52.0845 125.498 52.2353 125.662 52.4396 125.662H52.6236C52.8149 125.662 52.9971 125.496 52.9879 125.301C52.9805 125.104 52.8278 124.94 52.6236 124.94Z" fill="#515763"/>
<path d="M11.224 140.056C11.0142 140.065 10.8376 140.224 10.8376 140.439V140.622C10.8376 140.822 11.016 141.014 11.224 141.005C11.4337 140.996 11.6104 140.837 11.6104 140.622V140.439C11.6104 140.239 11.4337 140.047 11.224 140.056Z" fill="#515763"/>
<path d="M49.4965 134.351C48.9316 134.351 48.9316 135.221 49.4965 135.221C50.0613 135.219 50.0613 134.351 49.4965 134.351Z" fill="#515763"/>
<path d="M20.7913 178.161C20.5116 178.161 20.5116 178.591 20.7913 178.591C21.0709 178.591 21.0709 178.161 20.7913 178.161Z" fill="#515763"/>
<path d="M62.5602 131.035C61.7174 131.035 61.7156 132.332 62.5602 132.332C63.4029 132.334 63.4047 131.035 62.5602 131.035Z" fill="#515763"/>
<path d="M106.72 176.8C106.332 176.8 106.33 177.4 106.72 177.4C107.108 177.399 107.11 176.8 106.72 176.8Z" fill="#515763"/>
<path d="M169.464 167.059C169.334 167.059 169.273 167.164 169.28 167.265C169.247 167.232 169.214 167.199 169.181 167.166C169.072 167.059 168.903 167.226 169.012 167.334L169.196 167.516C169.28 167.6 169.398 167.518 169.398 167.429C169.418 167.436 169.439 167.442 169.464 167.442C169.713 167.442 169.713 167.059 169.464 167.059Z" fill="#515763"/>
<path d="M117.392 130.824C116.512 130.824 116.511 132.179 117.392 132.179C118.271 132.181 118.273 130.824 117.392 130.824Z" fill="#515763"/>
<path d="M151.432 122.357C151.399 122.357 151.399 122.406 151.432 122.406C151.466 122.407 151.466 122.357 151.432 122.357Z" fill="#515763"/>
<path d="M164.68 114.086C163.853 114.086 163.852 115.357 164.68 115.357C165.506 115.359 165.508 114.086 164.68 114.086Z" fill="#515763"/>
<path d="M179.952 82.3886C179.174 82.3886 179.174 83.5869 179.952 83.5869C180.73 83.5851 180.73 82.3886 179.952 82.3886Z" fill="#515763"/>
<path d="M164.496 57.3668C164.15 57.3814 163.858 57.644 163.858 57.9997V58.1821C163.858 58.5122 164.15 58.8295 164.496 58.815C164.842 58.8004 165.135 58.5377 165.135 58.1821V57.9997C165.135 57.6695 164.84 57.3522 164.496 57.3668Z" fill="#515763"/>
<path d="M146.832 28.0697C146.572 28.0697 146.572 28.4691 146.832 28.4691C147.092 28.4709 147.092 28.0697 146.832 28.0697Z" fill="#515763"/>
<path d="M180.688 10.9087C180.643 10.9087 180.643 10.9759 180.688 10.9759C180.734 10.9777 180.734 10.9087 180.688 10.9087Z" fill="#515763"/>
<path d="M118.128 10.752C118.116 10.752 118.116 10.7711 118.128 10.7711C118.14 10.7694 118.14 10.752 118.128 10.752Z" fill="#515763"/>
<path d="M104.88 9.56809C104.527 9.5845 104.229 9.85079 104.229 10.2137V10.3961C104.229 10.7335 104.529 11.0564 104.88 11.0418C105.234 11.0254 105.532 10.7591 105.532 10.3961V10.2137C105.532 9.87632 105.232 9.5535 104.88 9.56809Z" fill="#515763"/>
<path d="M72.6988 28.7009C71.455 28.7009 71.4532 30.616 72.6988 30.616C73.9408 30.616 73.9445 28.7009 72.6988 28.7009Z" fill="#F2E3B5"/>
<path d="M45.2867 25.6421C45.1045 25.4616 44.8083 25.3266 44.547 25.3394C44.2765 25.3521 43.9969 25.4397 43.8073 25.6421C43.6197 25.8446 43.5019 26.0945 43.5019 26.3753V26.6489C43.5019 26.9152 43.6178 27.1943 43.8073 27.3821C43.9895 27.5627 44.2857 27.6976 44.547 27.6849C44.8175 27.6721 45.0972 27.5846 45.2867 27.3821C45.4744 27.1797 45.5921 26.9298 45.5921 26.6489V26.3753C45.5921 26.109 45.4762 25.83 45.2867 25.6421Z" fill="#F2E3B5"/>
<path d="M45.0993 11.4323C44.8798 11.4323 44.878 11.7716 45.0993 11.7716C45.3206 11.7716 45.3206 11.4323 45.0993 11.4323Z" fill="#F2E3B5"/>
<path d="M41.5103 2.65021C40.8995 2.65021 40.8976 3.59316 41.5103 3.59316C42.1231 3.59316 42.1231 2.65021 41.5103 2.65021Z" fill="#F2E3B5"/>
<path d="M25.2287 23.1963H24.9527C24.719 23.1963 24.4964 23.4005 24.5074 23.6376C24.5185 23.8766 24.7043 24.0808 24.9527 24.0808H25.2287C25.4624 24.0808 25.685 23.8766 25.674 23.6376C25.663 23.4005 25.479 23.1963 25.2287 23.1963Z" fill="#F2E3B5"/>
<path d="M4.25216 37.5576C4.08472 37.5649 3.9412 37.6925 3.9412 37.8658V38.1394C3.9412 38.2999 4.08472 38.4549 4.25216 38.4476C4.4196 38.4403 4.56312 38.3127 4.56312 38.1394V37.8658C4.56312 37.7035 4.42144 37.5503 4.25216 37.5576Z" fill="#F2E3B5"/>
<path d="M6.73691 57.5184C5.96963 57.5184 5.96779 58.7003 6.73691 58.7003C7.50419 58.7003 7.50603 57.5184 6.73691 57.5184Z" fill="#F2E3B5"/>
<path d="M32.9565 58.8057H32.6805C32.4707 58.8057 32.2683 58.9881 32.2793 59.2033C32.2885 59.4185 32.456 59.6009 32.6805 59.6009H32.9565C33.1662 59.6009 33.3686 59.4185 33.3576 59.2033C33.3484 58.9881 33.1809 58.8057 32.9565 58.8057Z" fill="#F2E3B5"/>
<path d="M30.1962 90.6271C29.4382 90.6271 29.4363 91.7944 30.1962 91.7944C30.9543 91.7944 30.9562 90.6271 30.1962 90.6271Z" fill="#F2E3B5"/>
<path d="M19.9841 95.581C19.2647 95.581 19.2628 96.6899 19.9841 96.6899C20.7036 96.6899 20.7054 95.581 19.9841 95.581Z" fill="#F2E3B5"/>
<path d="M7.67304 110.861C7.60128 110.644 7.46512 110.427 7.25352 110.32C7.09896 110.241 6.93704 110.179 6.7604 110.186C6.51936 110.197 6.26728 110.281 6.098 110.46C5.90848 110.661 5.81832 110.898 5.80912 111.168C5.79992 111.418 5.914 111.706 6.09984 111.875C6.42736 112.173 6.86528 112.224 7.25536 112.016C7.45408 111.91 7.616 111.686 7.67488 111.474C7.6988 111.388 7.70432 111.292 7.70064 111.195C7.71352 111.082 7.708 110.969 7.67304 110.861Z" fill="#F2E3B5"/>
<path d="M41.9523 97.4887C41.3616 97.4887 41.3616 98.397 41.9523 98.397C42.5429 98.397 42.5429 97.4887 41.9523 97.4887Z" fill="#F2E3B5"/>
<path d="M31.8323 142.092C31.3723 142.092 31.3704 142.801 31.8323 142.801C32.2923 142.799 32.2941 142.092 31.8323 142.092Z" fill="#F2E3B5"/>
<path d="M19.1177 147.935C18.987 147.806 18.7718 147.708 18.5841 147.717C18.1756 147.735 17.8278 148.045 17.8278 148.466V148.649C17.8278 148.84 17.9125 149.043 18.0486 149.178C18.1793 149.307 18.3946 149.406 18.5822 149.396C18.9907 149.378 19.3385 149.068 19.3385 148.647V148.464C19.3403 148.273 19.2557 148.07 19.1177 147.935Z" fill="#F2E3B5"/>
<path d="M6.25652 150.956C5.2298 150.956 5.22796 152.537 6.25652 152.537C7.28324 152.539 7.28508 150.956 6.25652 150.956Z" fill="#F2E3B5"/>
<path d="M36.6164 148.466C35.908 148.466 35.908 149.557 36.6164 149.557C37.3248 149.557 37.3248 148.466 36.6164 148.466Z" fill="#F2E3B5"/>
<path d="M1.84042 163.172H1.65642C1.4301 163.172 1.21114 163.369 1.22218 163.603C1.23322 163.836 1.41354 164.033 1.65642 164.033H1.84042C2.06674 164.033 2.2857 163.836 2.27466 163.603C2.26362 163.369 2.0833 163.172 1.84042 163.172Z" fill="#F2E3B5"/>
<path d="M6.62455 178.993C6.477 178.993 6.477 179.219 6.62455 179.219C6.77211 179.219 6.77211 178.993 6.62455 178.993Z" fill="#F2E3B5"/>
<path d="M32.0156 172.912C31.079 172.912 31.0772 174.355 32.0156 174.355C32.9521 174.357 32.954 172.912 32.0156 172.912Z" fill="#F2E3B5"/>
<path d="M48.392 176.623C47.5364 176.623 47.5364 177.94 48.392 177.94C49.2475 177.94 49.2475 176.623 48.392 176.623Z" fill="#F2E3B5"/>
<path d="M63.1119 142.263C61.9287 142.263 61.9269 144.085 63.1119 144.085C64.295 144.087 64.2968 142.263 63.1119 142.263Z" fill="#F2E3B5"/>
<path d="M80.0037 178.376V178.741C80.0037 179.022 80.4435 179.022 80.4435 178.741V178.376C80.4454 178.095 80.0037 178.095 80.0037 178.376Z" fill="#F2E3B5"/>
<path d="M73.4167 146.196H73.2322C73.1271 146.196 73.1271 146.356 73.2322 146.356H73.4167C73.5218 146.356 73.5218 146.196 73.4167 146.196Z" fill="#F2E3B5"/>
<path d="M75.8081 168.569C74.9157 168.569 74.9139 169.943 75.8081 169.943C76.7005 169.944 76.7024 168.569 75.8081 168.569Z" fill="#F2E3B5"/>
<path d="M80.408 154.19C80.2642 154.19 80.2642 154.411 80.408 154.411C80.5519 154.412 80.5519 154.19 80.408 154.19Z" fill="#F2E3B5"/>
<path d="M103.04 145.026C101.656 145.026 101.655 147.159 103.04 147.159C104.424 147.16 104.426 145.026 103.04 145.026Z" fill="#F2E3B5"/>
<path d="M141.312 178.71C140.562 178.71 140.56 179.866 141.312 179.866C142.063 179.866 142.065 178.71 141.312 178.71Z" fill="#F2E3B5"/>
<path d="M161.92 176.964H161.552C161.287 176.964 161.035 177.194 161.048 177.464C161.061 177.736 161.27 177.964 161.552 177.964H161.92C162.185 177.964 162.437 177.734 162.424 177.464C162.413 177.192 162.203 176.964 161.92 176.964Z" fill="#F2E3B5"/>
<path d="M178.296 162.144C177.111 162.144 177.109 163.969 178.296 163.969C179.481 163.968 179.483 162.144 178.296 162.144Z" fill="#F2E3B5"/>
<path d="M179.032 147.2H178.848C178.615 147.2 178.372 147.301 178.206 147.465C178.048 147.622 177.93 147.877 177.94 148.101C177.962 148.588 178.339 149 178.847 149H179.031C179.264 149 179.507 148.9 179.673 148.736C179.831 148.579 179.949 148.324 179.94 148.099C179.918 147.612 179.542 147.2 179.032 147.2Z" fill="#F2E3B5"/>
<path d="M117.392 145.132C116.619 145.132 116.617 146.323 117.392 146.323C118.165 146.325 118.167 145.132 117.392 145.132Z" fill="#F2E3B5"/>
<path d="M124.584 128.037V128.219C124.584 128.435 124.923 128.435 124.923 128.219V128.037C124.923 127.822 124.584 127.822 124.584 128.037Z" fill="#F2E3B5"/>
<path d="M137.817 123.787C136.799 123.787 136.797 125.354 137.817 125.354C138.834 125.356 138.836 123.787 137.817 123.787Z" fill="#F2E3B5"/>
<path d="M151.512 123.946C151.451 123.886 151.389 123.824 151.328 123.764C151.166 123.603 150.927 123.505 150.697 123.505C150.478 123.505 150.217 123.601 150.066 123.764C149.909 123.931 149.793 124.154 149.805 124.389C149.816 124.623 149.895 124.845 150.066 125.015C150.127 125.075 150.189 125.137 150.25 125.197C150.412 125.358 150.651 125.456 150.881 125.456C151.1 125.456 151.361 125.36 151.512 125.197C151.668 125.029 151.784 124.807 151.773 124.572C151.762 124.338 151.681 124.116 151.512 123.946Z" fill="#F2E3B5"/>
<path d="M163.577 122.886C163.045 122.886 163.045 123.705 163.577 123.705C164.108 123.704 164.108 122.886 163.577 122.886Z" fill="#F2E3B5"/>
<path d="M154.561 105.448C154.377 105.455 154.22 105.596 154.22 105.786V105.968C154.22 106.145 154.377 106.313 154.561 106.305C154.745 106.298 154.901 106.158 154.901 105.968V105.786C154.901 105.609 154.745 105.441 154.561 105.448Z" fill="#F2E3B5"/>
<path d="M144.073 97.1987C143.344 97.1987 143.342 98.3204 144.073 98.3204C144.801 98.3222 144.803 97.1987 144.073 97.1987Z" fill="#F2E3B5"/>
<path d="M182.16 99.7758C181.461 99.7758 181.461 100.852 182.16 100.852C182.859 100.852 182.859 99.7758 182.16 99.7758Z" fill="#F2E3B5"/>
<path d="M154.454 81.9985C154.393 81.9383 154.331 81.8763 154.27 81.8161C154.134 81.6811 153.883 81.6702 153.749 81.8161C153.615 81.962 153.604 82.1882 153.749 82.3323L153.933 82.5146C154.069 82.6496 154.32 82.6606 154.454 82.5146C154.588 82.3706 154.599 82.1444 154.454 81.9985Z" fill="#F2E3B5"/>
<path d="M169.096 73.417C168.749 73.417 168.747 73.9532 169.096 73.9532C169.444 73.9532 169.446 73.417 169.096 73.417Z" fill="#F2E3B5"/>
<path d="M176.641 68.5909C176.349 68.6037 176.102 68.8262 176.102 69.1253V69.3077C176.102 69.5868 176.35 69.8549 176.641 69.8421C176.934 69.8293 177.18 69.6068 177.18 69.3077V69.1253C177.18 68.8463 176.932 68.5782 176.641 68.5909Z" fill="#F2E3B5"/>
<path d="M154.377 39.4509C154.184 39.46 154.018 39.6059 154.018 39.8065V39.8977C154.018 40.0838 154.182 40.2607 154.377 40.2534C154.57 40.2443 154.736 40.0983 154.736 39.8977V39.8065C154.736 39.6205 154.57 39.4436 154.377 39.4509Z" fill="#F2E3B5"/>
<path d="M143.889 35.5642C143.647 35.5642 143.647 35.9345 143.889 35.9345C144.13 35.9327 144.13 35.5642 143.889 35.5642Z" fill="#F2E3B5"/>
<path d="M178.48 19.4262H178.296C178.057 19.4262 177.825 19.636 177.838 19.8804C177.849 20.1266 178.04 20.3345 178.296 20.3345H178.48C178.719 20.3345 178.951 20.1248 178.938 19.8804C178.927 19.6342 178.738 19.4262 178.48 19.4262Z" fill="#F2E3B5"/>
<path d="M181.425 12.9899C180.293 12.9899 180.291 14.7335 181.425 14.7335C182.556 14.7335 182.558 12.9899 181.425 12.9899Z" fill="#F2E3B5"/>
<path d="M180.321 1.80577C180.059 1.80577 180.059 2.20885 180.321 2.20885C180.583 2.20703 180.583 1.80577 180.321 1.80577Z" fill="#F2E3B5"/>
<path d="M141.785 4.38845C141.737 4.34468 141.678 4.31732 141.612 4.31732H141.566C141.503 4.31732 141.437 4.34468 141.393 4.38845C141.35 4.4304 141.317 4.49971 141.321 4.5599C141.325 4.62374 141.345 4.68757 141.393 4.73134C141.441 4.77512 141.5 4.80248 141.566 4.80248H141.612C141.674 4.80248 141.741 4.77512 141.785 4.73134C141.827 4.6894 141.86 4.62009 141.856 4.5599C141.853 4.49606 141.833 4.43223 141.785 4.38845Z" fill="#F2E3B5"/>
<path d="M127.328 2.47682C126.283 2.47682 126.282 4.08731 127.328 4.08731C128.374 4.08914 128.375 2.47682 127.328 2.47682Z" fill="#F2E3B5"/>
<path d="M117.209 11.0692C116.187 11.0692 116.186 12.6413 117.209 12.6413C118.23 12.6413 118.232 11.0692 117.209 11.0692Z" fill="#F2E3B5"/>
<path d="M94.2082 11.288C93.9445 11.288 93.9426 11.6948 94.2082 11.6948C94.472 11.6929 94.4738 11.288 94.2082 11.288Z" fill="#F2E3B5"/>
<path d="M72.8646 45.8963C72.78 45.8963 72.78 46.0251 72.8646 46.0251C72.9492 46.0269 72.9492 45.8963 72.8646 45.8963Z" fill="#F2E3B5"/>
<path d="M179.032 172.957C178.39 172.957 178.39 173.946 179.032 173.946C179.674 173.946 179.674 172.957 179.032 172.957Z" fill="#F2E3B5"/>
</svg>
