<svg width="11" height="12" viewBox="0 0 11 12" fill="none" xmlns="http://www.w3.org/2000/svg">
<path d="M2.50637 0.222012C1.39178 -0.409384 0 0.381284 0 1.64408V10.3528C0 11.6213 1.39178 12.4119 2.50637 11.7749L10.1641 7.42334C11.2786 6.79195 11.2786 5.21061 10.1641 4.57353M2.50637 0.222012L2.25934 0.656727L2.25962 0.65689C1.46523 0.207152 0.5 0.779528 0.5 1.64408V10.3528C0.5 11.2248 1.46603 11.7936 2.25824 11.3408L2.25934 11.3401L9.91703 6.98863L9.91761 6.9883C10.6924 6.54938 10.6962 5.45414 9.91651 5.00795L9.91703 5.00824L10.1641 4.57353M2.50637 0.222012L10.1641 4.57353M2.50637 0.222012L2.25992 0.657057L9.91594 5.00762L10.1641 4.57353" fill="#A1A4B2" stroke="#A1A4B2"/>
</svg>
