<svg width="24" height="13" viewBox="0 0 24 13" fill="none" xmlns="http://www.w3.org/2000/svg">
<path d="M11.0131 10.5436V12.3009H0C0.0153599 10.4747 1.19807 8.95287 3.54814 7.73542C4.28542 7.36789 5.01501 7.00035 5.73693 6.63282C6.56636 6.19638 7.18844 5.7829 7.60316 5.3924C8.1254 4.88704 8.39419 4.34723 8.40955 3.77296C8.42491 3.22166 8.25596 2.7565 7.90268 2.37748C7.44188 1.88361 6.7046 1.63667 5.69085 1.63667C3.92446 1.63667 3.00286 2.64164 2.92606 4.65159H0.299518C0.299518 3.27334 0.775676 2.165 1.72799 1.32656C2.72639 0.442188 4.1011 0 5.85213 0C7.63388 0 8.99323 0.42496 9.93019 1.27488C10.6675 1.95252 11.0361 2.76224 11.0361 3.70404C11.0361 5.16269 9.83803 6.51797 7.44188 7.76988C6.551 8.21781 5.66013 8.66574 4.76925 9.11367C3.89374 9.61903 3.35614 10.0957 3.15646 10.5436H11.0131Z" fill="#A4A7B5"/>
<path d="M18.309 10.9915C19.1998 10.9915 19.9294 10.7905 20.4977 10.3885C21.0814 9.98656 21.3733 9.441 21.3733 8.75188C21.3733 8.09721 21.0814 7.58037 20.4977 7.20135C19.9294 6.82233 19.1998 6.63282 18.309 6.63282C17.4181 6.63282 16.6808 6.82233 16.0971 7.20135C15.5288 7.58037 15.2447 8.09721 15.2447 8.75188C15.2447 9.441 15.5288 9.98656 16.0971 10.3885C16.6808 10.7905 17.4181 10.9915 18.309 10.9915ZM18.309 12.5421C16.6347 12.5421 15.2677 12.2032 14.2079 11.5256C13.148 10.8365 12.6181 9.9119 12.6181 8.75188C12.6181 8.00533 12.8792 7.37363 13.4015 6.85679C13.9391 6.32846 14.661 5.97815 15.5672 5.80587V5.78864C14.0466 5.34071 13.2863 4.50802 13.2863 3.29057C13.2863 2.25688 13.724 1.4529 14.5995 0.878633C15.4751 0.292877 16.7115 0 18.309 0C19.9064 0 21.1429 0.292877 22.0184 0.878633C22.8939 1.4529 23.3317 2.25688 23.3317 3.29057C23.3317 4.50802 22.5713 5.34071 21.0507 5.78864V5.80587C21.9569 5.97815 22.6712 6.32846 23.1934 6.85679C23.731 7.37363 23.9998 8.00533 23.9998 8.75188C23.9998 9.9119 23.4699 10.8365 22.4101 11.5256C21.3502 12.2032 19.9832 12.5421 18.309 12.5421ZM18.309 1.55053C17.5717 1.55053 16.965 1.71707 16.4888 2.05014C16.0127 2.37174 15.7746 2.81967 15.7746 3.39394C15.7746 3.94524 16.005 4.38168 16.4658 4.70327C16.9419 5.01338 17.5563 5.16843 18.309 5.16843C19.0616 5.16843 19.6683 5.01338 20.1291 4.70327C20.6053 4.38168 20.8433 3.94524 20.8433 3.39394C20.8433 2.81967 20.6053 2.37174 20.1291 2.05014C19.653 1.71707 19.0462 1.55053 18.309 1.55053Z" fill="#A4A7B5"/>
</svg>
