<svg width="45" height="91" viewBox="0 0 45 91" fill="none" xmlns="http://www.w3.org/2000/svg">
<path d="M21.2541 90.9981C32.9816 90.9981 42.4886 88.7821 42.4886 86.0485C42.4886 83.3149 32.9816 81.0988 21.2541 81.0988C9.52656 81.0988 0.0195314 83.3149 0.0195314 86.0485C0.0195314 88.7821 9.52656 90.9981 21.2541 90.9981Z" fill="#F4A17C"/>
<path d="M22.4786 90.9999C34.8932 90.9999 44.9572 88.7908 44.9572 86.0656C44.9572 83.3405 34.8932 81.1313 22.4786 81.1313C10.064 81.1313 0 83.3405 0 86.0656C0 88.7908 10.064 90.9999 22.4786 90.9999Z" fill="#F4A17C"/>
<path d="M12.3315 82.6075C12.3315 82.6075 9.18257 84.2471 8.58955 85.0964C7.99654 85.9457 8.78636 86.6206 9.9698 86.7027C11.1532 86.7848 16.0242 85.1606 16.4645 84.9502C16.9073 84.7398 16.5862 83.4645 16.2651 82.8076C15.9465 82.1482 12.3315 82.6075 12.3315 82.6075Z" fill="#E49621"/>
<path d="M10.0603 86.8336C10.0241 86.8336 9.9904 86.8336 9.95932 86.831C9.17468 86.7771 8.55577 86.4667 8.34084 86.0253C8.23725 85.8098 8.1751 85.4608 8.48067 85.0246C9.08664 84.1599 12.1397 82.5639 12.2692 82.4946C12.2822 82.4869 12.2977 82.4818 12.3132 82.4818C12.9322 82.4023 16.0371 82.0482 16.3789 82.7512C16.5576 83.1182 16.7129 83.6185 16.7751 84.0265C16.8605 84.5935 16.7751 84.9425 16.5161 85.0657C16.0811 85.2735 11.4302 86.8336 10.0603 86.8336ZM12.3702 82.7307C12.0983 82.8744 9.23942 84.3883 8.69302 85.1683C8.50398 85.4377 8.46514 85.6892 8.5739 85.9124C8.7474 86.2716 9.28603 86.5257 9.97745 86.5744C11.1428 86.6591 15.9697 85.0426 16.4074 84.8347C16.542 84.7706 16.5861 84.4832 16.5213 84.065C16.4643 83.6801 16.3167 83.208 16.1484 82.8616C15.9568 82.4664 13.8333 82.5485 12.3702 82.7307Z" fill="#3F4553"/>
<path d="M16.6268 83.9084C15.3786 84.4498 11.9345 85.9098 10.7458 86.0612C9.77734 86.1844 8.88652 85.8226 8.3945 85.5634C8.31423 86.1818 9.01341 86.636 9.96897 86.7027C11.1524 86.7848 16.0234 85.1606 16.4636 84.9502C16.7071 84.8321 16.7174 84.3908 16.6268 83.9084Z" fill="#F1BD54"/>
<path d="M10.0598 86.8338C10.0235 86.8338 9.98984 86.8338 9.95877 86.8312C9.29583 86.785 8.75202 86.5618 8.46717 86.2179C8.30403 86.0204 8.23411 85.7894 8.26259 85.5482C8.26777 85.5072 8.29367 85.4687 8.33251 85.4507C8.36877 85.4302 8.41538 85.4302 8.45163 85.4507C8.89445 85.6842 9.78009 86.0563 10.7279 85.9357C11.9139 85.7843 15.5005 84.2576 16.5726 83.7932C16.6088 83.7778 16.6502 83.7778 16.6839 83.7983C16.7176 83.8163 16.7435 83.8496 16.7512 83.8881C16.8729 84.527 16.7927 84.935 16.5182 85.0658C16.0805 85.2737 11.4296 86.8338 10.0598 86.8338ZM8.52673 85.774C8.54745 85.8741 8.59406 85.9665 8.66657 86.0563C8.90222 86.3411 9.39165 86.5335 9.9743 86.5746C11.1396 86.6593 15.9666 85.0428 16.4042 84.8349C16.5363 84.7708 16.5777 84.4937 16.5233 84.0934C15.0602 84.7246 11.9035 86.0435 10.7589 86.1897C9.87072 86.3 9.03688 86.0127 8.52673 85.774Z" fill="#3F4553"/>
<path d="M27.5815 82.6075C27.5815 82.6075 30.7304 84.2471 31.3234 85.0964C31.9165 85.9457 31.1266 86.6206 29.9432 86.7027C28.7598 86.7848 23.8888 85.1606 23.4485 84.9502C23.0057 84.7398 23.3268 83.4645 23.6479 82.8076C23.969 82.1482 27.5815 82.6075 27.5815 82.6075Z" fill="#E49621"/>
<path d="M29.8552 86.8336C28.4828 86.8336 23.8345 85.2735 23.3942 85.0657C23.1379 84.9425 23.0498 84.5936 23.1353 84.0265C23.1974 83.6185 23.3528 83.1182 23.5315 82.7513C23.8733 82.0456 26.9782 82.4023 27.5971 82.4819C27.6127 82.4844 27.6282 82.4895 27.6412 82.4947C27.7706 82.5614 30.8263 84.1574 31.4297 85.0247C31.7353 85.4609 31.6757 85.8098 31.5696 86.0254C31.3546 86.4693 30.7357 86.7772 29.9511 86.831C29.9226 86.831 29.8889 86.8336 29.8552 86.8336ZM25.2743 82.5794C24.4896 82.5794 23.8655 82.6563 23.7646 82.8616C23.5962 83.208 23.4486 83.6801 23.3917 84.065C23.3269 84.4832 23.3709 84.7706 23.5056 84.8348C23.9329 85.04 28.5449 86.5796 29.8449 86.5796C29.8786 86.5796 29.907 86.5796 29.9355 86.577C30.6269 86.5283 31.163 86.2743 31.3391 85.915C31.4478 85.6918 31.4064 85.4403 31.22 85.1709C30.6761 84.3909 27.8147 82.877 27.5428 82.7333C26.8436 82.6435 25.9916 82.5794 25.2743 82.5794Z" fill="#3F4553"/>
<path d="M23.2878 83.9084C24.536 84.4498 27.9801 85.9098 29.1687 86.0612C30.1372 86.1844 31.028 85.8226 31.52 85.5634C31.6003 86.1818 30.9011 86.636 29.9456 86.7027C28.7621 86.7848 23.8912 85.1606 23.4509 84.9502C23.2049 84.8321 23.1946 84.3908 23.2878 83.9084Z" fill="#F1BD54"/>
<path d="M29.8549 86.8336C28.4824 86.8336 23.8341 85.2735 23.3939 85.0657C23.1194 84.9349 23.0391 84.5269 23.1608 83.888C23.1686 83.8495 23.1919 83.8161 23.2281 83.7982C23.2644 83.7802 23.3032 83.7776 23.3395 83.793C24.4116 84.2575 28.0007 85.7842 29.1842 85.9356C30.132 86.0562 31.0176 85.6841 31.4604 85.4506C31.4993 85.4301 31.5433 85.4301 31.5795 85.4506C31.6184 85.4711 31.6443 85.507 31.6494 85.5481C31.6805 85.7893 31.6106 86.0202 31.4449 86.2178C31.16 86.5616 30.6162 86.7849 29.9533 86.8311C29.9222 86.8311 29.8885 86.8336 29.8549 86.8336ZM23.3887 84.0932C23.3317 84.4935 23.3757 84.7706 23.5078 84.8348C23.9351 85.0401 28.5471 86.577 29.8471 86.5796C29.8808 86.5796 29.9092 86.5796 29.9377 86.577C30.5204 86.536 31.0098 86.341 31.2455 86.0587C31.318 85.9715 31.3646 85.8765 31.3853 85.7765C30.8777 86.0151 30.0465 86.305 29.1505 86.1921C28.0059 86.0433 24.8518 84.7245 23.3887 84.0932Z" fill="#3F4553"/>
<path d="M13.8899 50.5005C13.8899 50.5005 11.0232 62.7912 10.6244 64.5463C10.2256 66.3014 9.93297 68.2745 10.3991 69.4549C10.8652 70.6352 12.3594 82.2177 12.3594 82.2177L16.6529 83.3775C16.6529 83.3775 16.7073 75.9364 16.5649 73.0112C16.4225 70.0861 16.2567 66.3886 16.2567 66.3886L20.8196 55.1217L21.5731 56.1096L24.9888 66.209L22.9793 83.1363L27.063 82.0766C27.063 82.0766 30.5719 71.31 31.1442 69.07C31.7139 66.8299 31.9884 65.3238 31.543 64.2948C31.0976 63.2659 28.2076 51.7835 28.2076 51.7835L13.8899 50.5005Z" fill="#3F4553"/>
<path d="M16.6504 83.5031C16.64 83.5031 16.6271 83.5005 16.6167 83.498L12.3232 82.3382C12.274 82.3254 12.2351 82.2817 12.23 82.2304C12.2144 82.115 10.7306 70.6505 10.2774 69.4984C9.88897 68.5105 9.95889 66.8812 10.4975 64.5154C10.8911 62.7809 13.7345 50.5928 13.763 50.4696C13.7785 50.4081 13.8355 50.3644 13.9002 50.3696L28.2128 51.6525C28.2672 51.6577 28.3138 51.6962 28.3268 51.75C28.3553 51.8655 31.2193 63.235 31.657 64.2409C32.105 65.2724 31.8641 66.7426 31.2634 69.0981C30.6988 71.3176 27.2159 82.0046 27.1822 82.1124C27.1692 82.1534 27.1356 82.1868 27.0916 82.1971L23.0078 83.2568C22.9664 83.267 22.9223 83.2568 22.8887 83.2286C22.855 83.2003 22.8395 83.1593 22.8446 83.1157L24.8516 66.2192L21.4514 56.166L20.8481 55.3757L16.3862 66.409C16.4018 66.7529 16.5571 70.2245 16.6944 73.0034C16.8368 75.8978 16.7824 83.303 16.7824 83.3774C16.7824 83.4184 16.7643 83.4544 16.7306 83.4775C16.7073 83.4954 16.6788 83.5031 16.6504 83.5031ZM12.476 82.1149L16.5235 83.208C16.5312 82.0893 16.5649 75.6591 16.4354 73.0137C16.293 70.0886 16.1273 66.3911 16.1273 66.3911C16.1273 66.3731 16.1299 66.3552 16.1376 66.3372L20.7005 55.0703C20.7186 55.0267 20.7574 54.9959 20.8041 54.9908C20.8533 54.9856 20.8973 55.0036 20.9258 55.0421L21.6793 56.03C21.6871 56.0402 21.6949 56.0531 21.6975 56.0659L25.1131 66.1653C25.1183 66.1833 25.1209 66.2012 25.1183 66.2217L23.1295 82.9617L26.9621 81.9661C27.2599 81.0527 30.4787 71.1534 31.0174 69.034C31.6026 66.7349 31.8408 65.3031 31.4239 64.3409C30.9941 63.3531 28.3941 53.0484 28.1041 51.8989L13.9935 50.6339C13.7086 51.8578 11.1268 62.9246 10.7539 64.5693C10.2282 66.8837 10.1531 68.4643 10.5234 69.4035C10.9688 70.5479 12.3284 80.9783 12.476 82.1149Z" fill="#3F4553"/>
<path d="M24.3541 80.5651C24.3489 80.5651 24.3437 80.5651 24.3386 80.5651C24.2686 80.5574 24.2169 80.4933 24.2246 80.4214C24.2402 80.2982 25.7188 68.0794 25.7965 67.3969C25.8379 67.0479 25.8483 66.9427 26.0891 66.9299C26.2031 66.9248 26.4439 66.9119 26.9722 66.5604C27.0991 66.4757 27.1819 66.4141 27.2337 66.3731C27.1638 66.3731 27.0758 66.3757 27.0007 66.3782C26.6795 66.3885 26.2393 66.4039 25.926 66.2679C25.1983 65.9523 23.2768 59.5888 22.8988 58.3136C22.878 58.2469 22.9169 58.175 22.9868 58.1545C23.0541 58.134 23.1266 58.1725 23.1474 58.2418C24.2272 61.8802 25.6049 65.8471 26.0296 66.0318C26.2911 66.1447 26.6977 66.1319 26.9929 66.1216C27.3321 66.1114 27.5212 66.1037 27.573 66.2576C27.617 66.3911 27.5108 66.5117 27.1198 66.7734C26.5319 67.166 26.2445 67.1813 26.1047 67.1865C26.0995 67.1865 26.0943 67.1865 26.0891 67.1865C26.0788 67.2327 26.0684 67.3225 26.058 67.4251C25.9804 68.1102 24.4991 80.329 24.4836 80.4522C24.4758 80.5163 24.4188 80.5651 24.3541 80.5651Z" fill="#4E5567"/>
<path d="M16.4017 77.8814C16.337 77.8814 16.28 77.8327 16.2722 77.7685L16.1635 76.8525C16.1557 76.7832 16.2075 76.7191 16.2774 76.7114C16.3473 76.7037 16.4121 76.755 16.4198 76.8243L16.5286 77.7403C16.5364 77.8096 16.4846 77.8737 16.4146 77.8814C16.4121 77.8814 16.4069 77.8814 16.4017 77.8814Z" fill="#4E5567"/>
<path d="M16.1351 75.5976C16.0703 75.5976 16.0134 75.5488 16.0056 75.4847L15.0397 67.2661C14.8688 67.2302 14.4726 67.1429 13.9521 66.9992C13.8588 66.9736 13.662 66.9197 13.6543 66.7657C13.6439 66.5938 13.8485 66.5117 14.2991 66.3321C14.6487 66.1935 15.0863 66.0191 15.4851 65.7702C15.9616 65.4751 17.0932 63.0221 18.5874 59.0424C18.6133 58.9757 18.6858 58.9423 18.7531 58.968C18.8205 58.9936 18.8541 59.0655 18.8282 59.1322C17.7406 62.0265 16.3008 65.5649 15.6197 65.9883C15.2002 66.2474 14.7341 66.4347 14.3923 66.5707C14.2447 66.6297 14.0841 66.6939 13.9831 66.7426C13.9935 66.7452 14.0038 66.7478 14.0168 66.7529C14.7082 66.9428 15.1743 67.0326 15.1795 67.0352C15.2339 67.0454 15.2779 67.0916 15.2831 67.1455L16.2594 75.4565C16.2671 75.5257 16.2154 75.5899 16.1454 75.5976C16.1454 75.5976 16.1403 75.5976 16.1351 75.5976Z" fill="#4E5567"/>
<path d="M19.2034 57.8749C19.1879 57.8749 19.1749 57.8723 19.1594 57.8672C19.092 57.8441 19.0584 57.7697 19.0817 57.7029C19.2578 57.2206 19.3614 56.9255 19.3614 56.9255C19.3847 56.8588 19.4598 56.8228 19.5271 56.8459C19.5944 56.869 19.6307 56.9434 19.6074 57.0102C19.6074 57.0102 19.5038 57.3052 19.3277 57.7902C19.307 57.8415 19.2578 57.8749 19.2034 57.8749Z" fill="#4E5567"/>
<path d="M22.5621 30.5016C22.5621 30.5016 15.6143 29.3701 12.8149 28.8723C10.0156 28.3745 7.60986 27.9049 7.60986 27.9049L6.39017 31.7769C6.39017 31.7769 11.9448 33.6295 13.4079 34.0631C14.871 34.4967 15.4485 34.7328 15.4485 34.7328C15.4485 34.7328 15.6401 44.0804 15.0394 46.0921C14.4386 48.1037 13.0868 52.1476 13.0868 52.1476L20.2444 56.1196L21.6816 53.9232L21.793 55.999C21.793 55.999 24.0433 55.8682 26.071 55.2241C28.0986 54.5801 29.3261 53.8052 29.3261 53.8052L27.7179 46.8054L29.9113 37.776C29.9113 37.776 40.9636 35.6001 41.0284 34.8945C41.0931 34.1888 39.5083 31.6024 39.5083 31.6024L24.5328 30.6351L22.5621 30.5016Z" fill="#FFF9F1"/>
<path d="M20.245 56.2507C20.2243 56.2507 20.201 56.2455 20.1828 56.2353L13.0252 52.2633C12.9709 52.2325 12.945 52.1683 12.9657 52.1119C12.9786 52.0708 14.3252 48.0475 14.9182 46.0589C15.475 44.1909 15.3403 35.7671 15.3222 34.8228C15.1202 34.7458 14.5168 34.5252 13.3722 34.1865C11.9247 33.758 6.40628 31.9182 6.3519 31.9002C6.28457 31.8771 6.24832 31.8079 6.26903 31.7411L7.48872 27.8692C7.50944 27.8076 7.57159 27.7666 7.63633 27.782C7.65964 27.7871 10.0731 28.2567 12.8388 28.7467C15.5708 29.2317 22.34 30.335 22.5782 30.3761L24.5437 30.5121L39.5192 31.4794C39.5607 31.482 39.5995 31.5051 39.6228 31.541C39.7859 31.8104 41.2283 34.1865 41.161 34.9126C41.1429 35.0999 41.1118 35.4463 35.4769 36.7318C32.9987 37.2963 30.4971 37.7993 30.0206 37.8942L27.8532 46.8158L29.4535 53.7848C29.4665 53.8387 29.4432 53.8926 29.3966 53.9208C29.3836 53.9285 28.1303 54.7137 26.1104 55.3552C24.0905 55.9966 21.8246 56.1352 21.8013 56.1352C21.7677 56.1378 21.734 56.1249 21.7081 56.1018C21.6822 56.0787 21.6667 56.048 21.6641 56.012L21.5734 54.3288L20.3538 56.1942C20.3279 56.2301 20.2864 56.2507 20.245 56.2507ZM13.2428 52.0913L20.201 55.953L21.5709 53.8592C21.6019 53.8131 21.6589 53.7925 21.7133 53.8054C21.7677 53.8208 21.8065 53.8669 21.8091 53.9234L21.9153 55.8683C22.4228 55.8299 24.3184 55.6528 26.0301 55.1088C27.7341 54.5674 28.8786 53.926 29.179 53.7489L27.5916 46.8415C27.5864 46.821 27.5864 46.803 27.5916 46.7825L29.785 37.7531C29.798 37.7043 29.8368 37.6684 29.886 37.6581C35.0444 36.642 40.6586 35.3232 40.9046 34.8767C40.9487 34.3609 39.8895 32.4853 39.4338 31.7335L24.5256 30.7712L22.5523 30.6352C22.5471 30.6352 22.5445 30.6352 22.5394 30.6327C22.4694 30.6224 15.5604 29.4934 12.7922 29.0033C10.3632 28.5723 8.20863 28.1566 7.69848 28.0591L6.5513 31.7027C7.3696 31.9746 12.1189 33.5527 13.4448 33.9478C14.8975 34.3789 15.475 34.6124 15.4983 34.6227C15.5449 34.6432 15.576 34.6868 15.5786 34.7381C15.5863 35.1204 15.7624 44.1293 15.1642 46.1359C14.623 47.9448 13.4577 51.4524 13.2428 52.0913Z" fill="#3F4553"/>
<path d="M20.1302 30.0194L19.8273 34.4508L23.4967 33.0267L27.3966 36.0083L27.2723 30.1837L20.1302 30.0194Z" fill="white"/>
<path d="M27.3969 36.1366C27.3684 36.1366 27.3399 36.1263 27.3166 36.1109L23.4763 33.1755L19.8742 34.5739C19.8328 34.5893 19.7861 34.5842 19.7499 34.5585C19.7136 34.5329 19.6955 34.4892 19.6981 34.4456L20.0011 30.0143C20.0063 29.945 20.071 29.8963 20.1332 29.8937L27.2726 30.0579C27.3425 30.0605 27.3969 30.1144 27.3995 30.1837L27.5238 36.0083C27.5238 36.057 27.4979 36.1032 27.4539 36.1263C27.4358 36.1314 27.4176 36.1366 27.3969 36.1366ZM23.497 32.8984C23.5255 32.8984 23.554 32.9086 23.5773 32.924L27.2623 35.7414L27.1457 30.3094L20.2523 30.1503L19.97 34.2583L23.4504 32.9086C23.4659 32.901 23.4815 32.8984 23.497 32.8984Z" fill="#3F4553"/>
<path d="M21.8243 53.6309C21.8217 53.6309 21.8165 53.6309 21.8139 53.6309C21.7414 53.6257 21.6896 53.5641 21.6948 53.4923L23.1346 36.5214C23.1398 36.4496 23.2045 36.4008 23.2744 36.4034C23.3469 36.4085 23.3987 36.4701 23.3936 36.5419L21.9538 53.5128C21.946 53.5821 21.889 53.6309 21.8243 53.6309Z" fill="#3F4553"/>
<path d="M29.9118 37.9068C29.8859 37.9068 29.86 37.8991 29.8393 37.8837C29.7875 37.8478 29.7667 37.7811 29.7952 37.7221L31.5277 34.099C31.5587 34.0349 31.6364 34.0092 31.7012 34.0374C31.7659 34.0682 31.7944 34.1452 31.7633 34.2093L30.3857 37.0883L33.5294 33.7552C33.5786 33.7039 33.6589 33.7013 33.7133 33.75C33.7651 33.7988 33.7677 33.8783 33.7185 33.9322L30.0076 37.8683C29.9817 37.894 29.9454 37.9068 29.9118 37.9068Z" fill="#3F4553"/>
<path d="M15.4489 34.8637C15.41 34.8637 15.3712 34.8457 15.3453 34.8123L12.5019 31.1123C12.4579 31.0559 12.4683 30.9763 12.5252 30.9327C12.5822 30.8891 12.6625 30.8993 12.7065 30.9558L14.9543 33.8784L14.1696 31.9847C14.1437 31.9206 14.1748 31.8436 14.2395 31.8179C14.3043 31.7923 14.382 31.8231 14.4079 31.8872L15.5654 34.684C15.5887 34.7431 15.5654 34.8123 15.511 34.8431C15.4929 34.856 15.4696 34.8637 15.4489 34.8637Z" fill="#3F4553"/>
<path d="M21.8141 30.3786L23.2617 36.5316L25.8564 30.725L24.5306 30.6403L22.5599 30.5043C22.5625 30.5017 22.2802 30.4556 21.8141 30.3786Z" fill="white"/>
<path d="M23.2617 36.6599C23.2565 36.6599 23.2539 36.6599 23.2488 36.6599C23.1944 36.6548 23.1478 36.6163 23.1348 36.5624L21.6873 30.4093C21.6769 30.3683 21.6898 30.3247 21.7183 30.2913C21.7468 30.2579 21.7908 30.2451 21.8349 30.2528L22.5832 30.376L25.8668 30.5966C25.9082 30.5992 25.9471 30.6223 25.9704 30.6582C25.9911 30.6942 25.9963 30.7378 25.9782 30.7763L23.3834 36.5829C23.3601 36.6291 23.3135 36.6599 23.2617 36.6599ZM21.9851 30.5376L23.3006 36.1287L25.6648 30.8404L22.5522 30.63L21.9851 30.5376Z" fill="#3F4553"/>
<path d="M21.8141 30.3786L23.2617 36.5316L25.8564 30.725L24.5306 30.6403L22.5599 30.5043C22.5625 30.5017 22.2802 30.4556 21.8141 30.3786Z" fill="#C6FF00"/>
<path d="M21.8141 30.3786L23.2617 36.5316L25.8564 30.725L24.5306 30.6403L22.5599 30.5043C22.5625 30.5017 22.2802 30.4556 21.8141 30.3786Z" fill="#FED9CE"/>
<path d="M43.769 33.491C43.769 33.491 43.8959 34.5148 43.321 34.9638C42.7487 35.4129 40.3275 36.1903 39.649 35.7875C38.9706 35.3846 38.0098 33.2524 38.3853 31.7513C38.7608 30.2528 41.0293 30.8096 41.0293 30.8096C41.0293 30.8096 43.2459 31.5127 43.769 33.491Z" fill="white"/>
<path d="M40.216 36.0262C39.9544 36.0262 39.7343 35.9877 39.5841 35.8979C38.8279 35.4489 37.8879 33.214 38.2608 31.7206C38.4291 31.0484 38.973 30.6583 39.8379 30.5891C40.4671 30.5403 41.0368 30.6763 41.0602 30.684C41.1611 30.7148 43.3597 31.4332 43.8932 33.4552C43.8957 33.4603 43.8957 33.4654 43.8957 33.4731C43.9009 33.5168 44.0226 34.5739 43.4011 35.0614C42.9505 35.4181 41.2596 36.0262 40.216 36.0262ZM40.1201 30.838C39.4857 30.838 38.7036 31.0047 38.5094 31.7822C38.1443 33.2396 39.1076 35.3155 39.7162 35.6773C40.3299 36.0416 42.6761 35.3052 43.2406 34.8639C43.7248 34.4841 43.6497 33.6066 43.642 33.5142C43.1396 31.6359 41.011 30.9406 40.9902 30.9329C40.9825 30.9303 40.5914 30.838 40.1201 30.838Z" fill="#575C69"/>
<path d="M41.7176 34.5764C40.6559 34.6354 39.7211 33.8811 39.4517 32.8624C38.7759 30.2862 37.1289 24.223 36.5022 23.8073C35.7046 23.2813 35.0935 23.1479 35.1038 22.6604C35.1142 22.1754 35.1556 20.2304 35.1556 20.2304C35.1556 20.2304 35.5104 19.7019 35.746 20.1945C35.9817 20.6846 35.9247 21.0721 35.9247 21.0721C35.9247 21.0721 36.3158 19.9867 36.2743 19.6454C36.2329 19.3042 36.1526 18.3804 36.1578 18.1367C36.163 17.8929 36.4867 17.6825 36.9657 18.1777C37.4448 18.6729 38.3797 19.7378 38.1984 20.2433C38.0171 20.7488 37.6934 23.2454 37.6934 23.2454C37.6934 23.2454 43.6909 31.9695 43.5769 32.7444C43.4941 33.3012 43.0098 34.5046 41.7176 34.5764Z" fill="#FED9CE"/>
<path d="M41.6011 34.7072C40.5523 34.7072 39.6071 33.9605 39.3275 32.8931C37.9446 27.6202 36.8337 24.1793 36.4323 23.9124C36.2018 23.761 35.9869 23.643 35.7979 23.5378C35.3162 23.271 34.9666 23.0785 34.977 22.6577L35.0288 20.2278C35.0288 20.2047 35.0365 20.179 35.0495 20.1585C35.0702 20.1252 35.2696 19.8378 35.526 19.8557C35.6658 19.866 35.7797 19.9609 35.8652 20.138C35.9196 20.2509 35.9584 20.3612 35.9895 20.4613C36.0853 20.1303 36.163 19.7993 36.1475 19.6607C36.106 19.3297 36.0258 18.3932 36.0309 18.134C36.0335 17.9749 36.1319 17.8338 36.2795 17.7774C36.409 17.726 36.6861 17.7004 37.0616 18.0904C37.6209 18.6677 38.5273 19.7198 38.3227 20.2894C38.1596 20.7384 37.8773 22.8681 37.8307 23.2171C38.8976 24.7695 43.823 31.9899 43.709 32.7674C43.6158 33.4037 43.0798 34.6302 41.7306 34.7046C41.6814 34.7072 41.64 34.7072 41.6011 34.7072ZM35.2825 20.274L35.2333 22.6628C35.2282 22.9169 35.4535 23.0529 35.9222 23.3146C36.1164 23.4224 36.3365 23.5429 36.5747 23.6995C37.1833 24.0997 38.5428 28.8852 39.5787 32.829C39.8376 33.822 40.7336 34.5019 41.7099 34.448C42.8933 34.3813 43.3646 33.296 43.4475 32.7289C43.5252 32.2003 39.892 26.6785 37.5847 23.3197C37.5666 23.2941 37.5588 23.2633 37.564 23.2325C37.5769 23.1298 37.8903 20.7179 38.0741 20.2021C38.1829 19.8968 37.7116 19.1373 36.87 18.2674C36.6395 18.0288 36.4608 17.9801 36.3676 18.016C36.308 18.0391 36.2847 18.0955 36.2847 18.1392C36.2795 18.3701 36.3546 19.2733 36.3987 19.6299C36.4427 19.9917 36.0853 21.0001 36.0439 21.1156C36.0206 21.1772 35.9558 21.2131 35.8911 21.1977C35.8264 21.1823 35.7849 21.1207 35.7953 21.054C35.7953 21.0515 35.8419 20.6948 35.6295 20.2483C35.5907 20.1662 35.5441 20.1149 35.5053 20.1123C35.4509 20.1046 35.3447 20.197 35.2825 20.274Z" fill="#3F4553"/>
<path d="M37.209 21.162C37.1961 21.162 37.1831 21.1594 37.1728 21.1569C37.1054 21.1364 37.064 21.0645 37.0873 20.9978L37.367 20.0715C37.3074 19.9381 37.1417 19.5481 37.1236 19.1914C37.1132 18.9938 37.1935 18.904 37.2608 18.863C37.4343 18.7578 37.6777 18.8912 37.7243 18.9168C37.7865 18.9528 37.8046 19.0323 37.7684 19.0913C37.7321 19.1529 37.6518 19.1734 37.5923 19.1375C37.5146 19.0913 37.4162 19.0682 37.3929 19.0811C37.3929 19.0811 37.3748 19.1016 37.3799 19.1786C37.4007 19.5583 37.6182 20.0022 37.6208 20.0074C37.6363 20.0356 37.6389 20.0689 37.6285 20.0997L37.3333 21.0748C37.3152 21.1261 37.2634 21.162 37.209 21.162Z" fill="#263238"/>
<path d="M36.7661 21.0464C36.7557 21.0464 36.7454 21.0464 36.735 21.0439C36.6651 21.0259 36.6237 20.9566 36.6392 20.8899L36.8567 20.0098C36.792 19.8712 36.6211 19.4325 36.7221 18.9706C36.7687 18.7628 36.8619 18.6242 37.0017 18.5626C37.1934 18.4754 37.3824 18.5755 37.4031 18.5857C37.4653 18.6191 37.4886 18.6986 37.4549 18.7602C37.4212 18.8218 37.3436 18.8449 37.2788 18.8115C37.2762 18.809 37.1804 18.7628 37.1079 18.7961C37.0328 18.8295 36.994 18.9398 36.9758 19.0245C36.8748 19.4812 37.1053 19.9303 37.1079 19.9354C37.1234 19.9636 37.126 19.9944 37.1183 20.0252L36.8904 20.9515C36.8774 21.0079 36.8231 21.0464 36.7661 21.0464Z" fill="#263238"/>
<path d="M36.3962 21.0205C36.3885 21.0205 36.3807 21.0205 36.3729 21.0179C36.303 21.0051 36.2564 20.9384 36.2668 20.8691L36.4765 19.6965C36.4429 19.5631 36.303 18.9832 36.2823 18.5675C36.2719 18.3725 36.3522 18.257 36.4221 18.1929C36.6189 18.0107 36.9426 18.0466 36.9789 18.0517C37.0488 18.062 37.1006 18.1236 37.0902 18.1954C37.0825 18.2647 37.0177 18.316 36.9452 18.3058C36.8779 18.2981 36.6889 18.2955 36.5956 18.3802C36.5542 18.4187 36.5361 18.4751 36.5387 18.5547C36.562 18.9909 36.7303 19.6554 36.7329 19.6606C36.7381 19.6785 36.7381 19.6965 36.7355 19.7145L36.5205 20.9127C36.5128 20.9769 36.4584 21.0205 36.3962 21.0205Z" fill="#263238"/>
<path d="M25.6176 31.8233C34.4862 31.8233 41.6756 24.6996 41.6756 15.9121C41.6756 7.12465 34.4862 0.000976568 25.6176 0.000976568C16.749 0.000976568 9.55962 7.12465 9.55962 15.9121C9.55962 24.6996 16.749 31.8233 25.6176 31.8233Z" fill="#FA6E5A"/>
<path opacity="0.3" d="M14.5348 15.2655C14.8559 7.53698 20.6928 1.32749 28.1275 0.198494C27.5215 0.103555 26.9052 0.0394078 26.2785 0.0137488C17.417 -0.348044 9.93829 6.4747 9.57057 15.2527C9.20544 24.0332 16.0911 31.4435 24.9501 31.8079C26.0118 31.8515 27.0502 31.7899 28.0627 31.636C20.1179 30.3992 14.1956 23.4251 14.5348 15.2655Z" fill="#AC3E2F"/>
<path d="M15.8868 17.3414C15.8868 17.3414 27.672 15.8044 37.4243 18.2241C37.4243 18.2241 36.5102 27.9232 26.328 27.7C17.5001 27.5075 15.8868 17.3414 15.8868 17.3414Z" fill="#3F4553"/>
<path d="M26.817 12.3019C26.4311 12.3019 26.0971 12.0197 26.0479 11.6296C25.8018 9.73344 24.0617 8.30423 21.9978 8.30423C20.1592 8.30423 18.5407 9.45375 18.0616 11.0959C17.9425 11.5039 17.51 11.74 17.0983 11.6219C16.6865 11.5039 16.4483 11.078 16.5674 10.6674C17.2381 8.36838 19.4703 6.76468 21.9978 6.76468C24.8385 6.76468 27.2417 8.77122 27.5887 11.4346C27.643 11.8554 27.3427 12.2429 26.918 12.2968C26.8843 12.2993 26.8506 12.3019 26.817 12.3019Z" fill="#3F4553"/>
<path d="M38.1312 14.1288C37.7117 14.1288 37.3673 13.7978 37.3543 13.3796C37.3077 11.6886 35.9016 10.2774 34.0837 10.0978C32.4652 9.93868 30.9347 10.806 30.365 12.2095C30.2045 12.6047 29.7513 12.7945 29.3551 12.638C28.9563 12.4789 28.7647 12.0325 28.9226 11.6373C29.7487 9.59998 31.9317 8.33755 34.2365 8.56592C36.8286 8.82251 38.8355 10.8752 38.9055 13.3359C38.9184 13.7619 38.5792 14.116 38.1493 14.1262C38.1467 14.1288 38.1389 14.1288 38.1312 14.1288Z" fill="#3F4553"/>
<path d="M17.42 17.6392C17.5158 18.024 18.228 20.1307 22.3868 20.3026C26.9652 20.4899 31.5384 20.8466 33.9182 20.7747C35.3425 20.7311 36.0236 19.5174 36.3421 18.5475C29.1327 16.913 21.0195 17.3287 17.42 17.6392Z" fill="white"/>
<path d="M29.373 26.9226C29.3756 24.6415 26.9052 22.7119 23.7692 22.5836C22.0316 22.5118 20.4545 23.0121 19.3565 23.8563C20.931 25.6447 23.2124 27.0893 26.4857 27.1612C27.5474 27.1843 28.5055 27.0945 29.373 26.9226Z" fill="#4E5567"/>
<path d="M11.8698 82.6639L16.9998 84.2599L17.0412 82.1636L11.6627 81.0654L11.8698 82.6639Z" fill="#4E5567"/>
<path d="M17.0004 84.3883C16.9874 84.3883 16.9745 84.3857 16.9615 84.3832L11.8316 82.7872C11.7824 82.7718 11.7487 82.7307 11.7409 82.682L11.5338 81.0809C11.5286 81.0398 11.5441 80.9988 11.5752 80.9705C11.6063 80.9423 11.6477 80.9295 11.6891 80.9397L17.0677 82.0379C17.1298 82.0508 17.1713 82.1046 17.1713 82.1662L17.1298 84.2626C17.1298 84.3036 17.1091 84.3395 17.0755 84.3652C17.0547 84.3806 17.0289 84.3883 17.0004 84.3883ZM11.9869 82.5665L16.8735 84.0855L16.9097 82.2663L11.8134 81.2246L11.9869 82.5665Z" fill="#3F4553"/>
<path d="M22.4069 82.9748L23.0387 84.8325L28.091 82.7952L27.7103 81.0632L22.4069 82.9748Z" fill="#4E5567"/>
<path d="M23.0388 84.9582C23.0206 84.9582 23.0025 84.953 22.9844 84.9454C22.9507 84.93 22.9274 84.9043 22.9145 84.8709L22.2826 83.0158C22.2593 82.9491 22.2956 82.8772 22.3603 82.8541L27.6637 80.9425C27.7 80.9297 27.7388 80.9323 27.7699 80.9502C27.8036 80.9682 27.8269 80.999 27.8347 81.0349L28.2153 82.7669C28.2283 82.8285 28.1946 82.8901 28.1376 82.9131L23.0854 84.9479C23.0724 84.9556 23.0543 84.9582 23.0388 84.9582ZM22.57 83.0517L23.1164 84.6605L27.9408 82.7181L27.6145 81.235L22.57 83.0517Z" fill="#3F4553"/>
<path d="M3.57621 29.3475C3.57621 29.3475 3.23179 30.32 3.69533 30.882C4.15886 31.4439 6.35482 32.714 7.10321 32.4626C7.8516 32.2137 9.24997 30.3303 9.20854 28.7882C9.16451 27.2435 6.82872 27.3077 6.82872 27.3077C6.82872 27.3077 4.51363 27.5258 3.57621 29.3475Z" fill="white"/>
<path d="M6.88254 32.6212C5.91404 32.6212 4.00811 31.4614 3.59378 30.961C3.0914 30.3529 3.43581 29.3471 3.45135 29.3034C3.45394 29.2983 3.45653 29.2932 3.45912 29.288C4.41726 27.4226 6.7194 27.1891 6.81521 27.1789C7.68013 27.1609 9.29862 27.4611 9.33746 28.7826C9.38149 30.3195 7.98052 32.303 7.14409 32.5827C7.06899 32.6083 6.98095 32.6212 6.88254 32.6212ZM3.69477 29.3958C3.66629 29.4856 3.40474 30.3247 3.79576 30.7994C4.25153 31.351 6.38534 32.5647 7.06381 32.3415C7.7371 32.1157 9.12253 30.2939 9.08109 28.7928C9.04225 27.3944 6.85665 27.438 6.83334 27.438C6.8178 27.438 4.59077 27.669 3.69477 29.3958Z" fill="#3F4553"/>
<path d="M4.81115 30.6968C5.83662 30.979 6.91129 30.4402 7.39296 29.5011C8.60747 27.1276 11.5233 21.5519 12.2251 21.2799C13.1185 20.9335 13.7426 20.9335 13.8384 20.4563C13.9342 19.979 14.3123 18.0725 14.3123 18.0725C14.3123 18.0725 14.0792 17.4824 13.7452 17.9135C13.4111 18.342 13.3827 18.7346 13.3827 18.7346C13.3827 18.7346 13.235 17.5927 13.349 17.2669C13.4629 16.9435 13.74 16.0557 13.7866 15.8171C13.8332 15.5785 13.5639 15.3039 12.989 15.6863C12.4141 16.0686 11.2721 16.9102 11.3395 17.4439C11.4094 17.9776 11.1841 20.4845 11.1841 20.4845C11.1841 20.4845 3.44385 27.7383 3.38947 28.5209C3.35062 29.0777 3.56297 30.353 4.81115 30.6968Z" fill="#FED9CE"/>
<path d="M5.36785 30.9021C5.17104 30.9021 4.97423 30.8764 4.77743 30.8225C3.47487 30.4633 3.21591 29.1547 3.25993 28.5106C3.31432 27.7255 9.68209 21.7136 11.0597 20.4229C11.0908 20.0714 11.2721 17.9314 11.2099 17.4593C11.1323 16.8614 12.2458 16.025 12.9139 15.5785C13.3671 15.2783 13.6286 15.363 13.7451 15.4399C13.8772 15.5272 13.9419 15.6837 13.9109 15.8428C13.8617 16.0968 13.5794 16.9949 13.4681 17.3105C13.4214 17.4439 13.4266 17.7826 13.4499 18.1264C13.4991 18.0341 13.5613 17.9366 13.639 17.8365C13.7581 17.6825 13.8902 17.6133 14.03 17.6338C14.2812 17.6697 14.4158 17.993 14.4288 18.0289C14.4366 18.052 14.4391 18.0751 14.434 18.1008L13.9653 20.4794C13.8824 20.8925 13.5017 21.0054 12.9734 21.1645C12.7663 21.226 12.5306 21.2979 12.2717 21.398C11.8211 21.5724 9.99543 24.7003 7.50943 29.5575C7.08215 30.394 6.23795 30.9021 5.36785 30.9021ZM4.84735 30.5736C5.78736 30.8328 6.81025 30.3581 7.27896 29.4421C9.13828 25.8088 11.4974 21.4211 12.1784 21.1593C12.4452 21.0567 12.686 20.9849 12.8983 20.9207C13.4137 20.7667 13.6623 20.6821 13.7115 20.4306L14.1776 18.0854C14.1362 17.9981 14.0585 17.8904 13.9963 17.8827C13.9549 17.875 13.9031 17.916 13.8461 17.9879C13.5406 18.3779 13.5095 18.7371 13.5095 18.7397C13.5043 18.8064 13.4499 18.8577 13.3826 18.8577C13.3075 18.8603 13.2583 18.8115 13.2505 18.7448C13.235 18.6242 13.1029 17.5619 13.2246 17.2181C13.3438 16.8794 13.6131 16.0121 13.6571 15.7863C13.6649 15.7427 13.6571 15.6837 13.6027 15.6478C13.5198 15.5939 13.336 15.6016 13.0589 15.7863C12.049 16.4586 11.4249 17.1001 11.4663 17.4208C11.5362 17.9622 11.3213 20.3844 11.3135 20.4896C11.3109 20.5204 11.2954 20.5512 11.2747 20.5717C8.29667 23.3634 3.55774 27.9923 3.52148 28.5235C3.47746 29.0982 3.70534 30.2606 4.84735 30.5736Z" fill="#3F4553"/>
<path d="M12.3832 18.6832C12.3806 18.6832 12.378 18.6832 12.378 18.6832C12.3055 18.6806 12.2511 18.619 12.2563 18.5497C12.2563 18.542 12.2899 17.8441 12.2718 17.5029C12.2511 17.1334 12.8053 15.7888 12.87 15.6374C12.8959 15.5707 12.9736 15.5399 13.0383 15.5682C13.1031 15.5938 13.1367 15.6708 13.1082 15.7349C12.8778 16.2892 12.5178 17.254 12.5308 17.49C12.5489 17.8441 12.5152 18.5343 12.5152 18.5626C12.51 18.6293 12.4531 18.6832 12.3832 18.6832Z" fill="#263238"/>
<path d="M11.9529 18.5396L11.6939 18.5345C11.6939 18.5345 11.712 17.7852 11.725 17.5055C11.7379 17.2207 12.0254 16.338 12.0565 16.2405C12.0772 16.1738 12.1523 16.1353 12.2196 16.1584C12.2869 16.179 12.3258 16.2534 12.3025 16.3201C12.217 16.5818 11.9917 17.3054 11.9814 17.5184C11.971 17.7955 11.9529 18.5396 11.9529 18.5396Z" fill="#263238"/>
</svg>
