<svg width="369" height="229" viewBox="0 0 369 229" fill="none" xmlns="http://www.w3.org/2000/svg">
<g clip-path="url(#clip0_1_7001)">
<path d="M15.5557 154.114C24.9065 160.877 65.9754 166.781 110.955 170.922C110.943 170.995 110.939 171.071 110.939 171.144C98.0635 180.266 81.261 186.738 64.2251 189.311C88.934 189.311 111.514 180.758 132.755 172.769L132.674 172.761C132.401 172.741 132.123 172.717 131.85 172.693H131.854L132.674 172.761C154.458 174.463 176.121 175.725 194.622 176.451C194.871 176.459 195.121 176.471 195.37 176.479C175.779 189.803 145.783 202.828 124.973 209.224C124.873 209.256 124.816 209.349 124.841 209.446C124.861 209.526 124.933 209.587 125.018 209.595C125.034 209.595 125.05 209.595 125.062 209.595C150.539 206.591 188.864 192.989 210.032 177.011C236.962 177.923 263.586 178.467 287.249 178.782C270.917 192.969 249.307 207.179 233.16 215.604C233.067 215.652 233.031 215.757 233.071 215.846C233.108 215.922 233.188 215.967 233.272 215.958C233.289 215.958 233.305 215.954 233.317 215.95C253.487 209.752 280.827 194.888 299.666 178.927C333.621 179.29 359.766 179.201 369.004 179.153V149.937C252.956 166.462 131.298 171.753 15.5557 154.114Z" fill="#807BB0"/>
<path d="M5.59277 174.806C7.98279 172.882 10.1072 169.132 12.2196 166.914C14.332 164.696 16.6054 162.559 19.3575 161.176C22.1096 159.792 25.417 159.244 28.314 160.292C31.211 161.345 33.4964 164.236 33.2268 167.265C33.0015 169.817 31.1265 171.943 29.0503 173.491C22.4275 178.427 12.7427 178.967 5.59277 174.806Z" fill="#65D1CA"/>
<path d="M31.3199 162.293C31.3199 162.293 31.0705 162.53 30.6399 162.946C30.2014 163.365 29.5898 163.926 28.8012 164.579C28.0246 165.244 27.071 165.958 26.0249 166.7C24.9707 167.43 23.8079 168.156 22.6169 168.829C21.4138 169.491 20.1826 170.1 18.9997 170.616C17.8127 171.12 16.6861 171.559 15.7003 171.878C14.7186 172.213 13.8857 172.447 13.3023 172.6C12.7148 172.753 12.3809 172.838 12.3809 172.838C12.3809 172.838 12.7188 172.765 13.3103 172.64C13.9018 172.511 14.7467 172.314 15.7446 172.023C16.7465 171.749 17.8972 171.354 19.1164 170.898C20.3315 170.43 21.5989 169.87 22.8462 169.253C24.0855 168.624 25.2926 167.938 26.3991 167.245C27.4935 166.539 28.4994 165.849 29.3202 165.208C30.1491 164.583 30.829 164.006 31.2797 163.615C31.7303 163.22 31.9919 162.99 31.9919 162.99C32.193 162.817 32.2091 162.514 32.0321 162.317C31.8551 162.119 31.5493 162.103 31.3481 162.28C31.328 162.284 31.3239 162.288 31.3199 162.293Z" fill="#4AA5A2"/>
<path d="M28.7765 164.946C28.7765 164.946 28.8167 165.486 28.7564 166.261C28.704 167.047 28.519 168.095 28.189 169.108C27.8591 170.12 27.3964 171.088 26.9578 171.761C26.5273 172.443 26.1611 172.842 26.1611 172.842C26.1611 172.842 26.5474 172.463 27.0222 171.805C27.505 171.152 28.0361 170.2 28.4304 169.192C28.8248 168.18 29.0863 167.12 29.1869 166.305C29.2995 165.482 29.2875 164.946 29.2875 164.946V164.922C29.2834 164.781 29.1668 164.668 29.0219 164.668C28.8771 164.672 28.7644 164.789 28.7644 164.93C28.7724 164.938 28.7724 164.942 28.7765 164.946Z" fill="#4AA5A2"/>
<path d="M22.8984 168.777C22.8984 168.777 22.8541 169.212 22.7173 169.834C22.5845 170.463 22.3431 171.293 22.0172 172.096C21.6913 172.894 21.2769 173.665 20.8826 174.185C20.4963 174.713 20.1543 174.999 20.1543 174.999C20.1543 174.999 20.5164 174.741 20.9469 174.237C21.3895 173.741 21.8683 172.995 22.2667 172.205C22.661 171.414 22.9789 170.584 23.1639 169.946C23.3571 169.301 23.4376 168.874 23.4376 168.874L23.4416 168.858C23.4697 168.708 23.3691 168.567 23.2203 168.543C23.0714 168.515 22.9266 168.616 22.8984 168.761C22.9024 168.765 22.9024 168.769 22.8984 168.777Z" fill="#4AA5A2"/>
<path d="M17.3696 171.305C17.3696 171.305 17.273 171.604 17.0839 172.019C16.8948 172.443 16.6011 172.987 16.251 173.503C15.901 174.019 15.4946 174.499 15.1486 174.818C14.8066 175.14 14.541 175.318 14.541 175.318C14.541 175.318 14.8186 175.161 15.1848 174.858C15.555 174.56 15.9976 174.1 16.3878 173.604C16.7781 173.104 17.1201 172.568 17.3414 172.144C17.5708 171.721 17.6834 171.426 17.6834 171.426L17.6875 171.414C17.7237 171.33 17.6794 171.229 17.5909 171.197C17.5024 171.164 17.4058 171.205 17.3696 171.293C17.3736 171.297 17.3696 171.301 17.3696 171.305Z" fill="#4AA5A2"/>
<path d="M29.0344 164.777C29.0344 164.777 28.5838 164.466 27.8153 164.095C27.0588 163.728 26.0047 163.357 24.9183 163.127C23.8319 162.898 22.7214 162.809 21.8926 162.841C21.0637 162.861 20.5205 162.966 20.5205 162.966C20.5205 162.966 21.0677 162.894 21.8926 162.922C22.7134 162.938 23.8038 163.091 24.8579 163.377C25.9081 163.664 26.914 164.087 27.6141 164.482C28.3102 164.865 28.7447 165.204 28.7447 165.204C28.8574 165.293 29.0224 165.273 29.1109 165.164C29.1994 165.051 29.1793 164.89 29.0666 164.805C29.0626 164.801 29.0586 164.801 29.0546 164.797L29.0344 164.777Z" fill="#4AA5A2"/>
<path d="M23.2841 168.575C23.2841 168.575 22.8778 168.398 22.2259 168.196C21.5822 167.991 20.709 167.781 19.8239 167.66C18.9387 167.543 18.0374 167.515 17.3735 167.595C16.7056 167.664 16.2871 167.813 16.2871 167.813C16.2871 167.813 16.7176 167.696 17.3815 167.68C18.0414 167.652 18.9226 167.745 19.7756 167.926C20.6326 168.112 21.4655 168.378 22.069 168.624C22.6685 168.862 23.0588 169.067 23.0588 169.067C23.1916 169.14 23.3606 169.088 23.433 168.954C23.5054 168.821 23.4531 168.656 23.3204 168.587C23.3163 168.583 23.3083 168.579 23.3002 168.579L23.2841 168.575Z" fill="#4AA5A2"/>
<path d="M17.5791 171.205C17.5791 171.205 17.2774 171.112 16.7945 171.019C16.3198 170.926 15.68 170.85 15.0403 170.834C14.4005 170.822 13.7608 170.874 13.29 170.967C12.8192 171.056 12.5215 171.172 12.5215 171.172C12.5215 171.172 12.8273 171.08 13.298 171.019C13.7688 170.955 14.4005 170.947 15.0282 170.999C15.6559 171.056 16.2755 171.172 16.7261 171.293C17.1768 171.41 17.4705 171.523 17.4705 171.523C17.559 171.556 17.6556 171.515 17.6918 171.427C17.724 171.342 17.6838 171.241 17.5952 171.209C17.5912 171.209 17.5872 171.205 17.5832 171.205H17.5791Z" fill="#4AA5A2"/>
<path d="M0.53107 129.374C3.84651 131.415 9.27434 132.395 12.8352 133.984C16.3961 135.572 19.9248 137.387 22.7252 140.069C25.5257 142.75 27.5415 146.432 27.4369 150.275C27.3322 154.118 24.741 157.99 20.9428 158.901C17.744 159.671 14.3924 158.324 11.6644 156.506C2.96535 150.699 -1.63362 139.5 0.53107 129.374Z" fill="#65D1CA"/>
<path d="M26.1619 154.739C26.1619 154.739 25.7716 154.542 25.0916 154.195C24.4076 153.844 23.4701 153.344 22.3515 152.671C21.7882 152.344 21.1967 151.965 20.5731 151.562C19.9454 151.162 19.3097 150.703 18.6418 150.239C17.3301 149.283 15.9741 148.203 14.6705 147.061C13.3829 145.904 12.1437 144.69 11.0372 143.501C10.498 142.896 9.96286 142.319 9.4921 141.742C9.0133 141.17 8.56668 140.629 8.17639 140.109C7.37569 139.085 6.75606 138.194 6.3376 137.565C5.91915 136.935 5.67773 136.573 5.67773 136.573C5.67773 136.573 5.90708 136.939 6.30139 137.585C6.69973 138.23 7.2912 139.141 8.05568 140.194C8.42987 140.73 8.85638 141.287 9.31909 141.879C9.76973 142.476 10.2888 143.069 10.8078 143.698C11.8781 144.932 13.0812 146.198 14.3405 147.408C15.616 148.606 16.9438 149.747 18.2394 150.755C18.8993 151.247 19.5229 151.739 20.1466 152.163C20.7662 152.594 21.3537 153.001 21.9129 153.352C23.0114 154.07 23.9851 154.631 24.649 154.998C25.3169 155.364 25.6991 155.578 25.6991 155.578C25.9325 155.707 26.2262 155.627 26.359 155.397C26.4918 155.167 26.4073 154.877 26.1739 154.747C26.1739 154.747 26.1659 154.743 26.1619 154.739Z" fill="#4AA5A2"/>
<path d="M21.9811 152.772C21.9811 152.772 21.3413 153.034 20.3636 153.276C19.3778 153.53 18.0219 153.723 16.6538 153.743C15.2858 153.76 13.9178 153.594 12.9159 153.348C12.413 153.231 12.0066 153.102 11.7209 153.001C11.4393 152.897 11.2783 152.84 11.2783 152.84C11.2783 152.84 11.4352 152.905 11.7129 153.022C11.9905 153.135 12.3969 153.288 12.8958 153.425C13.8896 153.723 15.2617 153.953 16.6498 154.002C18.038 154.05 19.4341 153.913 20.4602 153.699C20.9712 153.602 21.4097 153.481 21.6954 153.397C21.9851 153.308 22.1461 153.26 22.1461 153.26L22.1581 153.256C22.2949 153.215 22.3714 153.07 22.3311 152.933C22.2869 152.796 22.142 152.723 22.0052 152.764C21.9972 152.768 21.9891 152.772 21.9811 152.772Z" fill="#4AA5A2"/>
<path d="M14.9197 147.408C14.9197 147.408 14.3725 147.525 13.5557 147.614C12.7309 147.706 11.6204 147.751 10.5099 147.682C9.40337 147.61 8.29688 147.428 7.50423 147.166C7.10589 147.041 6.78401 146.908 6.56271 146.803C6.34543 146.694 6.2207 146.63 6.2207 146.63C6.2207 146.63 6.34141 146.698 6.55064 146.823C6.76389 146.94 7.07773 147.097 7.47204 147.247C8.25664 147.557 9.36313 147.811 10.4817 147.952C11.6043 148.09 12.7389 148.114 13.5879 148.069C14.4449 148.029 15.0002 147.944 15.0002 147.944L15.0163 147.94C15.1652 147.916 15.2698 147.779 15.2456 147.63C15.2215 147.481 15.0807 147.38 14.9318 147.404C14.9278 147.404 14.9237 147.404 14.9197 147.408Z" fill="#4AA5A2"/>
<path d="M9.5802 141.884C9.5802 141.884 9.17784 141.888 8.59039 141.831C7.99893 141.779 7.2103 141.642 6.44179 141.436C5.67329 141.226 4.9249 140.936 4.39781 140.658C3.86669 140.383 3.54883 140.137 3.54883 140.137C3.54883 140.137 3.85462 140.4 4.37367 140.702C4.88869 141.013 5.62903 141.343 6.39351 141.597C7.16202 141.847 7.95467 142.025 8.55821 142.113C9.16577 142.206 9.56813 142.222 9.56813 142.222H9.5802C9.67274 142.226 9.75321 142.154 9.75724 142.061C9.76126 141.968 9.68884 141.892 9.59227 141.888C9.58825 141.884 9.58422 141.884 9.5802 141.884Z" fill="#4AA5A2"/>
<path d="M22.2027 152.929C22.2027 152.929 22.2429 152.763 22.3154 152.473C22.3838 152.187 22.4803 151.739 22.5407 151.227C22.6896 150.191 22.7177 148.799 22.5689 147.424C22.4119 146.049 22.082 144.706 21.7118 143.738C21.5348 143.255 21.3577 142.859 21.225 142.589C21.0882 142.319 21.0117 142.166 21.0117 142.166C21.0117 142.166 21.0801 142.323 21.2049 142.597C21.3215 142.871 21.4825 143.271 21.6354 143.763C21.9532 144.739 22.2188 146.085 22.3073 147.444C22.3918 148.803 22.2993 150.162 22.1061 151.159C22.0176 151.663 21.917 152.054 21.8325 152.344C21.748 152.63 21.6957 152.796 21.6957 152.796C21.6555 152.933 21.7319 153.074 21.8728 153.114C22.0096 153.155 22.1544 153.078 22.1987 152.941C22.2027 152.937 22.2027 152.933 22.2027 152.929Z" fill="#4AA5A2"/>
<path d="M15.2334 147.698C15.2334 147.698 15.2898 147.15 15.2777 146.303C15.2737 145.464 15.1811 144.351 14.9799 143.259C14.7747 142.166 14.4529 141.093 14.0907 140.343C13.9177 139.964 13.7407 139.665 13.6079 139.46C13.4711 139.258 13.3906 139.145 13.3906 139.145C13.3906 139.145 13.463 139.262 13.5838 139.472C13.7004 139.682 13.8574 139.992 14.0062 140.375C14.3161 141.141 14.5695 142.214 14.7023 143.299C14.8351 144.384 14.8552 145.48 14.811 146.295C14.7707 147.102 14.6822 147.65 14.6822 147.65C14.6581 147.799 14.7627 147.936 14.9115 147.961C15.0604 147.985 15.2053 147.884 15.2254 147.735C15.2254 147.731 15.2254 147.723 15.2294 147.719L15.2334 147.698Z" fill="#4AA5A2"/>
<path d="M9.74098 142.049C9.74098 142.049 9.73293 141.653 9.65648 141.053C9.58406 140.456 9.42311 139.673 9.18572 138.911C8.94833 138.149 8.63046 137.415 8.32869 136.899C8.03095 136.379 7.77344 136.072 7.77344 136.072C7.77344 136.072 8.01485 136.391 8.28041 136.923C8.55402 137.451 8.82762 138.193 9.02075 138.956C9.21389 139.718 9.33057 140.496 9.37081 141.081C9.41507 141.661 9.39897 142.057 9.39897 142.057C9.39495 142.149 9.46737 142.226 9.56394 142.23C9.65648 142.234 9.73695 142.162 9.74098 142.069C9.74098 142.065 9.74098 142.065 9.74098 142.061V142.049Z" fill="#4AA5A2"/>
<path d="M45.209 197.977C47.9048 196.324 50.5885 192.791 53.0389 190.803C55.4933 188.819 58.1006 186.932 61.0821 185.871C64.0636 184.811 67.4917 184.653 70.276 186.069C73.0603 187.484 74.9595 190.686 74.2594 193.715C73.6679 196.267 71.467 198.191 69.1454 199.502C61.7379 203.683 51.856 203.054 45.209 197.977Z" fill="#65D1CA"/>
<path d="M73.0568 188.48C73.0568 188.48 72.7711 188.69 72.2721 189.057C71.7692 189.424 71.0691 189.92 70.1718 190.485C69.7292 190.775 69.2424 191.065 68.7193 191.368C68.2003 191.678 67.6329 191.973 67.0535 192.287C65.8827 192.892 64.5992 193.485 63.2955 194.021C61.9838 194.541 60.648 195.005 59.3765 195.38C58.7368 195.554 58.1212 195.739 57.5297 195.876C56.9382 196.021 56.3789 196.15 55.8559 196.251C54.8138 196.469 53.9406 196.602 53.325 196.683C52.7094 196.763 52.3594 196.812 52.3594 196.812C52.3594 196.812 52.7134 196.78 53.3291 196.723C53.9447 196.663 54.8299 196.566 55.88 196.388C56.4071 196.312 56.9744 196.203 57.574 196.082C58.1735 195.969 58.8012 195.808 59.4489 195.658C60.7445 195.328 62.1085 194.916 63.4565 194.445C64.7963 193.957 66.1201 193.408 67.3352 192.84C67.9347 192.541 68.5222 192.267 69.0613 191.973C69.6045 191.682 70.1155 191.408 70.5782 191.13C71.5036 190.597 72.2722 190.097 72.7831 189.755C73.2982 189.408 73.5919 189.21 73.5919 189.21C73.8051 189.069 73.8574 188.787 73.7166 188.581C73.5758 188.376 73.2861 188.327 73.0769 188.468C73.0648 188.472 73.0608 188.48 73.0568 188.48Z" fill="#4AA5A2"/>
<path d="M70.1026 190.831C70.1026 190.831 70.0664 191.38 69.8934 192.158C69.7284 192.949 69.3864 193.985 68.9076 194.965C68.4288 195.945 67.8172 196.868 67.278 197.497C66.7429 198.13 66.3164 198.493 66.3164 198.493C66.3164 198.493 66.763 198.159 67.3344 197.546C67.9138 196.945 68.5857 196.046 69.1289 195.074C69.6721 194.102 70.0825 193.057 70.2998 192.251C70.5291 191.432 70.5935 190.892 70.5935 190.892L70.5975 190.868C70.6136 190.735 70.517 190.614 70.3802 190.602C70.2434 190.59 70.1187 190.686 70.1026 190.819C70.1026 190.823 70.1026 190.827 70.1026 190.831Z" fill="#4AA5A2"/>
<path d="M63.6093 193.993C63.6093 193.993 63.5007 194.425 63.2714 195.037C63.046 195.658 62.6799 196.465 62.2333 197.235C61.7866 198.001 61.2555 198.731 60.7807 199.207C60.314 199.691 59.9277 199.941 59.9277 199.941C59.9277 199.941 60.3301 199.723 60.8371 199.264C61.3521 198.816 61.9436 198.118 62.4586 197.368C62.9696 196.618 63.4041 195.816 63.6818 195.195C63.9674 194.566 64.1083 194.142 64.1083 194.142L64.1123 194.126C64.1565 193.989 64.0801 193.848 63.9433 193.803C63.8065 193.763 63.6576 193.84 63.6134 193.973C63.6134 193.981 63.6093 193.985 63.6093 193.993Z" fill="#4AA5A2"/>
<path d="M57.6424 195.872C57.6424 195.872 57.5016 196.163 57.2481 196.562C56.9987 196.965 56.6164 197.481 56.1899 197.961C55.7594 198.437 55.2806 198.872 54.8863 199.155C54.492 199.441 54.1982 199.582 54.1982 199.582C54.1982 199.582 54.5 199.457 54.9144 199.195C55.3289 198.937 55.8439 198.526 56.3106 198.07C56.7733 197.61 57.1958 197.11 57.4815 196.707C57.7712 196.304 57.9281 196.025 57.9281 196.025L57.9321 196.017C57.9764 195.941 57.9482 195.844 57.8678 195.8C57.7913 195.759 57.6907 195.787 57.6465 195.864C57.6465 195.868 57.6424 195.868 57.6424 195.872Z" fill="#4AA5A2"/>
<path d="M70.3568 190.702C70.3568 190.702 69.9464 190.331 69.2221 189.868C68.514 189.404 67.496 188.896 66.4297 188.529C65.3635 188.166 64.253 187.936 63.412 187.863C62.5711 187.783 62.0078 187.819 62.0078 187.819C62.0078 187.819 62.5751 187.811 63.404 187.936C64.2329 188.053 65.3192 188.339 66.3412 188.75C67.3672 189.166 68.3249 189.714 68.9807 190.198C69.6325 190.67 70.0268 191.065 70.0268 191.065C70.1234 191.162 70.2803 191.162 70.3769 191.065C70.4775 190.972 70.4775 190.815 70.3849 190.722C70.3809 190.718 70.3809 190.718 70.3769 190.714L70.3568 190.702Z" fill="#4AA5A2"/>
<path d="M63.9951 193.848C63.9951 193.848 63.6088 193.618 62.9812 193.332C62.3615 193.045 61.5085 192.727 60.6274 192.493C59.7462 192.263 58.8449 192.122 58.1609 192.122C57.4769 192.11 57.0303 192.211 57.0303 192.211C57.0303 192.211 57.4849 192.146 58.1569 192.203C58.8288 192.251 59.706 192.453 60.5509 192.739C61.3918 193.029 62.2006 193.4 62.78 193.719C63.3554 194.033 63.7215 194.287 63.7215 194.287C63.8382 194.368 64.0032 194.34 64.0877 194.223C64.1722 194.106 64.148 193.945 64.0273 193.864C64.0233 193.86 64.0193 193.856 64.0112 193.856L63.9951 193.848Z" fill="#4AA5A2"/>
<path d="M57.8511 195.803C57.8511 195.803 57.5573 195.67 57.0866 195.517C56.6198 195.364 55.9841 195.207 55.3403 195.114C54.6925 195.021 54.0407 194.993 53.5498 195.033C53.063 195.066 52.7451 195.146 52.7451 195.146C52.7451 195.146 53.067 195.09 53.5539 195.086C54.0407 195.078 54.6805 195.142 55.3082 195.275C55.9358 195.408 56.5474 195.598 56.986 195.775C57.4246 195.949 57.7102 196.098 57.7102 196.098C57.7907 196.138 57.8873 196.11 57.9315 196.033C57.9758 195.957 57.9476 195.86 57.8672 195.82C57.8631 195.82 57.8631 195.816 57.8591 195.816L57.8511 195.803Z" fill="#4AA5A2"/>
<path d="M103.588 216.926C106.425 215.188 109.249 211.466 111.832 209.377C114.415 207.288 117.159 205.304 120.298 204.187C123.436 203.07 127.045 202.905 129.975 204.397C132.904 205.889 134.904 209.256 134.167 212.442C133.544 215.128 131.23 217.152 128.784 218.531C120.986 222.935 110.585 222.27 103.588 216.926Z" fill="#65D1CA"/>
<path d="M132.9 206.933C132.9 206.933 132.598 207.155 132.075 207.542C131.544 207.929 130.808 208.45 129.866 209.047C129.404 209.349 128.885 209.655 128.337 209.978C127.794 210.305 127.195 210.615 126.587 210.946C125.352 211.583 124.004 212.208 122.628 212.773C121.248 213.321 119.839 213.809 118.5 214.204C117.828 214.39 117.18 214.583 116.556 214.724C115.933 214.878 115.345 215.015 114.794 215.12C113.699 215.345 112.778 215.487 112.13 215.575C111.482 215.66 111.112 215.708 111.112 215.708C111.112 215.708 111.482 215.672 112.134 215.616C112.782 215.555 113.712 215.45 114.818 215.265C115.373 215.184 115.969 215.067 116.6 214.942C117.232 214.825 117.892 214.656 118.576 214.499C119.94 214.152 121.376 213.716 122.793 213.22C124.205 212.708 125.593 212.131 126.873 211.531C127.504 211.216 128.124 210.93 128.691 210.619C129.263 210.317 129.802 210.022 130.285 209.732C131.258 209.172 132.071 208.647 132.606 208.284C133.146 207.917 133.455 207.712 133.455 207.712C133.677 207.563 133.737 207.264 133.588 207.05C133.439 206.837 133.137 206.78 132.916 206.933C132.912 206.925 132.904 206.929 132.9 206.933Z" fill="#4AA5A2"/>
<path d="M129.789 209.405C129.789 209.405 129.749 209.982 129.568 210.805C129.395 211.635 129.033 212.724 128.53 213.761C128.027 214.793 127.383 215.765 126.812 216.426C126.248 217.096 125.802 217.475 125.802 217.475C125.802 217.475 126.273 217.12 126.876 216.479C127.488 215.846 128.192 214.898 128.763 213.874C129.334 212.849 129.765 211.752 129.994 210.902C130.236 210.043 130.304 209.47 130.304 209.47L130.308 209.446C130.324 209.305 130.224 209.18 130.079 209.164C129.934 209.147 129.805 209.252 129.789 209.393C129.789 209.397 129.789 209.401 129.789 209.405Z" fill="#4AA5A2"/>
<path d="M122.958 212.733C122.958 212.733 122.841 213.188 122.604 213.833C122.366 214.487 121.98 215.338 121.513 216.148C121.042 216.955 120.483 217.721 119.984 218.225C119.489 218.737 119.087 218.995 119.087 218.995C119.087 218.995 119.509 218.765 120.045 218.285C120.588 217.814 121.207 217.08 121.751 216.289C122.29 215.499 122.744 214.656 123.038 213.999C123.34 213.337 123.489 212.89 123.489 212.89L123.493 212.874C123.541 212.733 123.461 212.579 123.316 212.535C123.171 212.491 123.014 212.571 122.966 212.712C122.958 212.72 122.958 212.728 122.958 212.733Z" fill="#4AA5A2"/>
<path d="M116.677 214.712C116.677 214.712 116.528 215.019 116.263 215.438C115.997 215.866 115.599 216.406 115.148 216.91C114.697 217.41 114.19 217.87 113.776 218.164C113.362 218.463 113.052 218.616 113.052 218.616C113.052 218.616 113.37 218.483 113.804 218.209C114.243 217.939 114.782 217.507 115.273 217.023C115.76 216.539 116.206 216.011 116.504 215.592C116.81 215.168 116.975 214.874 116.975 214.874L116.979 214.866C117.023 214.785 116.995 214.684 116.914 214.64C116.83 214.596 116.729 214.628 116.681 214.708C116.677 214.708 116.677 214.708 116.677 214.712Z" fill="#4AA5A2"/>
<path d="M130.059 209.272C130.059 209.272 129.629 208.881 128.864 208.393C128.116 207.901 127.049 207.373 125.927 206.986C124.804 206.603 123.637 206.361 122.748 206.288C121.863 206.204 121.268 206.244 121.268 206.244C121.268 206.244 121.863 206.236 122.736 206.369C123.609 206.49 124.752 206.792 125.83 207.228C126.909 207.667 127.919 208.24 128.611 208.752C129.299 209.248 129.713 209.664 129.713 209.664C129.814 209.764 129.979 209.764 130.083 209.664C130.188 209.563 130.192 209.402 130.091 209.301C130.087 209.297 130.087 209.297 130.083 209.293L130.059 209.272Z" fill="#4AA5A2"/>
<path d="M123.364 212.579C123.364 212.579 122.958 212.337 122.298 212.039C121.646 211.737 120.745 211.402 119.823 211.156C118.898 210.914 117.944 210.769 117.224 210.765C116.504 210.753 116.033 210.857 116.033 210.857C116.033 210.857 116.512 210.789 117.216 210.849C117.924 210.902 118.85 211.111 119.735 211.414C120.62 211.716 121.473 212.108 122.081 212.446C122.684 212.777 123.07 213.043 123.07 213.043C123.195 213.128 123.368 213.1 123.457 212.979C123.545 212.858 123.517 212.688 123.396 212.599C123.392 212.595 123.384 212.591 123.38 212.587L123.364 212.579Z" fill="#4AA5A2"/>
<path d="M116.898 214.64C116.898 214.64 116.588 214.499 116.093 214.341C115.602 214.18 114.934 214.015 114.254 213.914C113.574 213.817 112.886 213.789 112.371 213.829C111.856 213.866 111.522 213.946 111.522 213.946C111.522 213.946 111.86 213.886 112.371 213.882C112.882 213.874 113.558 213.942 114.218 214.079C114.878 214.216 115.522 214.418 115.985 214.608C116.447 214.789 116.745 214.946 116.745 214.946C116.83 214.991 116.93 214.958 116.978 214.878C117.023 214.797 116.995 214.696 116.91 214.652C116.906 214.652 116.906 214.648 116.902 214.648L116.898 214.64Z" fill="#4AA5A2"/>
<path d="M209.183 221.64C212.019 219.902 214.844 216.18 217.427 214.091C220.01 212.002 222.754 210.018 225.893 208.901C229.031 207.784 232.64 207.619 235.569 209.111C238.499 210.603 240.498 213.97 239.762 217.156C239.138 219.842 236.825 221.866 234.378 223.245C226.581 227.645 216.176 226.983 209.183 221.64Z" fill="#65D1CA"/>
<path d="M238.491 211.648C238.491 211.648 238.189 211.869 237.666 212.256C237.135 212.644 236.399 213.164 235.457 213.761C234.994 214.063 234.475 214.37 233.928 214.692C233.385 215.019 232.785 215.329 232.178 215.66C230.943 216.297 229.595 216.922 228.219 217.487C226.839 218.035 225.43 218.523 224.09 218.918C223.419 219.104 222.771 219.297 222.147 219.439C221.523 219.592 220.936 219.729 220.385 219.834C219.29 220.06 218.369 220.201 217.721 220.289C217.073 220.374 216.703 220.422 216.703 220.422C216.703 220.422 217.073 220.386 217.725 220.33C218.373 220.269 219.302 220.164 220.409 219.979C220.964 219.898 221.56 219.781 222.191 219.656C222.823 219.539 223.483 219.37 224.167 219.213C225.531 218.866 226.967 218.43 228.384 217.934C229.796 217.422 231.188 216.846 232.464 216.245C233.095 215.93 233.715 215.644 234.282 215.333C234.854 215.031 235.393 214.737 235.876 214.446C236.849 213.886 237.662 213.361 238.197 212.998C238.736 212.631 239.046 212.426 239.046 212.426C239.267 212.277 239.328 211.978 239.179 211.764C239.03 211.551 238.728 211.494 238.503 211.648C238.503 211.639 238.495 211.643 238.491 211.648Z" fill="#4AA5A2"/>
<path d="M235.38 214.119C235.38 214.119 235.34 214.696 235.159 215.519C234.986 216.349 234.624 217.438 234.121 218.475C233.618 219.507 232.974 220.479 232.402 221.14C231.839 221.809 231.393 222.189 231.393 222.189C231.393 222.189 231.863 221.834 232.467 221.193C233.078 220.559 233.783 219.612 234.354 218.587C234.925 217.563 235.356 216.466 235.585 215.615C235.827 214.756 235.895 214.184 235.895 214.184L235.899 214.16C235.915 214.019 235.814 213.894 235.67 213.877C235.525 213.861 235.396 213.966 235.38 214.107C235.384 214.107 235.38 214.115 235.38 214.119Z" fill="#4AA5A2"/>
<path d="M228.548 217.446C228.548 217.446 228.432 217.902 228.194 218.547C227.957 219.201 227.571 220.051 227.104 220.862C226.633 221.669 226.074 222.435 225.575 222.939C225.08 223.451 224.678 223.709 224.678 223.709C224.678 223.709 225.1 223.479 225.635 222.999C226.179 222.527 226.798 221.794 227.341 221.003C227.881 220.213 228.335 219.37 228.629 218.713C228.931 218.051 229.08 217.604 229.08 217.604L229.084 217.588C229.132 217.446 229.051 217.293 228.907 217.249C228.762 217.204 228.605 217.285 228.556 217.426C228.552 217.434 228.548 217.438 228.548 217.446Z" fill="#4AA5A2"/>
<path d="M222.268 219.426C222.268 219.426 222.119 219.733 221.853 220.152C221.588 220.58 221.189 221.12 220.739 221.624C220.288 222.124 219.781 222.584 219.367 222.878C218.952 223.177 218.643 223.33 218.643 223.33C218.643 223.33 218.96 223.197 219.395 222.923C219.834 222.652 220.373 222.221 220.864 221.737C221.35 221.253 221.797 220.725 222.095 220.305C222.401 219.882 222.566 219.588 222.566 219.588L222.57 219.58C222.614 219.499 222.586 219.398 222.505 219.354C222.421 219.309 222.32 219.342 222.272 219.422C222.272 219.418 222.268 219.422 222.268 219.426Z" fill="#4AA5A2"/>
<path d="M235.65 213.982C235.65 213.982 235.219 213.591 234.455 213.103C233.707 212.611 232.64 212.083 231.518 211.696C230.395 211.313 229.228 211.071 228.339 210.998C227.454 210.913 226.858 210.954 226.858 210.954C226.858 210.954 227.454 210.946 228.327 211.079C229.2 211.2 230.343 211.502 231.421 211.938C232.499 212.377 233.509 212.95 234.201 213.462C234.89 213.958 235.304 214.373 235.304 214.373C235.405 214.474 235.569 214.474 235.674 214.373C235.779 214.273 235.783 214.111 235.682 214.01C235.678 214.006 235.678 214.006 235.674 214.002L235.65 213.982Z" fill="#4AA5A2"/>
<path d="M228.955 217.293C228.955 217.293 228.549 217.051 227.889 216.753C227.237 216.45 226.336 216.116 225.414 215.87C224.489 215.628 223.535 215.483 222.815 215.479C222.095 215.466 221.624 215.571 221.624 215.571C221.624 215.571 222.103 215.503 222.807 215.563C223.515 215.616 224.441 215.825 225.326 216.128C226.211 216.43 227.064 216.821 227.672 217.16C228.275 217.491 228.661 217.757 228.661 217.757C228.786 217.842 228.959 217.813 229.048 217.692C229.136 217.571 229.108 217.402 228.987 217.313C228.983 217.309 228.975 217.305 228.971 217.301L228.955 217.293Z" fill="#4AA5A2"/>
<path d="M222.489 219.354C222.489 219.354 222.179 219.213 221.684 219.055C221.193 218.894 220.525 218.729 219.845 218.628C219.165 218.531 218.477 218.503 217.962 218.543C217.447 218.579 217.113 218.66 217.113 218.66C217.113 218.66 217.451 218.6 217.962 218.596C218.473 218.588 219.149 218.656 219.809 218.793C220.469 218.93 221.113 219.132 221.575 219.321C222.038 219.503 222.336 219.66 222.336 219.66C222.42 219.705 222.521 219.672 222.569 219.592C222.614 219.511 222.585 219.41 222.501 219.366C222.497 219.366 222.497 219.362 222.493 219.362L222.489 219.354Z" fill="#4AA5A2"/>
<path d="M234.954 187.355C237.968 187.726 242.189 186.734 245.242 186.722C248.296 186.714 251.399 186.867 254.239 187.831C257.08 188.795 259.659 190.678 260.757 193.319C261.856 195.961 261.164 199.376 258.701 201.159C256.625 202.659 253.797 202.772 251.27 202.368C243.219 201.086 236.483 194.888 234.954 187.355Z" fill="#65D1CA"/>
<path d="M261.208 196.679C261.208 196.679 260.866 196.666 260.271 196.638C259.667 196.61 258.842 196.562 257.832 196.449C257.329 196.4 256.786 196.328 256.211 196.243C255.635 196.166 255.036 196.049 254.412 195.941C253.173 195.699 251.865 195.38 250.578 195.009C249.294 194.622 248.027 194.178 246.868 193.715C246.293 193.469 245.729 193.247 245.214 192.997C244.695 192.759 244.204 192.525 243.766 192.295C242.873 191.847 242.156 191.432 241.658 191.138C241.159 190.839 240.877 190.67 240.877 190.67C240.877 190.67 241.155 190.851 241.637 191.17C242.12 191.485 242.824 191.928 243.697 192.412C244.128 192.662 244.611 192.912 245.122 193.174C245.629 193.444 246.184 193.69 246.751 193.961C247.898 194.477 249.153 194.969 250.433 195.412C251.716 195.84 253.024 196.211 254.271 196.505C254.895 196.638 255.499 196.783 256.078 196.884C256.657 196.993 257.205 197.09 257.716 197.158C258.73 197.312 259.607 197.4 260.198 197.449C260.794 197.497 261.136 197.525 261.136 197.525C261.381 197.546 261.602 197.372 261.631 197.142C261.659 196.912 261.486 196.707 261.24 196.691C261.22 196.679 261.212 196.679 261.208 196.679Z" fill="#4AA5A2"/>
<path d="M257.559 196.658C257.559 196.658 257.177 197.033 256.549 197.497C255.921 197.973 255.004 198.521 254.026 198.953C253.049 199.384 252.01 199.695 251.214 199.836C250.417 199.985 249.878 199.997 249.878 199.997C249.878 199.997 250.417 200.013 251.226 199.905C252.035 199.808 253.097 199.546 254.119 199.159C255.137 198.771 256.106 198.255 256.786 197.8C257.478 197.34 257.877 196.989 257.877 196.989L257.893 196.973C257.989 196.884 257.998 196.743 257.909 196.654C257.82 196.566 257.668 196.562 257.571 196.65C257.563 196.65 257.559 196.654 257.559 196.658Z" fill="#4AA5A2"/>
<path d="M250.823 195.166C250.823 195.166 250.465 195.416 249.906 195.727C249.343 196.045 248.558 196.416 247.737 196.715C246.916 197.009 246.067 197.227 245.416 197.295C244.764 197.376 244.325 197.328 244.325 197.328C244.325 197.328 244.756 197.404 245.42 197.368C246.084 197.344 246.961 197.183 247.814 196.941C248.667 196.695 249.5 196.368 250.103 196.082C250.715 195.795 251.089 195.57 251.089 195.57L251.105 195.561C251.226 195.489 251.262 195.34 251.189 195.231C251.117 195.122 250.96 195.09 250.839 195.162C250.835 195.162 250.831 195.166 250.823 195.166Z" fill="#4AA5A2"/>
<path d="M245.299 193.061C245.299 193.061 245.009 193.19 244.57 193.332C244.128 193.477 243.52 193.63 242.901 193.727C242.281 193.824 241.653 193.856 241.187 193.832C240.72 193.807 240.414 193.743 240.414 193.743C240.414 193.743 240.712 193.828 241.183 193.88C241.649 193.936 242.285 193.936 242.917 193.876C243.548 193.815 244.176 193.694 244.639 193.573C245.11 193.453 245.403 193.34 245.403 193.34L245.411 193.336C245.492 193.303 245.536 193.219 245.504 193.142C245.476 193.065 245.383 193.029 245.303 193.061C245.303 193.057 245.299 193.057 245.299 193.061Z" fill="#4AA5A2"/>
<path d="M257.824 196.715C257.824 196.715 257.768 196.207 257.542 195.453C257.329 194.702 256.923 193.747 256.388 192.864C255.853 191.98 255.197 191.17 254.633 190.63C254.078 190.081 253.644 189.783 253.644 189.783C253.644 189.783 254.058 190.105 254.577 190.678C255.104 191.243 255.7 192.081 256.174 192.977C256.645 193.872 256.987 194.828 257.148 195.557C257.317 196.279 257.345 196.791 257.345 196.791C257.353 196.916 257.466 197.009 257.599 196.997C257.732 196.985 257.832 196.876 257.824 196.751C257.824 196.747 257.824 196.743 257.824 196.739V196.715Z" fill="#4AA5A2"/>
<path d="M251.198 195.287C251.198 195.287 251.069 194.9 250.8 194.328C250.538 193.759 250.128 193.033 249.641 192.356C249.154 191.678 248.591 191.053 248.096 190.654C247.609 190.247 247.223 190.061 247.223 190.061C247.223 190.061 247.593 190.275 248.039 190.71C248.494 191.138 248.997 191.791 249.424 192.489C249.846 193.186 250.192 193.924 250.401 194.493C250.615 195.053 250.715 195.449 250.715 195.449C250.747 195.578 250.884 195.65 251.021 195.618C251.158 195.582 251.242 195.453 251.21 195.324C251.21 195.32 251.206 195.312 251.206 195.307L251.198 195.287Z" fill="#4AA5A2"/>
<path d="M245.496 193.134C245.496 193.134 245.371 192.868 245.125 192.485C244.888 192.102 244.53 191.622 244.124 191.178C243.717 190.735 243.263 190.335 242.884 190.081C242.51 189.823 242.229 189.694 242.229 189.694C242.229 189.694 242.498 189.839 242.852 190.118C243.21 190.392 243.629 190.815 243.999 191.275C244.369 191.735 244.687 192.227 244.892 192.614C245.097 192.993 245.206 193.267 245.206 193.267C245.234 193.344 245.327 193.38 245.407 193.348C245.488 193.315 245.532 193.231 245.5 193.154C245.5 193.15 245.496 193.15 245.496 193.146V193.134Z" fill="#4AA5A2"/>
<path d="M161.515 229C161.149 225.814 158.908 221.75 158.099 218.624C157.286 215.495 156.65 212.277 157.005 209.115C157.359 205.954 158.823 202.816 161.539 200.998C164.255 199.179 168.327 198.994 170.999 201.05C173.252 202.784 174.117 205.655 174.322 208.345C174.974 216.931 169.687 225.46 161.515 229Z" fill="#65D1CA"/>
<path d="M165.241 199.655C165.241 199.655 165.314 200.01 165.442 200.627C165.571 201.252 165.732 202.111 165.865 203.175C165.945 203.704 166.002 204.28 166.058 204.889C166.122 205.498 166.146 206.143 166.187 206.809C166.235 208.143 166.219 209.563 166.13 210.982C166.026 212.398 165.857 213.813 165.631 215.124C165.503 215.777 165.394 216.414 165.249 217.007C165.112 217.604 164.98 218.165 164.831 218.677C164.553 219.709 164.271 220.552 164.066 221.141C163.857 221.729 163.736 222.064 163.736 222.064C163.736 222.064 163.869 221.733 164.106 221.157C164.34 220.576 164.658 219.741 164.98 218.721C165.153 218.213 165.31 217.656 165.475 217.064C165.648 216.475 165.784 215.842 165.941 215.188C166.227 213.878 166.46 212.462 166.625 211.035C166.774 209.607 166.855 208.168 166.863 206.817C166.851 206.139 166.859 205.486 166.818 204.865C166.79 204.244 166.754 203.655 166.698 203.115C166.609 202.034 166.476 201.115 166.376 200.498C166.275 199.877 166.215 199.518 166.215 199.518C166.175 199.26 165.921 199.078 165.648 199.11C165.378 199.143 165.193 199.373 165.233 199.631C165.237 199.639 165.241 199.647 165.241 199.655Z" fill="#4AA5A2"/>
<path d="M166.174 203.401C166.174 203.401 166.702 203.696 167.394 204.216C168.098 204.736 168.963 205.53 169.715 206.422C170.464 207.313 171.091 208.293 171.457 209.071C171.836 209.845 171.993 210.398 171.993 210.398C171.993 210.398 171.868 209.841 171.534 209.043C171.212 208.24 170.637 207.22 169.928 206.276C169.22 205.333 168.379 204.474 167.679 203.897C166.975 203.308 166.468 202.994 166.468 202.994L166.448 202.982C166.323 202.905 166.158 202.933 166.082 203.05C166.005 203.167 166.042 203.321 166.166 203.397C166.166 203.393 166.17 203.397 166.174 203.401Z" fill="#4AA5A2"/>
<path d="M166.246 210.688C166.246 210.688 166.625 210.99 167.123 211.482C167.63 211.974 168.262 212.684 168.813 213.446C169.365 214.208 169.835 215.023 170.081 215.676C170.342 216.326 170.403 216.785 170.403 216.785C170.403 216.785 170.375 216.321 170.161 215.652C169.96 214.979 169.546 214.124 169.047 213.313C168.544 212.503 167.952 211.736 167.469 211.192C166.983 210.64 166.629 210.313 166.629 210.313L166.616 210.301C166.504 210.196 166.323 210.196 166.218 210.301C166.114 210.406 166.118 210.571 166.23 210.676C166.234 210.68 166.242 210.684 166.246 210.688Z" fill="#4AA5A2"/>
<path d="M165.297 216.906C165.297 216.906 165.518 217.168 165.796 217.584C166.078 217.999 166.412 218.58 166.685 219.189C166.955 219.798 167.16 220.431 167.253 220.919C167.349 221.403 167.353 221.733 167.353 221.733C167.353 221.733 167.373 221.407 167.305 220.911C167.245 220.419 167.08 219.765 166.846 219.136C166.609 218.503 166.311 217.894 166.05 217.451C165.788 217.003 165.583 216.729 165.583 216.729L165.575 216.721C165.518 216.644 165.41 216.624 165.329 216.676C165.253 216.725 165.233 216.83 165.289 216.906C165.293 216.898 165.293 216.902 165.297 216.906Z" fill="#4AA5A2"/>
<path d="M166.17 203.111C166.17 203.111 165.607 203.304 164.806 203.728C164.009 204.143 163.031 204.813 162.162 205.591C161.297 206.373 160.549 207.256 160.078 207.974C159.599 208.688 159.374 209.208 159.374 209.208C159.374 209.208 159.636 208.7 160.151 208.018C160.658 207.333 161.45 206.498 162.347 205.78C163.245 205.063 164.239 204.462 165.027 204.107C165.804 203.744 166.379 203.583 166.379 203.583C166.52 203.542 166.592 203.401 166.544 203.268C166.496 203.135 166.347 203.058 166.206 203.099C166.202 203.099 166.198 203.103 166.194 203.103L166.17 203.111Z" fill="#4AA5A2"/>
<path d="M166.287 210.273C166.287 210.273 165.88 210.507 165.297 210.934C164.722 211.353 164.001 211.962 163.358 212.64C162.714 213.317 162.15 214.059 161.825 214.668C161.491 215.273 161.378 215.721 161.378 215.721C161.378 215.721 161.527 215.285 161.901 214.713C162.267 214.136 162.879 213.446 163.563 212.829C164.247 212.212 164.995 211.668 165.587 211.301C166.166 210.934 166.593 210.728 166.593 210.728C166.729 210.664 166.778 210.502 166.701 210.369C166.625 210.24 166.456 210.188 166.319 210.252C166.315 210.257 166.307 210.257 166.303 210.261L166.287 210.273Z" fill="#4AA5A2"/>
<path d="M165.326 216.685C165.326 216.685 165.056 216.882 164.682 217.233C164.308 217.576 163.857 218.072 163.459 218.6C163.06 219.132 162.726 219.705 162.533 220.161C162.336 220.612 162.264 220.931 162.264 220.931C162.264 220.931 162.356 220.616 162.586 220.181C162.807 219.745 163.177 219.201 163.6 218.701C164.026 218.205 164.505 217.745 164.887 217.439C165.265 217.128 165.547 216.947 165.547 216.947C165.623 216.894 165.644 216.793 165.587 216.717C165.531 216.64 165.422 216.62 165.342 216.673C165.338 216.673 165.338 216.677 165.334 216.677L165.326 216.685Z" fill="#4AA5A2"/>
<path d="M274.824 227.734C273.4 224.826 269.911 221.657 268.084 218.943C266.262 216.225 264.572 213.37 263.84 210.265C263.107 207.159 263.437 203.744 265.397 201.195C267.356 198.647 271.15 197.235 274.373 198.368C277.089 199.324 278.884 201.784 279.982 204.272C283.503 212.212 281.37 221.899 274.824 227.734Z" fill="#63D1CA"/>
<path d="M268.451 198.8C268.451 198.8 268.64 199.114 268.97 199.659C269.3 200.211 269.743 200.977 270.234 201.945C270.487 202.425 270.736 202.949 270.994 203.514C271.26 204.07 271.501 204.675 271.762 205.296C272.257 206.546 272.72 207.897 273.118 209.269C273.497 210.644 273.815 212.031 274.044 213.345C274.14 214.003 274.257 214.64 274.318 215.245C274.39 215.85 274.45 216.422 274.482 216.955C274.567 218.015 274.587 218.902 274.591 219.523C274.591 220.144 274.591 220.499 274.591 220.499C274.591 220.499 274.607 220.144 274.635 219.527C274.659 218.906 274.68 218.019 274.643 216.955C274.635 216.422 274.595 215.846 274.551 215.233C274.515 214.62 274.43 213.979 274.362 213.313C274.189 211.986 273.935 210.575 273.609 209.172C273.267 207.772 272.861 206.385 272.41 205.103C272.173 204.466 271.956 203.845 271.71 203.268C271.473 202.687 271.243 202.143 271.006 201.647C270.555 200.651 270.121 199.82 269.819 199.264C269.513 198.703 269.336 198.384 269.336 198.384C269.212 198.155 268.91 198.058 268.664 198.171C268.419 198.284 268.322 198.558 268.447 198.788C268.447 198.788 268.451 198.796 268.451 198.8Z" fill="#4AA5A2"/>
<path d="M270.603 202.066C270.603 202.066 271.203 202.183 272.032 202.466C272.877 202.744 273.963 203.232 274.973 203.849C275.983 204.466 276.904 205.204 277.516 205.833C278.135 206.454 278.469 206.93 278.469 206.93C278.469 206.93 278.164 206.438 277.58 205.784C277.005 205.123 276.112 204.329 275.126 203.651C274.136 202.974 273.05 202.413 272.193 202.082C271.327 201.74 270.74 201.595 270.74 201.595L270.716 201.59C270.571 201.554 270.426 201.635 270.39 201.768C270.354 201.901 270.442 202.038 270.587 202.074C270.591 202.062 270.599 202.066 270.603 202.066Z" fill="#4AA5A2"/>
<path d="M273.126 208.95C273.126 208.95 273.585 209.123 274.224 209.434C274.872 209.748 275.709 210.228 276.49 210.781C277.266 211.337 277.99 211.966 278.445 212.507C278.912 213.039 279.125 213.458 279.125 213.458C279.125 213.458 278.944 213.031 278.517 212.458C278.099 211.882 277.419 211.196 276.671 210.579C275.918 209.966 275.105 209.418 274.462 209.051C273.814 208.676 273.367 208.474 273.367 208.474L273.351 208.466C273.21 208.401 273.037 208.454 272.973 208.587C272.909 208.716 272.969 208.873 273.114 208.938C273.114 208.946 273.122 208.95 273.126 208.95Z" fill="#4AA5A2"/>
<path d="M274.325 215.128C274.325 215.128 274.622 215.309 275.025 215.616C275.431 215.922 275.942 216.374 276.409 216.866C276.872 217.362 277.278 217.898 277.527 218.33C277.785 218.761 277.898 219.072 277.898 219.072C277.898 219.072 277.805 218.753 277.576 218.31C277.354 217.862 276.976 217.293 276.542 216.765C276.107 216.237 275.616 215.749 275.218 215.41C274.82 215.063 274.534 214.866 274.534 214.866L274.526 214.858C274.445 214.801 274.337 214.817 274.28 214.89C274.224 214.963 274.24 215.063 274.321 215.12C274.321 215.124 274.321 215.124 274.325 215.128Z" fill="#4AA5A2"/>
<path d="M270.499 201.796C270.499 201.796 270.032 202.147 269.417 202.796C268.801 203.429 268.101 204.361 267.542 205.365C266.986 206.369 266.572 207.434 266.371 208.256C266.161 209.079 266.117 209.64 266.117 209.64C266.117 209.64 266.194 209.079 266.451 208.277C266.701 207.47 267.171 206.442 267.775 205.49C268.382 204.538 269.123 203.667 269.751 203.087C270.362 202.51 270.853 202.179 270.853 202.179C270.97 202.099 270.994 201.945 270.905 201.832C270.817 201.72 270.648 201.695 270.527 201.776C270.523 201.78 270.519 201.78 270.515 201.784L270.499 201.796Z" fill="#4AA5A2"/>
<path d="M273.025 208.547C273.025 208.547 272.719 208.893 272.313 209.474C271.906 210.047 271.432 210.845 271.049 211.68C270.671 212.515 270.386 213.39 270.285 214.067C270.172 214.741 270.217 215.201 270.217 215.201C270.217 215.201 270.209 214.741 270.373 214.088C270.526 213.43 270.872 212.591 271.311 211.797C271.75 211.007 272.277 210.261 272.711 209.736C273.138 209.216 273.472 208.889 273.472 208.889C273.58 208.785 273.572 208.619 273.456 208.518C273.339 208.418 273.162 208.422 273.053 208.522C273.049 208.527 273.045 208.531 273.041 208.535L273.025 208.547Z" fill="#4AA5A2"/>
<path d="M274.281 214.91C274.281 214.91 274.092 215.18 273.858 215.624C273.621 216.063 273.359 216.668 273.158 217.293C272.961 217.918 272.836 218.564 272.808 219.051C272.772 219.539 272.812 219.866 272.812 219.866C272.812 219.866 272.796 219.539 272.864 219.06C272.925 218.58 273.094 217.951 273.327 217.35C273.565 216.749 273.862 216.172 274.12 215.761C274.373 215.354 274.578 215.091 274.578 215.091C274.635 215.019 274.619 214.918 274.538 214.862C274.458 214.809 274.349 214.821 274.293 214.894C274.289 214.898 274.289 214.898 274.289 214.902L274.281 214.91Z" fill="#4AA5A2"/>
<path d="M148.128 45.6047C148.128 45.6047 151.585 21.9534 133.008 14.3277C114.435 6.70607 102.127 13.7712 96.9805 20.6347C98.099 19.1426 103.692 19.4411 105.309 19.6064C109.373 20.0177 113.385 21.3082 116.422 23.9899C123.045 29.8291 121.939 38.4952 117.485 44.6772L148.128 45.6047Z" fill="#FBF5EB"/>
<path d="M100.557 19.9251C101.185 17.2112 99.2215 14.4367 96.1676 13.727C93.1177 13.0173 90.1322 14.6424 89.5045 17.3604C88.8769 20.0743 90.8404 22.8488 93.8943 23.5585C96.9442 24.2683 99.9297 22.6431 100.557 19.9251Z" fill="#FA6E5A"/>
<path d="M147.641 33.3818C148.028 35.3618 148.233 37.249 148.321 38.9185C139.502 35.7368 129.576 35.2489 120.724 37.5313C121.114 35.7529 121.206 33.9423 120.949 32.1639C129.592 30.3291 138.991 30.7565 147.641 33.3818Z" fill="#FA6E5A"/>
<path d="M142.576 21.5825C143.976 23.4092 145.05 25.3772 145.867 27.3733C137.18 25.2441 127.954 25.6352 119.802 28.4016C119.05 26.841 117.967 25.361 116.471 24.0303C124.582 21.0582 133.724 20.2154 142.576 21.5825Z" fill="#FA6E5A"/>
<path d="M105.849 19.671C110.202 15.6868 115.698 12.8116 121.706 11.2751C125.166 11.6905 128.936 12.6543 133.008 14.3278C133.644 14.59 134.247 14.8722 134.835 15.1706C126.739 14.5779 118.491 16.9087 112.331 21.397C110.299 20.4897 108.09 19.9412 105.849 19.671Z" fill="#FA6E5A"/>
<path d="M121.798 166.623L119.166 164.216C119.13 162.994 119.057 161.776 118.957 160.567C118.925 160.2 118.603 159.933 118.241 159.958C117.875 159.99 117.605 160.312 117.633 160.675C117.73 161.841 117.798 163.014 117.834 164.188C117.83 164.192 117.822 164.196 117.818 164.204L115.312 167.168C115.074 167.45 115.11 167.87 115.388 168.107C115.513 168.212 115.666 168.265 115.818 168.265C116.008 168.265 116.193 168.184 116.325 168.031L117.866 166.208C117.866 166.595 117.871 166.986 117.862 167.374C117.862 167.39 117.858 167.41 117.858 167.426V167.632C117.854 167.999 118.148 168.297 118.514 168.305C118.518 168.305 118.522 168.305 118.522 168.305C118.884 168.305 119.178 168.015 119.186 167.652C119.194 167.119 119.198 166.587 119.194 166.055L120.896 167.611C121.025 167.728 121.186 167.785 121.343 167.785C121.524 167.785 121.701 167.712 121.834 167.567C122.087 167.293 122.067 166.869 121.798 166.623Z" fill="#6C97A3"/>
<path d="M101.901 164.24C101.877 162.385 101.813 160.47 101.696 159.082C101.664 158.715 101.342 158.449 100.98 158.473C100.614 158.506 100.344 158.828 100.372 159.191C100.481 160.506 100.545 162.361 100.569 164.155C100.553 164.172 100.541 164.184 100.525 164.196L98.0185 167.16C97.7811 167.442 97.8174 167.861 98.095 168.099C98.2197 168.204 98.3726 168.257 98.5255 168.257C98.7146 168.257 98.8997 168.176 99.0325 168.023L100.582 166.192C100.582 166.603 100.578 166.998 100.574 167.365C100.574 167.381 100.569 167.402 100.569 167.418V167.623C100.565 167.99 100.859 168.289 101.225 168.297C101.229 168.297 101.233 168.297 101.233 168.297C101.596 168.297 101.889 168.007 101.897 167.644C101.905 167.152 101.909 166.615 101.913 166.051L103.611 167.603C103.74 167.72 103.901 167.777 104.058 167.777C104.239 167.777 104.416 167.704 104.549 167.559C104.794 167.289 104.778 166.865 104.505 166.619L101.901 164.24Z" fill="#6C97A3"/>
<path d="M174.282 81.3458C174.024 70.4698 171.993 61.6222 168.066 54.2869C164.4 47.4395 158.815 42.0641 152.748 39.5477C143.393 35.6683 133.841 34.3819 125.126 35.8256C115.332 37.4508 106.714 42.6206 101.483 50.0083C95.001 59.1664 93.9428 70.8166 92.9248 82.0837L92.7719 83.7452C91.7379 94.98 89.9393 107.675 81.5783 116.155C79.3211 118.446 74.6819 122.128 68.9885 121.063C67.8297 120.845 66.7634 120.47 65.8139 119.942C65.4678 119.748 65.1017 119.522 64.7637 119.289C65.7414 116.792 66.3128 114.171 66.4536 111.49C66.522 110.159 66.4938 108.453 65.6529 107.074C65.2505 106.416 64.5183 105.763 63.6693 105.908C62.8847 106.041 62.3254 106.779 62.0518 108.046C61.5649 110.288 61.573 112.655 62.0437 114.925L59.9515 109.743C59.7141 109.155 59.4445 108.485 58.9174 108.013C58.3984 107.55 57.5011 107.308 56.8694 107.78C56.4067 108.126 56.1975 108.743 56.2296 109.667C56.3021 111.929 57.135 114.111 58.4748 115.917C57.2315 114.978 55.948 114.087 54.6323 113.26C53.7551 112.707 52.6165 112.139 51.6106 112.647C50.9789 112.969 50.5604 113.699 50.5483 114.506C50.5363 115.135 50.7535 115.808 51.1921 116.514C52.3268 118.337 54.4391 119.648 56.9861 120.111C57.831 120.264 58.68 120.325 59.5169 120.325C60.6113 120.325 61.6856 120.22 62.7036 120.087C62.1081 128.519 68.3568 137.661 73.9737 144.069C74.7301 144.932 75.5268 145.775 76.3436 146.573C83.6907 153.771 93.0456 158.498 103.394 160.24C106.331 160.736 109.285 160.978 112.234 160.978C119.509 160.978 126.739 159.482 133.515 156.542C151.883 148.565 166.573 131.165 170.938 112.203C173.389 101.553 174.515 91.1692 174.282 81.3458Z" fill="#A2E0C1"/>
<path d="M114.62 105.546C111.332 104.049 107.812 104.429 105.438 105.013C101.628 105.949 97.8293 108.05 94.1437 111.26C90.8765 114.111 88.06 117.49 85.336 120.757C84.7164 121.499 84.0123 122.341 83.6984 123.358C83.3966 124.317 83.4932 125.62 84.3824 126.362C85.2073 127.052 86.358 126.999 87.2714 126.882C89.9511 126.527 92.5181 125.539 94.7432 124.035C92.6549 126.451 90.5023 129.35 88.4986 132.463C88.1083 133.068 87.3036 134.572 88.2612 135.439C89.0136 136.121 90.3534 135.915 91.2789 135.435C95.1979 133.403 98.6058 131.27 102.211 129.011C102.473 128.85 102.734 128.685 102.996 128.519C102.883 128.632 102.774 128.745 102.662 128.858C100.147 131.407 97.5476 134.04 95.7933 137.113C95.3025 137.972 94.8156 138.891 94.6869 139.912C94.542 141.069 94.9605 142.182 95.7451 142.746C96.2561 143.113 96.8515 143.242 97.4511 143.242C98.0305 143.242 98.6139 143.126 99.1289 142.992C103.659 141.839 108.214 139.113 112.676 134.891C117.698 130.136 120.655 125.225 121.464 120.301C122.478 114.127 119.537 107.784 114.62 105.546Z" fill="#87C7A7"/>
<path d="M132.078 63.3845C131.603 63.5015 131.31 63.9814 131.426 64.4572C131.752 65.796 131.229 67.3284 130.159 68.1914C129.089 69.0544 127.479 69.2278 126.248 68.6189C125.017 68.0099 124.176 66.6227 124.208 65.2476C124.22 64.7556 123.83 64.3524 123.343 64.3403C122.86 64.3322 122.45 64.7193 122.438 65.2073C122.393 67.2841 123.609 69.2923 125.467 70.2117C126.212 70.5787 127.029 70.7602 127.849 70.7602C129.077 70.7602 130.304 70.3569 131.274 69.5786C132.887 68.2801 133.643 66.0541 133.153 64.0378C133.036 63.562 132.553 63.2676 132.078 63.3845Z" fill="#3F4553"/>
<path d="M162.118 64.0378C162.002 63.562 161.523 63.2676 161.048 63.3845C160.573 63.5015 160.279 63.9814 160.396 64.4572C160.722 65.796 160.199 67.3284 159.129 68.1914C158.058 69.0544 156.449 69.2278 155.218 68.6189C153.987 68.0099 153.146 66.6227 153.178 65.2476C153.19 64.7556 152.8 64.3524 152.313 64.3403C151.826 64.3322 151.419 64.7193 151.407 65.2073C151.363 67.28 152.578 69.2923 154.437 70.2117C155.182 70.5787 155.998 70.7602 156.819 70.7602C158.046 70.7602 159.274 70.3569 160.243 69.5786C161.853 68.2801 162.609 66.0541 162.118 64.0378Z" fill="#3F4553"/>
<path d="M160.453 88.4108C160.216 87.8543 159.761 87.3745 159.439 87.0639C158.948 86.5881 158.453 86.1163 157.958 85.6445C156.345 84.108 154.538 82.5555 152.277 80.7569C152.076 80.5956 151.855 80.4061 151.625 80.2045C150.684 79.3818 149.509 78.3616 148.31 78.3616C147.875 78.3616 147.505 78.5874 147.111 78.8294L146.982 78.906C146.29 79.3254 145.666 79.8415 145.131 80.4464C144.258 81.4223 143.204 82.987 143.087 84.1766C143.083 84.229 143.079 84.2814 143.079 84.3339C143.079 84.3742 143.079 84.4105 143.083 84.4508C143.16 85.584 144.113 86.3381 144.958 87.0035C145.127 87.1365 145.288 87.2656 145.437 87.3906C146.443 88.2455 147.638 89.2416 148.901 90.1287C151.146 91.7055 153.713 92.9395 156.538 93.7944C156.671 93.8347 156.816 93.8589 156.965 93.8589C157.242 93.8589 157.516 93.7702 157.661 93.5161C157.785 93.2984 157.83 92.9274 157.327 92.4031L152.148 86.9873C153.351 87.4269 154.546 87.8422 155.774 88.2011C156.61 88.4471 157.387 88.6407 158.139 88.7939C158.192 88.806 158.284 88.8302 158.401 88.8665C159.173 89.0883 159.962 89.2859 160.316 89.0682C160.421 89.0036 160.489 88.9109 160.513 88.7939C160.542 88.6447 160.497 88.5157 160.453 88.4108Z" fill="#3F4553"/>
<path d="M130.767 76.5791C128.759 75.458 124.953 76.1274 123.355 77.4461C122.981 77.7526 122.362 78.3978 122.394 79.2487C122.414 79.8455 122.78 80.4463 123.392 80.9061C124.289 81.5714 125.512 81.9182 126.759 81.9182C127.661 81.9182 128.57 81.7368 129.375 81.3698C130.103 81.0351 130.686 80.5794 131.101 80.0068C131.592 79.3293 131.801 78.4704 131.648 77.7687C131.539 77.2485 131.234 76.8372 130.767 76.5791Z" fill="#86D1AB"/>
<path d="M165.543 76.9462C165.43 76.43 165.124 76.0187 164.658 75.7566C162.65 74.6355 158.843 75.3049 157.246 76.6236C156.872 76.93 156.252 77.5753 156.284 78.4261C156.305 79.023 156.671 79.6238 157.282 80.0835C158.18 80.7489 159.403 81.0957 160.65 81.0957C161.551 81.0957 162.461 80.9143 163.265 80.5473C163.994 80.2126 164.577 79.7569 164.991 79.1843C165.486 78.5068 165.696 77.6478 165.543 76.9462Z" fill="#86D1AB"/>
<path d="M136.697 131.318C136.186 131.749 135.543 132.286 134.903 132.507C134.331 132.705 134.223 132.511 134.05 132.011C133.909 131.616 133.873 131.217 133.873 130.798C133.877 129.939 132.545 129.939 132.545 130.798C132.541 131.882 132.863 133.685 134.134 133.967C135.349 134.237 136.786 132.983 137.639 132.261C138.295 131.709 137.349 130.769 136.697 131.318Z" fill="#A6D4E0"/>
<path d="M145.184 131.838C144.673 132.169 144.15 132.475 143.602 132.741C143.208 132.935 142.629 133.27 142.122 133.358C141.892 132.895 141.86 131.987 141.788 131.624C141.623 130.785 140.343 131.14 140.504 131.979C140.693 132.943 140.697 134.846 142.118 134.721C143.353 134.612 144.846 133.645 145.856 132.991C146.572 132.524 145.904 131.37 145.184 131.838Z" fill="#A6D4E0"/>
<path d="M153.307 133.169C153.042 133.342 152.78 133.516 152.515 133.689C152.273 133.846 151.939 134.161 151.662 134.225C151.585 134.242 151.561 134.262 151.557 134.274C151.549 134.266 151.537 134.258 151.513 134.242C151.424 134.185 151.356 133.935 151.32 133.846C151.187 133.508 151.123 133.161 151.103 132.798C151.054 131.947 149.726 131.939 149.775 132.798C149.827 133.709 150.085 135.133 151.042 135.528C152.056 135.943 153.203 134.834 153.983 134.322C154.692 133.85 154.028 132.697 153.307 133.169Z" fill="#A6D4E0"/>
<path d="M136.987 139.544C136.383 139.952 135.78 140.359 135.176 140.762C134.879 140.96 134.641 141.242 134.255 140.936C133.973 140.714 133.949 140.101 133.941 139.782C133.929 138.927 132.601 138.923 132.613 139.782C132.625 140.77 133.08 142.315 134.247 142.484C134.75 142.557 135.176 142.339 135.591 142.085C136.295 141.649 136.971 141.157 137.663 140.694C138.367 140.222 137.703 139.069 136.987 139.544Z" fill="#A6D4E0"/>
<path d="M145.984 140.847C145.296 141.399 144.524 142.024 143.638 142.21C142.423 142.464 142.242 141.69 142.287 140.686C142.323 139.827 140.995 139.831 140.959 140.686C140.902 142.012 141.252 143.351 142.749 143.565C144.359 143.791 145.743 142.738 146.926 141.795C147.594 141.254 146.648 140.315 145.984 140.847Z" fill="#A6D4E0"/>
<path d="M137.985 147.589C137.41 148.041 136.573 148.376 135.833 148.251C135.108 148.13 135.225 147.315 135.314 146.747C135.442 145.908 134.163 145.545 134.03 146.392C133.857 147.513 133.845 148.912 135.076 149.424C136.36 149.961 137.909 149.327 138.923 148.529C139.599 148.005 138.653 147.065 137.985 147.589Z" fill="#A6D4E0"/>
<path d="M137.526 112.607C136.935 113.413 136.138 114.445 135.028 114.425C133.76 114.405 133.652 113.03 133.603 112.054C133.563 111.199 132.231 111.195 132.275 112.054C132.352 113.607 132.734 115.381 134.513 115.712C136.355 116.05 137.687 114.619 138.673 113.276C139.18 112.59 138.025 111.925 137.526 112.607Z" fill="#A6D4E0"/>
<path d="M147.018 112.796C146.362 113.587 145.601 114.256 144.676 114.712C144.209 114.942 144.093 115.006 143.573 114.813C143.042 114.615 143.05 114.534 142.902 114.038C142.753 113.542 142.668 113.034 142.596 112.522C142.475 111.675 141.196 112.038 141.312 112.877C141.509 114.272 141.884 116.397 143.682 116.381C145.312 116.369 146.977 114.917 147.955 113.736C148.498 113.083 147.565 112.135 147.018 112.796Z" fill="#A6D4E0"/>
<path d="M155.665 114.361C155.085 114.877 154.128 115.732 153.323 115.865C152.325 116.03 152.079 114.155 152.011 113.478C151.923 112.635 150.591 112.623 150.683 113.478C150.812 114.716 151.186 116.708 152.566 117.176C153.938 117.639 155.669 116.135 156.606 115.305C157.242 114.732 156.3 113.792 155.665 114.361Z" fill="#A6D4E0"/>
<path d="M164.287 115.087C163.865 115.389 163.442 115.696 163.02 115.998C162.73 116.208 162.167 116.784 161.805 116.813C160.694 116.909 160.525 114.804 160.61 114.131C160.718 113.284 159.386 113.292 159.282 114.131C159.109 115.498 159.616 117.264 160.919 117.958C162.348 118.716 163.909 116.994 164.959 116.236C165.647 115.744 164.983 114.587 164.287 115.087Z" fill="#A6D4E0"/>
<path d="M137.16 122.458C136.637 122.966 135.168 124.16 134.528 123.333C134.05 122.716 133.973 121.599 133.792 120.865C133.591 120.031 132.307 120.385 132.509 121.22C132.794 122.398 132.951 124.18 134.199 124.781C135.53 125.418 137.172 124.297 138.097 123.406C138.717 122.805 137.776 121.865 137.16 122.458Z" fill="#A6D4E0"/>
<path d="M146.201 123.301C145.674 123.797 144.7 125.091 143.924 125.027C142.854 124.934 142.644 123.503 142.483 122.668C142.322 121.825 141.043 122.184 141.2 123.023C141.461 124.394 141.964 125.946 143.485 126.325C145.006 126.708 146.161 125.16 147.135 124.245C147.766 123.656 146.825 122.716 146.201 123.301Z" fill="#A6D4E0"/>
<path d="M154.647 124.217C154.321 124.539 153.991 124.854 153.649 125.152C153.452 125.325 152.825 126.031 152.571 126.035C151.883 126.047 151.658 124.616 151.678 124.136C151.71 123.277 150.382 123.281 150.35 124.136C150.306 125.301 150.873 126.902 152.084 127.33C152.639 127.523 153.094 127.31 153.537 126.971C154.261 126.414 154.941 125.805 155.593 125.16C156.196 124.555 155.255 123.616 154.647 124.217Z" fill="#A6D4E0"/>
<path d="M162.843 124.208C162.444 124.717 162.018 125.265 161.422 125.547C160.819 125.834 159.64 125.729 159.938 124.781C160.195 123.962 158.916 123.612 158.654 124.426C158.268 125.652 159.153 126.862 160.392 127.027C161.841 127.221 162.955 126.201 163.784 125.148C164.307 124.487 163.374 123.535 162.843 124.208Z" fill="#A6D4E0"/>
<path d="M100.216 137.734C100.051 137.456 99.592 137.274 99.3063 137.496C98.6987 137.968 98.0872 138.435 97.4796 138.907C97.1939 139.125 97.045 139.48 97.2422 139.819C97.4072 140.097 97.8659 140.278 98.1515 140.057C98.7591 139.585 99.3707 139.117 99.9782 138.645C100.26 138.427 100.413 138.073 100.216 137.734Z" fill="#598E9C"/>
<path d="M111.567 132.677C111.402 132.39 110.947 132.225 110.657 132.439C109.921 132.983 109.181 133.524 108.444 134.068C108.155 134.282 108.014 134.645 108.207 134.979C108.372 135.266 108.827 135.431 109.116 135.217C109.853 134.673 110.593 134.132 111.329 133.588C111.619 133.374 111.76 133.011 111.567 132.677Z" fill="#598E9C"/>
<path d="M104.485 137C104.015 137.459 103.463 137.778 102.836 137.959C102.015 138.197 102.365 139.48 103.19 139.246C104.039 139 104.795 138.56 105.427 137.943C106.038 137.342 105.097 136.399 104.485 137Z" fill="#598E9C"/>
<path d="M90.1045 119.026C89.4567 119.551 88.7164 119.962 87.9318 120.248C87.1311 120.535 87.4771 121.825 88.2858 121.535C89.2998 121.168 90.2091 120.652 91.046 119.97C91.7099 119.43 90.7644 118.49 90.1045 119.026Z" fill="#598E9C"/>
<path d="M96.1763 114.215C95.3434 114.671 94.5146 115.123 93.6817 115.578C92.9293 115.99 93.6012 117.139 94.3536 116.728C95.1865 116.272 96.0154 115.82 96.8482 115.365C97.5966 114.953 96.9287 113.804 96.1763 114.215Z" fill="#598E9C"/>
<path d="M99.3624 118.591C99.2739 118.272 98.8796 117.994 98.5456 118.127C97.9662 118.353 97.3868 118.579 96.8034 118.801C96.4694 118.93 96.2361 119.248 96.3407 119.619C96.4292 119.938 96.8235 120.216 97.1575 120.083C97.7369 119.857 98.3163 119.631 98.8997 119.409C99.2337 119.28 99.463 118.962 99.3624 118.591Z" fill="#598E9C"/>
<path d="M103.149 108.945C102.385 109.404 101.588 109.796 100.751 110.106C99.9545 110.401 100.301 111.687 101.105 111.393C102.051 111.042 102.956 110.618 103.821 110.098C104.553 109.654 103.89 108.501 103.149 108.945Z" fill="#598E9C"/>
<path d="M106.943 112.268C105.869 112.836 104.754 113.272 103.588 113.598C102.763 113.828 103.113 115.111 103.942 114.885C105.217 114.53 106.444 114.042 107.615 113.421C108.372 113.018 107.704 111.868 106.943 112.268Z" fill="#598E9C"/>
<path d="M110.661 106.739C109.784 107.025 108.947 107.408 108.166 107.896C107.442 108.348 108.106 109.501 108.838 109.046C109.526 108.618 110.246 108.275 111.019 108.021C111.824 107.755 111.478 106.469 110.661 106.739Z" fill="#598E9C"/>
<path d="M115.683 109.977C114.999 110.147 114.315 110.316 113.631 110.481C112.802 110.687 113.152 111.969 113.985 111.768C114.669 111.598 115.353 111.429 116.037 111.264C116.865 111.058 116.511 109.772 115.683 109.977Z" fill="#598E9C"/>
<path d="M112.448 116.695C111.615 116.905 110.782 117.119 109.949 117.329C109.12 117.538 109.47 118.825 110.303 118.615C111.136 118.405 111.969 118.192 112.802 117.982C113.626 117.768 113.276 116.486 112.448 116.695Z" fill="#598E9C"/>
<path d="M105.326 119.829C104.521 120.333 103.701 120.805 102.86 121.244C102.099 121.639 102.771 122.789 103.532 122.394C104.373 121.954 105.193 121.482 105.998 120.978C106.718 120.526 106.054 119.373 105.326 119.829Z" fill="#598E9C"/>
<path d="M98.2847 125.16C97.7495 125.624 97.138 126.007 96.4821 126.277C96.1481 126.414 95.9148 126.72 96.0194 127.096C96.1039 127.41 96.5022 127.696 96.8362 127.559C97.7174 127.2 98.502 126.725 99.2222 126.103C99.87 125.543 98.9285 124.603 98.2847 125.16Z" fill="#598E9C"/>
<path d="M93.2428 130.531C92.6473 130.923 92.0558 131.314 91.4603 131.705C90.7482 132.173 91.4121 133.326 92.1323 132.854C92.7278 132.463 93.3193 132.072 93.9147 131.681C94.6269 131.213 93.959 130.06 93.2428 130.531Z" fill="#598E9C"/>
<path d="M107.72 125.717C107.181 125.87 106.638 126.019 106.099 126.172C105.278 126.402 105.624 127.688 106.453 127.459C106.992 127.305 107.535 127.156 108.074 127.003C108.895 126.769 108.545 125.483 107.72 125.717Z" fill="#598E9C"/>
<path d="M113.586 121.147C112.866 121.627 112.109 121.974 111.272 122.2C110.447 122.426 110.797 123.708 111.626 123.486C112.56 123.232 113.449 122.837 114.258 122.301C114.966 121.829 114.302 120.672 113.586 121.147Z" fill="#598E9C"/>
<path d="M119.38 114.897C118.547 115.115 117.718 115.336 116.885 115.554C116.061 115.772 116.411 117.058 117.24 116.841L119.734 116.183C120.563 115.962 120.209 114.675 119.38 114.897Z" fill="#598E9C"/>
<path d="M117.743 123.252L115.421 124.938C114.737 125.438 115.397 126.591 116.093 126.087L118.414 124.402C119.098 123.906 118.439 122.748 117.743 123.252Z" fill="#598E9C"/>
<path d="M111.864 128.479C111.164 128.914 110.436 129.225 109.639 129.426C108.81 129.64 109.161 130.922 109.993 130.713C110.891 130.483 111.748 130.116 112.532 129.628C113.261 129.18 112.597 128.027 111.864 128.479Z" fill="#598E9C"/>
<path d="M104.187 131.148C103.422 131.612 102.63 132.023 101.805 132.358C101.471 132.495 101.242 132.802 101.342 133.177C101.427 133.495 101.829 133.778 102.159 133.641C103.092 133.261 103.994 132.822 104.859 132.298C105.591 131.858 104.923 130.705 104.187 131.148Z" fill="#598E9C"/>
<path d="M172.13 106.493C171.776 108.388 171.377 110.296 170.939 112.211C168.533 122.664 162.984 132.641 155.412 140.827C155.367 141.452 155.331 142.077 155.303 142.702C155.263 143.565 155.255 144.404 155.573 145.174C155.87 145.892 156.591 146.638 157.504 146.638C157.54 146.638 157.576 146.638 157.613 146.634C158.618 146.569 159.29 145.658 159.709 144.98C160.526 143.654 161.198 142.17 161.66 140.702C161.66 141.343 161.684 141.988 161.737 142.625C161.821 143.682 162.171 144.319 162.775 144.521C163.238 144.674 163.797 144.513 164.199 144.101C164.549 143.75 164.738 143.287 164.887 142.879C165.398 141.504 165.744 140.028 165.909 138.577C165.933 138.722 165.957 138.867 165.99 139.012C166.191 139.891 166.766 140.726 167.454 141.137C167.929 141.424 168.44 141.5 168.931 141.363C169.659 141.162 170.235 140.524 170.693 139.419C171.51 137.439 171.784 135.342 172.017 133.185C172.777 126.128 173.031 118.958 172.773 111.865C172.713 110.078 172.592 108.227 172.13 106.493Z" fill="#87C7A7"/>
<path d="M162.759 136.847V138.399C162.759 139.258 164.087 139.258 164.087 138.399V136.847C164.087 135.988 162.759 135.988 162.759 136.847Z" fill="#598E9C"/>
<path d="M159.656 137.79V139.121C159.656 139.98 160.984 139.98 160.984 139.121V137.79C160.988 136.931 159.656 136.931 159.656 137.79Z" fill="#598E9C"/>
<path d="M157.109 141.452V142.783C157.109 143.642 158.437 143.642 158.437 142.783V141.452C158.437 140.593 157.109 140.593 157.109 141.452Z" fill="#598E9C"/>
<path d="M170.954 113.699V115.808C170.954 116.667 172.282 116.667 172.282 115.808V113.699C172.286 112.84 170.954 112.84 170.954 113.699Z" fill="#598E9C"/>
<path d="M170.733 119.248V121.801C170.733 122.66 172.061 122.66 172.061 121.801V119.248C172.061 118.393 170.733 118.389 170.733 119.248Z" fill="#598E9C"/>
<path d="M170.303 125.358C170.254 126.059 170.206 126.761 170.162 127.467C170.106 128.322 171.433 128.318 171.49 127.467C171.538 126.765 171.586 126.063 171.631 125.358C171.687 124.499 170.359 124.503 170.303 125.358Z" fill="#598E9C"/>
<path d="M169.872 130.685C169.49 130.685 169.236 130.991 169.208 131.35C169.168 131.866 169.128 132.387 169.088 132.903C169.059 133.262 169.413 133.568 169.751 133.568C170.134 133.568 170.387 133.262 170.415 132.903C170.456 132.387 170.496 131.866 170.536 131.35C170.564 130.991 170.21 130.685 169.872 130.685Z" fill="#598E9C"/>
<path d="M168.267 123.051C167.945 122.962 167.51 123.16 167.45 123.515C167.317 124.273 167.261 125.031 167.301 125.797C167.345 126.648 168.677 126.656 168.629 125.797C168.592 125.152 168.617 124.507 168.729 123.87C168.794 123.515 168.637 123.152 168.267 123.051Z" fill="#598E9C"/>
<path d="M166.19 131.35V132.681C166.19 133.54 167.518 133.54 167.518 132.681V131.35C167.522 130.491 166.19 130.491 166.19 131.35Z" fill="#598E9C"/>
<path d="M167.743 136.79V138.456C167.743 139.315 169.071 139.315 169.071 138.456V136.79C169.071 135.931 167.743 135.931 167.743 136.79Z" fill="#598E9C"/>
<path d="M164.416 131.685C164.388 131.326 164.131 131.02 163.753 131.02C163.415 131.02 163.06 131.326 163.089 131.685C163.125 132.149 163.105 132.604 163.008 133.064C162.936 133.415 163.113 133.786 163.471 133.883C163.801 133.975 164.215 133.77 164.288 133.419C164.412 132.842 164.461 132.266 164.416 131.685Z" fill="#598E9C"/>
<path d="M176.222 105.586C176.56 107.389 176.934 109.199 177.356 111.022C179.642 120.954 184.913 130.431 192.107 138.21C192.147 138.803 192.183 139.399 192.211 139.988C192.248 140.811 192.256 141.605 191.958 142.335C191.676 143.017 190.988 143.722 190.123 143.722C190.087 143.722 190.055 143.722 190.019 143.718C189.061 143.658 188.425 142.791 188.027 142.146C187.25 140.883 186.615 139.476 186.172 138.081C186.172 138.69 186.148 139.303 186.1 139.908C186.019 140.912 185.685 141.517 185.114 141.71C184.675 141.855 184.144 141.702 183.762 141.315C183.432 140.98 183.251 140.541 183.106 140.153C182.619 138.847 182.293 137.444 182.132 136.064C182.112 136.206 182.084 136.343 182.056 136.48C181.867 137.315 181.32 138.109 180.664 138.5C180.209 138.77 179.726 138.847 179.26 138.714C178.567 138.52 178.02 137.919 177.586 136.867C176.809 134.988 176.548 132.996 176.33 130.947C175.61 124.245 175.369 117.43 175.61 110.695C175.666 108.994 175.779 107.235 176.222 105.586Z" fill="#D9A4D1"/>
<path d="M185.122 134.423V135.899C185.122 136.714 183.858 136.714 183.858 135.899V134.423C183.862 133.608 185.122 133.604 185.122 134.423Z" fill="#B98BB2"/>
<path d="M188.071 135.318V136.584C188.071 137.399 186.808 137.399 186.808 136.584V135.318C186.808 134.504 188.071 134.504 188.071 135.318Z" fill="#B98BB2"/>
<path d="M190.49 138.798V140.065C190.49 140.879 189.227 140.879 189.227 140.065V138.798C189.227 137.984 190.49 137.984 190.49 138.798Z" fill="#B98BB2"/>
<path d="M177.337 112.433V114.437C177.337 115.252 176.073 115.252 176.073 114.437V112.433C176.073 111.619 177.337 111.619 177.337 112.433Z" fill="#B98BB2"/>
<path d="M177.546 117.704V120.128C177.546 120.942 176.282 120.942 176.282 120.128V117.704C176.286 116.893 177.546 116.889 177.546 117.704Z" fill="#B98BB2"/>
<path d="M177.961 123.507C178.005 124.172 178.049 124.841 178.097 125.507C178.154 126.321 176.89 126.317 176.834 125.507C176.79 124.841 176.745 124.172 176.697 123.507C176.641 122.692 177.904 122.696 177.961 123.507Z" fill="#B98BB2"/>
<path d="M178.366 128.572C178.728 128.572 178.97 128.862 178.998 129.205C179.034 129.697 179.074 130.189 179.111 130.681C179.139 131.024 178.801 131.314 178.479 131.314C178.117 131.314 177.875 131.024 177.847 130.681C177.811 130.189 177.771 129.697 177.735 129.205C177.71 128.862 178.044 128.572 178.366 128.572Z" fill="#B98BB2"/>
<path d="M179.888 121.317C180.194 121.232 180.604 121.422 180.664 121.761C180.789 122.482 180.845 123.2 180.805 123.93C180.761 124.741 179.498 124.745 179.542 123.93C179.574 123.317 179.55 122.704 179.445 122.099C179.389 121.761 179.538 121.414 179.888 121.317Z" fill="#B98BB2"/>
<path d="M181.863 129.201V130.467C181.863 131.282 180.6 131.282 180.6 130.467V129.201C180.6 128.386 181.863 128.386 181.863 129.201Z" fill="#B98BB2"/>
<path d="M180.386 134.371V135.952C180.386 136.766 179.123 136.766 179.123 135.952V134.371C179.127 133.556 180.386 133.552 180.386 134.371Z" fill="#B98BB2"/>
<path d="M183.549 129.519C183.574 129.177 183.823 128.886 184.181 128.886C184.503 128.886 184.837 129.177 184.813 129.519C184.781 129.963 184.797 130.394 184.889 130.83C184.958 131.165 184.793 131.515 184.447 131.608C184.133 131.693 183.743 131.503 183.67 131.165C183.553 130.62 183.505 130.072 183.549 129.519Z" fill="#B98BB2"/>
<path d="M212.358 163.922C212.293 163.684 212.104 163.514 211.883 163.458L211.63 155.643C211.617 155.276 211.304 154.977 210.946 154.998C210.579 155.01 210.29 155.316 210.302 155.683L210.543 163.192L206.858 165.168C206.536 165.341 206.411 165.744 206.584 166.071C206.705 166.297 206.934 166.422 207.171 166.422C207.276 166.422 207.385 166.398 207.485 166.345L209.702 165.156L208.358 167.539C208.177 167.858 208.29 168.265 208.608 168.446C208.712 168.507 208.825 168.531 208.934 168.531C209.167 168.531 209.388 168.41 209.513 168.192L211.292 165.043L212.032 167.728C212.112 168.023 212.382 168.216 212.672 168.216C212.732 168.216 212.788 168.208 212.849 168.192C213.203 168.095 213.408 167.728 213.311 167.374L212.358 163.922Z" fill="#D9A4D1"/>
<path d="M230.146 167.374L229.193 163.918C229.128 163.68 228.939 163.51 228.718 163.454L228.464 155.639C228.452 155.272 228.135 154.973 227.78 154.993C227.414 155.005 227.125 155.312 227.137 155.679L227.378 163.188L223.692 165.164C223.371 165.337 223.246 165.74 223.419 166.067C223.54 166.293 223.769 166.418 224.006 166.418C224.111 166.418 224.22 166.394 224.32 166.341L226.537 165.152L225.193 167.535C225.012 167.853 225.125 168.261 225.443 168.442C225.547 168.503 225.66 168.527 225.769 168.527C226.002 168.527 226.223 168.406 226.348 168.188L228.126 165.039L228.867 167.724C228.947 168.019 229.217 168.212 229.507 168.212C229.567 168.212 229.623 168.204 229.684 168.188C230.034 168.095 230.243 167.728 230.146 167.374Z" fill="#D9A4D1"/>
<path d="M203.353 48.5889C203.353 48.5889 200.242 27.3007 216.961 20.4412C233.679 13.5817 244.756 19.9412 249.383 26.1151C248.377 24.7722 243.343 25.0424 241.887 25.1876C238.229 25.5586 234.62 26.72 231.884 29.1315C225.925 34.386 226.919 42.1851 230.926 47.7501L203.353 48.5889Z" fill="#FBF5EB"/>
<path d="M246.168 25.4821C245.605 23.0383 247.371 20.5421 250.119 19.9049C252.863 19.2678 255.551 20.7316 256.114 23.1754C256.678 25.6192 254.911 28.1153 252.163 28.7525C249.415 29.3856 246.731 27.9258 246.168 25.4821Z" fill="#FA6E5A"/>
<path d="M203.791 37.5919C203.441 39.3703 203.26 41.0721 203.18 42.5763C211.118 39.7131 220.051 39.2735 228.017 41.3302C227.667 39.7292 227.583 38.1001 227.816 36.4991C220.035 34.8417 211.573 35.2288 203.791 37.5919Z" fill="#FA6E5A"/>
<path d="M208.35 26.9739C207.091 28.6192 206.121 30.3896 205.389 32.1841C213.207 30.2686 221.511 30.6194 228.846 33.1075C229.522 31.7042 230.5 30.3694 231.848 29.1717C224.545 26.5021 216.313 25.74 208.35 26.9739Z" fill="#FA6E5A"/>
<path d="M241.404 25.2522C237.485 21.6672 232.536 19.0783 227.133 17.6951C224.018 18.0701 220.626 18.9371 216.961 20.4413C216.39 20.6752 215.842 20.9333 215.319 21.1994C222.606 20.6671 230.03 22.7641 235.574 26.8047C237.397 25.9861 239.388 25.4941 241.404 25.2522Z" fill="#FA6E5A"/>
<path d="M280.928 120.805C280.662 120.305 280.023 120.027 279.371 120.123C278.815 120.208 278.337 120.515 277.902 120.833C276.667 121.744 275.585 122.857 274.534 123.938L270.257 128.338C272.265 125.942 274.06 123.37 275.609 120.652C276.514 119.059 277.351 117.333 277.323 115.506C277.311 114.808 277.166 114.256 276.884 113.816C276.514 113.248 275.898 112.913 275.303 112.97C274.538 113.038 274.003 113.679 273.625 114.232C271.726 116.99 270.809 120.269 269.919 123.442C269.453 125.1 268.974 126.797 268.358 128.427C268.954 126.567 269.485 124.672 269.823 122.741C270.466 119.075 270.326 115.776 269.396 112.929C269.284 112.582 269.119 112.203 268.756 112.042C268.189 111.788 267.618 112.236 267.304 112.699C266.189 114.32 266.262 116.389 266.443 118.547L267.392 129.786C263.984 130.455 260.689 127.725 259.277 126.346C255.016 122.18 254.758 115.74 254.529 110.062L254.509 109.59C254.163 101.154 253.785 94.0767 253.044 86.9551C251.463 71.6836 248.119 54.8999 235.32 46.1773C230.573 42.9432 224.501 41.185 217.765 41.0962C208.6 40.9632 200.094 43.9997 193.165 49.851C186.619 55.3757 181.778 63.0901 179.163 72.1635C176.387 81.8055 176.069 92.0201 176.105 99.8433C176.125 104.453 176.282 108.235 176.596 111.748C177.026 116.55 177.755 120.805 178.825 124.753C183.199 140.879 195.495 153.711 210.913 158.244C215.548 159.607 220.184 160.284 224.75 160.284C232.045 160.284 239.159 158.554 245.782 155.118C257.004 149.303 264.966 141.057 268.934 131.185C273.862 130.334 278.345 127.14 280.682 122.688C280.952 122.184 281.266 121.438 280.928 120.805Z" fill="#ECC6E8"/>
<path d="M253.133 121.607C251.455 117.296 249.423 113.965 246.925 111.413C243.875 108.304 240.121 106.433 236.347 106.154C232.11 105.844 227.953 107.699 225.749 110.881C222.9 114.994 223.652 120.281 224.356 123.063C225.918 129.253 229.788 134.927 234.979 138.625C235.977 139.335 237.184 140.101 238.58 140.387C239.038 140.48 239.493 140.512 239.932 140.488C240.922 140.432 241.819 140.073 242.467 139.46C244.156 137.859 242.209 133.883 240.938 131.773C241.215 131.995 243.074 133.403 243.372 133.6C244.229 134.165 245.009 134.459 245.758 134.504C246.736 134.564 247.637 134.165 248.112 133.463C248.937 132.249 248.313 130.652 247.681 129.394L245.504 125.737C245.959 126.233 247.327 127.709 247.91 128.051C249.415 128.935 251.721 129.072 253.028 127.588C254.163 126.301 254.199 124.345 253.133 121.607Z" fill="#D9A4D1"/>
<path d="M227.321 83.858C227.237 82.9305 226.637 82.0474 225.716 81.4949C225.004 81.0715 224.106 80.8336 222.98 80.765C221.616 80.6844 220.26 80.8497 218.956 81.2489C218.429 81.4102 217.757 81.6562 217.206 82.124C216.635 82.6079 216.301 83.2814 216.309 83.9225C216.321 84.8783 217.033 85.6122 217.693 85.9792C218.373 86.3542 219.101 86.6607 219.858 86.8865C220.859 87.1849 221.91 87.3341 222.94 87.3341C223.245 87.3341 223.551 87.322 223.853 87.2938C225.656 87.1325 227.486 85.713 227.321 83.858Z" fill="#D9A4D1"/>
<path d="M192.211 77.5792C191.579 77.2041 190.787 76.9904 189.785 76.934C188.578 76.8614 187.379 77.0065 186.224 77.3614C185.757 77.5066 185.158 77.7243 184.671 78.1357C184.16 78.5672 183.862 79.168 183.87 79.7407C183.882 80.5956 184.514 81.2529 185.106 81.5795C185.709 81.9142 186.353 82.1844 187.021 82.382C187.906 82.6441 188.835 82.7812 189.749 82.7812C190.018 82.7812 190.292 82.7691 190.557 82.745C192.167 82.5998 193.792 81.3376 193.644 79.6842C193.567 78.8575 193.032 78.0712 192.211 77.5792Z" fill="#D9A4D1"/>
<path d="M202.037 67.2275C201.61 67.0985 201.164 67.3364 201.031 67.7598C200.431 69.7116 198.77 71.3005 196.798 71.8126C196.03 72.0102 195.325 72.0142 194.762 71.8207C193.977 71.5505 193.289 70.8166 192.964 69.9052C192.666 69.0704 192.634 68.0461 192.867 66.9452C192.96 66.5097 192.682 66.0823 192.247 65.9895C191.813 65.8968 191.386 66.175 191.294 66.6105C190.996 68.0058 191.048 69.3325 191.447 70.4496C191.938 71.8368 192.984 72.9216 194.243 73.349C194.694 73.5023 195.173 73.5789 195.684 73.5789C196.166 73.5789 196.673 73.5103 197.2 73.3732C199.703 72.728 201.807 70.7077 202.568 68.2357C202.701 67.8123 202.459 67.3606 202.037 67.2275Z" fill="#3F4553"/>
<path d="M227.543 69.764C227.51 69.3205 227.128 68.9857 226.682 69.018C226.239 69.0503 225.905 69.4374 225.937 69.881C226.018 70.9819 225.418 72.1796 224.408 72.9337C223.479 73.6273 222.191 73.9942 220.791 73.97C220.035 73.958 219.487 73.8168 219.121 73.5466C218.663 73.2079 218.365 72.5546 218.325 71.7965C218.284 71.0101 218.49 70.1754 218.687 69.3688C218.791 68.9374 218.53 68.4978 218.099 68.393C217.669 68.2881 217.23 68.5502 217.126 68.9817C216.908 69.8608 216.663 70.8528 216.719 71.8812C216.788 73.1353 217.315 74.216 218.168 74.8451C218.811 75.321 219.66 75.5589 220.763 75.5791C220.815 75.5791 220.871 75.5791 220.924 75.5791C222.622 75.5791 224.195 75.0992 225.37 74.2241C226.826 73.1393 227.659 71.4255 227.543 69.764Z" fill="#3F4553"/>
<path d="M206.262 88.0279C206.194 87.8828 206.133 87.7457 206.077 87.6166C205.646 86.6165 205.107 85.6648 204.467 84.7978C203.462 83.4267 202.387 82.717 201.281 82.6928C200.565 82.6767 199.881 82.9549 199.249 83.2574C198.203 83.7574 197.233 84.4873 196.3 85.189C195.841 85.5318 195.366 85.8907 194.895 86.2052C192.662 87.7134 190.518 89.399 188.526 91.2177C188.071 91.6331 187.939 92.0727 188.168 92.3953C188.425 92.7542 188.932 92.6695 189.125 92.6372L194.742 91.6855C193.628 92.5606 192.618 93.5042 191.56 94.4963C191.234 94.7987 190.912 95.1052 190.582 95.4076C190.304 95.6657 190.051 95.9561 190.075 96.3351C190.111 96.8553 190.646 97.1296 191.097 97.2062C191.29 97.2384 191.483 97.2546 191.676 97.2546C192.711 97.2546 193.716 96.8271 194.549 96.4722L203.14 92.8066C203.329 92.7259 203.522 92.6453 203.715 92.5646C204.407 92.2743 205.123 91.9759 205.791 91.6129C206.23 91.375 206.519 91.0968 206.684 90.7621C206.701 90.7298 206.717 90.6935 206.729 90.6612C207.079 89.7902 206.628 88.8143 206.262 88.0279Z" fill="#3F4553"/>
<path d="M215.166 136C215.146 136.75 215.042 138.722 213.802 138.314C213.142 138.097 212.668 137.318 212.044 136.984C211.292 136.58 210.62 137.73 211.372 138.133C212.483 138.73 213.179 140.073 214.643 139.609C216.192 139.121 216.454 137.399 216.49 136C216.518 135.141 215.19 135.141 215.166 136Z" fill="#D9A4D1"/>
<path d="M208.857 148.94C208.752 149.4 208.652 149.86 208.547 150.323C208.499 150.549 208.491 150.888 208.374 151.09C208.318 151.19 208.326 151.231 208.338 151.247C208.322 151.243 208.289 151.239 208.221 151.239C207.915 151.247 207.344 150.824 207.082 150.69C206.668 150.481 206.261 150.259 205.855 150.033C205.107 149.614 204.439 150.763 205.183 151.182C205.831 151.545 206.487 151.892 207.159 152.207C207.634 152.433 208.189 152.771 208.74 152.61C209.211 152.473 209.468 152.057 209.609 151.614C209.847 150.868 209.963 150.057 210.132 149.291C210.325 148.46 209.046 148.101 208.857 148.94Z" fill="#D9A4D1"/>
<path d="M217.149 144.565C216.988 143.722 215.709 144.081 215.866 144.92C215.974 145.501 216.252 146.839 215.407 147.057C215.109 147.134 214.775 146.884 214.534 146.747C214.204 146.557 213.878 146.384 213.516 146.263C212.703 145.993 212.353 147.275 213.162 147.549C213.733 147.739 214.192 148.17 214.779 148.327C215.343 148.477 215.91 148.38 216.381 148.033C217.499 147.202 217.379 145.775 217.149 144.565Z" fill="#D9A4D1"/>
<path d="M218.9 152.267C218.827 151.42 217.499 151.412 217.572 152.267C217.604 152.634 217.616 152.997 217.596 153.364C217.576 153.707 217.471 154.042 217.435 154.376C217.331 154.308 217.214 154.235 217.186 154.211C216.872 153.985 216.554 153.759 216.24 153.534C215.544 153.034 214.88 154.187 215.568 154.683C216.252 155.175 217.504 156.502 218.348 155.622C218.686 155.272 218.759 154.655 218.831 154.195C218.932 153.554 218.952 152.917 218.9 152.267Z" fill="#D9A4D1"/>
<path d="M184.659 112.981C184.289 113.768 183.633 115.308 182.494 114.986C181.67 114.752 181.094 113.361 180.672 112.699C180.213 111.981 179.058 112.647 179.525 113.373C180.253 114.51 181.042 116.264 182.599 116.349C184.249 116.437 185.19 114.961 185.806 113.655C186.172 112.885 185.025 112.207 184.659 112.981Z" fill="#D9A4D1"/>
<path d="M194.735 111.502C194.256 112.324 193.66 113.324 192.815 113.832C191.818 114.433 190.683 112.715 190.071 112.078C189.476 111.457 188.538 112.401 189.13 113.022C190.067 113.998 191.158 115.736 192.743 115.316C194.179 114.937 195.181 113.373 195.881 112.179C196.316 111.433 195.169 110.764 194.735 111.502Z" fill="#D9A4D1"/>
<path d="M203.832 110.001C203.47 110.772 203.124 112.026 202.432 112.586C201.913 113.006 201.514 112.397 201.184 112.014C200.826 111.594 200.472 111.175 200.118 110.76C199.563 110.106 198.625 111.05 199.176 111.703C199.965 112.635 200.987 114.453 202.46 114.074C203.876 113.707 204.431 111.828 204.974 110.675C205.345 109.905 204.198 109.227 203.832 110.001Z" fill="#D9A4D1"/>
<path d="M213.206 108.993C212.864 109.473 212.522 109.949 212.18 110.429C211.931 110.776 211.52 111.663 211.154 111.864C210.124 112.433 209.098 110.808 208.832 110.046C208.551 109.243 207.267 109.586 207.549 110.401C208.02 111.748 209.187 113.228 210.715 113.405C211.391 113.482 211.822 113.147 212.22 112.647C212.977 111.695 213.645 110.659 214.353 109.671C214.852 108.969 213.701 108.304 213.206 108.993Z" fill="#D9A4D1"/>
<path d="M188.634 121.954C188.542 122.809 188.353 124.571 187.129 124.547C186.317 124.531 185.25 123.357 184.639 122.898C183.955 122.381 183.291 123.539 183.967 124.047C185.118 124.91 186.445 126.362 188.015 125.684C189.511 125.039 189.809 123.406 189.966 121.954C190.055 121.103 188.723 121.111 188.634 121.954Z" fill="#D9A4D1"/>
<path d="M200.097 119.95C199.908 120.877 199.558 122.095 198.798 122.728C197.687 123.652 196.673 122.16 196.142 121.353C195.671 120.639 194.521 121.309 194.995 122.027C195.8 123.248 196.991 124.696 198.653 124.297C200.286 123.906 201.087 121.764 201.385 120.305C201.55 119.466 200.266 119.107 200.097 119.95Z" fill="#D9A4D1"/>
<path d="M211.634 118.643C211.231 119.49 210.825 120.575 209.94 120.95C209.227 121.252 208.849 120.91 208.31 120.405C207.936 120.059 207.654 119.659 207.397 119.22C206.962 118.482 205.815 119.151 206.25 119.893C206.95 121.091 208.262 122.563 209.779 122.547C211.372 122.531 212.205 120.534 212.784 119.313C213.146 118.546 212 117.869 211.634 118.643Z" fill="#D9A4D1"/>
<path d="M192.799 132.806C192.534 133.249 192.272 133.693 192.006 134.137C191.846 134.407 191.487 135.33 191.214 135.467C190.389 135.875 189.214 134.338 188.8 133.802C188.277 133.124 187.343 134.076 187.858 134.745C188.55 135.641 190.055 137.234 191.343 136.988C191.894 136.883 192.188 136.423 192.457 135.975C192.96 135.149 193.447 134.314 193.942 133.483C194.384 132.741 193.238 132.068 192.799 132.806Z" fill="#D9A4D1"/>
<path d="M201.256 130.447C201.051 131.241 200.399 133.681 199.208 133.504C198.512 133.399 197.832 132.29 197.277 131.874C196.589 131.362 195.925 132.52 196.605 133.024C197.675 133.818 198.42 135.274 199.993 134.721C201.498 134.193 202.182 132.193 202.536 130.802C202.749 129.971 201.47 129.616 201.256 130.447Z" fill="#D9A4D1"/>
<path d="M211.268 127.039C210.849 127.922 210.495 129.168 209.843 129.898C209.328 130.475 208.974 130.213 208.52 129.729C208.133 129.318 207.751 128.902 207.365 128.487C206.781 127.858 205.844 128.801 206.423 129.431C207.284 130.354 208.318 132.028 209.803 131.548C211.284 131.068 211.823 128.967 212.414 127.713C212.781 126.938 211.634 126.261 211.268 127.039Z" fill="#D9A4D1"/>
<path d="M199.341 142.335C199.16 142.912 198.971 143.484 198.778 144.057C198.709 144.262 198.661 144.674 198.512 144.835C198.005 145.392 197.731 144.992 197.422 144.625C196.891 144.004 196.5 143.387 195.655 143.19C194.822 142.992 194.468 144.279 195.301 144.476C196.005 144.642 196.295 145.452 196.794 145.908C197.245 146.319 197.848 146.634 198.476 146.537C199.087 146.444 199.466 145.996 199.695 145.452C200.073 144.565 200.331 143.605 200.624 142.686C200.882 141.871 199.602 141.52 199.341 142.335Z" fill="#D9A4D1"/>
<path d="M207.879 139.182C207.432 139.932 207.465 140.879 207.014 141.597C206.612 142.238 205.996 141.855 205.473 141.537C205.014 141.258 204.555 140.976 204.097 140.698C203.365 140.25 202.697 141.403 203.425 141.847C204.487 142.496 205.924 143.811 207.243 143.17C208.571 142.525 208.378 140.948 209.026 139.851C209.464 139.117 208.318 138.444 207.879 139.182Z" fill="#D9A4D1"/>
<path d="M242.072 129.548C241.626 129.221 241.179 128.894 240.729 128.568C240.439 128.354 239.988 128.519 239.819 128.806C239.622 129.144 239.767 129.503 240.057 129.717C240.503 130.044 240.95 130.37 241.4 130.697C241.69 130.911 242.141 130.745 242.31 130.459C242.511 130.12 242.366 129.761 242.072 129.548Z" fill="#B98BB2"/>
<path d="M246.502 131.802C246.131 131.266 245.697 130.822 245.178 130.431C244.892 130.213 244.434 130.382 244.269 130.669C244.071 131.007 244.22 131.362 244.506 131.58C244.78 131.786 245.15 132.177 245.355 132.471C245.56 132.766 245.938 132.903 246.264 132.709C246.554 132.54 246.707 132.096 246.502 131.802Z" fill="#B98BB2"/>
<path d="M243.999 125.676C243.416 125.152 242.828 124.628 242.245 124.1C241.609 123.527 240.667 124.467 241.303 125.043C241.887 125.568 242.474 126.092 243.057 126.62C243.693 127.189 244.639 126.249 243.999 125.676Z" fill="#B98BB2"/>
<path d="M240.391 109.264C239.827 108.897 239.316 108.437 238.906 107.897C238.689 107.61 238.334 107.461 237.996 107.659C237.715 107.824 237.542 108.28 237.759 108.57C238.31 109.3 238.95 109.913 239.719 110.413C240.439 110.885 241.107 109.731 240.391 109.264Z" fill="#B98BB2"/>
<path d="M245.866 113.446C245.335 112.865 244.84 112.252 244.385 111.607C244.18 111.312 243.806 111.175 243.476 111.369C243.186 111.538 243.029 111.986 243.239 112.28C243.758 113.018 244.317 113.724 244.928 114.389C245.504 115.018 246.441 114.075 245.866 113.446Z" fill="#B98BB2"/>
<path d="M246.712 118.918C246.245 118.313 245.822 117.672 245.432 117.014C244.998 116.276 243.847 116.946 244.285 117.688C244.732 118.446 245.231 119.164 245.77 119.861C245.991 120.148 246.478 120.091 246.712 119.861C246.993 119.575 246.933 119.2 246.712 118.918Z" fill="#B98BB2"/>
<path d="M251.29 120.236C250.795 119.506 250.304 118.773 249.809 118.043C249.334 117.337 248.18 118.002 248.663 118.716C249.157 119.446 249.648 120.18 250.143 120.91C250.622 121.615 251.773 120.95 251.29 120.236Z" fill="#B98BB2"/>
<path d="M251.146 125.37C250.647 124.688 250.115 124.035 249.532 123.422C248.941 122.801 248.003 123.745 248.591 124.366C249.093 124.894 249.564 125.451 249.995 126.043C250.208 126.334 250.57 126.479 250.904 126.281C251.194 126.112 251.359 125.66 251.146 125.37Z" fill="#B98BB2"/>
<path d="M236.342 109.667L234.793 108.223C234.165 107.638 233.224 108.578 233.852 109.167C234.367 109.647 234.886 110.131 235.401 110.61C236.028 111.191 236.97 110.252 236.342 109.667Z" fill="#B98BB2"/>
<path d="M240.99 114.78C240.463 114.159 239.94 113.534 239.413 112.913C239.179 112.639 238.712 112.675 238.471 112.913C238.201 113.187 238.238 113.579 238.471 113.857L240.048 115.724C240.282 115.998 240.748 115.962 240.99 115.724C241.259 115.454 241.223 115.059 240.99 114.78Z" fill="#B98BB2"/>
<path d="M245.158 121.333C244.611 120.7 244.064 120.063 243.517 119.43C242.957 118.781 242.02 119.724 242.575 120.373C243.122 121.007 243.669 121.644 244.217 122.277C244.776 122.926 245.713 121.978 245.158 121.333Z" fill="#B98BB2"/>
<path d="M232.472 110.905C232.021 110.28 231.57 109.659 231.12 109.034C230.91 108.743 230.54 108.602 230.21 108.796C229.925 108.965 229.76 109.413 229.973 109.707C230.424 110.332 230.874 110.953 231.325 111.578C231.534 111.869 231.904 112.01 232.234 111.816C232.52 111.647 232.685 111.195 232.472 110.905Z" fill="#B98BB2"/>
<path d="M229.321 113.494C228.935 112.925 228.517 112.381 228.062 111.865C227.825 111.594 227.366 111.623 227.12 111.865C226.855 112.131 226.883 112.538 227.12 112.808C227.499 113.24 227.849 113.691 228.171 114.167C228.372 114.466 228.754 114.595 229.08 114.405C229.378 114.232 229.523 113.792 229.321 113.494Z" fill="#B98BB2"/>
<path d="M227.382 117.543C226.823 116.845 226.259 116.147 225.7 115.45C225.475 115.167 224.996 115.216 224.758 115.45C224.481 115.728 224.533 116.111 224.758 116.393C225.318 117.091 225.881 117.789 226.44 118.486C226.666 118.768 227.144 118.72 227.382 118.486C227.659 118.204 227.607 117.821 227.382 117.543Z" fill="#B98BB2"/>
<path d="M227.924 123.785C227.542 123.277 227.16 122.769 226.782 122.257C226.565 121.97 226.206 121.821 225.872 122.019C225.591 122.184 225.418 122.64 225.635 122.93C226.017 123.438 226.4 123.946 226.778 124.459C226.995 124.745 227.353 124.894 227.687 124.696C227.969 124.531 228.142 124.075 227.924 123.785Z" fill="#B98BB2"/>
<path d="M232.657 118.918C232.097 118.45 231.586 117.922 231.16 117.333C230.951 117.043 230.58 116.897 230.25 117.095C229.965 117.264 229.8 117.712 230.013 118.006C230.512 118.692 231.071 119.317 231.719 119.861C231.993 120.091 232.391 120.132 232.661 119.861C232.894 119.623 232.93 119.148 232.657 118.918Z" fill="#B98BB2"/>
<path d="M236.089 115.925C235.715 115.337 235.34 114.748 234.97 114.155C234.511 113.433 233.361 114.103 233.823 114.829C234.198 115.417 234.572 116.006 234.942 116.599C235.397 117.321 236.547 116.651 236.089 115.925Z" fill="#B98BB2"/>
<path d="M233.151 125.439C232.709 124.773 232.262 124.108 231.82 123.442C231.345 122.733 230.194 123.398 230.673 124.116C231.115 124.781 231.562 125.447 232.005 126.112C232.475 126.822 233.626 126.156 233.151 125.439Z" fill="#B98BB2"/>
<path d="M232.122 131.326C231.832 130.951 231.543 130.576 231.253 130.201C231.032 129.915 230.545 129.971 230.311 130.201C230.03 130.483 230.09 130.858 230.311 131.145C230.601 131.52 230.891 131.895 231.18 132.27C231.402 132.556 231.889 132.5 232.122 132.27C232.4 131.987 232.343 131.612 232.122 131.326Z" fill="#B98BB2"/>
<path d="M237.373 124.092L236.166 122.418C235.956 122.128 235.586 121.987 235.256 122.18C234.971 122.35 234.806 122.797 235.019 123.092C235.421 123.648 235.824 124.209 236.226 124.765C236.435 125.055 236.805 125.197 237.135 125.003C237.421 124.834 237.586 124.386 237.373 124.092Z" fill="#B98BB2"/>
<path d="M240.334 120.644C239.876 120.027 239.421 119.406 238.962 118.789C238.749 118.498 238.387 118.353 238.053 118.551C237.767 118.716 237.598 119.172 237.816 119.462C238.274 120.079 238.729 120.7 239.188 121.317C239.401 121.607 239.763 121.752 240.097 121.555C240.379 121.39 240.548 120.934 240.334 120.644Z" fill="#B98BB2"/>
<path d="M237.304 129.673C236.821 129.398 236.415 129.036 236.109 128.572C235.912 128.273 235.522 128.144 235.2 128.334C234.902 128.507 234.761 128.943 234.962 129.245C235.393 129.899 235.956 130.439 236.636 130.826C237.376 131.245 238.048 130.096 237.304 129.673Z" fill="#B98BB2"/>
<path d="M236.974 135.568C236.475 135.145 236.02 134.669 235.646 134.133C235.441 133.838 235.067 133.701 234.737 133.895C234.447 134.064 234.29 134.512 234.499 134.806C234.942 135.435 235.449 136.012 236.036 136.512C236.31 136.746 236.708 136.782 236.978 136.512C237.215 136.27 237.251 135.802 236.974 135.568Z" fill="#B98BB2"/>
<path d="M240.849 136.548C240.91 136.593 240.765 136.48 240.753 136.472C240.688 136.415 240.624 136.355 240.563 136.294C240.459 136.189 240.366 136.076 240.314 136.004C240.105 135.713 239.735 135.572 239.405 135.766C239.115 135.935 238.958 136.383 239.167 136.677C239.453 137.08 239.779 137.407 240.177 137.697C240.467 137.911 240.918 137.746 241.087 137.46C241.284 137.121 241.139 136.762 240.849 136.548Z" fill="#B98BB2"/>
<path d="M174.149 34.2974C172.443 35.6563 170.645 36.8581 168.762 37.9388C169.514 34.3417 170.979 30.9301 171.55 27.2887C171.615 26.8773 171.184 26.3934 170.766 26.6878C168.633 28.1839 166.625 29.8131 164.722 31.5995C164.219 32.0714 164.984 32.8174 165.483 32.3496C167 30.9261 168.593 29.6034 170.263 28.3694C169.506 31.898 168.078 35.2531 167.506 38.834C167.434 39.2897 167.857 39.6688 168.291 39.4349C170.633 38.1646 172.822 36.7048 174.906 35.0474C175.449 34.62 174.685 33.8739 174.149 34.2974Z" fill="#DCC272"/>
<path d="M175.119 27.5951C174.483 28.1959 173.847 28.8008 173.212 29.4017C172.713 29.8735 173.473 30.6236 173.972 30.1517L175.879 28.3451C176.378 27.8733 175.618 27.1232 175.119 27.5951Z" fill="#DCC272"/>
<path d="M185.641 21.7075C183.883 23.1673 182.125 24.6311 180.366 26.0909C180.201 21.655 180.032 17.2151 179.867 12.7792C179.851 12.376 179.425 12.1018 179.063 12.3155C177.075 13.4971 175.272 14.8439 173.571 16.4086C173.064 16.8723 173.824 17.6224 174.331 17.1587C175.739 15.8682 177.236 14.7351 178.837 13.7229C179.006 18.2112 179.175 22.6995 179.34 27.1878C179.36 27.6838 179.9 27.8572 180.254 27.5628C182.302 25.861 184.35 24.1552 186.398 22.4535C186.929 22.018 186.168 21.2719 185.641 21.7075Z" fill="#DCC272"/>
<path d="M186.184 12.755L183.105 15.6383C182.603 16.1101 183.363 16.8561 183.866 16.3884C184.892 15.4286 185.918 14.4648 186.944 13.505C187.447 13.0332 186.686 12.2832 186.184 12.755Z" fill="#DCC272"/>
<path d="M199.953 10.0653C197.245 11.9526 194.662 13.985 192.184 16.1586C192.469 10.9242 193.105 5.72621 193.773 0.528172C193.825 0.10878 193.286 -0.121079 192.968 0.0644212C190.735 1.39518 188.687 2.91951 186.768 4.6737C186.261 5.13745 187.021 5.88751 187.528 5.42376C189.11 3.98009 190.779 2.71385 192.574 1.57665C191.906 6.83115 191.282 12.0897 191.053 17.3885C191.033 17.8845 191.64 18.062 191.966 17.7636C194.67 15.3238 197.507 13.0656 200.496 10.9847C201.056 10.5976 200.52 9.67414 199.953 10.0653Z" fill="#DCC272"/>
</g>
<defs>
<clipPath id="clip0_1_7001">
<rect width="369" height="229" fill="white"/>
</clipPath>
</defs>
</svg>
