<svg width="26" height="22" viewBox="0 0 26 22" fill="none" xmlns="http://www.w3.org/2000/svg">
<path d="M9.9637 10.4887C9.86415 10.4706 9.7646 10.4616 9.66506 10.4616H5.52031C2.47962 10.4616 0 12.9321 0 15.9819V16.4796C0 19.5203 2.47962 21.9999 5.52031 21.9999H6.25333C8.29855 21.9999 10.0994 20.8777 11.0406 19.2035C11.5112 18.3981 11.7736 17.4751 11.7736 16.4796V12.5611C11.7736 11.5023 10.9773 10.6244 9.9637 10.4887ZM9.9637 16.4796C9.9637 18.5248 8.29855 20.19 6.25333 20.19H5.52031C3.47508 20.19 1.80993 18.5248 1.80993 16.4796V15.9819C1.80993 13.9366 3.47508 12.2715 5.52031 12.2715H9.66506C9.82795 12.2715 9.9637 12.3982 9.9637 12.5611V16.4796Z" fill="#98A1BD"/>
<path d="M20.9048 0.0361987H20.3075V0H15.5927C12.4886 0 9.96376 2.52486 9.96376 5.6289V15.9003C9.96376 17.1401 10.3619 18.2803 11.0407 19.2034C11.5113 18.398 11.7737 17.4749 11.7737 16.4795V5.6289C11.7737 3.52032 13.4841 1.80993 15.5927 1.80993H19.855V1.81898H20.9048C22.6514 1.81898 24.0722 3.23978 24.0722 4.98637V9.14017C24.0269 9.13112 23.9726 9.13112 23.9274 9.13112H20.3709C17.7646 9.13112 15.6288 11.2487 15.6288 13.8641V14.2894C15.6288 16.8957 17.7646 19.0315 20.3709 19.0315H20.9953C22.7509 19.0315 24.2984 18.0631 25.1038 16.6242C25.3753 16.1627 25.5744 15.6559 25.6649 15.1039C25.7826 14.6786 25.8459 14.2442 25.8459 13.7917V4.98637C25.8459 2.25337 23.6288 0.0361987 20.9048 0.0361987ZM24.1808 14.2894C24.1808 14.5157 24.1536 14.7329 24.1174 14.9501C23.8097 16.389 22.5247 17.4749 20.9953 17.4749H20.3709C18.6152 17.4749 17.1854 16.0451 17.1854 14.2894V13.8641C17.1854 12.1085 18.6152 10.6786 20.3709 10.6786H23.9274C23.9817 10.6786 24.0269 10.6967 24.0722 10.7239C24.1355 10.7691 24.1808 10.8415 24.1808 10.932V14.2894Z" fill="#98A1BD"/>
</svg>
