<svg width="27" height="25" viewBox="0 0 27 25" fill="none" xmlns="http://www.w3.org/2000/svg">
<g clip-path="url(#clip0_1_1816)">
<path d="M23.6644 13.5546C23.0903 19.7329 17.6235 24.276 11.4452 23.7019C5.26701 23.1278 0.72383 17.661 1.29797 11.4827C1.79722 6.09082 6.06581 1.8347 11.4452 1.33545C8.57455 5.21713 9.39832 10.6839 13.28 13.5546C16.3629 15.8262 20.5815 15.8262 23.6644 13.5546Z" stroke="white" stroke-width="2" stroke-linecap="round" stroke-linejoin="round"/>
<path d="M19.5705 8.63701C19.4457 8.53716 19.2959 8.49972 19.1461 8.5122H16.8371L19.0088 6.09083L19.221 5.86617L19.3458 5.70391C19.3833 5.65399 19.4082 5.59158 19.4332 5.54165C19.4582 5.47925 19.4706 5.41684 19.4706 5.34195C19.4831 5.1797 19.4082 5.02992 19.2709 4.94255C19.0962 4.85518 18.8965 4.81774 18.6968 4.83022H15.9759C15.8386 4.81774 15.6888 4.86767 15.5765 4.95503C15.4766 5.02992 15.4267 5.15473 15.4267 5.27955C15.4267 5.46677 15.4891 5.5791 15.6139 5.62902C15.7887 5.67895 15.9759 5.70391 16.1631 5.69143H17.923C17.8481 5.79128 17.7607 5.91609 17.6359 6.05339L17.1866 6.56512L16.5875 7.23911L15.901 8.02543C15.6514 8.30002 15.4891 8.48724 15.4142 8.58709C15.252 8.79927 15.2769 9.08634 15.4642 9.27356C15.6139 9.38589 15.7887 9.43581 15.9634 9.42333H19.1586C19.3084 9.43581 19.4582 9.38589 19.583 9.29852C19.6703 9.21115 19.7203 9.09882 19.7203 8.97401C19.7203 8.83671 19.6703 8.72438 19.5705 8.63701Z" fill="white"/>
<path d="M26.7849 4.76779C26.6351 4.64298 26.4479 4.59305 26.2606 4.60554H23.3525L26.0734 1.57259L26.3231 1.28552L26.4853 1.08582C26.5352 1.02341 26.5727 0.948522 26.5976 0.873634C26.6351 0.798747 26.6476 0.711378 26.6476 0.624009C26.6725 0.424308 26.5727 0.224608 26.3979 0.124758C26.1608 0.0373886 25.9112 -0.0125365 25.6615 -5.51908e-05H22.2542C22.0794 -0.0125365 21.8922 0.0373886 21.7549 0.14972C21.6426 0.24957 21.5677 0.399346 21.5802 0.561602C21.5802 0.798747 21.6551 0.936041 21.8173 0.985966C22.042 1.04837 22.2666 1.07333 22.5038 1.07333H24.7005C24.6131 1.19815 24.4883 1.34792 24.3385 1.52266L23.7644 2.17169L23.0155 2.99545L22.1293 3.98147C21.8173 4.33095 21.6176 4.55561 21.5302 4.66794C21.3181 4.93005 21.343 5.31697 21.5926 5.55411C21.7799 5.69141 22.0045 5.75381 22.2292 5.74133H26.2357C26.4354 5.76629 26.6226 5.71637 26.7849 5.60404C26.8972 5.50419 26.9721 5.35441 26.9596 5.19216C26.9721 5.0299 26.9097 4.88012 26.7849 4.76779Z" fill="white"/>
</g>
<defs>
<clipPath id="clip0_1_1816">
<rect width="26.972" height="25" fill="white"/>
</clipPath>
</defs>
</svg>
