<svg width="13" height="9" viewBox="0 0 13 9" fill="none" xmlns="http://www.w3.org/2000/svg">
<path fill-rule="evenodd" clip-rule="evenodd" d="M1.44446 0H11.5557C12.3534 0 13.0001 0.727545 13.0001 1.62502V7.31257C13.0001 8.21005 12.3534 8.93759 11.5557 8.93759H1.44446C0.646706 8.93759 0 8.21005 0 7.31257V1.62502C0 0.727545 0.646706 0 1.44446 0ZM6.41451 3.5373C5.94698 3.5373 5.56797 3.91631 5.56797 4.38384V5.35124C5.56797 5.81877 5.94698 6.19778 6.41451 6.19778C6.88204 6.19778 7.26105 5.81877 7.26105 5.35124V4.38384C7.26105 3.91631 6.88204 3.5373 6.41451 3.5373Z" fill="#E6E7F2"/>
</svg>
