<svg width="20" height="24" viewBox="0 0 20 24" fill="none" xmlns="http://www.w3.org/2000/svg">
<path d="M4.44237 5.66365C4.44237 8.72728 6.93406 11.2172 9.9996 11.2172C13.0653 11.2172 15.5568 8.71969 15.5568 5.65624C15.5568 2.59262 13.0651 0.102715 9.9996 0.102715C6.93397 0.102715 4.44237 2.59271 4.44237 5.66365ZM6.13009 5.65624C6.13009 3.52819 7.86277 1.78943 9.9996 1.78943C12.1364 1.78943 13.8691 3.52819 13.8691 5.65624C13.8691 7.78417 12.1291 9.52306 9.9996 9.52306C7.87006 9.52306 6.13009 7.78417 6.13009 5.65624Z" fill="#98A1BD" stroke="#98A1BD" stroke-width="0.2"/>
<path d="M15.1622 23.8416H4.83748C2.16603 23.8416 0 21.3993 0 18.3871C0 15.375 2.17506 12.9327 4.83748 12.9327H15.1622C17.8337 12.9327 19.9997 15.3851 19.9997 18.3871C19.9997 21.3891 17.8337 23.8416 15.1622 23.8416ZM4.83748 14.9679C3.16782 14.9679 1.80503 16.5045 1.80503 18.3871C1.80503 20.2697 3.16782 21.8063 4.83748 21.8063H15.1622C16.8319 21.8063 18.1947 20.2697 18.1947 18.3871C18.1947 16.5045 16.8319 14.9679 15.1622 14.9679H4.83748Z" fill="#98A1BD"/>
</svg>
