<svg width="176" height="86" viewBox="0 0 176 86" fill="none" xmlns="http://www.w3.org/2000/svg">
<path d="M119.325 33.5822C120.197 38.9182 73.651 37.5303 65.4993 35.4814C60.861 34.5109 66.292 11.9317 63.3774 4.56763C61.6986 -2.32684 114.022 -0.511042 117.885 4.05628C120.858 7.56961 118.096 26.0685 119.325 33.5822Z" fill="#FBF5EB"/>
<path d="M71.8719 20.6001C72.0554 19.6783 71.82 18.6173 71.9515 18.106C72.2492 16.9581 72.3981 16.3841 72.2215 16.2206C71.505 15.5527 71.0066 18.593 70.3316 18.5686C70.0616 18.4191 69.8331 17.5007 69.7431 16.8398C69.6358 16.0502 69.937 13.7126 69.4662 13.7543C69.0682 13.7891 68.8016 15.4901 68.812 16.0606C68.7982 15.4658 69.037 12.8569 68.407 13.076C67.9466 13.236 67.9397 16.2171 67.9501 16.6137C67.9363 16.4224 68.0436 13.563 67.5867 13.7613C67.0605 13.9874 67.1678 16.5615 67.1782 16.9546C67.1574 16.7146 67.3236 14.2622 66.7663 14.5301C66.4202 14.697 66.2782 17.0729 66.2886 17.4694C66.3302 19.2157 67.9605 23.4282 68.2547 23.9152L70.9616 23.9708C70.9616 23.9708 71.3423 22.8473 71.4531 22.2976C71.595 21.6054 71.8027 20.9445 71.8719 20.6001Z" fill="#FDBCA0"/>
<path d="M86.3338 41.4299C86.6627 43.9553 83.1424 52.7213 83.8935 57.0729C91.1729 58.6104 108.342 55.8519 109.678 50.0671C109.785 46.1503 109.647 41.7673 109.723 39.1584C109.917 32.3405 108.664 20.6561 97.3689 24.2737C96.7908 24.152 96.8116 23.2963 91.1175 23.6859C85.6104 24.0546 85.3439 33.8815 86.3338 41.4299Z" fill="#8E97FD"/>
<path d="M67.1953 24.0962C64.9073 35.8154 71.9929 44.5952 81.8822 44.1256C95.9322 43.4612 104.392 32.3682 100.55 24.6702L96.7664 24.7258C85.5548 22.757 82.8722 31.1855 79.4973 30.8793C77.0708 30.6602 73.0659 28.5244 72.2421 23.5814C72.0621 22.503 67.3788 23.1605 67.1953 24.0962Z" fill="#8E97FD"/>
<path d="M93.6925 24.837C91.8164 29.3452 84.4539 31.4776 85.6342 24.8196C85.9977 22.7638 83.3116 21.1359 83.0693 19.6749C82.5189 16.3494 85.8246 15.2815 86.5515 12.2517C87.6453 7.68782 89.4557 0.111557 101.726 7.26344C105.458 9.43405 93.6925 24.837 93.6925 24.837Z" fill="#3F414E"/>
<path d="M99.719 16.5825L99.7397 25.0215C99.3071 27.4495 93.3811 27.8078 93.6926 25.0423L93.6753 21.4177L99.719 16.5825Z" fill="#F0A38B"/>
<path d="M89.8054 16.4573C89.7674 16.9721 89.7016 17.4417 89.7293 17.9461C89.7674 18.6035 89.9093 19.2714 90.1585 19.8976C90.8231 21.5603 92.2077 23.9222 93.9418 23.964C97.0017 24.0336 100.969 20.562 100.477 16.0781C100.048 12.1648 96.756 6.16428 95.5653 8.47403C93.7168 12.0604 91.6434 10.6794 90.3212 12.8953C90.0443 13.3579 89.7881 13.9423 89.8089 15.2885C89.8158 15.7268 89.8297 16.1025 89.8054 16.4573Z" fill="#FDBCA0"/>
<path d="M96.1052 18.6662C96.0706 19.6228 96.8113 20.4263 97.7632 20.4646C98.7151 20.4994 99.5147 19.7549 99.5528 18.7983C99.5874 17.8417 98.8466 17.0382 97.8947 16.9999C96.9428 16.9617 96.1432 17.7096 96.1052 18.6662Z" fill="#F4A07B"/>
<path d="M89.7293 17.9462C89.7674 18.6036 89.9162 19.268 90.1585 19.8976C90.9442 19.7585 91.5569 19.0871 91.5881 18.2523C91.6227 17.2957 90.8819 16.4921 89.93 16.4539C89.8885 16.4539 89.847 16.4539 89.8054 16.4539C89.7674 16.9722 89.7016 17.4418 89.7293 17.9462Z" fill="#F4A07B"/>
<path d="M94.9249 16.4502C94.9249 16.4502 95.6172 17.6051 97.746 16.2971C98.0125 16.1336 96.8321 16.4989 96.1018 16.558C95.3541 16.6137 94.738 16.1997 94.9249 16.4502Z" fill="#002869"/>
<path d="M90.1721 15.706C90.3452 15.9912 91.8786 17.1774 92.4428 16.1269C92.5916 15.852 91.9997 16.4295 91.3109 16.1756C90.6048 15.9181 90.0613 15.5251 90.1721 15.706Z" fill="#002869"/>
<path d="M93.9595 19.2331C93.5061 19.254 92.8069 19.1426 92.6892 18.6069C92.6372 18.3704 92.7584 18.1687 92.8657 17.9669C93.1426 17.4486 93.3884 16.9755 93.3711 16.3668C93.3676 16.2868 93.4922 16.2694 93.4957 16.3494C93.513 16.9303 93.3122 17.4034 93.0422 17.9078C92.883 18.2034 92.6926 18.4643 92.9349 18.7878C93.1565 19.08 93.5995 19.1287 93.9422 19.1113C94.0218 19.1079 94.0391 19.2296 93.9595 19.2331Z" fill="#F27979"/>
<path d="M95.2609 20.4645C95.3959 20.1932 93.9664 21.1498 92.4087 20.301C91.7407 19.9357 93.3433 21.9046 95.2609 20.4645Z" fill="#F27979"/>
<path fill-rule="evenodd" clip-rule="evenodd" d="M0 74.7717V53.2869C0.828978 48.8904 2.16844 45.1849 3.99518 43.4874C4.16441 43.3289 4.34133 43.1808 4.52594 43.0603C12.2102 35.0495 19.9507 30.9999 37.9064 37.498C51.4356 34.5645 60.0379 35.9109 68.9732 37.3094C76.7848 38.5321 84.8508 39.7946 96.6859 38.272L96.7076 38.2727C96.8071 38.2759 96.9003 38.2789 96.9936 38.2789C101.197 38.3641 104.024 37.7103 106.609 37.1123C111.237 36.0417 115.091 35.1501 124.692 39C124.88 39.0085 125.285 38.8686 125.888 38.6608C128.45 37.7776 134.572 35.6667 142.648 38.5C160.926 35.0188 167.087 39 171.576 42C173.427 43.4433 174.891 45.9287 176 48.9842V81.7474C175.651 82.2037 175.271 82.5225 174.861 82.6823C167.068 85.7288 135.384 85.5077 105.701 85.3005C90.6447 85.1954 76.103 85.0939 65.4557 85.4243C64.7249 85.4485 63.9942 85.4691 63.2634 85.4898C49.9944 85.8859 37.21 86.103 26.7948 85.9514C25.5564 85.9342 24.3487 85.91 23.1795 85.879C11.7412 85.5966 3.81057 84.7836 2.33367 83.1404C1.7538 82.4947 0.739148 78.7137 0 74.7717Z" fill="#3F414E"/>
<path d="M82.658 40.0335C84.0184 39.9848 85.3787 39.9396 86.7391 39.8909C87.3067 39.87 87.3102 38.9795 86.7391 39.0004C85.3787 39.0491 84.0184 39.0943 82.658 39.143C82.0903 39.1638 82.0869 40.0543 82.658 40.0335Z" fill="#656B7B"/>
<path d="M77.4003 74.6171C76.2857 75.3997 75.1676 76.1824 74.053 76.9651C73.5857 77.2921 74.0669 78.04 74.5342 77.713C75.6488 76.9303 76.7668 76.1476 77.8814 75.365C78.3487 75.038 77.8675 74.2901 77.4003 74.6171Z" fill="#656B7B"/>
<path d="M85.0087 45.3765C84.0222 47.0601 83.0322 48.7402 82.0457 50.4238C81.7584 50.9143 82.4749 51.4396 82.7622 50.9456C83.7487 49.262 84.7387 47.5819 85.7252 45.8983C86.016 45.4113 85.2994 44.8825 85.0087 45.3765Z" fill="#656B7B"/>
<path d="M86.4693 69.9525C87.3935 71.2396 88.4216 72.4397 89.5569 73.5459C89.9654 73.9459 90.5919 73.3163 90.1834 72.9163C89.1035 71.8623 88.117 70.7282 87.2343 69.5038C86.902 69.0412 86.1336 69.4864 86.4693 69.9525Z" fill="#656B7B"/>
<path d="M89.3804 55.1896C89.3804 55.1896 89.3804 58.1081 89.3804 59.6387C89.3804 60.2126 90.2665 60.2126 90.2665 59.6387C90.2665 58.1046 90.2665 56.6715 90.2665 55.1896C90.2665 54.5983 89.3804 54.5983 89.3804 55.1896C89.3804 55.1896 89.3804 54.5983 89.3804 55.1896Z" fill="#656B7B"/>
<path d="M68.2035 63.7188C67.0646 63.3953 65.9293 63.0718 64.7905 62.7483C64.2436 62.5918 63.9528 63.4336 64.5032 63.5901C65.642 63.9136 66.7773 64.2371 67.9162 64.5606C68.4631 64.7137 68.7538 63.8754 68.2035 63.7188Z" fill="#656B7B"/>
<path d="M71.7308 43.4355C73.0773 44.253 74.3476 45.1783 75.5418 46.2079C75.9745 46.5801 76.4626 45.8357 76.0334 45.467C74.8392 44.4374 73.5688 43.5155 72.2223 42.6946C71.7343 42.3989 71.2393 43.1399 71.7308 43.4355Z" fill="#656B7B"/>
<path d="M14.4784 63.952C13.6615 63.9033 12.8446 63.8581 12.0277 63.8129C12.0138 63.5207 12.0069 63.225 12 62.9224C12.8169 62.9711 13.6303 63.0163 14.4472 63.0615C15.0115 63.0963 15.0495 63.9868 14.4784 63.952Z" fill="#656B7B"/>
<path d="M53.0802 73.4276C54.4406 73.4763 55.8009 73.5215 57.1612 73.5702C57.7289 73.5911 57.7324 74.4816 57.1612 74.4607C55.8009 74.412 54.4406 74.3668 53.0802 74.3181C52.5091 74.2972 52.5091 73.4067 53.0802 73.4276Z" fill="#656B7B"/>
<path d="M54.1083 51.7143C53.1218 50.0307 52.1318 48.3505 51.1453 46.6669C50.858 46.1765 51.5745 45.6512 51.8618 46.1452C52.8483 47.8288 53.8383 49.5089 54.8248 51.1925C55.1156 51.683 54.3991 52.2082 54.1083 51.7143Z" fill="#656B7B"/>
<path d="M41.8481 80.2766C41.5192 80.3009 41.1904 80.3218 40.8615 80.3427C40.28 79.3513 39.6985 78.3634 39.117 77.372C38.8297 76.8815 39.5462 76.3563 39.8335 76.8502C40.505 77.9947 41.1765 79.1356 41.8481 80.2766Z" fill="#656B7B"/>
<path d="M63.7656 52.1285C63.7656 52.1285 63.7656 49.21 63.7656 47.6795C63.7656 47.1055 64.6518 47.1055 64.6518 47.6795C64.6518 49.2135 64.6518 50.6467 64.6518 52.1285C64.6518 52.7234 63.7656 52.7234 63.7656 52.1285C63.7656 52.7234 63.7656 52.1285 63.7656 52.1285Z" fill="#656B7B"/>
<path d="M48.411 55.8575C47.2722 56.181 46.1368 56.5045 44.998 56.828C44.4511 56.9845 44.1603 56.1427 44.7107 55.9862C45.8495 55.6627 46.9849 55.3392 48.1237 55.0156C48.6671 54.8591 48.9579 55.7009 48.411 55.8575Z" fill="#656B7B"/>
<path d="M45.0252 68.0877C46.3717 67.2703 47.6421 66.345 48.8363 65.3153C49.269 64.9431 49.757 65.6875 49.3278 66.0563C48.1336 67.0859 46.8633 68.0077 45.5168 68.8287C45.0287 69.1243 44.5337 68.3869 45.0252 68.0877Z" fill="#656B7B"/>
<path d="M24.4509 80.8091C23.8936 80.7917 23.3501 80.7673 22.824 80.736C22.2182 80.2803 21.6333 79.8003 21.0656 79.2959C20.6398 78.9168 21.1937 78.2245 21.6194 78.6037C22.5194 79.3968 23.4609 80.1342 24.4509 80.8091Z" fill="#656B7B"/>
<path d="M34.3332 65.9068C33.6513 67.7365 32.9694 69.5663 32.2875 71.3925C32.0902 71.9247 31.2318 71.6951 31.4325 71.1594C32.1145 69.3297 32.7964 67.5 33.4783 65.6738C33.679 65.1415 34.534 65.3711 34.3332 65.9068Z" fill="#656B7B"/>
<path d="M20.3488 43.6616C19.0508 43.2581 17.7493 42.8511 16.4513 42.4476C15.9078 42.2772 16.1397 41.418 16.6832 41.5884C17.9812 41.9919 19.2827 42.3989 20.5808 42.8024C21.1242 42.9729 20.8923 43.8321 20.3488 43.6616Z" fill="#656B7B"/>
<path d="M29.5876 47.7559C30.0999 49.6413 30.6157 51.5232 31.1279 53.4085C31.2768 53.9547 30.4495 54.2747 30.3007 53.7216C29.7884 51.8362 29.2726 49.9543 28.7603 48.069C28.608 47.5228 29.4353 47.2028 29.5876 47.7559Z" fill="#656B7B"/>
<path d="M23.0939 67.7295C21.8651 68.7278 20.5602 69.6149 19.1756 70.3836C18.6771 70.6619 18.2341 69.8897 18.736 69.6114C20.0548 68.8809 21.3009 68.046 22.4743 67.0964C22.9105 66.7381 23.537 67.3677 23.0939 67.7295Z" fill="#656B7B"/>
<path d="M20.7189 52.9737C20.7189 52.9737 19.9574 55.7878 19.5559 57.2697C19.4071 57.8228 18.5521 57.5897 18.7009 57.0366C19.1024 55.5583 19.4763 54.1738 19.864 52.7406C20.0197 52.1667 20.8712 52.3998 20.7189 52.9737C20.8712 52.3998 20.7189 52.9737 20.7189 52.9737Z" fill="#656B7B"/>
<path d="M35.7109 61.2214C36.8912 61.2109 38.075 61.197 39.2554 61.1866C39.823 61.1796 39.8854 62.0701 39.3142 62.0736C38.1339 62.084 36.95 62.0979 35.7697 62.1084C35.202 62.1153 35.1397 61.2283 35.7109 61.2214Z" fill="#656B7B"/>
<path d="M44.6656 49.0257C43.1529 49.4605 41.6853 50.0171 40.2661 50.6954C39.7504 50.9423 39.4769 50.0936 39.9857 49.8501C41.4049 49.1718 42.8726 48.6152 44.3852 48.1804C44.9321 48.0238 45.216 48.8691 44.6656 49.0257Z" fill="#656B7B"/>
<path d="M160.658 40.0335C162.018 39.9848 163.379 39.9396 164.739 39.8909C165.307 39.87 165.31 38.9795 164.739 39.0004C163.379 39.0491 162.018 39.0943 160.658 39.143C160.09 39.1638 160.087 40.0543 160.658 40.0335Z" fill="#656B7B"/>
<path d="M155.4 74.6171C154.286 75.3997 153.168 76.1824 152.053 76.9651C151.586 77.2921 152.067 78.04 152.534 77.713C153.649 76.9303 154.767 76.1476 155.881 75.365C156.349 75.038 155.868 74.2901 155.4 74.6171Z" fill="#656B7B"/>
<path d="M163.009 45.3765C162.022 47.0601 161.032 48.7402 160.046 50.4238C159.758 50.9143 160.475 51.4396 160.762 50.9456C161.749 49.262 162.739 47.5819 163.725 45.8983C164.016 45.4113 163.299 44.8825 163.009 45.3765Z" fill="#656B7B"/>
<path d="M164.469 69.9525C165.394 71.2396 166.422 72.4397 167.557 73.5459C167.965 73.9459 168.592 73.3163 168.183 72.9163C167.103 71.8623 166.117 70.7282 165.234 69.5038C164.902 69.0412 164.134 69.4864 164.469 69.9525Z" fill="#656B7B"/>
<path d="M167.38 55.1896C167.38 55.1896 167.38 58.1081 167.38 59.6387C167.38 60.2126 168.267 60.2126 168.267 59.6387C168.267 58.1046 168.267 56.6715 168.267 55.1896C168.267 54.5983 167.38 54.5983 167.38 55.1896C167.38 55.1896 167.38 54.5983 167.38 55.1896Z" fill="#656B7B"/>
<path d="M146.203 63.7188C145.065 63.3953 143.929 63.0718 142.79 62.7483C142.244 62.5918 141.953 63.4336 142.503 63.5901C143.642 63.9136 144.777 64.2371 145.916 64.5606C146.463 64.7137 146.754 63.8754 146.203 63.7188Z" fill="#656B7B"/>
<path d="M149.731 43.4355C151.077 44.253 152.348 45.1783 153.542 46.2079C153.975 46.5801 154.463 45.8357 154.033 45.467C152.839 44.4374 151.569 43.5155 150.222 42.6946C149.734 42.3989 149.239 43.1399 149.731 43.4355Z" fill="#656B7B"/>
<path d="M92.4784 63.952C91.6615 63.9033 90.8446 63.8581 90.0277 63.8129C90.0138 63.5207 90.0069 63.225 90 62.9224C90.8169 62.9711 91.6303 63.0163 92.4472 63.0615C93.0115 63.0963 93.0495 63.9868 92.4784 63.952Z" fill="#656B7B"/>
<path d="M131.08 73.4276C132.441 73.4763 133.801 73.5215 135.161 73.5702C135.729 73.5911 135.732 74.4816 135.161 74.4607C133.801 74.412 132.441 74.3668 131.08 74.3181C130.509 74.2972 130.509 73.4067 131.08 73.4276Z" fill="#656B7B"/>
<path d="M132.108 51.7143C131.122 50.0307 130.132 48.3505 129.145 46.6669C128.858 46.1765 129.575 45.6512 129.862 46.1452C130.848 47.8288 131.838 49.5089 132.825 51.1925C133.116 51.683 132.399 52.2082 132.108 51.7143Z" fill="#656B7B"/>
<path d="M119.848 80.2766C119.519 80.3009 119.19 80.3218 118.862 80.3427C118.28 79.3513 117.699 78.3634 117.117 77.372C116.83 76.8815 117.546 76.3563 117.833 76.8502C118.505 77.9947 119.177 79.1356 119.848 80.2766Z" fill="#656B7B"/>
<path d="M141.766 52.1285C141.766 52.1285 141.766 49.21 141.766 47.6795C141.766 47.1055 142.652 47.1055 142.652 47.6795C142.652 49.2135 142.652 50.6467 142.652 52.1285C142.652 52.7234 141.766 52.7234 141.766 52.1285C141.766 52.7234 141.766 52.1285 141.766 52.1285Z" fill="#656B7B"/>
<path d="M126.411 55.8575C125.272 56.181 124.137 56.5045 122.998 56.828C122.451 56.9845 122.16 56.1427 122.711 55.9862C123.85 55.6627 124.985 55.3392 126.124 55.0156C126.667 54.8591 126.958 55.7009 126.411 55.8575Z" fill="#656B7B"/>
<path d="M123.025 68.0877C124.372 67.2703 125.642 66.345 126.836 65.3153C127.269 64.9431 127.757 65.6875 127.328 66.0563C126.134 67.0859 124.863 68.0077 123.517 68.8287C123.029 69.1243 122.534 68.3869 123.025 68.0877Z" fill="#656B7B"/>
<path d="M102.451 80.8091C101.894 80.7917 101.35 80.7673 100.824 80.736C100.218 80.2803 99.6333 79.8003 99.0656 79.2959C98.6398 78.9168 99.1937 78.2245 99.6194 78.6037C100.519 79.3968 101.461 80.1342 102.451 80.8091Z" fill="#656B7B"/>
<path d="M112.333 65.9068C111.651 67.7365 110.969 69.5663 110.288 71.3925C110.09 71.9247 109.232 71.6951 109.433 71.1594C110.114 69.3297 110.796 67.5 111.478 65.6738C111.679 65.1415 112.534 65.3711 112.333 65.9068Z" fill="#656B7B"/>
<path d="M98.3488 43.6616C97.0508 43.2581 95.7493 42.8511 94.4513 42.4476C93.9078 42.2772 94.1397 41.418 94.6832 41.5884C95.9812 41.9919 97.2827 42.3989 98.5808 42.8024C99.1242 42.9729 98.8923 43.8321 98.3488 43.6616Z" fill="#656B7B"/>
<path d="M107.588 47.7559C108.1 49.6413 108.616 51.5232 109.128 53.4085C109.277 53.9547 108.45 54.2747 108.301 53.7216C107.788 51.8362 107.273 49.9543 106.76 48.069C106.608 47.5228 107.435 47.2028 107.588 47.7559Z" fill="#656B7B"/>
<path d="M101.094 67.7295C99.8651 68.7278 98.5602 69.6149 97.1756 70.3836C96.6771 70.6619 96.2341 69.8897 96.736 69.6114C98.0548 68.8809 99.3009 68.046 100.474 67.0964C100.91 66.7381 101.537 67.3677 101.094 67.7295Z" fill="#656B7B"/>
<path d="M98.7189 52.9737C98.7189 52.9737 97.9574 55.7878 97.5559 57.2697C97.4071 57.8228 96.5521 57.5897 96.7009 57.0366C97.1024 55.5583 97.4763 54.1738 97.864 52.7406C98.0197 52.1667 98.8712 52.3998 98.7189 52.9737C98.8712 52.3998 98.7189 52.9737 98.7189 52.9737Z" fill="#656B7B"/>
<path d="M113.711 61.2214C114.891 61.2109 116.075 61.197 117.255 61.1866C117.823 61.1796 117.885 62.0701 117.314 62.0736C116.134 62.084 114.95 62.0979 113.77 62.1084C113.202 62.1153 113.14 61.2283 113.711 61.2214Z" fill="#656B7B"/>
<path d="M122.666 49.0257C121.153 49.4605 119.685 50.0171 118.266 50.6954C117.75 50.9423 117.477 50.0936 117.986 49.8501C119.405 49.1718 120.873 48.6152 122.385 48.1804C122.932 48.0238 123.216 48.8691 122.666 49.0257Z" fill="#656B7B"/>
<path d="M113.911 73.4392C112.807 76.0898 105.918 80.2293 104.783 79.6205C102.924 78.6187 96.043 68.7466 96.6141 66.3951C97.1576 64.1584 103.7 60.1164 103.7 60.1164C103.7 60.1164 110.408 57.4031 114.16 57.337C116.223 57.2987 124.482 69.8632 123.478 72.4652C122.987 73.7279 117.033 74.521 113.911 73.4392Z" fill="white"/>
<path d="M113.741 72.6879C113.416 75.5577 105.424 80.1181 103.856 79.4954C102.935 79.1302 95.1812 68.1936 95.7489 65.8456C96.2924 63.6089 106.5 58.652 106.5 58.652C106.5 58.652 112.052 57.598 115.808 57.5284C117.871 57.4901 124.209 69.4981 123.205 72.1035C122.717 73.3662 115.493 74.7855 113.741 72.6879Z" fill="white"/>
<path d="M113.582 72.2462C112.454 75.8848 104.035 79.6694 103.059 79.012C101.477 77.9406 95.4926 68.479 96.0603 66.1275C96.6037 63.8908 106.704 59.0556 106.704 59.0556C109.799 58.8678 112.305 57.8381 116.317 57.7268C118.387 57.6677 124.911 68.7573 124.126 71.3662C123.662 72.9106 114.87 73.7698 113.582 72.2462Z" fill="white"/>
<path d="M111.924 73.1645C111.924 73.1645 112.61 74.6151 114.23 73.9854C115.985 73.3037 115.794 71.5261 115.794 71.5261C114.216 71.6757 112.862 72.1349 111.924 73.1645Z" fill="#E8E2E3"/>
<path d="M113.233 71.394C112.637 71.8392 112.353 72.5315 112.395 73.4881C112.613 74.3994 104.371 78.2641 102.267 78.4519C100.855 78.5772 94.6966 66.4788 94.9458 65.0422C95.1397 63.9325 104.887 59.6052 105.344 58.7251C105.344 58.7251 106.801 57.6224 107.798 57.8694C108.781 58.1129 117.13 56.0884 118.113 56.064C119.654 56.0293 125.517 67.7067 125.496 70.0617C125.486 71.0357 115.798 73.1437 115.465 72.3436C115.109 71.4775 113.233 71.394 113.233 71.394Z" fill="#8E97FD"/>
<path d="M104.932 58.7843L112.395 73.4846C113.146 72.5454 114.469 71.6828 115.465 72.3437L108.276 57.699C107.909 56.9685 104.687 58.2973 104.932 58.7843Z" fill="#4E5567"/>
<path d="M103.121 75.1751C105.098 74.4029 106.967 73.4324 108.642 72.121C108.881 71.9366 109.148 72.3192 108.912 72.5071C107.202 73.8428 105.295 74.8307 103.284 75.6169C103.004 75.7282 102.841 75.2864 103.121 75.1751Z" fill="#4E5567"/>
<path d="M102.526 73.2967C103.783 72.7089 105.157 72.1662 106.268 71.3174C106.507 71.1331 106.777 71.5192 106.538 71.7036C105.399 72.5732 103.976 73.1367 102.689 73.7385C102.415 73.8637 102.256 73.422 102.526 73.2967Z" fill="#4E5567"/>
<path d="M91.1659 46.4214C90.2763 46.1396 89.1964 46.2614 88.7049 46.0735C87.6041 45.6526 87.0503 45.4405 86.8668 45.6005C86.1295 46.244 89.0856 47.0684 88.9852 47.7398C88.8087 47.9937 87.8741 48.1259 87.213 48.1433C86.4203 48.1641 84.1427 47.6145 84.1323 48.0911C84.1254 48.4911 85.7765 48.9399 86.3442 48.992C85.7522 48.9399 83.2012 48.425 83.35 49.0755C83.4608 49.5521 86.4065 49.8791 86.8011 49.9104C86.6107 49.9034 83.7931 49.4895 83.9384 49.966C84.1046 50.5156 86.6626 50.6861 87.0537 50.7174C86.8114 50.7104 84.4057 50.2826 84.61 50.867C84.738 51.2287 87.0745 51.6253 87.4657 51.6601C89.1964 51.8062 93.5405 50.6304 94.0528 50.3869L94.3989 47.6876C94.3989 47.6876 93.3293 47.1867 92.7963 47.0162C92.1351 46.8075 91.5017 46.5258 91.1659 46.4214Z" fill="#FDBCA0"/>
<path d="M93.9727 51.3018C96.8146 51.674 109.92 58.5093 113.869 49.2147C119.394 36.2188 109.276 22.6699 100.785 23.8318L104.039 35.9823C102.744 38.1286 103.488 41.788 103.173 42.7133C102.384 45.03 103.277 46.3205 93.81 46.1849C92.7266 46.1744 93.0312 51.1801 93.9727 51.3018Z" fill="#8E97FD"/>
<path d="M94.0526 5.58329C93.8276 4.29623 105.181 0.901169 108.56 11.7716C109.764 15.6537 118.715 15.5424 114.575 23.0212C113.267 25.3831 122.558 27.4911 114.496 33.5821C106.953 39.2799 95.4303 34.2882 96.4687 30.3192C97.6179 25.9258 101.564 28.2669 98.9817 22.6734C97.6698 19.8279 99.2136 18.1339 99.5321 17.1807C99.5944 16.9825 99.6567 16.7842 99.719 16.5824C99.9094 15.9041 99.989 15.271 99.719 14.6518C98.909 12.8013 93.3846 13.9248 94.5649 9.57665C95.6795 5.46849 94.0526 5.58329 94.0526 5.58329Z" fill="#3F414E"/>
<path d="M101.27 45.8198C104.835 44.9606 102.405 37.9479 104.254 35.6694C104.358 35.5407 104.174 35.3529 104.07 35.4851C102.198 37.7913 104.399 44.7971 101.201 45.5694C101.038 45.6076 101.107 45.8615 101.27 45.8198Z" fill="#5863E3"/>
<path d="M97.9536 52.6516C101.581 53.8795 106.406 55.0379 110.062 53.4273C110.214 53.3612 110.082 53.1351 109.93 53.2012C106.351 54.7805 101.585 53.6047 98.0228 52.3976C97.8636 52.3455 97.7943 52.5994 97.9536 52.6516Z" fill="#5863E3"/>
<path d="M106.971 8.975C107.587 10.1299 108.345 11.0969 109.394 11.8796C110.488 12.697 111.491 13.2953 112.128 14.572C112.204 14.7216 112.433 14.5998 112.36 14.4502C111.886 13.5006 111.228 12.8536 110.377 12.2448C109.016 11.2778 108.006 10.3595 107.203 8.84977C107.12 8.70368 106.891 8.82542 106.971 8.975Z" fill="#002869"/>
<path d="M85.3299 22.2004C85.6725 23.477 84.6549 24.8754 84.6272 26.1694C84.596 27.5226 85.5652 28.1 86.7837 28.3226C86.9464 28.3539 87.019 28.1 86.8529 28.0687C83.073 27.3765 86.171 24.3258 85.5826 22.1273C85.5376 21.9708 85.2849 22.0404 85.3299 22.2004Z" fill="#002869"/>
</svg>
