<svg width="24" height="25" viewBox="0 0 24 25" fill="none" xmlns="http://www.w3.org/2000/svg">
<path d="M23.9999 12.517C23.9999 11.5102 23.9182 10.7755 23.7414 10.0136H12.2447V14.5578H18.993C18.857 15.6871 18.1223 17.3878 16.4896 18.5306L16.4667 18.6827L20.1018 21.4988L20.3536 21.5239C22.6665 19.3878 23.9999 16.2449 23.9999 12.517Z" fill="#4285F4"/>
<path d="M12.2447 24.4898C15.5508 24.4898 18.3263 23.4013 20.3536 21.5238L16.4896 18.5305C15.4556 19.2516 14.0678 19.755 12.2447 19.755C9.00664 19.755 6.25835 17.619 5.27866 14.6666L5.13505 14.6788L1.3553 17.604L1.30587 17.7414C3.31946 21.7414 7.45555 24.4898 12.2447 24.4898Z" fill="#34A853"/>
<path d="M5.27889 14.6669C5.02039 13.905 4.87079 13.0886 4.87079 12.2451C4.87079 11.4015 5.02039 10.5852 5.26529 9.82328L5.25844 9.66102L1.43131 6.68883L1.3061 6.74839C0.476198 8.40829 0 10.2723 0 12.2451C0 14.2179 0.476198 16.0818 1.3061 17.7417L5.27889 14.6669Z" fill="#FBBC05"/>
<path d="M12.2452 4.73469C14.5445 4.73469 16.0955 5.72789 16.9799 6.55788L20.4357 3.18369C18.3133 1.2109 15.5513 0 12.2452 0C7.45604 0 3.31996 2.74829 1.30636 6.74828L5.26555 9.82317C6.25884 6.87078 9.00714 4.73469 12.2452 4.73469Z" fill="#EB4335"/>
</svg>
