<svg width="121" height="106" viewBox="0 0 121 106" fill="none" xmlns="http://www.w3.org/2000/svg">
<path d="M68.8975 10.822C63.3843 14.1573 58.7635 18.9367 52.9227 21.653C46.4922 24.6414 39.16 24.8695 32.3364 26.7919C20.3865 30.1585 10.109 39.039 5.0326 50.3858C-0.0437707 61.7327 0.174635 75.3301 5.61605 86.505C7.21041 89.7809 9.26966 92.8974 12.0809 95.2136C18.1088 100.184 26.6142 100.765 34.3801 99.9712C42.1459 99.1772 49.8962 97.2392 57.6621 98.0269C63.091 98.5802 68.3327 100.453 73.7773 100.828C79.1937 101.2 84.6164 100.068 89.7708 98.3582C99.4337 95.1511 108.619 89.6715 114.616 81.4318C120.613 73.192 122.972 61.939 119.131 52.4958C115.608 43.8309 107.593 37.7699 103.221 29.4989C101.15 25.5791 99.9423 21.2404 97.7676 17.3769C92.1202 7.33978 78.3326 5.11418 68.8975 10.822Z" fill="#808AFF"/>
<path d="M41.3597 9.6437C40.4175 10.1095 39.4877 10.6346 38.7482 11.3817C38.0306 12.1069 37.5251 13.0071 37.0353 13.9011C36.1679 15.489 35.3005 17.3395 35.9214 19.0369C36.3302 20.1528 37.3348 20.9718 38.4456 21.3938C39.5563 21.8126 40.7638 21.8814 41.9494 21.8658C45.5437 21.8189 49.1256 21.0312 52.411 19.5714C53.4001 19.1306 54.3736 18.6243 55.1941 17.9178C56.0272 17.202 56.6887 16.2955 57.191 15.3171C58.0677 13.6104 58.4203 11.3848 57.244 9.86563C56.4047 8.78096 55.0007 8.32772 53.6591 8.05577C49.3409 7.18053 45.3191 7.68379 41.3597 9.6437Z" fill="#808AFF"/>
<path d="M96.7911 99.8811C96.735 99.8811 96.6788 99.8561 96.6445 99.8061C96.5821 99.7248 96.6008 99.6091 96.6819 99.5466C103.131 94.6734 108.164 88.1404 111.231 80.6571C111.758 79.3724 112.048 77.4625 111.446 76.2997C111.187 75.7996 110.782 75.4839 110.245 75.3651C109.53 75.2025 108.788 75.4932 108.145 75.7808C106.8 76.3747 105.496 77.0937 104.27 77.9158C103.671 78.3159 103.078 78.7504 102.513 79.2005C102.445 79.2536 102.348 79.3505 102.233 79.4631C101.665 80.0163 101.203 80.4321 100.841 80.2945C100.751 80.2601 100.701 80.1601 100.729 80.0695C100.819 79.7631 100.928 79.4756 101.031 79.1974C101.268 78.5659 101.49 77.9658 101.502 77.2374C101.512 76.6592 101.384 76.2528 101.122 76.0309C100.885 75.8308 100.52 75.7621 100.039 75.8214C98.969 75.9559 97.9736 76.5654 97.3091 77.4906C97.2623 77.5563 97.1749 77.5844 97.1 77.5563C97.022 77.5282 96.9721 77.4563 96.9752 77.3719C96.9971 76.8874 97.0969 76.3903 97.1936 75.9121C97.2435 75.6652 97.2935 75.4182 97.3309 75.1744C98.2326 69.4603 98.6819 63.6306 98.6601 57.8478C98.6538 55.8254 98.2825 51.0428 95.0002 50.2614C92.9722 49.78 90.9441 51.2398 89.7179 52.7652C86.7383 56.4818 86.0362 61.6145 85.4715 65.7406C85.459 65.8344 85.3779 65.9 85.2843 65.9C85.1907 65.8969 85.1127 65.825 85.1033 65.7312C85.0004 64.6059 84.3701 63.5244 83.3748 62.7679C82.3795 62.0114 81.1689 61.6957 80.0582 61.8989C78.9474 62.1052 77.9334 62.8335 77.2719 63.8963C76.8258 64.6122 76.5886 65.4061 76.5762 66.1782C76.7134 66.5564 76.7665 66.9534 76.7197 67.3535C76.7103 67.441 76.6386 67.5098 76.5512 67.5161C76.4545 67.5223 76.3827 67.466 76.3578 67.3817C76.2548 67.0128 76.2049 66.6314 76.2049 66.2438C76.0364 65.825 75.7431 65.4343 75.3375 65.1123C74.4077 64.3683 73.0879 64.112 72.0552 64.4746C69.9772 65.2061 68.8945 67.4942 68.5732 69.3916C68.5732 69.3916 68.5732 69.3916 68.5732 69.3947C68.5576 69.4947 68.4639 69.5604 68.361 69.5479C68.2611 69.5322 68.1925 69.4353 68.2081 69.3353C68.3797 68.2663 67.893 67.2379 66.8665 66.5064C65.4812 65.5186 63.5654 65.3436 62.2082 66.0782C59.5249 67.5348 58.6014 70.9139 58.2987 73.4927C58.2894 73.5865 58.2083 73.6552 58.1147 73.6552C58.1147 73.6552 58.1115 73.6552 58.1084 73.6552C58.0117 73.6521 57.9368 73.5771 57.9306 73.4833L57.3409 64.1464C57.1911 61.7551 56.4985 57.6728 53.5593 57.2133C50.7669 56.7756 48.8823 60.0922 48.3738 61.1175C46.7919 64.2964 45.9775 67.8412 46.0088 71.3921C46.0212 71.5453 46.0243 71.6984 46.0181 71.8516C46.0119 71.9516 45.9245 72.0235 45.8309 72.0267C45.7311 72.0267 45.6499 71.9454 45.6468 71.8485C45.6437 71.7016 45.6406 71.5578 45.6375 71.4109C45.5532 70.47 45.0478 69.5385 44.2303 68.8571C43.2912 68.0725 42.1024 67.7536 41.0509 68.0037C39.9995 68.2538 39.0791 69.0696 38.5861 70.1918C38.0962 71.314 38.1181 72.5456 38.6485 73.4896C38.6922 73.5646 38.6766 73.6615 38.611 73.7177C38.5455 73.774 38.4488 73.7803 38.3802 73.7302C37.2725 72.9332 36.8794 71.5297 36.4988 70.1699C36.0775 68.6695 35.6782 67.2504 34.3802 66.7721C33.0417 66.2782 31.5472 67.2816 30.9294 68.4976C30.2555 69.8229 30.2773 71.4109 30.296 72.8112C30.296 72.905 30.2305 72.9832 30.1369 72.9957C30.0464 73.0113 29.9591 72.9519 29.931 72.8644C28.3241 67.2723 24.8952 62.2428 20.2837 58.7074C18.3118 57.1945 15.5412 56.3068 14.1184 57.9228C13.4819 58.648 13.3197 59.7046 13.2386 60.7361C12.7643 66.8596 14.0529 73.2395 16.8672 78.6972C16.9109 78.7785 16.8859 78.8785 16.8111 78.9317C16.7362 78.9848 16.6332 78.9754 16.5708 78.9067C15.7627 78.0377 14.8454 77.0562 13.6785 76.5935C12.6364 76.1809 11.145 76.2778 10.4367 77.2718C10.0748 77.7813 9.97185 78.4378 9.92817 78.9535C9.78464 80.554 10.0405 82.1825 10.6707 83.6611C10.7082 83.7517 10.6707 83.8549 10.5834 83.8986C10.496 83.9424 10.3899 83.9111 10.34 83.8267C9.42896 82.2357 8.26829 80.4821 6.56472 79.5068C5.039 78.6347 2.68647 78.4722 1.32923 79.885C-1.12315 82.442 1.75044 86.7182 3.10144 88.4374C6.14975 92.3197 9.6068 96.724 14.4523 98.8621C14.5459 98.9027 14.5864 99.0121 14.5459 99.1059C14.5053 99.1997 14.3961 99.2434 14.3025 99.1997C9.37279 97.0241 5.88767 92.5822 2.81127 88.6656C1.40099 86.8682 -1.59428 82.3951 1.06091 79.6256C2.54918 78.0752 5.09829 78.2408 6.74569 79.1817C8.03116 79.9163 9.01398 81.0635 9.81272 82.2607C9.5444 81.1729 9.45392 80.0382 9.55688 78.9192C9.6068 78.3596 9.71912 77.6407 10.1341 77.0561C10.9609 75.8965 12.6114 75.7714 13.8127 76.2497C14.6644 76.5873 15.3789 77.1718 16.0092 77.7939C13.5007 72.4705 12.4149 66.5908 12.8704 60.7048C12.9546 59.6077 13.1325 58.4824 13.8407 57.6759C15.4195 55.8785 18.4023 56.7975 20.5084 58.4105C24.864 61.7489 28.1744 66.3939 29.9247 71.5953C29.9497 70.4919 30.0808 69.3478 30.5987 68.3257C31.2882 66.9722 32.9762 65.8594 34.505 66.422C35.9839 66.9659 36.4239 68.5413 36.8544 70.0668C37.1352 71.0639 37.4223 72.0861 37.9933 72.8331C37.7624 71.9548 37.8466 70.9607 38.2491 70.0386C38.7858 68.8102 39.8029 67.913 40.9667 67.638C42.1305 67.3629 43.4409 67.7099 44.4674 68.5664C44.9916 69.004 45.3972 69.5354 45.6655 70.1105C45.8153 66.9347 46.6265 63.7994 48.043 60.9487C48.5828 59.8671 50.5765 56.3724 53.6155 56.8444C56.8073 57.3414 57.5499 61.6145 57.709 64.1183L58.1958 71.8172C58.6887 69.4916 59.7558 66.9815 62.0304 65.7468C63.5062 64.9466 65.581 65.1342 67.0786 66.197C67.8119 66.719 68.2986 67.3817 68.5014 68.1131C69.038 66.4345 70.1363 64.7497 71.9304 64.1214C73.0941 63.7119 74.5231 63.987 75.5652 64.8185C75.8429 65.0404 76.0769 65.2905 76.2579 65.5593C76.3577 64.9185 76.5918 64.2808 76.9568 63.6932C77.6713 62.5397 78.7789 61.752 79.9895 61.5269C81.2001 61.3019 82.5168 61.6426 83.5963 62.4647C84.3701 63.0524 84.9411 63.8244 85.2437 64.6684C85.8022 60.6923 86.6259 56.0161 89.4309 52.5245C90.058 51.7399 92.3232 49.233 95.0845 49.8925C96.5478 50.2395 99.0095 51.7368 99.0282 57.8384C99.047 63.64 98.5977 69.4885 97.6928 75.2213C97.6523 75.4682 97.6024 75.7214 97.5524 75.9746C97.4994 76.2403 97.4432 76.5123 97.4027 76.7811C98.1016 76.0434 99.0158 75.562 99.9892 75.4401C100.579 75.3651 101.038 75.4651 101.356 75.7339C101.712 76.034 101.88 76.5248 101.868 77.2312C101.855 78.0252 101.621 78.6503 101.371 79.313C101.303 79.4943 101.234 79.6787 101.169 79.8694C101.428 79.7131 101.814 79.3349 101.967 79.1849C102.092 79.0629 102.201 78.9567 102.273 78.8973C102.847 78.4378 103.446 78.0002 104.055 77.5938C105.3 76.7592 106.623 76.0309 107.986 75.4276C108.735 75.0962 109.534 74.8149 110.317 74.99C110.966 75.1369 111.452 75.5151 111.764 76.1153C112.426 77.3875 112.142 79.3787 111.565 80.7822C108.473 88.3311 103.399 94.9172 96.8941 99.8279C96.8691 99.8686 96.8286 99.8811 96.7911 99.8811Z" fill="#8E97FD"/>
<path d="M81.7892 100.308C81.7205 100.312 81.655 100.265 81.6394 100.193C80.8188 96.72 80.2572 93.1565 79.9701 89.5993C79.8921 88.6334 79.8173 87.4925 79.8578 86.3422C79.9764 82.9381 81.0747 79.5372 83.0372 76.502C84.8531 73.6918 87.4303 71.2037 90.4848 69.3C90.5535 69.2563 90.6471 69.2781 90.6907 69.3469C90.7344 69.4157 90.7126 69.5094 90.6439 69.5532C87.6237 71.4318 85.0808 73.8888 83.2899 76.6614C81.3586 79.6497 80.2759 83.0006 80.1605 86.3484C80.1199 87.4831 80.1948 88.6146 80.2728 89.5711C80.5598 93.1127 81.1183 96.6637 81.9327 100.121C81.9514 100.202 81.9015 100.28 81.8235 100.299C81.8079 100.305 81.7985 100.308 81.7892 100.308Z" fill="#565D70"/>
<path d="M90.9942 68.3247C91.1377 68.1966 91.3093 68.0997 91.4841 68.0184C92.0269 67.7589 92.6572 67.5995 93.2282 67.7871C93.2812 67.8027 93.3311 67.8246 93.3717 67.8652C93.4091 67.9027 93.4279 67.9559 93.4372 68.0059C93.4715 68.2028 93.3655 68.3935 93.25 68.5529C92.8974 69.0312 92.3795 69.3719 91.8148 69.5344C91.4903 69.6282 90.3327 69.8658 90.47 69.2531C90.5418 68.9124 90.7321 68.556 90.9942 68.3247Z" fill="#565D70"/>
<path d="M88.4233 71.7854C89.1034 71.7197 89.7899 71.7635 90.47 71.8166C90.9037 71.851 91.3374 71.8916 91.7711 71.9354C91.8585 71.9448 91.9646 71.9729 91.9802 72.0573C91.9989 72.1511 91.8866 72.2136 91.7992 72.2542C91.1939 72.5262 90.8226 73.1482 90.2703 73.5171C89.871 73.7828 89.3936 73.9047 88.9162 73.9703C88.5169 74.0235 88.1113 74.0391 87.7088 74.0172C87.3812 73.9985 87.0411 73.9484 86.7727 73.7609C86.5013 73.5702 86.3359 73.2389 86.3297 72.9075C86.3234 72.4949 86.6448 72.248 86.9974 72.1136C87.4529 71.9354 87.9428 71.8291 88.4233 71.7854Z" fill="#565D70"/>
<path d="M84.208 77.4901C84.8882 77.4244 85.5746 77.4682 86.2548 77.5213C86.6885 77.5557 87.1222 77.5964 87.5558 77.6401C87.6432 77.6495 87.7493 77.6745 87.7649 77.762C87.7836 77.8558 87.6713 77.9183 87.5839 77.959C86.9786 78.2309 86.6073 78.853 86.0551 79.2218C85.6557 79.4875 85.1784 79.6094 84.701 79.6751C84.3016 79.7282 83.896 79.7438 83.4935 79.7219C83.1659 79.7032 82.8258 79.6532 82.5575 79.4656C82.286 79.2749 82.1207 78.9436 82.1145 78.6123C82.1082 78.1997 82.4296 77.9527 82.7821 77.8183C83.2377 77.6432 83.7244 77.537 84.208 77.4901Z" fill="#565D70"/>
<path d="M81.9585 82.8321C82.5826 82.557 83.2502 82.382 83.9117 82.2194C84.336 82.1163 84.7604 82.0163 85.1847 81.9225C85.2689 81.9037 85.3781 81.8975 85.4218 81.9725C85.4686 82.0569 85.3844 82.1507 85.3126 82.2132C84.8228 82.6633 84.6668 83.3698 84.258 83.8918C83.9616 84.27 83.5467 84.5357 83.1161 84.7451C82.7542 84.9202 82.3735 85.064 81.9835 85.1671C81.6684 85.2515 81.3283 85.3109 81.0131 85.2171C80.6949 85.1202 80.4359 84.8608 80.3236 84.5451C80.1863 84.1575 80.4141 83.8199 80.7074 83.5823C81.0849 83.2791 81.5155 83.0259 81.9585 82.8321Z" fill="#565D70"/>
<path d="M81.687 89.3899C82.2829 89.0523 82.9257 88.8147 83.5715 88.5866C83.9834 88.4428 84.3952 88.3021 84.8102 88.1677C84.8913 88.1396 85.0005 88.1208 85.0504 88.1927C85.1035 88.2708 85.0286 88.374 84.9662 88.4459C84.5232 88.9398 84.4358 89.6618 84.0801 90.2214C83.8243 90.6277 83.4342 90.9341 83.0255 91.1841C82.6823 91.3967 82.3172 91.5749 81.9397 91.7155C81.634 91.8312 81.3032 91.9249 80.9819 91.8593C80.6574 91.7937 80.3703 91.5624 80.2299 91.2591C80.0552 90.884 80.2486 90.5277 80.517 90.262C80.8633 89.9213 81.2658 89.6275 81.687 89.3899Z" fill="#565D70"/>
<path d="M85.0602 72.5693C85.0602 72.1786 85.0477 71.7847 84.9791 71.4003C84.926 71.0939 84.8387 70.7907 84.7482 70.4938C84.458 69.5248 84.1242 68.5213 83.4097 67.8055C83.3878 67.7836 83.3629 67.7586 83.3317 67.7493C83.2537 67.7211 83.1694 67.7836 83.1382 67.8618C83.107 67.9368 83.1133 68.0243 83.1101 68.1056C83.1039 68.2869 83.0478 68.462 82.9916 68.6339C82.8449 69.0903 82.6983 69.5498 82.5517 70.0061C82.3301 70.6938 82.1086 71.3909 82.0587 72.113C82.0088 72.835 82.146 73.5946 82.586 74.1666C82.7326 74.3573 82.9105 74.5261 83.1008 74.673C83.2817 74.8137 83.4814 74.9419 83.703 74.9919C84.0025 75.0606 84.3301 74.9762 84.561 74.7731C84.8262 74.5417 84.9198 74.1635 84.9572 73.8259C85.0103 73.4071 85.0571 72.9913 85.0602 72.5693Z" fill="#565D70"/>
<path d="M81.3966 76.9336C81.2343 76.5773 81.0596 76.2241 80.8381 75.9021C80.6602 75.6458 80.4574 75.4082 80.2515 75.1738C79.5869 74.4111 78.8662 73.639 77.9208 73.2858C77.8896 73.2733 77.8584 73.2639 77.8272 73.267C77.7461 73.2733 77.6931 73.367 77.6962 73.4483C77.6993 73.5296 77.7399 73.6077 77.7711 73.6828C77.8397 73.8516 77.8615 74.0329 77.8834 74.211C77.9395 74.6893 77.9957 75.1644 78.0519 75.6427C78.1361 76.3616 78.2235 77.0868 78.4762 77.762C78.7289 78.4403 79.172 79.0717 79.8085 79.4124C80.0206 79.525 80.2515 79.6031 80.4886 79.6594C80.7102 79.7125 80.9442 79.7469 81.1688 79.7C81.4683 79.6375 81.7335 79.4249 81.8615 79.1436C82.0081 78.8217 81.9332 78.4403 81.8303 78.1183C81.6992 77.7151 81.5682 77.315 81.3966 76.9336Z" fill="#565D70"/>
<path d="M78.2517 83.2724C77.8992 83.1036 77.5372 82.9504 77.1597 82.8472C76.8602 82.766 76.5513 82.716 76.2424 82.6691C75.244 82.5159 74.1956 82.3909 73.244 82.7316C73.2128 82.7441 73.1816 82.7535 73.1598 82.7785C73.1005 82.8379 73.1223 82.941 73.1754 83.0035C73.2315 83.0661 73.3095 83.0942 73.3844 83.1348C73.5435 83.2192 73.6777 83.3443 73.8087 83.4662C74.1582 83.7944 74.5076 84.1226 74.8602 84.4508C75.3875 84.9447 75.921 85.4448 76.5513 85.7981C77.1815 86.1513 77.9241 86.3513 78.6293 86.1982C78.8664 86.1482 79.091 86.0575 79.3063 85.9481C79.5122 85.8449 79.7088 85.7199 79.8523 85.5386C80.0426 85.2979 80.1051 84.9634 80.0239 84.6665C79.9272 84.3258 79.6277 84.082 79.3406 83.9007C78.9881 83.6787 78.6324 83.4537 78.2517 83.2724Z" fill="#565D70"/>
<path d="M78.476 89.8057C78.1234 89.6369 77.7615 89.4837 77.3839 89.3806C77.0844 89.2993 76.7755 89.2493 76.4666 89.2024C75.4682 89.0492 74.4199 88.9242 73.4682 89.2649C73.437 89.2774 73.4058 89.2868 73.384 89.3118C73.3247 89.3712 73.3466 89.4743 73.3996 89.5368C73.4558 89.5994 73.5338 89.6275 73.6086 89.6681C73.7678 89.7525 73.9019 89.8776 74.033 89.9995C74.3824 90.3277 74.7319 90.6559 75.0844 90.9841C75.6117 91.478 76.1453 91.9781 76.7755 92.3314C77.4058 92.6846 78.1484 92.8846 78.8535 92.7315C79.0906 92.6815 79.3153 92.5908 79.5306 92.4814C79.7365 92.3782 79.933 92.2532 80.0766 92.0719C80.2669 91.8312 80.3293 91.4968 80.2482 91.1998C80.1514 90.8591 79.8519 90.6153 79.5649 90.434C79.2092 90.2089 78.8535 89.987 78.476 89.8057Z" fill="#565D70"/>
<path d="M76.7328 85.5604C77.0479 84.1131 78.0463 82.4002 79.5003 82.6752C80.5236 82.8691 81.079 83.9787 81.3817 84.979C82.0462 87.1608 82.2553 89.4833 81.9932 91.7496C82.0431 88.7675 82.8606 85.8042 84.3489 83.2223C84.8231 82.397 85.4908 81.5343 86.4362 81.4499C87.4315 81.3593 88.3082 82.2345 88.5797 83.1973C88.8511 84.1632 88.667 85.1884 88.4798 86.1731C89.0446 80.4434 90.2988 74.0885 95.0133 70.797C95.9649 70.1312 97.0725 69.6155 98.2332 69.6155C99.3939 69.6155 100.604 70.2344 101.051 71.3097C101.294 71.8942 101.297 72.5475 101.253 73.1789C100.882 78.4679 97.5468 83.0504 94.0336 87.0202C94.8729 86.6482 95.7434 86.27 96.6607 86.2575C97.578 86.245 98.5671 86.6951 98.904 87.5516C99.319 88.6081 98.6045 89.7897 97.7153 90.4961C96.8292 91.2026 95.7434 91.6621 94.9727 92.4967C96.5889 92.1184 98.7199 91.9559 99.4843 93.4344C99.8213 94.0909 99.7496 94.8786 99.5967 95.6006C98.6763 99.8862 94.929 103.409 90.6015 104.059C80.7764 105.528 74.9138 93.9002 76.7328 85.5604Z" fill="#F2EDE4"/>
<path d="M84.7074 102.209C84.6981 102.209 84.6887 102.209 84.6793 102.206C84.6232 102.19 84.592 102.131 84.6076 102.078C84.6762 101.84 91.4936 78.2805 99.3125 71.4255C99.3562 71.388 99.4217 71.3911 99.4592 71.4349C99.4966 71.4786 99.4935 71.5443 99.4498 71.5818C91.6777 78.3992 84.8759 101.896 84.8104 102.134C84.7948 102.181 84.7511 102.209 84.7074 102.209Z" fill="#D9C9AC"/>
<path d="M85.3781 100.005C85.3532 100.005 85.3313 99.9991 85.3126 99.9804C78.021 94.0256 78.8291 85.4545 78.8353 85.3702C78.8416 85.3139 78.8946 85.2701 78.9508 85.2764C79.0069 85.2826 79.0506 85.3326 79.0444 85.392C79.035 85.4764 78.2425 93.9381 85.4437 99.8178C85.4873 99.8553 85.4967 99.921 85.4593 99.9647C85.4374 99.9928 85.4062 100.005 85.3781 100.005Z" fill="#D9C9AC"/>
<path d="M87.2755 94.335C87.2349 94.335 87.1943 94.31 87.1787 94.2725C85.2318 89.6494 86.4268 82.9945 86.4393 82.9288C86.4487 82.8725 86.5017 82.8319 86.561 82.8444C86.6171 82.8538 86.6546 82.9101 86.6452 82.9663C86.6327 83.032 85.4502 89.6244 87.3722 94.1912C87.394 94.2444 87.3691 94.3069 87.316 94.3288C87.3036 94.3319 87.2911 94.335 87.2755 94.335Z" fill="#D9C9AC"/>
<path d="M85.7866 101.137C85.3154 101.137 85.0409 101.112 85.0253 101.112C84.9691 101.105 84.9254 101.055 84.9317 100.996C84.9379 100.94 84.9878 100.893 85.0471 100.902C85.1313 100.912 93.5181 101.643 97.7583 94.5942C97.7895 94.5442 97.8519 94.5286 97.9018 94.5598C97.9517 94.5911 97.9673 94.6536 97.9361 94.7036C94.3855 100.605 87.9831 101.137 85.7866 101.137Z" fill="#D9C9AC"/>
<path d="M88.4235 91.2155C88.3673 91.2155 88.3205 91.1718 88.3174 91.1155C88.3142 91.0592 88.3611 91.0092 88.4172 91.0061C88.4671 91.003 93.4437 90.8092 96.8882 87.8271C96.9319 87.7896 96.9974 87.7927 97.0349 87.8365C97.0723 87.8802 97.0692 87.9459 97.0255 87.9834C93.5248 91.0155 88.4765 91.2124 88.4266 91.2155C88.4235 91.2155 88.4235 91.2155 88.4235 91.2155Z" fill="#D9C9AC"/>
<path d="M93.0437 80.6595C92.9907 80.6595 92.9439 80.6189 92.9376 80.5626C92.9345 80.5251 92.688 76.7616 94.4665 73.6576C94.4945 73.6076 94.5601 73.592 94.61 73.6201C94.6599 73.6482 94.6786 73.7139 94.6474 73.7639C92.9002 76.8085 93.1435 80.5126 93.1467 80.5501C93.1498 80.6064 93.1061 80.6595 93.0499 80.6626C93.0499 80.6595 93.0468 80.6595 93.0437 80.6595Z" fill="#D9C9AC"/>
<path d="M95.3994 76.5176C95.3557 76.5176 95.312 76.4894 95.2995 76.4457C95.2808 76.3894 95.312 76.33 95.3682 76.3144C95.4056 76.3019 99.0374 75.1516 100.098 73.8668C100.136 73.8231 100.201 73.8168 100.245 73.8543C100.289 73.8918 100.295 73.9575 100.257 74.0013C99.156 75.3329 95.5803 76.4675 95.4275 76.5144C95.4212 76.5144 95.4119 76.5176 95.3994 76.5176Z" fill="#D9C9AC"/>
<path d="M91.6556 84.4288C91.3904 84.4288 91.2375 84.385 91.2157 84.3787C91.1595 84.36 91.1315 84.3037 91.1471 84.2475C91.1658 84.1912 91.2219 84.1599 91.2781 84.1787C91.2937 84.1818 92.8475 84.6226 95.0877 82.3376C95.1283 82.2969 95.1938 82.2938 95.2344 82.3376C95.2749 82.3782 95.2749 82.4438 95.2344 82.4845C93.5838 84.1693 92.2952 84.4288 91.6556 84.4288Z" fill="#D9C9AC"/>
<path d="M86.0956 89.9775C85.6744 89.9775 84.6635 89.7556 84.0145 87.7894C83.9958 87.7331 84.027 87.6737 84.08 87.6581C84.1362 87.6393 84.1955 87.6706 84.2111 87.7238C84.9693 90.015 86.1892 89.7681 86.2391 89.7556C86.2953 89.7399 86.3515 89.7774 86.3639 89.8337C86.3764 89.89 86.3421 89.9462 86.2859 89.9587C86.2766 89.9619 86.2079 89.9775 86.0956 89.9775Z" fill="#D9C9AC"/>
<path d="M80.8916 94.5006C80.8885 94.5006 80.8885 94.5006 80.8853 94.5006C80.8136 94.4943 79.085 94.3599 78.0024 92.1187C77.9774 92.0655 77.9992 92.003 78.0523 91.978C78.1022 91.953 78.1677 91.9749 78.1927 92.028C79.2223 94.1598 80.8822 94.288 80.8978 94.2911C80.954 94.2942 81.0008 94.3443 80.9945 94.4037C80.9945 94.4568 80.9477 94.5006 80.8916 94.5006Z" fill="#D9C9AC"/>
<path d="M82.7011 97.2949C82.6793 97.2949 82.6575 97.2887 82.6387 97.273C82.5919 97.2386 82.5857 97.173 82.62 97.1261C82.6294 97.1136 83.6091 95.782 82.7947 92.2873C82.7823 92.231 82.8166 92.1748 82.8727 92.1623C82.9289 92.1498 82.9851 92.1842 82.9976 92.2404C83.8369 95.8476 82.8259 97.2011 82.7823 97.2543C82.7604 97.2824 82.7323 97.2949 82.7011 97.2949Z" fill="#D9C9AC"/>
<path d="M89.4505 100.718C89.4412 100.718 89.4318 100.718 89.4256 100.715C89.3694 100.699 89.3351 100.643 89.3507 100.586C89.4037 100.38 90.683 95.4943 93.0511 94.3659C93.1042 94.3409 93.1666 94.3628 93.1915 94.4159C93.2165 94.4691 93.1947 94.5316 93.1416 94.5566C90.8639 95.6444 89.5691 100.589 89.5566 100.639C89.541 100.686 89.4973 100.718 89.4505 100.718Z" fill="#D9C9AC"/>
<path d="M94.6637 99.968C94.4921 99.968 94.333 99.9399 94.1894 99.8805C93.5966 99.6429 93.4656 99.0146 93.4593 98.9865C93.4469 98.9302 93.4843 98.874 93.5405 98.8646C93.5997 98.8521 93.6528 98.8896 93.6653 98.9459C93.6653 98.9521 93.7807 99.4929 94.2706 99.6867C94.7791 99.8868 95.5342 99.6523 96.4577 98.999C96.5045 98.9646 96.57 98.9771 96.6044 99.024C96.6387 99.0709 96.6262 99.1365 96.5794 99.1709C95.8244 99.6992 95.1847 99.968 94.6637 99.968Z" fill="#D9C9AC"/>
<rect x="54.1066" y="31.4787" width="5.90212" height="14.7553" rx="2.93028" fill="#FDFFFC"/>
<rect x="44.2697" y="36.39" width="5.90212" height="14.7553" rx="2.93028" transform="rotate(-41.7192 44.2697 36.39)" fill="#FDFFFC"/>
<rect x="65.2328" y="32.462" width="5.90212" height="14.7553" rx="2.93028" transform="rotate(43.4252 65.2328 32.462)" fill="#FDFFFC"/>
<path d="M24.14 69.7295C21.5784 69.7295 19.048 68.401 16.6081 65.7722C16.4116 65.5596 16.424 65.2283 16.6362 65.0313C16.8484 64.8344 17.1791 64.8469 17.3757 65.0595C19.7594 67.6289 22.1962 68.8417 24.6111 68.6636C28.4051 68.3822 30.9355 64.7531 30.9605 64.7156C31.1258 64.4781 31.4503 64.4155 31.6875 64.5812C31.9246 64.7438 31.987 65.072 31.8216 65.3095C31.7062 65.4752 28.9761 69.3919 24.686 69.7107C24.505 69.7201 24.3209 69.7295 24.14 69.7295Z" fill="#E9F2DE"/>
<path d="M15.2542 66.8319C15.1731 66.8319 15.092 66.8287 15.0109 66.8194C14.7176 66.785 14.4649 66.6943 14.2621 66.5505C13.6224 66.091 13.5881 65.2158 13.8845 64.625C14.0124 64.3656 14.3276 64.2593 14.5865 64.3906C14.8455 64.5187 14.9485 64.8345 14.8205 65.0939C14.7113 65.3127 14.7363 65.6003 14.8736 65.7003C14.9297 65.7409 15.0171 65.766 15.1294 65.7816C15.4695 65.8191 15.8221 65.7066 16.0748 65.4753C16.3275 65.2439 16.4742 64.9032 16.4711 64.5625C16.4679 64.4531 16.4523 64.3593 16.4211 64.2874C16.3556 64.1343 16.1965 64.0092 16.0124 63.9686C15.8221 63.928 15.5943 63.9748 15.4102 64.0968C15.1669 64.2531 14.8424 64.1843 14.6864 63.9436C14.5304 63.6998 14.599 63.3747 14.8393 63.2184C15.2574 62.9464 15.7628 62.8433 16.2277 62.9433C16.7425 63.0527 17.1856 63.4122 17.3853 63.8811C17.4695 64.078 17.5132 64.3031 17.5163 64.5469C17.5257 65.1846 17.2511 65.8222 16.78 66.2536C16.365 66.6224 15.8096 66.8319 15.2542 66.8319Z" fill="#E9F2DE"/>
<path d="M15.8721 69.1946C15.6506 69.1946 15.4447 69.0539 15.3729 68.8288C14.6928 66.6908 16.2091 65.3029 16.2746 65.2435C16.4899 65.0497 16.8207 65.0716 17.0141 65.2873C17.2044 65.5029 17.1888 65.8312 16.9735 66.025C16.9267 66.0687 15.9002 67.0315 16.3682 68.51C16.4556 68.7851 16.3027 69.082 16.0281 69.1696C15.9782 69.1883 15.9252 69.1946 15.8721 69.1946Z" fill="#E9F2DE"/>
<path d="M14.5143 69.4884C14.3115 69.4884 14.1181 69.3696 14.0339 69.1727C13.4286 67.7661 14.4239 66.1031 14.4675 66.0343C14.6173 65.7874 14.9387 65.7093 15.1883 65.8593C15.4348 66.0093 15.5128 66.3313 15.363 66.5782C15.1508 66.9283 14.6735 68.0036 14.998 68.757C15.1134 69.0227 14.9917 69.3321 14.7234 69.4446C14.6547 69.4759 14.583 69.4884 14.5143 69.4884Z" fill="#E9F2DE"/>
<path d="M86.8415 50.2738C75.3939 33.2848 57.519 46.1414 57.519 46.1414C57.519 46.1414 40.8546 31.7437 27.9469 47.6512C15.0391 63.5555 36.3368 88.5185 55.5783 89.847C74.8635 90.2346 98.289 67.2659 86.8415 50.2738Z" fill="#93BFA8"/>
<path d="M86.841 50.274C80.5229 40.8964 72.2484 40.612 66.1019 42.2405C70.8631 44.1629 84.4916 50.9335 82.4511 64.9061C80.9285 75.3433 69.5995 84.1457 61.169 89.3439C79.0096 85.9118 97.1966 65.6469 86.841 50.274Z" fill="#80B996"/>
<path d="M57.519 46.1449C57.519 46.1449 48.4271 38.2927 38.474 40.5965C48.5425 42.8409 54.2242 47.9735 54.2242 47.9735C55.6532 47.0764 57.519 46.1449 57.519 46.1449Z" fill="#80B996"/>
<path d="M33.6216 44.8443C31.6685 46.0884 30.0991 48.0546 29.7028 50.3396C29.6498 50.6396 29.6186 50.9553 29.7184 51.2429C29.8807 51.7118 30.3705 52.0088 30.8635 52.0713C31.3565 52.1338 31.8494 52.0056 32.3206 51.8493C34.6419 51.0773 36.7324 49.6144 39.1379 49.1736C40.3953 48.9423 41.7058 48.9986 42.9195 48.5985C44.1332 48.2015 45.2845 47.1418 45.2034 45.8665C45.063 43.6659 42.0334 43.0876 40.2955 42.8875C38.1052 42.6375 35.4375 43.6878 33.6216 44.8443Z" fill="#66A986"/>
<path d="M60.2774 46.8103C60.2118 47.0291 60.1682 47.2667 60.2337 47.4855C60.3678 47.9263 60.8827 48.1201 61.3351 48.1982C62.4552 48.392 63.6283 48.267 64.6798 47.845C65.3412 47.5793 65.9684 47.1854 66.4114 46.6259C67.1571 45.6819 67.335 43.5219 65.7905 43.2437C64.6049 43.0281 62.7578 44.0033 61.853 44.6723C61.1385 45.2037 60.5394 45.9382 60.2774 46.8103Z" fill="#66A986"/>
<path d="M56.948 47.367C56.7733 47.6671 56.7577 48.0766 56.9761 48.3454C57.1633 48.5767 57.4785 48.6642 57.7717 48.7205C58.0713 48.7768 58.3958 48.8112 58.6641 48.6642C58.8076 48.5861 58.9199 48.4642 59.0167 48.3329C59.2787 47.9891 59.4659 47.5139 59.2663 47.1295C59.1415 46.8919 58.8919 46.7387 58.6298 46.6762C57.987 46.5168 57.2944 46.7794 56.948 47.367Z" fill="#66A986"/>
<path d="M46.321 57.0632C46.4021 57.4883 46.4208 57.8853 46.4084 58.3073C46.3865 58.723 46.3241 59.1481 46.165 59.5639C46.0121 59.9796 45.7407 60.3891 45.3475 60.6704C44.9606 60.958 44.4895 61.0893 44.0433 61.1174C43.8156 61.1331 43.5784 61.1112 43.3413 61.0549C43.1042 60.9924 42.8702 60.8799 42.6736 60.7236C42.2711 60.4079 42.0527 59.964 41.9373 59.5451C41.7095 58.6949 41.7438 57.8822 41.8811 57.0632C41.9123 56.8788 42.087 56.7537 42.2711 56.785C42.4458 56.8163 42.5675 56.9757 42.5519 57.1507L42.5488 57.1726C42.5145 57.5227 42.502 57.9072 42.5238 58.2666C42.5457 58.6292 42.5925 58.9887 42.6986 59.3107C42.8047 59.6295 42.9575 59.9108 43.1791 60.0734C43.2883 60.1547 43.41 60.2141 43.5472 60.2484C43.6876 60.2766 43.8374 60.2922 43.9996 60.2797C44.3241 60.2609 44.633 60.1734 44.8702 60.0015C45.1166 59.8327 45.2945 59.5701 45.4255 59.2669C45.5566 58.9606 45.6252 58.6105 45.6595 58.2541C45.697 57.9009 45.6907 57.5196 45.6595 57.1757L45.6564 57.157C45.6377 56.9694 45.775 56.8037 45.9622 56.7881C46.1338 56.7725 46.2898 56.8944 46.321 57.0632Z" fill="#3F4553"/>
<path d="M61.6966 57.1759C61.6654 57.5197 61.6592 57.9011 61.6966 58.2543C61.7278 58.6106 61.7996 58.9607 61.9306 59.2671C62.0617 59.5734 62.2395 59.8328 62.486 60.0016C62.7263 60.1767 63.032 60.2642 63.3565 60.2798C63.5156 60.2923 63.6685 60.2767 63.8089 60.2486C63.9462 60.2142 64.0679 60.1548 64.1771 60.0735C64.3955 59.911 64.5515 59.6297 64.6576 59.3108C64.7637 58.992 64.8105 58.6294 64.8323 58.2668C64.8573 57.9073 64.8417 57.5228 64.8073 57.1727L64.8042 57.1509C64.7855 56.9633 64.9228 56.7976 65.11 56.782C65.2878 56.7664 65.447 56.8914 65.475 57.0633C65.6123 57.8823 65.6466 58.6919 65.4189 59.5453C65.3034 59.9641 65.0819 60.408 64.6825 60.7237C64.486 60.88 64.252 60.9925 64.0148 61.0551C63.7777 61.1113 63.5375 61.1332 63.3128 61.1176C62.8698 61.0926 62.3986 60.9582 62.0086 60.6706C61.6186 60.3892 61.3441 59.9798 61.1912 59.564C61.0321 59.1483 60.9697 58.7232 60.9478 58.3074C60.9353 57.8854 60.9541 57.4885 61.0352 57.0633C61.0695 56.8789 61.2473 56.757 61.4314 56.7914C61.603 56.8226 61.7216 56.9821 61.706 57.154L61.6966 57.1759Z" fill="#3F4553"/>
<path d="M53.5098 63.1181C52.9357 63.1181 52.424 63.043 51.9966 62.943C50.6518 62.6242 49.825 61.9959 49.7876 61.9677C49.6409 61.8521 49.6128 61.6395 49.7252 61.4926C49.8406 61.3457 50.0528 61.3176 50.1994 61.4301C50.3211 61.5239 53.2321 63.6901 56.9762 61.4082C57.1354 61.3113 57.3444 61.3613 57.4411 61.5207C57.5378 61.6802 57.4879 61.8896 57.3288 61.9865C55.9123 62.8492 54.5956 63.1181 53.5098 63.1181Z" fill="#3F4553"/>
<path d="M96.6632 73.0992C95.9175 73.0992 95.1812 73.0273 94.448 72.8866C88.0768 71.6519 84.5667 65.5284 84.42 65.269C84.2765 65.0158 84.367 64.6969 84.6197 64.5563C84.8725 64.4156 85.1907 64.5031 85.3311 64.7563C85.3654 64.8157 88.7601 70.7236 94.6539 71.8614C98.345 72.5741 102.251 71.2925 106.276 68.0603C106.501 67.879 106.832 67.9165 107.013 68.1416C107.193 68.3667 107.156 68.698 106.931 68.8793C103.434 71.6832 99.9892 73.0992 96.6632 73.0992Z" fill="#E9F2DE"/>
<path d="M108.292 70.158C107.736 70.158 107.181 69.9486 106.769 69.5735C106.298 69.1453 106.02 68.5076 106.03 67.8668C106.033 67.6199 106.079 67.3979 106.161 67.201C106.357 66.7321 106.8 66.3726 107.318 66.2632C107.783 66.1663 108.289 66.2664 108.707 66.5383C108.95 66.6946 109.019 67.0197 108.859 67.2635C108.7 67.5073 108.376 67.5761 108.136 67.4167C107.952 67.2979 107.724 67.2479 107.533 67.2885C107.349 67.326 107.19 67.4511 107.125 67.6074C107.094 67.6792 107.078 67.773 107.075 67.8824C107.069 68.2231 107.218 68.5639 107.471 68.7952C107.724 69.0265 108.079 69.139 108.416 69.1015C108.529 69.089 108.616 69.0609 108.672 69.0202C108.81 68.9233 108.835 68.6326 108.725 68.4138C108.597 68.1544 108.7 67.8387 108.959 67.7105C109.218 67.5792 109.533 67.6855 109.661 67.9449C109.955 68.5357 109.923 69.411 109.284 69.8705C109.081 70.0174 108.828 70.108 108.535 70.1393C108.454 70.1549 108.373 70.158 108.292 70.158Z" fill="#E9F2DE"/>
<path d="M107.674 72.5239C107.621 72.5239 107.568 72.5145 107.515 72.4989C107.24 72.4114 107.087 72.1144 107.175 71.8393C107.652 70.3421 106.585 69.3668 106.573 69.3574C106.357 69.1636 106.339 68.8323 106.529 68.6166C106.719 68.4009 107.05 68.3821 107.268 68.5728C107.334 68.6322 108.85 70.017 108.17 72.1582C108.101 72.3801 107.895 72.5239 107.674 72.5239Z" fill="#E9F2DE"/>
<path d="M109.031 72.8175C108.962 72.8175 108.89 72.8049 108.825 72.7737C108.559 72.658 108.438 72.3517 108.55 72.0829C108.875 71.3327 108.397 70.2574 108.185 69.9042C108.035 69.6572 108.113 69.3353 108.36 69.1852C108.606 69.0352 108.928 69.1133 109.077 69.3603C109.121 69.429 110.116 71.092 109.511 72.4986C109.424 72.6987 109.233 72.8175 109.031 72.8175Z" fill="#E9F2DE"/>
<path d="M49.5817 92.5724C49.198 92.5724 48.8173 92.5661 48.4367 92.5568C48.1465 92.5474 47.9187 92.3067 47.9281 92.0191C47.9375 91.7284 48.1746 91.5096 48.4648 91.5096C52.9577 91.6315 57.7345 91.0188 62.2805 89.7372C62.9606 89.5466 63.75 89.2934 64.4583 88.8714C64.7703 88.6838 64.8545 88.5557 64.8701 88.4807C64.9013 88.3244 64.6736 88.0805 64.3678 87.9336C63.6564 87.596 62.7984 87.5867 62.2149 87.6054C60.1682 87.6773 58.1651 88.2806 56.4178 89.3559C56.1713 89.5059 55.85 89.4309 55.6971 89.184C55.5473 88.937 55.6222 88.6151 55.8687 88.4619C57.7688 87.2928 59.9498 86.6364 62.1775 86.5583C62.867 86.5332 63.8935 86.552 64.8108 86.9865C65.4068 87.2678 66.0495 87.8805 65.8935 88.6776C65.7843 89.2402 65.3256 89.5716 64.9918 89.7716C64.1743 90.2593 63.2633 90.55 62.5613 90.7469C58.2992 91.9472 53.8344 92.5724 49.5817 92.5724Z" fill="#E9F2DE"/>
<path d="M61.2566 92.5883C57.0008 92.5883 52.6483 91.9693 48.3021 90.7471C47.6 90.5502 46.689 90.2595 45.8715 89.7719C45.5377 89.5718 45.079 89.2405 44.9698 88.6778C44.8169 87.8807 45.4565 87.2681 46.0525 86.9867C46.9698 86.5522 47.9963 86.5335 48.6858 86.5585C50.9136 86.6366 53.0945 87.2931 54.9946 88.4621C55.2411 88.6122 55.3191 88.9373 55.1662 89.1842C55.0165 89.4312 54.692 89.5093 54.4455 89.3561C52.6982 88.284 50.6952 87.6776 48.6484 87.6057C48.068 87.5869 47.21 87.5963 46.4987 87.9339C46.1898 88.0808 45.9651 88.3246 45.9963 88.4778C46.0119 88.5528 46.093 88.6841 46.405 88.8685C47.1133 89.2905 47.9027 89.5437 48.5829 89.7344C53.2287 91.041 57.8776 91.6474 62.3986 91.5224C62.6918 91.5255 62.929 91.7443 62.9352 92.0319C62.9415 92.3226 62.7137 92.5633 62.4266 92.5695C62.0398 92.582 61.6466 92.5883 61.2566 92.5883Z" fill="#E9F2DE"/>
<path d="M61.3754 93.3258C61.2755 93.5602 61.1882 93.8041 61.1851 94.0573C61.1788 94.3104 61.2693 94.5793 61.4659 94.7356C61.7373 94.9544 62.1554 94.9106 62.4393 94.7043C62.7233 94.498 62.8886 94.1698 62.9885 93.8353C63.1632 93.2602 63.1694 92.635 63.0103 92.0567C62.9573 91.866 62.8512 91.6128 62.6234 91.5816C62.4113 91.5503 62.3052 91.7441 62.2022 91.8973C61.8902 92.3568 61.5938 92.8163 61.3754 93.3258Z" fill="#E9F2DE"/>
<path d="M49.5189 93.3258C49.6187 93.5602 49.7061 93.8041 49.7092 94.0573C49.7155 94.3104 49.625 94.5793 49.4284 94.7356C49.157 94.9544 48.7389 94.9106 48.455 94.7043C48.171 94.498 48.0057 94.1698 47.9058 93.8353C47.7311 93.2602 47.7249 92.635 47.884 92.0567C47.937 91.866 48.0431 91.6128 48.2709 91.5816C48.483 91.5503 48.5891 91.7441 48.6921 91.8973C49.0041 92.3568 49.3005 92.8163 49.5189 93.3258Z" fill="#E9F2DE"/>
<path d="M56.0804 105.995C65.1218 105.995 72.4514 105.097 72.4514 103.991C72.4514 102.884 65.1218 101.987 56.0804 101.987C47.0389 101.987 39.7093 102.884 39.7093 103.991C39.7093 105.097 47.0389 105.995 56.0804 105.995Z" fill="#808AFF"/>
<path d="M34.786 101.88C34.8546 101.883 34.9201 101.837 34.9357 101.765C35.7563 98.2918 36.3179 94.7284 36.605 91.1711C36.683 90.2053 36.7579 89.0643 36.7173 87.914C36.5987 84.51 35.5005 81.109 33.5379 78.0738C31.7221 75.2637 29.1449 72.7755 26.0903 70.8719C26.0217 70.8281 25.9281 70.85 25.8844 70.9188C25.8407 70.9875 25.8625 71.0813 25.9312 71.1251C28.9514 73.0037 31.4943 75.4606 33.2852 78.2332C35.2165 81.2216 36.2992 84.5725 36.4147 87.9203C36.4552 89.0549 36.3803 90.1865 36.3023 91.143C36.0153 94.6846 35.4568 98.2356 34.6424 101.693C34.6237 101.774 34.6737 101.852 34.7517 101.871C34.7673 101.877 34.7766 101.88 34.786 101.88Z" fill="#565D70"/>
<path d="M25.5817 69.8968C25.4382 69.7687 25.2666 69.6718 25.0919 69.5905C24.549 69.331 23.9187 69.1716 23.3477 69.3592C23.2947 69.3748 23.2448 69.3967 23.2042 69.4373C23.1668 69.4748 23.148 69.528 23.1387 69.578C23.1044 69.7749 23.2104 69.9656 23.3259 70.125C23.6785 70.6033 24.1964 70.944 24.7611 71.1065C25.0856 71.2003 26.2432 71.4379 26.1059 70.8252C26.0372 70.4845 25.8438 70.1281 25.5817 69.8968Z" fill="#565D70"/>
<path d="M28.1521 73.3575C27.4719 73.2918 26.7855 73.3356 26.1053 73.3887C25.6716 73.4231 25.2379 73.4637 24.8042 73.5075C24.7168 73.5169 24.6108 73.545 24.5952 73.6294C24.5764 73.7232 24.6888 73.7857 24.7761 73.8263C25.3814 74.0983 25.7527 74.7203 26.305 75.0892C26.7043 75.3549 27.1817 75.4768 27.6591 75.5424C28.0585 75.5956 28.4641 75.6112 28.8666 75.5893C29.1942 75.5706 29.5342 75.5205 29.8026 75.333C30.074 75.1423 30.2394 74.811 30.2456 74.4796C30.2519 74.067 29.9305 73.8201 29.5779 73.6857C29.1224 73.5075 28.6357 73.4043 28.1521 73.3575Z" fill="#565D70"/>
<path d="M32.3707 79.0622C31.6906 78.9965 31.0041 79.0403 30.324 79.0934C29.8903 79.1278 29.4566 79.1685 29.0229 79.2122C28.9355 79.2216 28.8294 79.2497 28.8138 79.3341C28.7951 79.4279 28.9074 79.4904 28.9948 79.5311C29.6001 79.803 29.9714 80.425 30.5236 80.7939C30.923 81.0596 31.4004 81.1815 31.8778 81.2471C32.2771 81.3003 32.6827 81.3159 33.0852 81.294C33.4128 81.2753 33.7529 81.2253 34.0213 81.0377C34.2927 80.847 34.4581 80.5157 34.4643 80.1844C34.4705 79.7717 34.1492 79.5248 33.7966 79.3904C33.338 79.2153 32.8512 79.1091 32.3707 79.0622Z" fill="#565D70"/>
<path d="M34.617 84.4042C33.993 84.1291 33.3253 83.9541 32.6638 83.7916C32.2395 83.6884 31.8151 83.5915 31.3908 83.4946C31.3066 83.4758 31.1974 83.4696 31.1537 83.5446C31.1069 83.629 31.1911 83.7228 31.2629 83.7853C31.7527 84.2354 31.9087 84.9419 32.3175 85.4639C32.6139 85.8421 33.0289 86.1078 33.4594 86.3172C33.8214 86.4923 34.202 86.6361 34.592 86.7392C34.9071 86.8236 35.2472 86.883 35.5624 86.7892C35.8806 86.6923 36.1396 86.4329 36.2519 86.1172C36.3892 85.7296 36.1614 85.392 35.8681 85.1544C35.4906 84.8512 35.06 84.598 34.617 84.4042Z" fill="#565D70"/>
<path d="M34.8885 90.962C34.2926 90.6244 33.6498 90.3868 33.004 90.1587C32.5921 90.0149 32.1803 89.8742 31.7653 89.7398C31.6842 89.7117 31.575 89.6929 31.525 89.7648C31.472 89.843 31.5469 89.9461 31.6093 90.018C32.0523 90.5119 32.1397 91.2339 32.4954 91.7935C32.7512 92.1998 33.1412 92.5062 33.55 92.7562C33.8932 92.9688 34.2582 93.147 34.6358 93.2876C34.9415 93.4033 35.2723 93.4971 35.5936 93.4314C35.9181 93.3658 36.2052 93.1345 36.3456 92.8313C36.5203 92.4562 36.3269 92.0998 36.0585 91.8341C35.7122 91.4934 35.3097 91.1996 34.8885 90.962Z" fill="#565D70"/>
<path d="M31.5159 74.1444C31.5159 73.7536 31.5284 73.3598 31.597 72.9753C31.65 72.669 31.7374 72.3658 31.8279 72.0688C32.118 71.0998 32.4519 70.0964 33.1664 69.3806C33.1882 69.3587 33.2132 69.3337 33.2444 69.3243C33.3224 69.2962 33.4066 69.3587 33.4378 69.4369C33.469 69.5119 33.4628 69.5994 33.4659 69.6807C33.4722 69.862 33.5283 70.037 33.5845 70.2089C33.7311 70.6653 33.8778 71.1248 34.0244 71.5812C34.2459 72.2689 34.4675 72.9659 34.5174 73.688C34.5673 74.4101 34.43 75.1697 33.9901 75.7417C33.8434 75.9324 33.6656 76.1012 33.4753 76.2481C33.2943 76.3887 33.0946 76.5169 32.8731 76.5669C32.5736 76.6357 32.246 76.5513 32.0151 76.3481C31.7499 76.1168 31.6563 75.7386 31.6188 75.401C31.5658 74.9821 31.519 74.5632 31.5159 74.1444Z" fill="#565D70"/>
<path d="M35.179 78.506C35.3412 78.1497 35.5159 77.7964 35.7375 77.4745C35.9153 77.2181 36.1181 76.9806 36.324 76.7461C36.9886 75.9834 37.7093 75.2113 38.6547 74.8581C38.6859 74.8456 38.7171 74.8362 38.7483 74.8394C38.8295 74.8456 38.8825 74.9394 38.8794 75.0207C38.8763 75.1019 38.8357 75.1801 38.8045 75.2551C38.7359 75.4239 38.714 75.6052 38.6922 75.7834C38.636 76.2616 38.5798 76.7368 38.5237 77.215C38.4394 77.934 38.3521 78.6592 38.0994 79.3344C37.8466 80.0127 37.4036 80.6441 36.7671 80.9848C36.5549 81.0973 36.324 81.1755 36.0869 81.2317C35.8654 81.2849 35.6314 81.3193 35.4067 81.2724C35.1072 81.2099 34.842 80.9973 34.7141 80.716C34.5674 80.394 34.6423 80.0127 34.7453 79.6907C34.8794 79.2875 35.0074 78.8874 35.179 78.506Z" fill="#565D70"/>
<path d="M38.3244 84.8474C38.6769 84.6786 39.0388 84.5254 39.4164 84.4223C39.7159 84.341 40.0248 84.291 40.3337 84.2441C41.3321 84.091 42.3804 83.9659 43.3321 84.3066C43.3633 84.316 43.3945 84.3285 43.4163 84.3535C43.4756 84.4129 43.4538 84.5161 43.4007 84.5786C43.3445 84.6411 43.2665 84.6724 43.1917 84.7099C43.0325 84.7943 42.8984 84.9193 42.7673 85.0412C42.4179 85.3694 42.0684 85.6976 41.7159 86.0259C41.1886 86.5197 40.655 87.0199 40.0248 87.3731C39.3945 87.7263 38.652 87.9264 37.9468 87.7732C37.7097 87.7232 37.4851 87.6325 37.2698 87.5231C37.0638 87.42 36.8673 87.295 36.7238 87.1137C36.5334 86.873 36.471 86.5385 36.5521 86.2415C36.6489 85.9008 36.9484 85.657 37.2354 85.4757C37.5911 85.2507 37.9437 85.0256 38.3244 84.8474Z" fill="#565D70"/>
<path d="M38.1026 91.3778C38.4551 91.209 38.8171 91.0558 39.1946 90.9527C39.4941 90.8714 39.803 90.8214 40.1119 90.7745C41.1103 90.6213 42.1587 90.4963 43.1103 90.837C43.1415 90.8495 43.1727 90.8589 43.1945 90.8839C43.2538 90.9433 43.232 91.0464 43.1789 91.109C43.1228 91.1715 43.0448 91.2027 42.9699 91.2402C42.8108 91.3246 42.6766 91.4497 42.5456 91.5716C42.1961 91.8998 41.8467 92.228 41.4941 92.5562C40.9668 93.0501 40.4333 93.5502 39.803 93.9035C39.1728 94.2567 38.4302 94.4567 37.725 94.3036C37.4879 94.2535 37.2633 94.1629 37.048 94.0535C36.8421 93.9503 36.6455 93.8253 36.502 93.644C36.3117 93.4033 36.2493 93.0689 36.3304 92.7719C36.4271 92.4312 36.7266 92.1874 37.0137 92.0061C37.3662 91.781 37.7219 91.5591 38.1026 91.3778Z" fill="#565D70"/>
<path d="M45.7404 91.8403C45.756 91.7309 45.7684 91.6247 45.7747 91.5152C46.1085 86.6452 40.0993 89.374 38.5798 91.5934C39.1164 90.5494 38.5985 89.1052 37.5252 88.6363C36.4519 88.1706 35.0447 88.7833 34.6516 89.8867C34.9574 87.4048 35.2663 84.9228 35.572 82.4409C35.7093 81.3312 35.7904 80.0496 34.9979 79.2619C34.1087 78.3836 32.5175 78.6711 31.6376 79.5589C30.7577 80.4466 30.4239 81.7313 30.2024 82.9661C29.1259 81.8251 26.7952 82.7879 26.8358 84.3571C26.97 81.1749 27.0854 77.8803 25.8873 74.9295C25.1198 73.0384 23.3164 71.1691 21.3382 71.6567C19.5847 72.0881 18.7579 74.0886 18.4272 75.8672C17.6659 79.9684 18.1526 84.2914 19.8094 88.1175C19.3351 87.014 17.513 87.2266 16.8952 88.255C16.2775 89.2865 16.5489 90.615 17.0107 91.7247C15.8625 90.5525 14.3524 89.646 12.7143 89.5835C11.0763 89.521 9.34777 90.4806 8.8548 92.0435C8.35871 93.6096 9.50066 95.5789 11.1387 95.6289C10.0997 95.7508 9.5381 97.0418 9.8033 98.0545C11.1325 103.134 24.6018 103.853 28.6579 103.45C34.7483 102.84 40.7108 99.8675 44.3114 94.9068C44.9759 93.9878 45.575 92.9594 45.7404 91.8403Z" fill="#F2EDE4"/>
<path d="M28.5519 102.471C28.5207 102.471 28.4895 102.456 28.4677 102.428C25.1167 97.9265 23.4693 90.1275 22.6737 84.3822C21.8126 78.1617 21.7439 72.9353 21.7439 72.8822C21.7439 72.8259 21.7907 72.7759 21.8469 72.7759C21.9031 72.7759 21.9499 72.8228 21.953 72.879C21.9561 73.0854 22.2712 93.7472 28.6362 102.303C28.6705 102.35 28.6612 102.415 28.6143 102.45C28.5956 102.465 28.5738 102.471 28.5519 102.471Z" fill="#D9C9AC"/>
<path d="M26.6891 101.558C19.2258 101.558 11.9748 97.26 11.8999 97.2163C11.85 97.1882 11.8344 97.1225 11.8624 97.0725C11.8936 97.0225 11.956 97.0068 12.006 97.035C12.0871 97.0819 20.0838 101.821 27.8872 101.308C27.9433 101.308 27.9932 101.349 27.9995 101.405C28.0026 101.461 27.9589 101.511 27.9028 101.517C27.5003 101.546 27.0947 101.558 26.6891 101.558Z" fill="#D9C9AC"/>
<path d="M25.7971 97.2294C25.7597 97.2294 25.7222 97.2075 25.7035 97.17C25.6785 97.1168 25.7004 97.0543 25.7503 97.0293C33.3165 93.2533 33.5973 80.2154 33.5973 80.0841C33.5973 80.0278 33.6472 79.9809 33.7034 79.9809C33.7595 79.9809 33.8063 80.0278 33.8063 80.0872C33.8032 80.2185 33.5224 93.3814 25.8439 97.2169C25.8283 97.2262 25.8127 97.2294 25.7971 97.2294Z" fill="#D9C9AC"/>
<path d="M26.2521 98.8112C17.2102 98.8112 11.1978 91.7749 11.1385 91.703C11.101 91.6593 11.1073 91.5936 11.151 91.5561C11.1947 91.5186 11.2602 91.5249 11.2976 91.5686C11.3569 91.6405 17.4067 98.7081 26.4518 98.5987C26.508 98.5987 26.5548 98.6456 26.5579 98.7018C26.5579 98.7581 26.5111 98.8081 26.455 98.8081C26.3863 98.8112 26.3208 98.8112 26.2521 98.8112Z" fill="#D9C9AC"/>
<path d="M24.9049 94.6256C24.8955 94.6256 24.8893 94.6256 24.8799 94.6225C19.5196 93.3284 18.2747 88.6803 18.2622 88.6365C18.2466 88.5802 18.2809 88.524 18.3371 88.5084C18.3933 88.4927 18.4494 88.5271 18.465 88.5834C18.4775 88.6303 19.6943 93.1534 24.9298 94.4193C24.986 94.4318 25.0203 94.4881 25.0078 94.5444C24.9954 94.5913 24.9548 94.6256 24.9049 94.6256Z" fill="#D9C9AC"/>
<path d="M24.4301 92.9591C24.3926 92.9591 24.3552 92.9372 24.3365 92.8997C24.3115 92.8466 24.3333 92.7841 24.3833 92.7591C27.2974 91.3118 28.9448 83.5847 28.9604 83.5066C28.9729 83.4503 29.0291 83.4128 29.0852 83.4253C29.1414 83.4378 29.1788 83.4941 29.1663 83.5503C29.0977 83.8723 27.4815 91.4525 24.4769 92.9466C24.4613 92.956 24.4457 92.9591 24.4301 92.9591Z" fill="#D9C9AC"/>
<path d="M22.6144 83.2407C22.5925 83.2407 22.5707 83.2344 22.5488 83.2188C20.449 81.5902 19.5473 77.0265 19.5099 76.8327C19.4974 76.7764 19.5348 76.7202 19.5941 76.7108C19.6503 76.6983 19.7064 76.7358 19.7158 76.7952C19.7252 76.8421 20.6393 81.4746 22.6768 83.0531C22.7236 83.0875 22.7298 83.1531 22.6955 83.2C22.6768 83.2282 22.6456 83.2407 22.6144 83.2407Z" fill="#D9C9AC"/>
<path d="M23.2883 87.7296C23.2727 87.7296 23.2571 87.7265 23.2415 87.7203C23.1885 87.6952 23.1666 87.6327 23.1916 87.5796C23.2166 87.5265 25.7345 82.2375 25.0917 78.2239C25.0824 78.1676 25.1229 78.1145 25.1791 78.1051C25.2353 78.0958 25.2914 78.1333 25.2977 78.1927C25.9498 82.2719 23.4038 87.6202 23.3788 87.6734C23.3663 87.7078 23.3289 87.7296 23.2883 87.7296Z" fill="#D9C9AC"/>
<path d="M27.2634 89.2394C27.2259 89.2394 27.1885 89.2175 27.1698 89.18C27.1323 89.105 26.2556 87.3013 26.2057 85.579C26.2026 85.5227 26.2494 85.4727 26.3086 85.4727C26.3679 85.4727 26.4147 85.5165 26.4147 85.5759C26.4615 87.2545 27.3476 89.0737 27.357 89.0924C27.3819 89.1456 27.3601 89.2081 27.3102 89.2331C27.2946 89.2362 27.279 89.2394 27.2634 89.2394Z" fill="#D9C9AC"/>
<path d="M19.5818 93.1346C19.067 93.1346 18.4835 93.0909 17.8969 92.9533C17.8408 92.9408 17.8065 92.8846 17.8189 92.8283C17.8314 92.772 17.8907 92.7376 17.9437 92.7502C19.6192 93.1377 21.3165 92.7533 21.3353 92.7502C21.3914 92.7376 21.4476 92.772 21.4601 92.8283C21.4725 92.8846 21.4382 92.9408 21.3821 92.9533C21.3353 92.9658 20.5833 93.1346 19.5818 93.1346Z" fill="#D9C9AC"/>
<path d="M18.8356 97.2288C18.792 97.2288 18.7514 97.2038 18.7358 97.1601C18.7264 97.1382 17.8996 94.8657 17.1789 93.7404C17.1477 93.6904 17.1602 93.6279 17.2101 93.5966C17.26 93.5654 17.3224 93.581 17.3536 93.6279C18.0868 94.7719 18.898 96.9944 18.9324 97.0882C18.9511 97.1413 18.923 97.2038 18.87 97.2226C18.8606 97.2288 18.8481 97.2288 18.8356 97.2288Z" fill="#D9C9AC"/>
<path d="M15.4007 98.9418C15.3695 98.9418 15.3383 98.9261 15.3165 98.9011C15.2822 98.8542 15.2884 98.7886 15.3352 98.7542C15.3383 98.7511 15.7439 98.4291 15.8032 97.8946C15.8469 97.4882 15.6847 97.06 15.3196 96.6193C15.2822 96.5755 15.2884 96.5099 15.3321 96.4723C15.3758 96.4348 15.4413 96.4411 15.4787 96.4848C15.8812 96.9694 16.0622 97.4539 16.0092 97.9196C15.9405 98.5448 15.4819 98.9042 15.4631 98.9199C15.4475 98.9355 15.4226 98.9418 15.4007 98.9418Z" fill="#D9C9AC"/>
<path d="M11.8124 94.1564C11.3506 94.1564 10.8202 94.0626 10.2711 93.7782C10.2211 93.75 10.1993 93.6875 10.2274 93.6375C10.2555 93.5875 10.3179 93.5656 10.3678 93.5937C11.881 94.3783 13.2819 93.6031 13.2975 93.5969C13.3475 93.5687 13.413 93.5875 13.4411 93.6375C13.4691 93.6875 13.4504 93.7532 13.4005 93.7813C13.3599 93.8 12.711 94.1564 11.8124 94.1564Z" fill="#D9C9AC"/>
<path d="M30.78 92.0809C30.7426 92.0809 30.7052 92.059 30.6864 92.0215C30.674 91.9965 29.4634 89.4895 30.0624 86.9451C30.0749 86.8888 30.1342 86.8544 30.1872 86.8669C30.2434 86.8794 30.2777 86.9357 30.2652 86.992C29.6849 89.4676 30.8612 91.9058 30.8736 91.9308C30.8986 91.984 30.8768 92.0465 30.8268 92.0715C30.8112 92.0777 30.7956 92.0809 30.78 92.0809Z" fill="#D9C9AC"/>
<path d="M27.0947 100.13C27.0542 100.13 27.0167 100.108 27.0011 100.07C26.9762 100.017 26.998 99.9548 27.0511 99.9329C27.1197 99.9017 33.8092 96.7289 36.7888 90.6117C36.8138 90.5585 36.8762 90.5366 36.9292 90.5648C36.9823 90.5898 37.0041 90.6523 36.976 90.7054C33.9652 96.8915 27.2071 100.092 27.1384 100.127C27.1259 100.127 27.1103 100.13 27.0947 100.13Z" fill="#D9C9AC"/>
<path d="M28.2208 102.008C28.1708 102.008 28.1272 101.971 28.1178 101.921C28.1084 101.865 28.149 101.811 28.2052 101.802C34.6325 100.783 43.9147 90.6866 44.0084 90.5866C44.0458 90.5428 44.1144 90.5397 44.155 90.5803C44.1987 90.6178 44.2018 90.6866 44.1612 90.7272C44.0676 90.8304 34.7355 100.98 28.2364 102.008C28.2301 102.008 28.227 102.008 28.2208 102.008Z" fill="#D9C9AC"/>
<path d="M32.5363 96.3855C32.4802 96.3855 32.4334 96.3417 32.4302 96.2823C32.4302 96.2605 32.3772 94.0755 33.1915 91.9374C33.2134 91.8843 33.2727 91.8561 33.3257 91.878C33.3787 91.8999 33.4068 91.9593 33.385 92.0124C32.5831 94.1099 32.6362 96.2542 32.6362 96.2761C32.6424 96.3355 32.5987 96.3824 32.5363 96.3855C32.5394 96.3855 32.5394 96.3855 32.5363 96.3855Z" fill="#D9C9AC"/>
<path d="M35.2759 94.7663C34.6612 94.7663 34.2743 94.6288 34.24 94.6163C34.1869 94.5975 34.1589 94.535 34.1776 94.4819C34.1963 94.4287 34.2556 94.4006 34.3117 94.4193C34.3305 94.4256 36.0372 95.0195 38.0714 93.5972C38.1182 93.5628 38.1838 93.5754 38.2181 93.6222C38.2524 93.6691 38.2399 93.7348 38.1931 93.7692C37.0418 94.5756 35.9997 94.7663 35.2759 94.7663Z" fill="#D9C9AC"/>
<path d="M37.4443 98.3673C36.527 98.3673 36.1027 97.9609 36.0777 97.9359C36.0372 97.8953 36.0372 97.8296 36.0777 97.7859C36.1183 97.7452 36.1838 97.7452 36.2244 97.7859C36.2337 97.7953 37.1136 98.6205 39.1354 97.764C39.1884 97.739 39.2508 97.7671 39.2727 97.8203C39.2945 97.8734 39.2695 97.9359 39.2165 97.9578C38.4958 98.2641 37.9061 98.3673 37.4443 98.3673Z" fill="#D9C9AC"/>
<path d="M31.9908 100.648C31.9346 100.648 31.8878 100.601 31.8847 100.545C31.8847 100.486 31.8691 99.1042 32.8332 97.9883C32.8706 97.9445 32.9362 97.9414 32.9798 97.9789C33.0235 98.0164 33.0298 98.0821 32.9892 98.1258C32.0781 99.1792 32.0906 100.526 32.0906 100.542C32.0969 100.601 32.0501 100.648 31.9908 100.648Z" fill="#D9C9AC"/>
<path d="M19.2105 53.3304C20.3992 53.3304 20.3992 51.4799 19.2105 51.4799C18.0218 51.4831 18.0218 53.3304 19.2105 53.3304Z" fill="#8E97FD"/>
<path d="M40.8356 21.1682C42.0244 21.1682 42.0244 19.3177 40.8356 19.3177C39.6469 19.3177 39.6438 21.1682 40.8356 21.1682Z" fill="#8E97FD"/>
<path d="M85.6744 39.6449C86.2672 39.6449 86.2703 38.7197 85.6744 38.7197C85.0815 38.7197 85.0784 39.6449 85.6744 39.6449Z" fill="#8E97FD"/>
<path d="M36.0715 32.3681C36.6643 32.3681 36.6674 31.4428 36.0715 31.4428C35.4786 31.4428 35.4786 32.3681 36.0715 32.3681Z" fill="#8E97FD"/>
<path d="M94.5604 38.7199C95.1532 38.7199 95.1563 37.7947 94.5604 37.7947C93.9644 37.7947 93.9644 38.7199 94.5604 38.7199Z" fill="#8E97FD"/>
<path d="M115.568 61.5826C116.161 61.5826 116.164 60.6574 115.568 60.6574C114.972 60.6574 114.972 61.5826 115.568 61.5826Z" fill="white"/>
<path d="M34.6392 24.1658C35.232 24.1658 35.2351 23.2406 34.6392 23.2406C34.0464 23.2406 34.0433 24.1658 34.6392 24.1658Z" fill="#59D6B8"/>
<path d="M56.8137 0.925251C57.4065 0.925251 57.4097 0 56.8137 0C56.2209 0 56.2209 0.925251 56.8137 0.925251Z" fill="#59D6B8"/>
<path d="M64.6977 8.19962C65.2905 8.19962 65.2936 7.27437 64.6977 7.27437C64.1018 7.27437 64.1018 8.19962 64.6977 8.19962Z" fill="#59D6B8"/>
<path d="M70.9538 91.3747C71.5466 91.3747 71.5498 90.4494 70.9538 90.4494C70.361 90.4494 70.361 91.3747 70.9538 91.3747Z" fill="#59D6B8"/>
<path d="M104.26 56.5059C104.853 56.5059 104.856 55.5806 104.26 55.5806C103.664 55.5806 103.664 56.5059 104.26 56.5059Z" fill="#59D6B8"/>
<path d="M13.348 34.3373C13.9408 34.3373 13.9439 33.412 13.348 33.412C12.7552 33.412 12.7552 34.3373 13.348 34.3373Z" fill="#59D6B8"/>
<path d="M111.967 47.932C112.56 47.932 112.563 47.0068 111.967 47.0068C111.375 47.0068 111.371 47.932 111.967 47.932Z" fill="#59D6B8"/>
<path d="M3.45692 69.1341C4.04973 69.1341 4.05285 68.2088 3.45692 68.2088C2.86098 68.2088 2.86098 69.1341 3.45692 69.1341Z" fill="#8ABFA3"/>
<path d="M83.5528 18.405C84.1456 18.405 84.1487 17.4798 83.5528 17.4798C82.96 17.4798 82.96 18.405 83.5528 18.405Z" fill="#8E97FD"/>
<path d="M100.18 86.4169C100.772 86.4169 100.776 85.4917 100.18 85.4917C99.5868 85.4917 99.5868 86.4169 100.18 86.4169Z" fill="white"/>
<path d="M4.3776 59.3129C4.3776 59.2723 4.3776 59.2317 4.3776 59.191C4.3776 58.7065 3.95327 58.2439 3.45406 58.2658C2.95485 58.2877 2.53051 58.6721 2.53051 59.191C2.53051 59.2317 2.53051 59.2723 2.53051 59.3129C2.53051 59.7974 2.95485 60.2601 3.45406 60.2382C3.95639 60.2132 4.3776 59.8287 4.3776 59.3129Z" fill="#8E97FD"/>
<path d="M105.983 84.4043C106.651 84.4043 106.651 83.3634 105.983 83.3634C105.315 83.3665 105.315 84.4043 105.983 84.4043Z" fill="#8E6DAA"/>
<path d="M114.229 57.8936C115.418 57.8936 115.418 56.0431 114.229 56.0431C113.04 56.0431 113.04 57.8936 114.229 57.8936Z" fill="#8E6DAA"/>
<path d="M75.4593 17.9426C76.6481 17.9426 76.6481 16.0921 75.4593 16.0921C74.2706 16.0921 74.2674 17.9426 75.4593 17.9426Z" fill="#8E97FD"/>
<path d="M14.9141 84.4072C16.1029 84.4072 16.1029 82.5567 14.9141 82.5567C13.7254 82.5567 13.7254 84.4072 14.9141 84.4072Z" fill="#E9F2DE"/>
</svg>
