<svg width="119" height="86" viewBox="0 0 119 86" fill="none" xmlns="http://www.w3.org/2000/svg">
<path d="M28.8065 78.3772C28.8065 78.7854 26.4149 79.1145 23.4663 79.1145C20.5177 79.1145 18.1261 78.7854 18.1261 78.3772C18.1261 77.969 20.5177 77.6399 23.4663 77.6399C26.4149 77.6399 28.8065 77.969 28.8065 78.3772Z" fill="#FDF9E7"/>
<path d="M40.7644 85.7186C51.2164 85.7186 59.6894 84.5469 59.6894 83.1016C59.6894 81.6564 51.2164 80.4847 40.7644 80.4847C30.3123 80.4847 21.8393 81.6564 21.8393 83.1016C21.8393 84.5469 30.3123 85.7186 40.7644 85.7186Z" fill="#F05D48"/>
<path d="M89.7358 84.8231C102.176 84.8231 112.261 83.4291 112.261 81.7094C112.261 79.9897 102.176 78.5956 89.7358 78.5956C77.2955 78.5956 67.2107 79.9897 67.2107 81.7094C67.2107 83.4291 77.2955 84.8231 89.7358 84.8231Z" fill="#F05D48"/>
<path d="M60.8415 79.5766C74.7138 79.5766 85.9595 78.0224 85.9595 76.1053C85.9595 74.1881 74.7138 72.6339 60.8415 72.6339C46.9691 72.6339 35.7234 74.1881 35.7234 76.1053C35.7234 78.0224 46.9691 79.5766 60.8415 79.5766Z" fill="#F05D48"/>
<path d="M118.057 75.3395C118.057 76.2255 112.855 76.947 106.436 76.947C100.019 76.947 94.8145 76.2287 94.8145 75.3395C94.8145 74.4535 100.016 73.732 106.436 73.732C112.852 73.732 118.057 74.4503 118.057 75.3395Z" fill="#F05D48"/>
<path d="M17.7266 70.4791C11.7444 69.1058 6.13362 64.413 3.17559 58.9323C0.220703 53.4516 -0.924747 46.8413 0.828043 40.8606C2.57769 34.88 7.46158 29.7347 13.5255 28.4405C20.9049 26.8646 28.3472 30.953 33.9832 35.9938C36.2866 38.0538 38.458 40.3195 41.1233 41.8764C43.7918 43.4301 47.1306 44.1959 49.9754 42.9997C53.3897 41.5631 55.1425 37.8482 56.804 34.5256C60.8949 26.3425 66.2634 18.6784 73.3375 12.9098C80.4116 7.13795 89.2952 3.35969 98.4021 3.39133C104.076 3.41032 109.998 5.05896 113.951 9.15049C118.96 14.3369 119.835 22.4313 118.34 29.5037C116.846 36.5761 113.35 43.0282 110.571 49.6955C107.792 56.3629 105.684 63.701 107.172 70.7734L17.7266 70.4791Z" fill="#F05D48"/>
<path d="M55.6711 26.8582C57.4019 24.0008 58.9029 20.9535 59.5669 17.6784C60.4354 13.3938 59.6928 8.87194 56.741 5.53037C52.5809 0.824949 44.0184 -1.40593 38.1527 0.942031C35.7359 1.91033 33.6369 3.94185 33.0831 6.4955C32.1422 10.818 35.4212 14.5583 37.4541 18.0075C38.546 19.8618 39.361 22.0199 39.4397 24.1938C39.5121 26.2696 38.2187 28.1873 38.5334 30.2821C38.7096 31.4592 39.4145 32.5129 40.3271 33.2756C42.3222 34.9432 45.1418 35.5507 47.6435 34.9084C51.511 33.9179 53.7327 30.0606 55.6711 26.8582Z" fill="#F05D48"/>
<path d="M46.8097 13.9255H3.87111C3.78929 13.9255 3.72006 13.9919 3.72006 14.0774V47.9709C3.72006 48.0532 3.78614 48.1228 3.87111 48.1228H46.8097C46.8915 48.1228 46.9608 48.0564 46.9608 47.9709V14.0774C46.9608 13.9951 46.8915 13.9255 46.8097 13.9255ZM33.7912 30.8738H29.7916V26.9658H33.7912V30.8738ZM34.0933 26.9658H38.093V30.8738H34.0933V26.9658ZM25.1909 31.1776V35.0856H21.1913V31.1776H25.1909ZM21.1913 30.8738V26.9658H25.1909V30.8738H21.1913ZM25.493 31.1776H29.4927V35.0856H25.493V31.1776ZM25.493 30.8738V26.9658H29.4927V30.8738H25.493ZM29.7916 26.6652V22.7572H33.7912V26.6652H29.7916ZM29.4927 26.6652H25.493V22.7572H29.4927V26.6652ZM25.1909 26.6652H21.1913V22.7572H25.1909V26.6652ZM20.8892 26.6652H16.8896V22.7572H20.8892V26.6652ZM20.8892 26.9658V30.8738H16.8896V26.9658H20.8892ZM16.5906 30.8738H12.591V26.9658H16.5906V30.8738ZM12.2889 30.8738H8.28927V26.9658H12.2889V30.8738ZM12.2889 31.1776V35.0856H8.28927V31.1776H12.2889ZM12.591 31.1776H16.5906V35.0856H12.591V31.1776ZM16.8896 31.1776H20.8892V35.0856H16.8896V31.1776ZM20.8892 35.3862V39.2942H16.8896V35.3862H20.8892ZM21.1913 35.3862H25.1909V39.2942H21.1913V35.3862ZM25.493 35.3862H29.4927V39.2942H25.493V35.3862ZM29.7916 35.3862H33.7912V39.2942H29.7916V35.3862ZM29.7916 35.0825V31.1776H33.7912V35.0856H29.7916V35.0825ZM34.0933 31.1776H38.093V35.0856H34.0933V31.1776ZM38.3919 31.1776H42.3916V35.0856H38.3919V31.1776ZM38.3919 30.8738V26.9658H42.3916V30.8738H38.3919ZM38.3919 26.6652V22.7572H42.3916V26.6652H38.3919ZM38.093 26.6652H34.0933V22.7572H38.093V26.6652ZM34.0933 22.4535V18.5486H38.093V22.4566H34.0933V22.4535ZM33.7912 22.4535H29.7916V18.5486H33.7912V22.4535ZM29.4927 22.4535H25.493V18.5486H29.4927V22.4535ZM25.1909 22.4535H21.1913V18.5486H25.1909V22.4535ZM20.8892 22.4535H16.8896V18.5486H20.8892V22.4535ZM16.5906 22.4535H12.591V18.5486H16.5906V22.4535ZM16.5906 22.7572V26.6652H12.591V22.7572H16.5906ZM12.2889 26.6652H8.28927V22.7572H12.2889V26.6652ZM7.98717 26.6652H4.02215V22.7572H7.98717V26.6652ZM7.98717 26.9658V30.8738H4.02215V26.9658H7.98717ZM7.98717 31.1776V35.0856H4.02215V31.1776H7.98717ZM7.98717 35.3862V39.2942H4.02215V35.3862H7.98717ZM8.28927 35.3862H12.2889V39.2942H8.28927V35.3862ZM12.591 35.3862H16.5906V39.2942H12.591V35.3862ZM16.5906 39.5948V43.5028H12.591V39.5948H16.5906ZM16.8896 39.5948H20.8892V43.5028H16.8896V39.5948ZM21.1913 39.5948H25.1909V43.5028H21.1913V39.5948ZM25.493 39.5948H29.4927V43.5028H25.493V39.5948ZM29.7916 39.5948H33.7912V43.5028H29.7916V39.5948ZM34.0933 39.5948H38.093V43.5028H34.0933V39.5948ZM34.0933 39.2942V35.3862H38.093V39.2942H34.0933ZM38.3919 35.3862H42.3916V39.2942H38.3919V35.3862ZM42.6937 35.3862H46.6587V39.2942H42.6937V35.3862ZM42.6937 35.0825V31.1776H46.6587V35.0856H42.6937V35.0825ZM42.6937 30.8738V26.9658H46.6587V30.8738H42.6937ZM42.6937 26.6652V22.7572H46.6587V26.6652H42.6937ZM42.6937 22.4535V18.5486H46.6587V22.4566H42.6937V22.4535ZM42.3916 22.4535H38.3919V18.5486H42.3916V22.4535ZM38.3919 18.2448V14.2293H42.3916V18.2448H38.3919ZM38.093 18.2448H34.0933V14.2293H38.093V18.2448ZM33.7912 18.2448H29.7916V14.2293H33.7912V18.2448ZM29.4927 18.2448H25.493V14.2293H29.4927V18.2448ZM25.1909 18.2448H21.1913V14.2293H25.1909V18.2448ZM20.8892 18.2448H16.8896V14.2293H20.8892V18.2448ZM16.5906 18.2448H12.591V14.2293H16.5906V18.2448ZM12.2889 18.2448H8.28927V14.2293H12.2889V18.2448ZM12.2889 18.5486V22.4566H8.28927V18.5486H12.2889ZM7.98717 22.4535H4.02215V18.5486H7.98717V22.4535ZM4.02215 39.5948H7.98717V43.5028H4.02215V39.5948ZM8.28927 39.5948H12.2889V43.5028H8.28927V39.5948ZM12.2889 43.8066V47.8222H8.28927V43.8066H12.2889ZM12.591 43.8066H16.5906V47.8222H12.591V43.8066ZM16.8896 43.8066H20.8892V47.8222H16.8896V43.8066ZM21.1913 43.8066H25.1909V47.8222H21.1913V43.8066ZM25.493 43.8066H29.4927V47.8222H25.493V43.8066ZM29.7916 43.8066H33.7912V47.8222H29.7916V43.8066ZM34.0933 43.8066H38.093V47.8222H34.0933V43.8066ZM38.3919 43.8066H42.3916V47.8222H38.3919V43.8066ZM38.3919 43.5028V39.5948H42.3916V43.5028H38.3919ZM42.6937 39.5948H46.6587V43.5028H42.6937V39.5948ZM46.6587 18.2448H42.6937V14.2293H46.6587V18.2448ZM7.98717 14.2293V18.2448H4.02215V14.2293H7.98717ZM4.02215 43.8066H7.98717V47.8222H4.02215V43.8066ZM42.6937 47.8222V43.8066H46.6587V47.8222H42.6937Z" fill="#E7DFC2"/>
<path d="M21.4306 23.6181C21.4306 23.6181 22.3904 32.2346 27.1515 33.7346L35.9123 31.2632C35.9123 31.2632 30.6823 28.8424 30.1473 23.6181H21.4306Z" fill="#FEDEA6"/>
<path d="M16.89 31.5828C16.89 31.5828 16.1599 41.3924 12.5348 43.098L5.86346 40.2848C5.86346 40.2848 9.84736 37.5318 10.2533 31.5828H16.89Z" fill="#F7F4E3"/>
<path d="M39.4186 16.7598L33.5839 18.4659L35.6029 25.4482L41.4376 23.7421L39.4186 16.7598Z" fill="#F7F4E3"/>
<path d="M39.1153 17.4517L34.2112 18.8856L35.5151 23.3947L40.4191 21.9608L39.1153 17.4517Z" fill="#FDFDFD"/>
<path d="M22.8381 37.9407L18.3497 36.7038L16.8867 42.0717L21.3752 43.3087L22.8381 37.9407Z" fill="#D2CDB8"/>
<path d="M22.3662 38.2697L18.5939 37.2301L17.6482 40.6999L21.4205 41.7395L22.3662 38.2697Z" fill="#E7DFC2"/>
<path d="M93.2916 35.231C92.6528 35.231 92.0108 35.2278 91.372 35.2278C91.0573 35.2278 90.7553 35.5063 90.771 35.8322C90.7867 36.1613 91.0353 36.4366 91.372 36.4366C92.0108 36.4366 92.6528 36.4397 93.2916 36.4397C93.6063 36.4397 93.9084 36.1613 93.8927 35.8353C93.8769 35.5094 93.6283 35.2341 93.2916 35.231Z" fill="#CCC6AD"/>
<path d="M112.081 51.2903C106.19 46.0248 100.3 40.7624 94.4086 35.4969C93.5432 34.7248 92.2625 36.0032 93.1341 36.7785L110.807 52.5718C111.669 53.3471 112.95 52.0687 112.081 51.2903Z" fill="#CCC6AD"/>
<path d="M114.731 73.6337H113.032C111.474 73.1844 108.988 72.8964 106.184 72.8964C103.38 72.8964 100.898 73.1875 99.3367 73.6337H97.6374C97.5587 74.0925 97.6374 74.7349 97.6374 74.7349C97.6374 75.7507 101.464 76.5734 106.181 76.5734C110.901 76.5734 114.725 75.7507 114.725 74.7349C114.885 74.0546 114.731 73.6337 114.731 73.6337Z" fill="#CCC6AD"/>
<path d="M114.731 73.6341C114.731 74.6499 110.908 75.4758 106.191 75.4758C101.471 75.4758 97.6472 74.6499 97.6472 73.6341C97.6472 72.6215 101.474 71.7956 106.191 71.7956C106.534 71.7956 106.871 71.7988 107.201 71.8083C107.506 71.8178 107.805 71.8273 108.101 71.8431C111.899 72.0266 114.731 72.7639 114.731 73.6341Z" fill="#E7DFC2"/>
<path d="M108.101 71.8398L107.216 73.3714L107.201 73.3967V71.8082C107.503 71.8177 107.805 71.824 108.101 71.8398Z" fill="#E7DFC2"/>
<path d="M110.798 51.6953L105.461 72.9124C105.174 74.0453 106.915 74.5294 107.201 73.3934C108.979 66.3211 110.76 59.2487 112.538 52.1763C112.824 51.0435 111.084 50.5625 110.798 51.6953Z" fill="#E7DFC2"/>
<path d="M112.478 50.8914C106.587 45.6259 100.696 40.3635 94.805 35.098C93.9396 34.3259 92.6589 35.6043 93.5305 36.3828L111.203 52.1761C112.065 52.9482 113.346 51.6698 112.478 50.8914Z" fill="#E7DFC2"/>
<path d="M76.5574 35.2279C76.5574 35.2279 81.7119 26.7886 88.3832 30.8105C95.0545 34.8324 90.0825 43.3793 90.0825 43.3793L76.5574 35.2279Z" fill="#E7DFC2"/>
<path d="M90.0819 43.3826C89.7106 44.006 87.3473 43.294 84.4428 41.7688C83.8166 41.4397 83.1652 41.0727 82.5043 40.6739C81.8435 40.2752 81.2141 39.8702 80.632 39.4715C77.9257 37.614 76.1886 35.8546 76.5599 35.2312C76.9061 34.6521 78.9799 35.2281 81.6138 36.5444C82.4131 36.9431 83.269 37.4115 84.1407 37.9399C85.0124 38.4652 85.8242 39 86.5543 39.5253C88.9396 41.234 90.4249 42.8004 90.0819 43.3826Z" fill="#C1B894"/>
<path d="M86.5476 39.5189C86.3053 40.5979 85.4934 41.4618 84.4424 41.7656C84.1749 41.8447 83.8885 41.8858 83.5927 41.8858C82.1326 41.8858 80.9148 40.8479 80.6284 39.4651C80.5875 39.2626 80.5655 39.0506 80.5655 38.8354C80.5655 37.9146 80.9683 37.095 81.6102 36.5381C82.4095 36.9368 83.2655 37.4051 84.1371 37.9335C85.0057 38.462 85.8176 38.9968 86.5476 39.5189Z" fill="#FAC978"/>
<path d="M93.8076 34.2723C91.8723 34.2723 91.8691 37.2974 93.8076 37.2974C95.7429 37.2974 95.7461 34.2723 93.8076 34.2723Z" fill="#E7DFC2"/>
<path d="M93.8075 35.1613C93.0114 35.1613 93.0082 36.4081 93.8075 36.4081C94.6068 36.4081 94.6068 35.1613 93.8075 35.1613Z" fill="#E7DFC2"/>
<path d="M111.503 49.8916C109.014 49.8916 109.01 53.7806 111.503 53.7806C113.992 53.7806 113.995 49.8916 111.503 49.8916Z" fill="#E7DFC2"/>
<path d="M111.502 51.0497C110.495 51.0497 110.492 52.6256 111.502 52.6256C112.509 52.6256 112.513 51.0497 111.502 51.0497Z" fill="#E7DFC2"/>
<path d="M28.8002 69.5139H18.1324C18.1324 69.5139 17.8429 75.9249 21.0432 78.1969C21.3076 78.3836 21.638 78.4817 21.9747 78.4817H23.4663H24.9579C25.2946 78.4817 25.625 78.3836 25.8894 78.1969C29.0897 75.9281 28.8002 69.5139 28.8002 69.5139Z" fill="#536969"/>
<path d="M28.8065 69.5171C28.8065 69.7069 27.0631 69.8715 24.7156 69.9126C24.3159 69.9221 23.8943 69.9253 23.4632 69.9253C23.095 69.9253 22.7394 69.9221 22.3901 69.9158C19.9576 69.881 18.1261 69.7133 18.1261 69.5171C18.1261 69.3367 19.6775 69.1817 21.8205 69.1279C22.3366 69.1152 22.8904 69.1089 23.4663 69.1089C23.9194 69.1089 24.36 69.112 24.7785 69.1215C27.0915 69.1658 28.8065 69.3272 28.8065 69.5171Z" fill="#405050"/>
<path d="M30.3294 71.3935C29.763 70.7069 28.8441 70.5835 28.0102 70.6119C27.2392 70.6373 27.2361 71.846 28.0102 71.8207C28.6176 71.8017 29.2689 71.8176 29.5805 72.4251C29.87 72.9821 29.8196 73.7067 29.5364 74.2573C28.8599 75.5863 27.3148 75.9534 25.9427 75.7667C25.6218 75.7224 25.3417 76.0768 25.3417 76.3711C25.3417 76.735 25.6186 76.9312 25.9427 76.9755C27.4218 77.1748 29.0487 76.7666 30.062 75.6053C31.0626 74.4567 31.349 72.6308 30.3294 71.3935Z" fill="#536969"/>
<path opacity="0.5" d="M26.4747 65.9002C25.666 66.7166 24.7943 67.6501 24.7691 68.8051C24.766 68.9348 24.7754 69.0645 24.7817 69.1974C24.7975 69.4727 24.8132 69.748 24.7219 69.9885C24.3223 69.998 23.9006 70.0012 23.4695 70.0012C23.1013 70.0012 22.7457 69.998 22.3964 69.9917C22.1667 69.7797 21.9716 69.5012 21.8237 69.2038C21.6695 68.919 21.5562 68.6184 21.487 68.3494C21.3548 67.8399 21.3454 67.2957 21.4775 66.7862C21.8205 65.454 23.0163 64.3655 22.9912 62.9921C22.9754 62.1029 22.4405 61.3118 21.8457 60.6568C21.2478 60.005 20.5587 59.4195 20.1118 58.6538C19.3471 57.35 19.4352 55.5812 20.3636 54.3914C21.2887 53.2016 23.0163 52.6984 24.4135 53.249C25.8139 53.8028 26.7453 55.3913 26.4999 56.8817C26.3394 57.8532 25.7447 58.8468 26.1223 59.7581C26.33 60.2549 26.7831 60.5935 27.1639 60.9764C27.6925 61.5144 28.1016 62.22 28.1174 62.9763C28.1425 64.1281 27.2835 65.0838 26.4747 65.9002Z" fill="#54C1BB"/>
<path d="M34.128 70.9157C34.128 70.9157 27.3403 43.8667 30.3833 40.5979C33.4262 37.3291 58.7268 35.8165 61.4992 38.348C64.2716 40.8795 64.0481 70.8809 64.0481 70.8809L34.128 70.9157Z" fill="#54C1BB"/>
<path d="M61.5022 38.3481C61.4172 38.2722 61.3102 38.1962 61.1843 38.1266C52.7886 37.6045 37.7845 39.0696 35.4841 41.541C32.7841 44.4459 37.8317 66.0965 38.996 70.9095L64.048 70.881C64.048 70.881 64.2745 40.8796 61.5022 38.3481Z" fill="#8DD1CD"/>
<path d="M69.1648 48.4011C69.1648 48.4011 74.3854 64.1723 75.7889 64.5647C77.1924 64.9571 91.5734 67.6816 91.5734 67.6816L90.8717 71.2099C90.8717 71.2099 73.3501 71.7605 69.1648 68.7797C64.9763 65.7988 69.1648 48.4011 69.1648 48.4011Z" fill="#DDBB8F"/>
<path d="M69.1648 48.4011C69.1648 48.4011 64.9763 65.7988 69.1648 68.7797C70.7697 69.922 74.3288 70.5454 78.1113 70.8808L79.1245 65.7988L78.9798 65.7102L78.8728 65.2198C77.3151 64.9065 76.1445 64.6597 75.792 64.5616C74.3854 64.1723 69.1648 48.4011 69.1648 48.4011Z" fill="#405050"/>
<path d="M80.613 65.5678C79.9365 66.2861 79.4802 67.1785 79.2253 68.112C78.9704 69.0455 78.9075 70.0169 78.9547 70.9789C78.961 71.0833 78.854 71.1972 78.747 71.2226C78.64 71.2479 78.5267 71.2257 78.4166 71.2099C78.3064 71.1941 78.1868 71.1878 78.0924 71.2447C77.998 71.3017 77.9445 71.4124 77.8438 71.4536C77.7148 71.5042 77.5763 71.4314 77.4473 71.3839C77.1673 71.2795 76.8557 71.3017 76.5568 71.2795C76.2578 71.2605 75.9306 71.1814 75.7575 70.9473C75.6316 70.7795 75.6127 70.5612 75.597 70.3555C75.5246 69.3999 75.4617 68.3873 75.9117 67.5297C76.198 66.9855 76.6701 66.5393 76.9155 65.9792C77.0351 65.7071 77.0949 65.4128 77.2585 65.1628C77.419 64.9128 77.7242 64.7103 78.0263 64.7767C78.2781 64.8337 78.4543 65.0584 78.6998 65.128C78.9232 65.1881 79.1561 65.1122 79.3858 65.0868C79.8704 65.033 80.3047 65.2008 80.613 65.5678Z" fill="#536969"/>
<path d="M43.1369 70.9155H69.6837C68.941 65.7322 68.2518 59.9952 68.3305 57.0207C68.3966 54.5841 69.1613 48.4389 69.1613 48.4389C68.8686 48.0909 62.3138 42.9867 56.9767 43.1449C47.9233 43.4171 43.3226 49.8471 43.3226 49.8471C43.3226 49.8471 43.6278 54.6158 43.8512 57.0935C44.1187 60.0427 43.6247 65.7512 43.1369 70.9155Z" fill="#F7F4E3"/>
<path d="M68.3271 57.5809C68.3271 57.3721 68.3271 57.1727 68.3334 56.9829C68.3964 54.6412 69.1044 48.8853 69.161 48.4328C68.8841 48.1163 64.167 44.4362 59.5002 43.4077L59.5412 47.9106C59.5412 47.9106 61.2782 58.6252 62.046 70.8776H69.6803C68.9848 66.014 68.3366 60.6694 68.3271 57.5809Z" fill="#405050"/>
<path d="M60.1109 42.7622L64.3025 47.7777L61.1935 46.8379L59.5382 47.9106L57.6533 43.1767L60.1109 42.7622Z" fill="#536969"/>
<path d="M43.1369 70.881H55.2963C54.0502 59.9196 53.6442 49.5246 53.6442 49.5246L52.2785 43.8541C46.3373 45.6072 43.3226 49.8126 43.3226 49.8126C43.3226 49.8126 43.6278 54.5813 43.8512 57.059C44.1187 60.0082 43.6247 65.7136 43.1369 70.881Z" fill="#405050"/>
<path d="M68.1167 31.4337C70.1842 29.9844 71.7041 27.6238 72.2579 24.9942C72.4341 24.162 72.516 23.2918 72.3523 22.4532C72.1918 21.6147 71.7607 20.8109 71.0936 20.3648C70.4265 19.9186 69.5076 19.8964 68.9002 20.4217C68.4849 19.6907 67.5975 19.3617 66.8296 19.5009C66.0618 19.6401 65.3821 20.1116 64.7433 20.5958C62.2289 19.4851 59.1985 20.1274 57.2381 22.1431C55.5734 22.4311 54.0755 23.7222 53.4052 25.4151C52.7349 27.108 52.7255 29.0573 53.1031 30.8673C53.3737 32.1584 53.8646 33.4526 54.7772 34.3228C55.8755 35.367 57.4143 35.6423 58.8587 35.6202C62.2258 35.5664 65.2908 33.4146 68.1167 31.4337Z" fill="#405050"/>
<path d="M54.9378 29.3548C54.3241 35.2816 52.7948 45.7715 52.7948 45.7715C54.129 48.1448 59.1608 47.8442 59.0444 47.0499C58.9783 46.6006 59.0853 45.819 59.3465 45.1165C59.5479 44.5722 59.8437 44.0722 60.2213 43.8064C60.3787 43.6957 60.6587 43.6609 61.0206 43.6577C61.0804 43.6609 61.1119 43.6577 61.1119 43.6577C62.7766 43.6704 66.0021 44.3096 67.4087 42.2844C69.1584 39.7655 69.3503 32.7533 69.1615 29.3738C69.0514 27.4403 67.3993 24.7285 64.0731 24.1399C60.0073 23.4184 55.5546 23.3899 54.9378 29.3548Z" fill="#FDBCA0"/>
<path d="M55.5168 42.0059C55.5168 42.0059 56.7755 43.8317 59.3465 45.1133C59.5479 44.569 59.8437 44.069 60.2213 43.8032C60.3786 43.6925 60.6587 43.6577 61.0206 43.6545C60.5234 43.6419 58.05 43.49 55.5168 42.0059Z" fill="#F0A38B"/>
<path d="M65.0515 35.9874C65.2781 35.9842 65.5141 35.9905 65.7029 36.1329C65.8508 36.2437 65.92 36.4272 65.9074 36.6107C65.8728 37.0284 65.4984 37.2626 65.127 37.3512C65.0074 37.3797 64.9508 37.1961 65.0704 37.1677C65.3536 37.1012 65.6714 36.9462 65.7155 36.6234C65.7344 36.4937 65.6903 36.3608 65.5833 36.2816C65.4354 36.1741 65.2372 36.1804 65.0609 36.1804C64.9351 36.1836 64.9288 35.9905 65.0515 35.9874Z" fill="#3F4553"/>
<path d="M62.6851 33.6839C62.6725 34.0383 62.8959 34.3326 63.1854 34.3421C63.4749 34.3516 63.7173 34.0731 63.7298 33.7187C63.7424 33.3643 63.519 33.07 63.2295 33.0605C62.94 33.051 62.6977 33.3295 62.6851 33.6839Z" fill="#3F4553"/>
<path d="M66.1717 34.0222C66.1592 34.3766 66.3826 34.6708 66.6721 34.6803C66.9616 34.6898 67.2039 34.4114 67.2165 34.057C67.2291 33.7026 67.0057 33.4083 66.7161 33.3988C66.4298 33.3893 66.1843 33.6677 66.1717 34.0222Z" fill="#3F4553"/>
<path d="M61.794 30.6839C62.4171 30.2947 63.207 30.2187 63.8867 30.5193C63.9811 30.5605 64.0377 30.668 64 30.7693C63.9654 30.8642 63.8489 30.9244 63.7514 30.8832C63.207 30.6427 62.5461 30.668 62.0364 30.9876C61.9482 31.0414 61.8381 31.0478 61.7657 30.9592C61.7059 30.8832 61.7059 30.7408 61.794 30.6839Z" fill="#3F4553"/>
<path d="M68.4312 31.3073C67.934 30.7631 67.1945 30.4783 66.4613 30.5827C66.3574 30.5985 66.2788 30.6839 66.2882 30.7915C66.2977 30.8928 66.3921 30.9814 66.4959 30.9656C67.0844 30.8801 67.7137 31.0858 68.1197 31.5288C68.1889 31.6048 68.2959 31.6396 68.3872 31.5731C68.4627 31.5225 68.5005 31.3864 68.4312 31.3073Z" fill="#3F4553"/>
<path d="M61.0487 35.0825C61.0267 35.3546 61.4232 35.6109 61.933 35.6552C62.4459 35.6995 62.8802 35.516 62.9022 35.2438C62.9242 34.9717 62.5277 34.7154 62.0179 34.6711C61.505 34.6268 61.0708 34.8103 61.0487 35.0825Z" fill="#FBAD8B"/>
<path d="M66.697 35.5854C66.675 35.8576 67.0715 36.1139 67.5813 36.1582C68.0942 36.2025 68.5285 36.019 68.5505 35.7468C68.5725 35.4747 68.176 35.2184 67.6662 35.1741C67.1533 35.1298 66.719 35.3133 66.697 35.5854Z" fill="#FBAD8B"/>
<path d="M66.0109 39.2529C65.9511 39.5883 65.7654 39.8921 65.5106 40.1168C65.4634 40.1611 65.4193 40.1959 65.3689 40.2307C65.0448 40.4649 64.642 40.5788 64.2424 40.5914C63.6571 40.6136 63.0592 40.4111 62.6375 40.0029C62.4739 39.8446 62.3385 39.6579 62.2441 39.4523C62.0868 39.1263 62.0239 38.7561 62.0868 38.4017C62.1214 38.2023 62.219 37.9903 62.4078 37.9397C62.5305 37.9081 62.6501 37.9492 62.7634 38.0156C62.8232 38.0505 62.8798 38.0916 62.9333 38.1296C63.3707 38.4555 63.8427 38.7529 64.3714 38.8795C64.7427 38.9681 65.1487 38.9618 65.5074 38.8257C65.627 38.7783 65.8064 38.62 65.9385 38.7023C65.9417 38.7055 65.9417 38.7055 65.9448 38.7055C66.0833 38.8131 66.0392 39.1105 66.0109 39.2529Z" fill="#4E5567"/>
<path d="M65.9351 38.7086C65.9099 38.8003 65.8627 38.8921 65.8029 38.968C65.6707 39.1326 65.4725 39.2402 65.2711 39.3066C64.5914 39.5313 63.8204 39.3541 63.2319 38.9459C63.0431 38.813 62.8638 38.6516 62.7788 38.4333C62.7284 38.3035 62.719 38.1548 62.7599 38.0219C62.8197 38.0567 62.8763 38.0978 62.9298 38.1358C63.3672 38.4617 63.8393 38.7592 64.3679 38.8858C64.7393 38.9744 65.1452 38.968 65.504 38.832C65.6235 38.7845 65.8029 38.6263 65.9351 38.7086Z" fill="white"/>
<path d="M65.5108 40.12C65.4636 40.1643 65.4195 40.1991 65.3692 40.2339C65.0451 40.4681 64.6423 40.582 64.2426 40.5946C63.6573 40.6168 63.0594 40.4143 62.6377 40.0061C62.4741 39.8479 62.3388 39.6612 62.2444 39.4555C62.6975 39.408 63.1601 39.4017 63.6164 39.4365C64.1608 39.4776 64.7146 39.582 65.1804 39.8637C65.2937 39.9396 65.4069 40.0219 65.5108 40.12Z" fill="#3F4553"/>
<path d="M65.8791 28.0635C64.4504 28.3578 62.8739 27.7281 62.0368 26.5256C61.933 26.8896 61.6309 27.1902 61.2658 27.2946C60.904 27.399 60.4886 27.3009 60.2085 27.0446C60.1519 28.2154 59.8466 29.3957 59.1763 30.3514C58.5061 31.3102 57.4424 32.0222 56.2813 32.1139C55.633 32.1646 54.9438 32.0095 54.4592 31.5697C54.0092 31.1583 53.7858 30.5539 53.6505 29.959C53.3264 28.5255 53.4239 26.9813 54.0124 25.6333C54.5977 24.2853 55.6834 23.1461 57.0334 22.5765C58.3236 22.0291 59.7711 22.0164 61.1714 22.0639C62.6127 22.1145 64.0665 22.2284 65.4354 22.6873C66.5462 23.0575 67.6004 23.6714 68.3777 24.5606C68.5287 24.7346 68.7931 24.9783 68.7899 25.2219C68.7868 25.4593 68.62 25.7694 68.5162 25.9782C68.2739 26.4687 67.9277 26.9022 67.5123 27.2535C67.0466 27.6553 66.4802 27.9401 65.8791 28.0635Z" fill="#405050"/>
<path d="M55.5419 32.1899C55.0542 31.614 54.3462 31.1773 53.572 31.2406C52.8074 31.3038 52.2063 31.826 52.0112 32.5696C51.8822 33.0696 51.9231 33.598 52.0175 34.1075C52.115 34.6423 52.2661 35.1707 52.521 35.6485C53.0025 36.5504 54.0063 37.3731 55.0857 37.0155C56.5238 36.5377 56.6213 34.7562 56.2626 33.5126C56.1241 33.0506 55.8724 32.5822 55.5419 32.1899Z" fill="#FDBCA0"/>
<path d="M53.6411 32.5285C53.5089 32.4589 53.3957 32.6582 53.5247 32.7278C54.4436 33.2057 54.9565 34.2341 54.7708 35.2625C54.7457 35.4081 54.9659 35.4682 54.9911 35.3226C55.1957 34.1993 54.6576 33.0569 53.6411 32.5285Z" fill="#F0A38B"/>
<path d="M54.6921 33.7215C54.3019 33.5601 53.8708 33.5253 53.4617 33.6107C53.4019 33.6234 53.3673 33.6961 53.3831 33.7531C53.4019 33.8164 53.4617 33.8449 53.5247 33.8322C53.896 33.7563 54.2831 33.7974 54.6355 33.943C54.6921 33.9651 54.7614 33.9177 54.7771 33.8639C54.7897 33.7974 54.7488 33.7468 54.6921 33.7215Z" fill="#F0A38B"/>
<path d="M53.2825 42.7622L50.721 43.8507L48.4395 50.3567L52.329 48.2524L53.6475 49.5245L53.2825 42.7622Z" fill="#536969"/>
<path d="M43.3259 49.8138C43.3259 49.8138 33.2309 67.683 35.4148 70.743C37.5987 73.8029 57.0997 76.7837 57.0997 76.7837L57.9021 72.8156C57.9021 72.8156 43.7036 68.9171 43.4109 67.8001L43.7696 63.3225C43.7665 63.3225 44.9371 51.4118 43.3259 49.8138Z" fill="#FDBCA0"/>
<path d="M43.4078 67.7986L43.7665 63.321C43.7665 63.321 44.9371 51.4103 43.3259 49.8091C43.3259 49.8091 33.2309 67.6783 35.4148 70.7383C36.1197 71.7256 38.6371 72.7065 41.7179 73.583L42.6714 73.2508L44.5469 68.539C43.8766 68.2384 43.455 67.9821 43.4078 67.7986Z" fill="#405050"/>
<path d="M46.8282 69.0612C45.2642 70.4566 44.2257 72.4375 43.9614 74.5228C43.5492 74.5292 43.1684 74.3583 42.8285 74.1241C42.4289 74.3963 41.9002 74.3361 41.4251 74.2634C41.2362 74.2349 41.0254 74.1937 40.9153 74.0387C40.8429 73.9374 40.8303 73.8077 40.8177 73.6843C40.7705 73.197 40.7233 72.7002 40.8397 72.2255C40.953 71.7635 41.2142 71.3522 41.4723 70.9503C41.9191 70.2573 42.366 69.5611 42.8128 68.8681C42.967 68.6308 43.1212 68.3871 43.3446 68.2163C43.568 68.0422 43.8701 67.9473 44.1345 68.0422C44.2981 68.1024 44.4303 68.2258 44.5845 68.308C44.8425 68.4441 45.1446 68.4536 45.4341 68.4441C45.7236 68.4346 46.0194 68.4061 46.2995 68.4821C46.5796 68.558 46.7684 68.7732 46.8282 69.0612Z" fill="#536969"/>
<path d="M43.8009 52.7679C43.76 56.638 43.6121 60.508 43.354 64.3717C43.2816 65.4697 43.1967 66.5678 43.1054 67.6658C43.0802 67.9601 43.5397 67.9506 43.5649 67.6563C43.8858 63.7989 44.0967 59.9321 44.2005 56.0621C44.2288 54.9609 44.2477 53.8596 44.2603 52.7616C44.2634 52.461 43.804 52.4705 43.8009 52.7679Z" fill="#A1B8B8"/>
<path d="M57.0964 76.7791C57.0964 76.7791 64.8565 79.9561 65.2089 79.3074C65.5614 78.6619 61.8827 77.4341 61.8827 77.4341C61.8827 77.4341 67.0404 78.4847 67.1757 77.9531C67.311 77.4246 62.3484 76.1019 62.3484 76.1019C62.3484 76.1019 68.2739 77.1905 68.3463 76.5702C68.4187 75.95 63.1194 74.7855 63.1194 74.7855C63.1194 74.7855 68.0977 75.0703 68.1323 74.6178C68.1921 73.8046 57.8988 72.811 57.8988 72.811L57.0964 76.7791Z" fill="#FDBCA0"/>
<path d="M58.6381 72.8901C58.6381 72.8901 62.5968 71.4471 62.9964 71.7604C63.3961 72.0737 61.2499 73.6527 61.2499 73.6527L58.6381 72.8901Z" fill="#FDBCA0"/>
<path d="M46.9606 68.6468H26.4684C26.2513 68.6468 26.1223 68.824 26.1821 69.0423L29.7474 82.07C29.8072 82.2884 30.0307 82.4656 30.2478 82.4656H50.74C50.9571 82.4656 51.0862 82.2884 51.0264 82.07L47.461 69.0423C47.4044 68.824 47.1778 68.6468 46.9606 68.6468Z" fill="#E7DFC2"/>
<path d="M49.4874 82.3075L46.4601 71.2512C46.4098 71.0645 46.2178 70.9157 46.0353 70.9157H28.6458C28.4602 70.9157 28.3532 71.0645 28.4035 71.2512L31.4308 82.3075C31.4276 82.3011 31.4497 82.3802 31.4748 82.4625H49.5346L49.4874 82.3075Z" fill="#F7F4E3"/>
<path d="M27.9566 69.6245C27.9566 69.8935 27.7395 70.1087 27.4752 70.1087C27.2077 70.1087 26.9937 69.8903 26.9937 69.6245C26.9937 69.3587 27.2108 69.1404 27.4752 69.1404C27.7395 69.1404 27.9566 69.3587 27.9566 69.6245Z" fill="#405050"/>
<path d="M27.699 69.6246C27.699 69.748 27.5983 69.8492 27.4756 69.8492C27.3529 69.8492 27.2522 69.748 27.2522 69.6246C27.2522 69.5011 27.3529 69.3999 27.4756 69.3999C27.5983 69.3999 27.699 69.5011 27.699 69.6246Z" fill="#576E6E"/>
<path d="M45.6517 71.0676H28.2623C28.0766 71.0676 27.9696 71.2164 28.02 71.4031L31.0472 82.4593C31.0441 82.4467 31.1416 82.7948 31.1416 82.7948H49.1982L49.1069 82.4593L46.0797 71.4031C46.0262 71.2164 45.8374 71.0676 45.6517 71.0676Z" fill="#EBB254"/>
<path d="M49.1038 82.4592L47.1559 75.3394H29.0962L31.0441 82.4592C31.041 82.4466 31.1385 82.7947 31.1385 82.7947H49.1951L49.1038 82.4592Z" fill="#FEDEA6"/>
<path d="M45.6858 84.5067H27.6387L31.1475 82.7948H49.1946L45.6858 84.5067Z" fill="#EBB254"/>
<path d="M68.6991 50.0149L105.489 43.8665C106.09 43.7653 106.637 44.2399 106.634 44.8601L106.477 68.3334C106.474 68.8081 106.146 69.2131 105.69 69.308L69.8005 76.776C68.9194 76.9848 67.8715 76.4215 67.8715 75.121V51.0022C67.8746 50.5149 68.2239 50.0972 68.6991 50.0149Z" fill="#FEDEA6"/>
<path d="M70.3637 49.9484L105.489 44.0911C106.09 43.9899 106.637 44.4614 106.634 45.0753L106.483 68.3713C106.48 68.8397 106.153 69.2415 105.696 69.3365L70.7224 76.5607C70.112 76.6873 69.5392 76.219 69.5392 75.5893V50.9293C69.5424 50.4389 69.8885 50.0275 70.3637 49.9484Z" fill="#FAC978"/>
<path d="M86.2393 62.1629L84.2033 73.7698L95.2676 71.4851L86.2393 62.1629Z" fill="#EBB254"/>
<path d="M85.7799 83.4052L80.9243 81.747C80.147 81.4812 80.1942 80.361 80.9904 80.1617L89.2225 78.089C89.3673 78.0542 89.5152 78.0574 89.6568 78.0985L94.4368 79.5351C95.2267 79.7725 95.2172 80.899 94.4242 81.1236L86.2676 83.4178C86.1071 83.4621 85.9372 83.4589 85.7799 83.4052Z" fill="#EBB254"/>
<path d="M93.043 61.0553C92.9486 60.6186 92.5301 60.337 92.0927 60.4161L86.913 61.3591C86.5259 61.4287 86.2427 61.7673 86.2364 62.1628L86.0193 83.4875L97.1591 80.3516L93.043 61.0553ZM91.7182 77.6366C90.1574 77.798 88.7067 76.0987 88.4769 73.8394C88.2472 71.5832 89.3266 69.6213 90.8874 69.463C92.4483 69.3017 93.8989 71.0009 94.1287 73.2603C94.3584 75.5165 93.279 77.4752 91.7182 77.6366Z" fill="#FEDEA6"/>
<path d="M90.129 22.7666C84.8581 22.7666 80.5689 18.4535 80.5689 13.1532C80.5689 7.85288 84.8581 3.53984 90.129 3.53984C95.4 3.53984 99.6891 7.85288 99.6891 13.1532C99.6891 18.4535 95.4 22.7666 90.129 22.7666ZM90.129 6.26436C86.3497 6.26436 83.2752 9.35595 83.2752 13.1564C83.2752 16.9568 86.3497 20.0484 90.129 20.0484C93.9084 20.0484 96.9828 16.9568 96.9828 13.1564C96.9828 9.35595 93.9084 6.26436 90.129 6.26436Z" fill="#F5E2D5"/>
<path d="M86.5475 15.58L86.1227 14.7794L89.7447 12.846L91.274 7.09002L92.1457 7.32419L90.5157 13.4631L86.5475 15.58Z" fill="#F5E2D5"/>
</svg>
