<svg width="20" height="17" viewBox="0 0 20 17" fill="none" xmlns="http://www.w3.org/2000/svg">
<g clip-path="url(#clip0_1_1955)">
<path d="M20 10.6499V13.6499C20 15.0299 18.88 16.1499 17.5 16.1499H15.5C15.22 16.1499 15 15.9199 15 15.6499V8.64989C15 8.36989 15.22 8.14989 15.5 8.14989H16V8.13989H17V8.14989H17.5C18.88 8.14989 20 9.26989 20 10.6499Z" fill="#7FD2F2"/>
<path d="M5 8.64989V15.6499C5 15.9199 4.78 16.1499 4.5 16.1499H2.5C1.12 16.1499 0 15.0299 0 13.6499V10.6499C0 9.26989 1.12 8.14989 2.5 8.14989H3V8.13989H4V8.14989H4.5C4.78 8.14989 5 8.35989 5 8.64989Z" fill="#7FD2F2"/>
<path d="M17 7.12988V8.13988H16V7.12988C16 3.81988 13.31 1.12988 10 1.12988C6.69 1.12988 4 3.81988 4 7.12988V8.13988H3V7.12988C3 3.26988 6.13 0.129883 10 0.129883C13.87 0.129883 17 3.26988 17 7.12988Z" fill="#7FD2F2" stroke="#7FD2F2" stroke-width="0.25" stroke-miterlimit="10"/>
</g>
<defs>
<clipPath id="clip0_1_1955">
<rect width="20" height="16.15" fill="white"/>
</clipPath>
</defs>
</svg>
