<svg width="20" height="17" viewBox="0 0 20 17" fill="none" xmlns="http://www.w3.org/2000/svg">
<g clip-path="url(#clip0_1_25900)">
<path d="M20 10.6496V13.6496C20 15.0296 18.88 16.1496 17.5 16.1496H15.5C15.22 16.1496 15 15.9196 15 15.6496V8.64965C15 8.36965 15.22 8.14965 15.5 8.14965H16V8.13965H17V8.14965H17.5C18.88 8.14965 20 9.26965 20 10.6496Z" fill="#E6E7F2"/>
<path d="M5 8.64965V15.6496C5 15.9196 4.78 16.1496 4.5 16.1496H2.5C1.12 16.1496 0 15.0296 0 13.6496V10.6496C0 9.26965 1.12 8.14965 2.5 8.14965H3V8.13965H4V8.14965H4.5C4.78 8.14965 5 8.35965 5 8.64965Z" fill="#E6E7F2"/>
<path d="M17 7.12988V8.13988H16V7.12988C16 3.81988 13.31 1.12988 10 1.12988C6.69 1.12988 4 3.81988 4 7.12988V8.13988H3V7.12988C3 3.26988 6.13 0.129883 10 0.129883C13.87 0.129883 17 3.26988 17 7.12988Z" fill="#E6E7F2" stroke="#E6E7F2" stroke-width="0.25" stroke-miterlimit="10"/>
</g>
<defs>
<clipPath id="clip0_1_25900">
<rect width="20" height="16.15" fill="white"/>
</clipPath>
</defs>
</svg>
