<svg width="140" height="123" viewBox="0 0 140 123" fill="none" xmlns="http://www.w3.org/2000/svg">
<path fill-rule="evenodd" clip-rule="evenodd" d="M43.8038 31.0378C45.8514 35.8098 50.0186 37.4814 53.6126 36.6635C56.4365 36.0207 60.1127 30.0934 59.9829 27.356C59.5947 19.145 50.5675 3.50251 45.6548 2.46351C41.6855 5.52427 40.5608 23.4773 43.8038 31.0378Z" fill="#FEDEA6"/>
<path d="M51.8493 37.07C50.5305 37.07 49.2181 36.7518 48.0304 36.1319C46.1165 35.1326 44.5882 33.3996 43.61 31.1197C42.0945 27.5861 41.4056 21.4288 41.8143 15.0491C42.1357 10.0203 43.2796 4.02914 45.5252 2.2962L45.6023 2.23614L45.6974 2.25659C50.7233 3.31986 59.7994 19.0288 60.1927 27.3446C60.3289 30.2226 56.5743 36.2022 53.6591 36.8668C53.064 37.0035 52.456 37.07 51.8493 37.07ZM45.7077 2.68982C43.9596 4.14288 42.6331 8.86629 42.2359 15.076C41.8323 21.3943 42.5071 27.4787 43.9982 30.9548C45.7309 34.9933 48.9662 36.6444 51.8891 36.6444C52.465 36.6444 53.028 36.5805 53.5665 36.4578C56.2723 35.8418 59.9009 30.0475 59.7736 27.3637C59.5963 23.6001 57.5114 17.8377 54.3339 12.3232C51.2182 6.91609 47.9263 3.24446 45.7077 2.68982Z" fill="#F5C371"/>
<path d="M45.7914 2.39364L45.3806 2.4881L53.3409 36.6889L53.7517 36.5945L45.7914 2.39364Z" fill="#F9CF88"/>
<path d="M48.785 15.5872L48.4444 15.3393C48.4701 15.3048 51.0177 11.8415 52.7311 9.55515L53.0692 9.80564C51.357 12.0907 48.8107 15.5527 48.785 15.5872Z" fill="#F9CF88"/>
<path d="M53.8748 11.3584L48.8873 17.1839L49.2084 17.4556L54.1958 11.6301L53.8748 11.3584Z" fill="#F9CF88"/>
<path d="M41.9583 19.6459L41.7519 20.0114L50.6895 24.9981L50.8958 24.6325L41.9583 19.6459Z" fill="#F9CF88"/>
<path d="M59.1223 23.351L52.0091 30.5555L52.31 30.8491L59.4232 23.6446L59.1223 23.351Z" fill="#F9CF88"/>
<path d="M42.3998 25.4065L42.2519 25.7991L51.7219 29.325L51.8697 28.9324L42.3998 25.4065Z" fill="#F9CF88"/>
<path d="M47.6654 12.1431C46.9327 11.4786 45.0021 9.7175 42.9082 7.70468L43.2013 7.40308C45.2913 9.41078 47.2194 11.1693 47.9508 11.8326L47.6654 12.1431Z" fill="#F9CF88"/>
<path fill-rule="evenodd" clip-rule="evenodd" d="M44.2938 26.5074C43.5213 25.7291 42.6807 24.9483 41.7873 24.1739C33.4966 16.9865 20.7084 10.3679 16 11.8605C13.5283 17.7904 23.6121 38.6853 32.0724 45.0739C37.4132 49.1059 43.1357 48.334 46.6242 45.1467C47.2091 44.6125 47.7309 44.0093 48.1783 43.3512C50.3981 40.0796 50.767 35.4111 47.7772 30.7248C46.9134 29.3676 45.7193 27.9426 44.2938 26.5074Z" fill="#FEDEA6"/>
<path d="M39.6769 48.0338C37.0367 48.0338 34.3721 47.0727 31.9453 45.2414C28.0108 42.2701 23.3359 35.8125 19.7471 28.3861C16.927 22.5522 14.4102 15.1271 15.8048 11.7801L15.8421 11.6906L15.9359 11.6612C18.1969 10.9443 22.3551 11.9794 27.6432 14.575C32.6099 17.0134 37.8157 20.455 41.925 24.0167C42.8325 24.804 43.6796 25.5925 44.4431 26.3605C45.929 27.8558 47.1103 29.2858 47.956 30.6111C50.7235 34.9498 50.8713 39.755 48.3532 43.4675C47.8995 44.1372 47.3648 44.7545 46.7671 45.3002C44.9367 46.9718 42.5523 47.9405 40.0497 48.0274C39.9263 48.0312 39.8016 48.0338 39.6769 48.0338ZM16.1583 12.0318C15.1056 14.7718 16.6185 20.947 20.1263 28.2047C23.6881 35.5735 28.3154 41.9736 32.1999 44.9065C37.637 49.0114 43.2901 47.9072 46.4817 44.9922C47.0563 44.4669 47.5679 43.8752 48.0036 43.2337C50.4253 39.6643 50.2736 35.0303 47.6 30.836C46.7709 29.5363 45.6077 28.1293 44.1436 26.6557C43.3878 25.8953 42.5485 25.1132 41.6487 24.3337C33.7397 17.476 20.9476 10.6567 16.1583 12.0318Z" fill="#F5C371"/>
<path d="M16.1561 11.7188L15.845 12.0017L46.4715 45.2894L46.7826 45.0064L16.1561 11.7188Z" fill="#F5C371"/>
<path d="M18.3898 25.0442L18.3743 24.625C22.0557 24.4857 27.5995 24.326 27.6548 24.3247L27.6664 24.7439C27.6111 24.7464 22.0698 24.9062 18.3898 25.0442Z" fill="#F5C371"/>
<path d="M29.3028 26.1357L19.4667 27.1444L19.51 27.5613L29.346 26.5526L29.3028 26.1357Z" fill="#F5C371"/>
<path d="M37.0283 20.5793L35.8299 33.6198L36.2497 33.6579L37.4482 20.6175L37.0283 20.5793Z" fill="#F5C371"/>
<path d="M41.2716 39.1639L28.4182 41.4058L28.491 41.8187L41.3445 39.5768L41.2716 39.1639Z" fill="#F5C371"/>
<path d="M42.8336 25.2439L39.694 37.7818L40.1031 37.8831L43.2428 25.3452L42.8336 25.2439Z" fill="#F5C371"/>
<path d="M24.341 21.1822C24.1675 19.9272 23.697 16.6122 23.0826 12.9559L23.4991 12.8869C24.1148 16.5483 24.5865 19.8685 24.76 21.126L24.341 21.1822Z" fill="#F5C371"/>
<path fill-rule="evenodd" clip-rule="evenodd" d="M112.021 94.5285C106.902 93.5138 103.163 95.9918 101.814 99.4027C100.753 102.083 103.599 108.446 105.945 109.885C112.98 114.202 131.062 115.624 134.699 112.177C134.398 107.193 120.129 96.1349 112.021 94.5285Z" fill="#FEDEA6"/>
<path d="M125.528 114.317C118.73 114.317 110.205 112.746 105.834 110.064C103.369 108.551 100.523 102.093 101.618 99.3261C102.33 97.5267 103.676 96.0327 105.406 95.1215C107.316 94.1145 109.617 93.8397 112.063 94.3241C115.852 95.0742 121.353 97.9868 126.418 101.923C130.412 105.026 134.74 109.347 134.911 112.168L134.917 112.266L134.847 112.333C133.406 113.693 129.809 114.317 125.528 114.317ZM109.778 94.5107C105.789 94.5107 103.054 96.8391 102.009 99.4794C100.993 102.048 103.754 108.296 106.054 109.707C109.279 111.685 115.239 113.228 121.612 113.734C127.862 114.23 132.768 113.601 134.48 112.093C134.26 109.837 131.088 106.083 126.157 102.251C121.141 98.3535 115.707 95.473 111.98 94.7343C111.21 94.5809 110.474 94.5107 109.778 94.5107Z" fill="#F5C371"/>
<path d="M101.952 99.1683L101.798 99.5587L134.683 112.336L134.836 111.946L101.952 99.1683Z" fill="#F5C371"/>
<path d="M124.417 114.118C123.487 111.422 122.05 107.379 122.036 107.338L122.433 107.199C122.447 107.239 123.885 111.284 124.815 113.982L124.417 114.118Z" fill="#F5C371"/>
<path d="M120.65 106.516L120.243 106.626L122.263 114.007L122.67 113.897L120.65 106.516Z" fill="#F5C371"/>
<path d="M122.333 99.0733L113.147 103.592L113.334 103.968L122.52 99.449L122.333 99.0733Z" fill="#F5C371"/>
<path d="M107.791 101.534L107.377 101.615L109.342 111.52L109.756 111.439L107.791 101.534Z" fill="#F5C371"/>
<path d="M117.25 96.2071L108.977 101.989L109.22 102.332L117.492 96.55L117.25 96.2071Z" fill="#F5C371"/>
<path d="M125.624 108.77L125.528 108.363C126.496 108.135 129.053 107.545 131.898 106.963L131.983 107.374C129.145 107.954 126.591 108.544 125.624 108.77Z" fill="#F5C371"/>
<path fill-rule="evenodd" clip-rule="evenodd" d="M111.123 88.3545C106.718 91.1366 105.736 95.4958 107.13 98.8901C108.227 101.556 114.705 104.203 117.401 103.631C125.487 101.92 139.548 90.527 139.783 85.5378C136.102 82.1397 118.101 83.9467 111.123 88.3545Z" fill="#FEDEA6"/>
<path d="M116.546 103.92C113.417 103.92 107.961 101.46 106.936 98.9695C106.201 97.1791 106.135 95.1752 106.752 93.3272C107.434 91.2876 108.905 89.5074 111.011 88.1783C114.272 86.1182 120.272 84.4453 126.669 83.8114C131.713 83.3117 137.844 83.4625 139.928 85.3846L140 85.4511L139.995 85.5482C139.753 90.6511 125.635 102.103 117.445 103.836C117.175 103.894 116.873 103.92 116.546 103.92ZM131.5 83.9763C130.028 83.9763 128.419 84.0593 126.71 84.228C120.375 84.8555 114.445 86.5054 111.237 88.5323C106.775 91.3502 106.058 95.726 107.327 98.811C108.377 101.366 114.715 103.986 117.358 103.426C121.064 102.641 126.446 99.6622 131.405 95.6506C136.267 91.717 139.378 87.892 139.568 85.6261C138.314 84.5526 135.389 83.9763 131.5 83.9763Z" fill="#F5C371"/>
<path d="M139.711 85.27L107.059 98.6234L107.219 99.0111L139.871 85.6577L139.711 85.27Z" fill="#F5C371"/>
<path d="M133.698 94.002C131.153 92.692 127.304 90.7559 127.266 90.7354L127.456 90.361C127.494 90.3802 131.344 92.3176 133.89 93.6288L133.698 94.002Z" fill="#F5C371"/>
<path d="M125.696 91.0998L125.478 91.4588L132.067 95.4085L132.285 95.0495L125.696 91.0998Z" fill="#F5C371"/>
<path d="M121.729 84.5494L118.227 94.1253L118.623 94.2686L122.125 84.6927L121.729 84.5494Z" fill="#F5C371"/>
<path d="M112.928 96.3255L112.686 96.6682L120.989 102.48L121.232 102.137L112.928 96.3255Z" fill="#F5C371"/>
<path d="M116.068 85.9845L114.103 95.8463L114.516 95.9277L116.481 86.0659L116.068 85.9845Z" fill="#F5C371"/>
<path d="M130.854 89.3066L130.501 89.0779C131.042 88.2498 132.48 86.0657 134.135 83.6899L134.482 83.9289C132.831 86.3008 131.396 88.4798 130.854 89.3066Z" fill="#F5C371"/>
<path fill-rule="evenodd" clip-rule="evenodd" d="M59.089 43.2938C22.8428 30.2049 4.68066 38.2883 0.457445 64.9022C-3.76577 91.5161 21.6811 117.118 59.0892 122.331C89.0537 126.506 119.499 107.732 124.534 63.4307C129.568 19.1297 95.3353 56.3827 59.089 43.2938Z" fill="#F5C371"/>
<path fill-rule="evenodd" clip-rule="evenodd" d="M54.5298 43.0235C54.1982 43.081 53.8679 43.1449 53.5375 43.2113C52.6904 43.38 51.846 43.5641 51.0053 43.7609C49.8266 44.0369 48.6544 44.3385 47.4911 44.6708C46.1646 45.0491 44.8483 45.467 43.5527 45.9411C42.167 46.4485 40.7878 47.0235 39.4806 47.7085C39.4536 47.7226 39.4215 47.7124 39.4073 47.6855C39.3932 47.6587 39.4035 47.6267 39.4305 47.6127C40.7416 46.9239 42.1246 46.3475 43.5154 45.8389C44.8124 45.3647 46.1324 44.9456 47.4602 44.566C48.6248 44.2337 49.7996 43.9308 50.9796 43.6548C51.8215 43.458 52.6673 43.2727 53.5157 43.1053C53.846 43.0401 54.1776 42.9749 54.5105 42.9174C54.5401 42.9123 54.5684 42.9315 54.5735 42.9609C54.58 42.9902 54.5594 43.0184 54.5298 43.0235Z" fill="white"/>
<path d="M39.4557 47.7425C39.4261 47.7425 39.3978 47.7271 39.3824 47.699C39.3721 47.6799 39.3696 47.6581 39.376 47.6364C39.3824 47.616 39.3965 47.5981 39.4158 47.5878C40.5984 46.9668 41.9352 46.3866 43.5046 45.8127C44.7309 45.3642 46.0227 44.9475 47.452 44.5399C48.5806 44.2178 49.7657 43.9111 50.9727 43.6287C51.8377 43.4268 52.6912 43.2414 53.51 43.0791C53.8095 43.0191 54.1591 42.9513 54.5049 42.8913C54.5268 42.8874 54.5486 42.8926 54.5666 42.9053C54.5846 42.9181 54.5962 42.9373 54.6 42.9577C54.6039 42.9795 54.5987 43.0012 54.5859 43.0191C54.573 43.037 54.5537 43.0485 54.5332 43.0523C54.1926 43.1111 53.8429 43.1801 53.5421 43.2389C52.7246 43.4012 51.8737 43.5852 51.0112 43.7884C49.8081 44.0696 48.6256 44.3763 47.4983 44.6983C46.0715 45.106 44.7849 45.5214 43.5625 45.9674C42.0007 46.5386 40.6704 47.1163 39.4942 47.7335C39.4827 47.7387 39.4685 47.7425 39.4557 47.7425ZM54.5203 42.9437C54.519 42.9437 54.5178 42.9437 54.5152 42.9437C54.1694 43.0037 53.8211 43.0715 53.5216 43.1315C52.7041 43.2938 51.8519 43.4791 50.9868 43.6811C49.7811 43.9635 48.5973 44.2702 47.4687 44.5923C46.0407 44.9999 44.7502 45.4166 43.5252 45.8639C41.9583 46.4377 40.6228 47.0166 39.4428 47.6364C39.4364 47.639 39.4325 47.6454 39.43 47.6517C39.4274 47.6581 39.4287 47.6658 39.4313 47.6722C39.4377 47.685 39.4544 47.6901 39.4672 47.6824C40.6459 47.0639 41.9789 46.485 43.5432 45.9124C44.7669 45.4651 46.0548 45.0498 47.4829 44.6421C48.6114 44.3201 49.794 44.0133 50.9984 43.7322C51.8622 43.5303 52.7144 43.345 53.5319 43.1827C53.8326 43.1226 54.1823 43.0549 54.5242 42.9948C54.5306 42.9935 54.537 42.9897 54.5409 42.9846C54.5447 42.9795 54.546 42.9718 54.5447 42.9654C54.5435 42.959 54.5396 42.9526 54.5345 42.9488C54.5306 42.945 54.5255 42.9437 54.5203 42.9437Z" fill="white"/>
<path fill-rule="evenodd" clip-rule="evenodd" d="M87.1561 31.1823C89.9981 26.271 91.9133 21.1221 92.5033 19.4466C92.6935 17.531 89.4711 11.4197 89.4711 11.4197C86.651 11.5679 76.8538 12.0088 72.612 11.2625C72.612 11.2625 69.9667 9.73785 67.8973 11.4529C65.8278 13.1679 69.3922 15.5309 69.3922 15.5309L54.5203 42.9691C62.9524 52.7252 70.1583 47.3896 70.1583 47.3896L72.3048 40.987C77.2188 43.0713 81.656 39.3384 85.1278 34.3785C85.7409 33.4111 86.4453 32.2852 87.1561 31.1823Z" fill="#FDBCA0"/>
<path fill-rule="evenodd" clip-rule="evenodd" d="M76.9616 111.915L72.9178 117.396L91.1625 117.473C87.1007 114.196 76.9616 111.915 76.9616 111.915Z" fill="#FDBCA0"/>
<path fill-rule="evenodd" clip-rule="evenodd" d="M87.1562 31.1822C86.5251 32.2736 85.8477 33.3522 85.1292 34.3797C83.0546 37.659 82.4247 39.8827 82.4247 40.7977C82.4247 41.7127 82.8888 44.6712 82.8888 44.6712L88.3272 44.5562C88.3272 44.5562 88.3272 41.636 88.7861 40.1881C89.2463 38.7401 92.1589 26.3169 91.2386 26.1636C91.0252 26.1278 90.6936 26.3757 90.2836 26.8166C90.2977 26.8256 89.9519 27.1974 89.7476 27.4454C88.9892 28.3975 88.0663 29.7713 87.1562 31.1822Z" fill="#FDBCA0"/>
<path fill-rule="evenodd" clip-rule="evenodd" d="M68.7789 2.07891C58.8134 7.71863 39.4556 47.6593 39.4556 47.6593C45.3812 44.5487 54.5202 42.9691 54.5202 42.9691L69.3921 15.5309C69.3921 15.5309 65.8277 13.1679 67.8972 11.4529C69.9666 9.73783 72.6119 11.2625 72.6119 11.2625C76.8537 12.0088 86.6509 11.5666 89.471 11.4196C89.471 11.4196 92.6934 17.5309 92.5032 19.4466C91.9119 21.1221 89.998 26.2723 87.156 31.1823C88.8527 28.5509 90.5918 26.0563 91.2397 26.1637C92.16 26.3158 89.2461 38.7403 88.7872 40.1882C88.327 41.6362 88.3283 44.5563 88.3283 44.5563L89.4774 44.532C89.4774 44.532 90.043 49.7539 90.7204 57.2211C91.0379 60.7125 91.3785 64.696 91.6986 68.8647C92.7911 67.4602 95.1858 64.1413 95.3041 61.91C95.457 59.0141 98.2167 35.2335 96.9905 19.076C95.7629 2.91727 88.7872 4.06106 88.7872 4.06106C88.7872 4.06106 78.7445 -3.5608 68.7789 2.07891Z" fill="#3F4553"/>
<path fill-rule="evenodd" clip-rule="evenodd" d="M85.1289 34.3798C81.657 39.3396 77.2199 43.0726 72.3059 40.9882L70.1593 47.3909C70.1593 47.3909 78.986 50.6319 80.9745 54.899C81.6622 48.7353 82.2715 44.6854 82.2715 44.6854L82.8897 44.6727C82.8897 44.6727 82.4257 41.7129 82.4257 40.7991C82.4244 39.8828 83.053 37.6591 85.1289 34.3798Z" fill="#3F4553"/>
<path fill-rule="evenodd" clip-rule="evenodd" d="M35.7756 97.7624C34.246 97.6269 32.6766 97.517 31.0698 97.4339C32.0943 96.331 33.5442 93.5195 35.0841 90.0843C35.2885 92.4179 35.6059 95.9067 35.7756 97.7624ZM36.7358 49.4101C31.5223 53.6785 7.91114 90.2632 16.1903 108.251C16.1903 108.251 22.63 114.653 72.918 117.397L76.9618 111.916L77.9785 110.538C77.9785 110.538 74.5838 108.175 68.0631 105.444C68.0631 105.444 69.7251 101.815 71.6609 97.4646C71.6609 97.4646 78.5929 110.234 84.8784 113.74C76.5286 105.663 79.0569 72.0763 80.9747 54.9003C78.9875 50.6331 70.1595 47.3922 70.1595 47.3922C70.1595 47.3922 62.9537 52.7277 54.5216 42.9716C54.5216 42.9716 45.3825 44.5512 39.4569 47.6618C38.4312 48.1973 37.5032 48.7813 36.7358 49.4101Z" fill="#63A6DC"/>
<path fill-rule="evenodd" clip-rule="evenodd" d="M80.9734 54.8989C79.0556 72.075 76.5272 105.661 84.8771 113.738C84.8771 113.738 91.1626 118.921 92.696 103.678C93.4531 96.1495 92.6767 81.633 91.6973 68.866C91.3772 64.6972 91.0366 60.7137 90.7191 57.2223C90.0417 49.7551 89.4762 44.5333 89.4762 44.5333L88.327 44.5576L82.8886 44.6726L82.2703 44.6854C82.2703 44.6854 81.6611 48.7353 80.9734 54.8989Z" fill="#63A6DC"/>
<path fill-rule="evenodd" clip-rule="evenodd" d="M73.1239 65.5536C73.3861 66.4661 73.6458 67.3786 73.9041 68.2923C74.4658 70.2796 75.0211 72.2694 75.5623 74.263C76.061 76.0944 76.552 77.9308 77.0058 79.7737C77.1703 80.4446 77.3323 81.1207 77.4724 81.798C77.5199 82.0306 77.5662 82.2644 77.6022 82.4983C77.6241 82.6414 77.6485 82.8012 77.6485 82.9469C77.6485 83.1015 77.5881 83.3162 77.5469 83.4657C77.4647 83.7597 77.3644 84.0511 77.2629 84.3386C76.9505 85.2217 76.5996 86.0971 76.2474 86.9648C75.7769 88.1214 75.2924 89.2716 74.8013 90.4192C74.2499 91.71 73.6895 92.9969 73.1265 94.2813C72.6573 95.3509 72.1843 96.4193 71.7087 97.4864C71.6971 97.5133 71.665 97.526 71.6367 97.5145C71.6097 97.503 71.5968 97.4711 71.6084 97.443C72.0827 96.3759 72.5558 95.3075 73.0249 94.2378C73.5892 92.9534 74.1484 91.6665 74.6998 90.3758C75.1895 89.2281 75.6754 88.0792 76.1446 86.9227C76.4968 86.0562 76.8464 85.1821 77.1587 84.3015C77.2603 84.0166 77.3593 83.7265 77.4402 83.4364C77.4788 83.2996 77.5379 83.09 77.5379 82.9469C77.5379 82.8076 77.5148 82.653 77.4929 82.5149C77.4569 82.2823 77.4107 82.0497 77.3631 81.8197C77.2243 81.1437 77.0623 80.4702 76.8978 79.7992C76.4454 77.9577 75.953 76.1212 75.4556 74.2912C74.9132 72.2988 74.3592 70.309 73.7974 68.3217C73.5391 67.408 73.2807 66.4955 73.0172 65.583C73.0095 65.5549 73.0262 65.5242 73.0545 65.5166C73.0866 65.5089 73.1162 65.5255 73.1239 65.5536Z" fill="#A7D1F3"/>
<path d="M71.6597 97.5453C71.6481 97.5453 71.6379 97.5427 71.6263 97.5376C71.5852 97.5197 71.5659 97.4711 71.5839 97.429C72.0877 96.2979 72.5505 95.25 73.0004 94.2238C73.625 92.7988 74.1739 91.5362 74.6752 90.363C75.2523 89.0122 75.7125 87.9144 76.12 86.9112C76.4413 86.1201 76.8115 85.2 77.1328 84.2913C77.2292 84.0178 77.3308 83.7239 77.4143 83.4274C77.4529 83.2894 77.5107 83.0836 77.5107 82.9456C77.5107 82.8063 77.4863 82.6466 77.4657 82.5175C77.4272 82.2708 77.3796 82.028 77.3372 81.8236C77.1958 81.1411 77.03 80.4497 76.8719 79.8043C76.4143 77.9423 75.9079 76.056 75.4297 74.2963C74.9336 72.47 74.3911 70.5173 73.7716 68.3268C73.5274 67.4629 73.2639 66.5325 72.9914 65.5894C72.9849 65.5689 72.9875 65.5459 72.9991 65.5268C73.0094 65.5076 73.0273 65.4935 73.0479 65.4871C73.0685 65.4808 73.0916 65.4833 73.1109 65.4948C73.1302 65.505 73.1443 65.5229 73.1507 65.5434C73.4284 66.5057 73.7009 67.468 73.931 68.2821C74.5492 70.47 75.0917 72.4227 75.5891 74.2528C76.0685 76.0139 76.575 77.9014 77.0326 79.7647C77.192 80.4114 77.3578 81.1053 77.4992 81.789C77.5416 81.9961 77.5904 82.2414 77.629 82.4907C77.6483 82.6172 77.6753 82.791 77.6753 82.9431C77.6753 83.1028 77.6136 83.3226 77.5724 83.4683C77.4876 83.7699 77.3861 84.0664 77.2884 84.3424C76.9657 85.2549 76.5943 86.1776 76.2729 86.97C75.8655 87.9745 75.4053 89.0722 74.8269 90.4244C74.323 91.6014 73.7754 92.8653 73.1507 94.2877C72.7009 95.3113 72.2381 96.3606 71.733 97.4929C71.7214 97.5274 71.6918 97.5453 71.6597 97.5453ZM73.0723 65.5421C73.0698 65.5421 73.0672 65.5421 73.0646 65.5434C73.0582 65.5459 73.0518 65.5498 73.0492 65.5562C73.0453 65.5625 73.0453 65.5689 73.0466 65.5753C73.3191 66.5198 73.5826 67.4488 73.8269 68.314C74.4464 70.5045 74.9888 72.4572 75.485 74.2835C75.9631 76.0433 76.4696 77.9295 76.9272 79.7928C77.0853 80.4382 77.2524 81.1296 77.3925 81.8133C77.4349 82.0191 77.4837 82.2619 77.5223 82.5098C77.5429 82.6402 77.5673 82.8012 77.5673 82.9456C77.5673 83.0913 77.5082 83.3009 77.4696 83.4402C77.3848 83.7405 77.2832 84.0357 77.1868 84.3105C76.8642 85.2204 76.494 86.1418 76.1727 86.9329C75.7652 87.9374 75.305 89.0339 74.7279 90.386C74.2253 91.5605 73.6777 92.8231 73.0531 94.2481C72.6032 95.2743 72.1392 96.3222 71.6366 97.4532C71.6301 97.466 71.6366 97.4814 71.6494 97.4877C71.6623 97.4929 71.6777 97.4877 71.6841 97.475C72.188 96.3427 72.652 95.2935 73.1006 94.2698C73.724 92.8487 74.2729 91.5848 74.7755 90.4077C75.3539 89.0556 75.8128 87.9579 76.2215 86.9534C76.5428 86.161 76.9143 85.2396 77.2369 84.3284C77.3346 84.0536 77.4362 83.7571 77.521 83.4581C77.5609 83.315 77.6213 83.1002 77.6213 82.9469C77.6213 82.7986 77.5943 82.6274 77.575 82.5034C77.5364 82.2555 77.4876 82.0101 77.4452 81.8044C77.3038 81.1207 77.138 80.428 76.9786 79.7813C76.521 77.9181 76.0146 76.0317 75.5351 74.2707C75.0377 72.4419 74.4952 70.4892 73.877 68.3013C73.6469 67.4872 73.3744 66.5249 73.0968 65.5625C73.0955 65.5562 73.0903 65.551 73.0839 65.5472C73.0813 65.5434 73.0762 65.5421 73.0723 65.5421Z" fill="#A7D1F3"/>
<path fill-rule="evenodd" clip-rule="evenodd" d="M31.1879 97.3855C36.9451 97.6832 42.6843 98.3631 48.34 99.4698C53.8466 100.547 59.294 102.032 64.5538 103.981C66.5089 104.706 68.4421 105.495 70.3393 106.358C71.7584 107.004 73.1594 107.691 74.5322 108.43C75.4011 108.897 76.2611 109.386 77.1004 109.905C77.405 110.094 77.7148 110.288 78.0092 110.492C78.022 110.501 78.0297 110.513 78.031 110.528C78.0336 110.543 78.0297 110.556 78.0207 110.569L72.9615 117.429C72.9435 117.454 72.9101 117.459 72.8857 117.441C72.8612 117.423 72.8561 117.39 72.8741 117.365L77.9012 110.55C77.6223 110.358 77.3305 110.174 77.0426 109.997C76.2058 109.479 75.3472 108.991 74.4808 108.524C73.1106 107.787 71.7108 107.101 70.2943 106.457C68.3997 105.594 66.469 104.805 64.5165 104.082C59.2619 102.136 53.8196 100.653 48.3195 99.5759C42.6342 98.4628 36.8654 97.7816 31.0774 97.4877C31.0709 97.489 31.0645 97.4877 31.0581 97.4864C29.4244 97.4033 27.7906 97.351 26.1556 97.3292C26.1261 97.3292 26.1017 97.3037 26.1017 97.2743C26.1017 97.2449 26.1274 97.2206 26.1569 97.2206C27.7881 97.2423 29.4179 97.2947 31.0478 97.3778C31.2727 97.1324 31.4758 96.8551 31.6635 96.5816C31.918 96.2084 32.1545 95.8199 32.3807 95.4289C32.9656 94.4154 33.4952 93.3586 34.0003 92.3042C34.6173 91.016 35.2021 89.7112 35.769 88.4C36.3873 86.9712 36.9863 85.5335 37.5724 84.0907C38.913 80.7922 40.1933 77.4656 41.4362 74.1288C42.007 72.594 42.5751 71.0566 43.1239 69.5141C43.1342 69.4859 43.1651 69.4706 43.1934 69.4808C43.2216 69.4911 43.2371 69.5217 43.2268 69.5498C42.6779 71.0924 42.1111 72.631 41.5391 74.1659C40.2961 77.504 39.0159 80.8305 37.6752 84.1316C37.0891 85.5744 36.4901 87.0134 35.8705 88.4422C35.3024 89.7534 34.7176 91.0595 34.1006 92.3489C33.5941 93.4058 33.0633 94.4653 32.4771 95.4813C32.2496 95.8749 32.0131 96.2659 31.756 96.6417C31.5799 96.896 31.3923 97.1529 31.1879 97.3855Z" fill="#A7D1F3"/>
<path fill-rule="evenodd" clip-rule="evenodd" d="M72.6007 11.3163C72.5955 11.315 72.5904 11.3138 72.5853 11.3099C72.4464 11.2294 72.2858 11.1591 72.1392 11.0978C71.7793 10.9483 71.3989 10.8345 71.0158 10.7655C69.8975 10.5636 68.8217 10.7604 67.9335 11.4965C67.5594 11.8071 67.2985 12.1994 67.3049 12.6978C67.3113 13.1988 67.5864 13.6857 67.8859 14.0729C68.1726 14.4448 68.5235 14.7835 68.8859 15.0812C69.0556 15.2218 69.2394 15.365 69.4232 15.4864C69.4477 15.503 69.4554 15.5362 69.4387 15.5618C69.4219 15.586 69.3885 15.5937 69.3628 15.5771C69.1752 15.4531 68.9888 15.3074 68.8165 15.1643C68.4476 14.8602 68.0916 14.5164 67.7998 14.1381C67.0954 13.2269 66.8769 12.2314 67.8641 11.4122C68.7767 10.6556 69.886 10.4511 71.0351 10.6582C71.4259 10.7285 71.814 10.8447 72.1817 10.9968C72.3308 11.0582 72.4914 11.1297 72.6328 11.2103C73.1573 11.3023 73.6881 11.3649 74.2177 11.4147C74.8501 11.4748 75.4851 11.5157 76.1188 11.5464C77.5545 11.6154 78.9955 11.6345 80.4325 11.6307C82.6716 11.6256 84.9146 11.5655 87.1525 11.4735C87.9211 11.4416 88.6911 11.4083 89.4597 11.3674C89.4674 11.3662 89.4739 11.3649 89.4816 11.3662C89.7361 11.3521 89.9893 11.338 90.2425 11.3227C90.2721 11.3214 90.2978 11.3432 90.3004 11.3738C90.3016 11.4032 90.2798 11.4288 90.249 11.4313C90.0202 11.4454 89.7901 11.4582 89.5613 11.471C89.7669 11.8633 89.9649 12.2607 90.1603 12.6582C90.6114 13.5771 91.0433 14.5074 91.4392 15.4506C91.749 16.1893 92.0459 16.9496 92.2747 17.7164C92.393 18.1139 92.5382 18.6494 92.5652 19.1145C92.5935 19.0328 92.6218 18.9497 92.6488 18.8679C92.6578 18.8398 92.6886 18.8244 92.7169 18.8334C92.7452 18.8423 92.7606 18.873 92.7516 18.9011C92.6899 19.089 92.6243 19.2768 92.5575 19.4634C92.5575 19.4647 92.5575 19.4647 92.5562 19.466C92.5523 19.4762 92.5446 19.4852 92.5356 19.4915C92.5254 19.4979 92.5138 19.5018 92.5009 19.5005C92.4958 19.5005 92.4907 19.4992 92.4868 19.4967C92.4765 19.4928 92.4675 19.4852 92.4611 19.4762C92.4547 19.466 92.4508 19.4545 92.4521 19.4417C92.4752 19.204 92.4444 18.9407 92.4045 18.7056C92.3493 18.3835 92.2644 18.0615 92.1706 17.7484C91.9418 16.9854 91.6474 16.2276 91.339 15.4928C90.9443 14.5509 90.5125 13.6218 90.0626 12.7055C89.8608 12.294 89.6551 11.8825 89.443 11.4773C88.6821 11.5182 87.9186 11.5515 87.1576 11.5821C84.9185 11.6742 82.6742 11.7342 80.4338 11.7393C78.9954 11.7432 77.552 11.724 76.1149 11.655C75.4787 11.6243 74.8424 11.5834 74.2087 11.5234C73.6727 11.4722 73.1354 11.4096 72.6058 11.3163C72.602 11.3163 72.602 11.3163 72.6007 11.3163Z" fill="white"/>
<path d="M92.5034 19.5286C92.5008 19.5286 92.4982 19.5286 92.4944 19.5286C92.4866 19.5273 92.4789 19.526 92.4725 19.5234C92.4571 19.517 92.4429 19.5068 92.4339 19.4915C92.4237 19.4762 92.4185 19.457 92.4211 19.4391C92.4404 19.2436 92.4249 19.011 92.3735 18.7106C92.3247 18.4295 92.2514 18.1266 92.1409 17.7573C91.9455 17.1029 91.6897 16.409 91.3105 15.5055C90.948 14.6428 90.5316 13.7316 90.0354 12.7195C89.8709 12.3847 89.6537 11.9463 89.4236 11.508C88.768 11.5425 88.0675 11.5744 87.1562 11.6128C84.6882 11.7137 82.4877 11.7648 80.4311 11.7699C78.7588 11.7738 77.386 11.7469 76.1109 11.6856C75.4039 11.6511 74.7805 11.6089 74.2034 11.554C73.5774 11.4952 73.0671 11.4287 72.598 11.3469H72.5941C72.5864 11.3457 72.5774 11.3418 72.571 11.338C72.4206 11.2511 72.2458 11.1757 72.1275 11.1271C71.7612 10.975 71.3846 10.8639 71.0092 10.7961C69.8357 10.584 68.7778 10.8345 67.95 11.5207C67.5336 11.8658 67.3253 12.262 67.3318 12.7003C67.3369 13.1157 67.531 13.5719 67.9063 14.0588C68.1647 14.3936 68.5002 14.731 68.9025 15.0633C69.1094 15.2333 69.2791 15.3623 69.4372 15.4671C69.4552 15.4786 69.4681 15.4978 69.4719 15.5195C69.4758 15.5413 69.4719 15.563 69.4604 15.5809C69.4346 15.6179 69.3832 15.6282 69.346 15.6039C69.1827 15.4953 69.0079 15.3636 68.7971 15.1898C68.3845 14.8499 68.0413 14.5035 67.7752 14.1585C66.941 13.0786 66.9641 12.1227 67.8433 11.3942C68.7097 10.676 69.8138 10.414 71.0375 10.6338C71.4244 10.7041 71.8126 10.8179 72.1892 10.975C72.3769 11.053 72.5208 11.1207 72.6391 11.1885C73.0993 11.269 73.6018 11.3342 74.2175 11.3917C74.7895 11.4453 75.4117 11.4888 76.1173 11.522C77.3886 11.5834 78.7588 11.6089 80.4285 11.6064C82.4825 11.6013 84.6805 11.5501 87.1472 11.4492C88.0727 11.4108 88.7835 11.3789 89.4544 11.3431C89.4596 11.3405 89.4711 11.3405 89.4814 11.3418C89.7295 11.3278 89.9827 11.3137 90.2372 11.2984C90.2591 11.2971 90.2809 11.3048 90.2964 11.3188C90.3131 11.3329 90.3233 11.3533 90.3246 11.3751C90.3272 11.4198 90.2925 11.4594 90.2475 11.462C90.0329 11.4747 89.8182 11.4875 89.6022 11.499C89.7732 11.8262 89.9532 12.184 90.1807 12.6492C90.6781 13.6626 91.0959 14.5764 91.4596 15.4441C91.8414 16.3541 92.0997 17.0544 92.2964 17.7125C92.398 18.0512 92.5316 18.5368 92.5766 18.9816C92.5895 18.942 92.6036 18.9023 92.6165 18.8627C92.6229 18.8423 92.6383 18.8257 92.6576 18.8154C92.6769 18.8052 92.7 18.8039 92.7206 18.8103C92.7411 18.8167 92.7579 18.8321 92.7681 18.8512C92.7784 18.8704 92.7797 18.8934 92.7733 18.9138C92.7103 19.1043 92.6435 19.296 92.5792 19.4762C92.5715 19.4953 92.5612 19.5081 92.5458 19.5183C92.5355 19.5234 92.5201 19.5286 92.5034 19.5286ZM89.457 11.4479L89.466 11.4645C89.6999 11.9092 89.9197 12.3553 90.0868 12.6939C90.583 13.7061 91.0007 14.6186 91.3632 15.4825C91.7437 16.3886 91.9995 17.0851 92.1961 17.7407C92.3067 18.1126 92.3812 18.418 92.4301 18.7017C92.4828 19.0084 92.4982 19.2436 92.4789 19.4455C92.4789 19.4519 92.4802 19.457 92.4828 19.4621C92.4854 19.4672 92.4905 19.4698 92.4956 19.4723L92.5034 19.4736C92.5111 19.4736 92.5162 19.4723 92.5201 19.4698C92.5252 19.4672 92.5278 19.4621 92.5304 19.457C92.5946 19.2755 92.6615 19.0851 92.7244 18.8934C92.727 18.887 92.7257 18.8793 92.7232 18.8729C92.7206 18.8666 92.7142 18.8614 92.7077 18.8602C92.7013 18.8576 92.6936 18.8589 92.6872 18.8614C92.6807 18.864 92.6756 18.8704 92.6743 18.8768C92.6473 18.9599 92.619 19.0416 92.5908 19.1247L92.5445 19.2589L92.5368 19.117C92.5098 18.6442 92.3581 18.0959 92.2476 17.7253C92.0509 17.0684 91.7938 16.3707 91.4134 15.462C91.0496 14.5956 90.6318 13.6831 90.1357 12.6709C89.8992 12.1878 89.7141 11.8211 89.538 11.4837L89.5174 11.4453L89.5611 11.4428C89.7899 11.43 90.02 11.4172 90.2488 11.4032C90.2629 11.4019 90.2745 11.3904 90.2732 11.3751C90.2732 11.3687 90.2694 11.3623 90.2642 11.3572C90.2591 11.3521 90.2527 11.3495 90.2449 11.3508C89.9917 11.3661 89.7372 11.3802 89.484 11.3942C89.475 11.3929 89.4711 11.3929 89.4686 11.3942C88.7925 11.4313 88.0816 11.4632 87.1549 11.5016C84.687 11.6025 82.489 11.6537 80.4336 11.6588C78.7626 11.6626 77.3911 11.6358 76.1186 11.5744C75.4117 11.5399 74.7895 11.4977 74.2163 11.4428C73.5967 11.384 73.0928 11.3188 72.6288 11.2383L72.6198 11.2345C72.5028 11.168 72.3602 11.1003 72.1725 11.0223C71.7985 10.8677 71.4154 10.754 71.0324 10.6849C69.8254 10.4664 68.7367 10.7258 67.8845 11.4326C66.8086 12.3246 67.2585 13.3853 67.8241 14.1189C68.0876 14.4601 68.4282 14.8039 68.8369 15.1413C69.0465 15.3138 69.22 15.4454 69.3807 15.5515C69.3922 15.5592 69.4089 15.5566 69.4166 15.5438C69.4205 15.5374 69.4218 15.531 69.4205 15.5246C69.4192 15.5183 69.4154 15.5119 69.4089 15.508C69.2495 15.402 69.0773 15.2729 68.8691 15.1004C68.4629 14.7655 68.1248 14.4243 67.8639 14.0869C67.4796 13.5898 67.2829 13.122 67.2778 12.6952C67.2713 12.2402 67.4873 11.8287 67.9166 11.4722C68.7572 10.7757 69.8305 10.5214 71.0221 10.7361C71.4013 10.8038 71.7817 10.9175 72.1519 11.0709C72.2715 11.1207 72.4489 11.1961 72.6018 11.2856C72.6044 11.2869 72.607 11.2882 72.6095 11.2882C73.0787 11.3712 73.5864 11.4364 74.2111 11.4952C74.787 11.5489 75.4104 11.5923 76.116 11.6268C77.3899 11.6882 78.7626 11.715 80.4336 11.7112C82.4902 11.7061 84.6895 11.6549 87.1562 11.554C88.0752 11.5169 88.7796 11.4837 89.4403 11.4492L89.457 11.4479Z" fill="#F0A38B"/>
<path fill-rule="evenodd" clip-rule="evenodd" d="M80.9365 54.7003C81.1962 52.3897 81.4776 50.0817 81.7849 47.7775C81.9224 46.7436 82.0625 45.7084 82.218 44.6771C82.2219 44.6503 82.2437 44.6311 82.2707 44.6311L82.826 44.6196C82.7219 43.955 82.6268 43.2867 82.5407 42.6196C82.497 42.2745 82.4545 41.9282 82.4211 41.5831C82.3954 41.3262 82.3697 41.0566 82.3697 40.7984C82.3697 40.4904 82.4314 40.1569 82.5021 39.8591C82.6139 39.3837 82.772 38.9134 82.9468 38.4572C83.1898 37.8284 83.4738 37.2137 83.7811 36.6143C84.1782 35.8412 84.6166 35.0872 85.0819 34.3523C85.0973 34.3268 85.132 34.3191 85.1564 34.3357C85.1821 34.351 85.1898 34.3855 85.1731 34.4098C84.7104 35.1421 84.2734 35.8923 83.8775 36.6629C83.5715 37.2597 83.2888 37.8706 83.0471 38.4955C82.8736 38.9466 82.7168 39.4131 82.6062 39.8834C82.5381 40.1735 82.4764 40.4994 82.4764 40.7984C82.4764 41.0528 82.5021 41.3186 82.5265 41.5716C82.5599 41.9167 82.6024 42.2617 82.6461 42.6055C82.7322 43.2764 82.8273 43.9487 82.9327 44.617L89.4727 44.479C89.501 44.479 89.5254 44.4995 89.528 44.5276C89.6565 45.7148 89.7773 46.9033 89.8969 48.0919C90.2041 51.1322 90.4946 54.175 90.771 57.2179C91.1231 61.0966 91.4509 64.9791 91.7491 68.8616C91.7517 68.8909 91.7286 68.9178 91.699 68.9191C91.6694 68.9216 91.6424 68.8986 91.6412 68.8692C91.3429 64.9867 91.0152 61.1055 90.663 57.2268C90.3866 54.184 90.0961 51.1411 89.7889 48.1008C89.6707 46.9289 89.5511 45.757 89.4252 44.5864L82.3144 44.7372C82.1615 45.7532 82.0239 46.773 81.889 47.7903C81.5753 50.1507 81.2874 52.5149 81.0226 54.8817C81.0278 54.8971 81.0252 54.9124 81.0175 54.9252C80.9854 55.2089 80.9545 55.4939 80.9236 55.7776C80.5136 59.5221 80.1589 63.2742 79.8696 67.0302C79.5393 71.3217 79.2951 75.6233 79.1742 79.9263C79.0753 83.4791 79.0611 87.0395 79.1845 90.5923C79.2437 92.2792 79.3349 93.9674 79.4699 95.6505C79.5971 97.2301 79.7617 98.8071 79.9828 100.375C80.1846 101.81 80.4339 103.242 80.754 104.655C81.0381 105.911 81.38 107.163 81.8131 108.378C82.4828 110.259 83.4559 112.291 84.9122 113.701C84.934 113.721 84.934 113.756 84.9135 113.777C84.8929 113.799 84.8582 113.799 84.8363 113.779C83.3672 112.358 82.3864 110.313 81.7103 108.415C81.2758 107.196 80.9327 105.941 80.6473 104.679C80.3272 103.262 80.0779 101.828 79.8748 100.391C79.6537 98.8199 79.4879 97.2403 79.3619 95.6595C79.227 93.9751 79.1357 92.2856 79.0766 90.5974C78.9519 87.0433 78.9673 83.4803 79.0663 79.925C79.1858 75.6208 79.4313 71.3178 79.7617 67.0238C80.0509 63.2666 80.4044 59.5131 80.8157 55.7674C80.8478 55.4786 80.8799 55.1897 80.9121 54.9009C80.137 53.2562 78.3876 51.8478 76.9004 50.8574C75.4736 49.9066 73.9235 49.0887 72.3643 48.3756C71.8386 48.1353 71.3064 47.9053 70.7704 47.688C70.5609 47.6037 70.3501 47.5193 70.138 47.4414C70.1097 47.4311 70.0956 47.4005 70.1059 47.3724L72.2422 41.0004C72.0532 40.7754 71.8733 40.5288 71.7036 40.2911C71.2396 39.6406 70.8141 38.9569 70.4247 38.2578C69.1599 35.9868 68.2537 33.4948 67.8038 30.9363C67.7986 30.9069 67.8179 30.8788 67.8475 30.8737C67.877 30.8686 67.9053 30.8877 67.9105 30.9171C68.3591 33.4628 69.2614 35.9447 70.5198 38.2041C70.9067 38.8981 71.3296 39.5792 71.7923 40.2272C71.9658 40.47 72.1509 40.7243 72.345 40.9518C72.3514 40.9595 72.3553 40.9671 72.3566 40.9761C72.3579 40.985 72.3579 40.994 72.3553 41.0042L70.2254 47.357C70.4221 47.4299 70.6175 47.5078 70.8116 47.5871C71.3489 47.8043 71.8823 48.0356 72.4106 48.2759C73.9762 48.9916 75.5315 49.812 76.9621 50.7654C78.4223 51.7392 80.119 53.1015 80.9365 54.7003Z" fill="#F0A38B"/>
<path d="M84.8769 113.82C84.8551 113.82 84.8345 113.813 84.8191 113.797C83.5684 112.587 82.544 110.83 81.6866 108.423C81.2856 107.296 80.9373 106.073 80.6236 104.685C80.3241 103.36 80.0709 101.956 79.8511 100.394C79.6416 98.9063 79.4732 97.3587 79.337 95.6602C79.2071 94.0487 79.1146 92.3924 79.0516 90.5969C78.9359 87.301 78.9321 83.8095 79.0413 79.9232C79.1544 75.8554 79.3819 71.6355 79.7367 67.0208C80.0169 63.376 80.3717 59.588 80.7907 55.7643C80.8216 55.4781 80.8537 55.1918 80.8858 54.9055C80.2611 53.5867 78.9166 52.2333 76.8883 50.8799C75.5798 50.007 74.0965 49.1968 72.3561 48.4006C71.8175 48.154 71.2815 47.9227 70.7635 47.7143C70.5732 47.6377 70.3509 47.5482 70.1324 47.4677C70.0899 47.4524 70.0681 47.4051 70.0835 47.3629L72.2147 41.005C72.0283 40.7826 71.8496 40.5372 71.6838 40.3059C71.2403 39.6848 70.8097 38.9998 70.4036 38.2701C69.1092 35.9467 68.2274 33.4802 67.7801 30.9396C67.7763 30.9179 67.7814 30.8962 67.7942 30.8783C67.8071 30.8604 67.8264 30.8489 67.8469 30.845C67.8919 30.8374 67.9344 30.8668 67.9421 30.9115C68.3855 33.433 69.2621 35.8828 70.5475 38.1896C70.9511 38.9142 71.3779 39.5928 71.8188 40.2101C71.991 40.4516 72.1774 40.7059 72.3702 40.9334C72.3792 40.9436 72.3856 40.9564 72.3882 40.9705C72.3908 40.9845 72.3908 40.9999 72.3856 41.0126L70.2647 47.3399C70.4421 47.4064 70.6182 47.4766 70.8265 47.5597C71.3457 47.7693 71.8843 48.0019 72.4255 48.2498C74.1736 49.0486 75.6646 49.8639 76.9809 50.7419C78.9179 52.0326 80.2432 53.3311 80.9205 54.6039C81.1828 52.2729 81.4655 49.9751 81.7586 47.7731C81.8833 46.8351 82.0298 45.7463 82.1918 44.6728C82.1982 44.6331 82.2316 44.6038 82.2715 44.6025L82.7946 44.591C82.6931 43.9418 82.5992 43.2798 82.5144 42.6216C82.4604 42.2063 82.4244 41.8868 82.3949 41.5839C82.3717 41.3526 82.3435 41.0638 82.3435 40.7967C82.3435 40.536 82.3859 40.2356 82.4759 39.851C82.5761 39.4228 82.7226 38.964 82.9219 38.4452C83.1481 37.8586 83.4219 37.2541 83.7574 36.5998C84.134 35.8637 84.5607 35.1237 85.0595 34.3352C85.071 34.3173 85.089 34.3045 85.1109 34.2994C85.1327 34.2943 85.1546 34.2981 85.1726 34.3096C85.1919 34.3211 85.2047 34.339 85.2086 34.3608C85.2137 34.3825 85.2099 34.4042 85.1983 34.4221C84.7021 35.2055 84.2792 35.9416 83.9039 36.6739C83.571 37.3244 83.2998 37.9225 83.0748 38.504C82.8782 39.0152 82.7342 39.4676 82.6352 39.888C82.5478 40.2612 82.5067 40.55 82.5067 40.7967C82.5067 41.0561 82.5337 41.3283 82.5568 41.5673C82.5864 41.8663 82.6237 42.1845 82.6764 42.5999C82.7612 43.2632 82.8563 43.9315 82.9592 44.5871L89.4747 44.4491C89.5172 44.4478 89.5544 44.4798 89.5583 44.522C89.692 45.7616 89.8192 47.0115 89.9272 48.0862C90.2254 51.0435 90.5198 54.1145 90.8013 57.2136C91.165 61.2251 91.4941 65.1421 91.7794 68.8585C91.7807 68.8802 91.7743 68.9019 91.7601 68.9186C91.746 68.9352 91.7254 68.9454 91.7036 68.9467C91.6817 68.9479 91.6599 68.9416 91.6432 68.9275C91.6265 68.9134 91.6162 68.893 91.6149 68.8713C91.3296 65.1536 91.0005 61.2366 90.6367 57.2289C90.3552 54.1272 90.0609 51.0575 89.7627 48.1041C89.6573 47.0536 89.5326 45.8319 89.4015 44.6165L82.3409 44.7661C82.1841 45.814 82.0401 46.8786 81.9193 47.7961C81.6159 50.0761 81.3241 52.4595 81.0529 54.8812C81.0568 54.8991 81.0555 54.9183 81.0465 54.9349C81.0144 55.2174 80.9835 55.4998 80.9527 55.7822C80.5336 59.6059 80.1789 63.3913 79.8987 67.0335C79.5439 71.6458 79.3177 75.8631 79.2046 79.9283C79.0966 83.8108 79.1004 87.2997 79.2148 90.5918C79.2778 92.3848 79.3704 94.0398 79.5002 95.6487C79.6365 97.3433 79.8036 98.8884 80.0131 100.372C80.2329 101.929 80.4848 103.328 80.783 104.65C81.0954 106.031 81.4424 107.248 81.8409 108.368C82.6777 110.717 83.7175 112.504 84.9335 113.68C84.9489 113.695 84.9579 113.715 84.9579 113.737C84.9579 113.759 84.9502 113.779 84.9348 113.796C84.9206 113.811 84.9001 113.82 84.8769 113.82C84.8782 113.82 84.8782 113.82 84.8769 113.82ZM67.8585 30.9013C67.8572 30.9013 67.8559 30.9013 67.8534 30.9013C67.8469 30.9026 67.8405 30.9064 67.8367 30.9115C67.8328 30.9179 67.8315 30.9243 67.8328 30.9307C68.2788 33.4649 69.1593 35.925 70.4511 38.2433C70.856 38.9704 71.2866 39.6541 71.7288 40.274C71.8959 40.5091 72.0771 40.757 72.2661 40.982L72.2764 40.9935L72.2712 41.0088L70.1349 47.3808C70.1298 47.3949 70.1375 47.4089 70.1503 47.414C70.3701 47.4945 70.5925 47.584 70.7828 47.6607C71.3008 47.8703 71.838 48.1016 72.3779 48.3482C74.1222 49.1444 75.6068 49.9572 76.9192 50.8313C78.9603 52.1924 80.3126 53.556 80.9398 54.8864L80.9437 54.894L80.9424 54.9017C80.9103 55.1905 80.8781 55.4793 80.846 55.7682C80.427 59.5919 80.0722 63.3785 79.792 67.0233C79.4372 71.6368 79.2097 75.8567 79.0966 79.9232C78.9886 83.8083 78.9925 87.2984 79.1069 90.5931C79.1699 92.3886 79.2637 94.0436 79.3922 95.6551C79.5285 97.351 79.6956 98.8986 79.9051 100.385C80.1249 101.945 80.3768 103.347 80.6776 104.671C80.9912 106.057 81.3383 107.278 81.7393 108.403C82.5928 110.8 83.6134 112.551 84.8577 113.755C84.8628 113.76 84.8679 113.765 84.8769 113.763C84.8834 113.763 84.8911 113.76 84.8949 113.755C84.9001 113.75 84.9026 113.744 84.9026 113.736C84.9026 113.73 84.9001 113.722 84.8949 113.718C83.6558 112.519 82.6404 110.775 81.7895 108.385C81.3897 107.262 81.0427 106.043 80.729 104.66C80.4295 103.337 80.1776 101.936 79.9578 100.377C79.7483 98.8922 79.5812 97.3459 79.4449 95.65C79.3164 94.0398 79.2226 92.3848 79.1596 90.5905C79.0439 87.2971 79.04 83.807 79.1493 79.9232C79.2624 75.858 79.4899 71.6394 79.8447 67.0259C80.1249 63.3824 80.4797 59.597 80.8987 55.772C80.9295 55.4883 80.9617 55.2033 80.9925 54.9196L80.9964 54.9081C81.0002 54.9017 81.0015 54.894 80.999 54.8876L80.9977 54.8825L80.999 54.8761C81.2702 52.4518 81.5619 50.0658 81.8653 47.7846C81.9887 46.8607 82.1327 45.7859 82.2908 44.7303L82.2946 44.7073H82.3178L89.4542 44.5565L89.4567 44.582C89.5891 45.8076 89.7138 47.0383 89.8205 48.0965C90.1187 51.0499 90.4131 54.1209 90.6946 57.2225C91.0583 61.2302 91.3874 65.1485 91.6727 68.8662C91.6727 68.8725 91.6766 68.8789 91.6817 68.884C91.6869 68.8892 91.6933 68.8904 91.701 68.8904C91.7075 68.8904 91.7139 68.8866 91.719 68.8815C91.7242 68.8764 91.7254 68.87 91.7254 68.8623C91.4401 65.1472 91.111 61.229 90.7473 57.2187C90.4658 54.1196 90.1714 51.0499 89.8732 48.0926C89.7652 47.0179 89.638 45.768 89.5043 44.5284C89.503 44.5143 89.4915 44.5066 89.4773 44.5053L82.9116 44.6446L82.9077 44.6204C82.8036 43.9571 82.7072 43.2798 82.6211 42.6076C82.5671 42.1922 82.5311 41.8727 82.5016 41.5737C82.4784 41.3321 82.4514 41.0586 82.4514 40.7967C82.4514 40.5449 82.4926 40.2522 82.5813 39.8752C82.6802 39.4522 82.8255 38.9973 83.0234 38.4835C83.2484 37.9008 83.5209 37.3001 83.8551 36.6483C84.2304 35.9161 84.6546 35.1774 85.152 34.3927C85.1559 34.3863 85.1572 34.3799 85.1559 34.3735C85.1546 34.3672 85.1507 34.3608 85.1443 34.3569C85.1379 34.3531 85.1314 34.3518 85.125 34.3531C85.1186 34.3544 85.1122 34.3582 85.1083 34.3646C84.6109 35.1518 84.1854 35.8905 83.8088 36.6241C83.4733 37.2771 83.2008 37.879 82.9759 38.4644C82.7766 38.9794 82.6314 39.4369 82.5311 39.8625C82.4411 40.2433 82.4 40.5398 82.4 40.7954C82.4 41.0599 82.4283 41.3462 82.4514 41.5775C82.481 41.8791 82.5183 42.1986 82.571 42.6139C82.6571 43.2823 82.7522 43.9545 82.855 44.614L82.8602 44.6459L82.2728 44.6587C82.2599 44.6587 82.2496 44.6677 82.2471 44.6804C82.0851 45.7539 81.9386 46.8428 81.8139 47.7808C81.517 50.0109 81.2316 52.3394 80.9655 54.7023L80.9552 54.7956L80.9128 54.7126C80.2521 53.4231 78.9192 52.1029 76.9487 50.7904C75.6351 49.9137 74.1466 49.101 72.401 48.3035C71.8599 48.0568 71.3226 47.8243 70.8033 47.6147C70.5861 47.5265 70.4036 47.4536 70.2185 47.3859L70.1928 47.377L70.2018 47.3514L72.3304 40.996C72.3316 40.9922 72.3316 40.9871 72.3316 40.9832C72.3304 40.9794 72.3291 40.9756 72.3265 40.9717C72.1324 40.743 71.9447 40.4874 71.7725 40.2446C71.3316 39.626 70.9023 38.9449 70.4987 38.219C69.2107 35.9058 68.3315 33.4508 67.8868 30.923C67.8829 30.9102 67.8714 30.9013 67.8585 30.9013Z" fill="#A7D1F3"/>
<path fill-rule="evenodd" clip-rule="evenodd" d="M87.4965 18.7899C87.5723 18.9893 87.6636 19.1899 87.7536 19.3829C87.949 19.7995 88.1713 20.2148 88.4284 20.5982C88.5814 20.827 88.7497 21.0506 88.9413 21.2487C88.9618 21.2704 88.9606 21.305 88.94 21.3254C88.9181 21.3458 88.8834 21.3458 88.8629 21.3241C88.6675 21.1209 88.494 20.8922 88.3384 20.6583C88.0788 20.2698 87.8538 19.8506 87.6559 19.4289C87.5646 19.2334 87.4734 19.0302 87.395 18.8282C87.3847 18.8001 87.3988 18.7695 87.4258 18.7579C87.4541 18.7477 87.4849 18.7618 87.4965 18.7899Z" fill="#3F4553"/>
<path d="M88.9015 21.4443C88.9002 21.4443 88.899 21.4443 88.8977 21.4443C88.8553 21.443 88.8154 21.4264 88.7858 21.3957C88.6059 21.2078 88.4298 20.9867 88.2498 20.7158C88.0082 20.3541 87.782 19.9477 87.5596 19.4723C87.4439 19.227 87.3629 19.0391 87.2961 18.864C87.2807 18.8244 87.2819 18.7809 87.2999 18.7426C87.3179 18.7043 87.3488 18.6749 87.3886 18.6595C87.4285 18.6442 87.4722 18.6455 87.5107 18.6634C87.5493 18.6813 87.5789 18.7119 87.5943 18.7516C87.6586 18.919 87.737 19.1004 87.8488 19.3381C88.0647 19.7995 88.2833 20.1918 88.5159 20.5394C88.6869 20.7938 88.8501 21.0021 89.0172 21.1759C89.0776 21.2398 89.0763 21.3407 89.0121 21.4008C88.9825 21.4289 88.9439 21.4443 88.9015 21.4443Z" fill="#3F4553"/>
<path fill-rule="evenodd" clip-rule="evenodd" d="M80.7099 16.5458C80.9027 16.5854 81.0968 16.6212 81.2909 16.6557C81.7112 16.7311 82.1354 16.7988 82.5583 16.8525C82.8346 16.887 83.1136 16.9164 83.3925 16.933C83.611 16.9458 83.8475 16.9522 84.0647 16.9266C84.0943 16.9228 84.1213 16.9445 84.1252 16.9739C84.129 17.0033 84.1072 17.0301 84.0776 17.0339C83.8539 17.0608 83.611 17.0531 83.3861 17.0403C83.1046 17.025 82.8231 16.9943 82.5441 16.9598C82.1187 16.9062 81.6932 16.8384 81.2703 16.763C81.0762 16.7285 80.8809 16.6927 80.6868 16.6531C80.6572 16.6467 80.6379 16.6186 80.6443 16.5892C80.6521 16.5585 80.6816 16.5394 80.7099 16.5458Z" fill="#3F4553"/>
<path d="M83.7344 17.1566C83.6123 17.1566 83.4915 17.1515 83.3822 17.1451C83.1303 17.131 82.8604 17.1042 82.5326 17.0633C82.1406 17.0135 81.7228 16.9496 81.2537 16.8652C81.0917 16.8358 80.8796 16.7975 80.6675 16.754C80.5814 16.7361 80.5261 16.6518 80.5428 16.5662C80.5518 16.524 80.5763 16.4882 80.6123 16.4652C80.6482 16.4422 80.6907 16.4345 80.7318 16.4422C80.9323 16.4831 81.1367 16.5202 81.3102 16.5521C81.7729 16.6352 82.1856 16.6991 82.5725 16.7476C82.8938 16.7885 83.156 16.8141 83.4002 16.8269C83.6033 16.8384 83.8398 16.8473 84.0545 16.8218C84.0969 16.8167 84.138 16.8282 84.1728 16.855C84.2062 16.8818 84.228 16.9189 84.2332 16.9611C84.2434 17.048 84.1805 17.1272 84.0931 17.1374C83.9735 17.1515 83.8527 17.1566 83.7344 17.1566Z" fill="#3F4553"/>
<path fill-rule="evenodd" clip-rule="evenodd" d="M86.733 24.2569C86.7368 24.4103 86.7536 24.5713 86.7728 24.7221C86.814 25.0467 86.8834 25.3777 86.9952 25.6857C87.0929 25.9528 87.2343 26.2327 87.4438 26.4295C87.4657 26.4499 87.4669 26.4844 87.4464 26.5062C87.4258 26.5279 87.3911 26.5292 87.3693 26.5087C87.1456 26.2991 86.9965 26.0078 86.8924 25.7228C86.778 25.4084 86.7073 25.0684 86.6649 24.7362C86.6443 24.5815 86.6276 24.4167 86.6237 24.2595C86.6224 24.2301 86.6469 24.2045 86.6764 24.2045C86.7073 24.2033 86.7317 24.2275 86.733 24.2569Z" fill="#3F4553"/>
<path d="M87.4067 26.6276C87.3669 26.6276 87.3283 26.6135 87.2975 26.5841C87.0931 26.3924 86.9234 26.1138 86.7936 25.7586C86.6869 25.4659 86.6085 25.126 86.5597 24.7502C86.5353 24.5573 86.5211 24.4026 86.5186 24.2633C86.5173 24.2211 86.5327 24.1802 86.5622 24.1496C86.5918 24.1189 86.6317 24.101 86.6741 24.101C86.7165 24.0985 86.7576 24.1151 86.7885 24.1445C86.8193 24.1739 86.8373 24.2135 86.8386 24.2556C86.8412 24.3834 86.854 24.5279 86.8772 24.7106C86.9221 25.0646 86.9954 25.3803 87.0944 25.6512C87.2062 25.9605 87.3489 26.1969 87.516 26.3541C87.5802 26.4142 87.5828 26.5151 87.5224 26.579C87.4916 26.611 87.4491 26.6276 87.4067 26.6276Z" fill="#3F4553"/>
<path fill-rule="evenodd" clip-rule="evenodd" d="M77.8961 20.5572C78.0016 20.6365 78.1211 20.7119 78.2342 20.7809C78.5247 20.9572 78.8319 21.1131 79.1456 21.2448C80.089 21.6435 81.1251 21.8429 82.1508 21.7278C82.1804 21.724 82.2073 21.7457 82.2112 21.7751C82.2151 21.8045 82.1932 21.8314 82.1636 21.8352C81.1199 21.9528 80.0659 21.7509 79.1044 21.3445C78.7856 21.2103 78.4746 21.0518 78.1789 20.8729C78.0633 20.8026 77.9399 20.7246 77.8319 20.6429C77.8075 20.625 77.8036 20.5905 77.8216 20.5675C77.8383 20.5432 77.8717 20.5393 77.8961 20.5572Z" fill="#3F4553"/>
<path d="M81.5713 21.9718C80.7486 21.9718 79.8926 21.7917 79.0622 21.4402C78.7332 21.3009 78.4182 21.1399 78.1239 20.961C78.0133 20.8932 77.8835 20.8127 77.7678 20.7258C77.6971 20.6722 77.6843 20.5725 77.737 20.5035C77.7627 20.4702 77.8 20.4485 77.8424 20.4421C77.8848 20.4357 77.9272 20.4472 77.9606 20.4728C78.0648 20.552 78.1856 20.6274 78.2897 20.69C78.5699 20.86 78.872 21.0147 79.1869 21.1476C80.1728 21.5642 81.1934 21.729 82.1381 21.623C82.1805 21.6179 82.2217 21.6306 82.2551 21.6562C82.2885 21.683 82.3091 21.7201 82.3142 21.7623C82.3245 21.8492 82.2615 21.9284 82.1741 21.9386C81.9762 21.9616 81.7744 21.9718 81.5713 21.9718Z" fill="#3F4553"/>
<path fill-rule="evenodd" clip-rule="evenodd" d="M76.5068 32.8605C76.7318 32.9653 76.994 33.2132 77.1521 33.396C77.6495 33.9698 77.931 34.7174 78.0698 35.4535C78.075 35.4829 78.0557 35.511 78.0261 35.5161C77.9966 35.5213 77.9683 35.5021 77.9632 35.4727C77.8269 34.7557 77.5544 34.0247 77.0698 33.4663C76.9439 33.3206 76.7999 33.1838 76.6431 33.0714C76.5891 33.033 76.5223 32.987 76.4619 32.9589C76.4349 32.9461 76.4233 32.9142 76.4361 32.8873C76.4464 32.8592 76.4799 32.8477 76.5068 32.8605Z" fill="#3F4553"/>
<path d="M78.0169 35.6208C77.941 35.6208 77.8742 35.5671 77.86 35.4917C77.7084 34.693 77.4076 34.0156 76.9898 33.5338C76.8587 33.383 76.7212 33.2552 76.5811 33.1543C76.5374 33.1223 76.4718 33.0776 76.4166 33.0521C76.378 33.0342 76.3484 33.0022 76.3343 32.9626C76.3202 32.923 76.3215 32.8795 76.3395 32.8412C76.3574 32.8028 76.3896 32.7735 76.4294 32.7594C76.4693 32.7453 76.513 32.7466 76.5515 32.7645C76.7906 32.8757 77.0593 33.1275 77.2315 33.3255C77.6917 33.8572 78.0091 34.5652 78.1737 35.4317C78.1814 35.4738 78.1724 35.516 78.1493 35.5505C78.1248 35.585 78.0888 35.6093 78.0464 35.617C78.0361 35.6208 78.0259 35.6208 78.0169 35.6208ZM76.504 32.8629C76.504 32.8629 76.5053 32.8629 76.504 32.8629C76.504 32.8629 76.5053 32.8629 76.504 32.8629Z" fill="#3F4553"/>
<path fill-rule="evenodd" clip-rule="evenodd" d="M84.354 26.4076C84.0969 27.2307 83.827 28.0537 83.5442 28.869C83.3552 29.4147 83.1586 29.9668 82.9375 30.4997C82.8616 30.6825 82.7807 30.8716 82.6855 31.0442C82.647 31.1144 82.5596 31.2742 82.4683 31.2844C82.2087 31.3125 81.9426 31.209 81.7254 31.0761C81.3063 30.8205 80.94 30.3949 80.6559 30.0039C80.6379 29.9796 80.6444 29.9464 80.6675 29.9285C80.6919 29.9106 80.7253 29.917 80.7433 29.94C81.0184 30.3183 81.377 30.7362 81.7819 30.9828C81.9786 31.1017 82.2215 31.2013 82.4555 31.1758C82.494 31.163 82.5827 31.0045 82.602 30.9688C82.6945 30.7975 82.7729 30.6122 82.8475 30.432C83.0647 29.908 83.2562 29.3662 83.4426 28.8307C83.7254 28.0166 83.9941 27.1949 84.2511 26.3731C84.2601 26.345 84.291 26.3284 84.3193 26.3374C84.3475 26.3489 84.363 26.3795 84.354 26.4076Z" fill="#3F4553"/>
<path d="M82.3824 31.3956C82.1613 31.3956 81.9171 31.3177 81.6703 31.1681C81.3091 30.9483 80.9492 30.5879 80.57 30.0678C80.5456 30.0333 80.5353 29.9911 80.5417 29.9502C80.5482 29.908 80.5713 29.871 80.606 29.8467C80.678 29.7956 80.777 29.8109 80.8297 29.8825C81.178 30.3604 81.5173 30.7017 81.8374 30.8972C81.9852 30.9867 82.2024 31.0889 82.412 31.0774C82.4351 31.048 82.4762 30.9841 82.5084 30.9228C82.6009 30.7515 82.6806 30.5611 82.75 30.3962C82.9737 29.8544 83.1729 29.2882 83.3426 28.8013C83.6176 28.0077 83.8901 27.1821 84.1498 26.3463C84.1626 26.3054 84.1896 26.2722 84.2282 26.253C84.2655 26.2326 84.3092 26.2287 84.3503 26.2415C84.3902 26.2543 84.4236 26.2811 84.4441 26.3195C84.4647 26.3565 84.4686 26.4 84.4557 26.4409C84.1948 27.2792 83.921 28.1086 83.6446 28.9048C83.4711 29.4071 83.2655 29.9886 83.0354 30.5419C82.9595 30.7234 82.8773 30.9164 82.7783 31.0966C82.6973 31.2423 82.6073 31.3764 82.4814 31.3905C82.4479 31.3931 82.4158 31.3956 82.3824 31.3956Z" fill="#3F4553"/>
</svg>
